<?xml version="1.0" encoding="UTF-8" standalone="no"?>
<svg width="48px" height="48px" viewBox="0 0 48 48" version="1.1" xmlns="http://www.w3.org/2000/svg" xmlns:xlink="http://www.w3.org/1999/xlink">
    <!-- Generator: sketchtool 39.1 (31720) - http://www.bohemiancoding.com/sketch -->
    <title>51B27605-6B58-4F17-9211-671F867100D5</title>
    <desc>Created with sketchtool.</desc>
    <defs></defs>
    <g id="Frontend" stroke="none" stroke-width="1" fill="none" fill-rule="evenodd">
        <g id="test-drive_content" transform="translate(-55.000000, -1931.000000)" fill="#D2145A">
            <g id="Group-27" transform="translate(55.000000, 1931.000000)">
                <g id="Group-29">
                    <path d="M2.7,7 C1.22800002,7 0,8.2100221 0,9.66047297 L0,34.4324324 C0,35.9889434 1.30036377,37.2702703 2.88,37.2702703 L6.81,37.2702703 C7.26582321,39.9518204 9.6336145,42 12.48,42 C15.3263854,42 17.6941772,39.9518204 18.15,37.2702703 L28.8,37.2702703 L32.73,37.2702703 C33.1858227,39.9518204 35.5536145,42 38.4,42 C41.2463854,42 43.6141772,39.9518204 44.07,37.2702703 L45.12,37.2702703 C45.9199987,37.2702703 46.6191503,36.9163777 47.13,36.4130068 C47.6408496,35.9096357 48,35.2207195 48,34.4324324 L48,25.3572635 C48,24.2935379 47.5893054,23.3193393 47.22,22.5785473 C46.8506945,21.8377552 46.47,21.3074324 46.47,21.3074324 L46.47,21.2778716 L42.54,16.0751689 L42.51,16.0751689 L42.51,16.0456081 C41.6591125,14.9975705 40.2925708,13.6216216 38.4,13.6216216 L30.72,13.6216216 C30.3766662,13.6216216 30.0592712,13.6847811 29.76,13.7989865 L29.76,9.74915541 C29.76,8.23564152 28.5060003,7 26.97,7 L2.7,7 L2.7,7 Z M2.7,8.89189189 L26.97,8.89189189 C27.3539996,8.89189189 27.84,9.37077731 27.84,9.74915541 L27.84,16.4594595 L27.84,35.3783784 L18.15,35.3783784 C17.6941772,32.6968281 15.3263854,30.6486486 12.48,30.6486486 C9.6336145,30.6486486 7.26582321,32.6968281 6.81,35.3783784 L2.88,35.3783784 C2.34763641,35.3783784 1.92,34.9570033 1.92,34.4324324 L1.92,9.66047297 C1.92,9.21903103 2.25199997,8.89189189 2.7,8.89189189 L2.7,8.89189189 Z M22.02,13.2373311 L21.36,13.9172297 L13.59,22.3125 L9.27,18.5878378 L8.55,17.9670608 L7.29,19.3859797 L8.01,20.0067568 L12.99,24.3521959 L13.71,24.972973 L14.34,24.2930743 L22.8,15.2179054 L23.43,14.5084459 L22.02,13.2373311 L22.02,13.2373311 Z M30.72,15.5135135 L34.56,15.5135135 L34.56,24.027027 C34.56,24.8153141 34.9191503,25.5042303 35.43,26.0076014 C35.9408496,26.5109723 36.6400012,26.8648649 37.44,26.8648649 L46.08,26.8648649 L46.08,34.4324324 C46.08,34.5900913 45.9591503,34.8471209 45.75,35.0532095 C45.5408496,35.2592979 45.2800012,35.3783784 45.12,35.3783784 L44.07,35.3783784 C43.6141772,32.6968281 41.2463854,30.6486486 38.4,30.6486486 C35.5536145,30.6486486 33.1858227,32.6968281 32.73,35.3783784 L29.76,35.3783784 L29.76,16.4594595 C29.76,16.3018005 29.8808496,16.0447709 30.09,15.8386824 C30.2991503,15.6325939 30.5599987,15.5135135 30.72,15.5135135 L30.72,15.5135135 Z M36.48,15.5135135 L38.4,15.5135135 C39.1904626,15.5135135 40.2936767,16.3890125 40.98,17.2280405 L44.91,22.4011824 L44.94,22.4307432 C44.9593725,22.4582508 45.2178112,22.8201416 45.51,23.40625 C45.7527612,23.8932041 45.881466,24.47327 45.96,24.972973 L37.44,24.972973 C37.2799987,24.972973 37.0191503,24.8538925 36.81,24.6478041 C36.6008496,24.4417155 36.48,24.1846859 36.48,24.027027 L36.48,15.5135135 L36.48,15.5135135 Z M12.48,32.5405405 C14.612145,32.5405405 16.32,34.2233921 16.32,36.3243243 C16.32,38.4252565 14.612145,40.1081081 12.48,40.1081081 C10.3478557,40.1081081 8.64,38.4252565 8.64,36.3243243 C8.64,34.2233921 10.3478557,32.5405405 12.48,32.5405405 L12.48,32.5405405 Z M38.4,32.5405405 C40.532146,32.5405405 42.24,34.2233921 42.24,36.3243243 C42.24,38.4252565 40.532146,40.1081081 38.4,40.1081081 C36.2678539,40.1081081 34.56,38.4252565 34.56,36.3243243 C34.56,34.2233921 36.2678539,32.5405405 38.4,32.5405405 L38.4,32.5405405 Z" id="Fill-76"></path>
                </g>
            </g>
        </g>
    </g>
</svg>