<?xml version="1.0" encoding="UTF-8" standalone="no"?>
<svg width="36px" height="36px" viewBox="0 0 36 36" version="1.1" xmlns="http://www.w3.org/2000/svg" xmlns:xlink="http://www.w3.org/1999/xlink">
    <!-- Generator: sketchtool 39.1 (31720) - http://www.bohemiancoding.com/sketch -->
    <title>9997C446-8699-45DC-9F07-CF3A617FB1A7</title>
    <desc>Created with sketchtool.</desc>
    <defs></defs>
    <g id="Frontend" stroke="none" stroke-width="1" fill="none" fill-rule="evenodd">
        <g id="test-drive_main-screen" transform="translate(-1056.000000, -443.000000)" fill="#D2145A">
            <g id="Group-26" transform="translate(1056.000000, 443.000000)">
                <path d="M8.484375,0 C7.0361967,0 5.95958662,0.482980012 5.3203125,1.2421875 C4.68103801,2.00139516 4.5,2.94442355 4.5,3.75 C4.5,5.66634679 5.53626179,7.22156948 6.9609375,8.2265625 C7.3991103,8.53565805 7.86732885,8.78388045 8.3671875,9 L0.75,9 L0,9 L0,9.75 L0,16.5 L0,17.25 L0.75,17.25 L1.5,17.25 L1.5,35.25 L1.5,36 L2.25,36 L33.75,36 L34.5,36 L34.5,35.25 L34.5,17.25 L35.25,17.25 L36,17.25 L36,16.5 L36,9.75 L36,9 L35.25,9 L27.6328125,9 C28.1326704,8.78388045 28.600891,8.53565805 29.0390625,8.2265625 C30.4637374,7.22156948 31.5,5.66634679 31.5,3.75 C31.5,2.94442355 31.3189631,2.00139516 30.6796875,1.2421875 C30.0404119,0.482980012 28.9638032,0 27.515625,0 C26.0199022,0 24.8097724,0.631379393 23.90625,1.5 C23.002726,2.36862051 22.3558416,3.45936155 21.75,4.5 C21.1441583,5.54063844 20.5710239,6.53823852 19.96875,7.21875 C19.366476,7.8992607 18.813014,8.25 18,8.25 C17.1869859,8.25 16.6335239,7.8992607 16.03125,7.21875 C15.428976,6.53823852 14.8558416,5.54063844 14.25,4.5 C13.6441583,3.45936155 12.9972739,2.36862051 12.09375,1.5 C11.1902267,0.631379393 9.98009775,0 8.484375,0 L8.484375,0 Z M8.484375,1.5 C9.5825271,1.5 10.333555,1.89987051 11.0390625,2.578125 C11.7445707,3.25637948 12.3660278,4.22813844 12.9609375,5.25 C13.5558471,6.27186155 14.1394915,7.3367607 14.90625,8.203125 C14.9208598,8.21963235 14.9383206,8.23363492 14.953125,8.25 L12,8.25 C10.4893004,8.25 8.92663687,7.79925652 7.8046875,7.0078125 C6.68273806,6.21636843 6,5.14790368 6,3.75 C6,3.18457675 6.13358688,2.62460518 6.46875,2.2265625 C6.80391307,1.82851999 7.3518033,1.5 8.484375,1.5 L8.484375,1.5 Z M27.515625,1.5 C28.6481981,1.5 29.1960869,1.82851999 29.53125,2.2265625 C29.8664131,2.62460518 30,3.18457675 30,3.75 C30,5.14790368 29.3172626,6.21636843 28.1953125,7.0078125 C27.0733623,7.79925652 25.5107002,8.25 24,8.25 L21.046875,8.25 C21.0616793,8.23363492 21.0791401,8.21963235 21.09375,8.203125 C21.8605084,7.3367607 22.4441528,6.27186155 23.0390625,5.25 C23.6339721,4.22813844 24.2554292,3.25637948 24.9609375,2.578125 C25.6664457,1.89987051 26.4174728,1.5 27.515625,1.5 L27.515625,1.5 Z M1.5,10.5 L13.5,10.5 L13.5,15.75 L1.5,15.75 L1.5,10.5 L1.5,10.5 Z M15,10.5 L21,10.5 L21,16.359375 C20.9988999,16.3828139 20.9988999,16.4062514 21,16.4296875 C20.9988999,16.453125 20.9988999,16.4765625 21,16.5 C20.9939818,16.554687 20.9939818,16.609374 21,16.664061 L21,34.5 L15,34.5 L15,16.640625 C15.0044131,16.59375 15.0044131,16.546875 15,16.5 C15.0019569,16.4687504 15.0019569,16.4374995 15,16.4062485 C15.0011,16.382811 15.0011,16.3593735 15,16.335936 L15,10.5 L15,10.5 Z M22.5,10.5 L34.5,10.5 L34.5,15.75 L33.75,15.75 L22.5,15.75 L22.5,10.5 L22.5,10.5 Z M3,17.25 L13.5,17.25 L13.5,34.5 L3,34.5 L3,17.25 L3,17.25 Z M22.5,17.25 L33,17.25 L33,34.5 L22.5,34.5 L22.5,17.25 L22.5,17.25 Z" id="Fill-77"></path>
            </g>
        </g>
    </g>
</svg>