<svg xmlns="http://www.w3.org/2000/svg" width="80" height="76" viewBox="0 0 80 76">
    <g fill="none" fill-rule="nonzero">
        <path fill="#F5A623" d="M69.417 38.44H12.661V29.08l2.898-3.58h50.205l3.15 1.382.692 3.517s-.315 8.165-.189 8.04z"/>
        <path fill="#000112" d="M69.795 66.955h3.843V27.762c0-2.826-2.33-5.15-5.166-5.15H24.19V25.5h43.905l.756.88 1.008 1.57v7.85" opacity=".2"/>
        <g fill="#F5A623">
            <path d="M75.654 3.078c-.378 0-.63-.252-.63-.628V.88c0-.378.252-.629.63-.629.377 0 .63.251.63.628v1.57c0 .377-.253.629-.63.629zM75.654 8.29c-.378 0-.63-.25-.63-.627v-1.57c0-.377.252-.629.63-.629.377 0 .63.252.63.629v1.57c0 .377-.253.628-.63.628zM79.055 4.9H77.48c-.378 0-.63-.252-.63-.629s.252-.628.63-.628h1.575c.378 0 .63.251.63.628s-.252.628-.63.628zM73.827 4.9h-1.575c-.378 0-.63-.252-.63-.629s.252-.628.63-.628h1.575c.378 0 .63.251.63.628s-.252.628-.63.628z"/>
        </g>
        <g fill="#F5A623">
            <path d="M4.031 60.235c-.377 0-.63-.252-.63-.628v-1.57c0-.377.253-.629.63-.629.378 0 .63.252.63.628v1.57c0 .377-.252.629-.63.629zM4.031 65.448c-.377 0-.63-.251-.63-.628v-1.57c0-.377.253-.629.63-.629.378 0 .63.252.63.629v1.57c0 .377-.252.628-.63.628zM7.496 62.056H5.858c-.378 0-.63-.251-.63-.628s.252-.628.63-.628h1.638c.378 0 .63.251.63.628s-.252.628-.63.628zM2.205 62.056H.63c-.378 0-.63-.251-.63-.628s.252-.628.63-.628h1.575c.378 0 .63.251.63.628s-.252.628-.63.628z"/>
        </g>
        <path fill="#EBDEC2" d="M76.976 75.56a2.523 2.523 0 0 1-2.52-2.512 2.523 2.523 0 0 1 2.52-2.512c1.386 0 2.52 1.13 2.52 2.512a2.523 2.523 0 0 1-2.52 2.512zm0-3.768c-.693 0-1.26.565-1.26 1.256 0 .69.567 1.256 1.26 1.256.693 0 1.26-.565 1.26-1.256 0-.691-.567-1.256-1.26-1.256zM43.024 9.547a2.523 2.523 0 0 1-2.52-2.512 2.523 2.523 0 0 1 2.52-2.513c1.385 0 2.52 1.13 2.52 2.513a2.523 2.523 0 0 1-2.52 2.512zm0-3.768c-.693 0-1.26.565-1.26 1.256 0 .69.567 1.256 1.26 1.256.693 0 1.26-.565 1.26-1.256 0-.691-.567-1.256-1.26-1.256z"/>
        <path fill="#FFF" d="M69.732 30.149h8.378v1.884h-8.378z"/>
        <g transform="translate(17.008 28.264)">
            <ellipse cx="3.717" cy="3.643" fill="#FFF" rx="2.394" ry="2.387"/>
            <path fill="#EBDEC2" d="M3.717 6.972C1.89 6.972.378 5.464.378 3.643.378 1.821 1.89.314 3.717.314c1.826 0 3.338 1.507 3.338 3.329 0 1.821-1.512 3.329-3.338 3.329zm0-4.774c-.82 0-1.45.628-1.45 1.445 0 .817.63 1.445 1.45 1.445.818 0 1.448-.628 1.448-1.445 0-.817-.63-1.445-1.448-1.445z"/>
        </g>
        <g transform="translate(25.197 28.264)">
            <ellipse cx="3.591" cy="3.643" fill="#FFF" rx="2.394" ry="2.387"/>
            <path fill="#EBDEC2" d="M3.59 6.972C1.765 6.972.253 5.464.253 3.643.252 1.821 1.764.314 3.591.314c1.826 0 3.338 1.507 3.338 3.329 0 1.821-1.512 3.329-3.338 3.329zm0-4.774c-.818 0-1.448.628-1.448 1.445 0 .817.63 1.445 1.449 1.445.818 0 1.448-.628 1.448-1.445 0-.817-.63-1.445-1.448-1.445z"/>
        </g>
        <g transform="translate(33.386 28.264)">
            <ellipse cx="3.402" cy="3.643" fill="#FFF" rx="2.394" ry="2.387"/>
            <path fill="#EBDEC2" d="M3.402 6.972C1.575 6.972.063 5.464.063 3.643.063 1.821 1.575.314 3.402.314c1.826 0 3.338 1.507 3.338 3.329 0 1.821-1.512 3.329-3.338 3.329zm0-4.774c-.82 0-1.45.628-1.45 1.445 0 .817.63 1.445 1.45 1.445.818 0 1.448-.628 1.448-1.445 0-.817-.63-1.445-1.448-1.445z"/>
        </g>
        <path fill="#FFF" d="M35.339 25.815a.967.967 0 0 1-.945-.942c0-.817-.63-1.445-1.45-1.445-.818 0-1.448.628-1.448 1.445 0 .502-.44.942-.945.942a.967.967 0 0 1-.945-.942c0-1.822 1.512-3.33 3.339-3.33s3.338 1.508 3.338 3.33c0 .502-.44.942-.944.942zM43.402 25.815a.967.967 0 0 1-.945-.942c0-.817-.63-1.445-1.45-1.445-.818 0-1.448.628-1.448 1.445 0 .502-.44.942-.945.942a.967.967 0 0 1-.945-.942c0-1.822 1.512-3.33 3.339-3.33s3.338 1.508 3.338 3.33c0 .502-.44.942-.944.942zM51.402 25.815a.967.967 0 0 1-.945-.942c0-.817-.63-1.445-1.45-1.445-.818 0-1.448.628-1.448 1.445 0 .502-.44.942-.945.942a.967.967 0 0 1-.945-.942c0-1.822 1.512-3.33 3.339-3.33s3.338 1.508 3.338 3.33c0 .502-.44.942-.944.942z"/>
        <g>
            <path fill="#FFF" d="M65.26 26.883c1.89 0 3.464 1.57 3.464 3.454V70.16c0 1.884-1.574 3.454-3.464 3.454H17.07c-1.889 0-3.464-1.57-3.464-3.454V30.337c0-1.884 1.575-3.454 3.465-3.454H65.26zm0-1.885H17.07a5.342 5.342 0 0 0-5.353 5.34v39.82a5.342 5.342 0 0 0 5.354 5.34H65.26a5.342 5.342 0 0 0 5.354-5.34v-39.82a5.342 5.342 0 0 0-5.354-5.34z"/>
            <path fill="#F5A623" d="M18.709 41.957h21.228v12.436H18.709z"/>
            <path fill="#EBDEC2" d="M40.882 55.336H17.764V41.015h23.118v14.32zM19.654 53.45h19.338V42.9H19.654v10.552zM66.079 63.312H17.764v-5.904h48.315v5.904zm-46.425-1.884h44.535v-2.135H19.654v2.135zM66.079 71.478H17.764v-5.904h48.315v5.904zm-46.425-1.885h44.535v-2.135H19.654v2.135zM13.103 37.246h56.189v1.884h-56.19zM65.26 46.29H43.087a.967.967 0 0 1-.945-.941c0-.503.44-.942.945-.942H65.26c.504 0 .945.44.945.942s-.441.942-.945.942zM60.724 49.808H43.087a.967.967 0 0 1-.945-.942c0-.502.44-.942.945-.942h17.637c.504 0 .945.44.945.942 0 .503-.44.942-.945.942z"/>
            <path fill="#FFF" d="M73.7 68.023h-3.779V66.14h3.78a3.812 3.812 0 0 0 3.842-3.832V22.486c0-2.136-1.7-3.831-3.842-3.831H28.66a3.812 3.812 0 0 0-3.842 3.831v3.14h-1.89v-3.14c0-3.14 2.583-5.716 5.732-5.716h45.04c3.15 0 5.732 2.575 5.732 5.716v39.821c0 3.14-2.583 5.716-5.732 5.716z"/>
            <path fill="#F5A623" d="M57.512 15.89l2.394-7.097c.063-.188.251-.25.377-.188.19.063.252.251.19.377l-1.386 4.208 5.039-5.716h-3.654l1.45-4.46-4.914 5.717h1.764c.189 0 .315.125.315.314 0 .188-.126.314-.315.314h-3.15l8-9.17-2.205 6.594h4.158l-8.063 9.108zM13.732 19.848c-5.48 0-9.952-4.46-9.952-9.924C3.78 4.46 8.252 0 13.732 0c5.48 0 9.953 4.46 9.953 9.924 0 5.464-4.472 9.924-9.953 9.924zm0-19.22C8.567.628 4.41 4.774 4.41 9.924c0 5.15 4.158 9.296 9.323 9.296 5.166 0 9.323-4.146 9.323-9.296 0-5.15-4.157-9.296-9.323-9.296z"/>
            <path fill="#F5A623" d="M13.732 13.818c-2.141 0-3.905-1.758-3.905-3.894S11.59 6.03 13.732 6.03c2.142 0 3.906 1.758 3.906 3.894s-1.764 3.894-3.906 3.894zm0-7.16a3.248 3.248 0 0 0-3.275 3.266 3.248 3.248 0 0 0 3.275 3.266 3.248 3.248 0 0 0 3.276-3.266 3.248 3.248 0 0 0-3.276-3.266zM20.724 10.238c-.189 0-.315-.126-.315-.314 0-3.643-3.023-6.658-6.677-6.658h-.126c-.189 0-.315-.126-.315-.314s.126-.314.315-.314h.126c4.032 0 7.307 3.266 7.307 7.286 0 .188-.126.314-.315.314z"/>
            <path fill="#F5A623" d="M13.732 10.74a.833.833 0 0 1-.819-.816c0-.44.378-.817.82-.817.44 0 .818.377.818.817 0 .44-.378.816-.819.816zm0-1.004c-.126 0-.189.062-.189.188s.063.188.19.188c.125 0 .188-.062.188-.188s-.063-.188-.189-.188z"/>
        </g>
    </g>
</svg>
