<svg xmlns="http://www.w3.org/2000/svg" width="84" height="81" viewBox="0 0 84 81">
    <g fill="none" fill-rule="nonzero">
        <g fill="#EBDEC2" transform="translate(11.934 10.537)">
            <path d="M16.595 62.298a2.816 2.816 0 0 1-2.843-2.832 2.816 2.816 0 0 1 2.843-2.832 2.816 2.816 0 0 1 2.843 2.832 2.816 2.816 0 0 1-2.843 2.832zm0-4.347c-.86 0-1.52.659-1.52 1.515 0 .856.66 1.514 1.52 1.514s1.52-.658 1.52-1.514-.66-1.515-1.52-1.515zM59.702 11.524a2.816 2.816 0 0 1-2.842-2.831 2.816 2.816 0 0 1 2.842-2.832 2.816 2.816 0 0 1 2.843 2.832 2.816 2.816 0 0 1-2.843 2.831zm0-4.346c-.859 0-1.52.659-1.52 1.515 0 .856.661 1.514 1.52 1.514.86 0 1.521-.658 1.521-1.514s-.661-1.515-1.52-1.515zM4.76 29.37c-.396 0-.66-.263-.66-.658v-1.778c0-.395.264-.658.66-.658.397 0 .661.263.661.658v1.778c0 .395-.264.659-.66.659zM4.76 35.495c-.396 0-.66-.263-.66-.658v-1.844c0-.395.264-.659.66-.659.397 0 .661.264.661.659v1.844c0 .395-.264.658-.66.658zM8.793 31.544h-1.85c-.398 0-.662-.264-.662-.659s.264-.658.661-.658h1.851c.397 0 .662.263.662.658s-.265.659-.662.659zM2.645 31.544H.793c-.396 0-.66-.264-.66-.659s.264-.658.66-.658h1.852c.396 0 .66.263.66.658s-.264.659-.66.659zM62.744 37.668a.601.601 0 0 1-.463-.197.635.635 0 0 1 0-.922l1.256-1.251a.64.64 0 0 1 .926 0 .635.635 0 0 1 0 .922l-1.256 1.25a.601.601 0 0 1-.463.198zM58.38 42.015a.601.601 0 0 1-.463-.198.635.635 0 0 1 0-.922l1.323-1.317a.64.64 0 0 1 .925 0 .635.635 0 0 1 0 .922l-1.322 1.317a.601.601 0 0 1-.463.198zM64 42.015a.601.601 0 0 1-.463-.198L62.281 40.5a.635.635 0 0 1 0-.922.64.64 0 0 1 .926 0l1.256 1.317a.635.635 0 0 1 0 .922.716.716 0 0 1-.463.198zM59.702 37.668a.716.716 0 0 1-.462-.197l-1.323-1.251a.635.635 0 0 1 0-.922.64.64 0 0 1 .926 0l1.322 1.25a.635.635 0 0 1 0 .923.601.601 0 0 1-.463.197z"/>
            <ellipse cx="16.033" cy="1.515" rx="1.322" ry="1.317"/>
        </g>
        <path fill="#F5A623" d="M43.934 51.893v17.583l-13.355-4.61L24.562 40.5l-2.248-14.027 9.52-7.244 11.77-2.568 1.057.33-.397 14.882-6.413 2.898-2.512 4.873L36 46.36l3.504 3.622z"/>
        <path fill="#EBDEC2" d="M44.86 71.715l-13.158-4.94c-1.719-.658-3.04-2.107-3.305-3.819l-7.471-36.285.33-.395c3.637-4.017 11.57-10.735 23.67-10.735h.198c12.1 0 19.9 6.718 23.471 10.735l.33.395-.132.46c-1.19 5.862-2.248 11.13-3.24 16.003-1.586 7.64-2.908 14.225-4.098 19.822-.331 1.712-1.653 3.227-3.372 3.754L44.86 71.715zM23.04 27.263l7.273 35.298c.198 1.054.992 1.976 2.116 2.37l12.496 4.676 12.562-4.741c.991-.33 1.85-1.251 2.05-2.305 1.19-5.598 2.512-12.183 4.098-19.822.926-4.741 1.984-9.878 3.174-15.541-3.504-3.82-10.71-9.68-21.686-9.68h-.132c-11.042 0-18.38 5.926-21.95 9.745z"/>
        <path fill="#EBDEC2" d="M45.058 52.42c-5.818 0-10.513-4.742-10.513-10.537 0-5.795 4.695-10.537 10.513-10.537S55.57 36.088 55.57 41.883c0 5.795-4.694 10.537-10.512 10.537zm0-19.098c-4.694 0-8.53 3.82-8.53 8.56 0 4.742 3.836 8.562 8.53 8.562 4.694 0 8.529-3.82 8.529-8.561 0-4.742-3.835-8.561-8.53-8.561z"/>
        <path fill="#000112" d="M45.388 54.132c-.528 0-.991-.461-.991-.988 0-.527.463-.988.991-.988 5.62 0 10.182-4.61 10.182-10.273 0-5.663-4.628-10.273-10.248-10.273-.529 0-.991-.461-.991-.988 0-.527.462-.988.991-.988 6.744 0 12.232 5.466 12.232 12.249s-5.488 12.249-12.166 12.249z" opacity=".2"/>
        <path fill="#EBDEC2" d="M44.793 47.151l-4.297-4.28a.952.952 0 0 1 0-1.383.961.961 0 0 1 1.388 0l2.843 2.832 4.959-4.94a.961.961 0 0 1 1.388 0 .952.952 0 0 1 0 1.383l-6.28 6.388zM44.926 32.73c-.53 0-.992-.462-.992-.989V16.463c0-.526.463-.987.992-.987.529 0 .991.46.991.987v15.278c0 .527-.462.988-.991.988zM44.926 70.661c-.53 0-.992-.461-.992-.988v-17.78c0-.527.463-.988.992-.988.529 0 .991.46.991.988v17.78c0 .527-.462.988-.991.988z"/>
        <path fill="#F5A623" d="M19.835 61.837H4.562c-2.446 0-4.496-2.042-4.496-4.478 0-2.305 1.785-4.215 4.033-4.479-.264-.987-.198-2.041.265-2.963.462-1.054 1.322-1.778 2.38-2.107a4.019 4.019 0 0 1 3.24.395c.859.527 1.52 1.383 1.85 2.37 1.39-1.185 3.373-1.448 4.893-.658 1.52.79 1.918 2.37 2.05 3.095.992-.132 1.653.198 1.983.527.661.527.86 1.383.86 1.58 0 .198-.132.33-.33.33-.2 0-.331-.132-.331-.33 0-.065-.133-.658-.595-1.053-.463-.395-.992-.461-1.72-.33h-.396l-.066-.197s0-.132-.066-.198c-.066-.526-.33-2.041-1.72-2.765-1.388-.79-3.305-.396-4.495.922l-.463.526-.132-.658c-.199-1.054-.794-1.91-1.653-2.503-.86-.526-1.851-.658-2.71-.329-.86.264-1.522.922-1.918 1.778a3.42 3.42 0 0 0-.066 2.898l.198.46h-.595a3.83 3.83 0 0 0-3.835 3.82 3.83 3.83 0 0 0 3.835 3.82h15.273c.198 0 .33.131.33.329s-.132.198-.33.198zM83.339 43.266c-.199 0-.33-.198-.33-.33a5.59 5.59 0 0 0-3.505-5.663c-2.248-.856-4.826-.263-6.413 1.58l-.33.396-.199-.461c-.132-.395-.727-1.186-1.719-1.844-1.455-.922-2.91-.659-3.372-.593l-.066-.329v-.33c.529-.065 2.182-.329 3.835.725.86.527 1.388 1.185 1.785 1.712 1.785-1.712 4.496-2.305 6.876-1.383 2.578 1.054 4.099 3.556 3.9 6.322-.132.066-.264.198-.462.198z"/>
        <g fill="#F5A623">
            <path d="M71.24 62.89c-.133 0-.33-.131-.33-.263-.265-1.449-.993-2.634-2.05-3.359-1.521-1.053-3.703-1.053-5.488 0a.35.35 0 0 1-.463-.131.346.346 0 0 1 .132-.461c1.918-1.186 4.43-1.186 6.15 0 1.255.79 2.049 2.173 2.313 3.753.066.264 0 .395-.264.461.066 0 0 0 0 0z"/>
            <path d="M75.174 77.378H56.066c-1.851 0-3.504-.988-4.231-2.568-.926-1.91-.133-3.754 0-4.017.132-.132.33-.198.463-.066.132.132.198.33.066.46-.133.198-.728 1.779 0 3.36.595 1.316 2.05 2.173 3.57 2.173h18.975c2.248-.725 3.835-2.569 4.033-4.742.265-2.568-1.454-5.005-4.033-5.73l-.33-.13.132-.33c.925-2.24.264-4.742-1.587-6.19-1.984-1.58-4.959-1.383-6.876.329a.32.32 0 0 1-.463 0 .317.317 0 0 1 0-.461c2.182-1.91 5.488-2.107 7.67-.33 2.05 1.515 2.776 4.215 1.917 6.652 2.71.922 4.496 3.556 4.165 6.322 0 2.37-1.785 4.478-4.363 5.268z"/>
        </g>
        <path fill="#F5A623" d="M30.744 80.934c-.132 0-.265-.132-.33-.263 0 0-.662-2.898-3.439-4.017-2.909-1.186-5.554.46-5.818.658l-.463.33v-.593c-.132-2.832-2.05-5.203-4.76-5.861-2.843-.659-5.884.724-7.207 3.292l-.132.264-.264-.132c-1.19-.46-2.447-.592-3.637-.33-2.248.462-3.504 1.977-3.967 2.57-.132.13-.33.197-.463.065-.132-.132-.198-.33-.066-.46a7.197 7.197 0 0 1 4.364-2.833 6.718 6.718 0 0 1 3.769.264c1.586-2.7 4.826-4.149 7.801-3.425 2.843.725 4.893 3.096 5.223 5.927 1.058-.527 3.372-1.514 6.017-.395 3.107 1.317 3.835 4.478 3.835 4.544-.133.198-.199.33-.463.395.066 0 0 0 0 0z"/>
        <g fill="#F5A623">
            <path d="M39.868 9.878c-.53 0-.992-.46-.992-.988V.988c0-.527.463-.988.992-.988.529 0 .992.461.992.988V8.89c0 .527-.463.988-.992.988zM60.959 16.134c-.265 0-.53-.132-.728-.33-.396-.394-.33-1.053.067-1.382l5.487-5.005c.397-.395 1.058-.33 1.389.066.396.395.33 1.054-.067 1.383L61.62 15.87c-.199.197-.397.263-.661.263zM17.851 16.134c-.264 0-.463-.066-.66-.263l-5.489-5.005c-.396-.395-.462-.988-.066-1.383.397-.395.992-.461 1.389-.066l5.487 5.005c.397.395.463.988.067 1.383-.199.197-.463.33-.728.33zM8.926 32.795H.992c-.53 0-.992-.46-.992-.988 0-.527.463-.987.992-.987h7.934c.529 0 .991.46.991.987 0 .527-.462.988-.991.988zM81.554 32.795H73.62c-.53 0-.992-.46-.992-.988 0-.527.463-.987.992-.987h7.934c.529 0 .991.46.991.987 0 .527-.462.988-.991.988z"/>
        </g>
    </g>
</svg>
