<svg xmlns="http://www.w3.org/2000/svg" xmlns:xlink="http://www.w3.org/1999/xlink" width="49" height="29" viewBox="0 0 49 29">
    <defs>
        <path id="a" d="M0 .002h48.434V29H0z"/>
    </defs>
    <g fill="none" fill-rule="evenodd">
        <path fill="#EBDEC2" d="M43.711 13.595c-.68 0-1.217.79-1.217 1.986 0 .732.261 1.198.817 1.198.836 0 1.24-1.089 1.24-1.904 0-.898-.286-1.279-.84-1.28M9.66 16.425c0 .218.125.583.604.583.93 0 1.122-1.217 1.092-1.478-.044-.007-.072-.034-.336-.035-1.131 0-1.36.508-1.36.93M34.68 16.425c0 .218.124.583.604.583.928 0 1.121-1.217 1.092-1.478-.045-.007-.073-.034-.336-.035-1.13 0-1.36.508-1.36.93M22.71 13.43c-.841 0-1.003.955-1.003 1.056h1.713c0-.078.16-1.057-.71-1.057M47.207 22.136a.488.488 0 0 0-.229-.06.496.496 0 0 0-.232.06.474.474 0 0 0-.176.64.478.478 0 0 0 .408.237.477.477 0 0 0 .406-.237.476.476 0 0 0-.002-.466.431.431 0 0 0-.175-.174"/>
        <g transform="translate(0 -.002)">
            <mask id="b" fill="#fff">
                <use xlink:href="#a"/>
            </mask>
            <path fill="#EBDEC2" d="M44.135 18.187l.066-.551s-.51.645-1.436.645c-1.284 0-1.913-1.24-1.913-2.504 0-1.958 1.178-3.663 2.593-3.664.91 0 1.49.803 1.49.803l.333-2.065 1.548-.003-1.18 7.339h-1.5zm-4.73.016h-1.584l.962-5.982h1.44l-.139.867s.513-.943 1.203-.943c.202 0 .298.02.298.02-.205.418-.388.8-.576 1.788-1.07-.38-1.153 1.694-1.604 4.25zm-3.208-.018l.051-.59c-.025.002-.495.708-1.583.708-.57 0-1.49-.31-1.49-1.663 0-1.72 1.4-2.287 2.734-2.287.212 0 .664.037.664.037s.054-.105.054-.39c0-.466-.42-.53-.996-.53-1.013 0-1.683.272-1.683.272l.226-1.33s.81-.34 1.87-.34c.546 0 2.12.058 2.116 1.863l-.605 4.25h-1.358zm-3.714-.072s-.83.21-1.35.21c-1.842 0-2.777-1.27-2.777-3.195 0-2.903 1.733-4.45 3.514-4.45.804 0 1.738.379 1.738.379l-.252 1.635s-.63-.441-1.416-.441c-1.05 0-1.992 1-1.992 2.824 0 .896.44 1.732 1.535 1.733.52 0 1.276-.38 1.276-.38l-.276 1.685zm-6.035.093h-1.584l.963-5.983h1.437l-.139.867s.512-.943 1.203-.943c.202-.002.298.019.298.019-.205.417-.386.8-.574 1.79-1.07-.38-1.155 1.694-1.604 4.25zm.344 3.967H21.65c-.313-.5-.605-1.013-.856-1.552h6.843a14.514 14.514 0 0 1-.844 1.552zm-2.543 3.045h-.003.001c-.012.01-.025.02-.037.032a14.426 14.426 0 0 1-1.482-1.584h2.993a14.488 14.488 0 0 1-1.472 1.552zm-1.544-13.172c1.694 0 2.2 1.24 2.2 2.257 0 .407-.203 1.407-.203 1.407h-3.136s-.29 1.236 1.367 1.236c.778 0 1.64-.38 1.64-.38l-.273 1.488s-.498.254-1.63.254c-1.227 0-2.666-.517-2.666-2.7 0-1.89 1.15-3.561 2.701-3.562zm-3.395 4.8c.137 0 .292-.046.398-.046l-.193 1.312c-.155.043-.594.199-1.157.203-.719.007-1.23-.397-1.23-1.308 0-.612.877-5.655.911-5.688h1.543l-.157.9h.77l-.197 1.452h-.817l-.433 2.677c-.034.21.025.498.562.498zm-2.386-.535c0 2.05-1.987 1.96-2.334 1.96-1.295 0-1.695-.177-1.732-.187l.206-1.351c.002-.01.65.236 1.371.236.416 0 .956-.041.956-.537 0-.746-1.932-.566-1.932-2.334 0-1.558 1.158-2.015 2.3-2.015.882 0 1.424.12 1.424.12l-.195 1.363s-.837-.068-1.054-.068c-.55 0-.849.119-.849.503 0 .77 1.84.392 1.84 2.31zm-5.743 1.874l.051-.59c-.024.002-.494.708-1.583.708-.57 0-1.49-.31-1.49-1.663 0-1.72 1.402-2.287 2.737-2.287.21 0 .663.037.663.037s.051-.105.051-.39c0-.466-.42-.53-.995-.53-1.013 0-1.682.272-1.682.272l.224-1.33s.811-.34 1.87-.34c.545 0 2.118.058 2.12 1.863l-.607 4.25h-1.359zm-5.266.007l.88-5.54-1.984 5.54H3.748l-.138-5.54-.939 5.54H1.182l1.234-7.35h2.252l.08 4.51 1.52-4.51h2.444l-1.217 7.35h-1.58zm15.087-9.87h6.607c.237.502.445 1.019.626 1.553h-8.014c.08-.15.36-.754.781-1.553zm1.892-3.074h2.754c.408.49.785 1.009 1.126 1.55h-4.913c.315-.52.663-1.05 1.033-1.55zM33.935.002a14.443 14.443 0 0 0-9.722 3.748A14.437 14.437 0 0 0 14.495.005h-.093C6.443.057 0 6.53 0 14.5c0 8.002 6.494 14.495 14.495 14.495 3.738 0 7.145-1.418 9.717-3.745A14.431 14.431 0 0 0 33.942 29c8.005-.001 14.492-6.494 14.49-14.5 0-.002 0-.004.002-.006C48.432 6.488 41.941 0 33.935.002z" mask="url(#b)"/>
        </g>
    </g>
</svg>
