<svg xmlns="http://www.w3.org/2000/svg" width="24" height="15" viewBox="0 0 24 15">
    <path fill="#130B09" fill-rule="nonzero" d="M5.634 2.138c.654 1.614 1.482 3.136 2.573 4.502.145.182.327.343.52.475.28.192.545.125.659-.196.12-.337.231-1.02.238-1.374.018-.924-.003-1.53-.053-2.453-.032-.591-.242-1.11-1.112-1.267-.268-.049-.293-.27-.12-.49.359-.46.859-.533 1.402-.562.88-.047 1.762-.009 2.643 0 .359.003.72.032 1.073.11.46.1.707.423.783.873.04.232.06.47.054.705-.023 1.01-.071 2.018-.083 3.026a5.27 5.27 0 0 0 .109 1.187c.118.537.484.672.858.284.475-.493.894-1.048 1.287-1.611.714-1.025 1.248-2.15 1.707-3.31.237-.598.42-.728 1.063-.73 1.21-.002 2.42-.003 3.63 0 .214.002.438.022.641.087.329.104.46.372.382.713-.18.797-.61 1.474-1.072 2.126-.74 1.045-1.516 2.065-2.274 3.098a3.896 3.896 0 0 0-.26.414c-.284.512-.264.8.149 1.226.658.678 1.362 1.313 2 2.01.462.508.891 1.058 1.258 1.637.464.733.177 1.423-.69 1.546-.545.077-3.21 0-3.347 0a2.608 2.608 0 0 1-1.85-.738c-.562-.542-1.073-1.136-1.613-1.7a4.508 4.508 0 0 0-.524-.477c-.442-.337-.875-.262-1.081.257-.177.445-.33 1.615-.336 1.715-.037.523-.37.856-.955.888-1.69.091-3.327-.097-4.853-.914-1.293-.692-2.325-1.671-3.22-2.813C3.8 8.569 2.679 6.575 1.654 4.524 1.601 4.419.563 2.21.535 2.107c-.092-.35-.006-.683.29-.798.183-.072 3.604 0 3.661.003.546.03.918.26 1.148.826z"/>
</svg>
