<svg xmlns="http://www.w3.org/2000/svg" width="100" height="27" viewBox="0 0 100 27">
    <path fill="#EBDEC2" fill-rule="nonzero" d="M13.126.062c2.047 0 3.986.489 5.713 1.358.27.132.542.278.812.437l-1.2 1.103-1.803-1.914-3.043 2.787-1.809-2.026-5.669 5.247 3.635 4.111-1.428 1.29 3.58 4.119-1.42 1.286 5.116 5.845 3.037-2.87 2.625 3.075a13.9 13.9 0 0 1-1.717 1.172 12.686 12.686 0 0 1-6.429 1.747C5.945 26.83.088 20.817.088 13.446.088 6.074 5.945.062 13.126.062zM10.75 12.6l3.1-2.866 2.793 3.183-3.101 2.866L10.75 12.6zm2.205 5.5l3.101-2.866 2.791 3.183-3.1 2.866-2.792-3.183zM8.531 7.165l3.1-2.865 2.792 3.182-3.1 2.866L8.53 7.165zm5.69-1.542l2.325-2.15 2.094 2.388-2.325 2.15-2.094-2.388zm4.132 9.844l2.325-2.15 2.094 2.388-2.325 2.149-2.094-2.387zm2.045 4.82l2.326-2.148 2.093 2.387-2.325 2.148-2.094-2.386zm.937-11.05l1.55-1.432 1.397 1.591-1.55 1.433-1.397-1.591zm-1.98-4.727l1.55-1.433L22.3 4.67 20.75 6.1 19.354 4.51zm3.962 9.456l1.55-1.433 1.396 1.592-1.55 1.432-1.396-1.591zm-6.952-3.544l2.325-2.149 2.093 2.388-2.324 2.149-2.094-2.388zM62.08 8.305c.511-.474 1.119-.699 1.872-.699.777 0 1.458.275 1.944.749.535.548.826 1.347.826 2.32v8.757h-1.677v-8.757c0-.499-.121-.848-.364-1.098-.243-.2-.535-.25-.73-.25-.266 0-1.093.1-1.093 1.348v8.757h-1.677v-8.757c0-.499-.121-.848-.364-1.098-.243-.2-.535-.25-.73-.25-.266 0-1.093.1-1.093 1.348v8.757h-1.677v-8.757c0-1.87 1.094-3.069 2.77-3.069.73 0 1.314.2 1.848.7l.073.049.072-.05zm12.226 3.343c.875.973 1.045 2.345 1.045 3.418 0 1.048-.17 2.42-1.045 3.393-.558.599-1.483 1.123-2.746 1.123-1.216 0-2.14-.524-2.698-1.123-.875-.973-1.045-2.345-1.045-3.393 0-1.073.17-2.445 1.045-3.418.558-.599 1.482-1.122 2.698-1.122 1.263 0 2.188.523 2.746 1.122zm-.656 3.792v-.773c0-.823 0-1.746-.608-2.395-.243-.274-.704-.6-1.483-.6-.73 0-1.19.326-1.433.6-.609.649-.609 1.572-.609 2.395v.773c0 .823 0 1.746.609 2.42.242.25.704.574 1.433.574.779 0 1.24-.324 1.483-.574.608-.673.608-1.597.608-2.42zm3.086-4.765l1.41.025v.773c.413-.299.778-.524 1.192-.673.51-.225.874-.275 1.385-.275.73 0 1.482.15 2.09.849.583.698.705 1.522.705 2.22v5.813h-1.556v-5.938c0-1.421-.874-1.796-1.604-1.796-.73 0-1.482.325-2.09.898v6.836h-1.532v-8.732zm14.39 7.036l.484 1.022c-.267.15-.68.35-1.045.5-.68.274-1.36.349-1.992.349-1.41 0-2.407-.574-2.966-1.247-.874-.998-1.02-2.445-1.02-3.418 0-.874.097-2.22.972-3.244.535-.623 1.409-1.147 2.6-1.147 1.07 0 1.92.424 2.48 1.047.85.923.899 2.072.899 3.469v.399h-5.25v.224c0 1.048.316 1.647.608 1.946.389.45 1.118.723 1.92.723.486 0 .85-.074 1.313-.224.388-.125.704-.25.996-.4zm-4.837-3.617v.198h3.598v-.373c0-.6 0-1.273-.56-1.822-.316-.324-.753-.424-1.19-.424-.658 0-1.047.3-1.289.574-.243.274-.56.848-.56 1.847zM99.949 10.7l-3.33 10.279c-.121.45-.437 1.198-.802 1.621-.438.5-1.02.724-1.677.724-.462 0-.9-.1-1.337-.35-.267-.174-.535-.348-.705-.548l.73-.948c.121.125.29.25.438.349.242.15.534.225.8.225.463 0 .755-.249.9-.449.17-.225.34-.748.463-1.073l.194-.699-3.573-9.13h1.677l2.139 5.463c.219.523.437 1.323.486 1.547h.072c.268-1.048.39-1.398.609-2.046l1.53-4.965h1.386zm-65.405 8.208a2.83 2.83 0 0 1-1.896.699c-.754 0-1.459-.274-1.945-.773-.535-.549-.826-1.347-.826-2.296V7.782h1.701v8.756c0 .475.122.849.365 1.073.218.225.51.25.705.25.267 0 1.093-.076 1.093-1.323V7.781h1.702v8.757c0 .474.121.848.364 1.073.22.224.51.25.73.25.243 0 1.07-.076 1.07-1.323V7.78h1.7v8.757c0 1.845-1.094 3.069-2.77 3.069-.754 0-1.313-.225-1.872-.7l-.073-.074-.048.075zM47.11 17.71l.486.998c-.268.15-.657.374-1.021.499a5.389 5.389 0 0 1-1.993.374c-1.41 0-2.382-.598-2.965-1.247-.875-.998-.997-2.445-.997-3.418 0-.848.073-2.196.972-3.244a3.396 3.396 0 0 1 2.552-1.122c1.094 0 1.945.424 2.503 1.022.827.923.875 2.072.875 3.469v.399h-5.2v.224c0 1.048.315 1.647.582 1.946.39.45 1.119.723 1.921.723.486 0 .851-.074 1.312-.224.39-.125.706-.275.973-.4zm-4.789-3.617v.198h3.573v-.349c0-.623 0-1.297-.558-1.82-.317-.325-.754-.45-1.192-.45-.656 0-1.045.325-1.263.574-.268.3-.56.848-.56 1.847zm12.42-2.67c1.167 1.023 1.24 2.644 1.24 3.592 0 .998-.146 2.22-.851 3.193-.874 1.174-2.09 1.373-2.99 1.373-1.214 0-2.284-.375-3.184-.924V7.557h1.532v3.418c.267-.1.584-.225.826-.3.292-.05.705-.125 1.094-.125.875 0 1.725.324 2.333.874zm-2.625.249l-1.628.524v5.713c.219.125.486.274.705.35.291.074.68.174.996.174.876 0 1.386-.398 1.629-.723.219-.325.462-.923.462-2.395v-.749c0-.773 0-1.671-.535-2.27-.389-.424-1.02-.624-1.629-.624z"/>
</svg>
