<svg xmlns="http://www.w3.org/2000/svg" width="27" height="27" viewBox="0 0 27 27">
    <g fill="#130B09" fill-rule="nonzero">
        <path d="M25.61 6.908l-.007-.03c-.618-2.485-3.402-5.151-5.959-5.706l-.029-.006a33.268 33.268 0 0 0-12.464 0l-.03.006c-2.555.555-5.34 3.221-5.958 5.706l-.007.03a24.166 24.166 0 0 0 0 10.46l.007.03c.592 2.379 3.169 4.922 5.63 5.622v2.774c0 1.004 1.23 1.497 1.929.772l2.823-2.921a33.05 33.05 0 0 0 1.838.053c2.082 0 4.165-.196 6.232-.588l.03-.006c2.556-.555 5.34-3.221 5.958-5.706l.007-.03c.764-3.47.764-6.99 0-10.46zm-2.234 9.956c-.412 1.621-2.526 3.637-4.206 4.009a31.009 31.009 0 0 1-6.63.533.157.157 0 0 0-.117.047l-2.061 2.107-2.193 2.24a.257.257 0 0 1-.442-.177v-4.595a.159.159 0 0 0-.13-.155h-.001c-1.68-.372-3.793-2.388-4.206-4.009a21.93 21.93 0 0 1 0-9.453c.413-1.62 2.526-3.636 4.206-4.008a30.985 30.985 0 0 1 11.574 0c1.68.372 3.794 2.387 4.206 4.008a21.907 21.907 0 0 1 0 9.453z"/>
        <path d="M17.037 18.985c-.258-.078-.504-.13-.733-.225-2.368-.977-4.547-2.239-6.274-4.173-.982-1.1-1.75-2.341-2.4-3.655-.308-.623-.567-1.27-.832-1.914-.241-.586.114-1.193.488-1.635a3.856 3.856 0 0 1 1.293-.966c.382-.182.758-.077 1.037.245.603.697 1.157 1.429 1.606 2.236.276.497.2 1.104-.3 1.442-.121.082-.232.178-.345.271-.1.082-.193.164-.261.274a.746.746 0 0 0-.05.658c.616 1.686 1.655 2.997 3.36 3.703.273.113.547.244.861.208.527-.061.697-.636 1.066-.936.36-.294.821-.298 1.21-.053.388.245.765.507 1.139.773.367.26.733.515 1.072.812.326.286.438.66.255 1.048-.336.71-.825 1.3-1.53 1.678-.2.106-.437.14-.662.21-.258-.079.225-.07 0 0zM13.39 5.606c3.098.086 5.642 2.132 6.187 5.18.093.52.126 1.05.167 1.577.018.222-.108.433-.349.435-.248.003-.36-.203-.376-.425-.032-.439-.054-.88-.115-1.314-.32-2.297-2.16-4.197-4.457-4.605-.346-.061-.7-.077-1.05-.114-.221-.023-.511-.036-.56-.31-.041-.23.153-.412.373-.424.06-.003.12 0 .18 0 3.098.086-.06 0 0 0z"/>
        <path d="M18.097 11.68c-.005.038-.007.128-.03.213-.082.31-.554.349-.662.036a.928.928 0 0 1-.037-.298c-.002-.653-.144-1.305-.475-1.873a3.496 3.496 0 0 0-1.47-1.372 4.24 4.24 0 0 0-1.17-.358c-.177-.029-.355-.046-.533-.07-.214-.03-.33-.167-.32-.378.01-.197.155-.34.372-.327.71.04 1.397.193 2.03.526 1.285.677 2.019 1.746 2.233 3.174.01.065.025.129.03.194.012.16.02.32.032.532-.005.039-.012-.211 0 0z"/>
        <path d="M16.17 11.604c-.258.005-.397-.138-.424-.374-.019-.165-.033-.332-.073-.493a1.385 1.385 0 0 0-.513-.802 1.344 1.344 0 0 0-.419-.2c-.19-.056-.387-.04-.577-.087-.206-.05-.32-.216-.288-.408.03-.175.2-.312.393-.298 1.201.086 2.06.704 2.182 2.111.009.1.019.204-.003.3-.038.162-.16.244-.277.251-.26.005.118-.007 0 0z"/>
    </g>
</svg>
