<svg xmlns="http://www.w3.org/2000/svg" width="54" height="18" viewBox="0 0 54 18">
    <g fill="#EBDEC2" fill-rule="evenodd">
        <path d="M21.99.41l-2.724 17.191h4.36L26.35.411h-4.36zm-6.392 0l-4.156 11.824-.491-2.546-.108-.57a14.219 14.219 0 0 0-3.868-5.033 17.433 17.433 0 0 0-1.94-1.378l3.777 14.894h4.542L20.29.411h-4.692zm17.014 4.773c0-1.943 4.245-1.694 6.11-.638l.622-3.692s-1.92-.75-3.92-.75c-2.164 0-7.301.971-7.301 5.69 0 4.442 6.03 4.498 6.03 6.83 0 2.331-5.408 1.915-7.193.444l-.649 3.859s1.947.97 4.921.97c2.975 0 7.463-1.581 7.463-5.884 0-4.47-6.084-4.886-6.084-6.829zM50.4.411h-3.505c-1.618 0-2.012 1.28-2.012 1.28l-6.501 15.91h4.543l.91-2.553h5.541l.511 2.553h4.003L50.4.411zm-5.31 11.11l2.291-6.434 1.289 6.433h-3.58z"/>
        <path d="M9.36 1.503S9.176 0 7.214 0H.084L.002.283s3.427.681 6.714 3.235C9.857 5.958 10.882 9 10.882 9L9.36 1.503z"/>
    </g>
</svg>
