<svg xmlns="http://www.w3.org/2000/svg" width="177" height="28" viewBox="0 0 177 28">
    <g fill="#FFF" fill-rule="nonzero">
        <path d="M12.39 18.437h5.339v3.387c-1.31.996-3.022 1.394-4.936 1.394-4.23 0-7.253-3.188-7.253-7.471 0-4.085 3.022-7.472 6.85-7.472 2.82 0 4.432.897 6.245 2.391l3.324-3.985c-2.518-2.092-5.137-3.287-9.368-3.287C5.34 3.394 0 8.973 0 15.747 0 22.82 5.137 28 12.591 28c4.433 0 7.757-1.694 10.275-3.786V13.954H12.39v4.483zM40.003 11.32c-.598-.597-1.395-1.093-2.391-1.49-.996-.298-2.192-.497-3.687-.497-.597 0-1.195 0-1.793.1-.598.099-1.096.099-1.694.198-.598.1-.996.199-1.395.298-.398.1-.797.199-1.096.298l.598 4.07a10.285 10.285 0 0 1 2.192-.496c.797-.099 1.694-.198 2.491-.198 1.295 0 2.192.298 2.69.794.498.497.797 1.192.797 2.085v.397a3.728 3.728 0 0 0-1.195-.198c-.499-.1-1.096-.1-1.794-.1-.996 0-1.893.1-2.79.298-.896.199-1.693.497-2.39.894a4.596 4.596 0 0 0-1.695 1.688c-.398.695-.597 1.589-.597 2.68 0 1.093.199 1.987.498 2.781.398.695.896 1.39 1.594 1.787.697.497 1.494.795 2.391.993.897.199 1.993.298 3.089.298 1.793 0 3.387-.1 4.683-.298 1.295-.198 2.291-.397 2.989-.596V16.582c0-1.093-.1-2.086-.399-2.98a3.808 3.808 0 0 0-1.096-2.283zm-3.188 12.61c-.3 0-.598.098-1.096.098h-1.395c-.897 0-1.694-.198-2.192-.496-.498-.298-.797-.894-.797-1.589 0-.397.1-.695.299-.993.2-.298.398-.496.697-.595.3-.199.698-.298 1.096-.298.399 0 .897-.1 1.295-.1.3 0 .698 0 1.096.1.399.099.698.099.897.099v3.773h.1zM67.86 11.667c-.495-.71-1.287-1.32-2.178-1.725-.892-.406-2.08-.609-3.466-.609a7.98 7.98 0 0 0-2.575.406c-.891.304-1.783.71-2.476 1.218-.495-.508-1.188-.812-1.98-1.218-.793-.406-1.783-.304-3.07-.304-.694 0-1.288 0-1.981.101-.693.102-1.288.102-1.98.203-.595.102-1.288.203-1.783.304-.496.102-1.09.203-1.486.406V28h5.05V14c.298 0 .595-.101.991-.101.297 0 .693-.102.99-.102.99 0 1.684.304 2.18 1.015.395.71.593 1.826.593 3.55V28h5.05v-9.942c0-.71 0-1.319-.098-1.928 0-.608-.1-1.116-.297-1.623A3.264 3.264 0 0 1 60.532 14c.495-.101.891-.203 1.09-.203.99 0 1.683.304 2.178 1.015.396.71.594 1.826.594 3.55V28h5.051V17.754c0-1.218-.1-2.334-.297-3.348-.396-1.116-.693-1.928-1.288-2.74zM81.402 9.333c-1.109 0-2.117.198-3.226.593a8.071 8.071 0 0 0-2.722 1.778c-.807.79-1.412 1.777-1.916 2.963-.504 1.185-.705 2.568-.705 4.148 0 1.284.201 2.469.604 3.654a9.094 9.094 0 0 0 1.714 2.864 9.359 9.359 0 0 0 3.025 1.976c1.21.493 2.621.691 4.234.691.605 0 1.311 0 1.916-.099l1.815-.296c.605-.099 1.109-.198 1.512-.395.504-.099.807-.296 1.11-.395l-.707-4.05c-.605.198-1.31.494-2.218.593-.907.198-1.814.296-2.722.296-1.512 0-2.621-.296-3.529-.889-.907-.592-1.31-1.382-1.512-2.469H89.67c0-.296 0-.592.1-.889v-.987c0-2.963-.705-5.235-2.218-6.815-1.512-1.58-3.63-2.272-6.15-2.272zm-3.428 7.507c.101-.396.202-.89.303-1.284.1-.396.403-.79.605-1.087.302-.296.605-.592 1.008-.79.403-.198.907-.296 1.512-.296s1.11.098 1.513.296c.403.198.705.494 1.008.79.302.296.504.691.605 1.087.1.395.201.79.201 1.284h-6.755zM102.021 10.378c-.409-.098-.818-.098-1.226-.098-.41 0-.716-.098-1.023-.098-1.533 0-2.964.098-4.19.391-1.227.294-2.351.588-3.271.882V28h5.213V14.685c.204-.098.613-.098 1.022-.195.409-.098.818-.098 1.124-.098.716 0 1.431.098 2.044.195.614.098 1.125.196 1.636.392l.817-4.112a13.296 13.296 0 0 0-1.022-.294c-.408-.097-.715-.195-1.124-.195zM117.386 19.21c-.392-.494-.982-.889-1.669-1.284s-1.571-.79-2.75-1.185c-.49-.198-.981-.395-1.276-.593-.294-.197-.589-.296-.785-.494-.197-.098-.295-.296-.393-.494-.098-.197-.098-.296-.098-.493 0-.89.785-1.284 2.356-1.284.884 0 1.571.098 2.259.197.687.198 1.276.297 1.865.494l.884-3.852c-.59-.197-1.375-.395-2.356-.592a15.16 15.16 0 0 0-3.044-.297c-2.16 0-3.83.494-5.008 1.482-1.178.987-1.866 2.271-1.866 3.95 0 .89.098 1.58.393 2.173.295.593.59 1.087 1.08 1.58.491.396.982.79 1.571 1.087.59.296 1.375.593 2.16.889.982.395 1.768.691 2.259.987.49.297.687.692.687 1.087 0 .494-.196.889-.59 1.086-.392.198-.981.297-1.963.297a12.12 12.12 0 0 1-2.651-.297c-.884-.197-1.767-.494-2.651-.79l-.786 4.05c.393.197 1.08.395 2.16.69 1.08.297 2.357.396 3.928.396 2.357 0 4.222-.494 5.499-1.383 1.276-.889 1.964-2.173 1.964-3.95 0-.692-.099-1.383-.295-1.976-.196-.592-.393-.987-.884-1.481zM136.104 12.199c-.714-.786-1.53-1.374-2.448-1.865-1.02-.393-2.143-.687-3.47-.687-.714 0-1.428.098-2.04.196a6.665 6.665 0 0 0-1.837.589V1.697l-5.204.785V27.02c.51.098 1.02.294 1.633.392.612.098 1.224.196 1.938.295.613.098 1.327.196 2.041.196.714.098 1.327.098 1.939.098 1.53 0 2.857-.196 3.98-.687 1.224-.393 2.142-1.08 2.958-1.865.817-.785 1.429-1.766 1.837-2.944.408-1.178.612-2.356.612-3.828 0-1.374-.204-2.65-.51-3.73a8.897 8.897 0 0 0-1.429-2.747zm-4.387 10.207c-.714.981-1.735 1.374-3.163 1.374-.51 0-.919 0-1.327-.098-.408 0-.714-.099-1.02-.099v-9.029a3.478 3.478 0 0 1 1.224-.49c.51-.099 1.02-.197 1.531-.197 2.449 0 3.673 1.57 3.673 4.81.204 1.57-.204 2.845-.918 3.729zM154.234 11.32c-.598-.597-1.395-1.093-2.392-1.49-.996-.298-2.192-.497-3.686-.497-.598 0-1.196 0-1.793.1-.598.099-1.096.099-1.595.198-.498.1-.996.199-1.395.298-.398.1-.797.199-1.095.298l.597 4.07a10.285 10.285 0 0 1 2.192-.496c.797-.099 1.694-.198 2.491-.198 1.295 0 2.192.298 2.69.794.498.497.797 1.192.797 2.085v.397a3.728 3.728 0 0 0-1.195-.198c-.498-.1-1.096-.1-1.794-.1-.996 0-1.893.1-2.79.298-.896.199-1.693.497-2.39.894a4.596 4.596 0 0 0-1.694 1.688c-.399.695-.598 1.589-.598 2.68 0 1.093.199 1.987.498 2.781.398.695.897 1.39 1.594 1.787.697.497 1.495.795 2.391.993.897.199 1.993.298 3.089.298 1.793 0 3.387-.1 4.683-.298 1.295-.198 2.291-.397 2.989-.596V16.582c0-1.093-.1-2.086-.399-2.98-.2-.893-.598-1.687-1.195-2.283zm-3.189 12.61c-.299 0-.597.098-1.096.098h-1.395c-.896 0-1.693-.198-2.191-.496-.499-.298-.798-.894-.798-1.589 0-.397.1-.695.3-.993.199-.298.398-.496.697-.595.299-.199.697-.298 1.096-.298.398-.1.896-.1 1.295-.1.299 0 .697 0 1.096.1.399 0 .697.099.897.099v3.773h.1zM171.27 2.68l-5.83 2.682 3.952 1.191-4.446 7.248-5.632-9.432h-6.027l9.09 14.298V28h5.138v-9.433l5.928-9.234 2.47 3.376.593-6.354L177 0z"/>
    </g>
</svg>
