<svg xmlns="http://www.w3.org/2000/svg" width="81" height="30" viewBox="0 0 81 30">
    <g fill="#EBDEC2" fill-rule="nonzero">
        <path d="M50.091 1.948s2.358 1.64 0 1.947c0 0-8.816 1.025-15.377 7.177 0 0-9.842 8.609-13.532 18.041 0 0-1.229 0-.818-1.845.409-1.846 2.869-9.943 13.837-19.888-.001.001 10.56-9.634 15.89-5.432m-27.986 1.23c.102 2.256 2.05 10.866 2.05 10.866.717 1.743 1.333 0 1.333 0 2.357-7.073-2.46-11.172-2.46-11.172-1.231-.718-.923.306-.923.306M3.064 9.073c.876-.224 2.24-.347 3.563-.347 1.242 0 2.647.204 3.645.918.937.611 1.486 1.587 1.486 2.91 0 1.711-.794 3.034-1.854 3.848-1.119.876-2.728 1.283-4.397 1.283-.488 0-.896-.061-1.201-.081l-.936 4.927H.5L3.064 9.073zm1.692 6.129c.325.061.631.102 1.139.102 1.751 0 2.912-1.119 2.912-2.505 0-1.303-.937-1.73-2.077-1.73-.549 0-.956.041-1.202.082l-.772 4.051zM17.563 22.531c.021-.569.082-1.263.122-1.974h-.04c-.938 1.648-2.22 2.198-3.381 2.198-1.791 0-3.013-1.385-3.013-3.463 0-3.359 2.24-6.941 7.127-6.941 1.201 0 2.463.223 3.277.489l-.999 5.212c-.243 1.282-.446 3.236-.406 4.479h-2.687zm.794-7.879a4.078 4.078 0 0 0-.773-.081c-1.893 0-3.278 2.32-3.278 4.174 0 .978.387 1.647 1.202 1.647.876 0 1.994-.996 2.443-3.439l.406-2.301z"/>
        <path d="M36.067 22.756c-2.544 0-4.234-1.65-4.234-4.114 0-3.439 2.403-6.29 5.944-6.29 2.688 0 4.234 1.833 4.234 4.112 0 3.624-2.503 6.292-5.924 6.292h-.02zm.387-2.24c1.588 0 2.504-2.341 2.504-4.03 0-.937-.406-1.895-1.567-1.895-1.688 0-2.545 2.442-2.545 3.989 0 1.162.59 1.936 1.589 1.936h.019zM42.409 22.531l1.262-6.719c.245-1.263.408-2.342.53-3.238h2.586l-.183 1.649h.039c.938-1.281 2.18-1.872 3.482-1.872 1.629 0 2.565.997 2.565 2.729 0 .447-.081 1.181-.163 1.668l-1.1 5.783h-2.933l1.039-5.518c.061-.346.103-.733.103-1.1 0-.712-.244-1.201-.998-1.201-.957 0-2.056 1.201-2.483 3.4l-.815 4.418h-2.931v.001zM61.754 21.962c-1.16.589-2.605.794-3.705.794-2.851 0-4.316-1.609-4.316-4.215 0-3.034 2.198-6.189 5.804-6.189 2.016 0 3.46 1.141 3.46 2.992 0 2.525-2.464 3.441-6.453 3.34 0 .285.101.732.306 1.018.386.509 1.059.773 1.913.773a6.288 6.288 0 0 0 2.79-.63l.201 2.117zm-1.507-6.638c0-.488-.406-.836-1.078-.836-1.364 0-2.138 1.14-2.341 2.057 2.28.02 3.419-.284 3.419-1.201v-.02zM71.413 21.962c-1.161.589-2.606.794-3.706.794-2.851 0-4.316-1.609-4.316-4.215 0-3.034 2.199-6.189 5.804-6.189 2.015 0 3.461 1.141 3.461 2.992 0 2.525-2.465 3.441-6.455 3.34 0 .285.102.732.306 1.018.386.509 1.058.773 1.914.773a6.284 6.284 0 0 0 2.789-.63l.203 2.117zm-1.508-6.638c0-.488-.406-.836-1.078-.836-1.364 0-2.138 1.14-2.341 2.057 2.279.02 3.419-.284 3.419-1.201v-.02zM72.723 22.531l1.14-5.925c.266-1.507.408-3.176.51-4.032h2.524a39.197 39.197 0 0 1-.183 2.058h.081c.691-1.345 1.791-2.28 3.155-2.28.204 0 .387.02.55.02l-.57 2.872c-.121-.022-.285-.022-.447-.022-1.853 0-2.749 1.65-3.115 3.605l-.692 3.705h-2.953v-.001z"/>
    </g>
</svg>
