<?xml version="1.0" encoding="UTF-8" standalone="no"?>
<svg width="96px" height="96px" viewBox="0 0 96 96" version="1.1" xmlns="http://www.w3.org/2000/svg" xmlns:xlink="http://www.w3.org/1999/xlink">
    <!-- Generator: sketchtool 39.1 (31720) - http://www.bohemiancoding.com/sketch -->
    <title>C0997B2F-8A27-47D9-9162-2854B6007A8A</title>
    <desc>Created with sketchtool.</desc>
    <defs></defs>
    <g id="Frontend" stroke="none" stroke-width="1" fill="none" fill-rule="evenodd">
        <g id="test-drive_content" transform="translate(-95.000000, -3038.000000)" fill="#D2145A">
            <g id="Group-47" transform="translate(95.000000, 2998.000000)">
                <g id="Group-37" transform="translate(0.000000, 40.000000)">
                    <g id="Group-26">
                        <path d="M22.625,0 C18.7631912,0 15.892231,1.2879467 14.1875,3.3125 C12.482768,5.33705376 12,7.85179614 12,10 C12,15.1102581 14.7633648,19.2575186 18.5625,21.9375 C19.7309608,22.7617548 20.9795436,23.4236812 22.3125,24 L2,24 L0,24 L0,26 L0,44 L0,46 L2,46 L4,46 L4,94 L4,96 L6,96 L90,96 L92,96 L92,94 L92,46 L94,46 L96,46 L96,44 L96,26 L96,24 L94,24 L73.6875,24 C75.0204544,23.4236812 76.2690428,22.7617548 77.4375,21.9375 C81.2366332,19.2575186 84,15.1102581 84,10 C84,7.85179614 83.5172348,5.33705376 81.8125,3.3125 C80.107765,1.2879467 77.2368086,0 73.375,0 C69.3864058,0 66.1593932,1.68367838 63.75,4 C61.3406028,6.31632136 59.6155776,9.22496414 58,12 C56.3844222,14.7750358 54.8560638,17.4353027 53.25,19.25 C51.643936,21.0646952 50.1680374,22 48,22 C45.8319624,22 44.3560638,21.0646952 42.75,19.25 C41.143936,17.4353027 39.6155776,14.7750358 38,12 C36.3844222,9.22496414 34.659397,6.31632136 32.25,4 C29.8406046,1.68367838 26.613594,0 22.625,0 L22.625,0 Z M22.625,4 C25.5534056,4 27.5561466,5.06632136 29.4375,6.875 C31.3188552,8.68367862 32.9760742,11.2750358 34.5625,14 C36.1489256,16.7249641 37.7053108,19.5646952 39.75,21.875 C39.7889594,21.9190196 39.8355216,21.9563598 39.875,22 L32,22 C27.9714678,22 23.804365,20.7980174 20.8125,18.6875 C17.8206348,16.5769825 16,13.7277431 16,10 C16,8.49220466 16.3562317,6.99894714 17.25,5.9375 C18.1437682,4.87605332 19.6048088,4 22.625,4 L22.625,4 Z M73.375,4 C76.395195,4 77.8562316,4.87605332 78.75,5.9375 C79.6437682,6.99894714 80,8.49220466 80,10 C80,13.7277431 78.179367,16.5769825 75.1875,18.6875 C72.1956328,20.7980174 68.0285338,22 64,22 L56.125,22 C56.1644782,21.9563598 56.2110404,21.9190196 56.25,21.875 C58.294689,19.5646952 59.8510742,16.7249641 61.4375,14 C63.0239256,11.2750358 64.6811446,8.68367862 66.5625,6.875 C68.4438552,5.06632136 70.4465942,4 73.375,4 L73.375,4 Z M4,28 L36,28 L36,42 L4,42 L4,28 L4,28 Z M40,28 L56,28 L56,43.625 C55.9970664,43.6875038 55.9970664,43.7500038 56,43.8125 C55.9970664,43.875 55.9970664,43.9375 56,44 C55.9839514,44.145832 55.9839514,44.291664 56,44.437496 L56,92 L40,92 L40,44.375 C40.0117682,44.25 40.0117682,44.125 40,44 C40.0052184,43.9166678 40.0052184,43.833332 40,43.749996 C40.0029334,43.687496 40.0029334,43.624996 40,43.562496 L40,28 L40,28 Z M60,28 L92,28 L92,42 L90,42 L60,42 L60,28 L60,28 Z M8,46 L36,46 L36,92 L8,92 L8,46 L8,46 Z M60,46 L88,46 L88,92 L60,92 L60,46 L60,46 Z" id="Fill-77"></path>
                    </g>
                </g>
            </g>
        </g>
    </g>
</svg>