<?xml version="1.0" encoding="UTF-8" standalone="no"?>
<svg width="48px" height="48px" viewBox="0 0 48 48" version="1.1" xmlns="http://www.w3.org/2000/svg" xmlns:xlink="http://www.w3.org/1999/xlink">
    <!-- Generator: sketchtool 39.1 (31720) - http://www.bohemiancoding.com/sketch -->
    <title>E9371A38-6DE5-40D3-A83D-213C4ADC186C</title>
    <desc>Created with sketchtool.</desc>
    <defs></defs>
    <g id="Frontend" stroke="none" stroke-width="1" fill="none" fill-rule="evenodd">
        <g id="test-drive_content" transform="translate(-855.000000, -2698.000000)" fill="#D2145A">
            <g id="Group-12" transform="translate(56.000000, 2698.000000)">
                <g id="Group-59" transform="translate(799.000000, 0.000000)">
                    <g id="Group-51">
                        <path d="M27.9,0.0168574521 C27.8174102,0.0264797316 27.7374096,0.0464477643 27.66,0.0767615576 C27.5759601,0.0959555678 27.4959594,0.12590767 27.42,0.166617872 C27.42,0.166617572 26.2478357,0.771048284 25.17,2.11349914 C24.2051166,3.31526537 23.2873241,5.17815709 23.1,7.77443168 C23.0101282,7.77821133 22.9195569,7.79948158 22.83,7.80438371 C22.2001831,5.84335107 20.6135028,4.78791882 19.23,4.32994892 C17.6865124,3.8190207 16.26,3.91062058 16.26,3.91062058 C16.23,3.9092152 16.2,3.9092152 16.17,3.91062058 C15.8003375,3.95080554 15.5405749,4.14078124 15.3907104,4.48054768 C15.2408468,4.82031413 15.2758566,5.13989211 15.4957397,5.43928211 C15.7156237,5.73867209 16.0103777,5.86809476 16.38,5.82755012 C16.38,5.82755012 17.4785266,5.77585939 18.63,6.15702238 C19.5532233,6.46262937 20.4162012,6.9684089 20.88,8.01404788 C11.8703365,9.35242383 4.87013214,16.3656718 4.02,25.1466056 C1.76230133,25.5338101 0,27.4291732 0,29.7891694 C0,32.0606019 1.64840721,33.8883919 3.78,34.3718291 C5.02941055,39.1169579 7.91399871,42.5535724 11.52,44.7352294 C15.2761349,47.0077185 19.754154,48 24,48 C28.2458459,48 32.7238659,47.0077185 36.48,44.7352294 C40.0860021,42.5535724 42.9705908,39.1169579 44.22,34.3718291 C46.3515929,33.8883919 48,32.0606019 48,29.7891694 C48,27.4291732 46.2376977,25.5338101 43.98,25.1466056 C43.0641284,15.6866635 35.0036608,8.2682909 24.99,7.80438371 C25.158739,5.64781284 25.9265332,4.23757094 26.67,3.3115801 C27.5121642,2.26266122 28.26,1.90383497 28.26,1.90383497 C28.8577606,1.7626491 29.0991723,1.39083297 28.9842371,0.788386521 C28.8693036,0.185940011 28.50789,-0.0712362918 27.9,0.0168574844 L27.9,0.0168574521 L27.9,0.0168574521 Z M23.82,9.6614092 C23.9199994,9.67720144 24.0200005,9.67720144 24.12,9.6614092 C33.8504076,9.7214713 41.6847034,16.9661729 42.18,26.0152143 L42.24,26.9137751 L43.14,26.9137751 L43.2,26.9137751 C44.8017444,26.9137751 46.08,28.1899864 46.08,29.7891694 C46.08,31.3154721 44.9120653,32.5268217 43.41,32.6346117 L42.69,32.6945157 L42.54,33.3834123 C41.5008508,37.9370047 38.8743457,41.0702672 35.49,43.1178201 C32.1056542,45.1653728 27.9458349,46.0830705 24,46.0830705 C20.054165,46.0830705 15.8943439,45.1653728 12.51,43.1178201 C9.12565521,41.0702672 6.49914917,37.9370047 5.46,33.3834123 L5.31,32.6945157 L4.59,32.6346117 C3.08793571,32.5268217 1.92,31.3154721 1.92,29.7891694 C1.92,28.1899864 3.19825538,26.9137751 4.8,26.9137751 L4.86,26.9137751 L5.76,26.9137751 L5.82,26.0152143 C6.28103347,17.5921326 13.1113384,10.7383411 21.9,9.7812173 C22.1169818,9.83443854 22.3269818,9.81446999 22.53,9.72131325 C22.9590087,9.68874059 23.3827734,9.66545756 23.82,9.6614092 L23.82,9.6614092 Z M16.32,24.9968455 C14.7294204,24.9968455 13.44,26.284203 13.44,27.8722398 C13.44,29.4602766 14.7294204,30.7476341 16.32,30.7476341 C17.9105804,30.7476341 19.2,29.4602766 19.2,27.8722398 C19.2,26.284203 17.9105804,24.9968455 16.32,24.9968455 L16.32,24.9968455 Z M31.68,24.9968455 C30.0894195,24.9968455 28.8,26.284203 28.8,27.8722398 C28.8,29.4602766 30.0894195,30.7476341 31.68,30.7476341 C33.2705786,30.7476341 34.56,29.4602766 34.56,27.8722398 C34.56,26.284203 33.2705786,24.9968455 31.68,24.9968455 L31.68,24.9968455 Z M18.12,36.6781349 C17.6939117,36.7278014 17.4228992,36.9588144 17.3069623,37.3711739 C17.1910272,37.7835298 17.3020385,38.1216053 17.6399981,38.3854003 C17.64,38.3854003 20.112984,40.3322818 24,40.3322818 C27.8870159,40.3322818 30.36,38.3854003 30.36,38.3854003 C30.6490575,38.1549247 30.7657873,37.8571192 30.7101928,37.4919802 C30.6545965,37.1268411 30.4544988,36.8771191 30.1098998,36.7428139 C29.7653008,36.6085089 29.4486676,36.6568371 29.16,36.8877991 C29.16,36.8877991 27.2688244,38.4153523 24,38.4153523 C20.7311755,38.4153523 18.84,36.8877991 18.84,36.8877991 C18.6297015,36.7162439 18.3897015,36.6463583 18.12,36.6781349 L18.12,36.6781349 Z" id="Fill-75"></path>
                    </g>
                </g>
            </g>
        </g>
    </g>
</svg>