<?xml version="1.0" encoding="UTF-8" standalone="no"?>
<svg width="48px" height="48px" viewBox="0 0 48 48" version="1.1" xmlns="http://www.w3.org/2000/svg" xmlns:xlink="http://www.w3.org/1999/xlink">
    <!-- Generator: sketchtool 39.1 (31720) - http://www.bohemiancoding.com/sketch -->
    <title>6E7DDC2D-23F5-4F70-99B0-D0D9C9A0675A</title>
    <desc>Created with sketchtool.</desc>
    <defs></defs>
    <g id="Frontend" stroke="none" stroke-width="1" fill="none" fill-rule="evenodd">
        <g id="test-drive_content" transform="translate(-755.000000, -2138.000000)" fill="#D2145A">
            <g id="Group-15" transform="translate(755.000000, 2138.000000)">
                <g id="Group-30">
                    <path d="M23.7754211,0.00550172628 C23.7449819,0.0140169363 23.7150381,0.0240158727 23.6855895,0.0354985415 L2.12601372,6.57474868 C2.08544427,6.58216588 2.04551928,6.59216459 2.0062383,6.60474524 C0.800829986,7.14142535 0,8.35054548 0,9.69439107 C0,11.9560263 1.54293577,14.0315324 3.77292576,14.4038512 C5.54177531,14.712019 7.09525764,13.8430881 8.05489707,12.5140678 C8.88579152,13.6316228 10.131287,14.4038512 11.588272,14.4038512 C13.0990229,14.4038512 14.3916612,13.5912417 15.2114785,12.4240782 C15.4211439,12.6778377 15.5816298,12.9690126 15.8402994,13.1739922 C16.8303437,13.9585412 18.1511667,14.4038512 19.5533375,14.4038512 C20.856109,14.4038512 22.0606657,13.967949 22.9968808,13.2639819 L22.9968808,20.4631566 C22.9916044,20.8366544 23.1499867,21.1175481 23.4720256,21.3058377 C23.7940665,21.4941309 24.1161055,21.4941309 24.4381445,21.3058377 C24.7601853,21.1175481 24.9185658,20.8366526 24.9132894,20.4631547 L24.9132876,13.323975 C25.8703761,14.0035479 27.0583086,14.4038512 28.3568309,14.4038512 C30.1211497,14.4038512 31.7061783,13.6141108 32.69869,12.4240782 C33.5237689,13.5961786 34.8239799,14.4038512 36.3218964,14.4038512 C37.7969383,14.4038512 39.0603227,13.6352296 39.8852152,12.5140678 C40.8436634,13.8040883 42.3740825,14.6303212 44.1072988,14.4038512 C44.1172776,14.4040077 44.1272601,14.4040077 44.1372427,14.4038512 C46.3672337,14.0315324 47.9101684,11.9560263 47.9101684,9.69439107 C47.9101684,8.35054548 47.1006974,7.09435937 45.8140986,6.66473836 C45.804116,6.66458227 45.7941372,6.66458227 45.7841547,6.66473836 L24.2245789,0.0354982877 C24.1067151,0.00251596883 23.9869397,-0.00748284591 23.8652527,0.00550184072 C23.8353069,0.00409432133 23.805363,0.00409426411 23.7754211,0.00550166906 L23.7754211,0.00550172628 L23.7754211,0.00550172628 Z M23.9550842,1.98527478 L45.2152215,8.49452861 C45.6533879,8.64084148 45.9937617,9.11845671 45.9937617,9.69439107 C45.9937617,11.0704155 45.0746951,12.2676901 43.867748,12.4840713 C43.8573231,12.485415 43.8482106,12.4828235 43.8378041,12.4840713 C42.1792208,12.6841578 40.8134747,11.5453614 40.8134747,9.904367 L38.897068,9.904367 C38.897068,11.2802092 37.6953222,12.4840713 36.3218964,12.4840713 C34.916531,12.4840713 33.716781,11.4020996 33.716781,9.904367 C33.7078256,9.27347526 33.3884257,8.95802894 32.7585777,8.95802894 C32.1287295,8.95802894 31.8093259,9.27347434 31.8003743,9.90436604 C31.8003743,11.152224 30.3179542,12.4840713 28.3568309,12.4840713 C27.3634932,12.4840713 26.4564927,12.1614691 25.8415471,11.6741641 C25.2266014,11.1868591 24.9132876,10.5922886 24.9132876,9.904367 C24.904376,9.27343223 24.5849762,8.95796486 23.955086,8.95796486 C23.3251959,8.95796486 23.0057942,9.27343223 22.9968808,9.90436604 C22.9968808,11.152224 21.5144607,12.4840713 19.5533375,12.4840713 C18.5599998,12.4840713 17.6529993,12.1614691 17.0380536,11.6741641 C16.423108,11.1868591 16.1097941,10.5922886 16.1097941,9.904367 C16.1008606,9.27345329 15.7814589,8.9579969 15.1515908,8.9579969 C14.5217234,8.9579969 14.2023226,9.27345329 14.1933883,9.90436604 C14.1933874,11.2802092 12.9616968,12.4840713 11.588272,12.4840713 C10.1829065,12.4840713 9.01310044,11.4020996 9.01310044,9.904367 C9.00419806,9.27342125 8.68479723,8.95794838 8.05489798,8.95794838 C7.42499826,8.95794838 7.10559698,9.27342125 7.09669415,9.90436604 C7.0966937,11.5556562 5.73571404,12.7686422 4.10230817,12.4840713 C4.09232704,12.4839147 4.0823459,12.4839147 4.07236432,12.4840713 C2.85282204,12.2804565 1.91640674,11.0803378 1.91640674,9.69439107 C1.91640674,9.11845671 2.26542084,8.60577439 2.78477854,8.37454236 L23.9550842,1.98527478 L23.9550842,1.98527478 Z M35.4235808,16.1136552 C34.957861,16.1103907 34.3351918,16.1420973 33.6269495,16.2936346 C32.2104611,16.5967181 30.4438869,17.4588666 29.1054273,19.4432735 C28.2017383,20.8011928 27.0130931,22.2629503 24.4341859,22.2629503 C22.748084,22.2629503 22.029362,21.9029916 20.4217093,21.9029916 C18.9999408,21.9029916 17.9077688,22.1676218 16.9781659,22.5929125 C16.1821608,22.1833652 15.3117914,21.9029916 14.283219,21.9029916 C12.986867,21.9029916 11.7098704,22.3051348 10.7199002,23.2228403 C9.74888056,24.1229769 9.09484383,25.4816212 8.77354959,27.2123829 L8.74360574,27.2123829 C8.7360357,27.2427347 8.75034146,27.2720391 8.74360574,27.3023726 C8.58417536,28.0207429 8.64561107,28.7340291 9.28259513,29.3721354 C9.30167374,29.393018 9.321636,29.4130144 9.34248101,29.4321266 C9.82906407,29.8499327 10.4511611,30.1815262 11.1391142,30.3620219 C11.4830911,30.4522715 11.8516075,30.519577 12.3069245,30.3920184 C12.7622414,30.2644598 13.2666485,29.718381 13.3250156,29.192156 C13.453548,28.0333319 13.766331,27.3491085 14.1035558,27.0324036 C14.2251917,26.9181697 14.4691261,26.9999591 14.6126014,26.9424139 C14.5551471,27.5870433 14.3975846,28.5047543 14.3730505,28.6522179 C14.371646,28.6822144 14.371646,28.712211 14.3730505,28.7422076 C14.3728339,28.7452797 14.2225106,29.3168456 13.9238927,29.94207 C13.6252747,30.5672944 13.2056568,31.3317398 12.7860262,32.0718259 C12.3663955,32.8119119 11.9418165,33.537245 11.588272,34.1415886 C11.2347273,34.7459322 10.9677375,35.1652908 10.8097318,35.5214304 C10.8095755,35.5314268 10.8095755,35.5414269 10.8097318,35.551427 C10.5066461,36.340836 10.443529,37.1169933 10.6899563,37.7711726 C10.9363835,38.4253517 11.4631726,38.9113202 12.0374298,39.1510144 C13.1736048,39.6252544 14.628392,39.2438455 15.3611978,38.0411416 L15.3911416,38.0411416 C15.3946872,38.0352865 15.3876928,38.0170586 15.3911416,38.011145 C16.862446,35.6500765 19.0185753,31.6818706 24.0449158,31.6818706 C26.1063045,31.6818706 28.1034138,32.9774569 29.7043044,34.5015474 C31.3051967,36.0256377 32.4100855,37.6342143 32.9981285,38.3411072 C33.8016999,39.2802573 35.0220436,39.5788205 35.9625702,39.1810109 C36.9030967,38.7832012 37.5032568,37.571918 37.1303805,36.4513239 C36.4302747,34.3974052 35.4497451,32.4780866 34.6749844,30.90196 C34.287604,30.1138966 33.9374671,29.4169434 33.716781,28.8621938 C33.4960949,28.3074441 33.4434483,27.8699693 33.4472863,27.8123142 C33.4474435,27.8023159 33.4474435,27.7923158 33.4472863,27.7823176 C33.4919974,26.7969569 33.6820999,25.7319691 33.926388,25.1726168 C34.037325,24.9185998 34.1023373,24.825397 34.1060512,24.812658 C34.1145934,24.8213197 34.0977245,24.8222095 34.135995,24.8426546 C34.1457545,24.8528743 34.155737,24.8628726 34.1659389,24.8726492 C34.964159,25.2724636 35.1098867,25.578288 36.0224579,26.4924655 C36.6110527,27.0820963 37.5530049,27.1675784 38.2083593,26.7924311 C38.8637137,26.4172836 39.2863381,25.6518953 39.2863381,24.7826615 C39.2863381,23.5484138 39.3879286,21.2616246 37.1603244,18.1834179 C37.1571625,18.1674639 37.1273723,18.102663 37.1303805,18.0334351 C37.1326724,17.9809192 37.1416753,17.9439031 37.1603244,17.9134489 C37.307452,17.7292714 37.3773186,17.5192954 37.3699276,17.2835211 C37.3699314,16.9155633 37.2270474,16.6604424 37.040549,16.4736139 C36.8540505,16.2867854 36.5993741,16.1436518 36.2320649,16.1436518 C36.1921421,16.1411453 36.1522158,16.1411453 36.1122895,16.1436518 C36.0876676,16.1450651 36.0272791,16.1459311 35.9625702,16.1436518 C35.8331485,16.1390435 35.6564425,16.1153066 35.4235808,16.1136552 L35.4235808,16.1136552 Z M35.2139738,18.0634317 C35.2130161,18.2294472 35.2400065,18.403804 35.2738615,18.5733732 C35.3086339,18.7475616 35.3918714,18.9402873 35.5733001,19.1733045 L35.5433562,19.203301 C37.6197534,22.0068462 37.3699314,23.3473981 37.3699314,24.7826615 C37.3699314,25.0116562 37.3133699,25.0269895 37.2800998,25.0526305 C36.5299901,24.2867935 36.1064921,23.6698849 35.0343107,23.1328506 L35.0343107,23.1628471 C35.0252091,23.1579514 35.0135853,23.1675505 35.0043668,23.1628471 C34.4419545,22.8743005 33.7017323,22.8276981 33.1777916,23.1328506 C32.6452647,23.4430029 32.3729298,23.9344677 32.1597006,24.4227027 C31.7332454,25.3991746 31.581991,26.5659317 31.5308796,27.6923279 C31.4868008,28.3545902 31.6886843,28.8950025 31.9500936,29.5521147 C32.2115028,30.2092269 32.5470809,30.946109 32.9382408,31.7418637 C33.7205605,33.3333731 34.6624249,35.1996228 35.3038054,37.0812516 C35.4100307,37.4004923 35.3514296,37.3530771 35.2139738,37.4112138 C35.0765215,37.4693541 34.8116507,37.5159417 34.4653774,37.1112482 C34.0952169,36.6662759 32.79861,34.7832484 31.0218341,33.091709 C29.2450581,31.4001695 26.8703627,29.7620907 24.0449158,29.7620907 C17.9696869,29.7620907 15.1472976,34.7723988 13.7442296,37.0212585 C13.7440733,37.0312549 13.7440733,37.0412549 13.7442296,37.0512551 C13.5107483,37.4488706 13.0748169,37.50176 12.7860262,37.3812173 C12.6416308,37.3209458 12.5395989,37.2519779 12.4865876,37.1112482 C12.4371923,36.980123 12.4384479,36.7029844 12.5764192,36.301341 C12.6100521,36.2255294 12.885048,35.6999964 13.235184,35.1014786 C13.58532,34.5029607 14.0321074,33.7614613 14.4628821,33.0017193 C14.8936567,32.2419772 15.2974957,31.4795988 15.6306925,30.7819737 C15.9483213,30.116945 16.1949177,29.5784789 16.2595134,28.9521835 L16.2894573,28.9521835 C16.2940573,28.924664 16.2853378,28.8897901 16.2894573,28.8621938 C16.4166729,28.0042636 16.3075197,27.1160951 16.6188397,26.1025102 C16.7045901,25.8313693 16.6757483,25.5730683 16.5323179,25.3276088 C16.3888856,25.0821491 16.1781748,24.9304966 15.9001871,24.8726511 C14.773513,24.6350385 13.62859,24.8893923 12.8159701,25.6525617 C12.1112989,26.3143535 11.7298346,27.2972828 11.5283843,28.4722385 C11.2201767,28.3705222 10.813503,28.1696914 10.6300686,28.0222901 C10.6381174,28.0303531 10.6253734,27.9916691 10.6300686,27.9922935 C10.6778354,27.998533 10.5958609,27.7094042 10.6001248,27.6923279 C10.6108044,27.6726811 10.6207852,27.6526827 10.6300686,27.6323348 C10.8913591,26.1490813 11.3924663,25.2028037 12.007486,24.6326787 C12.6225055,24.0625535 13.3757039,23.8227715 14.283219,23.8227715 C15.1630243,23.8227715 15.8004315,24.022784 16.4391765,24.4227027 C16.7625479,24.6313677 17.0919303,24.6413659 17.4273238,24.4526974 C18.1422004,24.0548456 19.0083589,23.8227715 20.4217093,23.8227715 C21.6886666,23.8227715 22.4791138,24.1827302 24.4341859,24.1827302 C27.77462,24.1827302 29.6451605,22.0432818 30.6625078,20.5231497 L30.6924517,20.5231497 C30.6958071,20.5180617 30.6890961,20.4982118 30.6924517,20.4931532 C31.7461193,18.9423488 32.9701109,18.4072515 34.0162196,18.1834179 C34.4726989,18.085746 34.8606604,18.0677232 35.2139738,18.0634317 L35.2139738,18.0634317 Z M23.8652527,32.611764 C23.8246847,32.6191789 23.7847584,32.629179 23.7454772,32.6417606 C23.2337943,32.7565581 22.9842628,33.0765203 22.9968827,33.6016505 L22.9968808,41.2807702 L2.48533999,41.2807702 C1.12611073,41.2807702 0,42.4088635 0,43.7704848 L0,47.04011 C0.000127223242,47.6800379 0.319560278,48 0.958299199,48 L47.0417966,48 C47.6806001,47.9998718 48,47.6798767 48,47.0400148 L48,43.7704848 C48,42.4088635 46.8738887,41.2807702 45.51466,41.2807702 L24.9132876,41.2807702 L24.9132876,33.6016505 C24.9235881,33.3120255 24.8234925,33.0678091 24.6130027,32.8689976 C24.4025131,32.6701862 24.153263,32.5844441 23.8652527,32.6117676 L23.8652527,32.611764 L23.8652527,32.611764 Z M2.48533999,43.2005502 L23.7754211,43.2005502 L24.1646912,43.2005502 L45.51466,43.2005502 C45.8801965,43.2005502 46.0835933,43.4043049 46.0835933,43.7704848 L46.0835933,46.0802201 L1.91640674,46.0802201 L1.91640674,43.7704848 C1.91640674,43.4043049 2.11980322,43.2005502 2.48533999,43.2005502 L2.48533999,43.2005502 Z" id="Fill-80"></path>
                </g>
            </g>
        </g>
    </g>
</svg>