<?xml version="1.0" encoding="UTF-8" standalone="no"?>
<svg width="48px" height="48px" viewBox="0 0 48 48" version="1.1" xmlns="http://www.w3.org/2000/svg" xmlns:xlink="http://www.w3.org/1999/xlink">
    <!-- Generator: sketchtool 39.1 (31720) - http://www.bohemiancoding.com/sketch -->
    <title>FCA6E68A-9677-46BD-81E6-B7897E6BF7C9</title>
    <desc>Created with sketchtool.</desc>
    <defs></defs>
    <g id="Frontend" stroke="none" stroke-width="1" fill="none" fill-rule="evenodd">
        <g id="test-drive_content" transform="translate(-819.000000, -2138.000000)" fill="#D2145A">
            <g id="Group-15" transform="translate(755.000000, 2138.000000)">
                <g id="Group-14" transform="translate(64.000000, 0.000000)">
                    <path d="M42.4559939,0.00867202426 C41.8174703,0.0716465506 41.1610383,0.388841146 40.6625186,0.88893889 C40.6625186,0.88893889 39.1849794,2.36515162 38.542957,3.00809986 C38.5088277,3.04233256 38.282669,3.13569705 37.9886101,3.13850977 C37.6945511,3.14132248 37.3346301,3.01257713 37.4342632,3.07330482 C36.0757303,2.2492018 34.6360461,1.84890163 33.2277485,2.06262805 C31.8194508,2.27635445 30.4965518,3.06594817 29.2821029,4.27959645 L27.0321067,6.52916733 C26.5950625,6.96822323 26.4478141,7.6418333 26.5103684,8.22449611 C25.5844215,7.96992059 24.6263397,7.83326837 23.6734167,7.83326639 C20.9594179,7.83326141 18.238943,8.86595531 16.1734292,10.9305017 L3.09736417,24.0040947 C-1.03253831,28.1332171 -1.03237113,34.8711266 3.09736417,39.0012339 L8.9995282,44.9022822 C13.1293874,49.0336709 19.8369236,49.0314741 23.9668944,44.9022822 L37.0429595,31.8286891 C39.840659,29.0307344 40.7425555,25.0309673 39.7494767,21.4611016 C40.3315838,21.5520717 41.0234109,21.4291398 41.4777347,20.9720644 L43.7277309,18.7224935 C44.954217,17.4956701 45.7417204,16.1681798 45.9451185,14.7449914 C46.1466177,13.3350805 45.7626621,11.893379 44.9342506,10.5392719 C44.9346885,10.4852213 44.8625848,10.2248055 44.8690333,10.0176323 C44.8775914,9.74140066 44.9471794,9.5482662 44.9994679,9.49599269 C44.999639,9.48512485 44.999639,9.47425795 44.9994679,9.46339022 C45.6372589,8.82364116 47.1516382,7.34422924 47.1516382,7.34422924 C47.8186783,6.67955182 48.10277,5.75353523 47.9668542,4.93164598 C47.8309384,4.10975672 47.3687611,3.41951261 46.7929432,2.84508748 L45.1625111,1.21496366 C44.5867647,0.639325181 43.8979191,0.17745709 43.0755581,0.0412745008 C42.8699668,0.00722884564 42.6688377,-0.0123194115 42.4559939,0.00867202426 L42.4559939,0.00867202426 Z M42.4559939,2.127833 C42.5491705,2.0995859 42.6361733,2.10907125 42.7494717,2.127833 C42.9760643,2.16535649 43.3338279,2.32084905 43.6951223,2.6820751 L45.3255543,4.31219893 C45.6846912,4.6704655 45.8749494,5.03054287 45.9125099,5.25767074 C45.9500742,5.4847986 45.9511171,5.61119041 45.6842494,5.8771178 C45.6733784,5.87694766 45.6625076,5.87694766 45.6516367,5.8771173 C45.6516407,5.8771178 44.1735919,7.35279475 43.5320791,7.99627877 C42.9415808,8.58666528 42.8013939,9.3319604 42.7820803,9.95242736 C42.7627666,10.5728952 42.8045465,11.0728589 43.1407754,11.6151537 C43.8030787,12.6859183 44.0147681,13.5839768 43.8907741,14.4515691 C43.76678,15.3191603 43.2721135,16.2433283 42.2603421,17.2553821 L40.0755631,19.4071456 C39.8896994,19.3467043 39.4844718,19.1065178 38.999478,18.7224935 C38.6378851,18.4361791 38.208376,18.0604806 37.7603496,17.6466118 C37.5344018,17.3693375 37.3012014,17.089745 37.0429595,16.8315499 L31.1734041,10.9305017 C30.8586622,10.6158183 30.5054085,10.349569 30.1625362,10.0828373 C29.8113345,9.71181097 29.497751,9.34620513 29.2494943,9.03955802 C28.8625831,8.56164432 28.6198433,8.17291598 28.5647128,7.99627877 L30.7821004,5.74670789 C31.7860819,4.74338776 32.6970062,4.24661837 33.5538349,4.11658407 C34.4106635,3.98654975 35.2642799,4.19004759 36.3255694,4.83383855 C36.8582461,5.15851615 37.3881485,5.23112352 38.0212187,5.22506827 C38.6542888,5.21901699 39.404821,5.0825956 40.0103458,4.47521131 C40.6497092,3.83492604 42.1299075,2.35605033 42.1299075,2.35605033 C42.2634747,2.2220596 42.3628172,2.15608009 42.4559939,2.127833 L42.4559939,2.127833 Z M23.6734167,9.91982489 C25.4368905,9.91982082 27.199023,10.4849487 28.6951474,11.5825512 C29.474839,12.4006297 30.3769244,13.2650421 31.3364473,14.2233518 L33.7820954,16.6685375 C34.7004871,17.586097 35.5563008,18.4575347 36.358178,19.2115307 C38.7260541,22.3461641 38.6371804,26.6984355 36.0973089,29.7421306 C36.040813,29.6682038 35.9755957,29.6029989 35.901653,29.5465137 L32.2494893,25.8624359 C32.0457807,25.6473101 31.7957824,25.5386338 31.4994905,25.5364111 C31.0245535,25.5252418 30.6954439,25.7387578 30.5121596,26.176963 C30.3288772,26.6151682 30.4079866,26.9993617 30.7494918,27.3295474 L34.4342682,31.0136272 C34.5008627,31.0899038 34.5769509,31.1551088 34.6625287,31.20924 L30.2277535,35.6757813 C30.1762174,35.5785867 30.1110001,35.4916482 30.0321037,35.4149615 L26.3473252,31.7308817 C26.084826,31.4632364 25.7696085,31.365429 25.4016746,31.4374594 C24.9780887,31.5142933 24.7061696,31.7593531 24.5859192,32.1726388 C24.4656689,32.5859206 24.5636739,32.9385741 24.8799364,33.2305956 L28.5321042,36.882073 C28.6088013,36.9609565 28.6957583,37.0261614 28.7929733,37.0776918 L24.3581981,41.5442271 C24.2967583,41.4444736 24.2206722,41.3575349 24.1299396,41.2834073 L20.4777698,37.6319299 C20.2477061,37.3866671 19.9650972,37.2779948 19.6299452,37.3059052 C19.185539,37.3491455 18.8904411,37.5817407 18.7446476,38.0036945 C18.5988541,38.4256442 18.6874312,38.7907625 19.0103789,39.0990414 L22.6625488,42.7505187 C22.7366924,42.8412301 22.8236495,42.9173039 22.9234199,42.978732 L22.4995056,43.4025683 C19.1665338,46.7349099 13.8000012,46.7368878 10.466917,43.4025683 L4.56475301,37.5341225 C1.2315442,34.2006108 1.23171139,28.8362198 4.56475301,25.5038087 L17.6408181,12.4302156 C19.3078194,10.7639949 21.4979462,9.91982979 23.6734167,9.91982489 L23.6734167,9.91982489 Z" id="Fill-74"></path>
                </g>
            </g>
        </g>
    </g>
</svg>