<?xml version="1.0" encoding="UTF-8" standalone="no"?>
<svg width="38px" height="36px" viewBox="0 0 38 36" version="1.1" xmlns="http://www.w3.org/2000/svg" xmlns:xlink="http://www.w3.org/1999/xlink">
    <!-- Generator: sketchtool 39.1 (31720) - http://www.bohemiancoding.com/sketch -->
    <title>C145EEBC-FD06-4844-AA9F-E96F04333347</title>
    <desc>Created with sketchtool.</desc>
    <defs></defs>
    <g id="Frontend" stroke="none" stroke-width="1" fill="none" fill-rule="evenodd">
        <g id="test-drive_main-screen" transform="translate(-884.000000, -443.000000)" fill="#D2145A">
            <g id="Group-62" transform="translate(884.000000, 443.000000)">
                <path d="M25.7356371,0 L25.4690721,0.633288227 L20.1377725,14.1759134 L9.20860837,14.1759134 C8.90278199,12.2259695 7.83072782,10.6040909 6.17946088,9.74289581 C6.18577986,9.6622392 6.20369406,9.58151791 6.20369406,9.49932341 C6.20369406,7.78668266 4.80576467,6.38159675 3.10184703,6.38159675 C1.39792919,6.38159675 0,7.78668266 0,9.49932341 C0,11.2119641 1.39792919,12.6170501 3.10184703,12.6170501 C4.16679574,12.6170501 5.11125597,12.0584584 5.6705641,11.2286874 C6.98896948,12.0108545 7.75461757,13.4228355 7.75461757,15.3207037 C7.75230429,15.3949364 7.7603822,15.4680081 7.77885075,15.5399188 C7.97504048,20.354321 10.5501568,24.3247176 14.3945089,26.6711773 C11.9883711,26.8443241 10.0810028,28.8625468 10.0810028,31.32341 C10.0810028,33.8969878 12.1733044,36 14.7337734,36 C17.2942431,36 19.3865439,33.8969878 19.3865439,31.32341 C19.3865439,30.2095569 18.9966994,29.1814001 18.3445172,28.376184 C19.7756606,28.7747127 21.30408,28.985115 22.8761218,28.985115 C24.858048,28.985115 26.7554421,28.6342125 28.4982196,28.0108254 C27.6550841,28.8582772 27.1411615,30.036621 27.1411615,31.32341 C27.1411615,33.8969878 29.2334622,36 31.793932,36 C34.3544018,36 36.4467026,33.8969878 36.4467026,31.32341 C36.4467026,28.7498321 34.3544018,26.64682 31.793932,26.64682 C31.6498671,26.64682 31.4985487,26.6581512 31.3577348,26.6711773 C35.3576028,24.2298308 37.9976261,20.0347081 37.9976261,14.9553451 L37.9976261,14.8335589 C38.0007913,14.7929629 38.0007913,14.7523685 37.9976261,14.7117727 L37.9976261,14.1759134 L37.9733929,14.1759134 C37.7307268,7.2649272 32.8989348,1.93168192 26.3899329,0.170500677 L25.7356371,0 L25.7356371,0 Z M26.6080315,1.94857916 C32.1979919,3.71341458 36.192686,8.21100993 36.4224694,14.1759134 L21.7856287,14.1759134 L26.6080315,1.94857916 L26.6080315,1.94857916 Z M3.10184703,7.94046008 C3.96758344,7.94046008 4.65277054,8.62915491 4.65277054,9.49932341 C4.65277054,10.3694918 3.96758344,11.0581867 3.10184703,11.0581867 C2.2361106,11.0581867 1.55092351,10.3694918 1.55092351,9.49932341 C1.55092351,8.62915491 2.2361106,7.94046008 3.10184703,7.94046008 L3.10184703,7.94046008 Z M9.37824063,15.7347767 L36.374003,15.7347767 C35.9517949,22.6115774 30.1706758,27.4262517 22.8761218,27.4262517 C15.5807868,27.4262517 9.80039472,22.611619 9.37824063,15.7347767 L9.37824063,15.7347767 Z M14.7337734,28.2056834 C16.4560612,28.2056834 17.8356204,29.5923036 17.8356204,31.32341 C17.8356204,33.0545164 16.4560612,34.4411367 14.7337734,34.4411367 C13.0114855,34.4411367 11.6319264,33.0545164 11.6319264,31.32341 C11.6319264,29.5923036 13.0114855,28.2056834 14.7337734,28.2056834 L14.7337734,28.2056834 Z M31.793932,28.2056834 C33.5162213,28.2056834 34.8957791,29.5923036 34.8957791,31.32341 C34.8957791,33.0545164 33.5162213,34.4411367 31.793932,34.4411367 C30.0716427,34.4411367 28.692085,33.0545164 28.692085,31.32341 C28.692085,29.5923036 30.0716427,28.2056834 31.793932,28.2056834 L31.793932,28.2056834 Z" id="Fill-74"></path>
            </g>
        </g>
    </g>
</svg>