<?xml version="1.0" encoding="UTF-8" standalone="no"?>
<svg width="45px" height="32px" viewBox="0 0 45 32" version="1.1" xmlns="http://www.w3.org/2000/svg" xmlns:xlink="http://www.w3.org/1999/xlink">
    <!-- Generator: sketchtool 39.1 (31720) - http://www.bohemiancoding.com/sketch -->
    <title>AD193F7D-C293-4187-8B9A-0F9E7CFA89CE</title>
    <desc>Created with sketchtool.</desc>
    <defs></defs>
    <g id="Frontend" stroke="none" stroke-width="1" fill="none" fill-rule="evenodd">
        <g id="test-drive_main-screen" transform="translate(-947.000000, -36.000000)" fill="#D2145A">
            <g id="Group-3" transform="translate(947.000000, 36.000000)">
                <path d="M0,0 L0,0.8886905 L0,27.5494055 L0,28.438096 L0.9,28.438096 L44.1,28.438096 L45,28.438096 L45,27.5494055 L45,0.8886905 L45,0 L44.1,0 L0.9,0 L0,0 L0,0 Z M1.8,1.777381 L43.2,1.777381 L43.2,26.660715 L1.8,26.660715 L1.8,1.777381 L1.8,1.777381 Z M18.5625,8.52587448 C18.4633879,8.52587448 18.3694495,8.55897865 18.28125,8.60918922 C18.10305,8.70961195 18,8.9073455 18,9.10907762 L18,20.4121099 C18,20.6147319 18.1039495,20.8115755 18.28125,20.9119983 C18.3694495,20.962653 18.4634994,20.9675415 18.5625,20.9675415 C18.6605993,20.9675415 18.7836754,20.962653 18.871875,20.9119983 L28.771875,15.2465964 C28.9491736,15.1452853 29.053125,14.9493299 29.053125,14.746708 C29.053125,14.5440859 28.9491736,14.3759021 28.771875,14.2745912 L18.871875,8.60918922 C18.7832256,8.55897865 18.661612,8.52587448 18.5625,8.52587448 L18.5625,8.52587448 Z M9.73125,30.215477 C9.1312497,30.2710201 8.859375,30.5950207 8.915625,31.1874822 C8.971875,31.7799437 9.2999997,32.0484045 9.9,31.992858 L35.1,31.992858 C35.4501754,31.9977295 35.7135246,31.8508303 35.8900509,31.5521638 C36.0665806,31.2535007 36.0665806,30.9548342 35.8900543,30.6561711 C35.713528,30.3575046 35.4501754,30.2106054 35.0999965,30.215477 L9.9,30.215477 C9.871875,30.2141718 9.84375,30.2141718 9.815625,30.215477 C9.7874991,30.2141751 9.7593741,30.2141751 9.73125,30.215477 L9.73125,30.215477 Z" id="Fill-70"></path>
            </g>
        </g>
    </g>
</svg>