<?xml version="1.0" encoding="UTF-8" standalone="no"?>
<svg width="67px" height="24px" viewBox="0 0 67 24" version="1.1" xmlns="http://www.w3.org/2000/svg" xmlns:xlink="http://www.w3.org/1999/xlink">
    <!-- Generator: sketchtool 39.1 (31720) - http://www.bohemiancoding.com/sketch -->
    <title>3EEC75B3-21BB-425B-92AE-0104C4F53FB5</title>
    <desc>Created with sketchtool.</desc>
    <defs></defs>
    <g id="Footer" stroke="none" stroke-width="1" fill="none" fill-rule="evenodd">
        <g id="1200-footer" transform="translate(-686.000000, -572.000000)">
            <g id="Group-7" transform="translate(686.000000, 572.000000)">
                <g id="MasterCard_SecureCode">
                    <g id="Layer_1">
                        <g id="Group">
                            <g transform="translate(0.381766, 0.000000)" id="Shape" fill="#798195">
                                <path d="M62.9507949,9.476 C62.9507949,8.74514286 63.5186724,8.15371429 64.2119601,8.15371429 C64.9090655,8.15371429 65.4710256,8.74514286 65.4710256,9.476 C65.4710256,10.208 64.9092564,10.7994286 64.2119601,10.7994286 C63.5186724,10.7994286 62.9507949,10.208 62.9507949,9.476 L62.9507949,9.476 L62.9507949,9.476 Z M64.212151,10.4860952 C64.7420427,10.4860952 65.174584,10.032381 65.174584,9.476 C65.174584,8.92247619 64.7420427,8.4727619 64.212151,8.4727619 C63.684359,8.4727619 63.2497179,8.92247619 63.2497179,9.476 C63.2497179,10.032381 63.684359,10.4860952 64.212151,10.4860952 L64.212151,10.4860952 L64.212151,10.4860952 Z M64.040547,10.055619 L63.7822821,10.055619 L63.7822821,8.89066667 L64.2505185,8.89066667 C64.3457692,8.89066667 64.4526638,8.89638095 64.5345527,8.95485714 C64.6240769,9.02057143 64.6756154,9.13085714 64.6756154,9.24761905 C64.6756154,9.3767619 64.6021254,9.49752381 64.485114,9.54133333 L64.6872593,10.055619 L64.4001709,10.055619 L64.2293305,9.59904762 L64.0403561,9.59904762 L64.0403561,10.055619 L64.040547,10.055619 L64.040547,10.055619 Z M64.040547,9.40095238 L64.1844729,9.40095238 C64.2373476,9.40095238 64.2986211,9.40266667 64.342906,9.3767619 C64.3866182,9.34838095 64.4060883,9.29180952 64.4060883,9.24190476 C64.4060883,9.19809524 64.3807009,9.14533333 64.342906,9.1247619 C64.3043476,9.09866667 64.2266581,9.10457143 64.1814188,9.10457143 L64.040547,9.10457143 L64.040547,9.40095238 L64.040547,9.40095238 L64.040547,9.40095238 Z"></path>
                                <path d="M44.9190142,0.68247619 L44.5735157,2.92495238 C43.8241083,2.52685714 43.2730285,2.37085714 42.6843447,2.37085714 C41.113567,2.37085714 40.0026268,3.96419048 40.0026268,6.23904762 C40.0026268,7.81028571 40.7484074,8.75695238 41.9748319,8.75695238 C42.4953704,8.75695238 43.0674473,8.59009524 43.767416,8.22419048 L43.3988205,10.584 C42.6245983,10.8062857 42.1195214,10.8853333 41.5340826,10.8853333 C39.258755,10.8853333 37.843547,9.1727619 37.843547,6.42380952 C37.843547,2.72609524 39.7989544,0.144 42.5961567,0.144 C42.9574986,0.144 43.2802821,0.179238095 43.5425556,0.255047619 L44.4122194,0.48247619 C44.671057,0.584761905 44.7292764,0.600380952 44.9190142,0.68247619 L44.9190142,0.68247619 L44.9190142,0.68247619 Z"></path>
                                <path d="M37.9157009,2.21942857 C37.8494644,2.20685714 37.7761652,2.19771429 37.699812,2.19771429 C37.0046154,2.19771429 36.6115869,2.5647619 35.9660199,3.56628571 L36.1534672,2.2887619 L34.2421538,2.2887619 L32.9464387,10.6950476 L35.0667692,10.6950476 C35.8249573,5.55714286 36.0188946,4.66990476 37.0353476,4.66990476 C37.0971937,4.66990476 37.1029202,4.66990476 37.1895812,4.67847619 C37.3770285,3.66552381 37.6337664,2.9207619 37.9878547,2.24152381 L37.9157009,2.21942857 L37.9157009,2.21942857 L37.9157009,2.21942857 Z"></path>
                                <path d="M25.2830513,10.592381 C24.7094473,10.7828571 24.2560997,10.8695238 23.7691567,10.8695238 C22.6921937,10.8695238 22.1040826,10.2148571 22.1040826,9.02038095 C22.1040826,8.78609524 22.1216439,8.53333333 22.1642108,8.26666667 L22.2947749,7.44704762 L22.3915527,6.77752381 L23.3070285,1.04152381 L25.4046439,1.04152381 L25.1641311,2.2887619 L26.2437664,2.2887619 L25.9473248,4.33219048 L24.8703618,4.33219048 L24.3129829,7.84057143 C24.2938946,7.99542857 24.2776695,8.10971429 24.2776695,8.1887619 C24.2776695,8.6192381 24.4977578,8.81161905 24.9965356,8.81161905 C25.2399117,8.81161905 25.4233504,8.78628571 25.5644131,8.73314286 L25.2830513,10.592381 L25.2830513,10.592381 L25.2830513,10.592381 Z"></path>
                                <path d="M16.9653162,4.94704762 C16.9653162,6.008 17.4551225,6.74171429 18.5643447,7.29009524 C19.4137749,7.71161905 19.5487293,7.83447619 19.5487293,8.21714286 C19.5487293,8.73942857 19.171735,8.98133333 18.3413932,8.98133333 C17.7151054,8.98133333 17.1296667,8.87695238 16.4548946,8.6447619 L16.1630342,10.5838095 L16.2584758,10.604 L16.6457778,10.6859048 C16.7704245,10.712381 16.9538632,10.736 17.1959031,10.7620952 C17.6990712,10.8089524 18.0848462,10.8314286 18.3578091,10.8314286 C20.5712906,10.8314286 21.5953789,9.93961905 21.5953789,8.02495238 C21.5953789,6.87447619 21.1685641,6.19409524 20.1137436,5.6847619 C19.2335812,5.26628571 19.1337493,5.16761905 19.1337493,4.77733333 C19.1337493,4.32133333 19.4828746,4.08704762 20.1607009,4.08704762 C20.5741538,4.08704762 21.1347778,4.136 21.6700142,4.21219048 L21.9706553,2.27104762 C21.4205299,2.17752381 20.6035499,2.10533333 20.1194701,2.10533333 C17.7708433,2.10533333 16.9565356,3.39542857 16.9653162,4.94704762 L16.9653162,4.94704762 L16.9653162,4.94704762 Z"></path>
                                <path d="M61.7258974,10.6950476 L59.7288775,10.6950476 L59.8336724,9.87142857 C59.2520513,10.5220952 58.6551595,10.8060952 57.8839915,10.8060952 C56.3407009,10.8060952 55.3294017,9.41847619 55.3294017,7.31657143 C55.3294017,4.52057143 56.900943,2.15980952 58.767208,2.15980952 C59.5872422,2.15980952 60.2072308,2.51409524 60.7911425,3.31066667 L61.2504074,0.35752381 L63.3302707,0.35752381 L61.7258974,10.6950476 L61.7258974,10.6950476 L61.7258974,10.6950476 Z M58.6116382,8.71580952 C59.5975499,8.71580952 60.2866382,7.54761905 60.2866382,5.88380952 C60.2866382,4.81542857 59.8932279,4.23352381 59.1640541,4.23352381 C58.2081111,4.23352381 57.528567,5.40647619 57.528567,7.0607619 C57.528567,8.16152381 57.8942991,8.71580952 58.6116382,8.71580952 L58.6116382,8.71580952 L58.6116382,8.71580952 Z"></path>
                                <path d="M31.9666353,10.5184762 C31.2447151,10.7447619 30.5468462,10.8590476 29.798584,10.856 C27.445567,10.856 26.2160883,9.56380952 26.2160883,7.09314286 C26.2160883,4.20419048 27.7798034,2.07771429 29.9056695,2.07771429 C31.6394615,2.07771429 32.7530741,3.26952381 32.7530741,5.13733333 C32.7530741,5.75580952 32.678057,6.35885714 32.4902279,7.21085714 L28.2946154,7.21085714 C28.2770541,7.33885714 28.2743818,7.39733333 28.2743818,7.47161905 C28.2743818,8.45409524 28.9020057,8.94895238 30.1299573,8.94895238 C30.8826097,8.94895238 31.560245,8.78609524 32.3188148,8.41428571 L31.9666353,10.5184762 L31.9666353,10.5184762 L31.9666353,10.5184762 Z M30.7827778,5.5127619 C30.7948034,5.33714286 30.7976667,5.19390476 30.7976667,5.08742857 C30.7976667,4.40038095 30.426208,3.9992381 29.798584,3.9992381 C29.1293476,3.9992381 28.649849,4.53504762 28.4532393,5.50704762 L30.7827778,5.5127619 L30.7827778,5.5127619 L30.7827778,5.5127619 Z"></path>
                                <polygon points="8.49372934 10.6950476 6.38561538 10.6950476 7.59295157 2.7512381 4.89519943 10.6950476 3.45040456 10.6950476 3.27574644 2.79790476 2.00389174 10.6950476 0.0293960114 10.6950476 1.67671795 0.357333333 4.71481481 0.357333333 4.79842165 6.75428571 6.84907977 0.357333333 10.1278803 0.357333333"></polygon>
                                <path d="M13.9258832,6.95047619 C13.7027407,6.924 13.6046268,6.91428571 13.4534473,6.91428571 C12.2579459,6.91428571 11.6520826,7.34838095 11.6520826,8.19752381 C11.6520826,8.72095238 11.9498604,9.05447619 12.4104615,9.05447619 C13.2686724,9.05447619 13.8907607,8.19752381 13.9258832,6.95047619 L13.9258832,6.95047619 L13.9258832,6.95047619 Z M15.4603932,10.6950476 L13.7130484,10.6950476 L13.7512251,9.82228571 C13.218661,10.5182857 12.5072393,10.8411429 11.540416,10.8411429 C10.393208,10.8411429 9.61001425,9.90438095 9.61001425,8.55085714 C9.61001425,6.49866667 10.9786467,5.3072381 13.3184929,5.3072381 C13.5574786,5.3072381 13.8627009,5.32571429 14.1767037,5.36952381 C14.2425584,5.09142857 14.2603105,4.97142857 14.2603105,4.824 C14.2603105,4.2687619 13.8936239,4.05809524 12.9046581,4.05809524 C12.3077664,4.05809524 11.6224957,4.1487619 11.1502507,4.29828571 L10.8568632,4.38304762 L10.6720883,4.43752381 L10.9624217,2.55219048 C12.015906,2.22552381 12.7095755,2.09961905 13.491433,2.09961905 C15.3046325,2.09961905 16.2655385,2.95333333 16.2655385,4.56438095 C16.2655385,4.98285714 16.2348063,5.29333333 16.0910712,6.232 L15.6495584,9.21047619 L15.5775954,9.74838095 L15.5233846,10.1767619 L15.486735,10.4695238 L15.4603932,10.6950476 L15.4603932,10.6950476 L15.4603932,10.6950476 Z"></path>
                                <path d="M48.5536211,6.95047619 C48.3341054,6.924 48.2321738,6.91428571 48.084812,6.91428571 C46.8845385,6.91428571 46.2767664,7.34838095 46.2767664,8.19752381 C46.2767664,8.72095238 46.5777892,9.05447619 47.0385812,9.05447619 C47.9008006,9.05447619 48.5158262,8.19752381 48.5536211,6.95047619 L48.5536211,6.95047619 L48.5536211,6.95047619 Z M50.0896581,10.6950476 L48.3400228,10.6950476 L48.3806809,9.82228571 C47.8484986,10.5182857 47.1355499,10.8411429 46.1700627,10.8411429 C45.0228547,10.8411429 44.236416,9.90438095 44.236416,8.55085714 C44.236416,6.49866667 45.6037123,5.3072381 47.9481396,5.3072381 C48.1857892,5.3072381 48.4938746,5.32571429 48.8057778,5.36952381 C48.8704872,5.09142857 48.8893846,4.97142857 48.8893846,4.824 C48.8893846,4.2687619 48.5228889,4.05809524 47.5343048,4.05809524 C46.9337863,4.05809524 46.2504245,4.1487619 45.782188,4.29828571 L45.4821197,4.38304762 L45.2996353,4.43752381 L45.5932137,2.55219048 C46.6480342,2.22552381 47.3401766,2.09961905 48.1164986,2.09961905 C49.9325613,2.09961905 50.8934672,2.95333333 50.8934672,4.56438095 C50.8934672,4.98285714 50.8571994,5.29333333 50.7205271,6.232 L50.2755783,9.21047619 L50.2102963,9.74838095 L50.1513134,10.1767619 L50.112755,10.4695238 L50.0896581,10.6950476 L50.0896581,10.6950476 L50.0896581,10.6950476 Z"></path>
                                <path d="M55.9837493,2.21942857 C55.9213305,2.20685714 55.8522308,2.19771429 55.7714872,2.19771429 C55.0787721,2.19771429 54.6826895,2.5647619 54.0340684,3.56628571 L54.2222792,2.2887619 L52.3134473,2.2887619 L51.0230769,10.6950476 L53.1361538,10.6950476 C53.8951054,5.55714286 54.0943875,4.66990476 55.1039687,4.66990476 C55.1694416,4.66990476 55.1650513,4.664 55.2515214,4.67847619 C55.4427863,3.66552381 55.7008604,2.9207619 56.0555214,2.24152381 L55.9837493,2.21942857 L55.9837493,2.21942857 L55.9837493,2.21942857 Z"></path>
                            </g>
                            <g transform="translate(0.000000, 12.952381)" id="Shape" fill="#585F72">
                                <path d="M47.5113989,5.89542857 C47.5113989,7.80114286 46.9202336,8.9232381 45.9883419,8.9232381 C45.3080342,8.94419048 44.8955356,8.18761905 44.8955356,7.056 C44.8955356,5.71771429 45.4981538,4.2007619 46.4651681,4.2007619 C47.2424444,4.20095238 47.5113989,5.02285714 47.5113989,5.89542857 L47.5113989,5.89542857 L47.5113989,5.89542857 Z M49.5866809,5.93047619 C49.5866809,3.81219048 48.5377778,2.16342857 46.5663362,2.16342857 C44.296735,2.16342857 42.8269345,4.16838095 42.8269345,7.12 C42.8269345,9.23314286 43.6956439,10.9609524 45.844416,10.9609524 C48.012849,10.9609524 49.5866809,9.42895238 49.5866809,5.93047619 L49.5866809,5.93047619 L49.5866809,5.93047619 Z"></path>
                                <path d="M43.5051425,0.676380952 L43.1825499,2.91638095 C42.4810541,2.52114286 41.9706325,2.35714286 41.4189801,2.35714286 C39.9445983,2.35714286 38.9147835,3.95733333 38.9147835,6.23219048 C38.9147835,7.80266667 39.6044444,8.7527619 40.7531795,8.7527619 C41.2429858,8.7527619 41.7789858,8.58590476 42.4295157,8.21961905 L42.0878348,10.5779048 C41.358661,10.8020952 40.8825983,10.8788571 40.3410627,10.8788571 C38.2169145,10.8788571 36.8937123,9.16552381 36.8937123,6.41619048 C36.8937123,2.7167619 38.7198917,0.135047619 41.3355641,0.135047619 C41.6741909,0.135047619 41.9738775,0.177904762 42.2216439,0.246095238 L43.028698,0.474666667 C43.2778006,0.573333333 43.329339,0.590666667 43.5051425,0.676380952 L43.5051425,0.676380952 L43.5051425,0.676380952 Z"></path>
                                <path d="M30.4575128,2.21561905 C30.3973846,2.19904762 30.328094,2.19238095 30.2549858,2.19238095 C29.6151453,2.19238095 29.2398689,2.56095238 28.640114,3.55904762 L28.8145812,2.28380952 L27.030396,2.28380952 L25.8259231,10.6910476 L27.7960285,10.6910476 C28.5047778,5.548 28.6922251,4.66304762 29.6372877,4.66304762 C29.6930256,4.66304762 29.6987521,4.66304762 29.7810228,4.67257143 C29.958735,3.65561905 30.1979117,2.91066667 30.5292849,2.23009524 L30.4575128,2.21561905 L30.4575128,2.21561905 L30.4575128,2.21561905 Z"></path>
                                <path d="M56.1941026,10.6011429 L54.3324188,10.6011429 L54.4282422,9.78057143 C53.8867066,10.427619 53.3234103,10.7140952 52.6028262,10.7140952 C51.1671937,10.7140952 50.2192678,9.32419048 50.2192678,7.22285714 C50.2192678,4.43142857 51.6905954,2.06380952 53.430114,2.06380952 C54.1976553,2.06380952 54.7800399,2.42571429 55.3181396,3.22228571 L55.7527806,0.266285714 L57.6921538,0.266285714 L56.1941026,10.6011429 L56.1941026,10.6011429 L56.1941026,10.6011429 Z M53.2812251,8.62361905 C54.2092991,8.62361905 54.8491396,7.45638095 54.8491396,5.79104762 C54.8491396,4.71961905 54.4835983,4.14438095 53.805963,4.14438095 C52.9097664,4.14438095 52.2729801,5.31295238 52.2729801,6.97257143 C52.2729801,8.068 52.614661,8.62361905 53.2812251,8.62361905 L53.2812251,8.62361905 L53.2812251,8.62361905 Z"></path>
                                <path d="M11.9809744,10.5664762 C11.3107835,10.7971429 10.6577721,10.9087619 9.9625755,10.9087619 C7.76207407,10.9087619 6.61352991,9.61390476 6.61352991,7.144 C6.61352991,4.25904762 8.07454986,2.13085714 10.0578262,2.13085714 C11.6818604,2.13085714 12.7174017,3.32057143 12.7174017,5.18838095 C12.7174017,5.80571429 12.6469658,6.41066667 12.478416,7.26304762 L8.55118519,7.26304762 C8.53935043,7.38857143 8.53496011,7.45085714 8.53496011,7.52419048 C8.53496011,8.50438095 9.12326211,8.99885714 10.2660798,8.99885714 C10.9702479,8.99885714 11.6068433,8.83504762 12.3125385,8.46647619 L11.9809744,10.5664762 L11.9809744,10.5664762 L11.9809744,10.5664762 Z M10.8791966,5.5647619 C10.8881681,5.38704762 10.8938946,5.24552381 10.8938946,5.13752381 C10.8938946,4.452 10.5478234,4.05085714 9.96238462,4.05085714 C9.33304274,4.05085714 8.88542165,4.59047619 8.70522792,5.556 L10.8791966,5.5647619 L10.8791966,5.5647619 L10.8791966,5.5647619 Z"></path>
                                <path d="M35.4195214,10.5664762 C34.7472308,10.7971429 34.0928832,10.9087619 33.4001681,10.9087619 C31.1952764,10.9087619 30.0482593,9.61390476 30.0482593,7.144 C30.0482593,4.25904762 31.5108063,2.13085714 33.4925556,2.13085714 C35.1169715,2.13085714 36.1557578,3.32057143 36.1557578,5.18838095 C36.1557578,5.80571429 36.0822678,6.41066667 35.9078006,7.26304762 L31.9891595,7.26304762 C31.9771339,7.38857143 31.9698803,7.45085714 31.9698803,7.52419048 C31.9698803,8.50438095 32.5568462,8.99885714 33.6994729,8.99885714 C34.4038319,8.99885714 35.0421453,8.83504762 35.7480313,8.46647619 L35.4195214,10.5664762 L35.4195214,10.5664762 L35.4195214,10.5664762 Z M34.3116353,5.5647619 C34.3246154,5.38704762 34.3318689,5.24552381 34.3318689,5.13752381 C34.3318689,4.452 33.9829345,4.05085714 33.3999772,4.05085714 C32.7704444,4.05085714 32.323396,4.59047619 32.1412934,5.556 L34.3116353,5.5647619 L34.3116353,5.5647619 L34.3116353,5.5647619 Z"></path>
                                <path d="M62.9173903,10.5664762 C62.2363191,10.7971429 61.5907521,10.9087619 60.8928832,10.9087619 C58.6925726,10.9087619 57.5409744,9.61390476 57.5409744,7.144 C57.5409744,4.25904762 59.0065755,2.13085714 60.9881339,2.13085714 C62.6121681,2.13085714 63.646755,3.32057143 63.646755,5.18838095 C63.646755,5.80571429 63.5791823,6.41066667 63.4045242,7.26304762 L59.4818746,7.26304762 C59.4681311,7.38857143 59.4652678,7.45085714 59.4652678,7.52419048 C59.4652678,8.50438095 60.0539516,8.99885714 61.1967692,8.99885714 C61.9017009,8.99885714 62.537151,8.83504762 63.2445641,8.46647619 L62.9173903,10.5664762 L62.9173903,10.5664762 L62.9173903,10.5664762 Z M61.8096952,5.5647619 C61.8184758,5.38704762 61.8242023,5.24552381 61.8242023,5.13752381 C61.8242023,4.452 61.4796581,4.05085714 60.8928832,4.05085714 C60.2633504,4.05085714 59.8178291,4.59047619 59.6353447,5.556 L61.8096952,5.5647619 L61.8096952,5.5647619 L61.8096952,5.5647619 Z"></path>
                                <path d="M6.14834758,2.59561905 C5.76257265,2.33809524 5.24031624,2.11314286 4.50236182,2.11314286 C3.70580627,2.11314286 3.06482051,2.27790476 3.06482051,3.12361905 C3.06482051,4.61714286 5.96929915,4.05942857 5.96929915,7.25771429 C5.96929915,10.1708571 4.05225926,10.9260952 2.31808547,10.9260952 C1.54653561,10.9260952 0.658928775,10.6714286 0.00477207977,10.3813333 L0.475680912,8.2407619 C0.87042735,8.59847619 1.66679202,8.84361905 2.31808547,8.84361905 C2.93864672,8.84361905 3.91119658,8.67447619 3.91119658,7.59371429 C3.91119658,5.90133333 1.00824501,6.53085714 1.00824501,3.56038095 C1.00824501,0.843047619 2.70405128,0.0291428571 4.33992023,0.0291428571 C5.26112251,0.0291428571 6.12658689,0.164 6.6341453,0.500571429 L6.14834758,2.59561905 L6.14834758,2.59561905 L6.14834758,2.59561905 Z"></path>
                                <path d="M17.7504188,10.5634286 C17.3440285,10.7584762 16.8013476,10.8868571 16.0004017,10.8868571 C14.2782536,10.8868571 13.2102621,9.16914286 13.2102621,7.07790476 C13.2102621,4.34095238 14.7550798,2.15752381 17.0286895,2.15752381 C17.524604,2.15752381 18.2814558,2.37161905 18.8785385,2.71695238 L18.4427521,4.7247619 C18.0201368,4.44761905 17.580151,4.27142857 17.1269943,4.27142857 C16.07351,4.27142857 15.3210484,5.23485714 15.3210484,6.96114286 C15.3210484,7.95504762 15.8667835,8.77028571 16.7291937,8.77028571 C17.2424786,8.77028571 17.6036296,8.66228571 18.0453333,8.40457143 L17.7504188,10.5634286 L17.7504188,10.5634286 L17.7504188,10.5634286 Z"></path>
                                <path d="M25.1208006,8.45828571 C25.0196325,9.18152381 24.9257179,9.88361905 24.8697892,10.6380952 L22.9729829,10.6380952 L23.132943,9.2792381 L23.1136638,9.2792381 C22.5196353,10.2028571 21.9049915,10.831619 20.8310826,10.831619 C19.6401624,10.831619 18.9947863,9.58114286 18.9947863,7.948 C18.9947863,7.38514286 19.0299088,7.06742857 19.1558917,6.18838095 L19.6928462,2.29733333 L21.8038234,2.29733333 L21.2374729,6.19980952 C21.180208,6.61904762 21.0996553,7.03485714 21.0996553,7.46857143 C21.0996553,7.96038095 21.3241339,8.45790476 21.8933476,8.42742857 C22.7586211,8.42742857 23.2692336,7.3712381 23.4144957,6.13885714 L23.9970712,2.29714286 L26.0404758,2.29714286 L25.1208006,8.45828571 L25.1208006,8.45828571 L25.1208006,8.45828571 Z"></path>
                                <g transform="translate(63.945869, 8.761905)">
                                    <polygon points="0.938 1.77466667 0.618843305 1.77466667 0.618843305 0.380380952 0.157287749 0.380380952 0.157287749 0.0817142857 1.39955556 0.0817142857 1.39955556 0.380380952 0.938 0.380380952"></polygon>
                                    <polygon points="3.05413105 1.77466667 2.75597151 1.77466667 2.75597151 0.359428571 2.75177208 0.359428571 2.46678348 1.77466667 2.15411681 1.77466667 1.87580912 0.359428571 1.8714188 0.359428571 1.8714188 1.77466667 1.57402279 1.77466667 1.57402279 0.0817142857 2.03939601 0.0817142857 2.31636752 1.41638095 2.32056695 1.41638095 2.5925755 0.0817142857 3.05413105 0.0817142857"></polygon>
                                </g>
                            </g>
                        </g>
                    </g>
                </g>
            </g>
        </g>
    </g>
</svg>