<?xml version="1.0" encoding="UTF-8" standalone="no"?>
<svg width="55px" height="24px" viewBox="0 0 55 24" version="1.1" xmlns="http://www.w3.org/2000/svg" xmlns:xlink="http://www.w3.org/1999/xlink">
    <!-- Generator: sketchtool 39.1 (31720) - http://www.bohemiancoding.com/sketch -->
    <title>126E0792-65EC-45C8-9F80-59AB998CCA97</title>
    <desc>Created with sketchtool.</desc>
    <defs></defs>
    <g id="Footer" stroke="none" stroke-width="1" fill="none" fill-rule="evenodd">
        <g id="1200-footer" transform="translate(-778.000000, -572.000000)">
            <g id="Group-6" transform="translate(778.000000, 572.000000)">
                <g id="VbyV_en_2c">
                    <path d="M22.3032199,12.7905542 L19.5604188,20.2181205 L19.2678534,18.709012 C18.5848168,16.8584096 17.1058639,14.917012 15.3835864,14.1302169 L17.8928534,23.667759 L20.8591099,23.6663133 L25.2703403,12.7905542 L22.3032199,12.7905542" id="Fill-1" fill="#798195"></path>
                    <polyline id="Fill-2" fill="#798195" points="24.6541099 23.6784578 26.4077749 12.7801446 29.2098953 12.7801446 27.4553665 23.6784578 24.6541099 23.6784578"></polyline>
                    <path d="M37.6214398,13.0487711 C37.0676963,12.829012 36.1940314,12.5901687 35.1101571,12.5901687 C32.3379843,12.5901687 30.3905236,14.0697831 30.373534,16.1861205 C30.3556806,17.7536386 31.7660995,18.6280482 32.8263613,19.1488193 C33.9206021,19.6817349 34.2860209,20.0238072 34.2825654,20.5006265 C34.271911,21.230747 33.4071728,21.5635663 32.6034817,21.5635663 C31.4833246,21.5635663 30.8863874,21.3993253 29.968089,20.9939277 L29.6041099,20.8201446 L29.211911,23.2591807 C29.8675916,23.5627952 31.0778796,23.8259277 32.3359686,23.8395181 C35.2777487,23.8395181 37.1918063,22.3766747 37.214555,20.1177831 C37.2263613,18.8744096 36.4776702,17.9332048 34.8593455,17.156241 C33.8825916,16.6510843 33.2784555,16.316241 33.2873822,15.8041446 C33.2882461,15.3519036 33.7941885,14.8672771 34.8930366,14.8672771 C35.8107592,14.8519518 36.4707592,15.0633253 36.9902356,15.2862651 L37.2401832,15.4111807 L37.6214398,13.0487711" id="Fill-3" fill="#798195"></path>
                    <path d="M44.8085864,12.7914217 L42.6437173,12.7914217 C41.9724869,12.7914217 41.4694241,12.9834217 41.1731152,13.6959036 L37.0132723,23.6819277 L39.9564921,23.6819277 C39.9564921,23.6819277 40.4376702,22.3379277 40.5465183,22.0432771 C40.8675916,22.0432771 43.7261518,22.0499277 44.1341885,22.0499277 C44.2208639,22.4298795 44.4754188,23.6819277 44.4754188,23.6819277 L47.0776963,23.6819277 L44.8085864,12.7914217 L44.8085864,12.7914217 Z M41.352801,19.8141687 C41.5854712,19.1887229 42.4692147,16.7679036 42.4692147,16.7679036 C42.4519372,16.7973976 42.6990052,16.1375422 42.8418325,15.7295422 L43.0284293,16.669012 C43.0284293,16.669012 43.566911,19.2696867 43.6792147,19.8141687 L41.352801,19.8141687 L41.352801,19.8141687 Z" id="Fill-4" fill="#798195"></path>
                    <path d="M17.0160209,12.7850602 L12.4965183,12.7850602 L12.4700262,12.9727229 C15.9839791,13.8751807 18.3026178,16.0912771 19.2678534,18.7119036 L18.2856283,13.7031325 C18.1168848,13.0140723 17.6250524,12.8093494 17.0160209,12.7850602" id="Fill-5" fill="#585F72"></path>
                    <polyline id="Fill-6" fill="#798195" points="4.01931937 10.1514217 2.23225131 10.1514217 0.170759162 0.820626506 2.14586387 0.488963855 3.55628272 7.7913253 7.14884817 0.585542169 9.04591623 0.585542169 4.01931937 10.1514217"></polyline>
                    <path d="M13.3123037,7.10110843 L9.05081152,7.10110843 C8.93447644,8.39855422 9.53486911,8.96472289 10.5522251,8.96472289 C11.4045812,8.96472289 12.1544241,8.64693976 12.9612827,8.13628916 L12.9549476,9.43373494 C12.1636387,9.93079518 11.2490838,10.2482892 10.1767277,10.2482892 C8.32112565,10.2482892 7.09557592,9.1853494 7.46387435,6.7833253 C7.79589005,4.61638554 9.28895288,3.3053494 11.0210209,3.3053494 C13.014267,3.3053494 13.6771466,4.80983133 13.3874607,6.70091566 C13.3664398,6.83884337 13.3269895,7.00453012 13.3123037,7.10110843 L13.3123037,7.10110843 Z M10.8044764,4.45098795 C10.1444764,4.45098795 9.52795812,4.97522892 9.23712042,6.06592771 L11.8762565,6.06592771 C11.9249215,5.03045783 11.6015445,4.45098795 10.8044764,4.45098795 L10.8044764,4.45098795 Z" id="Fill-7" fill="#798195"></path>
                    <path d="M16.0899476,6.28684337 L15.5039529,10.1103614 L13.8545288,10.1103614 L14.8762042,3.44298795 L16.2785602,3.44298795 L16.2794241,4.78207229 C16.8377749,4.00915663 17.5971204,3.36057831 18.6363613,3.3053494 L18.6458639,4.94775904 C17.6043194,5.01686747 16.6673037,5.56886747 16.0899476,6.28684337" id="Fill-8" fill="#798195"></path>
                    <path d="M18.624267,10.1103614 L19.6462304,3.44298795 L21.2956545,3.44298795 L20.2739791,10.1103614 L18.624267,10.1103614 L18.624267,10.1103614 Z M20.6560995,2.32510843 C20.1063874,2.32510843 19.7257068,1.93850602 19.8103665,1.38650602 C19.8970419,0.820626506 20.398377,0.420144578 20.948089,0.420144578 C21.484267,0.420144578 21.862644,0.820626506 21.7759686,1.38650602 C21.6913089,1.93850602 21.1922775,2.32510843 20.6560995,2.32510843 L20.6560995,2.32510843 Z" id="Fill-9" fill="#798195"></path>
                    <path d="M25.8641099,1.62101205 C25.300288,1.62101205 24.9599215,1.86939759 24.8689267,2.4633253 L24.7186126,3.44298795 L25.9833246,3.44298795 L25.9821728,4.79566265 L24.5112827,4.79566265 L23.6966492,10.1103614 L22.0610471,10.1103614 L22.8756806,4.79566265 L21.9133246,4.79566265 L22.1206545,3.44298795 L23.0827225,3.44298795 L23.258377,2.2973494 C23.484712,0.820626506 24.5040838,0.268337349 25.8649738,0.268337349 C26.1537958,0.268337349 26.3694764,0.296096386 26.530445,0.323566265 L26.5428272,1.67624096 C26.3818586,1.64877108 26.138822,1.62101205 25.8641099,1.62101205" id="Fill-10" fill="#798195"></path>
                    <path d="M25.8819634,10.1103614 L26.9039267,3.44298795 L28.5533508,3.44298795 L27.5316754,10.1103614 L25.8819634,10.1103614 L25.8819634,10.1103614 Z M27.9137958,2.32510843 C27.3640838,2.32510843 26.9834031,1.93850602 27.0680628,1.38650602 C27.1547382,0.820626506 27.6560733,0.420144578 28.2057853,0.420144578 C28.7419634,0.420144578 29.1206283,0.820626506 29.0339529,1.38650602 C28.9492932,1.93850602 28.4499738,2.32510843 27.9137958,2.32510843 L27.9137958,2.32510843 Z" id="Fill-11" fill="#798195"></path>
                    <path d="M34.9489005,7.10110843 L30.6874084,7.10110843 C30.5710733,8.39855422 31.171466,8.96472289 32.188822,8.96472289 C33.041178,8.96472289 33.790733,8.64693976 34.5978796,8.13628916 L34.5912565,9.43373494 C33.8002356,9.93079518 32.8853927,10.2482892 31.8130366,10.2482892 C29.9574346,10.2482892 28.7321728,9.1853494 29.1001832,6.7833253 C29.4324869,4.61638554 30.9255497,3.3053494 32.6576178,3.3053494 C34.6508639,3.3053494 35.3137435,4.80983133 35.0240576,6.70091566 C35.0027487,6.83884337 34.9635864,7.00453012 34.9489005,7.10110843 L34.9489005,7.10110843 Z M32.4407853,4.45098795 C31.7807853,4.45098795 31.164267,4.97522892 30.8737173,6.06592771 L33.5128534,6.06592771 C33.5615183,5.03045783 33.2378534,4.45098795 32.4407853,4.45098795 L32.4407853,4.45098795 Z" id="Fill-12" fill="#798195"></path>
                    <path d="M39.8349738,10.1103614 L39.8390052,9.1853494 C39.2846859,9.75151807 38.5627749,10.2482892 37.6415969,10.2482892 C36.2530628,10.2482892 35.2987696,9.21310843 35.6434555,6.96289157 C36.0241361,4.47845783 37.5543455,3.37416867 39.0937696,3.37416867 C39.7264136,3.37416867 40.2182461,3.48462651 40.5954712,3.62255422 L41.0884555,0.40626506 L42.7781937,0.144289157 L41.2508639,10.1103614 L39.8349738,10.1103614 L39.8349738,10.1103614 Z M40.3861257,4.98910843 C40.0034293,4.79566265 39.7019372,4.69908434 39.1384031,4.69908434 C38.2722251,4.69908434 37.5321728,5.40318072 37.3078534,6.86660241 C37.1091623,8.16375904 37.5658639,8.77127711 38.2943979,8.77127711 C38.8991099,8.77127711 39.421466,8.41272289 39.9458377,7.86043373 L40.3861257,4.98910843 L40.3861257,4.98910843 Z" id="Fill-13" fill="#798195"></path>
                    <path d="M46.3039529,10.1731084 C45.5230105,10.1731084 44.886623,10.0473253 44.2940052,9.83855422 L45.3790314,2.76 L46.6587173,2.56106024 L46.1893455,5.6246747 C46.5634031,5.29012048 47.0831675,4.95556627 47.7184031,4.95556627 C48.7803927,4.95556627 49.4916492,5.75045783 49.231911,7.44404819 C48.9468325,9.30506024 47.8036387,10.1731084 46.3039529,10.1731084 L46.3039529,10.1731084 Z M47.2257068,6.06361446 C46.8090314,6.06361446 46.3909162,6.34612048 46.0208901,6.72289157 L45.6698691,9.01243373 C45.9160733,9.10640964 46.0865445,9.14833735 46.440445,9.14833735 C47.2317539,9.14833735 47.7846335,8.66746988 47.9608639,7.51720482 C48.1100262,6.54477108 47.788089,6.06361446 47.2257068,6.06361446 L47.2257068,6.06361446 Z" id="Fill-14" fill="#798195"></path>
                    <path d="M52.1757068,10.3821687 C51.5373037,11.6264096 50.9055236,12.0133012 49.9371204,12.0133012 C49.7182723,12.0133012 49.5967539,11.9921928 49.4870419,11.9609639 L49.4789791,10.9257831 C49.6393717,10.9677108 49.8112827,10.9989398 50.0508639,10.9989398 C50.4154188,10.9989398 50.7324607,10.8318072 50.9449738,10.4657349 L51.1105497,10.1311807 L50.0511518,5.15421687 L51.3786387,4.98708434 L51.9934293,8.58361446 L53.6581152,5.06024096 L54.897199,5.06024096 L52.1757068,10.3821687" id="Fill-15" fill="#798195"></path>
                </g>
            </g>
        </g>
    </g>
</svg>