<?xml version="1.0" encoding="UTF-8" standalone="no"?>
<svg width="26px" height="26px" viewBox="0 0 26 26" version="1.1" xmlns="http://www.w3.org/2000/svg" xmlns:xlink="http://www.w3.org/1999/xlink">
    <!-- Generator: sketchtool 39.1 (31720) - http://www.bohemiancoding.com/sketch -->
    <title>719637CF-8A47-4D6B-B306-37C38C8E795B</title>
    <desc>Created with sketchtool.</desc>
    <defs></defs>
    <g id="Footer" stroke="none" stroke-width="1" fill="none" fill-rule="evenodd">
        <g id="1200-footer" transform="translate(-1231.000000, -26.000000)" stroke-width="0.5" stroke="#D2145A" fill="#D2145A">
            <g id="Group-4">
                <g id="Group-2" transform="translate(1231.000000, 26.000000)">
                    <path d="M14.95,1.00842873 C14.9087051,1.01323987 14.8687048,1.02322388 14.83,1.03838078 C14.78798,1.04797778 14.7479797,1.06295384 14.71,1.08330894 C14.71,1.08330879 14.1239178,1.38552414 13.585,2.05674957 C13.1025583,2.65763268 12.6436621,3.58907854 12.55,4.88721584 C12.5050641,4.88910567 12.4597784,4.89974079 12.415,4.90219185 C12.1000915,3.92167554 11.3067514,3.39395941 10.615,3.16497446 C9.84325619,2.90951035 9.13,2.95531029 9.13,2.95531029 C9.115,2.9546076 9.1,2.9546076 9.085,2.95531029 C8.90016875,2.97540277 8.77028747,3.07039062 8.6953552,3.24027384 C8.62042341,3.41015706 8.63792829,3.56994606 8.74786984,3.71964105 C8.85781187,3.86933605 9.00518886,3.93404738 9.19,3.91377506 C9.19,3.91377506 9.73926328,3.88792969 10.315,4.07851119 C10.7766116,4.23131468 11.2081006,4.48420445 11.44,5.00702394 C6.93516827,5.67621192 3.43506607,9.18283588 3.01,13.5733028 C1.88115066,13.766905 1,14.7145866 1,15.8945847 C1,17.0303009 1.8242036,17.9441959 2.89,18.1859145 C3.51470527,20.558479 4.95699936,22.2767862 6.76,23.3676147 C8.63806744,24.5038592 10.877077,25 13,25 C15.1229229,25 17.3619329,24.5038592 19.24,23.3676147 C21.0430011,22.2767862 22.4852954,20.558479 23.11,18.1859145 C24.1757965,17.9441959 25,17.0303009 25,15.8945847 C25,14.7145866 24.1188488,13.766905 22.99,13.5733028 C22.5320642,8.84333175 18.5018304,5.13414545 13.495,4.90219185 C13.5793695,3.82390642 13.9632666,3.11878547 14.335,2.65579005 C14.7560821,2.13133061 15.13,1.95191748 15.13,1.95191748 C15.4288803,1.88132455 15.5495861,1.69541648 15.4921185,1.39419326 C15.4346518,1.09297001 15.253945,0.964381854 14.95,1.00842874 L14.95,1.00842873 L14.95,1.00842873 Z M12.91,5.8307046 C12.9599997,5.83860072 13.0100003,5.83860072 13.06,5.8307046 C17.9252038,5.86073565 21.8423517,9.48308647 22.09,14.0076072 L22.12,14.4568875 L22.57,14.4568875 L22.6,14.4568875 C23.4008722,14.4568875 24.04,15.0949932 24.04,15.8945847 C24.04,16.657736 23.4560327,17.2634108 22.705,17.3173058 L22.345,17.3472579 L22.27,17.6917061 C21.7504254,19.9685023 20.4371728,21.5351336 18.745,22.55891 C17.0528271,23.5826864 14.9729175,24.0415352 13,24.0415352 C11.0270825,24.0415352 8.94717194,23.5826864 7.255,22.55891 C5.5628276,21.5351336 4.24957458,19.9685023 3.73,17.6917061 L3.655,17.3472579 L3.295,17.3173058 C2.54396786,17.2634108 1.96,16.657736 1.96,15.8945847 C1.96,15.0949932 2.59912769,14.4568875 3.4,14.4568875 L3.43,14.4568875 L3.88,14.4568875 L3.91,14.0076072 C4.14051674,9.79606629 7.55566922,6.36917054 11.95,5.89060865 C12.0584909,5.91721927 12.1634909,5.90723499 12.265,5.86065662 C12.4795044,5.84437029 12.6913867,5.83272878 12.91,5.8307046 L12.91,5.8307046 Z M9.16,13.4984228 C8.36471022,13.4984228 7.72,14.1421015 7.72,14.9361199 C7.72,15.7301383 8.36471022,16.3738171 9.16,16.3738171 C9.95529021,16.3738171 10.6,15.7301383 10.6,14.9361199 C10.6,14.1421015 9.95529021,13.4984228 9.16,13.4984228 L9.16,13.4984228 Z M16.84,13.4984228 C16.0447097,13.4984228 15.4,14.1421015 15.4,14.9361199 C15.4,15.7301383 16.0447097,16.3738171 16.84,16.3738171 C17.6352893,16.3738171 18.28,15.7301383 18.28,14.9361199 C18.28,14.1421015 17.6352893,13.4984228 16.84,13.4984228 L16.84,13.4984228 Z M10.06,19.3390675 C9.84695584,19.3639007 9.71144958,19.4794072 9.65348114,19.685587 C9.5955136,19.8917649 9.65101926,20.0608026 9.81999904,20.1927001 C9.82,20.1927001 11.056492,21.1661409 13,21.1661409 C14.943508,21.1661409 16.18,20.1927001 16.18,20.1927001 C16.3245288,20.0774623 16.3828936,19.9285596 16.3550964,19.7459901 C16.3272983,19.5634206 16.2272494,19.4385595 16.0549499,19.371407 C15.8826504,19.3042544 15.7243338,19.3284186 15.58,19.4438995 C15.58,19.4438995 14.6344122,20.2076762 13,20.2076762 C11.3655878,20.2076762 10.42,19.4438995 10.42,19.4438995 C10.3148508,19.358122 10.1948508,19.3231792 10.06,19.3390675 L10.06,19.3390675 Z" id="Fill-75"></path>
                </g>
            </g>
        </g>
    </g>
</svg>