<?xml version="1.0" encoding="UTF-8"?>
<svg width="12px" height="12px" viewBox="0 0 12 12" version="1.1" xmlns="http://www.w3.org/2000/svg" xmlns:xlink="http://www.w3.org/1999/xlink">
    <!-- Generator: Sketch 40.3 (33839) - http://www.bohemiancoding.com/sketch -->
    <title>Group</title>
    <desc>Created with Sketch.</desc>
    <defs></defs>
    <g id="Wholesale" stroke="none" stroke-width="1" fill="none" fill-rule="evenodd">
        <g id="wholesale_orders_history" transform="translate(-669.000000, -610.000000)">
            <g id="Group-5" transform="translate(55.000000, 484.000000)">
                <g id="Group-6">
                    <g id="Group-15-Copy" transform="translate(612.000000, 124.000000)">
                        <g id="Group-44">
                            <g id="Group-10">
                                <g id="Group-12">
                                    <g id="ic-refresh-18-px">
                                        <g id="Group">
                                            <polygon id="Shape" points="0 0 16 0 16 16 0 16"></polygon>
                                            <path d="M8,12.5 C5.51,12.5 3.5,10.49 3.5,8 C3.5,5.51 5.51,3.5 8,3.5 C9.24,3.5 10.36,4.02 11.17,4.83 L9,7 L14,7 L14,2 L12.24,3.76 C11.15,2.68 9.66,2 8,2 C4.69,2 2.01,4.69 2.01,8 C2.01,11.31 4.69,14 8,14 C10.97,14 13.43,11.84 13.9,9 L12.38,9 C11.92,11 10.14,12.5 8,12.5 L8,12.5 Z" id="Shape" fill="#D2145A"></path>
                                        </g>
                                    </g>
                                </g>
                            </g>
                        </g>
                    </g>
                </g>
            </g>
        </g>
    </g>
</svg>