<?xml version="1.0" encoding="UTF-8" standalone="no"?>
<svg width="32px" height="20px" viewBox="0 0 32 20" version="1.1" xmlns="http://www.w3.org/2000/svg" xmlns:xlink="http://www.w3.org/1999/xlink">
    <!-- Generator: sketchtool 39.1 (31720) - http://www.bohemiancoding.com/sketch -->
    <title>D4AD0719-AB96-4C96-A49D-A289F1F6DB34</title>
    <desc>Created with sketchtool.</desc>
    <defs></defs>
    <g id="Wholesale" stroke="none" stroke-width="1" fill="none" fill-rule="evenodd">
        <g id="wholesale-контентная-страница" transform="translate(-1093.000000, -84.000000)">
            <g id="Group-3">
                <g id="Group-15" transform="translate(1093.000000, 84.000000)">
                    <g id="Group">
                        <path d="M13.2676697,16.3546133 L9.64918236,5.74060247 C9.30083273,4.66603788 8.66142403,3.43377461 6.79521894,3.43377461 C4.88621123,3.43377461 4.23955886,4.75335775 3.92150081,5.73799478 L0.347132634,16.3494005 C0.1067781,17.0375387 0.195017846,17.769338 0.582219151,18.3082491 C0.931885534,18.794376 1.49424934,19.0732815 2.12575616,19.0732815 C3.12931858,19.0732815 3.81021327,18.5076526 4.15000231,17.385518 L4.61161454,15.8150509 L8.95906834,15.8150509 L9.44833797,17.4083254 C9.81710075,18.5135167 10.4887767,19.0732815 11.4436103,19.0732815 C12.0823602,19.0732815 12.6302373,18.8126221 12.986489,18.338877 C13.3809332,17.8143017 13.4882697,17.0805485 13.2676697,16.3546133 L13.2676697,16.3546133 Z M5.67378394,12.5568203 L6.79587771,9.02229189 L7.93706766,12.5568203 L5.67378394,12.5568203 L5.67378394,12.5568203 Z" id="Fill-134" fill="#FF3D00"></path>
                        <path d="M26.4048548,19.7249277 C21.9125308,19.7249277 18.6516115,16.4315076 18.6516115,11.8947473 C18.6516115,7.36971778 21.9125308,4.08542073 26.4048548,4.08542073 C28.0511187,4.08542073 29.4557106,4.4627241 30.6449715,5.27337155 C31.4371556,5.81488909 31.8217226,6.43134697 31.8217226,7.15793226 C31.8217226,8.14191804 31.0822202,8.88283916 30.1010483,8.88283916 C29.4333237,8.88283916 28.941419,8.58503636 28.5463166,8.34523059 C27.9411509,7.96401819 27.3379595,7.74636741 26.4470011,7.74636741 C24.1468412,7.74636741 22.6019867,9.41392984 22.6019867,11.8947461 C22.6019867,14.3879443 24.1474993,16.063326 26.4470011,16.063326 C27.4176376,16.063326 27.93259,15.8606634 28.543684,15.4872715 C28.9262766,15.2416016 29.4175207,14.9268554 30.0799776,14.9268554 C31.0565425,14.9268554 31.8217251,15.6938417 31.8217251,16.6732672 C31.8217251,17.408323 31.4272809,18.0260847 30.6153424,18.5623882 C29.5195883,19.3202565 28.0596796,19.7249277 26.4048548,19.7249277 L26.4048548,19.7249277 Z" id="Fill-136" fill="#689F38"></path>
                        <path d="M15.5829757,15.8150509 L12.0856522,15.8150509 C10.9299755,15.8150509 10.0910393,15.0011445 10.0910393,13.8796623 L10.0910393,2.08942879 C10.0910393,0.9803267 10.9299755,0.175544 12.0856522,0.175544 L15.226724,0.175544 C20.0792511,0.175544 21.0979597,2.68307795 21.0979597,4.78594077 C21.0979597,5.87093215 20.6857357,6.83797454 19.9179179,7.59323266 C21.2178072,8.37781361 21.9441393,9.58075281 21.9441393,11.0085095 C21.9441393,14.1983163 19.8039963,15.8150509 15.5829757,15.8150509 L15.5829757,15.8150509 Z M14.0809245,12.2277396 L15.7838201,12.2277396 C17.7468245,12.2277396 17.9094764,11.609979 17.9094764,10.9211896 C17.9094764,10.5432349 17.9094764,9.65829961 15.7614307,9.65829961 L14.0809245,9.65829961 L14.0809245,12.2277396 L14.0809245,12.2277396 Z M14.0420727,6.0403591 L15.3663271,6.0403591 C16.8822069,6.0403591 17.1298046,5.41543066 17.1298046,4.73706686 C17.1298046,4.07173616 16.9421307,3.43377461 15.1437514,3.43377461 L14.0420727,3.43377461 L14.0420727,6.0403591 L14.0420727,6.0403591 Z" id="Fill-137" fill="#FFC000"></path>
                    </g>
                </g>
            </g>
        </g>
    </g>
</svg>