<?xml version="1.0" encoding="utf-8"?><svg viewBox="0 0 561 345" xmlns="http://www.w3.org/2000/svg" xmlns:xlink="http://www.w3.org/1999/xlink"><style>:root>svg{display:none}:root>svg:target{display:block}</style><svg viewBox="0 0 229 72" id="logo" xmlns="http://www.w3.org/2000/svg"><path fill="#FFF" fill-rule="evenodd" d="M86.779 22.18c2.432 0 5.123.315 7.996.938l.79.171-.173.785-1.463 6.672-.172.785-.79-.171c-2.074-.45-4.355-.708-6.256-.708-3.085 0-4.934.434-5.201 1.565-.33 1.393-.49 1.982 3.782 4.114 3.702 1.847 10.272 5.324 8.8 13.227-.703 3.773-2.917 6.604-6.378 8.455-2.865 1.531-6.658 2.34-10.97 2.34a39.91 39.91 0 01-7.668-.769l-.793-.156.157-.788 1.331-6.7.157-.787.793.156c.123.024 3.057.593 6.306.593 3.615 0 7.827.061 8.51-3.269.414-2.02.353-2.967-4.052-5.164-3.584-1.79-10.256-4.717-8.309-12.966 1.267-5.368 6.098-8.324 13.603-8.324zm90.581 1.076h7.162l-.208.97-7.456 34.838-.136.637h-5.645l-.217-.467-8.499-18.334-.025-.053-.016-.056-.604-2.037-.151 1.874-.005.052-.01.05-3.827 18.086-.136.638h-7.817l.208-.971 7.456-34.838.136-.636h5.645l.217.468 8.549 18.481.026.056.017.06.5 1.75.103-1.582.004-.059.012-.057 3.927-18.235.137-.635h.653zm-52.233 7.636h-8.989l-5.977 27.925-.137.637h-8.112l.206-.97 5.858-27.592h-9.644l.208-.971 1.292-6.029.137-.636h27.39l-.198.965-1.243 6.028-.132.643h-.66zM55.025 37.34H67.01l-.218.976-1.342 6.029-.14.63H53.434l-1.49 6.843h13.36l-.2.965-1.242 6.028-.132.643H42.242l.206-.97 7.356-34.59.136-.638h21.237l-.208.971-1.292 6.029-.137.636H56.417l-1.392 6.448zm138.537-23.692H43.155L30.429 71.974 8.252 31.724H0l1.905-8.837h11.839L26.6 46.685 35.75 4.81h159.741l1.02-4.669 29.566 8.315 2.894.814-2.915.737-32.364 8.193-1.19.3 1.06-4.853zm-61.465 31.104h4.822l-.704-6.824-.005-.044v-.045l.014-1.414-.632 1.743-.02.053-.026.05-3.449 6.48zm9.749-21.041l4.474 34.837.116.905h-8.09l-.091-.7-.903-6.959h-8.945l-3.897 7.235-.229.424h-8.763l.663-1.192 19.385-34.838.23-.414h5.96l.09.702z"/></svg><svg viewBox="0 0 561 345" id="map" xmlns="http://www.w3.org/2000/svg"><defs><path id="ba" d="M81.696 429.225c.54-3.471-.522-6.402-3.003-8.854-.795-.787-1.05-1.725-.967-2.833.207-2.778.349-5.562.531-8.342.026-.386.01-.862.222-1.133 1.588-2.03.133-3.595-.57-5.428-1.72-4.486-5.517-7.863-6.55-12.713-.423-1.985-.981-3.893-.335-5.902.215-.67.157-1.283-.25-1.846-1.17-1.617-.965-3.11.288-4.599.499-.592.729-1.363.842-2.15.402-2.785 3.229-4.017 5.5-2.309 1.043.784 1.96 1.655 3.33 1.867.72.112 1.124.798 1.163 1.428.275 4.46 4.089 5.872 7.001 7.958 1.095.784 2.202 1.567 3.29 2.375 1.796 1.336 3.437 2.568 6.106 2.21 1.535-.206 3.55-.231 5.235.803 1.492.915 2.846-.471 4.082-.98 7.102-2.917 12.652-7.782 16.902-14.146.575-.861 1.179-1.717 1.87-2.485 1.303-1.446 2.143-3.058 2.3-5.025.183-2.285 1.242-4.175 2.722-5.896 1.312-1.527 2.294-3.222 3.01-5.16.98-2.646 3.038-4.315 5.937-4.724 4.321-.61 8.659-1.766 12.355-3.751 3.314-1.779 6.66-2.283 10.1-3.035 1.327-.29 2.46-.132 3.379.89 2.175 2.42 5.049 3.065 8.112 3.161 3.365.105 6.526.998 9.63 2.216 4.225 1.657 8.487 3.2 11.552 6.839 1.152 1.368 2.839 1.474 4.508 1.246 1.632-.224 3.07.057 4.36 1.163.988.848 1.907.82 3.124-.001 2.348-1.584 4.666-3.27 7.415-4.206 1.153-.393 2.239-1.026 3.296-1.65 2.038-1.206 3.76-2.607 4.394-5.14.433-1.73 1.419-3.327 2.19-4.968 2.071-4.404 2.56-9.188 3.361-13.893.294-1.728.524-3.487 1.195-5.097 2.441-5.86 1.274-11.889.888-17.862-.152-2.35.324-4.843-1.051-7.023-1.03-1.63-1.528-3.43-1.663-5.327-.224-3.168-.378-6.342-.608-9.51-.08-1.107.416-1.538 1.453-1.544 1.49-.008 3.011-.168 4.218 1.003.045.044.11.08.171.091 4.253.784 7.187 3.895 10.7 5.987 2.232 1.33 4.578 2.338 7.262 2.614 2.108.216 4.146 1.12 6.097 1.89 4.264 1.681 8.454 1.41 12.6.13 4.4-1.358 8.5-1.227 12.63.905 2.803 1.447 5.988 1.337 9.003 1.054 4.193-.393 8.187-.293 12.197 1.275 2.87 1.122 6.057.482 9.101.649 5.895.322 11.633 1.626 17.41 2.688.064.012.128.04.191.04 9.525.038 18.985 2.565 28.534.964 3.88-.651 7.62-2.051 11.569-2.526 3.4-.41 6.66-1.665 10.125-1.745.257-.005.54-.033.763-.144 5.53-2.76 11.526-3.254 17.554-3.654 3.297-.22 6.068-1.92 8.653-3.713 6.327-4.388 13.21-7.716 20.257-10.672 4.267-1.79 8.952-2.226 13.573-2.391 4.415-.158 8.944.085 13.172-1 3.688-.945 7.6-2.06 10.868-3.74 4.364-2.242 8.997-2.75 13.455-4.175.855-.273 1.792-.335 2.552-.858 3-2.061 6.41-3.443 9.333-5.634.511-.383 1.114-.711 1.726-.884 4.35-1.23 8.105-3.59 11.8-6.072 2.295-1.54 4.772-2.655 7.542-2.94 1.02-.105 1.626-.552 2.184-1.366 3.395-4.946 7.17-9.536 12.27-12.881.925-.607 1.687-1.375 1.611-2.687-.15-2.59 1.926-4.14 4.157-2.693 3.796 2.462 7.262.593 10.851-.107.894-.174 1.658-.782 2.182-1.555 1.123-1.655 2.774-2.329 4.662-2.42 5.733-.28 10.083-3.42 14.61-6.493 3.285-2.23 5.662-4.707 7.644-8.26 1.506-2.7 4.83-5.058 8.88-3.994 2.351.618 4.375-.278 5.78-1.97 2.739-3.297 6.374-4.32 10.352-4.617 3.99-.297 7.508-1.942 11.054-3.552a2.132 2.132 0 001.26-1.636c.253-1.56 1.188-1.976 2.503-1.453 2.115.842 3.26.09 3.954-1.94.468-1.366 1.559-2.16 2.948-2.61 3.614-1.174 7.307-1.81 11.113-1.754 1.178.018 2.167.393 1.188 1.684-1.944 2.563-2.063 5.568-2.214 8.513-.18 3.504-2.317 5.228-5.214 6.278-7.096 2.572-14.01 5.648-20.533 9.331-4.819 2.721-9.092 6.536-12.872 10.707-1.23 1.357-1.963 3.086-2.356 4.86-.228 1.03-.701 1.728-1.437 2.413-3.533 3.287-7.256 6.19-11.816 8.08-4.042 1.676-6.833 5.05-9.587 8.375-3.674 4.435-8.339 7.553-13.866 9.148-2.522.727-4.612 2.05-6.673 3.482-1.862 1.292-3.57 2.805-5.33 4.24a3.644 3.644 0 01-1.758.775c-2.367.394-4.404 1.513-6.32 2.89-3.719 2.671-7.148 5.752-11.341 7.754-1.004.48-1.457 1.632-1.922 2.633-1.096 2.358-2.351 4.375-4.772 5.871-3.005 1.858-5.034 4.843-6.113 8.31-.52 1.67-.957 3.363-1.458 5.037-.974 3.253-2.554 4.492-5.922 4.45-2.384-.028-4.68.087-6.648 1.663-.537.43-1.227.417-1.876.386-1.103-.053-2.24-.009-3.299-.268-3.405-.832-6.452-.293-9.376 1.705-1.652 1.128-3.082 2.257-3.852 4.18-.921 2.304-2.488 4.2-4.052 6.132-2.933 3.622-4.805 7.782-5.299 12.482-.128 1.222-.102 2.513-.507 3.644-1.353 3.78-.495 7.372 1.015 10.768 2.845 6.399 6.148 12.539 10.664 18.008 1.019 1.234 1.238 3.222 2.423 4.614a145.818 145.818 0 008.059 8.73c4.922 4.908 9.328 10.268 13.805 15.57 1.658 1.963 2.63 4.145 2.707 6.707.043 1.472.536 2.788 1.313 4.014.738 1.165 1.263 2.35 1.222 3.81-.03 1.08.434 1.887 1.858 1.984 1.516.104 2.36.974 1.717 2.688-.245.652-.31 1.362-.58 2.035-.314.787-.493 1.466-1.55 1.587-1.091.126-1.557-.513-1.96-1.256-.476-.876-1.027-1.225-2.036-.802-1.303.548-2.468-.022-3.424-.826-2.972-2.5-6.206-4.246-10.247-3.987a1.562 1.562 0 01-.756-.152c-5.635-2.771-11.308-2.356-17.012-.237-1.702.632-3.43 1.194-5.13 1.832-2.087.782-3.281 2.479-4.287 4.33-.96 1.768-2.086 3.29-4.319 3.5-.308.028-.665.164-.888.37-2.394 2.205-4.538 1.273-6.805-.33-7.229-5.113-15.574-6.905-24.181-7.746-4.401-.43-8.838-.612-13.13.824-4.565 1.527-8.014 4.052-10.45 8.582-2.455 4.566-2.337 8.942-1.608 13.63.13.836.141 1.686-.124 2.506-1.113 3.449-2.224 6.898-3.364 10.338-.182.547-.411 1.135-.789 1.551-2.308 2.547-3.67 5.61-5.027 8.706-1.057 2.413-2.193 2.95-4.613 1.806-3.58-1.69-6.79-.985-10.027.776-1.64.892-2.793 2.1-3.781 3.744-2.122 3.533-5.584 5.441-9.415 6.75-4.661 1.594-9.315 3.21-13.953 4.871-1.7.61-2.875 1.98-4.123 3.206-1.1 1.08-2.248 1.697-3.929 1.744-2.118.058-3.806 1.586-5.47 2.733-3.458 2.381-7.23 3.674-11.32 4.42-2.941.535-5.811 1.2-8.847.846-1.94-.227-3.184 1.323-4.073 2.635-2.132 3.146-5.251 3.104-8.289 2.723-7.37-.925-14.722-1.604-22.167-1.176-2.065.12-3.919.673-5.828 1.309-4.868 1.622-9.763 3.191-14.32 5.57-4.718 2.465-8.642 6.073-10.961 10.747-2.712 5.464-3.787 11.3.507 16.822 1.43 1.839 2.424 3.984 2.968 6.292.232.982.363 2.07-.375 2.763-.8.752-1.696-.045-2.51-.377-.359-.147-.769-.28-1.027-.546-3.644-3.742-7.998-2.17-12.322-1.975-2.467.111-4.445.88-6.544 1.804-.559.247-1.28.203-1.921.175-1.398-.061-2.107-.799-1.604-2.178 1.88-5.153.472-9.616-2.171-14.205-1.576-2.736-2.845-5.582-5.07-7.912-3.114-3.262-6.225-6.163-11.363-5.353-4.165.656-8.578.233-12.57 1.373-5.813 1.66-11.873 2.036-17.59 3.878-3.255 1.05-6.113.748-8.937-.954-2.404-1.45-4.766-2.98-7.803-1.945-.325.11-.87.045-1.122-.165-3.52-2.94-8.25-3.34-12.03-5.74-2.518-1.598-5.207-2.937-7.36-5.062-1.552-1.532-3.38-2.21-5.609-2.26-2.64-.058-5.25-.518-7.433-2.268-.651-.522-1.478-.401-2.26-.237-2.272.476-4.248-.122-5.94-1.675-1.724-1.58-3.4-3.213-5.154-4.757-1.554-1.367-3.332-2.342-5.194-3.31-2.687-1.397-4.834-3.72-7.533-5.268-1.234-.707-1.382-2.54-1.498-4.068-.202-2.672-.002-5.402-2.323-7.537-1.298-1.193-.658-2.938-.153-4.414.436-1.271.668-2.49.054-3.76-.268-.55-.305-1.17-.06-1.706.959-2.089-.223-3.3-1.74-4.385-.42-.3-1.038-.442-1.298-.833-1.539-2.31-3.464-3.714-6.425-3.268-.587.089-1.117-.432-1.217-1.07-.387-2.469-2.013-4.31-3.145-6.41-1.685-3.124-3.554-6.236-2.72-10.054"/></defs><use fill="#4C3F67" fill-rule="evenodd" transform="translate(-70 -191)" xlink:href="#ba"/></svg><svg viewBox="0 0 116 46" id="streaming" xmlns="http://www.w3.org/2000/svg"><g fill="#FFF" fill-rule="evenodd"><path d="M102.14 25.364c6.948 0 12.58-5.678 12.58-12.682C114.72 5.678 109.089 0 102.14 0S89.559 5.678 89.559 12.682c0 7.004 5.633 12.682 12.58 12.682zm0-2.149c-5.77 0-10.449-4.716-10.449-10.533 0-5.817 4.678-10.533 10.449-10.533 5.77 0 10.448 4.716 10.448 10.533 0 5.817-4.678 10.533-10.448 10.533z" fill-rule="nonzero"/><path d="M107.044 12.682l-7.25 4.514V8.168z"/><path d="M1.28 25.364V0h6.985v19.204H20.47v6.16H1.279zm22.176 0V0h6.823v25.364h-6.823zm19.583 0L32.84 0h7.794l5.71 15.938L52.056 0h7.65l-10.2 25.364h-6.466zm18.8 0V0h20.29v5.979H68.758v3.84h12.11v5.545h-12.11v4.022h13.551v5.979h-20.47zM6.18 46c-2.337 0-4.56-.741-6.181-2.204l2.035-2.451c1.3 1.045 2.752 1.596 4.278 1.596.98 0 1.508-.342 1.508-.95 0-.551-.433-.855-2.224-1.273C2.79 40.072.622 39.273.622 36.499c0-2.47 1.941-4.256 5.107-4.256 2.243 0 3.995.608 5.428 1.767l-1.828 2.603c-1.207-.855-2.526-1.31-3.694-1.31-.886 0-1.32.38-1.32.892 0 .608.453.874 2.281 1.292 3.034.665 4.919 1.653 4.919 4.18 0 2.718-2.13 4.333-5.334 4.333zm10.551-.43V35.48h-3.938v-3.237h11.515v3.237H20.37v10.09h-3.639zm9.283 0V32.243h6.137c1.984 0 3.356.533 4.228 1.428.76.78 1.15 1.809 1.15 3.16 0 2.038-1.057 3.39-2.67 4.094l3.096 4.645h-4.154l-2.614-4.036h-1.576v4.036h-3.597zm3.412-6.878h2.353c1.213 0 1.911-.574 1.911-1.523 0-.985-.735-1.487-1.93-1.487h-2.334v3.01zm9.808 6.878V32.243h10.568v3.141H42.84v2.018h6.307v2.913H42.84v2.114h7.058v3.141H39.235zm11.515 0l5.519-13.327h3.463L65.25 45.57h-3.852l-.944-2.363h-5l-.926 2.363H50.75zm5.97-5.159h2.986l-1.483-3.869-1.502 3.87zm9.81 5.16V32.242h3.877l3.16 5.16 3.158-5.16h3.878V45.57h-3.65v-7.654l-3.387 5.217h-.075l-3.367-5.178v7.615H66.53zm16.205 0V32.242h3.838V45.57h-3.838zm6.397 0V32.242h3.387l5.389 7.044v-7.044h3.592V45.57h-3.18l-5.595-7.31v7.31h-3.593zm21.19.429c-4.072 0-7.116-2.834-7.116-6.878 0-3.856 2.988-6.879 7.041-6.879 2.298 0 3.923.718 5.305 1.927l-2.13 2.59c-.933-.794-1.867-1.248-3.156-1.248-1.886 0-3.343 1.606-3.343 3.666 0 2.135 1.475 3.666 3.548 3.666.878 0 1.55-.189 2.092-.548V40.69h-2.577v-2.683H116v5.952A8.778 8.778 0 01110.322 46z" fill-rule="nonzero"/></g></svg></svg>