<svg width="96" height="96" fill="none" xmlns="http://www.w3.org/2000/svg"><path d="M46.002 19.75c-2.766 0-4.781.063-6.11.126-.33.016-.66.032-.99.051a.97.97 0 0 0-.9 1.075c.055.549.544.95 1.094.918.297-.018.594-.032.89-.046 1.297-.062 3.28-.124 6.016-.124 2.734 0 4.719.062 6.014.124.296.014.592.028.887.046.557.033 1.05-.314 1.107-.87.057-.552-.352-1.088-.908-1.122-.33-.02-.66-.036-.99-.052-1.33-.063-3.345-.126-6.11-.126ZM85 44a1 1 0 0 0-1 1v8a1 1 0 1 0 2 0v-8a1 1 0 0 0-1-1ZM6 45a1 1 0 1 1 2 0v8a1 1 0 1 1-2 0v-8Z" fill="#FFDDF6"/><path fill-rule="evenodd" clip-rule="evenodd" d="M22 49c0-6.075 4.925-11 11-11h1a9 9 0 0 1 9 9c0 6.627-5.373 12-12 12a9 9 0 0 1-9-9v-1Zm11-9a9 9 0 0 0-9 9v1a7 7 0 0 0 7 7c5.523 0 10-4.477 10-10a7 7 0 0 0-7-7h-1ZM59 38c6.075 0 11 4.925 11 11v1a9 9 0 0 1-9 9c-6.627 0-12-5.373-12-12a9 9 0 0 1 9-9h1Zm9 11a9 9 0 0 0-9-9h-1a7 7 0 0 0-7 7c0 5.523 4.477 10 10 10a7 7 0 0 0 7-7v-1Z" fill="#FFDDF6"/><path fill-rule="evenodd" clip-rule="evenodd" d="M46 24c-5.771 0-11.27.494-16.05 1.154l-.523.072c-4.299.592-7.508 1.034-10.85 3.134-2.794 1.754-5.6 4.975-6.956 7.982-1.625 3.601-1.623 7.29-1.62 12.288v4.22c-.002 3.349-.003 5.874.623 8.065a16.202 16.202 0 0 0 11.128 11.128c2.19.626 4.716.625 8.064.623h.645c3.184 0 6.136-1.34 8.276-2.31l.066-.031.583-.264c2.494-1.118 4.45-1.873 6.614-1.873 2.185 0 4.246.77 6.779 1.885l.61.27.017.008c1.024.454 2.181.968 3.308 1.371 1.386.496 3.034.944 4.825.944h.645c3.348.002 5.874.003 8.065-.623a16.202 16.202 0 0 0 11.127-11.128c.626-2.19.625-4.716.624-8.064V48.63c.002-4.997.004-8.687-1.62-12.288-1.357-3.007-4.163-6.228-6.956-7.982-3.343-2.1-6.552-2.542-10.85-3.134l-.523-.072C57.27 24.494 51.77 24 46 24Zm-15.777 3.135C34.933 26.485 40.34 26 46 26c5.66 0 11.066.485 15.777 1.135l.418.057c4.411.608 7.214 1.008 10.165 2.861 2.46 1.545 5.002 4.463 6.196 7.111 1.43 3.172 1.446 6.436 1.444 11.615v3.938c.001 3.516-.006 5.758-.547 7.649A14.202 14.202 0 0 1 69.7 70.12c-1.89.54-4.132.548-7.648.546h-.512c-1.466 0-2.867-.368-4.151-.827-1.051-.376-2.146-.861-3.187-1.324h-.002l-.615-.273c-2.535-1.116-4.939-2.054-7.584-2.054-2.635 0-4.94.93-7.432 2.048l-.591.268c-2.206 1-4.799 2.162-7.516 2.162h-.512c-3.516.002-5.757-.006-7.648-.546a14.202 14.202 0 0 1-9.754-9.754c-.54-1.891-.548-4.133-.547-7.649V48.78c-.002-5.18.013-8.444 1.444-11.616 1.194-2.648 3.737-5.566 6.196-7.11 2.95-1.854 5.754-2.254 10.165-2.861l.418-.058Z" fill="#FFDDF6"/></svg>