<svg width="96" height="96" fill="none" xmlns="http://www.w3.org/2000/svg"><path d="M76 35a2 2 0 1 0 0-4 2 2 0 0 0 0 4Z" fill="#FFDDF6"/><path fill-rule="evenodd" clip-rule="evenodd" d="M38 48a6 6 0 1 1-12 0 6 6 0 0 1 12 0Zm-2 0a4 4 0 1 1-8 0 4 4 0 0 1 8 0Z" fill="#FFDDF6"/><path fill-rule="evenodd" clip-rule="evenodd" d="M32 59c6.075 0 11-4.925 11-11s-4.925-11-11-11-11 4.925-11 11 4.925 11 11 11Zm0-2a9 9 0 1 0 0-18 9 9 0 0 0 0 18ZM62 54a6 6 0 1 0 0-12 6 6 0 0 0 0 12Zm0-2a4 4 0 1 0 0-8 4 4 0 0 0 0 8Z" fill="#FFDDF6"/><path fill-rule="evenodd" clip-rule="evenodd" d="M73 48c0 6.075-4.925 11-11 11s-11-4.925-11-11 4.925-11 11-11 11 4.925 11 11Zm-2 0a9 9 0 1 1-18 0 9 9 0 0 1 18 0Z" fill="#FFDDF6"/><path fill-rule="evenodd" clip-rule="evenodd" d="M12 36.2c0-3.92 0-5.88.763-7.378a7 7 0 0 1 3.06-3.059C17.318 25 19.28 25 23.2 25h49.6c3.92 0 5.88 0 7.378.763a7 7 0 0 1 3.059 3.06C84 30.318 84 32.28 84 36.2v23.6c0 3.92 0 5.88-.763 7.378a7 7 0 0 1-3.06 3.059C78.68 71 76.72 71 72.8 71H23.2c-3.92 0-5.88 0-7.378-.763a7 7 0 0 1-3.059-3.06C12 65.68 12 63.72 12 59.8V36.2ZM23.2 27h49.6c1.993 0 3.368.002 4.435.089 1.043.085 1.615.242 2.035.456a5 5 0 0 1 2.185 2.185c.214.42.371.992.456 2.035.087 1.067.089 2.442.089 4.435v23.6c0 1.993-.002 3.368-.089 4.435-.085 1.043-.242 1.615-.456 2.035a5 5 0 0 1-2.185 2.185c-.42.214-.992.371-2.035.456-1.067.087-2.442.089-4.435.089H23.2c-1.993 0-3.368-.002-4.435-.089-1.043-.085-1.615-.242-2.035-.456a5 5 0 0 1-2.185-2.185c-.214-.42-.371-.992-.456-2.035C14.002 63.168 14 61.793 14 59.8V36.2c0-1.993.002-3.368.089-4.435.085-1.043.242-1.615.456-2.035a5 5 0 0 1 2.185-2.185c.42-.214.992-.371 2.035-.456C19.832 27.002 21.207 27 23.2 27Z" fill="#FFDDF6"/></svg>