<svg width="96" height="96" fill="none" xmlns="http://www.w3.org/2000/svg"><path d="M39 39a2 2 0 1 1-4 0 2 2 0 0 1 4 0ZM43 41a2 2 0 1 0 0-4 2 2 0 0 0 0 4ZM51 39a2 2 0 1 1-4 0 2 2 0 0 1 4 0ZM46 51a1 1 0 1 0 0 2h16v.5a2.5 2.5 0 0 0 5 0V53h5a1 1 0 1 0 0-2h-5v-.5a2.5 2.5 0 0 0-5 0v.5H46ZM45 62a1 1 0 0 1 1-1h5v-.5a2.5 2.5 0 0 1 5 0v.5h16a1 1 0 1 1 0 2H56v.5a2.5 2.5 0 0 1-5 0V63h-5a1 1 0 0 1-1-1Z" fill="#FFDDF6"/><path fill-rule="evenodd" clip-rule="evenodd" d="M66 32h14c2.8 0 4.2 0 5.27.545a5 5 0 0 1 2.185 2.185C88 35.8 88 37.2 88 40v28c0 2.8 0 4.2-.545 5.27a5 5 0 0 1-2.185 2.185C84.2 76 82.8 76 80 76H38c-2.8 0-4.2 0-5.27-.545a5 5 0 0 1-2.185-2.185C30 72.2 30 70.8 30 68v-4H16c-2.8 0-4.2 0-5.27-.545a5 5 0 0 1-2.185-2.185C8 60.2 8 58.8 8 56V28c0-2.8 0-4.2.545-5.27a5 5 0 0 1 2.185-2.185C11.8 20 13.2 20 16 20h42c2.8 0 4.2 0 5.27.545a5 5 0 0 1 2.185 2.185C66 23.8 66 25.2 66 28v4Zm-8-10H16c-1.433 0-2.388.002-3.121.061-.71.058-1.035.161-1.241.266a3 3 0 0 0-1.311 1.311c-.105.206-.207.53-.265 1.24-.06.734-.062 1.689-.062 3.122v28c0 1.433.002 2.388.062 3.121.058.71.16 1.035.265 1.241a3 3 0 0 0 1.311 1.311c.206.105.53.207 1.24.265.734.06 1.689.062 3.122.062h14V40c0-2.8 0-4.2.545-5.27a5 5 0 0 1 2.185-2.185C33.8 32 35.2 32 38 32h26v-4c0-1.433-.002-2.388-.062-3.121-.058-.71-.16-1.035-.265-1.241a3 3 0 0 0-1.311-1.311c-.206-.105-.53-.208-1.24-.266C60.387 22.002 59.432 22 58 22Zm22 12H38c-1.433 0-2.388.002-3.121.062-.71.058-1.035.16-1.241.265a3 3 0 0 0-1.311 1.311c-.105.206-.207.53-.265 1.24-.06.734-.062 1.689-.062 3.122v28c0 1.433.002 2.388.062 3.121.058.71.16 1.035.265 1.241a3 3 0 0 0 1.311 1.311c.206.105.53.207 1.24.266.734.06 1.689.061 3.122.061h42c1.433 0 2.388-.002 3.121-.061.71-.058 1.035-.161 1.241-.266a3 3 0 0 0 1.311-1.311c.105-.206.207-.53.266-1.24.06-.734.061-1.689.061-3.122V40c0-1.433-.002-2.388-.061-3.121-.058-.71-.161-1.035-.266-1.241a3 3 0 0 0-1.311-1.311c-.206-.105-.53-.207-1.24-.265C82.387 34.002 81.432 34 80 34Z" fill="#FFDDF6"/></svg>