<svg width="96" height="96" fill="none" xmlns="http://www.w3.org/2000/svg"><path fill-rule="evenodd" clip-rule="evenodd" d="M59.557 25a15.787 15.787 0 0 0-11.706 5.168 1.54 1.54 0 0 1-2.307-.045 8.875 8.875 0 0 0-6.789-3.141 8.908 8.908 0 0 0-8.808 7.576 1.528 1.528 0 0 1-1.243 1.28C20.348 37.31 14 44.608 14 53.386c0 9.842 7.979 17.82 17.82 17.82h39.954C77.42 71.207 82 66.63 82 60.981c0-4.582-3.014-8.463-7.17-9.762a10.125 10.125 0 0 0-.598-.167c-.978-.241-1.49-1.37-.968-2.27a15.771 15.771 0 0 0 2.132-7.942c0-8.748-7.091-15.84-15.84-15.84Zm-12.634 3.244A17.787 17.787 0 0 1 59.557 23c9.852 0 17.84 7.987 17.84 17.84a17.766 17.766 0 0 1-2.113 8.426l.142.044C80.393 50.863 84 55.5 84 60.98c0 6.753-5.474 12.226-12.226 12.226H31.82C20.874 73.207 12 64.334 12 53.387c0-9.65 6.894-17.686 16.024-19.458.923-5.089 5.375-8.948 10.73-8.948a10.876 10.876 0 0 1 7.972 3.464c.065-.068.13-.134.197-.2Z" fill="#FFDDF6"/></svg>