<svg width="139" height="20" fill="none" xmlns="http://www.w3.org/2000/svg"><path d="M9.034 0H0v20h9.034V0ZM11.242 20h8.925V8.952L26.241 20h4.435l6.106-11.048V20h9.007V0H34.201l-5.485 9.92L23.367 0H11.242v20ZM56.925 20H48V0h12.125l5.35 9.92L70.96 0h11.586v20H73.54V8.952L67.434 20H63L56.925 8.952V20ZM84.758 0v20h23.363v-5.35H93.683v-2.177h14.089V7.26h-14.09V5.295h14.303V0H84.758Z" fill="#FFDDF6"/><path fill-rule="evenodd" clip-rule="evenodd" d="M138.573 14.813v3.01h.004c0 1.181.159 1.666.376 2.014V20h-9.301c-.163-.158-.19-.403-.19-.806V16.8c0-2.15-1.023-3.412-3.951-3.412h-6.427V20h-9.061V0h20.349c5.001 0 8.119 1.426 8.119 5.083v.267c0 2.987-2.688 4.168-4.354 4.57 2.825.566 4.436 2.313 4.436 4.893ZM127.122 8.12c1.503 0 2.042-.62 2.042-1.452v-.023c0-.833-.535-1.453-2.042-1.453h-8.038V8.12h8.038Z" fill="#FFDDF6"/></svg>