<?xml version="1.0" encoding="utf-8"?><svg viewBox="0 0 40 40" xmlns="http://www.w3.org/2000/svg" xmlns:xlink="http://www.w3.org/1999/xlink"><style>:root>svg{display:none}:root>svg:target{display:block}</style><svg viewBox="0 0 14 8" id="arrow-2-down" xmlns="http://www.w3.org/2000/svg"><path fill-rule="evenodd" clip-rule="evenodd" d="M7 5.586L2.414 1A1 1 0 101 2.414l5.293 5.293a1 1 0 001.414 0L13 2.414A1 1 0 0011.586 1L7 5.586z"/></svg><svg viewBox="0 0 14 14" id="arrow-right" xmlns="http://www.w3.org/2000/svg"><path fill-rule="evenodd" clip-rule="evenodd" d="M7 1a1 1 0 011.414 0l5.293 5.293a1 1 0 010 1.414L8.414 13A1 1 0 017 11.586L10.586 8H1a1 1 0 010-2h9.586L7 2.414A1 1 0 017 1z"/></svg><svg viewBox="0 0 40 40" id="burger" xmlns="http://www.w3.org/2000/svg"><rect x="10" y="12" width="20" height="2" rx="1"/><rect x="10" y="19" width="20" height="2" rx="1"/><rect x="10" y="26" width="20" height="2" rx="1"/></svg><svg fill="none" viewBox="0 0 18 13" id="checkmark" xmlns="http://www.w3.org/2000/svg"><path fill-rule="evenodd" clip-rule="evenodd" d="M17 1a1 1 0 010 1.414L6.707 12.707a1 1 0 01-1.414 0L1 8.414A1 1 0 112.414 7L6 10.586 15.586 1A1 1 0 0117 1z" fill="#2B0035"/></svg><svg fill="none" viewBox="0 0 18 18" id="cross" xmlns="http://www.w3.org/2000/svg"><path fill-rule="evenodd" clip-rule="evenodd" d="M9 10.414l7.086 7.086a1 1 0 001.414-1.414L10.414 9 17.5 1.914A1 1 0 0016.086.5L9 7.586 1.914.5A1 1 0 00.5 1.914L7.586 9 .5 16.086A1 1 0 101.914 17.5L9 10.414z" fill="#FFDDF6"/></svg><svg viewBox="0 0 11 14" id="rectangle-right" xmlns="http://www.w3.org/2000/svg"><path d="M0 1.822A1 1 0 011.537.978l8.137 5.178a1 1 0 010 1.688l-8.137 5.178A1 1 0 010 12.178V1.822z"/></svg></svg>