<svg xmlns="http://www.w3.org/2000/svg" width="100" height="87" viewBox="0 0 100 87">
    <path fill="#FFF" fill-rule="evenodd" d="M94.475 43.88c2.018-2.937 3.84-6.015 5.545-9.192-1.056 3.45-2.533 6.772-4.212 9.99-.846 1.608-1.792 3.159-2.742 4.715-1 1.52-2.029 3.028-3.149 4.471-1.062 1.489-2.292 2.846-3.475 4.244L84.548 60.1c-.32.327-.628.668-.96.984l-1.009.936a147.05 147.05 0 0 1-2.032 1.859l-2.145 1.733-1.078.859c-.365.28-.752.53-1.126.795L73.93 68.84a60.585 60.585 0 0 1-20.225 8.508c-6.977 1.556-14.21 1.841-21.184.79a202.489 202.489 0 0 1 3.465 6.582 1.08 1.08 0 0 1-1.017 1.566l-.32-.015-2.111-.102c-.351-.02-.706-.027-1.055-.058-.349-.031-.687-.122-1.028-.201-1.37-.275-2.746-.512-4.119-.77l-8.24-1.517-16.482-3.034a1.58 1.58 0 0 1-.802-2.7l11.845-11.168 5.922-5.583c1.964-1.873 3.972-3.698 5.9-5.61a1.59 1.59 0 0 1 2.58.507l.058.14c.187.445.301.915.387 1.393l.287 1.428.57 2.855c.321 1.729.636 3.458.91 5.201 6.296-3.06 12.155-6.784 17.325-11.285 5.312-4.62 9.917-9.972 13.759-15.842 3.861-5.862 6.939-12.23 9.468-18.834C72.308 14.464 74.22 7.6 75.693.565c-.164 7.195-1.428 14.379-3.533 21.32-2.112 6.938-5.135 13.656-9.158 19.769-4.008 6.11-9.013 11.62-14.855 16.019-5.657 4.318-12.098 7.572-18.86 9.478.025.153.053.306.077.46-.079-.138-.151-.277-.228-.415-.13.036-.256.08-.386.114.119-.056.235-.117.352-.174a193.094 193.094 0 0 1-2.511-4.676l-1.317-2.6-.23-.455c-1.435 1.336-2.855 2.69-4.29 4.026l-5.923 5.585L5.25 78.05l13.417 2.47 8.241 1.517c1.374.248 2.745.517 4.123.748.346.047.694.083 1.032.178.337.095.67.215 1.006.322l.263.085a203.213 203.213 0 0 1-.944-5.25c-.132-.02-.268-.033-.401-.054.13-.003.26-.01.39-.014-.015-.09-.032-.178-.046-.268l.142.264c7.053-.19 13.987-1.146 20.622-3.077 6.773-1.99 13.24-4.911 19.1-8.772l2.172-1.486c.36-.251.73-.487 1.08-.751l1.036-.812 2.084-1.611 1.988-1.73.998-.863c.33-.291.635-.609.953-.912l1.903-1.832 1.814-1.924c.303-.322.616-.634.91-.963l.865-1.002a83.33 83.33 0 0 0 6.477-8.433zm-44.26 24.016c4.758-2.166 9.33-4.704 13.61-7.667A78.334 78.334 0 0 0 75.71 50.14c3.626-3.75 6.844-7.896 9.734-12.316-2.197 4.803-5.142 9.293-8.638 13.311-1.732 2.026-3.636 3.9-5.606 5.702-2.003 1.765-4.117 3.401-6.294 4.947-2.22 1.484-4.485 2.902-6.848 4.144-2.366 1.232-4.781 2.37-7.268 3.323-4.958 1.94-10.12 3.334-15.36 4.09 5.068-1.521 10.02-3.286 14.785-5.445z"/>
</svg>
