<svg xmlns="http://www.w3.org/2000/svg" width="33" height="29" viewBox="0 0 33 29">
    <path fill="#FFF" fill-rule="evenodd" d="M23.581 16.17c-2.424.218-4.446-1.827-4.23-4.28.165-1.878 1.661-3.392 3.52-3.56 2.424-.218 4.447 1.827 4.23 4.279-.165 1.879-1.661 3.392-3.52 3.56m-13.452 0c-2.424.219-4.446-1.826-4.23-4.278.165-1.88 1.661-3.393 3.52-3.56 2.424-.22 4.447 1.826 4.23 4.278-.165 1.879-1.661 3.392-3.52 3.56M30.5 1.812l-.11-.28a.034.034 0 0 0-.017-.019L30.1 1.39C27.871.365 24.726.112 21.943 0h-3.135c-.035 0-.046.048-.014.064l6.438 3.121c.037.018.017.073-.022.062a34.115 34.115 0 0 0-8.71-1.152c-2.88 0-5.795.385-8.682 1.145-.039.01-.059-.045-.022-.062L14.46.064C14.493.05 14.482 0 14.446 0h-3.388C8.275.112 5.129.365 2.899 1.39l-.27.124a.033.033 0 0 0-.018.018l-.11.28C.22 7.66-.428 17.587.264 23.807l.036.326.257.201c3.565 2.796 8.332 4.233 11.33 4.614l.388.05a.274.274 0 0 0 .292-.178l1.951-5.274a.277.277 0 0 0-.214-.37l-.599-.096c-2.088-.332-5.047-1.211-7.548-3.505-.053-.049-.002-.137.066-.111.203.076.427.165.658.256.565.223 1.15.454 1.532.546 2.681.645 5.4.972 8.088.972v-.049h.005v.049c2.683 0 5.402-.327 8.083-.972.382-.092.967-.323 1.532-.546.23-.092.455-.18.658-.256.068-.026.119.062.066.111-2.493 2.284-5.455 3.16-7.548 3.492l-.6.095a.277.277 0 0 0-.214.371l1.953 5.287c.044.12.164.194.29.178l.389-.05c2.998-.381 7.765-1.818 11.33-4.614l.257-.201.036-.326c.692-6.22.043-16.147-2.239-21.995"/>
</svg>
