<svg xmlns="http://www.w3.org/2000/svg" width="40" height="40" viewBox="0 0 40 40">
    <defs>
        <linearGradient id="a" x1="20.254%" x2="71.074%" y1="-9.159%" y2="91.92%">
            <stop offset="0%" stop-color="#5B779E"/>
            <stop offset="39.87%" stop-color="#2D3B50"/>
            <stop offset="100%" stop-color="#0C0E14"/>
        </linearGradient>
        <linearGradient id="b" x1="52.849%" x2="80.53%" y1="25.074%" y2="95.966%">
            <stop offset="0%" stop-opacity="0"/>
            <stop offset="100%" stop-opacity=".621"/>
        </linearGradient>
        <radialGradient id="c" cx="33.014%" cy="17.579%" r="50.009%" fx="33.014%" fy="17.579%" gradientTransform="matrix(1 0 0 .8384 0 .028)">
            <stop offset="0%" stop-color="#E6F1FD"/>
            <stop offset="0%" stop-color="#BDD9F9"/>
            <stop offset="6.54%" stop-color="#BDD9F9"/>
            <stop offset="100%" stop-color="#1C3556" stop-opacity=".101"/>
        </radialGradient>
        <linearGradient id="d" x1="28.258%" x2="57.798%" y1="-37.859%" y2="62.918%">
            <stop offset="0%" stop-opacity="0"/>
            <stop offset="100%" stop-opacity=".621"/>
        </linearGradient>
        <radialGradient id="e" cx="55.874%" cy="-15.917%" r="56.243%" fx="55.874%" fy="-15.917%" gradientTransform="matrix(1 0 0 .60087 0 -.064)">
            <stop offset="0%" stop-color="#E6F1FD"/>
            <stop offset="0%" stop-color="#BDD9F9"/>
            <stop offset="6.54%" stop-color="#BDD9F9"/>
            <stop offset="100%" stop-color="#1C3556" stop-opacity=".101"/>
        </radialGradient>
        <linearGradient id="f" x1="21.27%" x2="110.93%" y1="-18.893%" y2="68.557%">
            <stop offset="0%" stop-color="#FDEC97"/>
            <stop offset="35.29%" stop-color="#FDEC97"/>
            <stop offset="51.33%" stop-color="#FDEC97"/>
            <stop offset="62.78%" stop-color="#DB990F"/>
            <stop offset="100%" stop-color="#DB990F"/>
        </linearGradient>
        <linearGradient id="g" x1="22.182%" x2="109.763%" y1="128.93%" y2="33.798%">
            <stop offset="0%" stop-color="#FFDC76"/>
            <stop offset="32.74%" stop-color="#E4903B"/>
            <stop offset="45.13%" stop-color="#CA4400"/>
            <stop offset="58.02%" stop-color="#FDEC97"/>
            <stop offset="70.42%" stop-color="#DB990F"/>
            <stop offset="100%" stop-color="#DB990F"/>
        </linearGradient>
        <linearGradient id="h" x1="60.095%" x2="3.308%" y1="112.352%" y2="42.718%">
            <stop offset="0%" stop-color="#FFDC76"/>
            <stop offset="32.74%" stop-color="#E4903B"/>
            <stop offset="45.13%" stop-color="#CA4400"/>
            <stop offset="58.02%" stop-color="#FDEC97"/>
            <stop offset="70.42%" stop-color="#DB990F"/>
            <stop offset="100%" stop-color="#DB990F"/>
        </linearGradient>
        <linearGradient id="i" x1="-18.562%" x2="67.501%" y1="70.945%" y2="-8.122%">
            <stop offset="0%" stop-color="#CA4400"/>
            <stop offset="35.29%" stop-color="#CA4400"/>
            <stop offset="51.33%" stop-color="#FDEC97"/>
            <stop offset="62.78%" stop-color="#DB990F"/>
            <stop offset="100%" stop-color="#DB990F"/>
        </linearGradient>
        <linearGradient id="j" x1="46.463%" x2="53.037%" y1=".586%" y2="93.798%">
            <stop offset="0%" stop-color="#DA940F"/>
            <stop offset="23.53%" stop-color="#EFD11A"/>
            <stop offset="75%" stop-color="#EFD11A"/>
            <stop offset="90.85%" stop-color="#EFD11A"/>
            <stop offset="100%" stop-color="#D3900E"/>
        </linearGradient>
        <linearGradient id="k" x1="47.945%" x2="53.219%" y1=".243%" y2="97.426%">
            <stop offset="0%" stop-color="#C63000"/>
            <stop offset="49.11%" stop-color="#DB9000"/>
            <stop offset="80.04%" stop-color="#DB9000"/>
            <stop offset="100%" stop-color="#C43B00"/>
        </linearGradient>
        <linearGradient id="l" x1="53.84%" x2="48.985%" y1="10.146%" y2="97.468%">
            <stop offset="0%" stop-color="#AD2F00"/>
            <stop offset="100%" stop-color="#CB7500"/>
        </linearGradient>
        <linearGradient id="m" x1="52.452%" x2="48.15%" y1="10.819%" y2="81.038%">
            <stop offset="0%" stop-color="#ECD500"/>
            <stop offset="86.93%" stop-color="#ECD500"/>
            <stop offset="100%" stop-color="#FFEF57"/>
        </linearGradient>
        <linearGradient id="n" x1="49.026%" x2="69.616%" y1="40.821%" y2="58.616%">
            <stop offset="0%" stop-color="#FFD511"/>
            <stop offset="100%" stop-color="#FDF8DC"/>
        </linearGradient>
        <linearGradient id="o" x1="45.474%" x2="52.586%" y1="8.659%" y2="99.982%">
            <stop offset="0%" stop-color="#BD3300"/>
            <stop offset="18.8%" stop-color="#BD3300"/>
            <stop offset="41.09%" stop-color="#CB8500"/>
            <stop offset="100%" stop-color="#C26F00"/>
        </linearGradient>
        <linearGradient id="p" x1="46.261%" x2="51.178%" y1="12.29%" y2="91.855%">
            <stop offset="0%" stop-color="#FFD303"/>
            <stop offset="90.2%" stop-color="#FFD303"/>
            <stop offset="100%" stop-color="#D27E00"/>
        </linearGradient>
        <linearGradient id="q" x1="52.495%" x2="47.508%" y1="-1.867%" y2="99.34%">
            <stop offset="0%" stop-color="#A51F00"/>
            <stop offset="28.76%" stop-color="#C67200"/>
            <stop offset="64.38%" stop-color="#C67200"/>
            <stop offset="100%" stop-color="#C25500"/>
        </linearGradient>
        <linearGradient id="r" x1="51.443%" x2="47.115%" y1=".322%" y2="99.259%">
            <stop offset="0%" stop-color="#CD7C00"/>
            <stop offset="31.37%" stop-color="#EED700"/>
            <stop offset="100%" stop-color="#EED700"/>
        </linearGradient>
        <linearGradient id="s" x1="49.105%" x2="65.99%" y1="44.668%" y2="54.857%">
            <stop offset="0%" stop-color="#FFD511"/>
            <stop offset="100%" stop-color="#FDF8DC"/>
        </linearGradient>
        <linearGradient id="t" x1="-5.641%" x2="109.199%" y1="73.195%" y2="25.321%">
            <stop offset="0%" stop-color="#51290E"/>
            <stop offset="34.6%" stop-color="#D08E29"/>
            <stop offset="41.75%" stop-color="#E1D02D"/>
            <stop offset="49.79%" stop-color="#F6E57F"/>
            <stop offset="53.7%" stop-color="#F6E57F"/>
            <stop offset="60.45%" stop-color="#E1D02D"/>
            <stop offset="68.72%" stop-color="#D08E29"/>
            <stop offset="100%" stop-color="#452A15"/>
        </linearGradient>
        <linearGradient id="u" x1="80.402%" x2="17.828%" y1="93.151%" y2="4.341%">
            <stop offset="0%" stop-color="#FFE12B"/>
            <stop offset="13.64%" stop-color="#FFF7C7" stop-opacity="0"/>
            <stop offset="81.94%" stop-color="#FFF7C7" stop-opacity="0"/>
            <stop offset="100%" stop-color="#FFE12B"/>
        </linearGradient>
    </defs>
    <g fill="none" fill-rule="nonzero">
        <path fill="url(#a)" d="M35.167 17.877c.002 9.565-7.537 17.322-16.84 17.324-9.304.004-16.85-7.749-16.852-17.314v-.01C1.473 8.31 9.012.553 18.315.55 27.62.55 35.164 8.3 35.168 17.865v.012z" transform="translate(1.882 1.672)"/>
        <path fill="url(#b)" d="M19.97.79l-6.745.422a.89.89 0 0 0-.421.132L6.903 5.137a.892.892 0 0 0-.026 1.502c.778.524 1.548 1.128 1.765 1.686.466 1.236.995 3.047 1.449 4.61.227.782.442 1.505.632 2.082.096.288.174.546.263.764.09.217.146.382.37.632.033.028.068.055.105.08.399.324.814.502 1.317.657.502.156 1.082.28 1.633.37.552.09 1.08.123 1.555.131.475.009.81.112 1.37-.237a.989.989 0 0 0 .08-.052c.24-.191.264-.32.315-.421.052-.102.096-.188.132-.29a8.29 8.29 0 0 0 .21-.712 27.754 27.754 0 0 0 .712-4.03c.06-.597.133-.993 0-1.528-.007-.028.009-.05 0-.08h-.028c-.135-.65-.48-1.594-1.08-2.66a8.267 8.267 0 0 0-2.107-2.45.759.759 0 0 1 .263-.158l3.294.025c.098 0 .196-.02.29-.052.077-.025.159.029.553-.159a1.33 1.33 0 0 0 .553-.527c.114-.22.162-.406.184-.606l.21-1.923a.894.894 0 0 0-.948-1z" transform="translate(1.882 1.672)"/>
        <path fill="url(#c)" d="M20.022 1.686l-.211 1.92c-.059.547-.29.414-.694.545l-3.47-.013c-1.023.33-1.135.874-1.066 1.34 1.944 1.08 3.158 4.148 3.334 5.059.25.878-.712 5.84-1.054 6.112-.575.358-3.987-.143-4.847-.843-.462-.519-1.549-5.2-2.53-7.798-.36-.93-1.328-1.583-2.107-2.108l5.901-3.793 6.744-.421z" transform="translate(1.882 1.672)"/>
        <path fill="url(#d)" d="M3.187 11.46a.784.784 0 0 0-.684.58L.475 18.97a.783.783 0 0 0 .316.869c.778.524 1.583 1.135 1.817 1.738.022.047.048.09.08.132.006.023.016.033.026.08.036.156.078.428.131.737.107.617.255 1.454.448 2.318.193.864.43 1.757.79 2.53.36.771.842 1.486 1.687 1.764-.205-.067-.035.009.079.08.114.07.263.167.448.29.369.244.84.551 1.316.869.476.318.954.655 1.344.895.195.12.372.21.527.29.078.04.148.072.237.105.09.034.142.118.5.053.414-.074.541-.305.607-.422.066-.117.08-.205.105-.29.05-.168.101-.335.132-.527.061-.383.106-.856.158-1.316.052-.46.106-.927.159-1.239.022-.128.038-.184.052-.237.058-.05.14-.043.185-.105.172-.242.19-.493.184-.685-.014-.383-.136-.677-.29-1.001-.307-.65-.81-1.398-1.37-2.187-1.081-1.523-2.318-3.023-2.871-3.635-.046-.152-.073-.308-.132-.474-.073-.207-.156-.433-.21-.632 1.166.497 2.374.946 3.714 1.106.08.003.16-.005.237-.026a4.912 4.912 0 0 0 1.212-.37c.228-.102.469-.208.685-.395.216-.187.456-.487.5-.895a.784.784 0 0 0-.131-.527c-1.498-2.24-3.651-2.812-5.901-3.635l-1.293-1.582a.783.783 0 0 0-.29-.21l-2.081-.896a.77.77 0 0 0-.395-.079z" transform="translate(1.882 1.672)"/>
        <path fill="url(#e)" d="M6.765 14.89c2.378.886 4.327 1.338 5.715 3.412-.059.545-1.253.913-1.737.992-1.44-.173-2.765-.69-4.066-1.28-1.287-.277-.167 1.993-.098 2.458.919 1 5.476 6.587 4.225 6.74-.307.037-.439 3.704-.725 3.755-.286.05-3.761-2.477-4.073-2.579-2.004-.66-2.333-6.912-2.66-7.1-.36-.929-1.329-1.582-2.108-2.107l2.027-6.923 2.092.895 1.408 1.736z" transform="translate(1.882 1.672)"/>
        <g>
            <path fill="#000" fill-opacity=".318" d="M36.127 11.188L36.1 5.407a1.044 1.044 0 0 0-.298-.74 1.012 1.012 0 0 0-.732-.302l-5.226-.052a1.02 1.02 0 0 0-.945.622c-.163.38-.086.823.198 1.123l5.252 5.834c.285.317.734.424 1.13.268.393-.157.65-.543.647-.972z"/>
            <path fill="#000" fill-opacity=".318" d="M35.783 11.19l-.025-5.783a.682.682 0 0 0-.67-.676l-5.226-.052a.681.681 0 0 0-.626.403.695.695 0 0 0 .111.743l5.252 5.833c.19.212.49.283.753.179a.687.687 0 0 0 .431-.648z"/>
            <path fill="#000" fill-opacity=".318" d="M35.56 11.188l-.025-5.781a.458.458 0 0 0-.463-.47l-5.227-.051a.458.458 0 0 0-.425.277.466.466 0 0 0 .09.504l5.252 5.833a.453.453 0 0 0 .508.126.46.46 0 0 0 .29-.438z"/>
            <path fill="#000" fill-opacity=".333" d="M35.309 11.192l-.026-5.781a.219.219 0 0 0-.026-.079.226.226 0 0 0-.05-.078l-.026-.026a.208.208 0 0 0-.103-.025.25.25 0 0 0-.026-.026l-5.226-.052a.21.21 0 0 0-.051.026.218.218 0 0 0-.078.026.232.232 0 0 0-.05.051.236.236 0 0 0-.026.079.219.219 0 0 0 0 .13c.011.029.028.055.05.078l5.253 5.833a.22.22 0 0 0 .18.052c.037 0 .072-.01.103-.026.01-.008.017-.016.026-.026a.214.214 0 0 0 .05-.078.237.237 0 0 0 .026-.077z"/>
            <path fill="url(#f)" d="M28.906 1.697l4.884-.022-.047 5.308z" transform="translate(1.25 3.75)"/>
            <path fill="#000" fill-opacity=".318" d="M30.188 35.73l5.716-.027a1.02 1.02 0 0 0 1.03-1.041l.051-5.287a1.032 1.032 0 0 0-.615-.957 1.014 1.014 0 0 0-1.11.202l-5.767 5.312a1.04 1.04 0 0 0-.265 1.141c.154.399.537.66.96.656z"/>
            <path fill="#000" fill-opacity=".318" d="M30.206 35.383l5.715-.026a.683.683 0 0 0 .67-.677l.05-5.287a.693.693 0 0 0-.398-.633.675.675 0 0 0-.734.113l-5.767 5.312a.694.694 0 0 0-.177.762c.103.265.358.439.64.436z"/>
            <path fill="#000" fill-opacity=".318" d="M30.188 35.157l5.716-.026a.456.456 0 0 0 .463-.468l.051-5.287a.46.46 0 0 0-.273-.431.452.452 0 0 0-.499.092l-5.767 5.312a.464.464 0 0 0 .31.808z"/>
            <path fill="#000" fill-opacity=".333" d="M30.165 34.906l5.716-.026a.218.218 0 0 0 .078-.026.223.223 0 0 0 .077-.052.25.25 0 0 0 .026-.025.216.216 0 0 0 .025-.105.25.25 0 0 0 .026-.025l.05-5.287a.25.25 0 0 0-.025-.052.243.243 0 0 0-.025-.078.232.232 0 0 0-.051-.052.23.23 0 0 0-.078-.026.211.211 0 0 0-.128 0 .223.223 0 0 0-.078.052l-5.767 5.313a.227.227 0 0 0-.051.182c0 .037.01.073.026.104.007.01.017.018.025.026.021.023.048.041.078.052.022.012.049.021.076.025z"/>
            <path fill="url(#g)" d="M34.599 24.937l.017 5.911h-5.608z" transform="translate(1.25 3.75)"/>
            <path fill="#000" fill-opacity=".318" d="M1.765 28.854l.025 5.782c-.002.277.105.543.299.74.193.196.457.305.731.302l5.227.051c.41.004.782-.24.945-.622.162-.38.085-.822-.199-1.123l-5.252-5.833a1.013 1.013 0 0 0-1.129-.269 1.032 1.032 0 0 0-.647.972z"/>
            <path fill="#000" fill-opacity=".318" d="M2.125 28.872l.025 5.781a.683.683 0 0 0 .67.677l5.227.052a.678.678 0 0 0 .626-.403.694.694 0 0 0-.111-.743L3.31 28.402a.677.677 0 0 0-.753-.179.69.69 0 0 0-.432.649z"/>
            <path fill="#000" fill-opacity=".318" d="M2.332 28.854l.025 5.782a.46.46 0 0 0 .464.468l5.227.052a.454.454 0 0 0 .425-.277.466.466 0 0 0-.09-.504L3.13 28.542a.453.453 0 0 0-.507-.125.458.458 0 0 0-.291.437z"/>
            <path fill="#000" fill-opacity=".333" d="M2.56 28.835l.025 5.782a.224.224 0 0 0 .025.078c.012.03.029.056.051.078.008.01.017.018.026.026a.21.21 0 0 0 .103.026c.007.01.016.017.025.026l5.227.051a.227.227 0 0 0 .051-.025.236.236 0 0 0 .077-.026.232.232 0 0 0 .052-.052.236.236 0 0 0 .025-.078.219.219 0 0 0 0-.13.242.242 0 0 0-.051-.079L2.944 28.68a.217.217 0 0 0-.18-.052.22.22 0 0 0-.104.026.188.188 0 0 0-.025.026.222.222 0 0 0-.051.078.22.22 0 0 0-.025.078z"/>
            <path fill="url(#h)" d="M6.927 30.83h-5.28v-5.82z" transform="translate(1.25 3.75)"/>
            <path fill="#000" fill-opacity=".318" d="M9.438 4.375l-5.716.026a1.014 1.014 0 0 0-.731.302 1.036 1.036 0 0 0-.3.74l-.05 5.286c-.004.415.239.792.615.956a1.01 1.01 0 0 0 1.11-.2l5.767-5.313a1.04 1.04 0 0 0 .265-1.141c-.155-.4-.537-.66-.96-.656z"/>
            <path fill="#000" fill-opacity=".318" d="M9.438 4.74l-5.716.026a.683.683 0 0 0-.67.677l-.05 5.286a.686.686 0 0 0 .397.634.675.675 0 0 0 .735-.113L9.9 5.937a.693.693 0 0 0 .176-.76.678.678 0 0 0-.64-.437z"/>
            <path fill="#000" fill-opacity=".318" d="M9.438 4.948l-5.716.026a.453.453 0 0 0-.463.469l-.051 5.286a.462.462 0 0 0 .274.43.45.45 0 0 0 .497-.091l5.768-5.313a.465.465 0 0 0 .124-.513.455.455 0 0 0-.433-.294z"/>
            <path fill="#000" fill-opacity=".333" d="M9.438 5.183l-5.716.025a.213.213 0 0 0-.078.026.221.221 0 0 0-.077.053.188.188 0 0 0-.026.026.231.231 0 0 0-.025.104.188.188 0 0 0-.026.026l-.051 5.286a.2.2 0 0 0 .026.052.219.219 0 0 0 .025.078c.014.02.032.038.051.052.024.013.05.022.078.026a.211.211 0 0 0 .128 0 .223.223 0 0 0 .078-.052l5.767-5.312a.222.222 0 0 0 .05-.183.231.231 0 0 0-.025-.104.188.188 0 0 0-.025-.026.215.215 0 0 0-.078-.052.214.214 0 0 0-.076-.025z"/>
            <path fill="url(#i)" d="M2.43 6.982l.03-5.277 5.723-.026z" transform="translate(1.25 3.75)"/>
        </g>
        <g fill="#000" fill-opacity=".288">
            <path d="M9.14 8.828a.335.335 0 0 0-.24.142.328.328 0 0 0-.046.275l.574 2.005 3.958 17.604-.365 1.927a.33.33 0 0 0 .312.39h5.755a.333.333 0 0 0 .313-.417l-.365-1.849.99-3.776 1.224 3.83-.547 1.77a.332.332 0 0 0 .313.443l6.484.026a.331.331 0 0 0 .312-.442l-.755-2.032 2.969-17.057 1.12-2.37a.332.332 0 0 0-.286-.47h-5.652a.332.332 0 0 0-.338.391l.338 1.927-1.953 11.016-3.047-11.77a.332.332 0 0 0-.625 0l-2.942 11.692-2.449-10.937.313-1.927a.331.331 0 0 0-.104-.286.329.329 0 0 0-.234-.105H9.14z"/>
            <path d="M9.037 8.567a.604.604 0 0 0-.443.755l.573 1.98H9.14l3.958 17.551-.365 1.875a.607.607 0 0 0 .6.704h5.754a.608.608 0 0 0 .6-.73l-.365-1.77.729-2.787.911 2.812-.52 1.693a.612.612 0 0 0 .092.533c.112.154.29.245.48.249l6.485.026a.609.609 0 0 0 .573-.807l-.729-1.98 2.943-16.874 1.12-2.37a.606.606 0 0 0-.547-.86h-5.652a.607.607 0 0 0-.599.703l.313 1.875-1.693 9.688-2.734-10.52a.609.609 0 0 0-1.198 0l-2.656 10.52-2.162-9.766.287-1.796a.606.606 0 0 0-.6-.703h-5a.616.616 0 0 0-.13 0z"/>
            <path d="M8.984 8.307a.865.865 0 0 0-.65 1.095l.573 1.953v.052l3.932 17.395-.365 1.875a.87.87 0 0 0 .192.71.87.87 0 0 0 .667.306h5.755a.867.867 0 0 0 .86-1.041l-.365-1.772.495-1.823.6 1.9-.495 1.615a.867.867 0 0 0 .833 1.12l6.484.026a.867.867 0 0 0 .808-1.146l-.704-1.9 2.943-16.824 1.093-2.317a.866.866 0 0 0-.78-1.224h-5.652a.864.864 0 0 0-.859 1.015l.313 1.824-1.51 8.49-2.422-9.375a.866.866 0 0 0-1.667 0l-2.396 9.53-1.927-8.671.287-1.823a.864.864 0 0 0-.86-.99h-5a.835.835 0 0 0-.183 0z"/>
            <path d="M9.037 7.995A1.178 1.178 0 0 0 8.02 9.479l.573 1.953v.052l3.933 17.37-.339 1.745a1.177 1.177 0 0 0 1.146 1.406h5.755c.383.002.742-.184.964-.495.221.31.58.497.963.495l6.484.027c.384-.004.743-.194.96-.51.216-.317.267-.719.133-1.079l-.65-1.796 2.89-16.667 1.094-2.292a1.181 1.181 0 0 0-1.068-1.693h-5.65a1.178 1.178 0 0 0-1.172 1.38l.312 1.77-1.25 7.006-2.057-7.969a1.178 1.178 0 0 0-2.292 0l-2.057 8.204-1.641-7.292.286-1.745a1.177 1.177 0 0 0-1.171-1.354h-5a1.128 1.128 0 0 0-.13 0zm11.067 20.208l.26.782-.287.885-.182-.885.21-.782z"/>
            <path d="M9.16 9.167l.593 1.998 3.971 17.67-.39 2.005h5.761l-.398-1.933 1.309-4.961 1.576 5.026-.56 1.868 6.49.013-.797-2.119 2.983-17.11 1.16-2.46-5.65.003.328 1.988-2.205 12.57-3.434-13.256-3.282 13.021-2.76-12.396.312-1.927z"/>
        </g>
        <g>
            <path fill="url(#j)" d="M.848 0l2.866 2.08 3.837 17.53-2.465 2.063.401-2.011L1.458 2.005z" transform="translate(8.75 8.75)"/>
            <path fill="#792100" d="M16.304 28.36l-2.468 2.063 5.875-.006-2.267-2.045z"/>
            <path fill="url(#k)" d="M5.924.02L3.717 2.085l3.836 17.522 1.13.01-.227-5.451-2.73-12.162z" transform="translate(8.75 8.75)"/>
            <path fill="url(#l)" d="M10.957 21.673l-2.26-2.047 3.171-11.97.014 7.117-1.332 4.967z" transform="translate(8.75 8.75)"/>
            <path fill="url(#m)" d="M11.769 1.276l.106 6.328-3.184 12.029-.209-5.415z" transform="translate(8.75 8.75)"/>
            <path fill="url(#n)" d="M.841 0l2.877 2.083L5.938.007z" transform="translate(8.75 8.75)"/>
            <path fill="url(#o)" d="M11.762 1.29l.106 6.36 2.919 11.984 1.82.01z" transform="translate(8.75 8.75)"/>
            <path fill="url(#p)" d="M11.868 7.657l.014 7.102 1.608 5.043-.57 1.863 1.884-2.023z" transform="translate(8.75 8.75)"/>
            <path fill="#792100" d="M25.35 28.383l-1.79.006-1.903 2.034 6.61.012z"/>
            <path fill="url(#q)" d="M21.74 2.43L22.923.014 19.74 1.782l-3.153 17.855 2.937 2.054-.813-2.122z" transform="translate(8.75 8.75)"/>
            <path fill="url(#r)" d="M17.51 1.98L17.167.02l2.576 1.75-3.156 17.85-1.324-5.066z" transform="translate(8.75 8.75)"/>
            <path fill="url(#s)" d="M17.164.013l2.563 1.777L22.936.002z" transform="translate(8.75 8.75)"/>
        </g>
        <g>
            <path fill="#000" fill-opacity=".263" d="M20 .782C9.506.782.99 9.309.99 19.818c0 10.51 8.516 19.036 19.01 19.036 10.495 0 19.01-8.527 19.01-19.037C39.01 9.308 30.495.782 20 .782zm-.078 3.28c8.607 0 15.573 6.983 15.573 15.625 0 8.643-6.966 15.651-15.573 15.651-8.608 0-15.6-7.008-15.6-15.65.001-8.643 6.992-15.625 15.6-15.625z"/>
            <path fill="#000" fill-opacity=".278" d="M20 .495C9.35.495.703 9.153.703 19.818.703 30.483 9.35 39.142 20 39.142c10.65 0 19.297-8.66 19.297-19.324C39.297 9.153 30.65.495 20 .495zm-.078 3.854c8.45 0 15.286 6.852 15.286 15.338 0 8.487-6.835 15.366-15.286 15.366-8.45 0-15.313-6.879-15.313-15.365S11.471 4.348 19.922 4.348z"/>
            <path fill="#000" fill-opacity=".414" d="M20 .026C9.096.026.234 8.9.234 19.817.234 30.735 9.096 39.61 20 39.61c10.905 0 19.766-8.874 19.766-19.792C39.766 8.9 30.905.026 20 .026zm-.078 4.792c8.197 0 14.817 6.635 14.817 14.87s-6.622 14.895-14.817 14.895S5.078 27.92 5.078 19.688c0-8.233 6.646-14.87 14.844-14.87z"/>
            <path fill="url(#t)" d="M20 1.067c-10.342 0-18.724 8.395-18.724 18.75 0 10.357 8.382 18.75 18.724 18.75s18.724-8.393 18.724-18.75c0-10.355-8.382-18.75-18.724-18.75zm-.078 2.709c8.76 0 15.859 7.117 15.859 15.912 0 8.794-7.1 15.937-15.86 15.937S4.038 28.482 4.038 19.687c0-8.794 7.125-15.911 15.885-15.911z"/>
            <path fill="url(#u)" d="M19.527 1.19c-9.818 0-17.76 7.953-17.76 17.787s7.943 17.786 17.76 17.786c9.818 0 17.761-7.952 17.761-17.786 0-9.835-7.942-17.787-17.76-17.787zm-.078.78c9.284 0 16.823 7.56 16.823 16.876 0 9.315-7.536 16.9-16.823 16.9s-16.848-7.583-16.848-16.9C2.6 9.528 10.165 1.97 19.449 1.97z"/>
        </g>
    </g>
</svg>
