<svg xmlns="http://www.w3.org/2000/svg" width="32" height="32" viewBox="0 0 32 32">
    <g fill="none" fill-rule="evenodd">
        <path fill="#F97F00" d="M6.098 3.426A16.103 16.103 0 0 1 16 0c3.65 0 7.061 1.254 9.755 3.313l-2.742 3.376C21.09 5.299 18.546 4.57 16 4.57c-2.613 0-5.223.768-7.161 2.227l-2.74-3.372z"/>
        <path fill="#424242" d="M7.746 7.87C5.71 9.95 4.571 12.858 4.571 16c0 2.056.578 4.044 1.524 5.714l6.476-6.095 2.667-6.476v9.905l-6.095 6.095c1.95 1.51 4.199 2.286 6.857 2.286 2.659 0 4.907-.777 6.857-2.286l-6.095-6.095V9.143l2.667 6.476 6.476 6.095A11.688 11.688 0 0 0 27.429 16c0-3.21-1.187-6.173-3.306-8.261l2.79-3.435A15.948 15.948 0 0 1 32 16c0 8.837-7.163 16-16 16S0 24.837 0 16c0-4.516 1.987-8.595 5.004-11.504L7.746 7.87z"/>
    </g>
</svg>
