<svg xmlns="http://www.w3.org/2000/svg" xmlns:xlink="http://www.w3.org/1999/xlink" width="238" height="237" viewBox="0 0 238 237">
    <defs>
        <path id="a" d="M.17.11h237.777v236.787H.17z"/>
        <path id="c" d="M52.636 34.826c-33.48 33.382-34.798 75.086-34.88 83.806-18.59 36.63-18.56 66.64-17.27 81.602 1.25 14.557 2.29 24.992 10.072 34.503 9.926 12.131 28.013 16.212 64.183 24.371a383.646 383.646 0 0 0 27.459 5.169c21.684 3.258 32.525 4.891 45.263 2.953 9.543-1.451 33.122-5.038 38.584-20.677 2.507-7.173.348-14.433-1.716-19.154a142.863 142.863 0 0 0 8.417-4.083c.54-.283 5.763-3.037 10.32-5.98 9.521-6.142 16.89-13.577 18.875-15.6 18.385-18.722 26.807-41.12 27.178-42.137 5.928-16.223 7.004-30.811 6.826-40.967a115.41 115.41 0 0 0-3.858-30.382c-1.445-5.436-5.483-19.026-15.307-34.061-19.275-29.514-45.989-41.874-51.476-44.308-13.19-5.851-25.043-8.144-33.113-9.139-1.623-.182-5.859-.607-11.918-.607-19.334 0-57.189 4.331-87.64 34.691z"/>
    </defs>
    <g fill="none" fill-rule="evenodd">
        <g>
            <mask id="b" fill="#fff">
                <use xlink:href="#a"/>
            </mask>
            <path fill="#E9EEF5" fill-rule="nonzero" d="M119.058 236.897C53.396 236.897.17 183.889.17 118.503S53.396.11 119.06.11c65.66 0 118.888 53.007 118.888 118.393s-53.229 118.394-118.889 118.394" mask="url(#b)"/>
        </g>
        <g transform="translate(-18)">
            <mask id="d" fill="#fff">
                <use xlink:href="#c"/>
            </mask>
            <g mask="url(#d)">
                <path fill="#5F73FA" stroke="#FFF" stroke-width="2" d="M60.51 203.927H43.446c-8.569 0-15.52-6.96-15.52-15.555V71.05c0-8.593 6.952-15.554 15.52-15.554h17.07c.285 9.397 7.987 16.928 17.447 16.928 9.46 0 17.161-7.531 17.446-16.928h170.709v148.431H95.418c-.046-9.608-7.843-17.382-17.454-17.382-9.612 0-17.409 7.774-17.455 17.382z"/>
                <g fill-rule="nonzero">
                    <path fill="#5F73FA" d="M104.29 156.6v-10.06l20.107-47.59h12.065v47.59h5.228v10.06h-5.228v12.778h-10.858v-12.777H104.29zm10.154-10.06h11.16v-26.462l-11.16 26.461zm42.427-31.392v38.032c0 5.03 2.212 6.942 5.73 6.942 3.52 0 5.732-1.912 5.732-6.942v-38.032c0-5.03-2.212-6.942-5.731-6.942-3.519 0-5.73 1.911-5.73 6.942zm-11.059 37.327v-36.623c0-11.268 5.932-17.708 16.79-17.708 10.858 0 16.79 6.44 16.79 17.708v36.623c0 11.269-5.932 17.708-16.79 17.708-10.858 0-16.79-6.439-16.79-17.708zm47.152-43.263v24.147c0 3.119 1.307 4.427 3.62 4.427 2.212 0 3.62-1.308 3.62-4.427v-24.147c0-3.12-1.408-4.427-3.62-4.427-2.313 0-3.62 1.308-3.62 4.427zm-7.037 23.644v-23.141c0-7.244 3.72-11.269 10.657-11.269 6.937 0 10.657 4.025 10.657 11.269v23.14c0 7.245-3.72 11.27-10.657 11.27-6.937 0-10.657-4.025-10.657-11.27zm10.657 36.522l27.748-70.429h6.535l-27.748 70.43h-6.535zm31.267-34.41v24.148c0 3.119 1.307 4.427 3.62 4.427 2.211 0 3.619-1.308 3.619-4.427v-24.147c0-3.12-1.408-4.427-3.62-4.427-2.312 0-3.619 1.308-3.619 4.427zm-7.038 23.645v-23.141c0-7.244 3.72-11.269 10.658-11.269 6.937 0 10.657 4.025 10.657 11.269v23.14c0 7.245-3.72 11.27-10.657 11.27-6.938 0-10.658-4.025-10.658-11.27z" opacity=".4" style="mix-blend-mode:multiply"/>
                    <path fill="#FFF" d="M102.893 152.408v-10.061l20.108-47.59h12.065v47.59h5.228v10.061h-5.228v12.778h-10.859v-12.778h-21.314zm10.155-10.061h11.16v-26.461l-11.16 26.461zm42.427-31.391v38.031c0 5.031 2.212 6.943 5.73 6.943 3.52 0 5.731-1.912 5.731-6.943v-38.031c0-5.03-2.212-6.943-5.73-6.943-3.52 0-5.731 1.912-5.731 6.943zm-11.06 37.327V111.66c0-11.269 5.932-17.708 16.79-17.708 10.859 0 16.79 6.44 16.79 17.708v36.623c0 11.269-5.931 17.708-16.79 17.708-10.858 0-16.79-6.44-16.79-17.708zm47.153-43.263v24.147c0 3.119 1.307 4.427 3.62 4.427 2.211 0 3.619-1.308 3.619-4.427V105.02c0-3.12-1.408-4.427-3.62-4.427-2.312 0-3.619 1.308-3.619 4.427zm-7.038 23.644v-23.141c0-7.244 3.72-11.269 10.657-11.269 6.938 0 10.657 4.025 10.657 11.269v23.14c0 7.245-3.72 11.27-10.657 11.27-6.937 0-10.657-4.025-10.657-11.27zm10.657 36.522l27.749-70.429h6.535l-27.749 70.43h-6.535zm31.268-34.41v24.148c0 3.119 1.307 4.427 3.62 4.427 2.211 0 3.619-1.308 3.619-4.427v-24.147c0-3.12-1.408-4.427-3.62-4.427-2.312 0-3.62 1.307-3.62 4.427zm-7.038 23.645V131.28c0-7.245 3.72-11.27 10.657-11.27 6.937 0 10.657 4.025 10.657 11.27v23.14c0 7.245-3.72 11.27-10.657 11.27-6.937 0-10.657-4.025-10.657-11.27z"/>
                </g>
                <path fill="#5F73FA" fill-rule="nonzero" d="M48.683 87.266c0 .354.03.647.089.879.059.23.14.416.241.556.102.14.223.237.363.29.14.054.295.081.467.081.365 0 .668-.172.91-.516.241-.344.502-.936.78-1.774.13-.366.277-.732.444-1.097.166-.366.376-.694.628-.984.252-.29.558-.527.918-.71.36-.183.797-.274 1.313-.274.515 0 .98.097 1.393.29.413.194.765.468 1.055.823.29.355.513.785.668 1.29a5.8 5.8 0 0 1 .234 1.71c0 .753-.08 1.403-.242 1.952-.16.548-.338 1-.531 1.355l-1.981-.726a6.88 6.88 0 0 0 .427-1.04c.123-.382.185-.842.185-1.38 0-.602-.083-1.035-.25-1.298-.166-.263-.421-.395-.765-.395a.883.883 0 0 0-.515.145 1.41 1.41 0 0 0-.379.411 3.62 3.62 0 0 0-.306.613c-.091.231-.185.487-.282.766-.215.581-.427 1.086-.636 1.517a4.05 4.05 0 0 1-.733 1.072c-.279.285-.606.497-.982.637s-.832.21-1.37.21c-1.04 0-1.849-.366-2.423-1.097-.575-.731-.862-1.833-.862-3.306 0-.495.03-.941.088-1.34.06-.397.132-.75.218-1.056a6.066 6.066 0 0 1 .548-1.346l1.997.71a6.333 6.333 0 0 0-.491 1.233c-.145.49-.218 1.089-.218 1.799zm-1.56 12.685a29.51 29.51 0 0 0 1.244-.406c.425-.15.851-.296 1.277-.44v-4.482c-.426-.144-.852-.29-1.277-.44a29.51 29.51 0 0 0-1.244-.407v-2.689c1.255.432 2.414.841 3.479 1.229 1.064.387 2.066.766 3.007 1.137.941.37 1.835.736 2.68 1.095.846.36 1.673.733 2.48 1.12v2.474a89.875 89.875 0 0 1-5.159 2.216c-.942.37-1.944.75-3.008 1.137-1.065.387-2.224.797-3.479 1.229V99.95zm8.734-3.055a18.18 18.18 0 0 1-.729-.265 588.226 588.226 0 0 0-2.4-.913c-.486-.183-.996-.37-1.53-.558v3.49c.534-.188 1.044-.371 1.53-.549.486-.177.93-.345 1.333-.505.403-.16.759-.298 1.067-.416.308-.118.551-.213.729-.284zm-8.734 10.402c.975-.453 1.989-.9 3.042-1.342 1.053-.442 2.095-.862 3.125-1.26 1.03-.398 2.017-.765 2.958-1.102.94-.337 1.78-.627 2.52-.87v2.85c-.672.222-1.397.462-2.176.722-.778.26-1.554.525-2.327.795-.773.271-1.513.533-2.218.788-.706.254-1.317.491-1.832.712.515.21 1.126.445 1.832.705a150.508 150.508 0 0 0 4.545 1.591c.779.26 1.504.5 2.176.721v2.752c-.74-.254-1.58-.547-2.52-.879a116.032 116.032 0 0 1-6.083-2.354 88.178 88.178 0 0 1-3.042-1.342v-2.487zm-.582 8.807h11.645v7.764h-2.201v-5.176h-2.286v4.596h-2.15v-4.596h-2.807v5.558h-2.201v-8.146zm11.645 14.997c-.37.198-.826.426-1.37.684-.543.258-1.131.527-1.764.807s-1.28.558-1.94.832l-1.866.774 1.865.775c.661.274 1.308.551 1.941.832.633.28 1.221.549 1.764.807.544.258 1 .486 1.37.683v2.34c-.773.11-1.638.211-2.596.304-.958.094-1.955.176-2.991.248a287.393 287.393 0 0 1-6.058.354v-2.504c1.131-.033 2.364-.077 3.697-.132a101.84 101.84 0 0 0 4.033-.247l-1.563-.66c-.571-.24-1.143-.48-1.714-.716a249.41 249.41 0 0 1-1.638-.683c-.521-.22-.967-.407-1.336-.56v-1.796c.37-.154.815-.34 1.336-.56a249.4 249.4 0 0 1 1.638-.684c.571-.236 1.143-.475 1.714-.716a732.51 732.51 0 0 1 1.563-.66c-1.356-.11-2.7-.192-4.033-.247a308.369 308.369 0 0 0-3.697-.131v-2.504a291.65 291.65 0 0 1 6.058.354c1.036.071 2.033.154 2.99.247.959.093 1.824.195 2.597.305v2.454zm-5.83 12.93a4.83 4.83 0 0 0-1.432.198 3.252 3.252 0 0 0-1.097.57c-.306.247-.542.55-.708.908-.166.359-.25.77-.25 1.234 0 .453.084.861.25 1.225.166.364.402.67.708.917.306.248.672.437 1.097.57a4.83 4.83 0 0 0 1.432.197c.529 0 1.009-.066 1.44-.198.43-.132.798-.321 1.104-.569.306-.248.542-.553.708-.917.166-.364.249-.772.249-1.225 0-.464-.086-.875-.257-1.234a2.591 2.591 0 0 0-.716-.909 3.243 3.243 0 0 0-1.105-.569 4.85 4.85 0 0 0-1.423-.197zm0 8.146c-.956 0-1.797-.134-2.521-.402-.725-.268-1.332-.635-1.82-1.1a4.49 4.49 0 0 1-1.104-1.663 5.725 5.725 0 0 1-.37-2.071c0-.719.123-1.397.37-2.034a4.645 4.645 0 0 1 1.104-1.67c.488-.475 1.095-.85 1.82-1.123.724-.273 1.565-.41 2.52-.41.956 0 1.796.142 2.521.425.725.284 1.334.666 1.828 1.146.494.48.865 1.037 1.111 1.67.247.632.37 1.298.37 1.996a5.58 5.58 0 0 1-.37 2.034 4.596 4.596 0 0 1-1.11 1.67c-.495.475-1.104.85-1.829 1.122-.725.273-1.565.41-2.52.41zm-5.233 9.008a59.528 59.528 0 0 0 3.95-2.264 39.998 39.998 0 0 0 3.68-2.593h-7.63v-2.405h11.645v1.983c-.37.344-.823.724-1.36 1.14-.539.417-1.113.841-1.723 1.273a59.56 59.56 0 0 1-1.9 1.289 99.15 99.15 0 0 1-1.89 1.203h6.873v2.42H47.123v-2.046zm-.582 4.956h11.645v7.764h-2.201v-5.176h-2.286v4.595h-2.15v-4.595h-2.807v5.557h-2.201v-8.145zm6.856 12.274c.795.45 1.59.88 2.386 1.287.795.408 1.596.783 2.403 1.126v2.767a75.864 75.864 0 0 1-3.646-1.898 95.145 95.145 0 0 1-3.546-2.075H46.54v-2.51h4.42a94.345 94.345 0 0 1 3.562-2.083 76.993 76.993 0 0 1 3.663-1.906v2.911c-.807.343-1.608.713-2.403 1.11-.795.397-1.59.82-2.386 1.271z" opacity=".5" style="mix-blend-mode:multiply"/>
                <path fill="#FFF" d="M61.71 58.45c.6 9.104 8.168 16.303 17.417 16.303 9.25 0 16.818-7.2 17.417-16.304h168.765L45.57 205.177c-8.456 0-15.315-6.88-15.315-15.376V73.826c0-8.495 6.86-15.377 15.315-15.377h16.14z" opacity=".1"/>
                <path stroke="#FFF" stroke-dasharray="6,12" stroke-linecap="round" stroke-width="3" d="M77.382 84.066v100.495"/>
            </g>
        </g>
    </g>
</svg>
