<svg xmlns="http://www.w3.org/2000/svg" xmlns:xlink="http://www.w3.org/1999/xlink" width="115" height="116" viewBox="0 0 115 116">
    <defs>
        <path id="a" d="M11.888 43.224C8.151 38.926 6 33.888 6 28.5 6 12.76 24.356 0 47 0s41 12.76 41 28.5c0 2.214-.363 4.37-1.05 6.438 11.93 9.718 19.55 24.526 19.55 41.113 0 29.272-23.729 53-53 53s-53-23.728-53-53c0-12.397 4.257-23.8 11.388-32.827z"/>
        <path id="c" d="M13.057 51c-.522 0-1.044-.005-1.563-.014-1.324-.028-2.12-.859-2.133-2.224l-.021-2.348c-.014-1.242-.014-1.242-1.186-1.432-1.787-.285-4.124-.752-6.33-1.822C.017 42.27-.296 41.587.23 39.673c.348-1.265.67-2.429 1.032-3.584.188-.599.537-1.709 1.604-1.709.367 0 .776.134 1.372.444 1.96 1.018 4.12 1.664 6.607 1.975.387.048.77.074 1.149.073 1.063 0 2.07-.204 2.99-.608 1.053-.463 1.735-1.294 1.874-2.282.138-1-.297-2-1.196-2.742-.617-.52-1.353-.951-2.39-1.405a69.41 69.41 0 0 0-2.234-.932c-1.608-.648-3.273-1.32-4.817-2.25-4.229-2.535-6.157-5.824-5.9-10.05.299-4.951 2.997-8.39 8.02-10.22C9.792 5.855 9.792 5.855 9.8 4.39c.004-.287.003-.568.001-.847-.001-.385-.002-.768.01-1.15C9.861.587 10.391.05 12.183 0h1.37c3.48 0 3.762.28 3.774 3.755.007 1.663.007 1.663 1.653 1.919a20.07 20.07 0 0 1 5.002 1.494c1.172.524 1.622 1.469 1.271 2.657-.143.484-.282.968-.42 1.453-.248.868-.496 1.737-.774 2.597-.172.53-.528 1.63-1.616 1.63-.356 0-.746-.114-1.301-.382a14.813 14.813 0 0 0-6.486-1.48c-.286 0-.575.008-.865.023-.554.034-1.21.104-1.812.369-.906.398-1.486 1.085-1.592 1.888-.103.783.268 1.575 1.017 2.174.833.663 1.813 1.21 3.176 1.776l.707.292c1.804.749 3.67 1.52 5.426 2.49 3.21 1.78 5.427 4.784 6.087 8.247.629 3.3-.248 6.7-2.406 9.323-1.648 2.015-3.79 3.394-6.367 4.096-.783.215-1.023.525-.99 1.274.03.704.018 1.408.005 2.111-.007.378-.013.755-.013 1.132 0 1.31-.768 2.109-2.057 2.137-.636.017-1.277.025-1.916.025"/>
        <path id="e" d="M0 .85h16.15V17H0z"/>
        <path id="g" d="M0 .85h16.15V17H0z"/>
        <path id="i" d="M0 .85h16.15V17H0z"/>
    </defs>
    <g fill="none" fill-rule="evenodd" transform="translate(0 -14)">
        <circle cx="57" cy="76.051" r="53" fill="#E9EEF5"/>
        <g transform="translate(3.5)">
            <mask id="b" fill="#fff">
                <use xlink:href="#a"/>
            </mask>
            <g mask="url(#b)">
                <path fill="#5F73FA" d="M78.085 135.575c24.988-20.496-1.142-69.46-14.402-79.794-6.012-4.687-13.133-6.73-18.682-6.73-5.551 0-12.672 2.043-18.684 6.73-13.259 10.333-39.39 59.298-14.402 79.794 4.046 3.157 14.116 10.117 28.7 11.304 19.843 1.616 33.958-8.6 37.47-11.304"/>
                <path stroke="#FFF" stroke-width="2" d="M78.085 135.575c24.988-20.496-1.142-69.46-14.402-79.794-6.012-4.687-13.133-6.73-18.682-6.73-5.551 0-12.672 2.043-18.684 6.73-13.259 10.333-39.39 59.298-14.402 79.794 4.046 3.157 14.116 10.117 28.7 11.304 19.843 1.616 33.958-8.6 37.47-11.304z"/>
                <path fill="#7687FA" d="M36.783 52.51c-1.567.52-5.15 1.748-8.727 4.673-1.093.892-1.874 1.69-2.975 2.812a57.755 57.755 0 0 0-4.523 5.238c-2.877 3.757-4.922 7.398-6.277 9.966-2.535 4.802-5.224 9.831-7.201 16.427-2.518 8.402-6.366 21.107-.474 32.855 1.933 3.852 4.373 6.606 6.206 8.38a40.735 40.735 0 0 0 13.777 9.217A40.992 40.992 0 0 0 44.5 144.97l-.09-93.919a29.667 29.667 0 0 0-7.627 1.46"/>
                <path fill="#5F73FA" d="M59.5 50.302v-10.5c0-.981-.733-1.75-1.668-1.75H31.168c-.935 0-1.668.769-1.668 1.75v10.5c0 .979.733 1.75 1.668 1.75h26.664c.935 0 1.668-.771 1.668-1.75"/>
                <path stroke="#FFF" stroke-width="2" d="M59.5 50.302v-10.5c0-.981-.733-1.75-1.668-1.75H31.168c-.935 0-1.668.769-1.668 1.75v10.5c0 .979.733 1.75 1.668 1.75h26.664c.935 0 1.668-.771 1.668-1.75z"/>
                <path fill="#5F73FA" stroke="#FFF" stroke-width="3" d="M44.49 39.454l-15.9.101-15.354-14.663 1.316-1.074 1.06-.866c2.792-2.277 5.763-3.555 8.815-3.762.292-.02.584-.03.885-.03 2.081 0 3.459.364 5.937 1.323 1.388.537 1.907.689 2.449.689.26 0 .519-.046.793-.142a1.91 1.91 0 0 0 .274-.117c.518-.28.92-.593 1.218-.89 2.565-2.582 4.262-3.834 6.815-4.323a8.482 8.482 0 0 1 1.573-.149h.256a8.37 8.37 0 0 1 1.575.151c2.55.487 4.243 1.736 6.809 4.315.299.3.709.62 1.229.9.055.031.136.066.257.109.286.1.543.146.801.146.544 0 1.064-.153 2.45-.69l.478-.183c2.046-.778 3.543-1.139 5.46-1.139.3 0 .593.01.881.03 3.056.207 6.028 1.485 8.819 3.762l2.379 1.941-15.358 14.662-15.917-.101z"/>
                <path fill="#7687FA" d="M29.745 37.051L17.5 24.987c2.882-2.426 5.37-3.084 7.164-3.208 4.87-.34 7.046 3.073 10.775 1.723.263-.096.48-.195.675-.305a8.106 8.106 0 0 0 1.861-1.417c1.293-1.34 3.074-3.187 5.3-3.626a5.434 5.434 0 0 1 1.225-.1v18.9c-4.918.031-9.836.064-14.755.097M44.5 41.051H30.653c-.636 0-1.153.394-1.153.88v8.241c0 .486.517.88 1.153.88H44.5v-10z"/>
            </g>
        </g>
        <g transform="translate(36 67.051)">
            <mask id="d" fill="#fff">
                <use xlink:href="#c"/>
            </mask>
            <use fill="#5F73FA" stroke="#FFF" stroke-width="3" xlink:href="#c"/>
            <g fill="#7687FA" mask="url(#d)">
                <path d="M15.803 45.385c-.053-1.064.43-1.607 1.501-1.889 2.464-.643 4.563-1.91 6.179-3.799 4.489-5.225 2.779-11.873-3.578-15.24-1.992-1.055-4.114-2.858-6.21-3.693A18.696 18.696 0 0 1 12 20v7.994c.292.118.586.23.876.353.934.391 1.826.844 2.601 1.467 2.298 1.818 1.879 6.844-.85 7.99-.85.356-1.73.54-2.627.608v11.582c.78.004 1.558.014 2.333-.006.967-.02 1.458-.522 1.458-1.457 0-1.045.053-2.1.012-3.146zM13.077 12.32c2.675-.133 5.217.318 7.638 1.389 1.205.535 1.602.366 2.011-.79.43-1.22.786-2.46 1.183-3.69.267-.828-.06-1.372-.908-1.719a20.66 20.66 0 0 0-4.819-1.325c-2.184-.31-2.184-.319-2.194-2.339C15.976 1 15.976 1 12.873 1H12v11.44c.353-.064.715-.1 1.077-.12"/>
            </g>
        </g>
        <path fill="#5F73FA" d="M97.076 55.202c-3.901 0-7.076-3.174-7.076-7.075 0-3.902 3.175-7.075 7.076-7.075a7.083 7.083 0 0 1 7.075 7.075 7.083 7.083 0 0 1-7.075 7.075"/>
        <g transform="translate(89 39.203)">
            <mask id="f" fill="#fff">
                <use xlink:href="#e"/>
            </mask>
            <path fill="#FFF" d="M8.076.85C3.623.85 0 4.47 0 8.923 0 13.377 3.623 17 8.076 17s8.075-3.622 8.075-8.075C16.15 4.471 12.529.85 8.076.85m0 2a6.075 6.075 0 1 1 0 12.15 6.075 6.075 0 0 1 0-12.15" mask="url(#f)"/>
        </g>
        <path fill="#7687FA" d="M97.076 48.127l.146-6.074c3.276.079 5.929 2.796 5.929 6.074 0 3.333-2.742 6.075-6.075 6.075v-6.075z"/>
        <g>
            <path fill="#5F73FA" d="M106.076 91.202c-3.901 0-7.076-3.174-7.076-7.075 0-3.902 3.175-7.075 7.076-7.075a7.083 7.083 0 0 1 7.075 7.075 7.083 7.083 0 0 1-7.075 7.075"/>
            <g transform="translate(98 75.203)">
                <mask id="h" fill="#fff">
                    <use xlink:href="#g"/>
                </mask>
                <path fill="#FFF" d="M8.076.85C3.623.85 0 4.47 0 8.923 0 13.377 3.623 17 8.076 17s8.075-3.622 8.075-8.075C16.15 4.471 12.529.85 8.076.85m0 2a6.075 6.075 0 1 1 0 12.15 6.075 6.075 0 0 1 0-12.15" mask="url(#h)"/>
            </g>
            <path fill="#7687FA" d="M106.076 84.127l.146-6.074c3.276.079 5.929 2.796 5.929 6.074 0 3.333-2.742 6.075-6.075 6.075v-6.075z"/>
        </g>
        <g>
            <path fill="#5F73FA" d="M8.076 55.202C4.175 55.202 1 52.028 1 48.127c0-3.902 3.175-7.075 7.076-7.075a7.083 7.083 0 0 1 7.075 7.075 7.083 7.083 0 0 1-7.075 7.075"/>
            <g transform="translate(0 39.203)">
                <mask id="j" fill="#fff">
                    <use xlink:href="#i"/>
                </mask>
                <path fill="#FFF" d="M8.076.85C3.623.85 0 4.47 0 8.923 0 13.377 3.623 17 8.076 17s8.075-3.622 8.075-8.075C16.15 4.471 12.529.85 8.076.85m0 2a6.075 6.075 0 1 1 0 12.15 6.075 6.075 0 0 1 0-12.15" mask="url(#j)"/>
            </g>
            <path fill="#7687FA" d="M8.076 48.127l.146-6.074c3.276.079 5.929 2.796 5.929 6.074 0 3.333-2.742 6.075-6.075 6.075v-6.075z"/>
        </g>
    </g>
</svg>
