<svg xmlns="http://www.w3.org/2000/svg" width="80" height="78" viewBox="0 0 80 78">
    <g fill="none" fill-rule="nonzero">
        <path fill="#000112" d="M79.61 77.48H1.106V29.965L40.586 3.51 79.22 29.705c.39.26.52.715.39 1.17V77.48zM3.057 75.53h74.602V30.94L40.585 5.85 3.057 31.005V75.53z"/>
        <path fill="#000112" d="M40.325 51.935c-.13 0-.325-.065-.455-.13L2.21 31.915c-.455-.26-.65-.845-.39-1.3.26-.455.846-.65 1.301-.39l37.203 19.63 37.203-19.63c.456-.26 1.041-.065 1.301.39s.065 1.04-.39 1.3L40.78 51.805c-.13.065-.325.13-.455.13z"/>
        <path fill="#000112" d="M4.748 28.99l35.577 18.98 35.642-19.045 2.212 1.56-17.301 9.035-40.26 1.235L2.08 30.81z" opacity=".4"/>
        <path fill="#000112" d="M77.984 76.115a.739.739 0 0 1-.52-.195L40.324 50.83 3.187 75.92c-.455.325-1.04.195-1.366-.26-.325-.455-.195-1.04.26-1.365l37.659-25.48c.325-.195.78-.195 1.106 0l37.658 25.48c.455.325.585.91.26 1.365-.13.325-.455.455-.78.455z"/>
        <g transform="translate(18.862 23.4)">
            <path fill="#5F73FA" d="M1.821 22.555V38.09c0 1.95 1.691 3.64 3.512 3.64h1.952c1.365 0 2.731-.845 3.252-2.21l2.796-6.825"/>
            <path fill="#000112" d="M7.285 42.705H5.333c-2.406 0-4.487-2.145-4.487-4.615V22.555h1.95V38.09c0 1.365 1.237 2.665 2.537 2.665h1.952c1.04 0 2.016-.65 2.341-1.56l2.797-6.825 1.82.715-2.796 6.825c-.65 1.625-2.341 2.795-4.162 2.795z"/>
            <path fill="#5F73FA" d="M42.016 21.385v16.77c0 1.95-1.56 3.64-3.512 3.64h-1.951c-1.366 0-2.732-.845-3.252-2.21l-2.797-6.825"/>
            <path fill="#000112" d="M38.504 42.77h-1.951c-1.821 0-3.512-1.17-4.163-2.86l-2.797-6.76 1.822-.715 2.796 6.825c.39.975 1.301 1.625 2.342 1.625h1.951c1.366 0 2.537-1.235 2.537-2.665V21.385h1.95v16.77c0 2.535-2.015 4.615-4.487 4.615z"/>
            <path fill="#5F73FA" d="M31.935 32.305c-3.187 0-6.049-1.365-8-3.9-.455-.65-1.236-1.04-2.081-1.04-.846 0-1.561.39-2.082 1.04-1.95 2.535-4.813 3.9-8 3.9-4.292 0-8.195-3.25-9.626-7.995-1.43-4.745.26-9.295 4.553-12.09 1.301-.845 2.797-1.3 4.488-1.3H32.26c2.732.065 5.203 1.235 7.09 3.25 1.886 1.95 2.796 4.55 2.731 7.28-.195 5.005-4.488 10.79-9.95 10.92l-.196-.065z"/>
            <path fill="#000112" d="M31.675 12.285h.585c2.342.065 4.488 1.04 6.179 2.795a8.786 8.786 0 0 1 2.341 6.24c-.195 4.81-4.357 9.49-8.585 9.62H32c-2.732 0-5.203-1.235-6.894-3.38-.716-1.04-1.952-1.56-3.187-1.56-1.236 0-2.407.585-3.187 1.56-1.691 2.145-4.163 3.38-6.895 3.38-3.512 0-7.089-2.99-8.26-6.955-.585-1.95-1.366-6.955 4.033-10.53a7.054 7.054 0 0 1 3.707-1.04l20.358-.13zm.65-2.795H11.252c-1.886 0-3.707.455-5.203 1.495-11.057 7.345-4.098 22.75 5.853 22.75 3.708 0 6.96-1.755 9.041-4.485.26-.26.585-.455.91-.455.326 0 .716.195.911.455 2.147 2.73 5.399 4.485 9.04 4.485H32c6.049-.065 11.057-6.24 11.252-12.285.455-6.435-4.618-11.765-10.927-11.96z"/>
            <ellipse cx="12.943" cy="17.68" fill="#FFF" rx="1.756" ry="1.755"/>
            <ellipse cx="12.943" cy="24.83" fill="#FFF" rx="1.756" ry="1.755"/>
            <ellipse cx="9.301" cy="21.32" fill="#FFF" rx="1.756" ry="1.755"/>
            <ellipse cx="16.585" cy="21.32" fill="#FFF" rx="1.756" ry="1.755"/>
            <ellipse cx="32.13" cy="17.68" fill="#FFF" rx="1.756" ry="1.755"/>
            <ellipse cx="32.13" cy="24.83" fill="#FFF" rx="1.756" ry="1.755"/>
            <ellipse cx="28.488" cy="21.32" fill="#FFF" rx="1.756" ry="1.755"/>
            <ellipse cx="35.642" cy="21.32" fill="#FFF" rx="1.756" ry="1.755"/>
            <path fill="#000112" d="M21.854 11.57a1 1 0 0 1-.976-.975v-2.21c0-1.82 1.756-3.51 3.707-3.51h6.96c.78 0 1.235-.455 1.235-1.235V1.105a1 1 0 0 1 .976-.975 1 1 0 0 1 .976.975V3.64c0 1.82-1.366 3.185-3.187 3.185h-6.96c-.845 0-1.756.845-1.756 1.56v2.21a1 1 0 0 1-.975.975z"/>
        </g>
        <path fill="#000112" d="M5.008 2.73c-.39 0-.65-.26-.65-.65V.65c0-.39.26-.65.65-.65s.65.26.65.65v1.43c0 .39-.26.65-.65.65zM5.008 7.345c-.39 0-.65-.26-.65-.65V5.33c0-.39.26-.65.65-.65s.65.26.65.65v1.365c0 .39-.26.65-.65.65zM8 4.355H6.634c-.39 0-.65-.26-.65-.65s.26-.65.65-.65H8c.39 0 .65.26.65.65s-.26.65-.65.65zM3.382 4.355h-1.43c-.391 0-.651-.26-.651-.65s.26-.65.65-.65h1.431c.39 0 .65.26.65.65s-.26.65-.65.65z"/>
        <g fill="#5F73FA">
            <path d="M40.52 20.28a1 1 0 0 1-.975-.975v-8.06a1 1 0 0 1 .975-.975 1 1 0 0 1 .976.975v8.06a1 1 0 0 1-.976.975zM61.984 26.65c-.26 0-.52-.13-.716-.325-.39-.39-.325-1.04.065-1.365l5.594-5.135c.39-.39 1.04-.325 1.366.065.39.39.325 1.04-.065 1.365l-5.594 5.135a.835.835 0 0 1-.65.26zM18.146 26.65a.835.835 0 0 1-.65-.26l-5.594-5.135c-.39-.39-.455-.975-.065-1.365s.976-.39 1.366-.065l5.594 5.135c.39.39.455.975.065 1.365-.195.195-.455.325-.716.325zM9.106 43.615H1.04a1 1 0 0 1-.976-.975 1 1 0 0 1 .976-.975h8.065a1 1 0 0 1 .975.975 1 1 0 0 1-.975.975zM78.764 43.615h-8a1 1 0 0 1-.975-.975 1 1 0 0 1 .975-.975h8a1 1 0 0 1 .976.975 1 1 0 0 1-.976.975z"/>
        </g>
        <path fill="#5F73FA" d="M71.22 6.175a2.47 2.47 0 1 1 0-4.94 2.47 2.47 0 1 1 0 4.94zm0-4.29c-.976 0-1.822.845-1.822 1.82 0 .975.846 1.82 1.822 1.82.975 0 1.82-.845 1.82-1.82 0-.975-.845-1.82-1.82-1.82z"/>
        <path fill="#000112" d="M36.033 67.535c-.39 0-.65-.26-.65-.65v-1.43c0-.39.26-.65.65-.65s.65.26.65.65v1.43c0 .39-.26.65-.65.65zM36.033 72.15c-.39 0-.65-.26-.65-.65v-1.365c0-.39.26-.65.65-.65s.65.26.65.65V71.5c0 .39-.26.65-.65.65zM39.024 69.16H37.66c-.39 0-.65-.26-.65-.65s.26-.65.65-.65h1.365c.39 0 .65.26.65.65s-.26.65-.65.65zM34.407 69.16h-1.431c-.39 0-.65-.26-.65-.65s.26-.65.65-.65h1.43c.39 0 .65.26.65.65s-.26.65-.65.65z"/>
    </g>
</svg>
