<svg xmlns="http://www.w3.org/2000/svg" width="80" height="79" viewBox="0 0 80 79">
    <g fill="none" fill-rule="nonzero">
        <g fill="#000112">
            <path d="M68.475 5.857a2.9 2.9 0 0 1-2.916-2.929A2.9 2.9 0 0 1 68.475 0a2.9 2.9 0 0 1 2.915 2.928 2.9 2.9 0 0 1-2.915 2.929zm0-4.495c-.882 0-1.56.681-1.56 1.566 0 .886.678 1.567 1.56 1.567.88 0 1.559-.681 1.559-1.567 0-.885-.678-1.566-1.56-1.566zM3.119 56.185a2.9 2.9 0 0 1-2.916-2.928 2.9 2.9 0 0 1 2.916-2.929 2.9 2.9 0 0 1 2.915 2.929 2.9 2.9 0 0 1-2.915 2.928zm0-4.494c-.882 0-1.56.68-1.56 1.566 0 .885.678 1.566 1.56 1.566.881 0 1.559-.68 1.559-1.566 0-.885-.678-1.566-1.56-1.566z"/>
        </g>
        <g fill="#000112">
            <path d="M44.068 44.948c-.407 0-.678-.272-.678-.68v-1.499c0-.409.271-.681.678-.681.407 0 .678.272.678.681v1.498c0 .409-.271.681-.678.681zM44.068 49.784c-.407 0-.678-.273-.678-.681v-1.43c0-.41.271-.682.678-.682.407 0 .678.273.678.681v1.43c0 .41-.271.682-.678.682zM47.186 46.65h-1.423c-.407 0-.678-.272-.678-.68 0-.409.27-.681.678-.681h1.423c.407 0 .678.272.678.68 0 .41-.27.682-.678.682zM42.373 46.65H40.88c-.406 0-.678-.272-.678-.68 0-.409.272-.681.678-.681h1.492c.407 0 .678.272.678.68 0 .41-.271.682-.678.682zM45.56 8.036c-.407 0-.679-.272-.679-.68V5.924c0-.409.272-.681.678-.681.407 0 .678.272.678.681v1.43c0 .409-.27.681-.678.681zM45.56 12.94c-.407 0-.679-.273-.679-.681V10.76c0-.408.272-.68.678-.68.407 0 .678.272.678.68v1.499c0 .408-.27.68-.678.68zM48.746 9.739h-1.492c-.407 0-.678-.273-.678-.681 0-.409.271-.681.678-.681h1.492c.407 0 .678.272.678.68 0 .41-.271.682-.678.682zM43.864 9.739h-1.423c-.407 0-.678-.273-.678-.681 0-.409.27-.681.678-.681h1.423c.407 0 .678.272.678.68 0 .41-.27.682-.678.682z"/>
        </g>
        <path fill="#000112" d="M35.729 58.705c-.204.068-.407.204-.61.409-.814.749-.678 1.907-.678 2.111v14.234l2.712-.545.27-14.098.204-2.247-1.898.136z" opacity=".2"/>
        <path fill="#000112" d="M22.78 53.053c-8.34 0-15.119-6.81-15.119-15.187V22.61c0-.34.203-.68.542-.885a.92.92 0 0 1 1.017 0c2.238 1.362 6.983 3.61 13.288 3.746 6.17.068 10.984-1.975 13.899-3.746a.92.92 0 0 1 1.017 0c.339.204.542.545.542.885v15.187c-.068 8.445-6.847 15.256-15.186 15.256zM9.695 24.313v13.553c0 7.218 5.898 13.143 13.085 13.143 7.186 0 13.084-5.925 13.084-13.212V24.313c-3.186 1.634-7.728 3.269-13.423 3.2-5.56-.135-10.034-1.77-12.746-3.2z"/>
        <path fill="#000112" d="M37.83 38.547h-1.22v-2.044h1.22c1.153 0 2.102-1.294 2.102-2.724V20.363c0-3.2-2.373-5.789-5.22-5.789h-1.424v-2.043h1.424c4 0 7.254 3.541 7.254 7.832v13.416c0 2.656-1.83 4.768-4.135 4.768zM8.271 38.41c-2.915 0-5.152-2.247-5.152-5.176V19.205c0-3.677 2.983-6.674 6.644-6.674v2.043c-2.509 0-4.61 2.111-4.61 4.631v14.03c0 1.77 1.355 3.132 3.118 3.132v2.043z"/>
        <path fill="#000112" d="M9.356 20.567c-.542 0-1.017-.476-1.017-1.021 0-4.155 1.22-7.696 3.661-10.556 3.729-4.495 9.898-6.402 16.136-5.108.474.068.745.477.813.953.068.477-.271.886-.678 1.022-1.424.477-4 1.702-5.288 4.495a7.553 7.553 0 0 0-.746 2.656 19.033 19.033 0 0 1 4.407-3.27 19.62 19.62 0 0 1 9.898-2.247c.407 0 .746.273.882.681.135.409.068.818-.204 1.09a11.833 11.833 0 0 0-2.983 5.108c-.339 1.43-.474 2.928-.27 4.495.067.544-.34 1.09-.882 1.157-.543.069-1.085-.34-1.153-.885-.271-1.839-.135-3.541.271-5.312a12.79 12.79 0 0 1 2.034-4.222c-2.373.204-4.61.885-6.644 1.975-3.05 1.634-4.813 3.745-5.424 4.63-.203.341-.61.477-1.016.41-.407-.069-.678-.41-.814-.818-.271-.953-.61-3.541.678-6.266.746-1.566 1.83-2.928 3.322-3.95h-.068c-4.203 0-8.135 1.703-10.712 4.768-2.101 2.52-3.118 5.584-3.118 9.194-.068.545-.543 1.021-1.085 1.021z"/>
        <g transform="translate(35.932 46.991)">
            <path fill="#5F73FA" d="M1.492 16.685V28.06c0 1.43 1.22 2.656 2.576 2.656h1.424a2.552 2.552 0 0 0 2.372-1.635l2.034-4.971"/>
            <path fill="#000112" d="M5.492 31.736H4.068c-1.966 0-3.593-1.702-3.593-3.677V16.685h2.033V28.06c0 .885.746 1.634 1.56 1.634h1.424c.61 0 1.22-.409 1.423-1.021L8.95 23.7l1.898.817-2.033 4.972a3.541 3.541 0 0 1-3.322 2.247z"/>
            <path fill="#5F73FA" d="M30.712 15.868v12.259c0 1.43-1.153 2.656-2.576 2.656h-1.424a2.552 2.552 0 0 1-2.373-1.635l-2.034-4.971"/>
            <path fill="#000112" d="M28.136 31.804h-1.424a3.541 3.541 0 0 1-3.322-2.247l-2.034-4.972 1.898-.749 2.034 4.972c.271.613.814 1.021 1.424 1.021h1.424c.813 0 1.559-.749 1.559-1.634V15.936h2.034v12.259c0 1.975-1.627 3.61-3.593 3.61z"/>
            <path fill="#5F73FA" d="M23.39 23.836a7.277 7.277 0 0 1-5.83-2.86 1.798 1.798 0 0 0-1.492-.75c-.61 0-1.153.273-1.492.75a7.277 7.277 0 0 1-5.83 2.86c-3.119 0-5.966-2.383-6.983-5.857-1.017-3.473.203-6.81 3.322-8.853a5.891 5.891 0 0 1 3.254-.954H23.593a7.204 7.204 0 0 1 5.153 2.384c1.356 1.43 2.034 3.337 1.966 5.312-.136 3.678-3.254 7.9-7.254 7.968h-.068z"/>
            <path fill="#000112" d="M23.186 9.194h.407a6.392 6.392 0 0 1 4.475 2.043 6.274 6.274 0 0 1 1.695 4.563c-.136 3.541-3.187 6.947-6.238 7.015h-.135a6.317 6.317 0 0 1-5.017-2.452 2.853 2.853 0 0 0-2.305-1.158c-.882 0-1.763.409-2.305 1.158a6.317 6.317 0 0 1-5.017 2.452c-2.577 0-5.153-2.18-6.034-5.108-.407-1.43-1.017-5.108 2.915-7.696.746-.477 1.695-.749 2.712-.749l14.847-.068zm.475-2.043H8.339c-1.356 0-2.712.34-3.797 1.09-8.067 5.38-2.983 16.617 4.272 16.617a8.207 8.207 0 0 0 6.576-3.27c.203-.204.407-.34.678-.34.271 0 .542.136.678.34 1.56 1.976 3.932 3.27 6.576 3.27h.136c4.406-.068 8.067-4.563 8.203-8.99.271-4.699-3.39-8.58-8-8.717z"/>
            <ellipse cx="9.559" cy="13.144" fill="#FFF" rx="1.288" ry="1.294"/>
            <ellipse cx="9.559" cy="18.388" fill="#FFF" rx="1.288" ry="1.294"/>
            <ellipse cx="6.915" cy="15.8" fill="#FFF" rx="1.288" ry="1.294"/>
            <ellipse cx="12.203" cy="15.8" fill="#FFF" rx="1.288" ry="1.294"/>
            <ellipse cx="23.525" cy="13.144" fill="#FFF" rx="1.288" ry="1.294"/>
            <ellipse cx="23.525" cy="18.388" fill="#FFF" rx="1.288" ry="1.294"/>
            <ellipse cx="20.881" cy="15.8" fill="#FFF" rx="1.288" ry="1.294"/>
            <ellipse cx="26.102" cy="15.8" fill="#FFF" rx="1.288" ry="1.294"/>
            <path fill="#000112" d="M16.068 8.99c-.543 0-1.017-.477-1.017-1.022V6.334c0-1.499 1.424-2.86 2.983-2.86h5.085c.406 0 .61-.205.61-.614V1.022c0-.545.474-1.022 1.017-1.022.542 0 1.017.477 1.017 1.022V2.86c0 1.499-1.153 2.656-2.644 2.656h-5.085c-.407 0-.95.477-.95.818v1.634c0 .545-.474 1.022-1.016 1.022z"/>
        </g>
        <path fill="#000112" d="M18.373 37.048c-.475 0-.881-.34-1.017-.817-.203-.75-.746-1.362-1.424-1.43-.813-.068-1.627.545-1.763 1.43-.135.545-.61.885-1.22.817-.542-.136-.881-.613-.813-1.226.339-1.906 2.101-3.269 4-3.064 1.559.204 2.847 1.43 3.186 3.064a1.015 1.015 0 0 1-.746 1.226h-.203zM31.797 37.048c-.475 0-.882-.34-1.017-.817-.204-.75-.746-1.362-1.424-1.43-.814-.068-1.627.545-1.763 1.43-.135.545-.61.885-1.22.817-.542-.136-.881-.613-.814-1.226.34-1.906 2.102-3.269 4-3.064 1.56.204 2.848 1.43 3.187 3.064A1.015 1.015 0 0 1 32 37.048h-.203zM21.898 45.357c-1.22 0-2.17-.273-2.508-.409-.543-.204-.814-.817-.61-1.294.203-.545.813-.817 1.288-.613.339.137 2.101.681 4.068-.204 1.084-.477 1.83-1.226 2.17-1.703.338-.476.948-.544 1.423-.204.474.34.542.954.203 1.43-.542.681-1.491 1.703-2.983 2.384-1.085.477-2.17.613-3.05.613zM23.119 79h-.61C12.813 78.932 5.22 76.276.61 74.028c-.339-.204-.61-.544-.61-.953 0-9.398 8.339-17.707 19.322-19.205.542-.068 1.085.34 1.153.885.067.545-.34 1.09-.882 1.158-9.762 1.362-17.152 8.377-17.56 16.55a48.63 48.63 0 0 0 20.475 4.494c4.95.068 9.763-.613 14.441-1.975a1.073 1.073 0 0 1 1.288.68c.204.546-.135 1.09-.678 1.295A51.392 51.392 0 0 1 23.12 79zM37.627 61.089a.969.969 0 0 1-.678-.273 20.841 20.841 0 0 0-10.847-4.903c-.543-.068-.95-.613-.882-1.158.068-.545.61-.953 1.153-.885 4.407.613 8.542 2.52 11.932 5.448.407.34.475 1.022.136 1.43-.272.205-.543.34-.814.34z"/>
        <g fill="#5F73FA">
            <path d="M68.339 35.414l-19.39-19.546-.678-4.563 4.543.681.067.068 19.322 19.478-2.034 1.975-1.83 1.907zM49.627 15.596L68.34 34.46l1.356-1.43 1.491-1.498-18.644-18.865-3.457-.545.542 3.474z"/>
            <path d="M68.95 37.73l-2.848-1.09 3.796-3.678 3.594-3.61 1.084 2.793-5.627 5.584zm-1.628-1.363l1.492.545 4.949-4.971-.543-1.43-2.915 2.928-2.983 2.928z"/>
            <path d="M75.254 40.113c-.068 0-.203 0-.27-.068l-4.679-4.631 1.017-.954.881-.885 4.61 4.631a.33.33 0 0 1 0 .477.327.327 0 0 1-.474 0l-4.068-4.086-.949.885 4.136 4.086a.33.33 0 0 1 0 .477s-.136.068-.204.068zM69.966 33.507c-.068 0-.203 0-.271-.068l-5.83-5.857-10.17-10.284a.33.33 0 0 1 0-.476.327.327 0 0 1 .474 0l2.373 2.383 7.865 7.832 5.83 5.857a.33.33 0 0 1 0 .477c-.068.136-.203.136-.27.136z"/>
            <path d="M77.085 42.428c-.543 0-1.085-.204-1.56-.612-.406-.41-.61-.954-.61-1.567s.204-1.158.61-1.566c.814-.817 2.238-.817 3.051 0 .407.408.61.953.61 1.566 0 .613-.203 1.158-.61 1.567-.407.408-.949.612-1.491.612zm0-3.677c-.407 0-.746.136-1.085.408-.271.273-.407.682-.407 1.09 0 .409.136.75.407 1.09.61.613 1.56.613 2.102 0 .27-.273.406-.681.406-1.09 0-.408-.135-.749-.406-1.09a1.491 1.491 0 0 0-1.017-.408zM74.102 38.819a.513.513 0 0 1-.271-.136.33.33 0 0 1 0-.477l1.22-1.158a.327.327 0 0 1 .474 0 .33.33 0 0 1 0 .477l-1.22 1.158c-.068.136-.136.136-.203.136zM73.085 37.797c-.068 0-.204 0-.271-.068a.33.33 0 0 1 0-.476l1.22-1.226a.327.327 0 0 1 .474 0 .33.33 0 0 1 0 .476l-1.22 1.226c0 .068-.135.068-.203.068zM72 36.708c-.068 0-.203 0-.271-.068a.33.33 0 0 1 0-.477l1.22-1.226a.327.327 0 0 1 .475 0 .33.33 0 0 1 0 .477l-1.22 1.226c0 .068-.136.068-.204.068z"/>
            <g>
                <path d="M58.576 35.482L54.712 31.6l5.152-5.176a.327.327 0 0 1 .475 0 .33.33 0 0 1 0 .477l-4.61 4.63 2.915 2.93 4.61-4.632a.327.327 0 0 1 .475 0 .33.33 0 0 1 0 .477l-5.153 5.176zM66.915 26.969c-.068 0-.203 0-.27-.068a.33.33 0 0 1 0-.477l10.643-10.692.61-3.473-3.457.544L63.932 23.36a.327.327 0 0 1-.474 0 .33.33 0 0 1 0-.476L74.169 12.19l4.543-.682-.746 4.563-10.78 10.829c-.067.068-.203.068-.27.068z"/>
                <path d="M57.966 37.797l-5.491-5.516 1.084-2.86 3.73 3.813 3.66 3.678-2.983.885zm-4.746-5.72l4.95 4.971 1.423-.476-2.847-2.86-2.983-2.997-.543 1.362z"/>
                <path d="M51.661 40.25c-.068 0-.203 0-.271-.069a.33.33 0 0 1 0-.477l4.135-4.086-.949-.953-4.068 4.154a.327.327 0 0 1-.474 0 .33.33 0 0 1 0-.477l4.61-4.699 1.898 1.907-4.61 4.631c-.068.068-.203.068-.271.068zM56.95 33.575c-.069 0-.204 0-.272-.068a.33.33 0 0 1 0-.477l4.881-4.903a.327.327 0 0 1 .475 0 .33.33 0 0 1 0 .476l-4.881 4.904c0 .068-.136.068-.204.068zM65.22 25.266c-.067 0-.203 0-.27-.068a.33.33 0 0 1 0-.476l5.423-5.449 2.373-2.315a.327.327 0 0 1 .474 0 .33.33 0 0 1 0 .476l-2.373 2.316-5.423 5.448c0 .068-.136.068-.204.068z"/>
                <path d="M49.83 42.565c-.542 0-1.084-.205-1.559-.613-.407-.409-.61-.954-.61-1.567s.203-1.157.61-1.566c.814-.817 2.237-.817 3.051 0 .407.409.61.953.61 1.566 0 .613-.203 1.158-.61 1.567-.339.408-.95.613-1.491.613zm0-3.678c-.406 0-.745.136-1.084.409-.271.272-.407.68-.407 1.09 0 .408.136.748.407 1.089.61.613 1.56.613 2.101 0 .272-.272.407-.681.407-1.09 0-.408-.135-.749-.407-1.09a1.377 1.377 0 0 0-1.016-.408zM52.814 38.955c-.068 0-.204 0-.272-.068l-1.22-1.226a.33.33 0 0 1 0-.477.327.327 0 0 1 .475 0l1.22 1.226a.33.33 0 0 1 0 .477c0 .068-.136.068-.203.068zM53.898 37.866c-.067 0-.135 0-.203-.069l-1.22-1.157a.33.33 0 0 1 0-.477.327.327 0 0 1 .474 0l1.22 1.158a.33.33 0 0 1 0 .476c-.067 0-.203.069-.27.069zM54.915 36.844a.513.513 0 0 1-.27-.136l-1.153-1.226a.33.33 0 0 1 0-.477.327.327 0 0 1 .474 0l1.153 1.226a.33.33 0 0 1 0 .477c-.068.136-.136.136-.204.136z"/>
            </g>
        </g>
        <path fill="#5F73FA" d="M70.983 61.566l2.576-7.696c.068-.204.272-.273.407-.204.203.068.271.272.203.408l-1.491 4.563 5.424-6.197h-3.933l1.56-4.836-5.288 6.198h1.898c.203 0 .339.136.339.34 0 .205-.136.34-.339.34h-3.39l8.475-9.874-2.373 7.15h4.474l-8.542 9.808z"/>
        <path fill="#000112" d="M22.915 59.727c-2.373 0-4.27-1.567-4.27-3.542v-4.222c0-.545.474-1.022 1.016-1.022s1.017.477 1.017 1.022v4.222c0 .75.881 1.499 2.237 1.499 1.288 0 2.238-.818 2.238-1.499v-4.222c0-.545.474-1.022 1.016-1.022.543 0 1.017.477 1.017 1.022v4.222c0 1.975-1.898 3.542-4.27 3.542z"/>
        <path fill="#000112" d="M22.983 63.609c-2.373 0-4.678-1.022-6.17-2.316-2.101-1.907-2.44-4.29-2.508-4.767-.068-.545.34-1.09.881-1.09.543-.068 1.085.34 1.085.886 0 .204.271 2.043 1.83 3.405 1.56 1.43 4.475 2.451 7.12 1.362 2.033-.817 3.39-2.588 3.593-4.7a1.098 1.098 0 0 1 1.084-.953 1.1 1.1 0 0 1 .95 1.09c-.272 2.928-2.102 5.38-4.882 6.47a7.796 7.796 0 0 1-2.983.613z"/>
        <path fill="#000112" d="M22.983 79c-.542 0-1.017-.477-1.017-1.022V63.2c0-.545.475-1.022 1.017-1.022.542 0 1.017.477 1.017 1.022v14.778c0 .545-.475 1.022-1.017 1.022z"/>
    </g>
</svg>
