<svg xmlns="http://www.w3.org/2000/svg" width="80" height="81" viewBox="0 0 80 81">
    <g fill="none" fill-rule="nonzero">
        <path fill="#000112" d="M31.867 41.363h-3.4v4.382c0 3.187 2.466 5.776 5.466 5.776h4.134V48.6h-1.934c-2.333 0-4.266-2.058-4.266-4.515v-2.788" opacity=".2"/>
        <path fill="#5F73FA" d="M75.133 48.733H57l-11.467 8.963-.066-8.963h-10.2c-2.134 0-3.867-1.726-3.867-3.851V14.208c0-2.124 1.733-3.85 3.867-3.85h39.866c2.134 0 3.867 1.726 3.867 3.85v30.74c0 2.125-1.733 3.785-3.867 3.785z"/>
        <path fill="#000112" d="M44.533 59.754l-.066-10.025h-9.2c-2.667 0-4.867-2.191-4.867-4.847V14.208c0-2.656 2.2-4.847 4.867-4.847h39.866C77.8 9.361 80 11.552 80 14.208v30.74c0 2.656-2.2 4.78-4.867 4.78h-17.8l-12.8 10.026zm-9.266-48.4a2.84 2.84 0 0 0-2.867 2.854v30.674a2.84 2.84 0 0 0 2.867 2.855h11.2l.066 7.9 10.134-7.9h18.466c1.6 0 2.867-1.195 2.867-2.789v-30.74a2.84 2.84 0 0 0-2.867-2.855H35.267z"/>
        <path fill="#FFF" d="M66.133 24.167H43c-.533 0-1-.465-1-.996 0-.53.467-.996 1-.996h23.133c.534 0 1 .465 1 .996 0 .531-.466.996-1 .996zM66.133 30.541H43c-.533 0-1-.465-1-.996 0-.531.467-.996 1-.996h23.133c.534 0 1 .465 1 .996 0 .531-.466.996-1 .996zM66.133 36.981H43c-.533 0-1-.465-1-.996 0-.53.467-.996 1-.996h23.133c.534 0 1 .465 1 .996 0 .531-.466.996-1 .996z"/>
        <path fill="#000112" d="M28.733 80.469l-10.466-8.233h-14.2C1.8 72.236 0 70.443 0 68.186V43.62c0-2.257 1.8-4.05 4.067-4.05h27.266c.534 0 1 .465 1 .996 0 .532-.466.996-1 .996H4.067c-1.134 0-2.067.93-2.067 2.058v24.566c0 1.129.933 2.058 2.067 2.058h14.866l7.8 6.108.067-6.108h9.133c1.134 0 2.067-.93 2.067-2.058V48.998c0-.53.467-.996 1-.996.533 0 1 .465 1 .996v19.188c0 2.257-1.8 4.05-4.067 4.05H28.8l-.067 8.233z"/>
        <path fill="#000112" d="M18.267 60.352v-.863c0-.73.133-1.395.466-1.926.334-.531.934-1.129 1.734-1.726.8-.598 1.333-1.062 1.6-1.394.266-.332.4-.797.4-1.195 0-.532-.2-.864-.534-1.13-.4-.265-.866-.398-1.533-.398-1.133 0-2.467.399-4 1.13l-1.267-2.524c1.734-.996 3.6-1.46 5.534-1.46 1.6 0 2.866.398 3.8 1.128.933.797 1.4 1.793 1.4 3.054 0 .863-.2 1.594-.6 2.191-.4.598-1.134 1.328-2.2 2.059-.734.53-1.2.995-1.4 1.261-.2.266-.267.664-.267 1.129v.664h-3.133zm-.334 3.983c0-.664.2-1.128.534-1.46.333-.332.866-.532 1.533-.532.667 0 1.133.2 1.467.532.333.332.533.796.533 1.46 0 .598-.2 1.063-.533 1.46-.334.333-.867.532-1.467.532-.667 0-1.133-.2-1.533-.531-.334-.332-.534-.863-.534-1.46z"/>
        <path fill="#5F73FA" d="M11.667 22.64c-5.134 0-9.267-4.116-9.267-9.229C2.4 8.3 6.6 4.25 11.667 4.25c5.066 0 9.266 4.117 9.266 9.229 0 5.112-4.133 9.162-9.266 9.162zm0-17.727c-4.734 0-8.6 3.85-8.6 8.565 0 4.714 3.866 8.565 8.6 8.565 4.733 0 8.6-3.851 8.6-8.565 0-4.714-3.867-8.565-8.6-8.565z"/>
        <path fill="#5F73FA" d="M6.333 12.88H6.2c-.133-.066-.2-.265-.133-.398.266-.664.866-1.129 1.6-1.129.733-.066 1.466.465 1.733 1.129.067.2 0 .332-.2.398-.2.067-.333 0-.4-.199-.133-.465-.6-.73-1.067-.73-.466 0-.8.332-1 .73-.133.133-.266.2-.4.2zM13.933 12.88H13.8c-.2-.066-.267-.265-.2-.398.267-.664.867-1.129 1.6-1.129.733-.066 1.467.465 1.733 1.129.067.2 0 .332-.2.398-.2.067-.333 0-.4-.199-.133-.465-.6-.73-1.066-.73-.467 0-.8.332-1 .73-.067.133-.2.2-.334.2zM11.467 15.669H13.6a2.144 2.144 0 0 1-2.133 2.124c-1.134 0-2.067-.93-2.134-2.058l2.134-.066zM78 10.357c-.2 0-.333-.132-.333-.332V6.108c0-.93-.734-1.66-1.667-1.66H61.733l.067-2.257-2.667 2.257h-3.266c-.934 0-1.667.73-1.667 1.66V9.03c0 .199-.133.331-.333.331s-.334-.132-.334-.331V6.108c0-1.328 1-2.324 2.334-2.324h3l3.6-3.054-.067 3.054H76c1.333 0 2.333.996 2.333 2.324v3.917c0 .2-.133.332-.333.332zM74.267 65.331h-3.4c-.2 0-.334-.133-.334-.332s.134-.332.334-.332h3.4c.666 0 1.266-.597 1.266-1.261 0-.664-.6-1.262-1.266-1.262h-4.934c-.2 0-.333-.133-.333-.332s.133-.332.333-.332h4.934a1.93 1.93 0 0 1 1.933 1.926 1.93 1.93 0 0 1-1.933 1.925z"/>
        <path fill="#5F73FA" d="M74.267 68.584h-3.4c-.2 0-.334-.132-.334-.332 0-.199.134-.332.334-.332h3.4c.666 0 1.266-.597 1.266-1.261 0-.664-.6-1.261-1.266-1.261H70.8c-.2 0-.333-.133-.333-.332 0-.2.133-.332.333-.332h3.467a1.93 1.93 0 0 1 1.933 1.925 1.93 1.93 0 0 1-1.933 1.925z"/>
        <path fill="#5F73FA" d="M74.267 71.771h-3.4c-.2 0-.334-.132-.334-.332 0-.199.134-.332.334-.332h3.4c.666 0 1.266-.597 1.266-1.261 0-.664-.6-1.262-1.266-1.262H70.8c-.2 0-.333-.132-.333-.332 0-.199.133-.332.333-.332h3.467a1.93 1.93 0 0 1 1.933 1.926 1.93 1.93 0 0 1-1.933 1.925z"/>
        <path fill="#5F73FA" d="M74.067 74.958h-9.934c-.266 0-1.466-.199-2.133-1.328a2.256 2.256 0 0 1-.4-1.261V62.078c0-.2.133-.332.333-.332s.334.133.334.332v10.29c0 .2.066.532.266.864.534.863 1.4 1.062 1.6 1.062h9.934c.666 0 1.266-.597 1.266-1.261 0-.664-.6-1.262-1.266-1.262h-3.4c-.2 0-.334-.132-.334-.332 0-.199.134-.332.334-.332h3.4A1.93 1.93 0 0 1 76 73.033a1.93 1.93 0 0 1-1.933 1.925z"/>
        <path fill="#5F73FA" d="M60.6 75.29h-4.267c-.933 0-1.666-.73-1.666-1.66V61.016c0-.93.733-1.66 1.666-1.66H60.6c.933 0 1.667.73 1.667 1.66v12.548c0 .996-.734 1.726-1.667 1.726zm-4.267-15.27c-.533 0-1 .464-1 .996V73.63c0 .531.467.996 1 .996H60.6c.533 0 1-.465 1-1.062V61.016c0-.532-.467-.996-1-.996h-4.267z"/>
        <path fill="#5F73FA" d="M58.467 64.468c-.8 0-1.534-.664-1.534-1.46 0-.864.667-1.528 1.534-1.528.866 0 1.466.664 1.466 1.527 0 .797-.666 1.461-1.466 1.461zm0-2.324a.88.88 0 0 0-.867.863c0 .465.4.797.867.797.4 0 .8-.265.8-.797 0-.53-.334-.863-.8-.863zM67.2 67.655c-.133 0-.2-.066-.267-.133-.133-.133-.066-.332.067-.465 1.133-.73 1.733-1.593 1.867-2.523a2.807 2.807 0 0 0-.6-2.257l-.134-.133.067-.199c.2-.664.467-1.328.667-1.925.2-.664.466-1.328.666-1.992.334-.93.334-1.926-.066-2.59-.2-.398-.534-.73-.934-.796-.466-.133-1.2.199-1.866.863-.6 1.859-1.2 3.585-1.8 5.444l-.534 1.66h-2.4c-.2 0-.333-.133-.333-.332 0-.2.133-.332.333-.332H63.8l.4-1.195a178.716 178.716 0 0 0 1.867-5.51v-.067l.066-.066c.667-.664 1.734-1.328 2.6-1.063.534.133 1 .531 1.334 1.129.466.863.466 1.992.066 3.12-.2.664-.466 1.328-.666 1.926l-.6 1.792c.533.797.733 1.727.6 2.656-.134 1.129-.867 2.191-2.134 2.988 0-.066-.066 0-.133 0z"/>
        <g fill="#5F73FA">
            <path d="M15.733 29.479c.467 0 .8.199 1.134.53.333.333.466.798.466 1.395 0 .863-.133 1.594-.4 2.125-.266.53-.533.93-.866 1.261a3.784 3.784 0 0 1-1.2.797l-.267-.465c.333-.133.6-.332.867-.597.2-.2.4-.399.6-.664.2-.266.266-.598.266-.996v-.2c0-.066-.066-.066-.066-.132L16.2 32.4c-.133.133-.133.133-.267.133-.133.066-.266.066-.4.066-.466 0-.8-.133-1.066-.398-.267-.266-.4-.598-.4-1.062 0-.465.133-.864.466-1.13.334-.331.734-.53 1.2-.53zM20.6 29.479c.467 0 .8.199 1.133.53.334.333.467.798.467 1.395 0 .863-.133 1.594-.4 2.125-.267.53-.533.93-.867 1.261a3.784 3.784 0 0 1-1.2.797l-.266-.465c.333-.133.6-.332.866-.597.2-.2.4-.399.6-.664.2-.266.267-.598.267-.996v-.2c0-.066-.067-.066-.067-.132l-.066-.133c-.067.133-.134.133-.2.133-.134.066-.267.066-.4.066-.467 0-.8-.133-1.067-.398-.267-.266-.4-.598-.4-1.062 0-.465.133-.864.467-1.13.333-.331.733-.53 1.133-.53z"/>
        </g>
        <path fill="#000112" d="M29.4 2.789c-.4 0-.667-.266-.667-.664V.664C28.733.266 29 0 29.4 0s.667.266.667.664v1.46c0 .399-.267.665-.667.665zM29.4 7.502c-.4 0-.667-.265-.667-.663V5.444c0-.398.267-.664.667-.664s.667.266.667.664V6.84c0 .398-.267.663-.667.663zM32.467 4.448h-1.4c-.4 0-.667-.265-.667-.664 0-.398.267-.664.667-.664h1.4c.4 0 .666.266.666.664 0 .399-.266.664-.666.664zM27.733 4.448h-1.466c-.4 0-.667-.265-.667-.664 0-.398.267-.664.667-.664h1.466c.4 0 .667.266.667.664 0 .399-.267.664-.667.664z"/>
        <ellipse cx="72.6" cy="16.399" fill="#FFF" rx="2.067" ry="2.058"/>
    </g>
</svg>
