<svg xmlns="http://www.w3.org/2000/svg" width="80" height="78" viewBox="0 0 80 78">
    <g fill="none" fill-rule="evenodd">
        <path fill="#5F73FA" fill-rule="nonzero" d="M69.417 40.858H12.661v-9.35l2.898-3.576h50.205l3.15 1.38.692 3.514s-.315 8.157-.189 8.032z"/>
        <g fill-rule="nonzero">
            <g fill="#000112">
                <path d="M69.795 69.344h3.843V30.19c0-2.823-2.33-5.145-5.166-5.145H24.19v2.886h43.905l.756.879 1.008 1.568v7.843" opacity=".2"/>
                <path d="M75.654 5.532c-.378 0-.63-.25-.63-.627V3.336c0-.376.252-.627.63-.627.377 0 .63.25.63.627v1.569c0 .376-.253.627-.63.627zM75.654 10.74c-.378 0-.63-.25-.63-.627V8.544c0-.376.252-.627.63-.627.377 0 .63.25.63.627v1.569c0 .376-.253.627-.63.627zM79.055 7.352H77.48c-.378 0-.63-.25-.63-.627s.252-.628.63-.628h1.575c.378 0 .63.251.63.628 0 .376-.252.627-.63.627zM73.827 7.352h-1.575c-.378 0-.63-.25-.63-.627s.252-.628.63-.628h1.575c.378 0 .63.251.63.628 0 .376-.252.627-.63.627z"/>
                <g>
                    <path d="M4.031 62.63c-.377 0-.63-.25-.63-.627v-1.569c0-.376.253-.627.63-.627.378 0 .63.25.63.627v1.569c0 .376-.252.627-.63.627zM4.031 67.838c-.377 0-.63-.251-.63-.628v-1.568c0-.377.253-.628.63-.628.378 0 .63.251.63.628v1.568c0 .377-.252.628-.63.628zM7.496 64.45H5.858c-.378 0-.63-.251-.63-.628 0-.376.252-.627.63-.627h1.638c.378 0 .63.25.63.627s-.252.628-.63.628zM2.205 64.45H.63c-.378 0-.63-.251-.63-.628 0-.376.252-.627.63-.627h1.575c.378 0 .63.25.63.627s-.252.628-.63.628z"/>
                </g>
                <path d="M76.976 77.94a2.522 2.522 0 0 1-2.52-2.51c0-1.38 1.135-2.51 2.52-2.51 1.386 0 2.52 1.13 2.52 2.51s-1.134 2.51-2.52 2.51zm0-3.765c-.693 0-1.26.565-1.26 1.255a1.261 1.261 0 0 0 2.52 0c0-.69-.567-1.255-1.26-1.255zM43.024 11.995a2.522 2.522 0 0 1-2.52-2.51c0-1.38 1.134-2.51 2.52-2.51 1.385 0 2.52 1.13 2.52 2.51s-1.135 2.51-2.52 2.51zm0-3.765c-.693 0-1.26.565-1.26 1.255a1.261 1.261 0 0 0 2.52 0c0-.69-.567-1.255-1.26-1.255z"/>
            </g>
            <path fill="#000112" d="M69.732 32.575h8.378v1.883h-8.378z"/>
            <g transform="translate(17.008 30.693)">
                <ellipse cx="3.717" cy="3.639" fill="#FFF" rx="2.394" ry="2.384"/>
                <path fill="#000112" d="M3.717 6.965C1.89 6.965.378 5.459.378 3.639S1.89.314 3.717.314c1.826 0 3.338 1.506 3.338 3.325 0 1.82-1.512 3.326-3.338 3.326zm0-4.769c-.82 0-1.45.628-1.45 1.443 0 .816.63 1.443 1.45 1.443.818 0 1.448-.627 1.448-1.443 0-.815-.63-1.443-1.448-1.443z"/>
            </g>
            <g transform="translate(25.197 30.693)">
                <ellipse cx="3.591" cy="3.639" fill="#FFF" rx="2.394" ry="2.384"/>
                <path fill="#000112" d="M3.59 6.965C1.765 6.965.253 5.459.253 3.639S1.764.314 3.591.314c1.826 0 3.338 1.506 3.338 3.325 0 1.82-1.512 3.326-3.338 3.326zm0-4.769c-.818 0-1.448.628-1.448 1.443 0 .816.63 1.443 1.449 1.443.818 0 1.448-.627 1.448-1.443 0-.815-.63-1.443-1.448-1.443z"/>
            </g>
            <g transform="translate(33.386 30.693)">
                <ellipse cx="3.402" cy="3.639" fill="#FFF" rx="2.394" ry="2.384"/>
                <path fill="#000112" d="M3.402 6.965C1.575 6.965.063 5.459.063 3.639S1.575.314 3.402.314C5.228.314 6.74 1.82 6.74 3.639c0 1.82-1.512 3.326-3.338 3.326zm0-4.769c-.82 0-1.45.628-1.45 1.443 0 .816.63 1.443 1.45 1.443.818 0 1.448-.627 1.448-1.443 0-.815-.63-1.443-1.448-1.443z"/>
            </g>
            <path fill="#000112" d="M35.339 28.246a.967.967 0 0 1-.945-.941c0-.816-.63-1.443-1.45-1.443-.818 0-1.448.627-1.448 1.443 0 .502-.44.941-.945.941a.967.967 0 0 1-.945-.941c0-1.82 1.512-3.326 3.339-3.326s3.338 1.506 3.338 3.326c0 .502-.44.941-.944.941zM43.402 28.246a.967.967 0 0 1-.945-.941c0-.816-.63-1.443-1.45-1.443-.818 0-1.448.627-1.448 1.443 0 .502-.44.941-.945.941a.967.967 0 0 1-.945-.941c0-1.82 1.512-3.326 3.339-3.326s3.338 1.506 3.338 3.326c0 .502-.44.941-.944.941zM51.402 28.246a.967.967 0 0 1-.945-.941c0-.816-.63-1.443-1.45-1.443-.818 0-1.448.627-1.448 1.443 0 .502-.44.941-.945.941a.967.967 0 0 1-.945-.941c0-1.82 1.512-3.326 3.339-3.326s3.338 1.506 3.338 3.326c0 .502-.44.941-.944.941z"/>
        </g>
        <g fill-rule="nonzero">
            <path fill="#000112" d="M65.26 29.313c1.89 0 3.464 1.568 3.464 3.45v39.78c0 1.883-1.574 3.452-3.464 3.452H17.07c-1.889 0-3.464-1.569-3.464-3.451v-39.78c0-1.883 1.575-3.451 3.465-3.451H65.26zm0-1.883H17.07c-2.96 0-5.353 2.385-5.353 5.334v39.78c0 2.949 2.393 5.333 5.354 5.333H65.26c2.96 0 5.354-2.384 5.354-5.333v-39.78c0-2.95-2.394-5.334-5.354-5.334z"/>
            <path fill="#5F73FA" d="M18.709 44.371h12.405v27.701H18.709z"/>
            <path fill="#000112" d="M32.125 72.315H17.764V43.43h14.361v28.885zm-12.471-1.882h10.581v-25.12H19.654v25.12zM13.103 39.666h56.189v1.882h-56.19zM48.136 47.243H34.688c-.306 0-.573-.44-.573-.941 0-.502.267-.942.573-.942h13.448c.306 0 .573.44.573.942s-.267.94-.573.94zm0 9.583H34.688c-.306 0-.573-.439-.573-.94 0-.503.267-.942.573-.942h13.448c.306 0 .573.44.573.941 0 .502-.267.941-.573.941zm0 10.206H34.688c-.306 0-.573-.44-.573-.941 0-.502.267-.941.573-.941h13.448c.306 0 .573.439.573.94 0 .503-.267.942-.573.942zm-2.91-16.275H34.68c-.302 0-.565-.44-.565-.942s.263-.94.565-.94h10.545c.302 0 .565.438.565.94s-.263.942-.565.942zm0 9.583H34.68c-.302 0-.565-.44-.565-.941 0-.502.263-.941.565-.941h10.545c.302 0 .565.439.565.94 0 .503-.263.942-.565.942zm0 10.206H34.68c-.302 0-.565-.44-.565-.942s.263-.94.565-.94h10.545c.302 0 .565.438.565.94s-.263.942-.565.942zM62.975 47.654h-6.087c-1.151 0-2.158-.51-2.158-1.093s1.007-1.094 2.158-1.094h6.087c1.151 0 0 .51 0 1.094 0 .583 1.151 1.093 0 1.093zm0 9.477h-6.087c-1.151 0-2.158-.51-2.158-1.094 0-.583 1.007-1.093 2.158-1.093h6.087c1.151 0 0 .51 0 1.093 0 .584 1.151 1.094 0 1.094zm0 10.205h-6.087c-1.151 0-2.158-.51-2.158-1.093s1.007-1.093 2.158-1.093h6.087c1.151 0 0 .51 0 1.093s1.151 1.093 0 1.093zm.007-16.766h-6.123c-1.135 0-2.13-.51-2.13-1.093 0-.584.995-1.094 2.13-1.094h6.123c1.135 0 0 .51 0 1.094 0 .583 1.135 1.093 0 1.093zm0 10.206h-6.123c-1.135 0-2.13-.51-2.13-1.094 0-.583.995-1.093 2.13-1.093h6.123c1.135 0 0 .51 0 1.093s1.135 1.094 0 1.094zm0 10.205h-6.123c-1.135 0-2.13-.51-2.13-1.093s.995-1.094 2.13-1.094h6.123c1.135 0 0 .51 0 1.094 0 .583 1.135 1.093 0 1.093z"/>
            <path fill="#000112" d="M73.7 70.41h-3.779v-1.882h3.78a3.81 3.81 0 0 0 3.842-3.827V24.92a3.81 3.81 0 0 0-3.842-3.828H28.66a3.81 3.81 0 0 0-3.842 3.828v3.137h-1.89V24.92c0-3.138 2.583-5.71 5.732-5.71h45.04c3.15 0 5.732 2.572 5.732 5.71V64.7c0 3.137-2.583 5.71-5.732 5.71z"/>
            <path fill="#5F73FA" d="M57.512 18.332l2.394-7.09c.063-.188.251-.25.377-.188.19.063.252.25.19.376l-1.386 4.204 5.039-5.71h-3.654l1.45-4.454-4.914 5.71h1.764c.189 0 .315.125.315.313s-.126.314-.315.314h-3.15l8-9.16-2.205 6.587h4.158l-8.063 9.098z"/>
        </g>
        <path stroke="#5F73FA" d="M16.984 11.195c-1.364.142-2.502-1.184-2.38-2.774.093-1.218.934-2.2 1.98-2.308 1.364-.142 2.502 1.184 2.38 2.774-.093 1.218-.935 2.2-1.98 2.308m-8.027 0c-1.364.142-2.502-1.184-2.38-2.774.093-1.218.934-2.2 1.98-2.308 1.364-.142 2.501 1.184 2.38 2.774-.093 1.218-.935 2.2-1.98 2.308m12.17-9.102l-.064-.169a.02.02 0 0 0-.01-.011l-.162-.075c-1.332-.618-3.21-.77-4.871-.838h-1.872c-.02 0-.027.03-.008.038l3.844 1.884c.022.01.01.043-.014.037a20.17 20.17 0 0 0-5.2-.695c-1.719 0-3.46.232-5.183.69-.024.007-.036-.026-.014-.037l3.98-1.878c.019-.01.012-.039-.009-.039H9.521c-1.662.068-3.54.22-4.871.838l-.162.075a.02.02 0 0 0-.01.011l-.065.169c-1.363 3.528-1.75 9.517-1.337 13.27l.021.196.154.121c2.128 1.687 4.974 2.554 6.765 2.784l.231.03a.163.163 0 0 0 .174-.107l1.166-3.182a.168.168 0 0 0-.128-.224l-.358-.057c-1.247-.2-3.014-.73-4.507-2.114-.031-.03 0-.083.04-.068.12.046.255.1.392.155.338.134.687.274.915.329 1.601.389 3.225.586 4.83.586v-.029h.003v.03c1.6 0 3.224-.198 4.825-.587.228-.055.577-.195.915-.33a25.4 25.4 0 0 1 .393-.154c.04-.015.07.038.039.068-1.488 1.377-3.257 1.906-4.507 2.106l-.357.057a.167.167 0 0 0-.128.224l1.165 3.19a.163.163 0 0 0 .174.107l.232-.03c1.79-.23 4.636-1.097 6.765-2.784l.153-.121.022-.197c.413-3.752.025-9.741-1.337-13.27"/>
    </g>
</svg>
