<svg xmlns="http://www.w3.org/2000/svg" width="83" height="21" viewBox="0 0 83 21">
    <g fill="none" fill-rule="nonzero">
        <path fill="#139AD6" d="M63.958 5h-4.464c-.262 0-.525.253-.656.505L57 16.621c0 .253.131.379.394.379h2.363c.263 0 .394-.126.394-.379l.525-3.158c0-.252.263-.505.657-.505h1.444c3.02 0 4.726-1.39 5.12-4.169.263-1.136 0-2.147-.525-2.778C66.584 5.379 65.402 5 63.958 5m.525 4.168c-.262 1.516-1.444 1.516-2.625 1.516h-.788l.525-2.905c0-.126.131-.253.394-.253h.263c.787 0 1.575 0 1.969.506.262.126.262.505.262 1.136"/>
        <path fill="#263B80" d="M31.958 5h-4.464c-.262 0-.525.253-.656.505L25 16.621c0 .253.131.379.394.379h2.1c.263 0 .526-.253.657-.505l.525-3.032c0-.252.263-.505.657-.505h1.444c3.02 0 4.726-1.39 5.12-4.169.263-1.136 0-2.147-.525-2.778C34.584 5.379 33.534 5 31.958 5m.525 4.168c-.262 1.516-1.444 1.516-2.625 1.516H29.2l.525-2.905c0-.126.132-.253.394-.253h.263c.788 0 1.575 0 1.97.506.13.126.262.505.13 1.136M45.461 9.273h-2.156c-.135 0-.404.136-.404.272l-.135.682-.135-.272C42.092 9.273 41.149 9 40.071 9c-2.426 0-4.582 1.91-4.987 4.5-.27 1.364.135 2.59.809 3.41.674.817 1.617 1.09 2.83 1.09 2.021 0 3.1-1.227 3.1-1.227l-.135.682c0 .272.134.409.404.409h2.021c.27 0 .54-.273.674-.546L46 9.682c-.135-.137-.404-.41-.539-.41m-3.1 4.364c-.269 1.228-1.212 2.182-2.56 2.182-.674 0-1.213-.273-1.482-.545-.27-.41-.405-.955-.405-1.637.135-1.227 1.213-2.181 2.426-2.181.674 0 1.078.272 1.482.545.405.41.54 1.09.54 1.636"/>
        <path fill="#139AD6" d="M77.461 9.273h-2.156c-.135 0-.404.136-.404.272l-.135.682-.135-.272C74.092 9.273 73.149 9 72.071 9c-2.426 0-4.582 1.91-4.987 4.5-.27 1.364.135 2.59.809 3.41.674.817 1.617 1.09 2.83 1.09 2.021 0 3.1-1.227 3.1-1.227l-.135.682c0 .272.134.409.404.409h2.021c.27 0 .54-.273.674-.546L78 9.682c-.135-.137-.27-.41-.539-.41m-3.1 4.364c-.269 1.228-1.212 2.182-2.56 2.182-.674 0-1.213-.273-1.482-.545-.27-.41-.405-.955-.405-1.637.135-1.227 1.213-2.181 2.426-2.181.674 0 1.078.272 1.482.545.54.41.674 1.09.54 1.636"/>
        <path fill="#263B80" d="M56.673 9.576H54.47c-.26 0-.39.13-.519.26l-2.853 4.4-1.297-4.142c-.13-.259-.26-.388-.648-.388h-2.075c-.26 0-.39.259-.39.518l2.335 6.858-2.205 3.106c-.13.26 0 .647.26.647h2.075c.259 0 .389-.13.518-.259l7.133-10.223c.39-.388.13-.777-.13-.777"/>
        <path fill="#139AD6" d="M79.498 5.824L77.683 17.47c0 .258.13.388.389.388h1.816c.259 0 .518-.259.648-.518l1.816-11.388c0-.259-.13-.388-.39-.388h-2.075c-.13-.13-.259 0-.389.259"/>
        <path fill="#263B80" d="M15.563 1.553C14.655.518 12.969 0 10.633 0H4.15c-.39 0-.778.388-.908.776L.648 17.73c0 .389.26.647.52.647h4.02l1.037-6.34v.258c.13-.388.519-.776.908-.776h1.945c3.761 0 6.614-1.553 7.522-5.824v-.388c-.13 0-.13 0 0 0 .13-1.682-.13-2.718-1.038-3.753"/>
        <path fill="#139AD6" d="M16.478 5v.378c-.893 4.286-3.699 5.672-7.397 5.672H7.168c-.383 0-.765.379-.893.757L5 19.496c0 .252.128.504.51.504h3.316c.383 0 .765-.252.765-.63v-.126l.638-3.908v-.252c0-.378.382-.63.765-.63h.51c3.188 0 5.739-1.26 6.377-5.042.255-1.513.127-2.9-.638-3.782a1.302 1.302 0 0 0-.765-.63"/>
        <path fill="#232C65" d="M15.778 5.4c-.136 0-.272-.133-.408-.133-.135 0-.271 0-.407-.134C14.42 5 13.877 5 13.198 5H7.9c-.136 0-.271 0-.407.133a.731.731 0 0 0-.408.667L6 12.733V13c.136-.4.543-.8.95-.8h2.038c3.938 0 6.926-1.6 7.876-6 0-.133 0-.267.136-.4-.272-.133-.407-.267-.679-.267-.407-.133-.407-.133-.543-.133"/>
    </g>
</svg>
