<svg xmlns="http://www.w3.org/2000/svg" width="47" height="28" viewBox="0 0 47 28">
    <g fill="none" fill-rule="evenodd">
        <path fill="#F7A826" fill-rule="nonzero" d="M32.84 27.998l.724-.02.715-.051.7-.09.697-.122.677-.156.667-.189.654-.222.639-.25.625-.283.606-.307.587-.34.573-.363.55-.392.53-.416.51-.439.488-.467.47-.486.44-.51.416-.529.393-.547.364-.571.342-.586.307-.604.284-.623.251-.637.223-.652.19-.665.155-.675.124-.694.09-.698.052-.713.018-.722-.018-.718-.053-.708-.09-.698-.123-.685-.156-.675-.19-.66-.222-.652-.25-.633-.285-.618-.307-.604-.342-.58-.364-.572-.393-.548-.416-.524-.44-.51-.47-.485-.487-.463-.512-.439-.53-.415-.55-.392-.572-.364-.587-.335-.606-.307-.625-.283-.64-.25L37.02.64 36.353.45l-.677-.155-.696-.123-.701-.09-.715-.052-.724-.019-.72.02-.715.051-.7.09-.692.123-.677.155-.668.19-.648.221-.64.25-.62.283-.601.307-.587.335-.568.364-.55.392-.53.415-.506.439-.488.463-.464.486-.44.51-.417.523-.388.548-.365.571-.336.58-.312.605-.28.618-.25.633-.218.651-.19.661-.156.675-.123.685-.09.698-.052.708-.019.718.019.722.052.713.09.698.123.694.156.675.19.665.217.652.251.637.28.623.312.604.336.586.365.571.388.547.417.53.44.509.464.486.488.467.506.44.53.415.55.392.568.363.587.34.601.307.62.283.64.25.648.222.668.189.677.156.691.122.701.09.715.052z"/>
        <path fill="#ED1C2E" fill-rule="nonzero" d="M14.062 27.998l.72-.02.715-.051.7-.09.692-.122.677-.156.667-.189.649-.222.64-.25.62-.283.6-.307.588-.34.568-.363.55-.392.53-.416.506-.439.488-.467.464-.486.44-.51.417-.529.388-.547.365-.571.336-.586.312-.604.28-.623.25-.637.218-.652.19-.665.156-.675.123-.694.09-.698.052-.713.019-.722-.019-.718-.052-.708-.09-.698-.123-.685-.157-.675-.189-.66-.217-.652-.252-.633-.279-.618-.312-.604-.336-.58-.365-.572-.388-.548-.417-.524-.44-.51-.464-.485-.488-.463-.507-.439-.53-.415-.549-.392-.568-.364-.587-.335-.602-.307-.62-.283-.64-.25-.648-.222-.667-.189-.677-.155-.692-.123-.7-.09-.715-.052-.72-.019-.724.02-.715.051-.701.09-.696.123-.677.155-.668.19-.653.221-.64.25-.624.283-.606.307-.587.335-.573.364-.55.392-.53.415-.511.439-.488.463-.469.486-.44.51-.416.523-.393.548-.365.571-.34.58-.309.605-.284.618-.25.633-.223.651-.19.661-.156.675-.123.685-.09.698-.052.708L0 13.98l.02.722.051.713.09.698.123.694.156.675.19.665.223.652.25.637.284.623.308.604.341.586.365.571.393.547.416.53.44.509.47.486.487.467.511.44.53.415.55.392.573.363.587.34.606.307.625.283.639.25.653.222.668.189.677.156.696.122.7.09.716.052z"/>
        <path fill="#F7A826" fill-rule="nonzero" d="M21.808 5.378h7.457v-.76h-6.813zM20.69 7.068h8.575v-.76H21.14zM19.857 8.753h9.408v-.76h-9.076zM19.284 10.443h9.981v-.76h-9.744zM19.616 18.61h9.673v-.76h-9.91zM20.33 20.299h8.959v-.76h-9.313zM21.334 21.984h7.955v-.76h-8.433zM22.717 23.674h6.572v-.765h-7.24zM18.948 12.128h10.317v-.76h-10.17zM25.236 16.924h3.934v-.76h-3.792zM25.548 15.239h3.622v-.765h-3.48zM18.688 14.474h1.023v.765h-.976z"/>
        <path fill="#FFF" fill-rule="nonzero" d="M16.78 13.554l-.067-.005-.066-.01-.061-.009-.062-.01-.057-.009-.061-.009-.062-.01-.066-.009-.066-.01-.076-.004-.085-.005-.09-.005h-.1l-.109.005-.123.01-.137.009-.095.014-.09.014-.08.029-.071.028-.066.033-.062.038-.048.047-.042.042-.029.052-.023.052-.01.057v.057l.015.061.018.061.039.062.047.061.095.09.113.07.133.062.142.052.151.047.156.052.157.057.151.061.142.08.133.1.118.117.1.147.076.179.047.213.019.254-.02.298-.032.222-.057.193-.076.18-.095.155-.109.137-.123.118-.132.104-.147.09-.152.07-.156.062-.16.047-.166.038-.161.028-.157.014-.156.01-.147.004h-.203l-.19-.004h-.165l-.157-.005-.142-.005-.127-.01-.114-.009-.11-.014-.099-.01-.09-.018-.09-.014-.08-.024-.08-.019-.076-.028-.076-.028-.08-.029.213-1.043.042.01.052.014.067.019.08.019.085.018.095.02.104.023.114.019.118.019.123.018.128.015.133.014.137.005.137.004h.138l.137-.004.137-.029.11-.038.084-.052.067-.066.047-.066.038-.075.024-.076.019-.07.009-.137-.043-.118-.08-.095-.118-.08-.142-.07-.166-.072-.185-.066-.185-.075-.189-.085-.18-.1-.166-.122-.151-.146-.119-.18-.085-.212-.042-.255.005-.302.023-.184.033-.175.048-.16.056-.151.076-.142.085-.123.1-.118.118-.104.138-.09.151-.075.17-.07.19-.053.213-.042.232-.033.256-.019.28-.005h.174l.161.005.147.005.133.005.118.009.109.01.094.009.086.01.08.009.066.014.062.01.057.009.047.01.043.004.042.01.038.004z"/>
        <path stroke="#FFF" stroke-width=".216" d="M16.78 13.554l-.067-.005-.066-.01-.061-.009-.062-.01-.057-.009-.061-.009-.062-.01-.066-.009-.066-.01-.076-.004-.085-.005-.09-.005h-.1l-.109.005-.123.01-.137.009-.095.014-.09.014-.08.029-.071.028-.066.033-.062.038-.048.047-.042.042-.029.052-.023.052-.01.057v.057l.015.061.018.061.039.062.047.061.095.09.113.07.133.062.142.052.151.047.156.052.157.057.151.061.142.08.133.1.118.117.1.147.076.179.047.213.019.254-.02.298-.032.222-.057.193-.076.18-.095.155-.109.137-.123.118-.132.104-.147.09-.152.07-.156.062-.16.047-.166.038-.161.028-.157.014-.156.01-.147.004h-.203l-.19-.004h-.165l-.157-.005-.142-.005-.127-.01-.114-.009-.11-.014-.099-.01-.09-.018-.09-.014-.08-.024-.08-.019-.076-.028-.076-.028-.08-.029.213-1.043.042.01.052.014.067.019.08.019.085.018.095.02.104.023.114.019.118.019.123.018.128.015.133.014.137.005.137.004h.138l.137-.004.137-.029.11-.038.084-.052.067-.066.047-.066.038-.075.024-.076.019-.07.009-.137-.043-.118-.08-.095-.118-.08-.142-.07-.166-.072-.185-.066-.185-.075-.189-.085-.18-.1-.166-.122-.151-.146-.119-.18-.085-.212-.042-.255.005-.302.023-.184.033-.175.048-.16.056-.151.076-.142.085-.123.1-.118.118-.104.138-.09.151-.075.17-.07.19-.053.213-.042.232-.033.256-.019.28-.005h.174l.161.005.147.005.133.005.118.009.109.01.094.009.086.01.08.009.066.014.062.01.057.009.047.01.043.004.042.01.038.004-.241 1.067"/>
        <path fill="#FFF" fill-rule="nonzero" d="M17.902 11.321h1.311l-.194 1.142h.791l-.17 1.067-.834-.023-.454 2.634-.005.094.024.08.047.061.061.052.086.033.095.029.103.019.114.009.104-.005.095-.01.086-.013.075-.019.062-.019.042-.014.029-.01.01-.004-.167.878-.033.023-.033.02-.033.018-.033.019-.033.014-.038.014-.043.014-.043.015-.047.014-.047.009-.057.01-.057.01-.061.008-.071.01-.076.01-.08.009h-.36l-.19-.014-.165-.02-.152-.028-.128-.033-.109-.042-.09-.047-.08-.057-.062-.061-.047-.066-.033-.08-.024-.081-.014-.09-.005-.099v-.104l.014-.108.014-.118z"/>
        <path stroke="#FFF" stroke-width=".216" d="M17.902 11.321h1.311l-.194 1.142h.791l-.17 1.067-.834-.023-.454 2.634-.005.094.024.08.047.061.061.052.086.033.095.029.103.019.114.009.104-.005.095-.01.086-.013.075-.019.062-.019.042-.014.029-.01.01-.004-.167.878-.033.023-.033.02-.033.018-.033.019-.033.014-.038.014-.043.014-.043.015-.047.014-.047.009-.057.01-.057.01-.061.008-.071.01-.076.01-.08.009h-.36l-.19-.014-.165-.02-.152-.028-.128-.033-.109-.042-.09-.047-.08-.057-.062-.061-.047-.066-.033-.08-.024-.081-.014-.09-.005-.099v-.104l.014-.108.014-.118.905-5.15"/>
        <path fill="#FFF" fill-rule="nonzero" d="M20.856 15.31l-.014.08-.004.085.009.09.019.09.033.089.038.085.052.09.057.08.066.08.071.07.076.072.085.056.085.052.095.043.095.033.094.019.123.019.119.014.123.014.123.01.123.004h.128l.123-.005.128-.009.128-.019.128-.024.132-.028.128-.042.132-.052.138-.057.132-.075.138-.08-.19 1.16-.076.038-.075.038-.076.028-.071.029-.071.023-.076.024-.076.019-.08.014-.085.014-.095.01-.1.009-.108.01-.123.004h-.128l-.147.005h-.156l-.232-.005-.237-.024-.237-.033-.236-.056-.232-.071-.223-.09-.213-.118-.199-.137-.185-.16-.16-.193-.138-.218-.113-.25-.081-.278-.052-.317-.014-.35.024-.386.018-.15.029-.176.037-.184.053-.198.071-.203.085-.203.109-.208.132-.198.152-.189.185-.18.208-.16.237-.141.274-.118.308-.085.34-.057.384-.019.185.005.194.019.194.033.195.047.189.07.185.086.17.113.156.132.142.161.119.189.094.217.067.25.037.283.005.321-.033.359-.071.397-.024.287h-3.451l.218-.93h2.073l.01-.117-.005-.114-.01-.104-.018-.094-.034-.09-.033-.08-.047-.07-.047-.067-.057-.056-.062-.048-.07-.042-.072-.038-.075-.028-.076-.02-.08-.013-.086-.01-.09.005-.085.014-.08.019-.081.028-.08.038-.072.043-.07.052-.062.056-.062.066-.056.071-.053.075-.042.08-.043.086-.033.094-.028.095-.02.099z"/>
        <path stroke="#FFF" stroke-width=".216" d="M20.856 15.31l-.014.08-.004.085.009.09.019.09.033.089.038.085.052.09.057.08.066.08.071.07.076.072.085.056.085.052.095.043.095.033.094.019.123.019.119.014.123.014.123.01.123.004h.128l.123-.005.128-.009.128-.019.128-.024.132-.028.128-.042.132-.052.138-.057.132-.075.138-.08-.19 1.16-.076.038-.075.038-.076.028-.071.029-.071.023-.076.024-.076.019-.08.014-.085.014-.095.01-.1.009-.108.01-.123.004h-.128l-.147.005h-.156l-.232-.005-.237-.024-.237-.033-.236-.056-.232-.071-.223-.09-.213-.118-.199-.137-.185-.16-.16-.193-.138-.218-.113-.25-.081-.278-.052-.317-.014-.35.024-.386.018-.15.029-.176.037-.184.053-.198.071-.203.085-.203.109-.208.132-.198.152-.189.185-.18.208-.16.237-.141.274-.118.308-.085.34-.057.384-.019.185.005.194.019.194.033.195.047.189.07.185.086.17.113.156.132.142.161.119.189.094.217.067.25.037.283.005.321-.033.359-.071.397-.024.287h-3.451l.218-.93h2.073l.01-.117-.005-.114-.01-.104-.018-.094-.034-.09-.033-.08-.047-.07-.047-.067-.057-.056-.062-.048-.07-.042-.072-.038-.075-.028-.076-.02-.08-.013-.086-.01-.09.005-.085.014-.08.019-.081.028-.08.038-.072.043-.07.052-.062.056-.062.066-.056.071-.053.075-.042.08-.043.086-.033.094-.028.095-.02.099-.189.977"/>
        <path fill="#FFF" fill-rule="nonzero" d="M32.148 12.747l-.061-.033-.062-.029-.066-.033-.071-.033-.07-.028-.082-.028-.08-.029-.085-.028-.09-.024-.09-.019-.1-.018-.099-.014-.109-.01-.109-.01h-.35l-.123.01-.128.014-.132.024-.133.037-.133.052-.132.067-.133.084-.128.104-.123.123-.118.151-.114.175-.104.207-.1.236-.09.265-.075.302-.029.17-.019.165-.01.165.006.16.014.161.033.151.043.142.052.142.07.127.086.123.1.108.113.1.128.084.147.071.16.061.18.043.062.014.071.014.085.01.095.01.104.009H30.577l.118-.01.123-.014.123-.024.118-.033.119-.037.118-.052.109-.062.1-.075.094-.085-.213 1.26-.028.024-.029.028-.037.033-.043.028-.052.038-.067.033-.075.033-.086.028-.108.034-.124.023-.141.02-.166.018-.185.01-.213.004-.242-.005-.265-.014-.217-.023-.218-.048-.218-.07-.218-.095-.208-.113-.199-.142-.19-.165-.174-.189-.157-.212-.132-.236-.114-.264-.085-.288-.057-.317-.019-.335.01-.368.052-.392.037-.193.043-.189.047-.184.048-.175.052-.165.061-.165.062-.156.066-.146.071-.147.071-.136.08-.133.086-.122.085-.118.095-.114.095-.104.099-.099.109-.094.109-.09.113-.08.119-.075.128-.072.127-.06.133-.057.137-.052.147-.048.147-.037.151-.033.161-.029.161-.023.171-.02.17-.009.18-.004.152.004.147.01.141.014.143.019.132.019.128.028.123.024.114.028.109.028.094.029.09.028.076.028.066.024.057.019.043.019.028.01z"/>
        <path stroke="#FFF" stroke-width=".216" d="M32.148 12.747l-.061-.033-.062-.029-.066-.033-.071-.033-.07-.028-.082-.028-.08-.029-.085-.028-.09-.024-.09-.019-.1-.018-.099-.014-.109-.01-.109-.01h-.35l-.123.01-.128.014-.132.024-.133.037-.133.052-.132.067-.133.084-.128.104-.123.123-.118.151-.114.175-.104.207-.1.236-.09.265-.075.302-.029.17-.019.165-.01.165.006.16.014.161.033.151.043.142.052.142.07.127.086.123.1.108.113.1.128.084.147.071.16.061.18.043.062.014.071.014.085.01.095.01.104.009H30.577l.118-.01.123-.014.123-.024.118-.033.119-.037.118-.052.109-.062.1-.075.094-.085-.213 1.26-.028.024-.029.028-.037.033-.043.028-.052.038-.067.033-.075.033-.086.028-.108.034-.124.023-.141.02-.166.018-.185.01-.213.004-.242-.005-.265-.014-.217-.023-.218-.048-.218-.07-.218-.095-.208-.113-.199-.142-.19-.165-.174-.189-.157-.212-.132-.236-.114-.264-.085-.288-.057-.317-.019-.335.01-.368.052-.392.037-.193.043-.189.047-.184.048-.175.052-.165.061-.165.062-.156.066-.146.071-.147.071-.136.08-.133.086-.122.085-.118.095-.114.095-.104.099-.099.109-.094.109-.09.113-.08.119-.075.128-.072.127-.06.133-.057.137-.052.147-.048.147-.037.151-.033.161-.029.161-.023.171-.02.17-.009.18-.004.152.004.147.01.141.014.143.019.132.019.128.028.123.024.114.028.109.028.094.029.09.028.076.028.066.024.057.019.043.019.028.01-.237 1.307"/>
        <path fill="#FFF" fill-rule="nonzero" d="M43.805 17.519h-1.312l.095-.524v-.047l-.076.094-.08.085-.08.076-.086.066-.085.06-.085.053-.085.042-.09.043-.09.033-.09.024-.09.023-.095.014-.095.015-.09.009-.094.005h-.095l-.246-.02-.227-.051-.209-.08-.189-.11-.17-.136-.152-.16-.133-.175-.113-.198-.095-.213-.076-.221-.052-.232-.038-.24-.014-.241.005-.246.024-.24.042-.241.071-.279.086-.264.099-.24.118-.227.123-.213.142-.189.147-.17.156-.155.166-.137.175-.118.18-.104.18-.08.19-.066.189-.043.19-.028.193-.01.138.005.132.014.123.024.114.033.109.038.095.042.094.052.086.052.075.057.071.061.062.061.057.062.047.061.043.061.037.057.029.057.331-1.855h1.288z"/>
        <path stroke="#FFF" stroke-width=".216" d="M43.805 17.519h-1.312l.095-.524v-.047l-.076.094-.08.085-.08.076-.086.066-.085.06-.085.053-.085.042-.09.043-.09.033-.09.024-.09.023-.095.014-.095.015-.09.009-.094.005h-.095l-.246-.02-.227-.051-.209-.08-.189-.11-.17-.136-.152-.16-.133-.175-.113-.198-.095-.213-.076-.221-.052-.232-.038-.24-.014-.241.005-.246.024-.24.042-.241.071-.279.086-.264.099-.24.118-.227.123-.213.142-.189.147-.17.156-.155.166-.137.175-.118.18-.104.18-.08.19-.066.189-.043.19-.028.193-.01.138.005.132.014.123.024.114.033.109.038.095.042.094.052.086.052.075.057.071.061.062.061.057.062.047.061.043.061.037.057.029.057.331-1.855h1.288l-1.07 6.174"/>
        <path fill="#FCB331" fill-rule="nonzero" d="M41.66 16.376l.133-.009.123-.028.114-.033.108-.052.1-.057.095-.07.09-.08.08-.086.071-.094.067-.104.06-.109.053-.113.047-.118.038-.123.033-.127.024-.127.024-.133.014-.137v-.127l-.005-.132-.014-.123-.019-.118-.033-.113-.038-.109-.047-.094-.057-.09-.062-.076-.07-.066-.081-.056-.085-.038-.09-.023-.1-.01-.128.01-.118.018-.109.038-.109.047-.095.062-.094.075-.08.08-.081.09-.071.104-.066.109-.062.113-.052.122-.047.128-.038.127-.038.137-.028.137-.024.208.01.226.032.232.062.222.095.193.123.156.156.104z"/>
        <path fill="#FFF" fill-rule="nonzero" d="M12.585 16.471l-.19 1.048h-1.193l.034-.194.023-.174.02-.132.018-.071-.066.075-.076.076-.09.07-.1.067-.113.066-.118.056-.124.057-.127.047-.138.043-.137.033-.137.028-.142.019-.138.01-.137.004-.133-.014-.127-.019-.166-.042-.152-.048-.132-.061-.118-.07-.105-.076-.094-.085-.076-.09L8.484 17l-.056-.1-.047-.104-.038-.103-.029-.104-.019-.109-.014-.108-.01-.104v-.104l.015-.184.028-.175.048-.165.061-.16.076-.151.085-.137.1-.132.113-.118.119-.11.132-.098.137-.09.142-.075.152-.066.156-.052.161-.043.166-.028h.01l.023-.005.033-.005.052-.004.057-.01.066-.004.071-.01.08-.01.081-.009.08-.01.086-.004.076-.01.076-.004.07-.005.067-.004h.161l.113.004.105.005h.104l.085.005.066.004.048.005h.014l.01-.033.028-.085.023-.1.01-.089-.019-.104-.043-.094-.056-.085-.076-.07-.09-.062-.1-.043-.113-.028-.124-.01-.132-.004-.142-.005h-.147l-.151.005-.157.01-.15.013-.153.015-.146.019-.142.018-.138.024-.123.024-.113.023-.104.029-.086.028-.066.033-.052.028.336-1.137.104-.043.104-.038.114-.033.114-.023.113-.024.123-.019.123-.018.128-.01.133-.01.137-.004.142-.005H11.16l.165.005.166.005.133.009.142.024.146.033.152.042.147.057.142.066.142.08.132.09.119.104.104.113.095.127.07.142.048.151.029.16v.18l-.029.189z"/>
        <path stroke="#FFF" stroke-width=".216" d="M12.585 16.471l-.19 1.048h-1.193l.034-.194.023-.174.02-.132.018-.071-.066.075-.076.076-.09.07-.1.067-.113.066-.118.056-.124.057-.127.047-.138.043-.137.033-.137.028-.142.019-.138.01-.137.004-.133-.014-.127-.019-.166-.042-.152-.048-.132-.061-.118-.07-.105-.076-.094-.085-.076-.09L8.484 17l-.056-.1-.047-.104-.038-.103-.029-.104-.019-.109-.014-.108-.01-.104v-.104l.015-.184.028-.175.048-.165.061-.16.076-.151.085-.137.1-.132.113-.118.119-.11.132-.098.137-.09.142-.075.152-.066.156-.052.161-.043.166-.028h.01l.023-.005.033-.005.052-.004.057-.01.066-.004.071-.01.08-.01.081-.009.08-.01.086-.004.076-.01.076-.004.07-.005.067-.004h.161l.113.004.105.005h.104l.085.005.066.004.048.005h.014l.01-.033.028-.085.023-.1.01-.089-.019-.104-.043-.094-.056-.085-.076-.07-.09-.062-.1-.043-.113-.028-.124-.01-.132-.004-.142-.005h-.147l-.151.005-.157.01-.15.013-.153.015-.146.019-.142.018-.138.024-.123.024-.113.023-.104.029-.086.028-.066.033-.052.028.336-1.137.104-.043.104-.038.114-.033.114-.023.113-.024.123-.019.123-.018.128-.01.133-.01.137-.004.142-.005H11.16l.165.005.166.005.133.009.142.024.146.033.152.042.147.057.142.066.142.08.132.09.119.104.104.113.095.127.07.142.048.151.029.16v.18l-.029.189-.478 2.492"/>
        <path fill="#ED1C2E" fill-rule="nonzero" d="M11.444 15.239l-.005-.024-.019-.023-.028-.015-.048-.009-.052-.01-.061-.004h-.142l-.076.005-.08.01-.076.008-.076.01-.071.01-.066.014-.057.014-.052.014-.033.01-.038.014-.052.018-.052.024-.062.028-.062.033-.066.033-.061.038-.067.047-.061.048-.057.056-.052.057-.048.061-.033.066-.028.076-.014.075-.005.16.024.128.047.095.062.07.07.048.081.028.076.014.076.005.142-.005.127-.014.124-.019.108-.028.095-.033.09-.043.08-.042.072-.052.061-.047.057-.057.047-.052.038-.056.033-.057.029-.057.023-.052.015-.052.038-.136.033-.156.028-.151z"/>
        <path fill="#FFF" fill-rule="nonzero" d="M2.623 17.519H1.335L2.41 11.32h2.24l.213 3.677 1.548-3.677H8.75L7.65 17.52H6.363l.815-4.63h-.052l-1.927 4.63H3.745l-.01-.194-.032-.514-.043-.732-.047-.84-.048-.845-.042-.741-.033-.538-.01-.227H3.41z"/>
        <path stroke="#FFF" stroke-width=".216" d="M2.623 17.519H1.335L2.41 11.32h2.24l.213 3.677 1.548-3.677H8.75L7.65 17.52H6.363l.815-4.63h-.052l-1.927 4.63H3.745l-.01-.194-.032-.514-.043-.732-.047-.84-.048-.845-.042-.741-.033-.538-.01-.227H3.41l-.786 4.63"/>
        <path fill="#FFF" fill-rule="nonzero" d="M36.083 16.471l-.194 1.048H34.7l.01-.194.005-.17v-.127l.009-.057-.061.071-.071.07-.086.067-.094.066-.1.061-.114.057-.118.057-.118.047-.128.038-.132.037-.133.024-.133.019-.137.01-.133.004-.128-.014-.127-.019-.17-.042-.152-.048-.133-.061-.123-.07-.104-.076-.09-.085-.076-.09-.066-.094-.057-.1-.043-.104-.037-.103-.024-.104-.019-.109-.014-.108-.01-.104v-.104l.01-.184.028-.175.043-.165.061-.16.071-.151.09-.137.1-.132.109-.118.123-.11.128-.098.137-.09.147-.075.146-.066.157-.052.156-.043.161-.028h.01l.023-.005.033-.005.048-.004.061-.01.067-.004.07-.01.076-.01.08-.009.086-.01.08-.004.08-.01.077-.004.066-.005.066-.004h.166l.114.004.108.005h.104l.09.005.076.004.043.005h.019l.01-.033.013-.085.015-.1.01-.089-.02-.104-.038-.094-.061-.085-.071-.07-.086-.062-.099-.043-.104-.028-.114-.01-.132-.004-.142-.005h-.147l-.152.005-.156.01-.151.013-.152.015-.147.019-.142.018-.137.024-.123.024-.114.023-.104.029-.085.028-.066.033-.052.028.331-1.137.104-.043.11-.038.108-.033.114-.023.118-.024.118-.019.123-.018.128-.01.133-.01.137-.004.137-.005H34.662l.161.005.162.005.132.009.142.024.147.033.151.042.147.057.147.066.142.08.133.09.118.104.109.113.094.127.071.142.053.151.033.16v.18l-.024.189z"/>
        <path fill="#FFF" fill-rule="nonzero" d="M35.889 17.552l.028-.028.194-1.048-.056-.01-.195 1.048.029-.028v.066l.023-.005.005-.023z"/>
        <path fill="#FFF" fill-rule="nonzero" d="M34.672 17.541l.028.056h1.189v-.111H34.7l.029.055h-.057l-.005.056h.033z"/>
        <path fill="#FFF" fill-rule="nonzero" d="M34.8 16.99l-.072-.037-.032.075-.008.127v.17l-.016.194h.096l.016-.194.016-.17-.008-.127v-.038l-.072-.037z"/>
        <path fill="#FFF" fill-rule="nonzero" d="M32.906 17.594l.132.019.128.014.133-.004.137-.01.138-.019.132-.023.133-.038.132-.038.119-.047.123-.057.113-.056.1-.066.1-.066.084-.067.076-.075.062-.071-.048-.037-.061.07-.067.066-.085.066-.09.066-.099.057-.114.057-.113.056-.119.048-.123.037-.133.038-.132.024-.128.019-.137.01-.133.004-.128-.014-.122-.02z"/>
        <path fill="#FFF" fill-rule="nonzero" d="M31.76 16.164l.005.104.01.104.013.113.02.109.023.103.038.109.043.109.061.099.067.099.075.09.095.09.109.075.123.075.137.062.157.047.17.042.01-.056-.171-.043-.147-.047-.128-.061-.123-.066-.1-.076-.085-.08-.075-.09-.067-.09-.051-.099-.043-.099-.038-.099-.024-.104-.019-.108-.014-.104-.01-.104.005-.104zM33.46 14.352l-.166.028-.16.042-.157.052-.151.066-.148.076-.141.094-.128.1-.123.113-.114.118-.1.132-.094.141-.071.156-.062.16-.042.17-.029.18-.014.184h.066l.005-.184.029-.17.042-.16.062-.16.07-.147.086-.132.1-.133.104-.117.123-.104.128-.1.132-.084.147-.076.142-.066.156-.052.152-.042.156-.029zM34.435 14.253h-.052l-.066.014-.066.008-.076.008-.08.015-.081.007-.085.016-.081.015-.076.015-.07.015-.067.008-.061.015-.048.007-.038.008-.019.008h-.009v.09h.01l.028-.007.028-.008.048-.007.061-.015.067-.008.07-.015.076-.015.08-.015.086-.016.08-.007.08-.015.077-.008.066-.008h.118z"/>
        <path fill="#FFF" fill-rule="nonzero" d="M35.074 14.34l.029-.04h-.02l-.042-.008-.075-.008-.09-.016h-.213l-.114-.015h-.114v.11h.228l.108.016h.194l.076.008.043.008h.019l.028-.04-.028.04.023.008.005-.048z"/>
        <path fill="#FFF" fill-rule="nonzero" d="M35.155 14.002h-.008l-.008.09-.024.094-.024.085-.017.033.097.01.016-.033.024-.085.024-.104.024-.09h-.008z"/>
        <path fill="#FFF" fill-rule="nonzero" d="M34.558 13.535v.005l.11.004.099.029.094.042.08.057.067.066.057.08.038.085.019.1h.057l-.02-.11-.037-.103-.067-.09-.075-.075-.09-.066-.104-.043-.11-.028-.118-.014v.004z"/>
        <path fill="#FFF" fill-rule="nonzero" d="M32.527 13.762l.048.028.047-.024.061-.033.08-.028.105-.028.114-.024.123-.024.137-.023.137-.02.147-.018.152-.014.151-.014.156-.01H34.426l.132.005v-.057l-.132-.004-.142-.01h-.147l-.152.01-.156.009-.151.014-.152.014-.147.02-.146.018-.138.024-.123.023-.114.024-.104.028-.09.029-.07.033-.057.033.047.028z"/>
        <path fill="#FFF" fill-rule="nonzero" d="M32.878 12.6l-.02.024-.33 1.138.056.009.332-1.138-.02.024-.018-.057-.015.005-.005.019z"/>
        <path fill="#FFF" fill-rule="nonzero" d="M34.985 12.383l-.162-.01-.16-.004H34.217l-.137.01-.137.004-.133.01-.128.01-.128.018-.118.019-.118.023-.114.024-.113.033-.11.038-.103.042.018.057.105-.042.108-.038.105-.033.113-.024.119-.024.118-.018.118-.02.128-.009.133-.01.137-.004H34.662l.161.005h.162zM36.608 13.983l.024-.193v-.18l-.033-.165-.052-.155-.076-.147-.095-.132-.113-.118-.119-.104-.137-.09-.142-.084-.152-.067-.146-.056-.156-.043-.147-.033-.147-.023-.132-.01v.057l.132.01.137.023.147.033.147.042.147.057.142.066.142.076.127.09.119.103.104.109.095.122.066.137.052.147.033.156v.179l-.023.184z"/>
        <path fill="#FFF" fill-rule="nonzero" d="M36.111 16.476l.497-2.493-.056-.009-.497 2.492z"/>
        <path fill="#FCB331" fill-rule="nonzero" d="M34.937 15.239l-.01-.028-.018-.024-.034-.014-.047-.014-.052-.005-.061-.005h-.072l-.07.005-.076.01-.076.009-.076.01-.07.009-.072.014-.061.01-.062.014-.047.009-.033.005-.038.014-.048.014-.052.019-.061.028-.057.028-.066.034-.062.042-.062.043-.06.052-.053.051-.052.062-.043.066-.033.07-.028.076-.014.08-.005.16.023.128.038.095.057.07.071.048.08.028.081.014.08.005.143-.005.132-.014.123-.024.11-.033.104-.037.09-.043.085-.047.075-.057.067-.052.056-.061.053-.057.042-.06.033-.058.024-.056.019-.057.014-.052.02-.132.023-.137.019-.132z"/>
        <path fill="#FFF" fill-rule="nonzero" d="M36.438 17.519h1.335l.479-2.686.018-.104.028-.104.03-.104.037-.103.047-.104.057-.1.062-.094.076-.09.085-.08.094-.075.11-.071.122-.057.138-.047.151-.037.166-.029.185-.01H39.776l.213-1.212-.133.009-.127.014-.119.024-.113.033-.105.038-.099.047-.095.052-.09.056-.085.066-.08.066-.076.076-.076.076-.07.08-.072.09-.07.084-.067.095.142-.855h-1.33l-.886 5.056z"/>
        <path stroke="#FFF" stroke-width=".216" d="M36.438 17.519h1.335l.479-2.686.018-.104.028-.104.03-.104.037-.103.047-.104.057-.1.062-.094.076-.09.085-.08.094-.075.11-.071.122-.057.138-.047.151-.037.166-.029.185-.01H39.776l.213-1.212-.133.009-.127.014-.119.024-.113.033-.105.038-.099.047-.095.052-.09.056-.085.066-.08.066-.076.076-.076.076-.07.08-.072.09-.07.084-.067.095.142-.855h-1.33l-.886 5.056"/>
        <path fill="#FFF" fill-rule="nonzero" d="M23.9 17.519h1.36l.454-2.686.019-.104.024-.099.023-.099.033-.094.038-.095.047-.09.057-.085.067-.08.076-.07.085-.071.104-.057.114-.052.132-.043.147-.037.161-.024.184-.014h.015l.019.005.023.004h.024l.024.005.019.005.014.005h.004l.005-.02.015-.056.018-.085.024-.104.033-.122.033-.133.043-.132.043-.132.037-.09.048-.09.047-.089.047-.08.043-.071.033-.057.024-.033.01-.014h-.005l-.02-.004-.023-.005-.033-.005h-.033l-.038-.005-.033-.004h-.033l-.147.009-.133.014-.123.024-.113.028-.11.038-.099.047-.09.047-.085.057-.08.061-.076.07-.071.072-.071.08-.071.08-.067.09-.07.094-.072.095.17-.855h-1.358l-.885 5.056z"/>
        <path stroke="#FFF" stroke-width=".216" d="M23.9 17.519h1.36l.454-2.686.019-.104.024-.099.023-.099.033-.094.038-.095.047-.09.057-.085.067-.08.076-.07.085-.071.104-.057.114-.052.132-.043.147-.037.161-.024.184-.014h.015l.019.005.023.004h.024l.024.005.019.005.014.005h.004l.005-.02.015-.056.018-.085.024-.104.033-.122.033-.133.043-.132.043-.132.037-.09.048-.09.047-.089.047-.08.043-.071.033-.057.024-.033.01-.014h-.005l-.02-.004-.023-.005-.033-.005h-.033l-.038-.005-.033-.004h-.033l-.147.009-.133.014-.123.024-.113.028-.11.038-.099.047-.09.047-.085.057-.08.061-.076.07-.071.072-.071.08-.071.08-.067.09-.07.094-.072.095.17-.855h-1.358l-.885 5.056"/>
    </g>
</svg>
