<?xml version="1.0" encoding="UTF-8"?>
<svg width="22px" height="18px" viewBox="0 0 22 18" version="1.1" xmlns="http://www.w3.org/2000/svg" xmlns:xlink="http://www.w3.org/1999/xlink">
    <!-- Generator: Sketch 54.1 (76490) - https://sketchapp.com -->
    <title>Shape</title>
    <desc>Created with Sketch.</desc>
    <g id="Symbols" stroke="none" stroke-width="1" fill="none" fill-rule="evenodd">
        <g id="Services-/-Telegram-/-Violet" transform="translate(-8.000000, -11.000000)" fill="#FFFFFF" fill-rule="nonzero">
            <g id="Group-17">
                <path d="M28.189217,11.3183153 L9.19125511,18.7216188 C8.57590798,18.9614365 8.61318663,19.8444668 9.24661204,20.0314835 L14.0741976,21.4570491 L15.8758536,27.1738988 C16.0640547,27.771043 16.8207864,27.9520751 17.2588418,27.5047936 L19.7548284,24.9562553 L24.6521711,28.5510271 C25.2514971,28.9909526 26.1050411,28.6641098 26.2572103,27.936428 L29.5007648,12.4290072 C29.6596043,11.6694079 28.9122858,11.0365436 28.189217,11.3183153 Z M25.807373,14.7597958 L16.9829299,22.5632526 C16.8949697,22.6410515 16.8389894,22.7487108 16.8258982,22.8654091 L16.4861513,25.8856034 C16.475055,25.9840988 16.3372237,25.9971277 16.3077998,25.9024972 L14.909975,21.3983259 C14.8459529,21.1921088 14.9294247,20.9686863 15.112888,20.8549178 L25.5336429,14.3918717 C25.7732736,14.2431311 26.0186394,14.5730285 25.807373,14.7597958 Z" id="Shape"></path>
            </g>
        </g>
    </g>
</svg>