<svg xmlns="http://www.w3.org/2000/svg" width="1265" height="200" viewBox="0 0 1265 200">
    <g fill="#F3F6FA" fill-rule="nonzero">
        <path d="M88.322 131.595h38.057v24.227c-9.335 7.125-21.542 9.976-35.185 9.976-30.159 0-51.7-22.802-51.7-53.442 0-29.214 21.541-53.441 48.828-53.441 20.105 0 31.594 6.413 44.52 17.101l23.695-28.502C138.586 32.551 119.917 24 89.757 24 38.058 24 0 63.903 0 112.356 0 162.947 36.621 200 89.758 200c31.594 0 55.29-12.113 73.242-27.077V99.53H88.322v32.065zM286.314 81.149c-4.275-4.245-9.974-7.782-17.098-10.612-7.124-2.122-15.674-3.537-26.36-3.537-4.274 0-8.549 0-12.823.707-4.275.708-7.837.708-12.111 1.415-4.275.708-7.125 1.415-9.974 2.123-2.85.707-5.7 1.415-7.837 2.122l4.275 29.005c4.274-1.415 9.261-2.83 15.673-3.537 5.7-.707 12.11-1.415 17.81-1.415 9.262 0 15.673 2.123 19.236 5.66 3.562 3.537 5.699 8.49 5.699 14.856v2.83c-2.137-.707-4.987-1.415-8.55-1.415-3.561-.707-7.836-.707-12.823-.707-7.124 0-13.536.707-19.947 2.122-6.412 1.415-12.111 3.537-17.098 6.367-4.987 2.83-9.262 7.074-12.111 12.027-2.85 4.952-4.275 11.319-4.275 19.1 0 7.783 1.425 14.15 3.562 19.81 2.85 4.951 6.412 9.903 11.399 12.733 4.987 3.537 10.686 5.66 17.098 7.075 6.412 1.415 14.248 2.122 22.085 2.122 12.823 0 24.222-.707 33.483-2.122 9.262-1.415 16.386-2.83 21.373-4.245v-74.99c0-7.781-.712-14.856-2.85-21.223-.712-6.367-3.562-12.026-7.836-16.271zm-22.798 89.846c-2.137 0-4.274.707-7.836.707h-9.974c-6.412 0-12.111-1.415-15.673-3.537-3.562-2.122-5.7-6.367-5.7-11.32 0-2.829.713-4.951 2.138-7.074 1.424-2.122 2.85-3.537 4.987-4.244 2.137-1.415 4.986-2.123 7.836-2.123 2.85 0 6.412-.707 9.262-.707 2.137 0 4.986 0 7.836.707 2.85.708 4.987.708 6.412.708v26.883h.712zM485.645 83.625c-3.548-5.06-9.226-9.397-15.613-12.288C463.645 68.446 455.13 67 445.194 67c-5.678 0-12.065.723-18.452 2.891-6.387 2.169-12.774 5.06-17.742 8.674-3.548-3.614-8.516-5.782-14.194-8.674-5.677-2.891-12.774-2.168-22-2.168-4.967 0-9.225 0-14.193.723-4.968.722-9.226.722-14.194 1.445-4.258.723-9.225 1.446-12.774 2.169-3.548.723-7.806 1.445-10.645 2.891V200h36.194v-99.75c2.129 0 4.258-.723 7.096-.723 2.13 0 4.968-.723 7.097-.723 7.097 0 12.065 2.169 15.613 7.229 2.839 5.06 4.258 13.01 4.258 25.299V200h36.194v-70.837c0-5.06 0-9.397-.71-13.734 0-4.337-.71-7.95-2.13-11.565 2.13-1.446 4.969-2.891 8.517-3.614 3.548-.723 6.387-1.446 7.806-1.446 7.097 0 12.065 2.169 15.613 7.229 2.84 5.06 4.258 13.01 4.258 25.299V200H497v-73.005c0-8.674-.71-16.625-2.129-23.854-2.839-7.95-4.968-13.733-9.226-19.516zM582.22 67c-7.922 0-15.125 1.407-23.047 4.222-7.203 2.815-13.685 7.037-19.447 12.667-5.762 5.63-10.083 12.667-13.684 21.111-3.602 8.444-5.042 18.296-5.042 29.556 0 9.148 1.44 17.592 4.321 26.037 2.881 7.74 7.203 14.777 12.244 20.407 5.762 5.63 12.965 10.556 21.608 14.074 8.642 3.519 18.726 4.926 30.25 4.926 4.321 0 9.363 0 13.684-.704l12.964-2.11c4.322-.705 7.923-1.408 10.804-2.816 3.601-.703 5.762-2.11 7.923-2.814l-5.042-28.852c-4.321 1.407-9.363 3.518-15.845 4.222-6.482 1.407-12.965 2.111-19.447 2.111-10.803 0-18.726-2.111-25.208-6.333-6.482-4.223-9.363-9.852-10.804-17.593h82.828c0-2.111 0-4.222.72-6.333v-7.037c0-21.111-5.042-37.297-15.845-48.556C615.35 71.925 600.226 67 582.22 67zm-24.488 53.481c.72-2.814 1.44-6.333 2.16-9.148.721-2.814 2.882-5.63 4.322-7.74 2.161-2.112 4.322-4.223 7.203-5.63 2.88-1.407 6.482-2.111 10.803-2.111 4.322 0 7.923.704 10.804 2.111 2.88 1.407 5.041 3.518 7.202 5.63 2.16 2.11 3.601 4.926 4.322 7.74.72 2.815 1.44 5.63 1.44 9.148h-48.256zM729.612 74.396c-2.931-.698-5.862-.698-8.793-.698-2.931 0-5.13-.698-7.328-.698-10.991 0-21.25.698-30.043 2.791-8.793 2.094-16.853 4.187-23.448 6.28V200h37.37v-94.901c1.466-.698 4.397-.698 7.328-1.396s5.862-.698 8.06-.698c5.13 0 10.26.698 14.656 1.396 4.396.698 8.06 1.396 11.724 2.791L745 77.885c-2.198-.698-4.397-1.396-7.328-2.094-2.93-.698-5.129-1.395-8.06-1.395zM839.565 137.37c-2.811-3.518-7.029-6.333-11.95-9.148-4.92-2.815-11.245-5.63-19.68-8.444-3.515-1.408-7.03-2.815-9.138-4.222-2.109-1.408-4.217-2.112-5.623-3.519-1.406-.704-2.109-2.111-2.812-3.518-.703-1.408-.703-2.112-.703-3.519 0-6.333 5.624-9.148 16.87-9.148 6.326 0 11.246.704 16.167 1.407 4.92 1.408 9.137 2.111 13.355 3.519l6.326-27.445c-4.218-1.407-9.84-2.814-16.87-4.222C818.478 67.704 811.45 67 803.717 67c-15.463 0-27.413 3.519-35.847 10.556-8.435 7.037-13.356 16.185-13.356 28.148 0 6.333.703 11.259 2.812 15.481 2.109 4.222 4.217 7.74 7.732 11.26 3.514 2.814 7.029 5.63 11.246 7.74 4.218 2.111 9.84 4.222 15.464 6.334 7.03 2.814 12.652 4.925 16.167 7.037 3.514 2.11 4.92 4.925 4.92 7.74 0 3.519-1.406 6.334-4.217 7.741-2.812 1.407-7.03 2.111-14.058 2.111-6.326 0-12.652-.704-18.979-2.111-6.326-1.407-12.652-3.518-18.978-5.63L751 192.26c2.812 1.408 7.732 2.815 15.464 4.926S783.334 200 794.58 200c16.87 0 30.224-3.519 39.362-9.852C843.08 183.815 848 174.667 848 162c0-4.926-.703-9.852-2.109-14.074-1.405-4.222-2.811-7.037-6.326-10.556zM973.15 87.06c-5.102-5.612-10.933-9.821-17.493-13.329-7.29-2.806-15.308-4.91-24.784-4.91-5.102 0-10.204.701-14.578 1.403-4.373.701-8.747 2.104-13.12 4.209V12L866 17.612v175.373c3.645.702 7.29 2.105 11.663 2.806 4.373.702 8.747 1.403 13.849 2.105 4.374.701 9.476 1.403 14.578 1.403 5.103.701 9.476.701 13.85.701 10.933 0 20.41-1.403 28.427-4.91 8.747-2.806 15.308-7.717 21.139-13.329 5.831-5.612 10.205-12.627 13.12-21.045 2.916-8.417 4.374-16.835 4.374-27.358 0-9.82-1.458-18.94-3.645-26.657-2.186-7.014-5.83-14.03-10.204-19.641zm-31.343 72.955c-5.102 7.015-12.391 9.82-22.596 9.82-3.645 0-6.56 0-9.476-.7-2.916 0-5.102-.702-7.29-.702v-64.537a24.84 24.84 0 0 1 8.748-3.508c3.644-.701 7.289-1.403 10.934-1.403 17.493 0 26.24 11.224 26.24 34.373 1.458 11.224-1.457 20.343-6.56 26.657zM1102.601 81.149c-4.274-4.245-9.974-7.782-17.098-10.612-7.124-2.122-15.673-3.537-26.36-3.537-4.274 0-8.548 0-12.823.707-4.274.708-7.836.708-11.398 1.415-3.563.708-7.125 1.415-9.974 2.123-2.85.707-5.7 1.415-7.837 2.122l4.275 29.005c4.274-1.415 9.261-2.83 15.673-3.537 5.7-.707 12.11-1.415 17.81-1.415 9.262 0 15.673 2.123 19.236 5.66 3.562 3.537 5.699 8.49 5.699 14.856v2.83c-2.137-.707-4.987-1.415-8.55-1.415-3.561-.707-7.836-.707-12.823-.707-7.124 0-13.536.707-19.947 2.122-6.412 1.415-12.111 3.537-17.098 6.367-4.987 2.83-9.262 7.074-12.111 12.027-2.85 4.952-4.275 11.319-4.275 19.1 0 7.783 1.425 14.15 3.562 19.81 2.85 4.951 6.412 9.903 11.399 12.733 4.987 3.537 10.686 5.66 17.098 7.075 6.412 1.415 14.248 2.122 22.085 2.122 12.823 0 24.222-.707 33.483-2.122 9.262-1.415 16.386-2.83 21.373-4.245v-74.99c0-7.781-.712-14.856-2.85-21.223-1.425-6.367-4.274-12.026-8.549-16.271zm-22.797 89.846c-2.137 0-4.275.707-7.837.707h-9.974c-6.411 0-12.11-1.415-15.673-3.537-3.562-2.122-5.7-6.367-5.7-11.32 0-2.829.713-4.951 2.138-7.074 1.425-2.122 2.85-3.537 4.987-4.244 2.137-1.415 4.987-2.123 7.837-2.123 2.85-.707 6.411-.707 9.261-.707 2.137 0 4.987 0 7.837.707 2.85 0 4.987.708 6.411.708v26.883h.713zM1224.158 19.149l-41.545 19.149 28.166 8.51-31.687 51.774-40.138-67.376H1096l64.783 102.127V200h36.617v-67.376l42.25-65.957 17.604 24.113 4.225-45.39L1265 0z"/>
    </g>
</svg>
