<?xml version="1.0" encoding="UTF-8"?>
<svg width="24px" height="15px" viewBox="0 0 24 15" version="1.1" xmlns="http://www.w3.org/2000/svg" xmlns:xlink="http://www.w3.org/1999/xlink">
    <!-- Generator: Sketch 54.1 (76490) - https://sketchapp.com -->
    <title>Shape</title>
    <desc>Created with Sketch.</desc>
    <g id="Symbols" stroke="none" stroke-width="1" fill="none" fill-rule="evenodd">
        <g id="Services-/-VK-/-Grey" transform="translate(-7.000000, -13.000000)" fill="#FFFFFF" fill-rule="nonzero">
            <g id="Group-18">
                <path d="M12.6343388,15.1381901 C13.2878756,16.7521066 14.1161357,18.2737548 15.2070192,19.6397676 C15.3517045,19.8215516 15.5340868,19.9831707 15.7262226,20.1147516 C16.0068569,20.3074858 16.2716345,20.2397506 16.3857431,19.9187265 C16.5064338,19.5818457 16.6171916,18.8991085 16.6237737,18.5453537 C16.6417845,17.6209958 16.621081,17.0152087 16.5714165,16.0919877 C16.5392243,15.5006811 16.3290179,14.9814777 15.4592311,14.8247653 C15.190624,14.7761779 15.1656721,14.5550811 15.3382412,14.3345229 C15.697501,13.8753358 16.1979754,13.8021555 16.7406946,13.7731945 C17.6202947,13.7256841 18.5031259,13.7644583 19.3838029,13.7731945 C19.7425242,13.7764855 20.1033995,13.8053867 20.4566756,13.8823966 C20.9174783,13.9828624 21.164245,14.3061005 21.2401778,14.7559531 C21.2794906,14.9879999 21.2997154,15.226569 21.2942104,15.4613683 C21.2712929,16.4703354 21.2227055,17.4787639 21.2112169,18.4871924 C21.2063102,18.8830124 21.2352114,19.2887055 21.3198804,19.6741737 C21.4383571,20.211388 21.8041391,20.34626 22.1781785,19.9580991 C22.6531625,19.4651042 23.0719598,18.9103578 23.4650274,18.3469351 C24.1791788,17.3221113 24.7125635,16.19742 25.1717506,15.0377841 C25.4092426,14.4394167 25.5910864,14.3094513 26.2347502,14.3078357 C27.444649,14.3050833 28.6545478,14.3040062 29.8644466,14.3078357 C30.0790212,14.3089128 30.3034089,14.3291376 30.5059563,14.3935818 C30.8346395,14.4984157 30.9651434,14.7664843 30.8881335,15.1066562 C30.7085036,15.9038012 30.277739,16.5813325 29.8163977,17.2327152 C29.0760378,18.277704 28.3001947,19.2976212 27.5424222,20.3305827 C27.4457859,20.4621637 27.3606382,20.6024809 27.2814144,20.7449521 C26.9980276,21.2570948 27.0177139,21.5442513 27.4310062,21.9706478 C28.0889111,22.6493161 28.7932494,23.2842437 29.4303909,23.9814614 C29.8934076,24.4886974 30.3219583,25.0390158 30.6888772,25.6182953 C31.1529709,26.3509961 30.8662931,27.0410932 29.9993186,27.163938 C29.4539068,27.2409479 26.7896163,27.1645364 26.6519319,27.163938 C25.9356264,27.1607068 25.3077595,26.9122647 24.8021391,26.425792 C24.2397934,25.8842097 23.7287279,25.2901506 23.1887612,24.7250525 C23.0260651,24.5546973 22.8524189,24.3914627 22.6651897,24.2489316 C22.2234749,23.9120507 21.7899578,23.9868467 21.5835809,24.5055713 C21.407242,24.9511157 21.2548977,26.1211034 21.2477771,26.2210307 C21.2106783,26.7435251 20.8781656,27.0765764 20.2928426,27.1087685 C18.6030532,27.2004983 16.9656209,27.0121322 15.440203,26.1948222 C14.1473107,25.5025112 13.1148876,24.5235822 12.2205678,23.3819571 C10.799924,21.5686647 9.67780565,19.5754431 8.65334089,17.5237013 C8.60098375,17.4188075 7.5633549,15.2108319 7.53547099,15.1065365 C7.44278388,14.7573293 7.52924797,14.4237395 7.82430291,14.3089128 C8.00824104,14.2373481 11.4293466,14.3086735 11.4862513,14.3117251 C12.0321419,14.3412845 12.4043862,14.5715961 12.6343388,15.1381901 Z" id="Shape"></path>
            </g>
        </g>
    </g>
</svg>