<svg xmlns="http://www.w3.org/2000/svg" width="64" height="29" viewBox="0 0 64 29">
    <g fill="none" fill-rule="evenodd">
        <path fill="#0023A0" d="M39.333 22.95c-.095.078-.206.062-.285-.031l-.76-1c-.698-.922-1.585-1.5-3.233-1.5-3.106 0-5.055-2.202-5.055-5.701C30 11.203 31.949 9 35.055 9s5.039 2.203 5.039 5.718c0 1.78-.634 3.592-1.696 4.217-.19.11-.19.157 0 .22.92.327 1.347.718 1.838 1.342l.713.953c.08.094.064.203-.032.282l-1.584 1.218zm-4.278-4.78c1.537 0 2.456-1.312 2.456-3.452 0-2.188-.92-3.453-2.456-3.453-1.506 0-2.472 1.265-2.472 3.453 0 2.14.966 3.452 2.472 3.452zM44 19.798c0 .125-.062.202-.16.202h-1.68c-.098 0-.16-.077-.16-.202V9.202c0-.124.062-.202.16-.202h1.68c.098 0 .16.078.16.202v10.596M58.048 16.664a47.462 47.462 0 0 0-.725 3.15c-.016.124-.095.186-.221.186h-2.884c-.126 0-.205-.062-.22-.186-.174-.9-.348-1.722-.568-2.576l-.489-2.016a32.54 32.54 0 0 1-.315-1.599c-.031-.217-.22-.217-.252 0-.095.543-.22 1.18-.315 1.599l-.489 2.016a92.4 92.4 0 0 0-.567 2.576c-.016.124-.095.186-.22.186h-2.885c-.126 0-.205-.062-.22-.186a47.553 47.553 0 0 0-.726-3.15l-1.938-7.447c-.047-.124.031-.217.173-.217h2.175c.126 0 .205.062.236.17l1.072 4.19c.268 1.055.489 2.405.583 3.413.016.202.253.217.284 0 .142-.993.394-2.358.693-3.413l1.15-4.19c.032-.108.111-.17.221-.17h1.797c.11 0 .19.062.22.17l1.167 4.19c.3 1.055.552 2.42.694 3.413.015.217.252.202.268 0 .079-1.008.315-2.358.583-3.413l1.072-4.19c.03-.108.11-.17.236-.17h2.175c.142 0 .22.093.173.217l-1.938 7.447M64 19.798c0 .125-.062.202-.16.202h-1.68c-.098 0-.16-.077-.16-.202V9.202c0-.124.062-.202.16-.202h1.68c.098 0 .16.078.16.202v10.596"/>
        <path fill="#FF8C00" d="M19.407 20.371c-.259 0-.475.09-.607.255-.34.42-.188 1.16.333 1.615.227.199.555.318.876.318.327 0 .6-.123.769-.346.303-.407.128-.984-.444-1.469-.284-.24-.613-.373-.927-.373m2.854-2.11c-.253-.074-.443-.019-.536.152-.141.259-.037.771.248 1.217.29.452.535.681.73.681a.227.227 0 0 0 .174-.081c.109-.125.145-.387.1-.718-.047-.338-.254-1.034-.716-1.251m5.654 10.252c.262.325-.136.655-.433.391-2.963-2.63-5.455-3.374-7.92-3.477-1.308-.055-2.608.07-3.967.19a92.32 92.32 0 0 1-1.187.099c-.479.051-.965.079-1.457.079-2.32 0-4.508-.57-6.505-1.693a12.384 12.384 0 0 1-4.735-4.678C.575 17.451 0 15.271 0 12.944c0-2.324.575-4.513 1.708-6.507A12.54 12.54 0 0 1 6.39 1.714 12.627 12.627 0 0 1 12.779 0c2.37 0 4.585.57 6.583 1.693a12.47 12.47 0 0 1 4.75 4.693 12.827 12.827 0 0 1 1.727 6.496 13.37 13.37 0 0 1-.463 3.495l-.01-.006c-.23.736-.657 1.778-1.453 3.116-.085.141-.133.034-.144-.045-.278-1.968-1.14-3.463-2.657-4.428l-.075-.047a6.64 6.64 0 0 0-.798-.418 8.207 8.207 0 0 0-1.171-.41c-.258-.07-.831-.04-.623-.247.086-.085 1.328-.104 2.756-.014l.084.006c.026-.3.04-.608.04-.923 0-2.456-.811-4.459-2.48-6.122-1.671-1.664-3.624-2.473-5.972-2.473-2.404 0-4.354.81-5.96 2.477-1.614 1.675-2.399 3.66-2.399 6.07 0 2.405.807 4.382 2.467 6.045 1.66 1.663 3.587 2.471 5.892 2.471.11 0 .22-.003.329-.007l-.007-.083c-.132-1.696-.16-3.104.187-2.536.123.201.245.39.367.574a12.227 12.227 0 0 0 1.42 1.774c1.638 1.666 3.251 2.076 4.965 2.497l.11.028c.28.069.564.139.851.216 2.038.545 4.244 1.423 6.82 4.621"/>
    </g>
</svg>
