<svg xmlns="http://www.w3.org/2000/svg" width="100" height="27" viewBox="0 0 100 27">
    <g fill="#006EB8" fill-rule="nonzero">
        <path d="M13.126.062c2.047 0 3.986.489 5.713 1.358.27.132.542.278.812.437l-1.2 1.103-1.803-1.914-3.043 2.787-1.809-2.026-5.669 5.247 3.635 4.111-1.428 1.29 3.58 4.119-1.42 1.286 5.116 5.845 3.037-2.87 2.625 3.075a13.9 13.9 0 0 1-1.717 1.172 12.686 12.686 0 0 1-6.429 1.747C5.945 26.83.088 20.817.088 13.446.088 6.074 5.945.062 13.126.062z"/>
        <path d="M10.75 12.6l3.1-2.866 2.793 3.183-3.101 2.866zM12.955 18.1l3.101-2.866 2.791 3.183-3.1 2.866zM8.531 7.165l3.1-2.865 2.792 3.182-3.1 2.866zM14.221 5.623l2.325-2.15 2.094 2.388-2.325 2.15zM18.353 15.467l2.325-2.15 2.094 2.388-2.325 2.149zM20.398 20.288l2.326-2.15 2.093 2.388-2.325 2.148zM21.335 9.238l1.55-1.433 1.397 1.591-1.55 1.433zM19.354 4.51l1.55-1.433L22.3 4.67 20.75 6.1zM23.317 13.966l1.55-1.433 1.396 1.592-1.55 1.432zM16.365 10.422l2.325-2.149 2.093 2.388-2.324 2.149zM62.081 8.305l-.072.05-.073-.05c-.534-.499-1.119-.699-1.847-.699-1.677 0-2.771 1.198-2.771 3.07v8.756h1.677v-8.757c0-1.248.827-1.347 1.094-1.347.194 0 .486.05.729.25.243.249.364.598.364 1.097v8.757h1.677v-8.757c0-1.248.827-1.347 1.094-1.347.194 0 .486.05.73.25.242.249.363.598.363 1.097v8.757h1.677v-8.757c0-.973-.29-1.772-.826-2.32-.486-.474-1.167-.749-1.944-.749-.753 0-1.36.225-1.872.7zM74.307 11.648c-.558-.599-1.483-1.122-2.746-1.122-1.216 0-2.14.523-2.698 1.122-.875.973-1.045 2.345-1.045 3.418 0 1.048.17 2.42 1.045 3.393.559.599 1.482 1.123 2.698 1.123 1.263 0 2.188-.524 2.746-1.123.875-.973 1.045-2.345 1.045-3.393 0-1.073-.17-2.445-1.045-3.418zm-.656 3.792c0 .823 0 1.747-.608 2.42-.243.25-.704.574-1.483.574-.73 0-1.19-.324-1.433-.574-.609-.674-.609-1.597-.609-2.42v-.773c0-.823 0-1.746.609-2.395.242-.274.704-.6 1.433-.6.779 0 1.24.326 1.483.6.608.649.608 1.572.608 2.395v.773zM76.737 10.675l1.41.025v.773c.413-.299.778-.524 1.192-.673.51-.225.874-.275 1.385-.275.73 0 1.482.15 2.09.849.583.698.705 1.522.705 2.22v5.813h-1.556v-5.938c0-1.421-.874-1.796-1.604-1.796-.73 0-1.482.325-2.09.898v6.836h-1.532v-8.732zM91.126 17.71c-.292.15-.608.275-.996.4-.462.15-.827.224-1.313.224-.802 0-1.531-.274-1.92-.723-.292-.3-.608-.898-.608-1.946v-.224h5.25v-.4c0-1.396-.049-2.545-.9-3.468-.558-.623-1.41-1.047-2.48-1.047-1.19 0-2.064.524-2.6 1.147-.874 1.024-.972 2.37-.972 3.244 0 .973.147 2.42 1.021 3.418.56.673 1.555 1.247 2.966 1.247.632 0 1.312-.075 1.992-.35.365-.15.778-.348 1.045-.499l-.485-1.022zm-4.836-3.616c0-.999.316-1.573.56-1.847a1.63 1.63 0 0 1 1.287-.574c.438 0 .875.1 1.192.424.559.55.559 1.222.559 1.822v.373H86.29v-.198zM99.949 10.7l-3.33 10.279c-.121.45-.437 1.198-.802 1.621-.438.5-1.02.724-1.677.724-.462 0-.9-.1-1.337-.35-.267-.174-.535-.348-.705-.548l.73-.948c.121.125.29.25.438.349.242.15.534.225.8.225.463 0 .755-.249.9-.449.17-.225.34-.748.463-1.073l.194-.699-3.573-9.13h1.677l2.139 5.463c.219.523.437 1.323.486 1.547h.072c.268-1.048.39-1.398.609-2.046l1.53-4.965h1.386zM34.544 18.908l.048-.075.073.075c.559.474 1.118.699 1.872.699 1.676 0 2.77-1.224 2.77-3.07V7.782h-1.7v8.757c0 1.247-.827 1.322-1.07 1.322-.22 0-.51-.025-.73-.25-.243-.224-.364-.598-.364-1.072V7.781H33.74v8.757c0 1.247-.826 1.323-1.093 1.323-.195 0-.487-.025-.705-.25-.243-.224-.365-.598-.365-1.073V7.782h-1.701v8.756c0 .949.291 1.747.826 2.296.486.499 1.191.773 1.945.773a2.83 2.83 0 0 0 1.896-.7zM47.11 17.71c-.267.125-.583.275-.973.4-.461.15-.826.224-1.312.224-.802 0-1.532-.274-1.92-.723-.268-.3-.584-.898-.584-1.946v-.224h5.201v-.4c0-1.396-.048-2.545-.875-3.468-.558-.598-1.41-1.022-2.503-1.022a3.396 3.396 0 0 0-2.552 1.122c-.9 1.048-.972 2.396-.972 3.244 0 .973.122 2.42.997 3.418.583.649 1.555 1.247 2.965 1.247.632 0 1.288-.1 1.993-.374.364-.125.753-.35 1.02-.5l-.485-.997zm-4.789-3.616c0-.999.292-1.547.56-1.847.218-.25.607-.574 1.263-.574.438 0 .875.125 1.192.45.558.523.558 1.197.558 1.82v.35h-3.573v-.2zM54.741 11.424c-.608-.55-1.458-.874-2.333-.874-.39 0-.802.075-1.094.125-.242.075-.559.2-.826.3V7.557h-1.532v11.101c.9.549 1.97.924 3.185.924.898 0 2.115-.2 2.989-1.373.705-.973.851-2.195.851-3.193 0-.948-.073-2.57-1.24-3.592zm-2.625.249c.608 0 1.24.2 1.63.624.534.599.534 1.497.534 2.27v.749c0 1.472-.243 2.07-.462 2.395-.243.325-.753.723-1.629.723-.316 0-.705-.1-.996-.174-.219-.076-.486-.225-.705-.35v-5.713l1.628-.524z"/>
    </g>
</svg>
