<?xml version="1.0" encoding="UTF-8"?>
<svg width="27px" height="27px" viewBox="0 0 27 27" version="1.1" xmlns="http://www.w3.org/2000/svg" xmlns:xlink="http://www.w3.org/1999/xlink">
    <!-- Generator: Sketch 54.1 (76490) - https://sketchapp.com -->
    <title>Group</title>
    <desc>Created with Sketch.</desc>
    <g id="Symbols" stroke="none" stroke-width="1" fill="none" fill-rule="evenodd">
        <g id="Services-/-Viber-/-Grey" transform="translate(-7.000000, -7.000000)" fill="#FFFFFF" fill-rule="nonzero">
            <g id="Group-13">
                <g id="viber" transform="translate(7.500000, 7.500000)">
                    <g id="Group">
                        <path d="M25.110464,6.40830811 L25.1028289,6.37791338 C24.4852389,3.89314364 21.7009938,1.22684978 19.1441032,0.672145833 L19.1152597,0.666235746 C14.9796122,-0.118961623 10.7862777,-0.118961623 6.65147853,0.666235746 L6.6217867,0.672145833 C4.06574446,1.22684978 1.28149931,3.89314364 0.663060942,6.37791338 L0.656274238,6.40830811 C-0.107229917,9.8783739 -0.107229917,13.397409 0.656274238,16.8674748 L0.663060942,16.8978695 C1.255116,19.2765954 3.83202735,21.8203816 6.29347992,22.5199671 L6.29347992,25.2936557 C6.29347992,26.2975263 7.52272161,26.7905965 8.22175208,26.0661886 L11.0454449,23.1450011 C11.6578601,23.1791107 12.2706146,23.1981075 12.8833691,23.1981075 C14.9651904,23.1981075 17.0478601,23.0022303 19.1152597,22.6096316 L19.1441032,22.6037215 C21.7009938,22.0490175 24.4852389,19.3827237 25.1028289,16.8979539 L25.110464,16.8675592 C25.8739681,13.397409 25.8739681,9.8783739 25.110464,6.40830811 Z M22.8759418,16.364273 C22.4636496,17.9853257 20.3495914,20.0006656 18.6698823,20.3730011 C16.4709055,20.7891557 14.2545377,20.9670493 12.0403757,20.9060066 C11.996347,20.9048246 11.9540149,20.921795 11.9233051,20.9532029 C11.6090807,21.274205 9.86158934,23.0595581 9.86158934,23.0595581 L7.66863573,25.2994814 C7.50829986,25.4658081 7.22665166,25.3526721 7.22665166,25.123023 L7.22665166,20.5281831 C7.22665166,20.4522807 7.17218837,20.3877763 7.09728012,20.37317 C7.09685596,20.3730855 7.09643179,20.3730011 7.09600762,20.3729167 C5.41629848,20.0005811 3.30308864,17.9852412 2.88994806,16.3641886 C2.20279432,13.2276206 2.20279432,10.0479934 2.88994806,6.91142544 C3.30308864,5.29037281 5.41629848,3.27503289 7.09600762,2.90269737 C10.9364335,2.17575658 14.8303047,2.17575658 18.6698823,2.90269737 C20.3504398,3.27503289 22.4636496,5.29037281 22.8759418,6.91142544 C23.5638591,10.0480779 23.5638591,13.227705 22.8759418,16.364273 Z" id="Shape"></path>
                        <path d="M16.5372455,18.4852346 C16.2790114,18.4072215 16.0329086,18.3547906 15.8043663,18.260398 C13.4361461,17.2825318 11.2565963,16.0209814 9.5301437,14.0871162 C8.54836219,12.9874178 7.77993767,11.7458772 7.1303653,10.4319803 C6.8223338,9.80888816 6.56274238,9.16139583 6.29814578,8.518125 C6.05687846,7.93150658 6.41224723,7.3254693 6.7864491,6.88347917 C7.13757618,6.46867544 7.58940097,6.1512193 8.0787223,5.91726425 C8.46064404,5.73464254 8.83739093,5.83992654 9.11632445,6.16211075 C9.71932306,6.8586568 10.2732029,7.59083224 10.7217192,8.39823465 C10.9975139,8.89485088 10.9218421,9.50190132 10.4220014,9.8398739 C10.3005194,9.92202412 10.1898113,10.018443 10.076643,10.1112314 C9.97738747,10.1925373 9.88398546,10.2746875 9.81594875,10.384784 C9.69158241,10.5862336 9.68564404,10.8238191 9.76572715,11.04283 C10.3821295,12.7287248 11.421089,14.0396667 13.1260786,14.7457533 C13.3989041,14.8587204 13.6729172,14.9902621 13.9872265,14.9537884 C14.5136202,14.8925768 14.6840512,14.3179474 15.0529086,14.0177149 C15.4134522,13.7243213 15.8741846,13.7204375 16.2625537,13.9650307 C16.6510076,14.2097083 17.0275848,14.4723695 17.4018715,14.7378169 C17.7692867,14.9983673 18.13509,15.253261 18.474001,15.5502851 C18.7998476,15.8359112 18.9120828,16.2106107 18.7285873,16.5982281 C18.3926454,17.308114 17.9038331,17.8987007 17.1986946,18.2756798 C16.9995897,18.381977 16.7618006,18.4164243 16.5372455,18.4852346 C16.2790114,18.4071371 16.7618006,18.4164243 16.5372455,18.4852346 Z" id="Shape"></path>
                        <path d="M12.8898165,5.10555592 C15.9875225,5.19192763 18.5317729,7.23791557 19.0769997,10.2858322 C19.1698927,10.8051601 19.2029778,11.3361393 19.2442919,11.8632346 C19.2616828,12.0849474 19.135535,12.2955998 18.895116,12.2984704 C18.6468075,12.3014254 18.5350814,12.0946568 18.518963,11.8730285 C18.4870654,11.4343311 18.4649238,10.9936919 18.4041828,10.558625 C18.0835111,8.26204934 16.2434661,6.36204057 13.9465911,5.95432895 C13.6009782,5.89294846 13.2472213,5.87682237 12.8971122,5.84026425 C12.6757808,5.81713048 12.3859037,5.80379057 12.3368698,5.52998465 C12.2957254,5.30041996 12.490419,5.11762939 12.7100537,5.10589364 C12.7697767,5.10260088 12.829839,5.10530263 12.8898165,5.10555592 C15.9875225,5.19192763 12.829839,5.10530263 12.8898165,5.10555592 Z" id="Shape"></path>
                        <path d="M17.5974134,11.1790998 C17.5923234,11.2175998 17.5896087,11.3081086 17.5669581,11.3933827 C17.4847542,11.7029024 17.0132479,11.7416557 16.9046607,11.4292654 C16.8725087,11.3365614 16.8676731,11.2311086 16.8675035,11.1313125 C16.8664006,10.4783322 16.723795,9.82602741 16.3929432,9.25789912 C16.0528445,8.67398246 15.5332375,8.18310746 14.9237916,7.88608333 C14.5552735,7.7065011 14.1567244,7.59488487 13.7528307,7.52835417 C13.5762916,7.49931031 13.3978861,7.48166447 13.2204986,7.45709539 C13.0055298,7.4273761 12.8907497,7.29102193 12.9009297,7.08020066 C12.9104311,6.88263487 13.0554969,6.74053947 13.2718231,6.75269737 C13.9827303,6.79288596 14.669375,6.94578838 15.3013868,7.27886404 C16.5866188,7.95624452 17.3207704,9.02546382 17.5350606,10.4531721 C17.5447316,10.5178454 17.5603411,10.5819276 17.5652614,10.6468542 C17.5773927,10.8071864 17.5850277,10.9676875 17.5974134,11.1790998 C17.5923234,11.2175998 17.5850277,10.9676875 17.5974134,11.1790998 Z" id="Shape"></path>
                        <path d="M15.6706683,11.1044638 C15.411501,11.1091075 15.2727978,10.9663366 15.2460751,10.7298487 C15.2274965,10.5649572 15.2128203,10.3978706 15.1732877,10.2374539 C15.0954103,9.92151754 14.9266759,9.62871491 14.6596191,9.43511732 C14.5335561,9.34367982 14.390696,9.27706469 14.2410492,9.23408991 C14.0509366,9.17946382 13.8535284,9.19449232 13.66384,9.14822478 C13.4578636,9.09798904 13.3439318,8.932 13.3763383,8.73966886 C13.4057756,8.56464583 13.5768854,8.42803838 13.7690339,8.44188487 C14.970026,8.52817215 15.8283743,9.14611404 15.9508743,10.5532215 C15.9595274,10.652511 15.9697074,10.7574572 15.9475658,10.8524408 C15.9096451,11.0150526 15.7886721,11.0965274 15.6706683,11.1044638 C15.411501,11.1091075 15.7886721,11.0965274 15.6706683,11.1044638 Z" id="Shape"></path>
                    </g>
                </g>
            </g>
        </g>
    </g>
</svg>