<svg width="14" height="10" viewBox="0 0 14 10" fill="none" xmlns="http://www.w3.org/2000/svg">
<path d="M13.6766 4.30937L9.46148 0.305882C9.03208 -0.101961 8.33477 -0.101961 7.90353 0.305882C7.47413 0.713725 7.47413 1.37603 7.90353 1.78562L10.1404 3.91024H1.10103C0.493627 3.91024 0 4.37909 0 4.95599C0 5.5329 0.493627 6.00174 1.10103 6.00174H10.3405L8.0118 8.21351C7.5824 8.62135 7.5824 9.28366 8.0118 9.69325C8.2265 9.89717 8.5091 10 8.78986 10C9.07062 10 9.35321 9.89717 9.56791 9.69325L13.6766 5.79085C14.1078 5.37952 14.1078 4.71895 13.6766 4.30937Z" fill="#717DC2"/>
</svg>
