<svg width="20" height="20" viewBox="0 0 20 20" fill="none" xmlns="http://www.w3.org/2000/svg">
<path d="M10 0C4.47681 0 0 4.47681 0 10C0 15.5232 4.47681 20 10 20C15.5232 20 20 15.5232 20 10C20 4.47681 15.5232 0 10 0ZM14.4457 12.8493C14.4457 13.0616 14.3442 13.2601 14.1725 13.3848L14.1717 13.3841L14.1725 13.3848C14.0254 13.5152 13.8522 13.5812 13.6522 13.5812H6.34855C6.14855 13.5812 5.97536 13.5152 5.82826 13.3848C5.65652 13.2609 5.55507 13.0616 5.55507 12.8493V8.84783C5.70072 9.01014 5.86739 9.15362 6.05652 9.27971C6.75942 9.75725 7.33116 10.15 7.77536 10.4601L8.34783 10.8652C8.41087 10.9101 8.46884 10.9529 8.52174 10.9913C8.71014 11.1304 8.86304 11.2384 8.98043 11.3159C9.09783 11.3935 9.25435 11.4732 9.44928 11.5543C9.6442 11.6355 9.82609 11.6761 9.99493 11.6761H10H10.0051C10.1739 11.6761 10.3558 11.6355 10.5507 11.5543C10.7457 11.4732 10.9022 11.3942 11.0196 11.3159C11.137 11.2384 11.2899 11.1297 11.4783 10.9913C11.5333 10.9514 11.592 10.9094 11.6529 10.8659L11.6536 10.8667L12.2254 10.4601C12.6696 10.15 13.242 9.75725 13.9442 9.27971C14.1326 9.15435 14.3 9.01014 14.4457 8.84783V12.8493ZM14.2022 7.96232C14.0399 8.20072 13.8384 8.40362 13.5971 8.57246C12.7942 9.12971 12.1884 9.55 11.7775 9.83623C11.5514 9.99348 11.3833 10.1101 11.2754 10.1855C11.2594 10.1971 11.2341 10.2145 11.2014 10.2384C11.1659 10.2638 11.1203 10.2964 11.0645 10.337C10.9572 10.4145 10.8674 10.4775 10.7964 10.5254C10.7254 10.5732 10.6391 10.6268 10.5384 10.6862C10.4377 10.7457 10.342 10.7906 10.2529 10.8203C10.1638 10.85 10.0812 10.8652 10.0051 10.8652H10H9.99493C9.91884 10.8652 9.83623 10.85 9.7471 10.8203C9.65797 10.7906 9.56232 10.7457 9.46159 10.6862C9.36087 10.6268 9.27464 10.5732 9.20362 10.5254C9.13261 10.4775 9.04348 10.4145 8.93551 10.337C8.87971 10.2964 8.83478 10.2638 8.79855 10.2384C8.76522 10.2145 8.74058 10.1971 8.72464 10.1855C8.58623 10.0884 8.41812 9.97101 8.22391 9.83551C7.99565 9.67609 7.73043 9.49203 7.42464 9.28043C6.8587 8.88841 6.51957 8.6529 6.40725 8.57319C6.20217 8.43406 6.0087 8.24348 5.82681 8C5.64493 7.75652 5.55362 7.53116 5.55362 7.32246C5.55362 7.06449 5.62246 6.84928 5.75942 6.67754C5.89638 6.5058 6.09275 6.41956 6.3471 6.41956H13.65C13.8652 6.41956 14.0514 6.4971 14.208 6.6529C14.3652 6.8087 14.4435 6.99565 14.4435 7.21377C14.4457 7.47464 14.3645 7.72391 14.2022 7.96232Z" fill="#646B94"/>
</svg>
