<svg width="20" height="20" viewBox="0 0 20 20" fill="none" xmlns="http://www.w3.org/2000/svg">
<path d="M10 0C4.47681 0 0 4.47681 0 10C0 15.5232 4.47681 20 10 20C15.5232 20 20 15.5232 20 10C20 4.47681 15.5232 0 10 0ZM15.0826 13.5043C15.0341 13.7167 14.9826 13.8841 14.929 14.0058C14.8268 14.25 14.529 14.5087 14.0355 14.7826C13.5768 15.0319 13.1225 15.1558 12.6732 15.1558C12.5413 15.1558 12.413 15.1471 12.2884 15.1304C12.1638 15.113 12.0239 15.0826 11.8674 15.0384C11.7116 14.9942 11.5949 14.9587 11.5196 14.9319C11.4442 14.9051 11.3087 14.8551 11.113 14.7819C10.9181 14.7087 10.7986 14.6645 10.7543 14.65C10.2761 14.479 9.84855 14.2761 9.47246 14.042C8.84783 13.6565 8.20145 13.1304 7.53551 12.4638C6.86884 11.7971 6.34275 11.1514 5.95725 10.5268C5.72319 10.1507 5.52029 9.72391 5.34928 9.24493C5.33478 9.20072 5.29058 9.08116 5.21739 8.88623C5.1442 8.69058 5.0942 8.55507 5.06739 8.47971C5.04058 8.40435 5.00507 8.28841 4.96159 8.13188C4.91739 7.97536 4.88696 7.83551 4.87029 7.71087C4.8529 7.58623 4.84493 7.45797 4.84493 7.32609C4.84493 6.87681 4.96957 6.42246 5.21812 5.96377C5.4913 5.47101 5.75 5.17319 5.9942 5.07029C6.11594 5.01667 6.28333 4.96522 6.49565 4.91667C6.70797 4.86812 6.88043 4.84348 7.01232 4.84348C7.08043 4.84348 7.13188 4.85072 7.16594 4.86522C7.25362 4.8942 7.38333 5.07971 7.55435 5.42174C7.60797 5.51449 7.68116 5.64638 7.77391 5.81739C7.86667 5.98841 7.95217 6.14348 8.03043 6.28261C8.1087 6.42174 8.18406 6.55217 8.25725 6.67464C8.27174 6.6942 8.31449 6.75507 8.38551 6.85797C8.45652 6.96087 8.5087 7.0471 8.54275 7.11812C8.57681 7.18913 8.5942 7.2587 8.5942 7.32681C8.5942 7.42464 8.52464 7.54638 8.38551 7.69275C8.24638 7.83913 8.09493 7.97319 7.93116 8.09565C7.76739 8.21739 7.61594 8.3471 7.47681 8.48406C7.33768 8.62101 7.26812 8.73333 7.26812 8.82101C7.26812 8.86522 7.28043 8.91957 7.30507 8.98551C7.32971 9.05145 7.35 9.10145 7.36739 9.13551C7.38478 9.16957 7.41884 9.22826 7.47029 9.31159C7.52174 9.3942 7.55 9.4413 7.55435 9.45072C7.92536 10.1196 8.35 10.6935 8.82899 11.1717C9.30725 11.65 9.88116 12.0746 10.55 12.4464C10.5594 12.4514 10.6058 12.4797 10.6891 12.5304C10.7725 12.5819 10.8304 12.6159 10.8645 12.6333C10.8986 12.65 10.9493 12.671 11.0145 12.6957C11.0804 12.7196 11.1355 12.7319 11.1797 12.7319C11.2674 12.7319 11.3797 12.6623 11.5167 12.5232C11.6529 12.3841 11.7826 12.2326 11.9043 12.0688C12.0261 11.9051 12.1609 11.7536 12.3072 11.6145C12.4536 11.4754 12.5754 11.4058 12.6732 11.4058C12.7413 11.4058 12.8109 11.4232 12.8819 11.4572C12.9529 11.4913 13.0391 11.5442 13.142 11.6145C13.2449 11.6855 13.3058 11.7283 13.3254 11.7428C13.4471 11.8159 13.5775 11.8913 13.7174 11.9696C13.8565 12.0478 14.0116 12.1333 14.1826 12.2261C14.3536 12.3188 14.4855 12.392 14.5783 12.4457C14.9203 12.6167 15.1058 12.7457 15.1348 12.8341C15.1493 12.8688 15.1565 12.9196 15.1565 12.9884C15.1558 13.1203 15.1312 13.292 15.0826 13.5043Z" fill="#646B94"/>
</svg>
