<svg width="64" height="60" viewBox="0 0 64 60" fill="none" xmlns="http://www.w3.org/2000/svg">
<circle opacity="0.1" cx="34" cy="30" r="30" fill="#7079F0"/>
<path fill-rule="evenodd" clip-rule="evenodd" d="M18.4637 9C10.2981 9 3.6792 15.6633 3.6792 23.8825C3.6792 32.1017 10.299 38.765 18.4646 38.765C26.6301 38.765 33.2499 32.1017 33.2499 23.8825C33.2499 15.6633 26.6292 9 18.4637 9ZM24.2463 22.7205L21.6829 25.2351L22.2878 28.7857C22.3512 29.1581 21.9634 29.4414 21.6311 29.266L18.4628 27.5896L15.2945 29.266C14.9621 29.4414 14.5743 29.1581 14.6378 28.7857L15.2427 25.2351L12.6793 22.7205C12.4103 22.457 12.5586 21.9974 12.9303 21.9435L16.4721 21.4254L18.0562 18.195C18.2224 17.8559 18.7022 17.8559 18.8684 18.195L20.4526 21.4254L23.9943 21.9435C24.3669 21.9974 24.5152 22.457 24.2463 22.7205ZM4.345 34.3204L0.0714756 43.8922C-0.161723 44.4156 0.202818 45.011 0.771966 45.0362L6.92091 45.3087L11.2096 49.7533C11.6072 50.1652 12.2916 50.0437 12.5248 49.5203L16.1497 41.3938C11.3186 40.7399 7.10408 38.1003 4.345 34.3204ZM32.6682 34.3024L36.9283 43.8922C37.1615 44.4156 36.797 45.011 36.2278 45.0352L30.0789 45.3077L25.7902 49.7523C25.3926 50.1642 24.7082 50.0428 24.475 49.5194L20.8501 41.3929C25.6892 40.7381 29.91 38.0922 32.6682 34.3024Z" fill="url(#paint0_linear)"/>
<defs>
<linearGradient id="paint0_linear" x1="18.5" y1="9.5" x2="18" y2="50" gradientUnits="userSpaceOnUse">
<stop stop-color="#9993FD"/>
<stop offset="1" stop-color="#4B5AE2"/>
</linearGradient>
</defs>
</svg>
