<svg width="65" height="60" viewBox="0 0 65 60" fill="none" xmlns="http://www.w3.org/2000/svg">
<circle opacity="0.1" cx="35" cy="30" r="30" fill="#7079F0"/>
<path fill-rule="evenodd" clip-rule="evenodd" d="M27.288 21.5723H36.313C36.998 21.5723 37.3405 20.7448 36.8556 20.2599L27.8268 11.2273C27.3419 10.7423 26.5144 11.0849 26.5144 11.7699V20.7987C26.5144 21.2259 26.8608 21.5723 27.288 21.5723ZM35.3473 24.2124H25.3217C24.3634 24.2124 23.5898 23.4388 23.5898 22.4805V12.7359C23.5898 11.7776 22.8162 11.004 21.8579 11.004H10.7278C9.44619 11.004 8.41092 12.0431 8.41092 13.3209V16.292L23.9631 31.7364C24.3711 32.1444 24.6828 32.6485 24.8637 33.195L26.6995 38.8025C26.8534 39.272 26.888 39.7723 26.8034 40.2572C26.7264 40.7037 26.5417 41.1385 26.2723 41.508C25.7027 42.2931 24.7906 42.7627 23.8284 42.7627C23.5821 42.7627 23.3319 42.7319 23.0933 42.6703L17.1318 41.1693C16.493 41.0077 15.9041 40.6767 15.4385 40.2149L8.40707 33.2335V46.1841C8.40707 47.4656 9.44619 48.5048 10.7278 48.5048H34.7623C36.0439 48.5048 37.0791 47.4656 37.0791 46.1879V25.9443C37.0791 24.986 36.3056 24.2124 35.3473 24.2124ZM17.6166 38.9102L8.40687 29.9815L4.41202 26.0097L4.43281 25.9889L0.463364 22.088C-0.163958 21.4607 -0.152412 20.1637 0.486455 19.5248L3.13429 16.877C3.45757 16.5537 3.95019 16.3921 4.43896 16.3921C4.91619 16.3921 5.38572 16.546 5.69746 16.8539L9.9517 21.035L9.92745 21.0593L22.6226 33.8443C22.6435 33.8653 22.6626 33.8898 22.6698 33.9186L24.5094 39.526C24.6595 39.9955 24.2939 40.4574 23.832 40.4574C23.7743 40.4574 23.7166 40.4497 23.6589 40.4343L17.6935 38.9333C17.6705 38.9256 17.6437 38.918 17.6168 38.9103L17.6166 38.9102Z" fill="url(#paint0_linear)"/>
<defs>
<linearGradient id="paint0_linear" x1="18.5414" y1="11" x2="18.5414" y2="48.5048" gradientUnits="userSpaceOnUse">
<stop stop-color="#9993FD"/>
<stop offset="1" stop-color="#4D5BE3"/>
</linearGradient>
</defs>
</svg>
