<svg width="53" height="13" viewBox="0 0 53 13" fill="none" xmlns="http://www.w3.org/2000/svg">
<g clip-path="url(#clip0)">
<path d="M40.8174 2.90625H37.9032C37.7041 2.90625 37.5338 3.05322 37.5037 3.25184L36.3249 10.8058C36.3013 10.9554 36.4153 11.0892 36.5646 11.0892H38.0603C38.1992 11.0892 38.3184 10.9872 38.3406 10.8469L38.6746 8.7058C38.706 8.50719 38.875 8.36021 39.0741 8.36021H39.9962C41.915 8.36021 43.0231 7.42143 43.3125 5.55974C43.4422 4.74542 43.3178 4.10588 42.9406 3.65834C42.5267 3.1671 41.7919 2.90625 40.8174 2.90625ZM41.154 5.66567C40.9942 6.72363 40.1953 6.72363 39.4225 6.72363H38.9824L39.2902 4.7494C39.3085 4.63023 39.4107 4.54151 39.5299 4.54151H39.7316C40.2581 4.54151 40.7545 4.54151 41.0113 4.84473C41.1645 5.02613 41.2117 5.29492 41.154 5.66567Z" fill="white"/>
<path d="M20.0308 2.90625H17.1165C16.9174 2.90625 16.7472 3.05322 16.7171 3.25184L15.5383 10.8058C15.5147 10.9554 15.6286 11.0892 15.7779 11.0892H17.1689C17.368 11.0892 17.5383 10.9422 17.5684 10.7436L17.8867 8.7058C17.9181 8.50719 18.0871 8.36021 18.2862 8.36021H19.2082C21.1284 8.36021 22.2351 7.42143 22.5246 5.55974C22.6543 4.74542 22.5298 4.10588 22.1526 3.65834C21.74 3.1671 21.0052 2.90625 20.0308 2.90625ZM20.3674 5.66567C20.2076 6.72363 19.4086 6.72363 18.6372 6.72363H18.1971L18.5049 4.7494C18.5232 4.63023 18.6254 4.54151 18.7446 4.54151H18.9463C19.4728 4.54151 19.9692 4.54151 20.2246 4.84473C20.3792 5.02613 20.425 5.29492 20.3674 5.66567Z" fill="white"/>
<path d="M28.7411 5.63276H27.3462C27.227 5.63276 27.1249 5.72015 27.1065 5.84064L27.045 6.23522L26.9481 6.0909C26.6455 5.64732 25.9723 5.49902 25.2991 5.49902C23.7574 5.49902 22.4398 6.68012 22.1844 8.33657C22.0508 9.1628 22.2407 9.95329 22.7044 10.5041C23.1301 11.0099 23.7378 11.2218 24.4621 11.2218C25.7051 11.2218 26.394 10.4141 26.394 10.4141L26.3312 10.806C26.3076 10.9556 26.4215 11.0894 26.5708 11.0894H27.8282C28.0273 11.0894 28.1976 10.9424 28.2277 10.7438L28.9821 5.91479C29.0044 5.76649 28.8905 5.63276 28.7411 5.63276ZM26.7974 8.37894C26.6625 9.18531 26.0299 9.72555 25.2218 9.72555C24.8171 9.72555 24.4935 9.59446 24.2853 9.34421C24.0783 9.09792 24.0011 8.74571 24.0666 8.35378C24.1923 7.55535 24.8354 6.99658 25.6304 6.99658C26.026 6.99658 26.3482 7.12899 26.5604 7.38057C26.7739 7.63347 26.8577 7.98833 26.7974 8.37894Z" fill="white"/>
<path d="M49.5268 5.63276H48.1319C48.0127 5.63276 47.9105 5.72015 47.8922 5.84064L47.8306 6.23522L47.7324 6.0909C47.4298 5.64732 46.7566 5.49902 46.0847 5.49902C44.5431 5.49902 43.2255 6.68012 42.97 8.33657C42.8365 9.1628 43.0264 9.95329 43.49 10.5041C43.9157 11.0099 44.5234 11.2218 45.2477 11.2218C46.4907 11.2218 47.1797 10.4141 47.1797 10.4141L47.1168 10.806C47.0932 10.9556 47.2072 11.0894 47.3565 11.0894H48.6139C48.813 11.0894 48.9832 10.9424 49.0133 10.7438L49.7678 5.91479C49.79 5.76649 49.6761 5.63276 49.5268 5.63276ZM47.5818 8.37894C47.4469 9.18531 46.8142 9.72555 46.0074 9.72555C45.6027 9.72555 45.2792 9.59446 45.0709 9.34421C44.864 9.09792 44.7867 8.74571 44.8522 8.35378C44.9779 7.55535 45.621 6.99658 46.4161 6.99658C46.8116 6.99658 47.1338 7.12899 47.346 7.38057C47.5595 7.63347 47.6433 7.98833 47.5818 8.37894Z" fill="white"/>
<path d="M36.173 5.63281H34.7703C34.6367 5.63281 34.5109 5.70034 34.4349 5.81289L32.5004 8.69413L31.6805 5.92544C31.6294 5.75198 31.4709 5.63281 31.2928 5.63281H29.9136C29.7473 5.63281 29.6307 5.79832 29.6831 5.95722L31.2273 10.5399L29.7748 12.6121C29.6608 12.775 29.7761 13.0001 29.9725 13.0001H31.374C31.5063 13.0001 31.6307 12.9339 31.7067 12.824L36.3708 6.01813C36.4847 5.85526 36.3695 5.63281 36.173 5.63281Z" fill="white"/>
<path d="M51.1726 3.1138L49.9767 10.8068C49.9532 10.9551 50.0671 11.0902 50.2164 11.0902H51.4188C51.6179 11.0902 51.7882 10.9432 51.8183 10.7446L52.9971 3.1906C53.0207 3.04098 52.9067 2.90724 52.7574 2.90724H51.4109C51.2931 2.90592 51.1909 2.99463 51.1726 3.1138Z" fill="white"/>
<path d="M9.81953 3.3023C9.9767 2.29069 9.81822 1.60348 9.27728 0.979833C8.68134 0.29395 7.60601 0 6.22944 0H2.23201C1.95041 0 1.71072 0.206559 1.6675 0.488592L0.00277468 11.1569C-0.0299697 11.3674 0.131133 11.5581 0.342006 11.5581H2.80962L2.63935 12.6504C2.61053 12.8345 2.75068 13.0013 2.93536 13.0013H5.01528C5.26152 13.0013 5.47108 12.8199 5.50906 12.575L5.53002 12.4677L5.92164 9.95589L5.94653 9.81686C5.98451 9.57058 6.19408 9.3905 6.44031 9.3905H6.75204C8.76647 9.3905 10.3447 8.56294 10.8058 6.1703C10.9983 5.1706 10.8988 4.3351 10.3893 3.74852C10.2347 3.56977 10.0435 3.42279 9.81953 3.3023Z" fill="#009CDE"/>
<path opacity="0.7" d="M9.81953 3.3023C9.9767 2.29069 9.81822 1.60348 9.27728 0.979833C8.68133 0.29395 7.60601 0 6.22944 0H2.23201C1.95041 0 1.71072 0.206559 1.6675 0.488592L0.00277468 11.1569C-0.0299697 11.3674 0.131132 11.5581 0.342006 11.5581H2.80962L3.42914 7.58444L3.4095 7.7089C3.45272 7.42819 3.6911 7.22031 3.9727 7.22031H5.14495C7.44753 7.22031 9.25109 6.2749 9.77893 3.53932C9.79464 3.45855 9.80774 3.38042 9.81953 3.3023Z" fill="white"/>
<path d="M4.09451 3.31687C4.1207 3.14738 4.22811 3.00968 4.37218 2.9395C4.43767 2.90772 4.51102 2.89051 4.58829 2.89051H7.72127C8.09194 2.89051 8.43903 2.91566 8.75468 2.9673C8.84506 2.98187 8.93281 2.99908 9.01795 3.01762C9.10308 3.03748 9.18691 3.05867 9.2668 3.0825C9.30741 3.09442 9.3467 3.10634 9.38468 3.11958C9.54055 3.17122 9.68462 3.23345 9.81822 3.30495C9.97539 2.29334 9.81691 1.60613 9.27597 0.982481C8.68134 0.29395 7.60601 0 6.22944 0H2.23201C1.95041 0 1.71072 0.206559 1.6675 0.488592L0.00277468 11.1569C-0.0299697 11.3674 0.131132 11.5581 0.342006 11.5581H2.80962L3.42914 7.58444L4.09451 3.31687Z" fill="white"/>
</g>
<defs>
<clipPath id="clip0">
<rect width="53" height="13" fill="white"/>
</clipPath>
</defs>
</svg>
