<svg width="100" height="30" viewBox="0 0 100 30" fill="none" xmlns="http://www.w3.org/2000/svg">
<path fill-rule="evenodd" clip-rule="evenodd" d="M50.0979 16.4902H48.418L53.9517 2.78148L54.1493 2.38413C54.1699 2.30132 54.1905 2.22282 54.2102 2.14774L54.2103 2.14739L54.2103 2.14735C54.2851 1.86234 54.3469 1.62654 54.3469 1.39074C54.3469 0.993386 54.2481 0.69537 53.9517 0.397354C53.6552 0.0993386 53.26 0 52.8647 0C51.8766 0 51.1849 0.69537 50.592 1.98677L47.4299 9.73518C46.7382 8.94047 45.8489 8.54312 44.6631 8.54312C43.082 8.54312 41.6986 9.23849 40.414 10.7286C39.1294 12.1193 38.5366 13.8081 38.5366 15.5962C38.5366 16.7882 38.833 17.7816 39.5247 18.477C40.2164 19.1723 41.0069 19.5697 42.0939 19.5697H43.8726C44.5643 19.5697 45.256 19.2717 45.8489 18.6757C46.2441 19.2717 46.7382 19.5697 47.5287 19.5697H49.4062C50.1967 19.5697 50.7896 19.371 51.1849 19.073C51.5778 18.836 51.7832 18.5362 51.8509 18.1236C52.0239 18.4488 52.2721 18.7237 52.5701 18.9734C53.163 19.4701 54.0524 19.7681 55.0405 19.7681C55.5346 19.7681 56.2263 19.6688 56.918 19.3707L56.5227 20.3641H54.25C52.2737 20.3641 50.7915 20.5628 49.8033 21.0595C49.0128 21.4569 48.2223 22.0529 47.7282 22.8476C47.2341 23.6423 46.9377 24.5363 46.9377 25.4304C46.9377 26.7218 47.4318 27.8145 48.4199 28.7086C49.4081 29.5033 50.5939 30 52.0761 30C54.4476 30 56.2263 28.8079 57.5109 26.5231C58.2026 25.2317 58.6967 24.139 58.9931 23.3443H61.2659C62.0564 23.3443 62.6493 23.1456 63.0445 22.8476C63.4398 22.5496 63.6374 22.1522 63.6374 21.5562C63.6374 20.7615 63.0445 20.3641 61.8587 20.3641H60.1789L63.6374 11.523L63.835 11.1256C63.9339 10.8276 64.0327 10.5296 64.0327 10.2316C64.0327 9.83424 63.9339 9.53622 63.6374 9.2382C63.4398 8.94019 63.0445 8.84085 62.6493 8.84085C61.6611 8.84085 60.8706 9.33754 60.4753 10.4303L60.3765 10.8276L58.499 15.3972C58.4002 15.7946 58.1038 15.9932 57.6097 16.2912C57.2144 16.5893 56.7204 16.6886 56.3251 16.6886C55.7322 16.6886 55.4358 16.4899 55.4358 15.9932C55.4358 15.8939 55.5346 15.4965 55.7322 14.9998L57.1156 11.7217C57.4121 11.1256 57.5109 10.7283 57.5109 10.4303C57.5109 10.0329 57.4121 9.7349 57.1156 9.43688C56.8192 9.13887 56.4239 9.03953 56.0287 9.03953C55.1393 9.03953 54.4476 9.53622 53.9536 10.6289L53.7559 11.0263L52.1749 14.8012C51.7942 15.758 51.5968 16.4384 51.5828 16.931C51.2967 16.6302 50.8018 16.4902 50.0979 16.4902ZM51.5828 16.931C51.5823 16.9498 51.582 16.9684 51.582 16.9866C51.582 17.4311 51.6797 17.802 51.8509 18.1236C51.8683 18.0174 51.8766 17.9037 51.8766 17.7816C51.8766 17.4183 51.7786 17.137 51.5828 16.931ZM13.2412 11.4235L11.9566 9.8341H13.4388C15.4151 9.8341 16.7985 9.53609 17.6879 9.03939C19.2689 8.04601 20.0594 6.65527 20.0594 4.86717C20.0594 3.47643 19.5653 2.38371 18.5772 1.48966C17.589 0.595614 16.3045 0.198259 14.7234 0.198259C12.5495 0.198259 10.7708 0.794291 9.2886 1.98635C7.70756 3.17842 6.91704 4.76783 6.71941 6.55593H4.34785C3.55733 6.55593 2.86563 6.75461 2.47037 7.05262C1.9763 7.44998 1.77867 7.94667 1.77867 8.5427C1.77867 9.43675 2.47037 9.8341 3.75497 9.8341H7.50993C7.90519 10.6288 8.49808 11.4235 9.38741 12.4169C10.672 13.8076 11.4625 14.801 11.8578 15.4964C12.253 16.1918 12.4507 16.9865 12.4507 17.7812C12.4507 18.9733 12.0554 20.1653 11.0673 21.0594C10.0791 21.9534 8.99215 22.4501 7.70756 22.4501C6.52178 22.4501 5.63245 22.0527 4.84193 21.3574C4.15022 20.5627 3.75497 19.6686 3.75497 18.5759C3.65615 17.8805 3.95259 17.1852 4.34785 16.4898C4.74311 15.7944 5.23719 15.1984 5.92889 14.801L7.01586 14.1057C7.70756 13.609 8.10282 13.1123 8.10282 12.5162C8.10282 12.1189 7.90519 11.7215 7.60874 11.4235C7.3123 11.1255 6.91704 11.0262 6.42297 11.0262C5.43482 11.0262 4.44667 11.5229 3.26089 12.4169C1.08696 14.1057 0 16.2911 0 18.7746C0 20.8607 0.691704 22.5494 2.07511 23.8408C3.45852 25.1322 5.23719 25.8276 7.41111 25.8276C10.2767 25.8276 12.5495 24.8342 14.2293 22.8475C15.5139 21.4567 16.2056 19.768 16.2056 17.8805C16.2056 15.8938 15.4151 14.1057 14.0317 12.3176L13.2412 11.4235ZM13.7349 6.45698H10.3751C10.3751 5.66227 10.8692 5.06624 11.6597 4.56955C12.5491 3.97352 13.4384 3.6755 14.4266 3.6755C15.1183 3.6755 15.6123 3.87418 16.0076 4.07285C16.4029 4.27153 16.6005 4.56955 16.6005 4.9669C16.6005 5.96029 15.6123 6.45698 13.7349 6.45698ZM24.0127 8.84155H24.4079C25.5937 8.84155 26.1866 9.2389 26.1866 10.1329C26.1866 10.729 25.989 11.1263 25.5937 11.4244C25.1985 11.7224 24.6056 11.921 23.815 11.921H22.8269L20.9494 16.59H22.5305C23.7162 16.59 24.3091 16.9873 24.3091 17.8814C24.3091 18.4774 24.1115 18.8747 23.7162 19.1728C23.321 19.4708 22.7281 19.6695 22.0364 19.6695H19.566C18.8743 19.6695 18.2814 19.4708 17.8862 19.1728C17.4909 18.8747 17.2933 18.3781 17.2933 17.782C17.2933 17.484 17.3921 17.0867 17.5897 16.59L17.8862 15.9939L19.4672 11.921H19.2696C18.2814 11.921 17.6885 11.5237 17.6885 10.729C17.6885 10.1329 17.8862 9.7356 18.2814 9.33824C18.6767 9.04023 19.2696 8.84155 19.9613 8.84155H20.5542L21.2459 6.95411L21.3447 6.55676C21.7399 5.46404 22.4316 4.96734 23.4198 4.96734C23.815 4.96734 24.1115 5.06668 24.4079 5.3647C24.7044 5.66271 24.8032 5.96073 24.8032 6.25874C24.8032 6.6561 24.7044 7.05345 24.4079 7.64949L24.0127 8.84155ZM36.8583 16.4904H35.2772L37.3524 11.5235C37.6488 10.8281 37.7476 10.4308 37.7476 10.1328C37.7476 9.7354 37.6488 9.43738 37.3524 9.13937C37.0559 8.84135 36.7595 8.74201 36.3642 8.74201C35.4749 8.74201 34.6844 9.43738 34.1903 10.7288L32.4116 15.0997C32.0163 15.9937 31.3246 16.4904 30.1389 16.4904C29.6448 16.4904 29.3483 16.1924 29.3483 15.7951C29.3483 15.6957 29.3483 15.497 29.4472 15.2984L29.6448 14.901L31.127 11.2255L31.2258 10.8281C31.2465 10.7452 31.2671 10.6666 31.2868 10.5914C31.3616 10.3064 31.4235 10.0706 31.4235 9.83474C31.4235 9.53672 31.3246 9.23871 31.0282 8.94069C30.8306 8.64267 30.4353 8.54333 30.0401 8.54333C29.1507 8.54333 28.3602 9.23871 27.8661 10.5301L25.9886 15.2984C25.6922 15.8944 25.5934 16.3911 25.5934 16.8878C25.5934 17.6825 25.791 18.3779 26.3839 18.8745C26.878 19.3712 27.5697 19.6693 28.3602 19.6693H30.3365C31.0282 19.6693 31.7199 19.3712 32.214 18.7752C32.5104 19.3712 33.0045 19.6693 33.795 19.6693H36.2654C37.0559 19.6693 37.6488 19.4706 38.0441 19.1726C38.4393 18.7752 38.6369 18.3779 38.6369 17.7818C38.6369 17.2851 38.5381 16.9871 38.2417 16.7884C37.9452 16.5898 37.4512 16.4904 36.8583 16.4904ZM43.1814 16.7884H43.6755C44.2684 16.7884 44.7624 16.5897 44.9601 16.093L45.9482 13.6096C45.9747 13.5297 46.0012 13.457 46.0257 13.3895C46.0929 13.2051 46.1458 13.0596 46.1458 12.9142C46.1458 12.6162 46.047 12.4175 45.7506 12.2188C45.553 12.0202 45.2565 11.9208 44.8612 11.9208C44.1695 11.9208 43.4778 12.3182 42.885 13.1129C42.2921 13.9076 41.9956 14.7023 41.9956 15.5963C42.0944 16.3911 42.3909 16.7884 43.1814 16.7884ZM55.1397 23.0466H53.2622C51.2859 23.0466 50.2978 23.6426 50.2978 25.0333C50.2978 25.53 50.3966 25.8281 50.693 26.1261C50.9895 26.4241 51.3847 26.5234 51.78 26.5234C52.3729 26.5234 52.9658 26.2254 53.4598 25.7287C54.0527 25.232 54.5468 24.338 55.1397 23.0466ZM66.207 15.2981C66.6022 15.8942 67.1951 16.0929 67.6892 16.0929C68.0845 16.0929 68.4797 15.9935 68.7762 15.6955C69.1714 15.3975 69.5667 14.9008 69.8631 14.3048C70.1596 13.7087 70.3572 13.1127 70.3572 12.616C70.3572 12.2187 70.2584 11.9206 70.0608 11.6226C69.8631 11.3246 69.5667 11.2253 69.1714 11.2253C68.3809 11.2253 67.6892 11.8213 67.1951 13.1127L66.207 15.2981ZM70.1579 8.54278C69.8615 8.54278 69.4662 8.64212 69.071 8.74146L71.4425 2.88048L71.6401 2.48313C71.6606 2.40077 71.6811 2.32267 71.7007 2.24796L71.701 2.2469L71.7011 2.24645L71.7011 2.24638C71.7759 1.96136 71.8378 1.72555 71.8378 1.48974C71.8378 1.09239 71.739 0.794374 71.4425 0.496358C71.2449 0.198342 70.8496 0.0990034 70.4544 0.0990034C69.565 0.0990034 68.8733 0.595696 68.4781 1.68842L68.2804 2.08578L62.5492 16.7879L62.3515 17.1852C62.331 17.2678 62.3105 17.3462 62.2908 17.4211L62.2906 17.4217L62.2906 17.422L62.2906 17.422C62.2158 17.707 62.1539 17.9428 62.1539 18.1786C62.1539 18.576 62.2527 18.874 62.5492 19.172C62.8456 19.47 63.1421 19.5694 63.5373 19.5694C64.3278 19.5694 64.9207 19.2714 65.316 18.576C65.9089 19.2714 66.6994 19.5694 67.5887 19.5694H68.8733C69.565 19.5694 70.2567 19.3707 70.9484 18.874C72.8259 17.3839 73.7153 15.3971 73.7153 12.9137C73.7153 11.6223 73.4188 10.5296 72.7271 9.73485C72.0354 8.94014 71.2449 8.54278 70.1579 8.54278ZM79.0529 16.7884H79.3494C80.1399 16.7884 80.634 16.4904 80.8316 15.8944L81.8198 13.6096L81.8198 13.6095C81.9186 13.3115 82.0174 13.0135 82.0174 12.8149C82.0174 12.6162 81.9186 12.4175 81.7209 12.2188C81.4245 12.0202 81.1281 11.9208 80.8316 11.9208C80.1399 11.9208 79.547 12.3182 78.8553 13.0135C78.2624 13.8082 77.8672 14.603 77.8672 15.3977C77.8672 16.3911 78.2624 16.7884 79.0529 16.7884ZM85.7698 16.4904H84.1888L86.1651 11.5235L86.3627 11.1261C86.3833 11.0432 86.4039 10.9646 86.4237 10.8894L86.4237 10.8894C86.4985 10.6044 86.5603 10.3686 86.5603 10.1328C86.5603 9.7354 86.4615 9.43738 86.1651 9.13937C85.8686 8.84135 85.4734 8.74201 85.0781 8.74201C84.2876 8.74201 83.6947 9.13937 83.2006 9.83474C82.6077 8.94069 81.7184 8.54333 80.5326 8.54333C78.9516 8.54333 77.5682 9.33804 76.2836 10.7288C74.999 12.1195 74.4061 13.8083 74.4061 15.5964C74.4061 16.8878 74.7025 17.8812 75.3942 18.5765C76.0859 19.2719 76.8765 19.6693 77.9634 19.6693H79.5445C80.2362 19.6693 80.9279 19.2719 81.6196 18.6759C81.916 19.3712 82.5089 19.6693 83.2994 19.6693H85.1769C85.9674 19.6693 86.5603 19.4706 86.9556 19.1726C87.3508 18.7752 87.5485 18.3779 87.5485 17.7818C87.5485 17.7521 87.5478 17.7229 87.5465 17.6943C87.6975 18.2181 88.0188 18.6208 88.4397 18.9734C89.0326 19.4701 89.9219 19.7681 90.91 19.7681C91.4041 19.7681 92.0958 19.6688 92.7875 19.3707L92.3923 20.3641H90.1195C88.1432 20.3641 86.661 20.5628 85.6729 21.0595C84.8823 21.4569 84.0918 22.0529 83.5977 22.8476C83.1037 23.6423 82.8072 24.5363 82.8072 25.4304C82.8072 26.7218 83.3013 27.8145 84.2895 28.7086C85.2776 29.5033 86.4634 30 87.9456 30C90.3172 30 92.0958 28.8079 93.3804 26.5231C94.0721 25.2317 94.5662 24.139 94.8626 23.3443H97.1354C97.9259 23.3443 98.5188 23.1456 98.9141 22.8476C99.3093 22.5496 99.5069 22.1522 99.5069 21.5562C99.5069 20.7615 98.9141 20.3641 97.7283 20.3641H96.0484L99.6058 11.523L99.8034 11.1256C99.9022 10.8276 100.001 10.5296 100.001 10.2316C100.001 9.83424 99.9022 9.53622 99.6058 9.2382C99.3093 8.94019 98.9141 8.84085 98.5188 8.84085C97.6295 8.84085 96.8389 9.33754 96.4437 10.4303L96.246 10.8276L94.3686 15.3972C94.2698 15.7946 93.9733 15.9932 93.4792 16.2912C93.084 16.5893 92.5899 16.6886 92.1946 16.6886C91.6018 16.6886 91.3053 16.4899 91.3053 15.9932C91.3053 15.8939 91.4041 15.4965 91.6018 14.9998L92.9852 11.7217C93.2816 11.1256 93.3804 10.7283 93.3804 10.4303C93.3804 10.0329 93.2816 9.7349 92.9852 9.43688C92.6887 9.13887 92.2935 9.03953 91.8982 9.03953C91.0089 9.03953 90.3172 9.53622 89.8231 10.6289L89.6255 11.0263L88.0444 14.8012C87.6492 15.7946 87.4515 16.4899 87.4515 16.9866C87.4515 17.0851 87.4563 17.1799 87.4657 17.2715C87.265 16.7348 86.6997 16.4904 85.7698 16.4904ZM87.5465 17.6943C87.5082 17.5616 87.4809 17.421 87.4657 17.2715C87.5124 17.3964 87.5393 17.5371 87.5465 17.6943ZM91.0092 23.0466H89.1317C87.1554 23.0466 86.1673 23.6426 86.1673 25.0333C86.1673 25.53 86.2661 25.8281 86.5625 26.1261C86.859 26.4241 87.1554 26.5234 87.6495 26.5234C88.2424 26.5234 88.8353 26.2254 89.3294 25.7287C89.8234 25.232 90.4163 24.338 91.0092 23.0466Z" fill="#646B94"/>
</svg>
