<svg width="115" height="35" viewBox="0 0 115 35" fill="none" xmlns="http://www.w3.org/2000/svg">
<path fill-rule="evenodd" clip-rule="evenodd" d="M57.6141 18.9174H55.6823L62.0459 3.19089L62.2732 2.73505C62.2969 2.63991 62.3206 2.54973 62.3433 2.46348C62.4293 2.1365 62.5005 1.86597 62.5005 1.59544C62.5005 1.1396 62.3868 0.797722 62.0459 0.455841C61.705 0.11396 61.2505 0 60.7959 0C59.6596 0 58.8641 0.797722 58.1823 2.27921L54.5459 11.1681C53.7505 10.2564 52.7278 9.80058 51.3641 9.80058C49.5459 9.80058 47.955 10.5983 46.4778 12.3077C45.0005 13.9032 44.3187 15.8405 44.3187 17.8918C44.3187 19.2593 44.6596 20.3989 45.455 21.1966C46.2505 21.9943 47.1596 22.4502 48.4096 22.4502H50.455C51.2505 22.4502 52.0459 22.1083 52.7278 21.4245C53.1823 22.1083 53.7505 22.4502 54.6596 22.4502H56.8187C57.7278 22.4502 58.4096 22.2223 58.8641 21.8804C59.3145 21.6094 59.5507 21.2668 59.6292 20.7959C59.8282 21.1671 60.1126 21.4811 60.4541 21.7664C61.136 22.3363 62.1587 22.6781 63.295 22.6781C63.8632 22.6781 64.6587 22.5642 65.4541 22.2223L64.9996 23.3619H62.3859C60.1132 23.3619 58.4087 23.5898 57.2723 24.1596C56.3632 24.6155 55.4541 25.2992 54.886 26.2109C54.3178 27.1226 53.9769 28.1482 53.9769 29.1739C53.9769 30.6554 54.5451 31.9089 55.6814 32.9346C56.8178 33.8462 58.1814 34.416 59.886 34.416C62.6132 34.416 64.6587 33.0485 66.1359 30.4274C66.9314 28.9459 67.4996 27.6924 67.8405 26.7807H70.4541C71.3632 26.7807 72.045 26.5528 72.4996 26.2109C72.9541 25.869 73.1814 25.4132 73.1814 24.7294C73.1814 23.8177 72.4996 23.3619 71.1359 23.3619H69.2041L73.1814 13.2194L73.4087 12.7636L73.4087 12.7635C73.5223 12.4217 73.6359 12.0798 73.6359 11.7379C73.6359 11.2821 73.5223 10.9402 73.1814 10.5983C72.9541 10.2565 72.4996 10.1425 72.045 10.1425C70.9087 10.1425 69.9996 10.7123 69.545 11.9659L69.4314 12.4217L67.2723 17.6639C67.1587 18.1197 66.8178 18.3476 66.2496 18.6895C65.795 19.0314 65.2269 19.1454 64.7723 19.1454C64.0905 19.1454 63.7496 18.9174 63.7496 18.3476C63.7496 18.2337 63.8632 17.7778 64.0905 17.208L65.6814 13.4473C66.0223 12.7636 66.1359 12.3077 66.1359 11.9659C66.1359 11.51 66.0223 11.1681 65.6814 10.8263C65.3405 10.4844 64.8859 10.3704 64.4314 10.3704C63.4087 10.3704 62.6132 10.9402 62.045 12.1938L61.8178 12.6496L59.9996 16.9801C59.5626 18.0756 59.3357 18.8552 59.3188 19.42C58.9894 19.0771 58.4212 18.9174 57.6141 18.9174ZM59.3188 19.42C59.3181 19.4428 59.3178 19.4652 59.3178 19.4872C59.3178 19.9992 59.431 20.4259 59.6292 20.7959C59.6498 20.6727 59.6596 20.5407 59.6596 20.3989C59.6596 19.9803 59.546 19.6565 59.3188 19.42ZM15.2272 13.1049L13.75 11.2815H15.4545C17.7272 11.2815 19.3181 10.9396 20.3409 10.3698C22.1591 9.23021 23.0681 7.63477 23.0681 5.58348C23.0681 3.98804 22.5 2.73447 21.3636 1.70883C20.2272 0.68319 18.75 0.227349 16.9318 0.227349C14.4318 0.227349 12.3863 0.91111 10.6818 2.27863C8.86362 3.64616 7.95453 5.46952 7.72726 7.52081H4.99999C4.0909 7.52081 3.29545 7.74873 2.8409 8.09061C2.27272 8.54645 2.04545 9.11625 2.04545 9.80001C2.04545 10.8257 2.8409 11.2815 4.31817 11.2815H8.63635C9.09089 12.1932 9.77271 13.1049 10.7954 14.2445C12.2727 15.8399 13.1818 16.9795 13.6363 17.7772C14.0909 18.575 14.3182 19.4866 14.3182 20.3983C14.3182 21.7658 13.8636 23.1334 12.7273 24.159C11.5909 25.1846 10.3409 25.7544 8.86362 25.7544C7.49999 25.7544 6.47726 25.2986 5.56817 24.5009C4.77272 23.5892 4.31817 22.5636 4.31817 21.31C4.20454 20.5123 4.54545 19.7146 4.99999 18.9168C5.45454 18.1191 6.02272 17.4353 6.81817 16.9795L8.06817 16.1818C8.86362 15.612 9.31817 15.0422 9.31817 14.3584C9.31817 13.9026 9.09089 13.4467 8.74998 13.1049C8.40908 12.763 7.95453 12.649 7.38635 12.649C6.24999 12.649 5.11363 13.2188 3.74999 14.2445C1.25 16.1818 0 18.6889 0 21.5379C0 23.9311 0.795453 25.8684 2.38636 27.3499C3.97727 28.8314 6.02272 29.6291 8.52271 29.6291C11.8182 29.6291 14.4318 28.4895 16.3636 26.2103C17.8409 24.6148 18.6363 22.6775 18.6363 20.5123C18.6363 18.2331 17.7272 16.1818 16.1363 14.1305L15.2272 13.1049ZM15.7949 7.40738H11.9313C11.9313 6.49569 12.4995 5.81193 13.4086 5.24213C14.4313 4.55837 15.454 4.21649 16.5904 4.21649C17.3859 4.21649 17.954 4.44441 18.4086 4.67233C18.8631 4.90025 19.0904 5.24213 19.0904 5.69797C19.0904 6.83757 17.954 7.40738 15.7949 7.40738ZM27.6135 10.1425H28.068C29.4317 10.1425 30.1135 10.5983 30.1135 11.624C30.1135 12.3077 29.8862 12.7636 29.4317 13.1054C28.9771 13.4473 28.2953 13.6752 27.3862 13.6752H26.2498L24.0908 19.0314H25.9089C27.2726 19.0314 27.9544 19.4872 27.9544 20.5129C27.9544 21.1966 27.7271 21.6525 27.2726 21.9943C26.818 22.3362 26.1362 22.5641 25.3408 22.5641H22.4998C21.7044 22.5641 21.0226 22.3362 20.568 21.9943C20.1135 21.6525 19.8862 21.0827 19.8862 20.3989C19.8862 20.057 19.9999 19.6012 20.2271 19.0314L20.568 18.3476L22.3862 13.6752H22.1589C21.0226 13.6752 20.3408 13.2194 20.3408 12.3077C20.3408 11.624 20.568 11.1681 21.0226 10.7123C21.4771 10.3704 22.1589 10.1425 22.9544 10.1425H23.6362L24.4317 7.97723L24.5453 7.52139C24.9998 6.26783 25.7953 5.69802 26.9317 5.69802C27.3862 5.69802 27.7271 5.81198 28.068 6.15386C28.4089 6.49575 28.5226 6.83763 28.5226 7.17951C28.5226 7.63535 28.4089 8.09119 28.068 8.77495L27.6135 10.1425ZM42.3866 18.9175H40.5684L42.9548 13.2195C43.2957 12.4217 43.4093 11.9659 43.4093 11.624C43.4093 11.1682 43.2957 10.8263 42.9548 10.4844C42.6139 10.1425 42.273 10.0286 41.8184 10.0286C40.7957 10.0286 39.8866 10.8263 39.3184 12.3078L37.273 17.322C36.8185 18.3477 36.023 18.9175 34.6594 18.9175C34.0912 18.9175 33.7503 18.5756 33.7503 18.1197C33.7503 18.0058 33.7503 17.7779 33.8639 17.5499L34.0912 17.0941L35.7957 12.8776L35.9094 12.4217C35.9328 12.3276 35.9563 12.2383 35.9788 12.1528L35.979 12.152L35.9791 12.1517L35.9791 12.1516L35.9794 12.1506L35.9795 12.1503L35.9795 12.1502L35.9795 12.1501C36.0655 11.8232 36.1366 11.5526 36.1366 11.2821C36.1366 10.9403 36.023 10.5984 35.6821 10.2565C35.4548 9.91461 35.0003 9.80065 34.5457 9.80065C33.523 9.80065 32.6139 10.5984 32.0457 12.0799L29.8866 17.5499C29.5457 18.2337 29.4321 18.8035 29.4321 19.3733C29.4321 20.285 29.6594 21.0827 30.3412 21.6525C30.9094 22.2223 31.7048 22.5642 32.6139 22.5642H34.8866C35.6821 22.5642 36.4775 22.2223 37.0457 21.5386C37.3866 22.2223 37.9548 22.5642 38.8639 22.5642H41.7048C42.6139 22.5642 43.2957 22.3363 43.7503 21.9944C44.2048 21.5386 44.4321 21.0827 44.4321 20.399C44.4321 19.8292 44.3184 19.4873 43.9775 19.2594C43.6366 19.0314 43.0684 18.9175 42.3866 18.9175ZM49.6587 19.2593H50.2269C50.9087 19.2593 51.4769 19.0314 51.7042 18.4616L52.8405 15.6126C52.871 15.521 52.9014 15.4376 52.9297 15.3601C53.0069 15.1486 53.0678 14.9817 53.0678 14.8149C53.0678 14.473 52.9542 14.2451 52.6133 14.0172C52.386 13.7892 52.0451 13.6753 51.5905 13.6753C50.7951 13.6753 49.9996 14.1311 49.3178 15.0428C48.636 15.9545 48.2951 16.8662 48.2951 17.8918C48.4087 18.8035 48.7496 19.2593 49.6587 19.2593ZM63.4092 26.4387H61.2501C58.9773 26.4387 57.841 27.1225 57.841 28.7179C57.841 29.2877 57.9546 29.6296 58.2955 29.9715C58.6364 30.3134 59.091 30.4274 59.5455 30.4274C60.2273 30.4274 60.9092 30.0855 61.4773 29.5157C62.1592 28.9459 62.7273 27.9202 63.4092 26.4387ZM76.1362 17.55C76.5908 18.2337 77.2726 18.4616 77.8408 18.4616C78.2953 18.4616 78.7498 18.3477 79.0908 18.0058C79.5453 17.6639 79.9998 17.0941 80.3408 16.4104C80.6817 15.7266 80.9089 15.0428 80.9089 14.473C80.9089 14.0172 80.7953 13.6753 80.568 13.3334C80.3408 12.9915 79.9998 12.8776 79.5453 12.8776C78.6362 12.8776 77.8408 13.5613 77.2726 15.0428L76.1362 17.55ZM80.6822 9.80049C80.3413 9.80049 79.8867 9.91445 79.4322 10.0284L82.1595 3.30475L82.3867 2.84891C82.4104 2.75379 82.4342 2.66363 82.4568 2.57739L82.4569 2.57732C82.5429 2.25034 82.614 1.97983 82.614 1.70931C82.614 1.25347 82.5004 0.911586 82.1595 0.569705C81.9322 0.227825 81.4776 0.113864 81.0231 0.113864C80.0004 0.113864 79.2049 0.683666 78.7504 1.93723L78.5231 2.39307L71.9322 19.2592L71.7049 19.715C71.6812 19.8102 71.6575 19.9004 71.6348 19.9866L71.6348 19.9868C71.5488 20.3137 71.4777 20.5842 71.4777 20.8546C71.4777 21.3105 71.5913 21.6524 71.9322 21.9942C72.2731 22.3361 72.614 22.4501 73.0686 22.4501C73.9777 22.4501 74.6595 22.1082 75.114 21.3105C75.7958 22.1082 76.7049 22.4501 77.7277 22.4501H79.2049C80.0004 22.4501 80.7958 22.2222 81.5913 21.6524C83.7504 19.943 84.7731 17.6637 84.7731 14.8147C84.7731 13.3333 84.4322 12.0797 83.6367 11.168C82.8413 10.2563 81.9322 9.80049 80.6822 9.80049ZM90.9078 19.2593H91.2487C92.1578 19.2593 92.7259 18.9175 92.9532 18.2337L94.0896 15.6126L94.0896 15.6125C94.2032 15.2707 94.3168 14.9288 94.3168 14.7009C94.3168 14.473 94.2032 14.2451 93.9759 14.0172C93.635 13.7892 93.2941 13.6753 92.9532 13.6753C92.1578 13.6753 91.4759 14.1311 90.6805 14.9288C89.9987 15.8405 89.5441 16.7522 89.5441 17.6639C89.5441 18.8035 89.9987 19.2593 90.9078 19.2593ZM98.6359 18.9175H96.8177L99.0904 13.2195L99.3177 12.7636C99.3414 12.6685 99.3651 12.5783 99.3878 12.4921L99.3878 12.492C99.4738 12.165 99.545 11.8945 99.545 11.624C99.545 11.1682 99.4313 10.8263 99.0904 10.4844C98.7495 10.1425 98.295 10.0286 97.8404 10.0286C96.9313 10.0286 96.2495 10.4844 95.6813 11.2821C94.9995 10.2565 93.9768 9.80065 92.6132 9.80065C90.795 9.80065 89.2041 10.7123 87.7268 12.3078C86.2495 13.9032 85.5677 15.8405 85.5677 17.8918C85.5677 19.3733 85.9086 20.5129 86.7041 21.3106C87.4995 22.1084 88.4086 22.5642 89.6586 22.5642H91.4768C92.2722 22.5642 93.0677 22.1084 93.8632 21.4246C94.2041 22.2223 94.8859 22.5642 95.795 22.5642H97.9541C98.8631 22.5642 99.545 22.3363 99.9995 21.9944C100.454 21.5386 100.681 21.0827 100.681 20.399C100.681 20.3664 100.681 20.3345 100.679 20.3031C100.853 20.9021 101.222 21.3629 101.705 21.7664C102.387 22.3363 103.41 22.6781 104.546 22.6781C105.114 22.6781 105.91 22.5642 106.705 22.2223L106.251 23.3619H103.637C101.364 23.3619 99.6598 23.5898 98.5234 24.1596C97.6143 24.6155 96.7053 25.2992 96.1371 26.2109C95.5689 27.1226 95.228 28.1482 95.228 29.1739C95.228 30.6554 95.7962 31.9089 96.9325 32.9346C98.0689 33.8462 99.4325 34.416 101.137 34.416C103.864 34.416 105.91 33.0485 107.387 30.4274C108.183 28.9459 108.751 27.6924 109.092 26.7807H111.705C112.614 26.7807 113.296 26.5528 113.751 26.2109C114.205 25.869 114.432 25.4132 114.432 24.7294C114.432 23.8177 113.751 23.3619 112.387 23.3619H110.455L114.546 13.2194L114.773 12.7636L114.773 12.7635C114.887 12.4217 115.001 12.0798 115.001 11.7379C115.001 11.2821 114.887 10.9402 114.546 10.5983C114.205 10.2565 113.751 10.1425 113.296 10.1425C112.273 10.1425 111.364 10.7123 110.91 11.9659L110.683 12.4217L108.523 17.6639C108.41 18.1197 108.069 18.3476 107.501 18.6895C107.046 19.0314 106.478 19.1454 106.023 19.1454C105.342 19.1454 105.001 18.9174 105.001 18.3476C105.001 18.2337 105.114 17.7778 105.342 17.208L106.933 13.4473C107.273 12.7636 107.387 12.3077 107.387 11.9659C107.387 11.51 107.273 11.1681 106.933 10.8263C106.592 10.4844 106.137 10.3704 105.683 10.3704C104.66 10.3704 103.864 10.9402 103.296 12.1938L103.069 12.6496L101.251 16.9801C100.796 18.1197 100.569 18.9174 100.569 19.4872C100.569 19.5987 100.574 19.7061 100.585 19.8098C100.353 19.1967 99.7031 18.9175 98.6359 18.9175ZM100.679 20.3031C100.634 20.1484 100.602 19.9844 100.585 19.8098C100.64 19.9552 100.671 20.1194 100.679 20.3031ZM104.658 26.4387H102.499C100.226 26.4387 99.09 27.1225 99.09 28.7179C99.09 29.2877 99.2037 29.6296 99.5446 29.9715C99.8855 30.3134 100.226 30.4274 100.795 30.4274C101.476 30.4274 102.158 30.0855 102.726 29.5157C103.295 28.9459 103.976 27.9202 104.658 26.4387Z" fill="white"/>
</svg>
