<svg width="182" height="127" viewBox="0 0 182 127" fill="none" xmlns="http://www.w3.org/2000/svg">
<path opacity="0.8" d="M101.87 67.6797C101.87 39.191 108.712 16.8873 122.395 0.768684C136.265 -15.3499 155.665 -25.9395 180.594 -31V-3.23982C180.594 -2.36128 180.018 -1.58717 179.183 -1.3159C161.028 4.57766 148.753 14.925 142.357 29.726C138.608 37.7853 137.109 45.5635 137.858 53.0605H177C179.761 53.0605 182 55.2991 182 58.0605V122C182 124.761 179.761 127 177 127H106.87C104.109 127 101.87 124.761 101.87 122V67.6797ZM-6 67.6797C-6 39.5658 0.654037 17.3559 13.9621 1.04982C27.4576 -15.2562 47.0449 -25.9395 72.7238 -31V-3.23025C72.7238 -2.35629 72.1535 -1.58488 71.3236 -1.31089C52.977 4.74609 40.6042 14.9043 34.2054 29.1637C30.8315 36.8482 29.4257 44.8138 29.988 53.0605H69.1296C71.891 53.0605 74.1296 55.2991 74.1296 58.0605V122C74.1296 124.761 71.891 127 69.1296 127H-6V67.6797Z" fill="#F7F8FB"/>
</svg>
