<svg width="43" height="36" viewBox="0 0 43 36" fill="none" xmlns="http://www.w3.org/2000/svg">
<path d="M24.6725 22.484C24.6725 15.9929 26.2373 10.911 29.3669 7.23843C32.5394 3.56584 36.9766 1.15302 42.6785 0V6.66192C38.3485 7.98577 35.4332 10.3772 33.9327 13.8363C33.0753 15.6726 32.7323 17.4448 32.9038 19.153H43V36H24.6725V22.484ZM0 22.484C0 16.0783 1.52193 11.0178 4.5658 7.30249C7.65254 3.58719 12.1326 1.15302 18.006 0V6.66192C13.6331 8.02847 10.6964 10.3772 9.19591 13.7082C8.42423 15.4591 8.10269 17.274 8.23131 19.153H18.3275V36H0V22.484Z" fill="#424478"/>
</svg>
