<?xml version="1.0" encoding="UTF-8"?>
<svg width="16px" height="16px" viewBox="0 0 16 16" version="1.1" xmlns="http://www.w3.org/2000/svg" xmlns:xlink="http://www.w3.org/1999/xlink">
    <!-- Generator: sketchtool 40.2 (33826) - http://www.bohemiancoding.com/sketch -->
    <title>CDF33E6F-91E4-4B2F-8858-DC0B8B6FC4D1</title>
    <desc>Created with sketchtool.</desc>
    <defs></defs>
    <g id="Style-Guide" stroke="none" stroke-width="1" fill="none" fill-rule="evenodd">
        <g transform="translate(-634.000000, -7866.000000)" id="Group-89">
            <g transform="translate(0.000000, 1431.000000)">
                <g id="Group-77" transform="translate(155.000000, 6431.000000)">
                    <g id="Group-62" transform="translate(479.000000, 4.000000)">
                        <g id="ic-more-horiz-18-px">
                            <g id="Group">
                                <polygon id="Shape" points="0 0 16 0 16 16 0 16"></polygon>
                                <path d="M2.5,7 C1.67,7 1,7.67 1,8.5 C1,9.33 1.67,10 2.5,10 C3.33,10 4,9.33 4,8.5 C4,7.67 3.33,7 2.5,7 L2.5,7 Z M12.5,7 C11.67,7 11,7.67 11,8.5 C11,9.33 11.67,10 12.5,10 C13.33,10 14,9.33 14,8.5 C14,7.67 13.33,7 12.5,7 L12.5,7 Z M7.5,7 C6.67,7 6,7.67 6,8.5 C6,9.33 6.67,10 7.5,10 C8.33,10 9,9.33 9,8.5 C9,7.67 8.33,7 7.5,7 L7.5,7 Z" id="Shape" fill="#D2145A"></path>
                            </g>
                        </g>
                    </g>
                </g>
            </g>
        </g>
    </g>
</svg>