<?xml version="1.0" encoding="UTF-8"?>
<svg width="14px" height="14px" viewBox="0 0 14 14" version="1.1" xmlns="http://www.w3.org/2000/svg" xmlns:xlink="http://www.w3.org/1999/xlink">
    <!-- Generator: sketchtool 40.2 (33826) - http://www.bohemiancoding.com/sketch -->
    <title>35DB75FE-2020-48B1-BC1A-8B0F29142468</title>
    <desc>Created with sketchtool.</desc>
    <defs></defs>
    <g id="Symbols" stroke="none" stroke-width="1" fill="none" fill-rule="evenodd">
        <g id="new-tab">
            <g id="ic-open-in-new-48-px">
                <g id="Group">
                    <polygon id="Shape" points="0 0 14 0 14 14 0 14"></polygon>
                    <path d="M3.0085302,2 C1.90195036,2 1,2.8992496 1,4 L1,11 C1,12.0980496 1.8992496,13 3,13 L10,13 C11.0980496,13 12,12.1007504 12,11 L12,9 L11,9 L11,11 C11,11.5 10.5,12 10,12 L3,12 C2.5,12 2,11.5 2,11 L2,4 C2,3.5 2.5,3 3,3 L5,3 L5,2 L3.0085302,2 Z M7,3 L10.1999512,3.00000016 L3.69995117,9.5 L4.50109863,10.3000488 L11,3.80004883 L11,7 L12,7 L12,2.00000016 L7,2.00000016 L7,3 Z" id="Combined-Shape" fill="#D2145A"></path>
                </g>
            </g>
        </g>
    </g>
</svg>