<svg width="276" height="250" fill="none" xmlns="http://www.w3.org/2000/svg"><path style="mix-blend-mode:multiply" d="M206.314 250c9.079 0 16.439-3.974 16.439-8.875 0-4.902-7.36-8.876-16.439-8.876-9.078 0-16.438 3.974-16.438 8.876 0 4.901 7.36 8.875 16.438 8.875Z" fill="url(#a)"/><path d="m140.472 119.628 13.457-7.697 51.162-42.486-13.458 7.696-51.161 42.487Z" fill="#00719E"/><path d="m42.93 124.054 13.459-7.697 56.477-40.64-13.457 7.697-56.478 40.64Z" fill="#1F45CC"/><path d="m100.232 61.704 13.458-7.697 40.596 35.813-13.48 7.697-40.574-35.813Z" fill="url(#b)"/><path d="m169.879 55.12 13.458-7.697 53.03-16.638-13.458 7.696-53.03 16.639Z" fill="#00E0DE"/><path d="m201.176 86.929 13.457-7.674 21.733-48.47-13.458 7.696-21.732 48.448Z" fill="#00849E"/><path d="m169.879 55.12 9.632 9.654.333.334-39.038 32.41-40.573-35.814-73.228 52.786 15.927 9.565 56.478-40.64 41.085 36.257 51.161-42.486.2.2 9.321 9.543 21.732-48.448-53.03 16.639Z" fill="url(#c)"/><path style="mix-blend-mode:color-dodge" d="m222.531 39.282 13.057-8.008-13.569 7.474-52.14 16.371.979.98 51.673-16.817Z" fill="url(#d)"/><path style="mix-blend-mode:color-dodge" d="m100.233 62.994 40.573 35.813 39.038-32.41-.333-.333-.356-.356-38.349 31.809-40.573-35.813-73.228 52.785.979.579 72.249-52.074Z" fill="url(#e)"/><path d="M214.055 233.561a9.256 9.256 0 0 1-5.385 13.255 9.252 9.252 0 0 1-7.161-16.969 9.276 9.276 0 0 1 12.546 3.714Z" fill="#116D7C"/><path d="m177.308 161.802-20.02 10.811 37.348 68.69c1.735 3.225 7.652 3.426 13.191.445 5.539-2.981 8.608-8.008 6.873-11.122l-37.392-68.824Z" fill="url(#f)"/><path d="M177.33 161.846c1.735 3.226-1.357 8.253-6.896 11.122-5.538 2.87-11.433 2.781-13.168-.444-1.735-3.226 1.335-8.253 6.873-11.123 5.539-2.869 11.456-2.736 13.191.445Z" fill="url(#g)"/><path d="m165.518 149.902-11.923 6.54 7.118 12.99c1.046 1.935 4.56 2.047 7.853.267 3.292-1.779 5.116-4.76 4.093-6.673l-7.141-13.124Z" fill="url(#h)"/><g opacity=".2"><path opacity=".05" d="M5.138 119.739a5.182 5.182 0 0 0-2.803 4.449 5.695 5.695 0 0 0 3.092 4.804s15.57 9.743 15.749 9.81l11.344 6.918 3.47 2.224a11.697 11.697 0 0 0 5.74 1.446 9.453 9.453 0 0 0 4.737-1.112s8.898-6.384 8.898-6.406a5.17 5.17 0 0 0 2.78-4.449 5.672 5.672 0 0 0-3.07-4.916s-15.57-9.721-15.704-9.788l-11.277-6.895-3.159-1.935a11.76 11.76 0 0 0-5.761-1.446 9.358 9.358 0 0 0-4.716 1.112s-9.276 6.162-9.32 6.184Z" fill="#ABB2E2"/><path opacity=".1" d="M5.583 119.606a5.206 5.206 0 0 0-2.78 4.182 5.45 5.45 0 0 0 2.78 4.782c-.178.111 14.77 9.409 14.992 9.543l10.967 6.673 3.359 2.047a11.434 11.434 0 0 0 5.45 1.379 9.364 9.364 0 0 0 4.582-1.068c.111 0 8.564-6.073 8.653-6.117a5.208 5.208 0 0 0 2.78-4.204 5.427 5.427 0 0 0-2.67-4.85c.179 0-14.725-9.387-14.947-9.52l-10.944-6.673-3.025-1.735a11.61 11.61 0 0 0-5.561-1.424 9.364 9.364 0 0 0-4.583 1.068s-8.964 5.872-9.053 5.917Z" fill="#A7ADDF"/><path opacity=".14" d="M6.028 119.451a5.238 5.238 0 0 0-2.759 4.07 5.073 5.073 0 0 0 2.492 4.605c-.29.178 13.88 9.098 14.214 9.298l10.588 6.406 3.225 1.935a11.336 11.336 0 0 0 5.361 1.379 9.22 9.22 0 0 0 4.449-1.001c.178 0 8.23-5.783 8.364-5.85a5.224 5.224 0 0 0 2.78-4.07 5.114 5.114 0 0 0-2.491-4.605c.29-.156-13.858-9.076-14.192-9.253l-10.588-6.407-2.959-1.779a10.965 10.965 0 0 0-5.36-1.357 8.887 8.887 0 0 0-4.45 1.001c-.133 0-8.54 5.561-8.674 5.628Z" fill="#A3A9DC"/><path opacity=".19" d="M6.495 119.316a5.272 5.272 0 0 0-2.758 3.937 4.827 4.827 0 0 0 2.224 4.449c-.378.222 13.035 8.764 13.458 9.031l10.165 6.139 3.115 1.869a11.12 11.12 0 0 0 5.183 1.312 8.898 8.898 0 0 0 4.248-.934c.223 0 7.92-5.472 8.075-5.561a5.232 5.232 0 0 0 2.758-3.937 4.827 4.827 0 0 0-2.224-4.449c.378-.222-12.99-8.742-13.347-8.898l-10.232-6.228-2.847-1.713a10.791 10.791 0 0 0-5.161-1.334 9.153 9.153 0 0 0-4.27.934c-.223.022-8.231 5.294-8.387 5.383Z" fill="#9FA4D8"/><path opacity=".24" d="M6.985 119.183a5.292 5.292 0 0 0-2.803 3.892 4.647 4.647 0 0 0 1.89 4.316c-.467.267 12.168 8.43 12.724 8.742l9.81 5.783 3.003 1.802a10.686 10.686 0 0 0 4.983 1.268 8.902 8.902 0 0 0 4.092-.89c.29 0 7.586-5.161 7.786-5.272a5.335 5.335 0 0 0 2.758-3.803 4.583 4.583 0 0 0-1.98-4.294c.468-.267-12.123-8.408-12.656-8.719l-9.743-5.895s-2.648-1.624-2.736-1.646a10.547 10.547 0 0 0-4.983-1.268 8.893 8.893 0 0 0-4.093.979c-.29 0-7.897 4.871-8.052 5.005Z" fill="#9BA0D5"/><path opacity=".29" d="M7.385 119.028a5.471 5.471 0 0 0-2.625 3.67 4.449 4.449 0 0 0 1.602 4.16c-.579.311 11.278 8.097 11.945 8.475l9.32 5.65 2.892 1.713a10.37 10.37 0 0 0 4.782 1.201 8.596 8.596 0 0 0 3.96-.801c.333 0 7.251-4.872 7.474-5.005a5.369 5.369 0 0 0 2.736-3.67 4.446 4.446 0 0 0-1.58-4.138c.557-.333-11.255-8.097-11.9-8.475l-9.454-5.627s-2.513-1.535-2.625-1.58a10.37 10.37 0 0 0-4.782-1.201 8.575 8.575 0 0 0-3.96.779c-.333 0-7.54 4.715-7.785 4.849Z" fill="#979BD2"/><path opacity=".33" d="M7.83 118.895c-1.18.689-2.714 2.224-2.714 3.537 0 1.312-.134 3.158 1.29 3.981-.668.401 10.41 7.786 11.122 8.231l9.075 5.383 2.759 1.646a10.506 10.506 0 0 0 4.582 1.157 8.546 8.546 0 0 0 3.804-.757c.4 0 6.918-4.449 7.185-4.716 1.2-.689 2.736-2.224 2.736-3.536 0-1.313.133-3.159-1.29-3.982.667-.4-10.389-7.763-11.123-8.208l-9.03-5.383-2.514-1.491a10.23 10.23 0 0 0-4.605-1.178 8.449 8.449 0 0 0-3.781.756c-.4 0-7.207 4.404-7.497 4.56Z" fill="#9397CF"/><path opacity=".38" d="M8.297 118.76c-1.112.646-2.736 2.225-2.736 3.382 0 1.156-.312 3.091 1 3.848-.756.445 9.566 7.452 10.433 7.963l8.698 5.116c.133 0 2.491 1.513 2.647 1.557a9.636 9.636 0 0 0 4.449 1.113 7.828 7.828 0 0 0 3.625-.69c.445 0 6.674-4.249 6.918-4.449 1.09-.645 2.714-2.224 2.714-3.403 0-1.179.334-3.07-1-3.826.755-.445-9.521-7.43-10.389-7.941l-8.742-5.027c-.111 0-2.224-1.357-2.424-1.424a9.836 9.836 0 0 0-4.45-1.112 7.92 7.92 0 0 0-3.647.689c-.379-.089-6.785 4.071-7.096 4.204Z" fill="#8F92CC"/><path opacity=".43" d="M8.741 118.627c-1.023.578-2.713 2.224-2.713 3.248 0 1.023-.534 2.98.711 3.692-.867.49 8.676 7.118 9.654 7.674l8.386 4.894c.156 0 2.358 1.401 2.536 1.468a9.717 9.717 0 0 0 4.138 1.068 7.804 7.804 0 0 0 3.47-.645c.511 0 6.273-3.937 6.673-4.138 1.023-.6 2.692-2.224 2.692-3.269 0-1.046.511-2.87-.734-3.671.845-.511-8.654-7.118-9.632-7.674l-8.297-4.871c-.156 0-2.225-1.313-2.225-1.357a9.42 9.42 0 0 0-4.204-1.09 8.118 8.118 0 0 0-3.47.645 78.25 78.25 0 0 0-6.985 4.026Z" fill="#8B8EC9"/><path opacity=".48" d="M9.209 118.472c-.935.534-2.692 2.224-2.692 3.136 0 .912-.734 2.87.4 3.537-.956.534 7.808 6.673 8.898 7.407l7.919 4.627c.178 0 2.224 1.335 2.424 1.402 1.241.637 2.61.987 4.005 1.023a8.168 8.168 0 0 0 3.314-.579 69.577 69.577 0 0 0 6.34-3.87c.934-.534 2.758-2.18 2.758-3.181s.711-2.869-.4-3.537c.956-.534-7.786-6.673-8.898-7.385l-7.964-4.649c-.155 0-2.046-1.223-2.224-1.29a9.215 9.215 0 0 0-4.004-.934 7.583 7.583 0 0 0-3.337.578 67.54 67.54 0 0 0-6.54 3.715Z" fill="#8789C6"/><path opacity=".52" d="M9.632 118.337c-.846.49-2.67 2.225-2.67 2.981 0 .756-.934 2.803 0 3.381-.956.601 7.052 6.473 8.253 7.274l7.54 4.449c.179.111 2.092 1.246 2.225 1.335a8.91 8.91 0 0 0 3.804.956 7.595 7.595 0 0 0 3.18-.512 60.45 60.45 0 0 0 6.162-3.781c.846-.489 2.692-2.224 2.692-3.003 0-.779.912-2.78-.111-3.381 1-.512-7.03-6.429-8.164-7.185l-7.54-4.449c-.179 0-1.914-1.134-2.114-1.201a8.9 8.9 0 0 0-3.826-.979 7.913 7.913 0 0 0-3.18.623 57.381 57.381 0 0 0-6.251 3.492Z" fill="#8385C2"/><path opacity=".57" d="M10.077 118.204c-.757.423-2.67 2.069-2.67 2.847 0 .779-1.112 2.692-.178 3.226-1.134.667 6.073 6.117 7.385 6.895l7.163 4.116c.2 0 1.958 1.156 2.225 1.245a9.279 9.279 0 0 0 3.625.912 7.222 7.222 0 0 0 3.003-.467 44.15 44.15 0 0 0 5.717-3.292c.779-.445 2.67-2.091 2.67-2.87 0-.778 1.112-2.691.2-3.225 1.134-.645-6.05-6.117-7.363-6.873l-7.074-4.116c-.2-.111-1.802-1.045-2.002-1.134a8.887 8.887 0 0 0-3.626-.934 7.728 7.728 0 0 0-3.025.445 47.932 47.932 0 0 0-6.05 3.225Z" fill="#7F80BF"/><path opacity=".62" d="M10.543 118.048c-.69.401-2.67 2.047-2.67 2.736 0 .69-1.312 2.603-.489 3.07-1.223.712 5.205 5.783 6.674 6.673l6.784 3.871c.223.133 1.824 1.067 2.091 1.156a8.29 8.29 0 0 0 3.381.868c.991.041 1.98-.11 2.914-.445a37.948 37.948 0 0 0 5.45-3.025c.69-.401 2.67-2.047 2.67-2.736 0-.69 1.312-2.603.489-3.07 1.223-.712-5.183-5.783-6.674-6.673l-6.673-3.848c-.2-.134-1.668-1.001-1.89-1.09a8.896 8.896 0 0 0-3.449-.868 7.704 7.704 0 0 0-2.847.378 37.864 37.864 0 0 0-5.761 3.003Z" fill="#7B7CBC"/><path opacity=".67" d="M10.989 117.916c-.6.334-2.647 1.98-2.647 2.58 0 .601-1.513 2.514-.801 2.936-1.313.757 4.449 5.45 5.872 6.34l6.407 3.604c.244.155 1.712 1.001 1.98 1.09a8.643 8.643 0 0 0 3.225.823 7.414 7.414 0 0 0 2.691-.334 31.905 31.905 0 0 0 5.183-2.736c.578-.356 2.647-2.002 2.647-2.603 0-.6 1.49-2.491.779-2.914 1.334-.756-4.316-5.449-5.85-6.339l-6.407-3.604c-.222-.133-1.535-.912-1.802-1.001a8.236 8.236 0 0 0-3.225-.823 7.126 7.126 0 0 0-2.714.312 31.413 31.413 0 0 0-5.338 2.669Z" fill="#7777B9"/><path opacity=".71" d="M11.433 117.782c-.512.289-2.625 1.935-2.625 2.447s-1.713 2.402-1.09 2.847c-1.424.823 3.47 5.139 5.116 6.095l6.028 3.359c.245.133 1.557.89 1.847 1.001a8.098 8.098 0 0 0 3.047.667 6.653 6.653 0 0 0 2.536-.267 25.054 25.054 0 0 0 4.871-2.469c.512-.289 2.625-1.935 2.625-2.447 0-.511 1.713-2.402 1.09-2.758 1.424-.823-3.448-5.138-5.094-6.073l-6.028-3.358c-.245-.134-1.424-.823-1.69-.935a8.526 8.526 0 0 0-3.048-.778 7.723 7.723 0 0 0-2.536.267 25.718 25.718 0 0 0-5.05 2.402Z" fill="#7373B6"/><path opacity=".76" d="M11.878 117.626c-.445.244-2.67 1.89-2.67 2.335 0 .445-1.89 2.225-1.378 2.603-1.513.867 2.602 4.805 4.448 5.828l5.65 3.092c.267.155 1.424.823 1.735.934a8.021 8.021 0 0 0 2.892.712 7.509 7.509 0 0 0 2.225-.223 20.187 20.187 0 0 0 4.582-2.224c.423-.245 2.625-1.869 2.625-2.224 0-.356 1.89-2.225 1.379-2.603 1.513-.89-2.58-4.805-4.338-5.806l-5.65-3.114c-.244-.133-1.29-.734-1.579-.845a8.133 8.133 0 0 0-2.847-.734 7.021 7.021 0 0 0-2.403.2 20.268 20.268 0 0 0-4.67 2.069Z" fill="#6F6EB3"/><path opacity=".81" d="M12.345 117.492c-.356.2-2.625 1.846-2.625 2.225 0 .378-2.09 2.224-1.69 2.469-1.602.934 1.735 4.449 3.603 5.538l5.272 2.848c.29.178 1.29.734 1.602.867a8.23 8.23 0 0 0 2.67.645 7.29 7.29 0 0 0 2.224-.133 16.295 16.295 0 0 0 4.293-1.913c.333-.178 2.602-1.824 2.602-2.225 0-.4 2.091-2.224 1.69-2.446 1.625-.935-1.712-4.449-3.58-5.561l-5.272-2.848c-.267-.133-1.18-.667-1.468-.778a8.724 8.724 0 0 0-2.67-.69 8.065 8.065 0 0 0-2.224.156 16.03 16.03 0 0 0-4.427 1.846Z" fill="#6B6AB0"/><path opacity=".86" d="M12.79 117.359a13.544 13.544 0 0 0-2.603 2.046c0 .289-2.224 2.225-1.98 2.225-1.712 1.001.868 4.159 2.825 5.294l4.85 2.669c.48.283.978.536 1.49.756a7.759 7.759 0 0 0 2.47.623 7.03 7.03 0 0 0 2.068 0 13.05 13.05 0 0 0 4.004-1.624 13.568 13.568 0 0 0 2.647-2.135c0-.289 2.224-2.224 1.98-2.224 1.712-1.001-.846-4.16-2.825-5.295l-4.894-2.58a9.895 9.895 0 0 0-1.357-.712 8.284 8.284 0 0 0-2.47-.645 8.13 8.13 0 0 0-2.09 0 13.7 13.7 0 0 0-4.115 1.602Z" fill="#6765AC"/><path opacity=".9" d="M13.235 117.225a19.822 19.822 0 0 0-2.603 1.913c0 .178-2.469 2.025-2.224 2.225-1.802 1.045 0 3.826 2.069 5.027l4.449 2.224c.333.178 1.023.557 1.379.69.712.291 1.46.485 2.224.578a7.572 7.572 0 0 0 1.89 0 10.424 10.424 0 0 0 3.716-1.334 19.643 19.643 0 0 0 2.602-1.913c0-.178 2.47-2.024 2.225-2.225 1.801-1.045 0-3.826-2.07-5.027l-4.448-2.224c-.376-.277-.77-.53-1.179-.757a8.685 8.685 0 0 0-2.224-.578 7.849 7.849 0 0 0-1.913 0c-1.377.206-2.7.682-3.893 1.401Z" fill="#6361A9"/><path opacity=".95" d="M13.658 117.07s-2.58 1.69-2.58 1.779c0 .089-2.67 1.935-2.58 2.002-1.891 1.09-.868 3.492 1.334 4.76l4.115 2.069c.407.239.83.447 1.268.623a9.238 9.238 0 0 0 2.091.511 9.21 9.21 0 0 0 1.757 0 8.622 8.622 0 0 0 3.493-1.023s2.58-1.69 2.58-1.779c0-.089 2.692-1.936 2.58-2.002 1.891-1.09.868-3.47-1.312-4.738l-4.115-2.091a11.181 11.181 0 0 0-1.18-.556 9.097 9.097 0 0 0-2.068-.556 9.445 9.445 0 0 0-1.78 0 8.876 8.876 0 0 0-3.603 1.001Z" fill="#5F5CA6"/><path opacity=".2" d="m20.776 127.058 5.427-3.493c2.002-1.134 1.736-3.158-.556-4.448l-3.737-1.847a8.706 8.706 0 0 0-7.785-.311l-5.428 3.492c-2.002 1.135-1.757 3.159.556 4.449l3.737 1.846a8.7 8.7 0 0 0 7.786.312Z" fill="#5B58A3"/></g><path d="m141.962 128.325 16.861-9.609 77.832-64.575-16.839 9.632-77.854 64.552Z" fill="#006D9C"/><path d="m19.93 133.887 16.84-9.632 70.669-50.85-16.839 9.61-70.67 50.872Z" fill="#1F45CC"/><path d="m91.624 55.855 16.839-9.61 50.783 44.8-16.839 9.631-50.783-44.821Z" fill="url(#i)"/><path d="m192.59 36.212 16.839-9.631 66.354-20.82-16.839 9.631-66.354 20.82Z" fill="#2CF4FF"/><path d="m231.761 76.03 16.839-9.632L275.783 5.76l-16.839 9.632-27.183 60.637Z" fill="#118084"/><path d="m192.59 36.213 12.056 12.1.423.423-62.662 51.94-50.784-44.822L0 121.897l19.93 11.99L90.6 83.014l51.406 45.378 77.833-64.552.244.245 11.678 11.945 27.183-60.638-66.354 20.82Z" fill="url(#j)"/><path style="mix-blend-mode:color-dodge" d="m258.477 16.415 16.35-10.032-16.995 9.365-65.242 20.464 1.223 1.224 64.664-21.021Z" fill="url(#k)"/><path style="mix-blend-mode:color-dodge" d="m91.624 57.478 50.783 44.822 62.662-51.962-.423-.423-.467-.467-61.772 51.228-50.784-44.821L0 121.897l1.223.734 90.4-65.153Z" fill="url(#l)"/><path d="M125.547 148.856c-31.52-18.218-57.079-62.283-57.079-98.452 0-14.526 4.138-25.559 11.122-32.388C66.244 22.332 57.77 36.012 57.77 56.921c0 36.17 25.558 80.235 57.078 98.431 18.863 10.877 35.591 10.032 45.979-.134-9.743 3.159-21.977 1.224-35.279-6.362Z" fill="url(#m)"/><path style="mix-blend-mode:screen" opacity=".5" d="M155.999 153.65c20.957-12.251 20.741-51.613-.481-87.916-21.223-36.304-55.416-55.802-76.373-43.551-20.957 12.251-20.742 51.613.48 87.916 21.223 36.304 55.417 55.802 76.374 43.551Z" fill="url(#n)"/><path style="mix-blend-mode:multiply" d="M155.999 153.65c20.957-12.251 20.741-51.613-.481-87.916-21.223-36.304-55.416-55.802-76.373-43.551-20.957 12.251-20.742 51.613.48 87.916 21.223 36.304 55.417 55.802 76.374 43.551Z" fill="url(#o)"/><path d="M126.926 17.46C111.533 8.52 97.363 7.407 87.064 13.057c-.289.156-15.037 8.409-15.57 9.12 10.454-7.896 25.958-7.785 43.242 2.225 31.52 18.196 57.078 62.283 57.078 98.43 0 18.463-6.673 31.275-17.372 37.014a13.173 13.173 0 0 0 2.891-1.179l10.655-6.45c9.921-6.073 16.016-18.574 16.016-36.236 0-36.236-25.558-80.324-57.078-98.52Z" fill="url(#p)"/><path d="M114.824 24.378C83.304 6.181 57.746 20.752 57.746 56.92s25.558 80.234 57.078 98.43c31.52 18.196 57.079 3.626 57.079-32.543 0-36.17-25.559-80.235-57.079-98.43Zm-.4 126.635c-29.096-16.816-52.697-57.479-52.697-90.89 0-33.41 23.602-46.823 52.697-30.029 29.095 16.795 52.718 57.39 52.718 90.89 0 33.499-23.623 46.824-52.718 30.029Z" fill="url(#q)"/><path style="mix-blend-mode:screen" d="M117.56 22.976c-15.104-8.72-28.917-9.898-39.038-4.782 9.52-2.67 23.512-1.224 36.302 6.161 31.52 18.196 57.078 62.284 57.078 98.43 0 18.841-9.142 32.343-20.219 37.815 13.924-3.892 22.955-17.795 22.955-39.238 0-36.102-25.558-80.168-57.078-98.386Z" fill="url(#r)"/><path style="mix-blend-mode:screen" opacity=".5" d="M110.019 69.111a178.318 178.318 0 0 1 30.275-24.313 95.649 95.649 0 0 0-22.734-18.885C87.73 8.696 63.551 22.487 63.551 56.72c0 17.217 6.117 36.303 15.994 53.252a173.52 173.52 0 0 1 30.474-40.862Z" fill="url(#s)"/><defs><linearGradient id="b" x1="161.737" y1="110.04" x2="81.837" y2="30.629" gradientUnits="userSpaceOnUse"><stop offset=".11" stop-color="#84EFA9"/><stop offset=".14" stop-color="#80F0AD"/><stop offset=".49" stop-color="#51F8D8"/><stop offset=".77" stop-color="#34FDF3"/><stop offset=".92" stop-color="#29FFFD"/></linearGradient><linearGradient id="c" x1="228.537" y1="52.829" x2="27.606" y2="123.143" gradientUnits="userSpaceOnUse"><stop stop-color="#00C7C5"/><stop offset=".39" stop-color="#2D9BE0"/><stop offset=".74" stop-color="#5277F7"/><stop offset=".78" stop-color="#5B76F7"/><stop offset=".85" stop-color="#7374F6"/><stop offset=".94" stop-color="#211ECE"/><stop offset="1" stop-color="#4234E0"/></linearGradient><linearGradient id="f" x1="177.5" y1="209.941" x2="197.493" y2="199.167" gradientUnits="userSpaceOnUse"><stop stop-color="#14A5AD"/><stop offset=".135" stop-color="#11B2BC"/><stop offset=".284" stop-color="#14A5AE"/><stop offset=".4" stop-color="#0E9195"/><stop offset=".57" stop-color="#117E83"/><stop offset=".701" stop-color="#077877"/><stop offset=".849" stop-color="#077877"/><stop offset=".992" stop-color="#056868"/></linearGradient><linearGradient id="g" x1="171.169" y1="151.303" x2="165.407" y2="174.97" gradientUnits="userSpaceOnUse"><stop stop-color="#077473"/><stop offset=".17" stop-color="#077877"/><stop offset=".451" stop-color="#087978"/><stop offset=".663" stop-color="#0F9397"/><stop offset=".85" stop-color="#0F9295"/><stop offset="1" stop-color="#0A9091"/></linearGradient><linearGradient id="h" x1="158.126" y1="164.613" x2="169.973" y2="158.229" gradientUnits="userSpaceOnUse"><stop stop-color="#B9BFEA"/><stop offset=".11" stop-color="#E5E9FF"/><stop offset=".17" stop-color="#fff"/><stop offset=".4" stop-color="#DFE3FC"/><stop offset=".7" stop-color="#AFB6E5"/><stop offset=".95" stop-color="#BAC0EA"/><stop offset="1" stop-color="#BDC3EC"/></linearGradient><linearGradient id="i" x1="168.588" y1="116.336" x2="68.623" y2="16.972" gradientUnits="userSpaceOnUse"><stop offset=".01" stop-color="#29FFFD"/><stop offset=".68" stop-color="#69A9F3"/><stop offset="1" stop-color="#8484EF"/></linearGradient><linearGradient id="j" x1="268.086" y1="39.193" x2=".578" y2="132.797" gradientUnits="userSpaceOnUse"><stop stop-color="#00C7C5"/><stop offset=".34" stop-color="#2D9BE0"/><stop offset=".66" stop-color="#5277F7"/><stop offset=".71" stop-color="#5B76F7"/><stop offset=".8" stop-color="#4C4EE6"/><stop offset=".92" stop-color="#0E4F8F"/><stop offset="1" stop-color="#1C11A0"/></linearGradient><linearGradient id="m" x1="70.848" y1="26.959" x2="130.262" y2="164.472" gradientUnits="userSpaceOnUse"><stop stop-color="#9DA6EA"/><stop offset=".11" stop-color="#E5E9FF"/><stop offset=".4" stop-color="#DFE3FC"/><stop offset=".7" stop-color="#AFB6E5"/><stop offset=".95" stop-color="#BAC0EA"/><stop offset="1" stop-color="#BDC3EC"/></linearGradient><linearGradient id="p" x1="102.235" y1="8.007" x2="174.328" y2="145.987" gradientUnits="userSpaceOnUse"><stop stop-color="#9DA6EA"/><stop offset=".11" stop-color="#E5E9FF"/><stop offset=".17" stop-color="#fff"/><stop offset=".4" stop-color="#DFE3FC"/><stop offset=".7" stop-color="#AFB6E5"/><stop offset=".95" stop-color="#BAC0EA"/><stop offset="1" stop-color="#BDC3EC"/></linearGradient><linearGradient id="q" x1="65.131" y1="105.902" x2="140.472" y2="81.589" gradientUnits="userSpaceOnUse"><stop stop-color="#AFB6E5"/><stop offset=".14" stop-color="#B6BCE8"/><stop offset=".35" stop-color="#C8CDF1"/><stop offset=".58" stop-color="#E5E9FF"/><stop offset=".95" stop-color="#F5F4FC"/><stop offset="1" stop-color="#F7F6FB"/></linearGradient><radialGradient id="a" cx="0" cy="0" r="1" gradientUnits="userSpaceOnUse" gradientTransform="matrix(16.4184 0 0 8.88208 201.126 240.606)"><stop offset=".19" stop-color="#AFB6E5"/><stop offset="1" stop-color="#fff"/></radialGradient><radialGradient id="d" cx="0" cy="0" r="1" gradientUnits="userSpaceOnUse" gradientTransform="translate(219.839 10.676) scale(53.1634)"><stop stop-color="#fff"/><stop offset="1"/></radialGradient><radialGradient id="e" cx="0" cy="0" r="1" gradientUnits="userSpaceOnUse" gradientTransform="translate(97.252 99.207) scale(57.1007)"><stop stop-color="#fff"/><stop offset="1"/></radialGradient><radialGradient id="k" cx="0" cy="0" r="1" gradientUnits="userSpaceOnUse" gradientTransform="translate(255.096 -19.398) scale(66.5322)"><stop stop-color="#fff"/><stop offset="1"/></radialGradient><radialGradient id="l" cx="0" cy="0" r="1" gradientUnits="userSpaceOnUse" gradientTransform="translate(94.248 100.899) scale(76.6755)"><stop stop-color="#fff"/><stop offset="1"/></radialGradient><radialGradient id="n" cx="0" cy="0" r="1" gradientUnits="userSpaceOnUse" gradientTransform="translate(106.881 69.227) scale(77.3651)"><stop offset=".01" stop-color="#6CF"/><stop offset="1" stop-color="#5277F7"/></radialGradient><radialGradient id="o" cx="0" cy="0" r="1" gradientUnits="userSpaceOnUse" gradientTransform="translate(106.569 69.806) scale(77.3651)"><stop offset=".48" stop-color="#fff"/><stop offset="1" stop-color="#AFB6E5"/></radialGradient><radialGradient id="r" cx="0" cy="0" r="1" gradientUnits="userSpaceOnUse" gradientTransform="translate(141.028 43.419) scale(61.6607)"><stop stop-color="#fff"/><stop offset="1"/></radialGradient><radialGradient id="s" cx="0" cy="0" r="1" gradientUnits="userSpaceOnUse" gradientTransform="translate(104.28 56.855) scale(42.2193)"><stop stop-color="#fff"/><stop offset="1"/></radialGradient></defs></svg>