<svg width="246" height="250" fill="none" xmlns="http://www.w3.org/2000/svg"><g opacity=".2"><path opacity=".05" d="M87.704 106.989a32.706 32.706 0 0 1 15.722-4.078 31.622 31.622 0 0 1 7.327.785 23.672 23.672 0 0 1 5.626 2.181c.284 0 34.585 19.233 34.89 19.364l79.505 45.334a13.94 13.94 0 0 1 7.545 11.732 13.079 13.079 0 0 1-1.505 6.302 18.067 18.067 0 0 1-6.912 7.043l-87.137 47.385-2.661 1.439a30.728 30.728 0 0 1-15.264 4.362 26.432 26.432 0 0 1-12.866-2.835L96.71 237.28c-.305.175-29.46-17.27-29.722-17.445l-56.5-34.519a14.194 14.194 0 0 1-7.654-11.731c-.03-1.305.139-2.607.502-3.86a16.703 16.703 0 0 1 7.807-9.529l56.456-39.382c-.35-.153 19.822-13.651 20.105-13.825Z" fill="#ABB2E2"/><path opacity=".1" d="M83.953 110.02a32.702 32.702 0 0 1 22.395-3.38 24.568 24.568 0 0 1 5.473 1.962c.567-.218 33.538 18.143 33.996 18.404l77.412 44.158a13.93 13.93 0 0 1 7.479 11.339 12.479 12.479 0 0 1-1.308 6.062 16.728 16.728 0 0 1-6.367 6.804l-80.574 46.294s-2.508 1.396-2.464 1.417a28.81 28.81 0 0 1-14.458 4.362 25.58 25.58 0 0 1-12.451-2.486l-15.046-8.068c-.589.327-28.762-16.224-29.286-16.53l-55.41-33.603a14.304 14.304 0 0 1-7.675-11.448c-.07-1.261.048-2.525.35-3.751a15.61 15.61 0 0 1 7.064-9.245l51.594-38.554c-.524-.305 18.666-13.389 19.276-13.737Z" fill="#A7ADDF"/><path opacity=".14" d="M80.182 113.029a32.413 32.413 0 0 1 14.85-4.034 33.452 33.452 0 0 1 6.912.567c1.839.381 3.625.982 5.321 1.788.85-.349 32.513 17.074 33.167 17.445l75.318 43.024c4.165 2.398 7.414 6.694 7.414 10.903a12.12 12.12 0 0 1-1.09 5.822 15.688 15.688 0 0 1-5.8 6.542l-74.141 45.138s-2.333 1.352-2.181 1.396a26.96 26.96 0 0 1-13.607 4.514 25.455 25.455 0 0 1-12.037-2.181l-14.784-7.392c-.894.501-28.087-15.264-28.85-15.613L16.16 187.999c-4.121-2.29-7.654-6.738-7.654-10.969-.103-1.211-.03-2.43.218-3.62a14.7 14.7 0 0 1 6.324-8.984l46.796-37.724c-.785-.458 17.445-13.149 18.339-13.673Z" fill="#A3A9DC"/><path opacity=".19" d="M76.322 116.06a32.531 32.531 0 0 1 14.413-3.969 33.42 33.42 0 0 1 6.717.436c1.779.337 3.513.878 5.168 1.614 1.155-.458 31.466 15.984 32.36 16.507l73.312 41.824c3.925 2.181 7.327 6.542 7.327 10.511a11.6 11.6 0 0 1-.872 5.582 14.268 14.268 0 0 1-5.256 6.346l-67.599 44.004s-2.18 1.309-2.18 1.374a25.556 25.556 0 0 1-24.358 2.879l-14.522-6.695c-1.2.676-27.41-14.087-28.348-14.675l-53.425-32.317c-3.926-2.181-7.72-6.738-7.72-10.729a12.41 12.41 0 0 1 0-3.489c1.003-3.096 2.05-6.694 5.583-8.722l42.107-36.918c-1.047-.589 16.202-12.866 17.292-13.563Z" fill="#9FA4D8"/><path opacity=".24" d="M72.658 119.091a32.172 32.172 0 0 1 13.978-3.947 37.165 37.165 0 0 1 6.541.305c1.719.31 3.4.8 5.016 1.461 1.44-.567 30.528 14.916 31.553 15.57l71.066 40.646c3.708 2.181 7.262 6.346 7.262 10.097.215 1.807-.01 3.64-.654 5.342a13.35 13.35 0 0 1-4.623 6.128l-61.254 42.958s-1.984 1.265-1.897 1.352a23.032 23.032 0 0 1-11.884 4.775 24.787 24.787 0 0 1-11.208-1.395l-14.262-6.019c-1.504.851-26.712-13.083-27.999-13.759L21.96 190.964c-3.707-2.181-7.742-6.542-7.742-10.38a11.577 11.577 0 0 1 0-3.358c.938-2.922 1.505-6.542 4.82-8.461l37.157-36.198c-1.286-.741 14.981-12.669 16.464-13.476Z" fill="#9BA0D5"/><path opacity=".29" d="M68.886 122.079a32.356 32.356 0 0 1 13.541-3.904 39.718 39.718 0 0 1 6.302.197 27.33 27.33 0 0 1 4.863 1.286c1.723-.676 29.395 13.825 30.725 14.61l69.038 39.491c3.467 2.006 7.174 6.171 7.174 9.704a10.89 10.89 0 0 1-.436 5.102c-1.112 2.007-1.723 4.493-4.143 5.888l-54.733 41.737c.13 0-1.788 1.221-1.679 1.287a20.613 20.613 0 0 1-11.034 4.928 24.767 24.767 0 0 1-10.903-1.025l-14.022-5.343c-1.788 1.025-26.014-11.949-27.563-12.843l-51.244-30.987c-3.467-2.006-7.763-6.542-7.763-10.031a11.51 11.51 0 0 1-.175-3.227c.873-2.726.96-6.367 4.078-8.177l32.448-35.261c-1.548-.894 13.738-12.386 15.526-13.432Z" fill="#979BD2"/><path opacity=".33" d="M65.135 125.131a32.707 32.707 0 0 1 13.084-3.881 40.116 40.116 0 0 1 6.084 0c1.599.234 3.175.606 4.71 1.112 2.006-.807 28.348 12.757 29.918 13.672l66.967 38.379c3.227 1.876 7.087 5.997 7.087 9.268 0 1.526.523 3.532-.218 4.884-1.025 1.876-1.331 4.362-3.598 5.67l-48.257 40.581c.152 0-1.614 1.178-1.483 1.265a18.778 18.778 0 0 1-10.184 5.059c-3.468.53-7.009.3-10.379-.676l-13.76-4.645c-2.181 1.221-25.339-10.903-27.149-11.928l-50.328-30.31c-3.25-1.875-7.785-6.389-7.785-9.682 0-.916-.589-2.181-.305-3.097.806-2.551.414-6.236 3.314-7.915l27.672-34.432c-1.788-1.112 12.517-12.015 14.61-13.324Z" fill="#9397CF"/><path opacity=".38" d="M61.363 128.14c3.95-2.15 8.299-3.471 12.778-3.881a48.595 48.595 0 0 1 5.888 0c1.54.208 3.064.528 4.557.959 2.311-.915 27.323 11.667 29.111 12.713l64.83 37.071c3.009 1.722 7.043 5.8 7.043 8.853 0 1.417.676 3.38 0 4.667-.959 1.722-.937 4.208-3.031 5.408l-41.933 39.512c.174.109-1.439 1.134-1.308 1.243a16.503 16.503 0 0 1-9.312 5.146 23.505 23.505 0 0 1-9.965-.283l-13.498-3.969c-2.377 1.396-24.663-9.813-26.712-10.903l-49.282-29.743c-3.01-1.723-7.807-6.259-7.807-9.312 0-.85-.698-2.18-.458-2.965.763-2.377 0-6.084 2.595-7.654l22.896-33.603c-2.115-1.2 11.23-11.885 13.608-13.259Z" fill="#8F92CC"/><path opacity=".43" d="M57.59 131.171a33.723 33.723 0 0 1 12.19-3.816 50.128 50.128 0 0 1 5.67-.153 33.76 33.76 0 0 1 4.36.785c2.596-1.024 26.277 10.598 28.349 11.754l62.801 35.958c2.77 1.614 6.956 5.648 6.956 8.461 0 1.308.829 3.249.197 4.361-.894 1.592-.546 4.078-2.486 5.19l-35.326 38.292c.196 0-1.265 1.09-1.112 1.221a14.72 14.72 0 0 1-8.352 5.364 22.744 22.744 0 0 1-9.551 0l-13.367-3.118c-2.661 1.548-23.987-8.723-26.277-10.118l-48.3-29.133c-2.813-1.527-7.829-6.062-7.829-8.875 0-.785-.828-2.181-.588-2.857.697-2.18-.655-5.931 1.831-7.37l18.121-32.709c-2.333-1.396 10.053-11.689 12.713-13.237Z" fill="#8B8EC9"/><path opacity=".48" d="M53.84 134.202a33.755 33.755 0 0 1 11.797-3.794c1.395 0 4.208-.436 5.451-.262 1.464.126 2.92.33 4.361.611 2.879-1.156 25.23 9.529 27.476 10.903l60.621 34.694c2.53 1.461 6.869 5.473 6.869 8.046 0 1.199 1.003 3.118.414 4.187-.806 1.461-.174 3.947-1.94 4.95l-28.85 37.07c.218.131-1.09 1.047-.916 1.2a12.887 12.887 0 0 1-7.61 5.429 22.7 22.7 0 0 1-9.137.436l-13.084-2.573c-2.965 1.723-23.267-7.697-25.84-9.202l-47.297-28.348c-2.552-1.461-7.85-6.018-7.85-8.722 0-.698-.938-2.028-.72-2.704.632-2.006-1.2-5.779 1.09-7.109L42 147.068c-2.53-1.265 8.853-11.165 11.84-12.866Z" fill="#8789C6"/><path opacity=".52" d="M50.154 137.211a34.89 34.89 0 0 1 11.382-3.75c1.265 0 4.1-.524 5.234-.371 1.134.153 2.835.153 4.121.436 3.184-1.265 24.205 8.439 26.67 9.856l58.461 33.625c2.312 1.331 6.804 5.278 6.804 7.633 0 1.09 1.156 2.965.632 3.947-.741 1.33.218 3.794-1.374 4.731l-22.416 36.024c.261.131-.894.981-.698 1.134a11.052 11.052 0 0 1-6.76 5.582 22.65 22.65 0 0 1-8.722.807l-12.735-1.897c-3.271 1.897-22.591-6.542-25.426-8.286l-46.273-27.65c-2.311-1.352-7.872-5.91-7.872-8.265 0-.654-1.046-1.962-.85-2.573.589-1.832-1.745-5.648.327-6.847l8.592-31.117c-2.879-1.636 7.544-11.122 10.903-13.019Z" fill="#8385C2"/><path opacity=".57" d="M46.316 140.242a35.992 35.992 0 0 1 10.903-3.728 45.486 45.486 0 0 0 5.038-.502c1.33-.126 2.67-.031 3.968.283 3.555-1.373 23.18 7.371 25.884 8.919l56.456 32.448c2.181 1.199 6.717 5.102 6.717 7.218 0 .959 1.33 2.834.85 3.707-.48.872.611 3.663-.829 4.513l-15.94 34.89c.262.153-.719.938-.501 1.112a9.662 9.662 0 0 1-5.844 5.692 21.815 21.815 0 0 1-8.309 1.155l-12.473-1.199c-3.576 2.181-21.806-5.582-24.99-7.349L41.89 200.384c-2.072-1.2-7.872-5.779-7.872-7.894 0-.589-1.156-1.897-.981-2.442.523-1.658-2.29-5.496-.415-6.542l3.75-30.289c-3.074-1.832 6.368-10.925 9.944-12.975Z" fill="#7F80BF"/><path opacity=".62" d="M42.543 143.252a37.633 37.633 0 0 1 10.51-3.729c1.619-.1 3.228-.304 4.82-.61a10.16 10.16 0 0 1 3.816 0c3.75-1.483 22.133 6.28 25.034 7.959l54.384 31.423c1.832 1.068 6.542 4.95 6.542 6.825 0 .85 1.483 2.682 1.068 3.467-.414.785 1.003 3.533-.283 4.361l-9.464 33.734c.284.153-.545.916-.327 1.091a8.25 8.25 0 0 1-5.037 5.844 20.956 20.956 0 0 1-7.894 1.526l-12.233-.523c-3.86 2.18-21.196-4.514-24.554-6.433l-44.18-26.429c-1.83-1.068-7.893-5.67-7.893-7.545 0-.523-1.287-1.832-1.134-2.333.48-1.461-2.813-5.343-1.134-6.302l-1.025-29.46c-3.358-1.941 5.103-10.62 8.984-12.866Z" fill="#7B7CBC"/><path opacity=".67" d="M38.771 146.283a40.394 40.394 0 0 1 10.075-3.663 41.226 41.226 0 0 1 4.623-.72c1.217-.13 2.445-.13 3.663 0 4.034-1.613 21.087 5.212 24.227 7.022l52.334 30.092c1.614.938 6.542 4.754 6.542 6.39 0 .763 1.636 2.573 1.243 3.249-.392.676 1.418 3.401.306 4.056l-3.032 32.513c.306.174-.37.872-.13 1.068a7.16 7.16 0 0 1-4.187 5.975 20.1 20.1 0 0 1-7.48 1.897l-11.971.153c-4.165 2.42-20.52-3.446-24.14-5.517L47.603 203.11c-1.614-.937-7.916-5.539-7.916-7.174 0-.458-1.395-1.766-1.264-2.181.414-1.264-3.359-5.189-1.898-6.04l-5.8-28.566c-3.62-2.181 3.881-10.467 8.046-12.866Z" fill="#7777B9"/><path opacity=".71" d="M35.02 149.315a42.013 42.013 0 0 1 9.639-3.642c.763 0 3.75-1.003 4.36-.85a21.486 21.486 0 0 1 3.512-.24c4.36-1.701 20.04 4.143 23.42 6.084l50.153 28.936c1.396.807 6.542 4.58 6.542 5.975 0 .654 1.788 2.442 1.461 3.009-.327.567 1.81 3.271.851 3.816l3.467 31.445c.327.196-.196.829 0 1.047a6.238 6.238 0 0 1-3.227 6.214 19.122 19.122 0 0 1-7.044 2.181l-11.731.872c-4.471 2.573-19.844-2.398-23.704-4.623l-42.26-25.055c-1.374-.807-7.937-5.43-7.937-6.847 0-.393-1.505-1.679-1.396-2.05.349-1.09-3.903-5.059-2.639-5.778L27.89 161.984c-3.904-2.224 2.638-10.096 7.13-12.669Z" fill="#7373B6"/><path opacity=".76" d="M31.248 152.324a47.06 47.06 0 0 1 9.202-3.598c.633 0 3.664-1.091 4.21-.96 1.09-.229 2.2-.368 3.314-.414 4.623-1.81 19.015 3.074 22.59 5.124l48.149 27.781c1.155.654 6.411 4.361 6.411 5.561 0 .545 1.962 2.18 1.679 2.769-.284.589 2.18 3.118 1.395 3.598l9.922 30.311c.371.196 0 .763.284.981a5.626 5.626 0 0 1-2.486 6.258 18.169 18.169 0 0 1-6.542 2.617l-11.47 1.548c-4.776 2.748-19.146-1.33-23.29-3.707l-41.3-24.357c-1.156-.676-7.96-5.299-7.96-6.542 0-.327-1.635-1.614-1.526-1.919.284-.916-4.36-4.906-3.401-5.517l-15.265-26.996c-4.23-2.311 1.33-9.791 6.084-12.538Z" fill="#6F6EB3"/><path opacity=".81" d="M27.497 155.354a53.951 53.951 0 0 1 8.723-3.576c.501 0 3.554-1.178 3.99-1.069a20.637 20.637 0 0 1 3.206-.588c4.906-1.941 17.968 1.984 21.806 4.186l45.989 26.647c.938.546 6.346 4.231 6.346 5.168 0 .437 2.18 2.181 1.897 2.552-.284.371 2.595 2.965 1.962 3.336l16.377 29.177c.37.218.174.719.479.959a5.232 5.232 0 0 1-1.635 6.389 16.505 16.505 0 0 1-6.215 2.966l-11.23 2.181c-5.059 2.922-18.448-.262-22.831-2.792l-40.189-23.768c-.915-.545-7.98-5.19-7.98-6.128 0-.261-1.745-1.548-1.658-1.81.218-.719-4.972-4.732-4.143-5.211l-20.149-26.102c-4.383-2.53.174-9.595 5.255-12.517Z" fill="#6B6AB0"/><path opacity=".86" d="M23.725 158.364a66.827 66.827 0 0 1 8.33-3.576c.392 0 3.467-1.265 3.794-1.177a18.593 18.593 0 0 1 3.075-.764c5.19-2.049 16.921.916 20.955 3.228l43.896 25.469c.698.393 6.258 4.056 6.258 4.754 0 .327 2.181 2.006 2.181 2.311 0 .306 2.987 2.835 2.508 3.119l22.852 28.02c.393.219.349.676.655.938a4.974 4.974 0 0 1-.764 6.542 15.085 15.085 0 0 1-5.8 3.336l-10.903 2.922c-5.364 3.097-17.772.807-22.417-1.875l-39.25-23.027c-.698-.393-8.004-5.059-8.004-5.757 0-.196-1.853-1.505-1.788-1.679.175-.545-5.517-4.601-4.906-4.95l-24.99-25.382c-4.645-2.683-1.047-9.355 4.318-12.452Z" fill="#6765AC"/><path opacity=".9" d="M19.953 161.329c.436-.24 7.348-3.489 7.915-3.489.567 0 3.358-1.373 3.577-1.33.95-.374 1.927-.68 2.922-.916 5.473-2.18 15.874-.174 20.127 2.181l41.824 24.423a43.28 43.28 0 0 1 6.193 4.361c0 .218 2.42 1.875 2.311 2.181-.109.305 3.38 2.704 3.053 2.878l29.329 26.887c.415.24.524.632.851.916a4.954 4.954 0 0 1 0 6.542 13.6 13.6 0 0 1-5.386 3.707l-10.555 3.62c-5.669 3.27-17.096 1.875-21.98-.96l-38.248-22.395a74.602 74.602 0 0 1-8.025-5.43c0-.13-1.962-1.417-1.94-1.526.021-.109-6.128-4.448-5.627-4.579l-29.721-24.641c-4.907-2.835-2.268-9.093 3.38-12.43Z" fill="#6361A9"/><path opacity=".95" d="M16.201 164.426c.219-.131 7.175-3.468 7.458-3.468.284 0 3.271-1.461 3.38-1.439.894-.434 1.82-.799 2.77-1.09a26.319 26.319 0 0 1 19.32 1.33l39.709 23.093c.24.131 6.127 3.685 6.127 3.925 0 .24 2.595 1.723 2.53 1.832-.066.109 3.772 2.573 3.62 2.66L136.898 217c.372.27.722.569 1.047.894a5.084 5.084 0 0 1 .938 6.782 12.28 12.28 0 0 1-4.972 4.056l-10.445 4.361c-5.953 3.445-16.398 2.944-21.566 0l-37.07-21.806c-.219-.131-8.047-4.819-8.047-5.059 0-.24-2.18-1.352-2.072-1.417.11-.066-6.542-4.362-6.39-4.362l-34.584-23.747c-5.146-2.987-3.489-8.831 2.464-12.276Z" fill="#5F5CA6"/><path opacity=".2" d="m103.731 233.704-46.403-27.04-46.425-27.017c-5.408-3.053-4.732-8.592 1.526-12.212l10.205-4.972c6.237-3.619 15.7-4.012 21.13-.872l46.404 27.018 46.403 27.018c5.43 3.14 4.754 8.591-1.504 12.211l-10.206 4.972c-6.236 3.62-15.7 4.012-21.13.894Z" fill="#5B58A3"/></g><path d="M139.712 123.91 8.722 75.086v97.147c-.435 3.162 1.244 6.236 5.103 8.46l88.664 51.245c7.676 4.361 21.065 3.881 29.918-1.243 4.688-2.704 7.174-6.149 7.327-9.442l-.022-97.343Z" fill="url(#a)"/><path d="m102.488 134.377-88.62-51.288c-7.654-4.361-6.694-12.168 2.18-17.292 8.854-5.103 22.243-5.648 29.919-1.221l88.533 51.266c7.675 4.361 6.716 12.167-2.181 17.292-8.831 5.103-22.22 5.67-29.831 1.243Z" fill="url(#b)"/><path d="M132.777 132.283c-8.875 5.125-22.264 5.67-29.94 1.243L14.282 82.238c-3.903-2.18-5.56-5.364-5.08-8.548-1.614 3.838-.175 7.785 4.535 10.51l88.555 51.289c7.654 4.361 21.065 3.86 29.918-1.243 4.361-2.508 6.782-5.648 7.24-8.723a15.041 15.041 0 0 1-6.673 6.76Z" fill="#FFE585"/><g opacity=".3"><path opacity=".3" d="M82.972 5.11a37.07 37.07 0 0 0-55.627 32.142v49.02c0 3.926 5.452 7.087 12.19 7.087 6.738 0 12.167-3.161 12.167-7.087a.284.284 0 0 0 0-.13h.131v-43.7a15.722 15.722 0 0 1 23.55-13.629A39.25 39.25 0 0 1 95.01 62.81v62.431c.153 3.86 5.539 6.956 12.168 6.956s12.103-3.14 12.168-7.021V68.348A72.958 72.958 0 0 0 82.972 5.11Z" fill="url(#c)"/><path style="mix-blend-mode:color-dodge" opacity=".3" d="M34.89 89.63V43.119a34.671 34.671 0 0 1 34.628-34.65 34.083 34.083 0 0 1 17.205 4.689 67.817 67.817 0 0 1 9.813 6.825A70.805 70.805 0 0 0 81.707 8.534a34.105 34.105 0 0 0-17.204-4.667 34.693 34.693 0 0 0-34.65 34.65V87.69c0 1.46 2.027 3.031 5.015 3.881l.022-1.94Z" fill="url(#d)"/><path style="mix-blend-mode:color-dodge" opacity=".3" d="M102.62 129.428V69.504a41.786 41.786 0 0 0-16.267-33.036 41.715 41.715 0 0 1 11.252 28.348v62.431c0 1.461 2.006 3.053 4.993 3.903l.022-1.722Z" fill="url(#e)"/><path opacity=".3" d="M57.504 17.234a19.952 19.952 0 0 0-19.91 19.931v50.808l-.13 4.362c-.11.37 6.803-.197 6.978-.83l.13-4.36v-50.83A19.93 19.93 0 0 1 58.66 17.278l-1.155-.044Z" fill="url(#f)"/><path opacity=".3" d="M78.786 11.042A32.556 32.556 0 0 0 62.41 6.68a31.009 31.009 0 0 0-7.175.85h.197a32.557 32.557 0 0 1 16.376 4.361 69.016 69.016 0 0 1 34.454 59.596v60.098c0 .349 6.978-.262 6.978-.829V70.66a69.001 69.001 0 0 0-34.454-59.618Z" fill="url(#g)"/><path style="mix-blend-mode:screen" opacity=".5" d="M45.531 44.405V91.33c2.77-.872 4.558-2.355 4.645-3.75l.13-2.682V43.576a18.273 18.273 0 0 1 12.736-17.445 18.274 18.274 0 0 0-17.51 18.274Z" fill="url(#h)"/><path style="mix-blend-mode:screen" opacity=".5" d="M83.277 8.686a34.106 34.106 0 0 0-7.894-3.358 77.305 77.305 0 0 1 37.529 66.16v58.876c3.314-.806 5.539-2.507 5.56-4.056V69.613A70.45 70.45 0 0 0 83.277 8.686Z" fill="url(#i)"/></g><path d="M55.671 77.44c0 4.558-6.324 8.243-14.152 8.243-7.828 0-14.174-3.685-14.174-8.243 0-4.557 6.346-8.264 14.174-8.264 7.828 0 14.152 3.707 14.152 8.264ZM122.682 116.168c0 4.361-6.15 8.003-13.76 8.003-7.61 0-13.76-3.576-13.76-8.003 0-4.426 6.15-8.024 13.76-8.024 7.61 0 13.76 3.598 13.76 8.024Z" fill="#E6E7E8" style="mix-blend-mode:multiply"/><path d="M82.972 4.98a37.07 37.07 0 0 0-55.627 32.054v40.32c0 3.903 5.452 7.087 12.19 7.087 6.738 0 12.167-3.184 12.167-7.087a.328.328 0 0 0 0-.153h.131v-34.89a15.722 15.722 0 0 1 23.55-13.629A39.251 39.251 0 0 1 95.01 62.656v53.665c.153 3.838 5.539 6.935 12.168 6.935s12.103-3.141 12.168-7.022V68.26A72.968 72.968 0 0 0 82.972 4.98Z" fill="url(#j)"/><path style="mix-blend-mode:color-dodge" d="M34.89 80.646V42.987a34.672 34.672 0 0 1 34.628-34.65 34.061 34.061 0 0 1 17.205 4.71 69.787 69.787 0 0 1 9.813 6.848A70.088 70.088 0 0 0 81.707 8.446 34.105 34.105 0 0 0 64.502 3.78a34.672 34.672 0 0 0-34.65 34.584V78.771c0 1.461 2.028 3.053 5.016 3.882l.021-2.007Z" fill="url(#k)"/><path style="mix-blend-mode:color-dodge" d="M102.62 120.486V69.372a41.81 41.81 0 0 0-16.268-33.058 41.803 41.803 0 0 1 11.252 28.348v53.665c0 1.461 2.006 3.031 4.994 3.882l.022-1.723Z" fill="url(#l)"/><path d="M57.502 17.082a19.952 19.952 0 0 0-19.909 19.952v41.999l-.13 4.361c-.11.37 6.803-.196 6.977-.828l.131-4.362v-42.02a19.953 19.953 0 0 1 14.087-19.059l-1.156-.043Z" fill="url(#m)"/><path d="M78.786 10.867a32.098 32.098 0 0 0-23.55-3.62h.196a32.556 32.556 0 0 1 16.376 4.361 68.995 68.995 0 0 1 34.454 59.618v51.441c0 .327 6.977-.262 6.977-.85v-51.31a68.99 68.99 0 0 0-34.453-59.64Z" fill="url(#n)"/><path style="mix-blend-mode:screen" opacity=".5" d="M45.53 44.252v38.14c2.77-.851 4.558-2.356 4.646-3.751l.13-2.704V43.424a18.317 18.317 0 0 1 12.735-17.445 18.295 18.295 0 0 0-17.51 18.273Z" fill="url(#o)"/><path style="mix-blend-mode:screen" opacity=".5" d="M83.277 8.534a36.11 36.11 0 0 0-7.894-3.358 77.323 77.323 0 0 1 37.529 66.181v50.023c3.314-.806 5.538-2.485 5.56-4.055V69.46A70.506 70.506 0 0 0 83.277 8.534Z" fill="url(#p)"/><path style="mix-blend-mode:screen" d="M69.474 8.469a38.356 38.356 0 0 1 18.1 4.579 69.786 69.786 0 0 0-6.695-4.361 32.557 32.557 0 0 0-16.377-4.362 33.036 33.036 0 0 0-32.97 32.71A39.818 39.818 0 0 1 69.473 8.469Z" fill="url(#q)"/><path style="mix-blend-mode:screen" d="M99.24 63.681a42.803 42.803 0 0 0-11.448-35.37c-10.62-11.207-23.398-14.108-30.114-3.357a19.778 19.778 0 0 1 19.778 0 43.612 43.612 0 0 1 21.806 37.615l-.022 1.112Z" fill="url(#r)"/><path d="M65.244 156.052v19.298l-8.723-4.993v-19.299a22.46 22.46 0 0 1-5.866-13.956c0-6.542 4.58-9.071 10.206-5.822a22.462 22.462 0 0 1 10.183 17.576c.044 4.688-2.355 7.327-5.8 7.196Z" fill="url(#s)"/><defs><linearGradient id="a" x1="140.955" y1="155.006" x2="7.894" y2="155.006" gradientUnits="userSpaceOnUse"><stop stop-color="#FF9E6E"/><stop offset=".13" stop-color="#FFE585"/><stop offset=".19" stop-color="#FFEBBF"/><stop offset=".23" stop-color="#FFE585"/><stop offset=".24" stop-color="#FFE184"/><stop offset=".32" stop-color="#FFBC78"/><stop offset=".38" stop-color="#FFA671"/><stop offset=".42" stop-color="#FF9E6E"/><stop offset=".48" stop-color="#FF9E6E"/><stop offset=".88" stop-color="#FF9E6E"/><stop offset="1" stop-color="#FFAF6E"/></linearGradient><linearGradient id="b" x1="85.872" y1="43.009" x2="69.736" y2="121.01" gradientUnits="userSpaceOnUse"><stop offset=".04" stop-color="#FF9E6E"/><stop offset=".3" stop-color="#FFAD73"/><stop offset=".82" stop-color="#FFD680"/><stop offset="1" stop-color="#FFE585"/></linearGradient><linearGradient id="c" x1="153.733" y1="107.206" x2="-21.021" y2=".727" gradientUnits="userSpaceOnUse"><stop stop-color="#AFB6E5"/><stop offset=".61" stop-color="#CED3F4"/><stop offset="1" stop-color="#E5E9FF"/></linearGradient><linearGradient id="f" x1="50.613" y1="56.376" x2="1.026" y2="26.175" gradientUnits="userSpaceOnUse"><stop stop-color="#AFB6E5"/><stop offset=".61" stop-color="#CED3F4"/><stop offset="1" stop-color="#E5E9FF"/></linearGradient><linearGradient id="g" x1="111.539" y1="77.005" x2="-13.737" y2="36.904" gradientUnits="userSpaceOnUse"><stop stop-color="#AFB6E5"/><stop offset=".61" stop-color="#CED3F4"/><stop offset="1" stop-color="#E5E9FF"/></linearGradient><linearGradient id="h" x1="67.991" y1="67.105" x2="28.74" y2="43.184" gradientUnits="userSpaceOnUse"><stop stop-color="#FFE4A7"/><stop offset="1"/></linearGradient><linearGradient id="i" x1="151.029" y1="101.733" x2="17.161" y2="20.178" gradientUnits="userSpaceOnUse"><stop stop-color="#FFE4A7"/><stop offset="1"/></linearGradient><linearGradient id="j" x1="151.204" y1="101.122" x2="-17.423" y2="-1.606" gradientUnits="userSpaceOnUse"><stop stop-color="#AFB6E5"/><stop offset=".61" stop-color="#CED3F4"/><stop offset="1" stop-color="#E5E9FF"/></linearGradient><linearGradient id="m" x1="50.023" y1="51.492" x2="6.585" y2="24.997" gradientUnits="userSpaceOnUse"><stop stop-color="#AFB6E5"/><stop offset=".61" stop-color="#CED3F4"/><stop offset="1" stop-color="#E5E9FF"/></linearGradient><linearGradient id="n" x1="110.754" y1="72.229" x2="-10.903" y2="33.284" gradientUnits="userSpaceOnUse"><stop stop-color="#AFB6E5"/><stop offset=".61" stop-color="#CED3F4"/><stop offset="1" stop-color="#E5E9FF"/></linearGradient><linearGradient id="o" x1="65.462" y1="61.021" x2="32.338" y2="40.85" gradientUnits="userSpaceOnUse"><stop stop-color="#FFE4A7"/><stop offset="1"/></linearGradient><linearGradient id="p" x1="148.499" y1="95.649" x2="20.737" y2="17.823" gradientUnits="userSpaceOnUse"><stop stop-color="#FFE4A7"/><stop offset="1"/></linearGradient><linearGradient id="q" x1="50.306" y1="9.842" x2="58.68" y2="23.646" gradientUnits="userSpaceOnUse"><stop stop-color="#FFE4A7"/><stop offset="1"/></linearGradient><linearGradient id="r" x1="101.333" y1="34.636" x2="11.994" y2="65.622" gradientUnits="userSpaceOnUse"><stop stop-color="#FFE4A7"/><stop offset="1"/></linearGradient><linearGradient id="s" x1="50.699" y1="152.628" x2="71.088" y2="152.628" gradientUnits="userSpaceOnUse"><stop offset=".08" stop-color="#17324D"/><stop offset="1" stop-color="#116F7D"/></linearGradient><radialGradient id="d" cx="0" cy="0" r="1" gradientUnits="userSpaceOnUse" gradientTransform="translate(17.86 96.718) scale(75.1657)"><stop stop-color="#FF5F98"/><stop offset=".02" stop-color="#F75C93"/><stop offset=".13" stop-color="#BE4771"/><stop offset=".25" stop-color="#8B3453"/><stop offset=".37" stop-color="#602439"/><stop offset=".49" stop-color="#3E1725"/><stop offset=".62" stop-color="#230D15"/><stop offset=".74" stop-color="#0F0609"/><stop offset=".87" stop-color="#040102"/><stop offset="1"/></radialGradient><radialGradient id="e" cx="0" cy="0" r="1" gradientUnits="userSpaceOnUse" gradientTransform="translate(77.325 140.636) scale(89.4488)"><stop stop-color="#FF5F98"/><stop offset=".02" stop-color="#F75C93"/><stop offset=".13" stop-color="#BE4771"/><stop offset=".25" stop-color="#8B3453"/><stop offset=".37" stop-color="#602439"/><stop offset=".49" stop-color="#3E1725"/><stop offset=".62" stop-color="#230D15"/><stop offset=".74" stop-color="#0F0609"/><stop offset=".87" stop-color="#040102"/><stop offset="1"/></radialGradient><radialGradient id="k" cx="0" cy="0" r="1" gradientUnits="userSpaceOnUse" gradientTransform="translate(17.859 87.275) scale(75.1221)"><stop stop-color="#FF5F98"/><stop offset=".02" stop-color="#F75C93"/><stop offset=".13" stop-color="#BE4771"/><stop offset=".25" stop-color="#8B3453"/><stop offset=".37" stop-color="#602439"/><stop offset=".49" stop-color="#3E1725"/><stop offset=".62" stop-color="#230D15"/><stop offset=".74" stop-color="#0F0609"/><stop offset=".87" stop-color="#040102"/><stop offset="1"/></radialGradient><radialGradient id="l" cx="0" cy="0" r="1" gradientUnits="userSpaceOnUse" gradientTransform="translate(77.325 130.822) scale(88.4675)"><stop stop-color="#FF5F98"/><stop offset=".02" stop-color="#F75C93"/><stop offset=".13" stop-color="#BE4771"/><stop offset=".25" stop-color="#8B3453"/><stop offset=".37" stop-color="#602439"/><stop offset=".49" stop-color="#3E1725"/><stop offset=".62" stop-color="#230D15"/><stop offset=".74" stop-color="#0F0609"/><stop offset=".87" stop-color="#040102"/><stop offset="1"/></radialGradient></defs></svg>