<svg width="321" height="250" fill="none" xmlns="http://www.w3.org/2000/svg"><g opacity=".2"><path opacity=".05" d="m6.961 94.85 8.004-6.353c.204 0 14.204-11.002 14.382-10.9L45.887 65.4a21.954 21.954 0 0 1 10.571-2.389c3.046-.022 6.047.74 8.715 2.21l109.411 62.38 14.127 8.054 123.538 70.459a9.948 9.948 0 0 1 3.219 2.634 9.942 9.942 0 0 1 1.863 3.718 9.225 9.225 0 0 1-5.717 10.596l-9.249 4.345c-.203 0-16.007 7.368-16.185 7.267l-27.442 11.789a21.974 21.974 0 0 1-10.595 2.389 18.214 18.214 0 0 1-8.716-2.211l-98.484-56.941-18.117-10.469L6.199 111.797a9.987 9.987 0 0 1-5.082-6.581 11.05 11.05 0 0 1-.152-1.321 10.343 10.343 0 0 1 5.996-9.045Z" fill="#ABB2E2"/><path opacity=".1" d="m7.114 95.128 7.953-6.2c.407-.229 14-10.595 14.356-10.392l16.44-11.155a22.283 22.283 0 0 1 10.443-2.058c3.003.053 5.949.83 8.588 2.262l108.344 61.743 13.975 7.877 122.343 69.874a10.497 10.497 0 0 1 5.082 6.2c.115.485.192.977.229 1.474a9.957 9.957 0 0 1-5.717 8.995l-8.995 4.345c-.381.228-15.728 7.139-16.058 6.962l-27.188 10.544a22.274 22.274 0 0 1-10.443 2.058 18.486 18.486 0 0 1-8.614-2.286l-97.671-56.408-17.964-10.367-115.56-66.8a10.48 10.48 0 0 1-5.082-6.428 10.178 10.178 0 0 1-.178-1.195 9.91 9.91 0 0 1 5.717-9.045Z" fill="#A7ADDF"/><path opacity=".14" d="m7.267 95.382 7.979-6.174c.584-.356 13.822-10.164 14.33-9.884L45.914 69.16a23.072 23.072 0 0 1 10.29-1.702c2.973.108 5.879.909 8.487 2.338l107.2 61.235 13.823 7.902 121.149 69.112a10.927 10.927 0 0 1 5.082 6.048c.132.474.226.958.28 1.448a9.562 9.562 0 0 1-5.514 8.919l-8.868 4.344c-.61.356-15.448 6.912-15.956 6.607l-26.883 9.35a22.872 22.872 0 0 1-10.316 1.703 19.233 19.233 0 0 1-8.512-2.338l-96.706-55.9-17.787-10.163L7.089 111.797a11.109 11.109 0 0 1-5.081-6.276 6.734 6.734 0 0 1-.23-1.246 9.476 9.476 0 0 1 5.49-8.893Z" fill="#A3A9DC"/><path opacity=".19" d="m7.42 95.663 7.826-6.098c.813-.458 13.644-9.757 14.33-9.376l16.16-9.046c2.541-1.423 7.013-1.372 10.164-1.372 2.923.172 5.77.997 8.334 2.414l106.209 60.6 13.721 7.826 119.93 68.452a11.463 11.463 0 0 1 5.082 5.894c.14.457.242.924.305 1.398a9.124 9.124 0 0 1-5.311 8.842l-8.766 4.371c-.788.457-15.245 6.657-15.855 6.276l-26.502 8.08c-2.541 1.423-7.038 1.372-10.163 1.372a19.498 19.498 0 0 1-8.36-2.541l-95.867-55.239-17.634-10.164-113.4-65.555a11.713 11.713 0 0 1-5.082-6.098c0-.432-.203-.813-.28-1.245a9.095 9.095 0 0 1 5.159-8.791Z" fill="#9FA4D8"/><path opacity=".24" d="m7.623 95.916 7.622-5.996c.991-.585 13.442-9.351 14.306-8.868l16.185-8.055c2.312-1.347 7.038-1.042 10.011-1.042a20.047 20.047 0 0 1 8.207 2.541l105.218 59.965 13.569 7.623 118.735 67.791a12.319 12.319 0 0 1 5.082 5.742c.146.45.264.908.356 1.372a8.766 8.766 0 0 1-5.082 8.741l-8.613 4.396c-.991.559-14.89 6.428-15.754 5.945l-26.324 7.039c-2.312 1.321-7.089.991-10.163.991a20.336 20.336 0 0 1-8.258-2.541l-94.826-54.756-17.456-10.164-112.46-64.843a12.403 12.403 0 0 1-5.081-5.946c0-.407-.255-.788-.33-1.194a8.742 8.742 0 0 1 5.056-8.741Z" fill="#9BA0D5"/><path opacity=".29" d="m7.622 96.196 7.623-5.92c1.169-.686 13.238-8.944 14.28-8.334l16.21-7.039c2.186-1.27 7.09-.686 9.86-.686a21.087 21.087 0 0 1 8.105 2.541l104.176 59.406 13.416 7.623 117.491 67.105a13.027 13.027 0 0 1 5.081 5.59c0 .457.305.863.407 1.321.635 3.176-1.118 6.454-5.082 8.664l-8.512 4.421c-1.194.686-14.61 6.2-15.652 5.59l-25.79 5.794c-2.159 1.245-7.14.66-9.909.66a21.382 21.382 0 0 1-8.131-2.541l-93.987-54.324-17.304-9.96-111.469-64.31a13.514 13.514 0 0 1-5.285-5.793c0-.407-.28-.763-.355-1.169-.687-3.202 1.092-6.428 4.827-8.64Z" fill="#979BD2"/><path opacity=".33" d="m7.877 96.55 7.623-5.869c1.397-.788 13.085-8.486 14.28-7.8l15.956-6.099c2.033-1.168 7.115-.33 9.707-.33 2.799.322 5.509 1.185 7.978 2.541l103.033 58.898 13.289 7.622 116.347 66.394a14.173 14.173 0 0 1 5.082 5.437c0 .432.33.839.432 1.296.762 3.1-.94 6.352-4.751 8.563l-8.385 4.421c-1.398.813-14.356 5.971-15.551 5.285l-25.586 4.472c-2.033 1.169-7.166.305-9.757.305a22.007 22.007 0 0 1-8.03-2.541l-93.174-53.663-17.151-9.884-110.35-63.802a14.203 14.203 0 0 1-5.311-5.616c0-.381-.305-.762-.407-1.143-.813-3.1.915-6.352 4.726-8.487Z" fill="#9397CF"/><path opacity=".38" d="m8.028 96.729 7.623-5.768c1.576-.915 12.882-8.08 14.255-7.292l15.83-4.904c1.88-1.093 7.165 0 9.578 0a22.867 22.867 0 0 1 7.877 2.54l101.966 58.289 13.162 7.622L293.447 213a15.254 15.254 0 0 1 5.234 5.285c.183.406.344.822.483 1.245.863 3.049-.737 6.276-4.549 8.487l-8.283 4.446c-1.575.915-14.051 5.743-15.423 4.93l-25.409 3.328c-1.906 1.093-7.242 0-9.63 0a23.415 23.415 0 0 1-7.928-2.719l-92.285-53.358-16.973-9.783-109.36-63.065a15.42 15.42 0 0 1-5.386-5.488c-.127-.381-.33-.737-.432-1.118-.966-2.998.711-6.25 4.522-8.461Z" fill="#8F92CC"/><path opacity=".43" d="m8.207 97.007 7.622-5.691c1.779-1.016 12.705-7.623 14.23-6.784l15.677-3.939c1.753-1.016 7.216.33 9.426.33a24.62 24.62 0 0 1 7.75 2.745l100.848 57.627 13.009 7.445 113.934 65.098a16.77 16.77 0 0 1 5.285 5.081c.152.432.381.788.533 1.22.966 2.973-.559 6.2-4.37 8.385l-8.182 4.472c-1.778 1.042-13.771 5.488-15.245 4.599l-25.104 2.109c-1.753 1.016-7.292-.356-9.503-.356a25.21 25.21 0 0 1-7.978-2.744l-91.472-52.698-16.821-9.681-108.09-62.429c-1.575-.915-5.081-3.786-5.411-5.336-.2-.341-.37-.698-.509-1.068-1.016-2.947.56-6.3 4.37-8.385Z" fill="#8B8EC9"/><path opacity=".48" d="m8.36 97.263 7.445-5.59c1.981-1.144 12.5-7.242 14.229-6.276L45.736 82.5c1.576-.94 7.242.66 9.274.66a26.097 26.097 0 0 1 7.623 2.821l99.781 57.043 12.908 7.343 112.739 64.437c1.397.813 5.082 3.608 5.31 5.082.24.366.436.758.585 1.169 1.092 2.922-.382 6.123-4.167 8.309l-8.106 4.395c-1.982 1.144-13.517 5.26-15.245 4.269l-24.799.813c-1.601.915-7.318-.711-9.351-.711a25.648 25.648 0 0 1-7.622-2.872l-90.583-52.062-16.643-9.605-107.276-61.794c-1.449-.839-5.26-3.761-5.489-5.082a8.05 8.05 0 0 1-.533-1.042c-1.093-2.973.406-6.2 4.218-8.41Z" fill="#8789C6"/><path opacity=".52" d="m8.511 97.542 7.394-5.514c2.185-1.27 12.324-6.835 14.204-5.743l15.626-1.905c1.449-.839 7.293 1.016 9.122 1.016 2.671.58 5.24 1.556 7.623 2.897l98.561 56.535 12.704 7.292 111.545 63.751c1.271.737 5.082 3.583 5.362 4.828.251.353.456.737.61 1.143 1.219 2.846-.178 6.022-3.964 8.207l-7.801 4.421c-2.16 1.245-13.212 5.082-15.093 3.913l-24.545-.305c-1.448.839-7.368-1.042-9.223-1.042a28.135 28.135 0 0 1-7.623-2.947l-89.693-51.631-16.44-9.503-106.234-61.159c-1.322-.762-5.31-3.735-5.514-5.082a4.574 4.574 0 0 1-.584-1.016c-1.27-2.744.152-5.971 3.963-8.156Z" fill="#8385C2"/><path opacity=".57" d="m8.665 97.821 7.343-5.437c2.363-1.372 12.12-6.429 14.178-5.234l15.55-.763c1.322-.762 7.344 1.347 8.995 1.347a30.491 30.491 0 0 1 7.369 2.973l97.646 55.899 12.704 7.217 110.173 62.912c1.144.661 5.082 3.557 5.412 4.675.246.344.458.71.636 1.093 1.321 2.769 0 5.971-3.786 8.131l-7.801 4.548c-2.388 1.372-12.958 4.777-15.016 3.583l-24.24-1.525c-1.296.762-7.42-1.398-9.071-1.398a31.047 31.047 0 0 1-7.445-2.998l-88.754-51.097-16.312-9.401-105.142-60.55c-1.194-.686-5.412-3.709-5.59-4.878a4.4 4.4 0 0 1-.61-.966c-1.397-2.744-.025-5.945 3.76-8.13Z" fill="#7F80BF"/><path opacity=".62" d="m8.816 98.076 7.267-5.336c2.54-1.5 11.942-6.022 14.178-4.726l15.423.178c1.144-.686 7.369 1.677 8.843 1.677a32.78 32.78 0 0 1 7.241 3.049l96.554 55.239 12.45 7.114 109.259 62.43c1.016.584 5.259 3.532 5.437 4.523.269.325.507.673.712 1.042 1.422 2.718.177 5.894-3.609 8.054l-7.622 4.548c-2.541 1.499-12.705 4.549-14.89 3.278l-24.138-2.846c-1.144.686-7.445-1.728-8.919-1.728a33.185 33.185 0 0 1-7.343-3.099l-87.864-50.462-16.16-9.3-104.1-59.914c-1.042-.61-5.463-3.685-5.616-4.726-.259-.284-.48-.6-.66-.94-1.5-2.668-.178-5.87 3.557-8.055Z" fill="#7B7CBC"/><path opacity=".67" d="m8.97 98.355 7.216-5.285c2.77-1.6 11.764-5.564 14.152-4.141l15.246 1.22c1.016-.585 7.42 2.007 8.69 2.007 2.486.78 4.88 1.828 7.14 3.125l95.562 54.629 12.324 7.064 107.937 61.743c.889.508 5.31 3.507 5.488 4.371.276.315.523.655.737 1.016 1.55 2.541.356 5.793-3.405 7.978l-7.623 4.549c-2.769 1.6-12.399 4.319-14.788 2.922l-23.655-3.913c-1.017.584-7.623-2.109-8.817-2.109a38.339 38.339 0 0 1-7.216-3.151l-86.924-49.979-16.008-9.198-103.033-59.406c-.94-.534-5.539-3.659-5.691-4.574a4.914 4.914 0 0 1-.712-.915c-1.6-2.591-.381-5.767 3.38-7.953Z" fill="#7777B9"/><path opacity=".71" d="m9.122 98.634 7.165-5.082c2.948-1.702 11.561-5.081 14.127-3.684l15.246 2.236c.89-.483 7.445 2.389 8.563 2.389a40.66 40.66 0 0 1 7.012 3.176l94.394 53.917 12.07 6.962 106.717 60.982a25.674 25.674 0 0 1 5.514 4.218c.291.297.554.62.787.965 1.677 2.541.559 5.717-3.201 7.902l-7.47 4.574c-2.973 1.702-12.12 4.065-14.687 2.541l-23.35-5.082c-.864.483-7.623-2.541-8.665-2.541a44.086 44.086 0 0 1-7.114-3.227l-85.959-49.318-15.931-9.097-101.915-58.669a27.158 27.158 0 0 1-5.742-4.396 7.56 7.56 0 0 1-.737-.889c-1.728-2.541-.585-5.717 3.176-7.877Z" fill="#7373B6"/><path opacity=".76" d="m9.275 98.888 7.09-5.082c3.175-1.854 11.382-4.878 14.127-3.176l15.245 3.38c.711-.407 7.47 2.718 8.41 2.718a48.432 48.432 0 0 1 6.835 3.1l93.378 53.359 11.968 6.886 105.548 60.524a31.465 31.465 0 0 1 5.565 4.065c.305.282.578.597.813.94 1.804 2.541.737 5.641-2.999 7.801l-7.368 4.599c-3.151 1.829-11.815 3.837-14.559 2.261l-23.072-6.352c-.737.407-7.622-2.769-8.512-2.769a50.933 50.933 0 0 1-7.013-3.329l-85.145-48.963-15.753-9.02-100.95-58.034a32.187 32.187 0 0 1-5.793-4.243 6.266 6.266 0 0 1-.788-.839c-1.855-2.541-.762-5.666 2.973-7.826Z" fill="#6F6EB3"/><path opacity=".81" d="m9.427 99.092 7.038-5.082c3.355-1.931 11.18-4.32 14.102-2.54l15.17 4.319c.584-.33 7.622 3.049 8.257 3.049a61.544 61.544 0 0 1 6.76 3.303l92.157 52.85 11.917 6.835 104.304 59.737a36.417 36.417 0 0 1 5.615 3.913c.326.257.616.556.864.889 1.931 2.541.94 5.565-2.795 7.623l-7.242 4.853c-3.354 1.931-11.561 3.582-14.457 1.905l-22.868-7.622c-.585.33-7.623-3.126-8.385-3.126a63.424 63.424 0 0 1-6.861-3.379l-84.256-48.505-15.499-8.894-99.933-57.424a40.972 40.972 0 0 1-5.844-4.091 6.258 6.258 0 0 1-.813-.838c-1.982-2.388-.966-5.539 2.77-7.775Z" fill="#6B6AB0"/><path opacity=".86" d="m9.605 99.422 6.962-4.93c3.557-2.058 11.002-3.912 14.077-2.134l14.94 5.336c.432-.254 7.623 3.379 8.131 3.379a74.09 74.09 0 0 1 6.632 3.38l91.218 52.266 11.764 6.733 103.109 59.076a49.768 49.768 0 0 1 5.666 3.76c.335.256.641.545.915.864 2.033 2.338 1.093 5.463-2.541 7.623l-7.14 4.624c-3.557 2.059-11.256 3.38-14.356 1.601l-22.563-8.766c-.432.254-7.622-3.455-8.232-3.455-.61 0-6.429-3.253-6.759-3.456l-83.443-47.921-15.245-8.817-98.968-56.789a51.595 51.595 0 0 1-5.895-3.913c-.31-.237-.6-.5-.864-.788-2.108-2.363-1.168-5.463 2.592-7.673Z" fill="#6765AC"/><path opacity=".9" d="m9.757 99.702 6.885-4.853c3.761-2.185 10.825-3.506 14.077-1.626l14.864 6.352c.28-.152 7.623 3.735 7.953 3.735.33 0 6.302 3.405 6.53 3.405l90.151 51.707 11.612 6.733 101.915 58.441c.279.152 5.666 3.354 5.717 3.608.335.244.65.516.94.813 2.16 2.287 1.296 5.412-2.541 7.623l-6.987 4.65c-3.761 2.185-11.002 3.125-14.255 1.27l-22.182-9.986c-.304.178-7.749-3.811-8.13-3.811-.382 0-6.403-3.379-6.632-3.532l-82.452-47.565-15.245-8.69-97.774-56.179c-.254-.153-5.895-3.507-5.945-3.761l-.915-.762c-2.262-2.261-1.321-5.412 2.414-7.572Z" fill="#6361A9"/><path opacity=".95" d="m9.91 99.981 6.834-4.777c3.964-2.286 10.621-3.074 14.052-1.118l14.762 7.394c.153 0 7.623 4.066 7.826 4.066.203 0 6.276 3.455 6.403 3.532l89.084 50.995 11.484 6.581 100.696 57.729c.127 0 5.717 3.329 5.742 3.456.356.229.688.493.991.787 2.312 2.186 1.474 5.311-2.236 7.445l-6.886 4.675c-3.963 2.287-10.722 2.897-14.127.915l-21.902-11.18c-.153 0-7.801-4.141-7.979-4.141-.178 0-6.301-3.456-6.53-3.532l-81.664-46.854-15.017-8.614-96.782-55.544c-.153 0-5.971-3.481-5.997-3.608a7.326 7.326 0 0 1-1.041-.737c-2.262-2.185-1.449-5.335 2.286-7.47Z" fill="#5F5CA6"/><path opacity=".2" d="m242.325 242.118-116.627-66.8L9.046 108.34c-3.583-2.083-3.15-5.691 1.016-8.105l6.784-4.675a15.499 15.499 0 0 1 14.026-.585L147.5 161.851l116.754 66.826c3.582 2.083 3.15 5.717-1.017 8.105l-6.758 4.701a15.654 15.654 0 0 1-14.153.635Z" fill="#5B58A3"/></g><path d="M247.253 248.648 20.784 106.358c-5.64-3.277-10.163-12.018-10.163-19.54l-7.954 3.177c0-80.724 74.5-110.503 135.023-75.566l12.857 7.623c60.524 34.81 114.721 131.16 114.721 211.884 0 4.269-1.473 7.242-3.811 8.411-1.753.864-11.764 7.724-14.204 6.301Z" fill="url(#a)"/><path d="M244.484 247.531 10.164 112.279C4.574 109.001 0 100.261 0 92.739 0 12.042 66.597-14.637 127.044 20.325l12.857 7.496c60.55 34.937 114.722 131.288 114.722 212.012.076 7.495-4.498 10.951-10.139 7.699Z" fill="url(#b)"/><path style="mix-blend-mode:color-dodge" d="m140.232 27.083-12.857-7.496C92.667-.435 55.9-.18 30.999 18.85 55.9 1.217 91.65 1.47 125.495 21.01l12.857 7.47c60.524 35.04 114.721 131.313 114.721 212.012a10.723 10.723 0 0 1-2.134 7.089c2.54-1.067 4.014-4.065 4.014-8.486 0-80.724-54.222-177.075-114.721-212.012Z" fill="url(#c)"/><path d="M19.31 102.369a14.405 14.405 0 0 1-6.606-11.866C16.39 23.6 66.317-2.24 127.35 33.028c61.032 35.268 110.961 118.71 114.62 189.804.228 4.498-2.744 6.505-6.556 4.295L19.311 102.369Z" fill="url(#d)"/><path d="M238.361 225.45 22.385 100.667a14.352 14.352 0 0 1-6.682-11.739c1.702-31.252 13.44-53.358 31.634-64.818-19.87 10.697-32.803 33.59-34.633 66.394a14.408 14.408 0 0 0 6.607 11.866l216.102 124.757c2.541 1.5 4.752 1.042 5.819-.813a5.94 5.94 0 0 1-2.871-.864Z" fill="#CED3F4" style="mix-blend-mode:multiply"/><path d="m175.906 153.568 32.447-7.292c-17.786-39.562-47.489-75.77-81.004-95.106-50.64-29.245-92.36-9.68-98.23 43.195l40.044 23.123c5.488-27.95 29.449-37.504 58.186-20.912 20.023 11.612 37.809 33.286 48.557 56.992Z" fill="url(#e)"/><path d="M177.685 157.684a120.703 120.703 0 0 1 7.8 27.035l40.045 23.122a194.37 194.37 0 0 0-14.305-54.705l-33.54 4.548Z" fill="url(#f)"/><path d="M150.512 204.125c12.636-7.387 12.511-31.112-.28-52.991-12.79-21.879-33.402-33.628-46.037-26.241-12.636 7.387-12.51 31.111.28 52.99 12.79 21.88 33.402 33.628 46.037 26.242Z" fill="#AFB6E5"/><path d="M148.95 197.477c10.758-6.288 10.649-26.491-.243-45.124-10.893-18.632-28.444-28.639-39.201-22.35-10.758 6.289-10.65 26.492.243 45.124 10.892 18.633 28.443 28.639 39.201 22.35Z" fill="url(#g)"/><path d="m113.045 143.812 94.089-19.768-65.504 66.978-28.585-47.21Z" fill="url(#h)"/><path d="m113.045 143.812 94.089-19.768-81.435 44.364-12.654-24.596Z" fill="url(#i)"/><path d="M147.656 198.144c10.758-6.289 10.649-26.492-.243-45.124-10.893-18.633-28.444-28.639-39.202-22.35-10.757 6.289-10.648 26.491.244 45.124 10.892 18.632 28.443 28.639 39.201 22.35Z" fill="url(#j)"/><path d="M147.076 198.247c10.758-6.289 10.649-26.492-.243-45.124-10.892-18.633-28.443-28.639-39.201-22.35-10.758 6.288-10.65 26.491.243 45.124 10.892 18.632 28.443 28.639 39.201 22.35Z" fill="url(#k)"/><path style="mix-blend-mode:color-dodge" d="M127.35 132.708c-6.835-3.963-13.086-4.7-17.787-2.794 4.676-1.423 10.494-.534 16.872 3.15 15.245 8.817 27.696 30.237 27.696 47.794 0 9.707-3.786 16.186-9.783 18.574 6.454-2.007 10.647-8.664 10.647-19.031 0-17.456-12.324-38.876-27.645-47.693Z" fill="url(#l)"/><path d="M138.626 183.791c6.142-3.591 6.074-15.135-.151-25.783-6.225-10.649-16.251-16.371-22.393-12.78-6.142 3.59-6.075 15.134.151 25.782 6.225 10.649 16.25 16.371 22.393 12.781Z" fill="url(#m)"/><defs><linearGradient id="a" x1="84.205" y1="43.624" x2="225.986" y2="291.487" gradientUnits="userSpaceOnUse"><stop stop-color="#CDD2F3"/><stop offset=".25" stop-color="#E5E9FF"/><stop offset=".31" stop-color="#EFF2FF"/><stop offset=".37" stop-color="#fff"/><stop offset=".49" stop-color="#EBEDF9"/><stop offset=".72" stop-color="#B9BFE8"/><stop offset=".76" stop-color="#AFB6E5"/><stop offset=".91" stop-color="#AFB6E5"/><stop offset="1" stop-color="#AFB6E5"/></linearGradient><linearGradient id="b" x1="77.218" y1="204.005" x2="205.126" y2="61.715" gradientUnits="userSpaceOnUse"><stop stop-color="#AFB6E5"/><stop offset=".14" stop-color="#B6BCE8"/><stop offset=".35" stop-color="#C8CDF1"/><stop offset=".58" stop-color="#E5E9FF"/><stop offset=".95" stop-color="#F5F4FC"/><stop offset="1" stop-color="#F7F6FB"/></linearGradient><linearGradient id="d" x1="12.73" y1="122.645" x2="241.969" y2="122.645" gradientUnits="userSpaceOnUse"><stop stop-color="#00C7C5"/><stop offset=".33" stop-color="#2D9BE0"/><stop offset=".63" stop-color="#5277F7"/><stop offset=".69" stop-color="#5B76F7"/><stop offset=".79" stop-color="#1B4BC6"/><stop offset=".91" stop-color="#315ED2"/><stop offset="1" stop-color="#4966F4"/></linearGradient><linearGradient id="e" x1="-65.275" y1="-40.53" x2="176.948" y2="149.198" gradientUnits="userSpaceOnUse"><stop stop-color="#AFB6E5"/><stop offset=".14" stop-color="#B6BCE8"/><stop offset=".35" stop-color="#C8CDF1"/><stop offset=".58" stop-color="#E5E9FF"/><stop offset=".86" stop-color="#F5F6FF"/><stop offset="1" stop-color="#fff"/></linearGradient><linearGradient id="f" x1="207.49" y1="207.18" x2="185.485" y2="105.545" gradientUnits="userSpaceOnUse"><stop offset=".1" stop-color="#1B4F8B"/><stop offset="1" stop-color="#0D3450"/></linearGradient><linearGradient id="g" x1="111.23" y1="131.373" x2="147.844" y2="197.258" gradientUnits="userSpaceOnUse"><stop stop-color="#BCC2EB"/><stop offset=".19" stop-color="#C6CCF0"/><stop offset=".28" stop-color="#D1D5F0"/><stop offset=".36" stop-color="#BDC3EA"/><stop offset=".41" stop-color="#AFB6E5"/><stop offset=".91" stop-color="#AFB6E5"/><stop offset=".99" stop-color="#BAC0EA"/><stop offset="1" stop-color="#BCC2EB"/></linearGradient><linearGradient id="h" x1="296.087" y1="153.387" x2="136.866" y2="153.769" gradientUnits="userSpaceOnUse"><stop stop-color="#AFB6E5"/><stop offset=".14" stop-color="#B6BCE8"/><stop offset=".35" stop-color="#C8CDF1"/><stop offset=".58" stop-color="#E5E9FF"/><stop offset=".95" stop-color="#F5F4FC"/><stop offset="1" stop-color="#F7F6FB"/></linearGradient><linearGradient id="i" x1="139.572" y1="96.78" x2="169.3" y2="151.562" gradientUnits="userSpaceOnUse"><stop stop-color="#AFB6E5"/><stop offset=".14" stop-color="#B6BCE8"/><stop offset=".35" stop-color="#C8CDF1"/><stop offset=".58" stop-color="#E5E9FF"/><stop offset=".95" stop-color="#F5F4FC"/><stop offset="1" stop-color="#F7F6FB"/></linearGradient><linearGradient id="j" x1="181.355" y1="148.271" x2="113.384" y2="184.35" gradientUnits="userSpaceOnUse"><stop stop-color="#BCC2EB"/><stop offset=".19" stop-color="#C6CCF0"/><stop offset=".28" stop-color="#D1D5F0"/><stop offset=".36" stop-color="#BDC3EA"/><stop offset=".41" stop-color="#AFB6E5"/><stop offset=".91" stop-color="#AFB6E5"/><stop offset=".99" stop-color="#BAC0EA"/><stop offset="1" stop-color="#BCC2EB"/></linearGradient><linearGradient id="k" x1="94.151" y1="217.85" x2="141.336" y2="142.055" gradientUnits="userSpaceOnUse"><stop stop-color="#AFB6E5"/><stop offset=".14" stop-color="#B6BCE8"/><stop offset=".35" stop-color="#C8CDF1"/><stop offset=".58" stop-color="#E5E9FF"/><stop offset=".95" stop-color="#F5F4FC"/><stop offset="1" stop-color="#F7F6FB"/></linearGradient><linearGradient id="m" x1="136.432" y1="147.974" x2="110.159" y2="195.845" gradientUnits="userSpaceOnUse"><stop stop-color="#AFB6E5"/><stop offset=".14" stop-color="#B6BCE8"/><stop offset=".35" stop-color="#C8CDF1"/><stop offset=".58" stop-color="#E5E9FF"/><stop offset=".95" stop-color="#F5F4FC"/><stop offset="1" stop-color="#F7F6FB"/></linearGradient><radialGradient id="c" cx="0" cy="0" r="1" gradientUnits="userSpaceOnUse" gradientTransform="translate(142.976 126.076) scale(116.83)"><stop stop-color="#fff"/><stop offset="1"/></radialGradient><radialGradient id="l" cx="0" cy="0" r="1" gradientUnits="userSpaceOnUse" gradientTransform="translate(132.254 164.165) scale(29.703)"><stop stop-color="#fff"/><stop offset="1"/></radialGradient></defs></svg>