<?xml version="1.0" encoding="utf-8"?><svg viewBox="0 0 139 130" xmlns="http://www.w3.org/2000/svg" xmlns:xlink="http://www.w3.org/1999/xlink"><style>:root>svg{display:none}:root>svg:target{display:block}</style><svg fill="none" viewBox="0 0 127 127" id="i-layout-4-list-1" xmlns="http://www.w3.org/2000/svg"><path d="M97.367 127c-16.299 0-29.634-13.335-29.634-29.633 0-16.299 13.335-29.634 29.634-29.634 16.298 0 29.633 13.335 29.633 29.634C127 113.665 113.665 127 97.367 127zm0-55.033c-13.97 0-25.4 11.43-25.4 25.4 0 13.97 11.43 25.4 25.4 25.4 13.97 0 25.4-11.43 25.4-25.4 0-13.97-11.43-25.4-25.4-25.4z" fill="url(#aa)"/><path d="M111.547 82.126c-2.328-2.328-6.562-2.328-8.89 0l-18.415 18.415-2.328 11.219 11.218-2.329 18.415-18.415c1.27-1.27 1.905-2.751 1.905-4.445 0-1.693-.635-3.386-1.905-4.445zm-20.531 23.495l-3.81.847.846-3.81 12.912-12.912 2.963 2.964-12.912 12.911zm17.568-17.568l-1.482 1.482-2.963-2.964 1.481-1.481c.847-.847 2.117-.847 2.964 0 .423.423.635.846.635 1.481 0 .635-.212 1.059-.635 1.482z" fill="url(#ab)"/><path d="M0 0v93.133h63.713c.212-1.481.635-2.751.846-4.233H4.233V21.167h105.834V66.04c1.481.635 2.963 1.27 4.233 2.117V0H0zm4.233 4.233h88.9v12.7h-88.9v-12.7zm93.134 12.7v-12.7h12.7v12.7h-12.7z" fill="url(#ac)"/><path d="M29.633 29.634V25.4H25.4c-4.657 0-8.467 3.81-8.467 8.467v6.35A4.246 4.246 0 0112.7 44.45H8.467v4.234H12.7a4.246 4.246 0 014.233 4.233v6.35c0 4.657 3.81 8.467 8.467 8.467h4.233V63.5H25.4a4.246 4.246 0 01-4.233-4.233v-8.043c0-1.694-.635-3.387-1.905-4.445l-.212-.212.212-.212c1.27-1.27 1.905-2.751 1.905-4.445v-8.043a4.246 4.246 0 014.233-4.233h4.233z" fill="url(#ad)"/><path d="M38.1 29.634V25.4h4.233c4.657 0 8.467 3.81 8.467 8.467v6.35a4.246 4.246 0 004.233 4.233h4.233v4.234h-4.233a4.246 4.246 0 00-4.233 4.233v6.35c0 4.657-3.81 8.467-8.467 8.467H38.1V63.5h4.233a4.246 4.246 0 004.233-4.233v-8.043c0-1.694.635-3.387 1.905-4.445l.212-.212-.212-.212c-1.27-1.27-1.905-2.751-1.905-4.445v-8.043a4.246 4.246 0 00-4.233-4.233H38.1z" fill="url(#ae)"/><defs><linearGradient id="aa" x1="38.999" y1="61.992" x2="71.155" y2="48.604" gradientUnits="userSpaceOnUse"><stop stop-color="#0AB9B7"/><stop offset="1" stop-color="#126878"/></linearGradient><linearGradient id="ab" x1="38.999" y1="61.992" x2="71.155" y2="48.604" gradientUnits="userSpaceOnUse"><stop stop-color="#0AB9B7"/><stop offset="1" stop-color="#126878"/></linearGradient><linearGradient id="ac" x1="38.999" y1="61.992" x2="71.155" y2="48.604" gradientUnits="userSpaceOnUse"><stop stop-color="#0AB9B7"/><stop offset="1" stop-color="#126878"/></linearGradient><linearGradient id="ad" x1="38.999" y1="61.992" x2="71.155" y2="48.604" gradientUnits="userSpaceOnUse"><stop stop-color="#0AB9B7"/><stop offset="1" stop-color="#126878"/></linearGradient><linearGradient id="ae" x1="38.999" y1="61.992" x2="71.155" y2="48.604" gradientUnits="userSpaceOnUse"><stop stop-color="#0AB9B7"/><stop offset="1" stop-color="#126878"/></linearGradient></defs></svg><svg fill="none" viewBox="0 0 139 130" id="i-layout-4-list-2" xmlns="http://www.w3.org/2000/svg"><path d="M85.695.002a2.17 2.17 0 00-2.076 2.26l.292 6.93a2.169 2.169 0 002.166 2.08c.032 0 .061 0 .093-.003a2.17 2.17 0 002.077-2.259l-.293-6.931A2.149 2.149 0 0085.696.002z" fill="url(#ba)"/><path d="M103.808 7.071a2.175 2.175 0 00-3.07-.002l-4.903 4.906a2.169 2.169 0 103.068 3.068l4.903-4.901a2.173 2.173 0 00.002-3.07z" fill="url(#bb)"/><path d="M101.685 26.966l6.929.29c.031.003.061.003.093.003a2.17 2.17 0 00.089-4.338l-6.933-.29c-.03-.003-.06-.003-.091-.003a2.17 2.17 0 00-.087 4.338z" fill="url(#bc)"/><path d="M136.7 110.987h-5.216V36.394c0-3.508-2.863-6.36-6.381-6.36H98.814c.461-4.728-1.113-9.616-4.724-13.228-5.9-5.9-15.191-6.362-21.642-1.42L57.86.796a2.17 2.17 0 00-1.61-.633c-.06.002-.12.024-.18.03-.137.016-.276.028-.413.07a2.176 2.176 0 00-1.475 1.719l-4.557 28.05-35.856.001c-3.518 0-6.38 2.852-6.38 6.36v74.593h-5.22c-1.199 0-2.169.97-2.169 2.169v4.162C0 124.311 5.69 130 12.682 130h113.504c6.993 0 12.682-5.689 12.682-12.682v-4.162c0-1.199-.97-2.169-2.17-2.169h.002zM91.023 19.873c4.198 4.198 4.655 10.741 1.38 15.464L75.54 18.477c4.726-3.272 11.278-2.806 15.482 1.396zM70.31 80.701c.847.848 2.22.848 3.068 0l3.37-3.369 3.983 3.984-3.37 3.37a2.169 2.169 0 103.069 3.067l3.369-3.369 2.252 2.253a4.769 4.769 0 010 6.738 4.776 4.776 0 01-6.74 0L61.319 75.383l6.74-6.739 5.62 5.62-3.37 3.37a2.169 2.169 0 000 3.067zm-15.268-5.178c-1.127 1.125-3.085 1.13-4.214 0L35.353 60.05a2.988 2.988 0 010-4.217L50.618 40.57l19.69 19.69-15.266 15.263zm-11.658-1.308l-3.38 3.38a4.76 4.76 0 01-6.721 0 4.759 4.759 0 010-6.724l3.377-3.377 6.724 6.721zM74.13 57.944L52.935 36.75l2.873-17.696L91.833 55.08 74.13 57.944zm29.901-4.84l-6.916 1.119-40.449-40.446 1.123-6.916 46.242 46.243zm-92.3-16.712c0-1.132.897-2.02 2.041-2.02h35.151l-.34 2.097-16.298 16.296c-2.854 2.856-2.852 7.501 0 10.353l1.308 1.308-3.378 3.377c-3.545 3.545-3.545 9.315 0 12.86 3.545 3.541 9.313 3.545 12.858 0l3.38-3.38 1.307 1.308a7.31 7.31 0 0010.351 0l.14-.14 17.992 17.992c3.552 3.552 9.326 3.552 12.878 0 3.549-3.549 3.549-9.325 0-12.875L71.128 65.576l3.28-3.28 34.506-5.586a2.17 2.17 0 001.187-3.676L95.497 38.43a16.343 16.343 0 002.283-4.057h27.326c1.145 0 2.041.888 2.041 2.02v74.593l-42.144-.001a2.17 2.17 0 00-1.703.826l-5.13 6.51H60.703a6878.199 6878.199 0 01-5.113-6.489 2.168 2.168 0 00-1.72-.847H11.73V36.392zm122.802 80.926c0 4.6-3.742 8.343-8.342 8.343H12.687c-4.6 0-8.343-3.743-8.343-8.343v-1.992h48.561c.93 1.293 2.498 3.283 5.044 6.51a2.17 2.17 0 001.703.826h19.573a2.17 2.17 0 001.704-.826l5.13-6.51h48.476l-.002 1.992z" fill="url(#bd)"/><defs><linearGradient id="ba" x1="11" y1="127.003" x2="132.851" y2="8" gradientUnits="userSpaceOnUse"><stop stop-color="#0AB9B8"/><stop offset="1" stop-color="#126879"/></linearGradient><linearGradient id="bb" x1="11" y1="127.003" x2="132.851" y2="8" gradientUnits="userSpaceOnUse"><stop stop-color="#0AB9B8"/><stop offset="1" stop-color="#126879"/></linearGradient><linearGradient id="bc" x1="11" y1="127.003" x2="132.851" y2="8" gradientUnits="userSpaceOnUse"><stop stop-color="#0AB9B8"/><stop offset="1" stop-color="#126879"/></linearGradient><linearGradient id="bd" x1="11" y1="127.003" x2="132.851" y2="8" gradientUnits="userSpaceOnUse"><stop stop-color="#0AB9B8"/><stop offset="1" stop-color="#126879"/></linearGradient></defs></svg><svg fill="none" viewBox="0 0 125 116" id="i-layout-4-list-3" xmlns="http://www.w3.org/2000/svg"><path d="M25.913 46.389h-8.338a1.944 1.944 0 00-1.953 1.934V67.66c0 .513.206 1.005.572 1.368.366.362.863.566 1.381.566h8.338a27.918 27.918 0 002.654 5.123l.227.372-6.74 6.674a1.922 1.922 0 000 2.734l13.67 13.536c.763.755 2 .755 2.762 0l6.74-6.673.377.225v-.001a28.41 28.41 0 005.173 2.628v8.255c0 .513.206 1.005.572 1.368.366.362.863.566 1.381.566h19.53c.518 0 1.015-.204 1.381-.566.367-.363.572-.855.572-1.368v-8.255a28.411 28.411 0 005.174-2.628l.377-.225 6.74 6.674a1.966 1.966 0 002.761 0l13.671-13.536a1.922 1.922 0 000-2.734l-6.74-6.674.228-.373h-.001a27.918 27.918 0 002.654-5.122h8.337c.518 0 1.015-.204 1.382-.566.366-.363.571-.855.571-1.368V48.323c0-.513-.205-1.005-.571-1.368a1.967 1.967 0 00-1.382-.566h-8.337a27.918 27.918 0 00-2.654-5.123l-.227-.373 6.74-6.673a1.922 1.922 0 000-2.735L89.265 17.95a1.97 1.97 0 00-2.763 0l-6.74 6.673-.376-.224a28.401 28.401 0 00-5.174-2.627v-8.255c0-.513-.205-1.005-.572-1.368a1.963 1.963 0 00-1.38-.566H52.73a1.944 1.944 0 00-1.954 1.934v8.255a28.398 28.398 0 00-5.174 2.628l-.376.224-6.74-6.673a1.967 1.967 0 00-2.762 0l-13.67 13.535a1.922 1.922 0 000 2.735l6.739 6.673-.227.373a27.927 27.927 0 00-2.653 5.123zm6.714-7.169l-6.432-6.367 10.91-10.802 6.431 6.367v.001a1.97 1.97 0 002.356.31c.605-.347 1.172-.687 1.732-1.022a21.299 21.299 0 015.619-2.657c.85-.23 1.44-.994 1.44-1.866V15.45h15.623v7.735c0 .872.59 1.637 1.44 1.866a21.294 21.294 0 015.618 2.657c.555.335 1.127.675 1.733 1.021a1.969 1.969 0 002.355-.309l6.431-6.368 10.91 10.802-6.43 6.367h-.002a1.92 1.92 0 00-.312 2.333c.35.599.693 1.16 1.032 1.715a20.91 20.91 0 012.683 5.563 1.951 1.951 0 001.885 1.425h7.812v15.47h-7.812c-.881 0-1.653.584-1.885 1.425a20.906 20.906 0 01-2.683 5.564 80.434 80.434 0 00-1.032 1.715 1.92 1.92 0 00.312 2.332l6.432 6.368-10.91 10.802-6.43-6.367v-.001a1.969 1.969 0 00-2.356-.31c-.605.347-1.172.687-1.733 1.022a21.302 21.302 0 01-5.618 2.656 1.94 1.94 0 00-1.44 1.867v7.735H54.682V92.8a1.94 1.94 0 00-1.44-1.867 21.296 21.296 0 01-5.618-2.656 81.906 81.906 0 00-1.732-1.021 1.969 1.969 0 00-2.356.309l-6.43 6.368-10.91-10.802 6.43-6.367h.001a1.92 1.92 0 00.312-2.333c-.35-.6-.693-1.16-1.031-1.716a20.908 20.908 0 01-2.683-5.562 1.951 1.951 0 00-1.885-1.426h-7.812v-15.47h7.812c.88 0 1.653-.583 1.885-1.425a20.903 20.903 0 012.683-5.563 80.93 80.93 0 001.031-1.715 1.921 1.921 0 00-.312-2.333z" fill="url(#ca)"/><path d="M62.493 83.13a25.519 25.519 0 0017.953-7.363 25.014 25.014 0 007.436-17.775 25.014 25.014 0 00-7.436-17.776 25.518 25.518 0 00-17.953-7.363 25.518 25.518 0 00-17.953 7.363 25.014 25.014 0 00-7.436 17.776 25.044 25.044 0 007.445 17.767 25.548 25.548 0 0017.944 7.371zm0-46.41a21.593 21.593 0 0115.191 6.23 21.165 21.165 0 016.293 15.042 21.166 21.166 0 01-6.293 15.04 21.591 21.591 0 01-15.19 6.23 21.592 21.592 0 01-15.191-6.23 21.165 21.165 0 01-6.293-15.04 21.193 21.193 0 016.3-15.034 21.62 21.62 0 0115.183-6.237z" fill="url(#cb)"/><path d="M123.572 34.858a1.966 1.966 0 00-2.414 1.328l-2.027 7c-3.412-12.786-11.134-24.033-21.887-31.878A58.981 58.981 0 0060.01.052c-13.346.56-26.095 5.62-36.139 14.34-10.042 8.718-16.774 20.574-19.08 33.6-.087.505.03 1.024.329 1.444.298.42.752.704 1.263.792a1.952 1.952 0 002.258-1.575c2.157-12.21 8.48-23.317 17.916-31.466C35.99 9.04 47.964 4.344 60.474 3.886c12.51-.458 24.802 3.35 34.817 10.787 10.016 7.436 17.151 18.052 20.211 30.071l-6.835-5.645a1.967 1.967 0 00-2.752.248 1.923 1.923 0 00.25 2.725l11.718 9.668a1.97 1.97 0 001.834.364 1.94 1.94 0 001.302-1.318l3.906-13.537a1.913 1.913 0 00-.174-1.474 1.951 1.951 0 00-1.179-.917z" fill="url(#cc)"/><path d="M118.492 65.755a1.959 1.959 0 00-1.459.321 1.923 1.923 0 00-.795 1.253c-2.127 12.194-8.421 23.295-17.825 31.443-9.405 8.149-21.352 12.853-33.84 13.323a54.913 54.913 0 01-34.765-10.737C19.804 93.94 12.677 83.345 9.619 71.346l6.703 5.535a1.97 1.97 0 002.753-.249 1.923 1.923 0 00-.25-2.726L7.107 64.237a1.969 1.969 0 00-1.825-.358 1.94 1.94 0 00-1.3 1.316L.076 78.73a1.93 1.93 0 001.34 2.39c.175.047.354.073.534.073a1.95 1.95 0 001.877-1.403l2.083-7.21c3.335 12.815 11.007 24.11 21.735 32.005 10.729 7.892 23.867 11.904 37.221 11.367 13.355-.537 26.12-5.59 36.168-14.319 10.046-8.727 16.768-20.603 19.042-33.642a1.935 1.935 0 00-1.583-2.236z" fill="url(#cd)"/><path d="M53.704 73.205a1.953 1.953 0 001.953-.006l23.436-13.536a1.93 1.93 0 00.97-1.671 1.93 1.93 0 00-.97-1.673L55.657 42.783a1.969 1.969 0 00-1.952 0 1.93 1.93 0 00-.978 1.673v27.072c0 .692.372 1.332.977 1.677zm2.93-25.382l17.608 10.17-17.609 10.17v-20.34z" fill="url(#ce)"/><defs><linearGradient id="ca" x1="56.084" y1="67.275" x2="79.751" y2="49.966" gradientUnits="userSpaceOnUse"><stop stop-color="#0AB9B9"/><stop offset="1" stop-color="#117583"/></linearGradient><linearGradient id="cb" x1="56.084" y1="67.275" x2="79.751" y2="49.966" gradientUnits="userSpaceOnUse"><stop stop-color="#0AB9B9"/><stop offset="1" stop-color="#117583"/></linearGradient><linearGradient id="cc" x1="56.084" y1="67.275" x2="79.751" y2="49.966" gradientUnits="userSpaceOnUse"><stop stop-color="#0AB9B9"/><stop offset="1" stop-color="#117583"/></linearGradient><linearGradient id="cd" x1="56.084" y1="67.275" x2="79.751" y2="49.966" gradientUnits="userSpaceOnUse"><stop stop-color="#0AB9B9"/><stop offset="1" stop-color="#117583"/></linearGradient><linearGradient id="ce" x1="56.084" y1="67.275" x2="79.751" y2="49.966" gradientUnits="userSpaceOnUse"><stop stop-color="#0AB9B9"/><stop offset="1" stop-color="#117583"/></linearGradient></defs></svg><svg fill="none" viewBox="0 0 79 79" id="i-star" xmlns="http://www.w3.org/2000/svg"><path fill-rule="evenodd" clip-rule="evenodd" d="M39.49.002h-.006l-.025.002a.92.92 0 00-.874.82C34.512 21.736 22.897 34.94.838 38.59a.918.918 0 00-.816.714l-.002.009a.838.838 0 00-.013.078l-.002.021a.705.705 0 00-.005.106c0 .016 0 .03.002.046a.674.674 0 00.006.063c0 .007.002.014.003.02a.918.918 0 00.835.775c22.05 3.653 33.663 16.85 37.737 37.75a.918.918 0 00.825.83h.126a.919.919 0 00.88-.821c4.082-20.91 15.688-34.111 37.745-37.763a.919.919 0 00.819-.714l.002-.009a.838.838 0 00.02-.206c0-.015 0-.03-.002-.045a.68.68 0 00-.006-.063l-.003-.021a.919.919 0 00-.833-.775C56.106 34.93 44.5 21.734 40.416.833a.918.918 0 00-.826-.829h-.01L39.527 0a.721.721 0 00-.037 0v.002z" fill="#1BCFDA"/></svg></svg>