<svg width="72" height="47" fill="none" xmlns="http://www.w3.org/2000/svg"><path d="M44.298 43.562l23.467-23.467c4.576-4.57 4.576-12.02 0-16.59A11.643 11.643 0 0059.47.067c-3.133 0-6.084 1.22-8.296 3.438l-15.171 15.17-15.171-15.17A11.654 11.654 0 0012.536.067c-3.133 0-6.078 1.22-8.295 3.438A11.653 11.653 0 00.803 11.8c0 3.133 1.22 6.078 3.438 8.295l23.466 23.467A11.644 11.644 0 0036.003 47c3.133 0 6.084-1.22 8.295-3.438zm-12.443-4.148L8.388 15.948c-2.217-2.224-2.217-6.072 0-8.296a5.87 5.87 0 018.296 0l19.319 19.32 19.319-19.32a5.827 5.827 0 014.148-1.719c1.566 0 3.038.61 4.147 1.72a5.87 5.87 0 01.006 8.295L40.156 39.414a5.85 5.85 0 01-4.153 1.72 5.827 5.827 0 01-4.148-1.72z" fill="#fff"/></svg>