<svg width="179" height="47" fill="none" xmlns="http://www.w3.org/2000/svg"><path fill-rule="evenodd" clip-rule="evenodd" d="M104.021 26.9c1.552 0 2.783.7 3.424 1.474h.098v-1.075h2.711v11.839c0 4.87-2.834 6.867-6.184 6.867-3.153 0-5.05-2.147-5.765-3.895l2.488-1.05c.444 1.075 1.528 2.349 3.277 2.349 2.144 0 3.473-1.349 3.473-3.873v-.948h-.098c-.641.8-1.872 1.499-3.424 1.499-3.252 0-6.232-2.873-6.232-6.568 0-3.722 2.98-6.618 6.232-6.618zM1.311.315a.596.596 0 01.23.007.99.99 0 01.207.06L20.049 9.91l8.267 4.82c.049.012.097.03.142.052l8.55 5.016c.425.287.707.716.707 1.218s-.282 1.003-.706 1.218l-8.386 4.92a.492.492 0 01-.165.096l-.077.077c-.095.092-.163.138-.276.138h-.011l-8.045 4.729L1.748 42.512c-.142.072-.212.072-.354.072-.141 0-.282 0-.353-.072a.755.755 0 01-.353-.645V1.025c0-.26.116-.518.348-.618A.689.689 0 011.31.314zm167.018 26.974l3.395 8.402h.098l3.27-8.401h3.173l-7.844 18.274h-2.977l2.902-6.532-5.09-11.742h3.073zM2.101 2.674v37.443l19.422-19.038L2.101 2.673zm20.49 19.421l-3.955 3.86L5.765 38.57l13.578-7.594 7.592-4.42-4.345-4.462zm100.004 4.807c3.375 0 5.026 2.722 5.568 4.195l.295.75-8.696 3.646c.665 1.322 1.7 1.997 3.153 1.997 1.454 0 2.465-.724 3.203-1.823l2.217 1.499c-.714 1.074-2.439 2.922-5.42 2.922-3.695 0-6.453-2.898-6.453-6.593 0-3.922 2.783-6.593 6.133-6.593zm-63.713-7.294c3.08 0 5.27 1.225 6.922 2.823l-1.946 1.974c-1.182-1.124-2.783-1.999-4.976-1.999-4.064 0-7.243 3.32-7.243 7.443 0 4.12 3.179 7.44 7.243 7.44 2.635 0 4.138-1.072 5.1-2.046.787-.8 1.304-1.948 1.501-3.522h-6.6v-2.796h9.285c.1.5.149 1.097.149 1.747 0 2.099-.568 4.696-2.39 6.543-1.774 1.874-4.04 2.873-7.045 2.873-5.567 0-10.248-4.595-10.248-10.24 0-5.643 4.68-10.24 10.248-10.24zm16.941 7.294c3.597 0 6.528 2.772 6.528 6.593 0 3.795-2.931 6.593-6.528 6.593-3.598 0-6.53-2.798-6.53-6.593 0-3.821 2.932-6.593 6.53-6.593zm14.24 0c3.597 0 6.528 2.772 6.528 6.593 0 3.795-2.931 6.593-6.527 6.593-3.597 0-6.528-2.798-6.528-6.593 0-3.821 2.931-6.593 6.528-6.593zm69.192-.036c3.271 0 5.803 1.92 5.803 5.36v7.43h-2.754v-1.497h-.097c-.666 1.023-1.722 1.896-3.641 1.896-2.508 0-4.747-1.67-4.747-4.264 0-2.842 2.78-4.363 5.51-4.363 1.353 0 2.459.448 2.975.748v-.199c-.024-1.596-1.524-2.494-3-2.494-1.058 0-2.066.35-2.607 1.422l-2.532-1.072c.885-2.044 3.025-2.967 5.09-2.967zm-7.009-6.557v19.379h-2.853V20.308h2.853zm-10.698 0c3.163 0 6.271 2.32 6.271 6.018 0 3.697-3.108 6.02-6.271 6.02h-3.984v7.34h-2.852V20.309h6.836zm-26.465-.002v19.38h-2.858v-19.38h2.858zm-10.816 9.191c-1.971 0-3.621 1.7-3.621 4.022 0 2.297 1.65 3.97 3.621 3.97 1.947 0 3.473-1.673 3.473-3.97 0-2.322-1.526-4.021-3.473-4.021zm-28.444 0c-1.971 0-3.671 1.623-3.671 3.997 0 2.347 1.7 3.995 3.671 3.995 1.97 0 3.67-1.648 3.67-3.995 0-2.373-1.7-3.997-3.67-3.997zm14.24 0c-1.97 0-3.67 1.623-3.67 3.997 0 2.347 1.7 3.995 3.67 3.995 1.971 0 3.67-1.648 3.67-3.995 0-2.373-1.699-3.997-3.67-3.997zm69.634 4.274c-1.4 0-3.024.574-3.024 2.07 0 1.172 1.302 1.645 2.238 1.645 1.647 0 3.172-1.272 3.393-3.067-.763-.373-1.351-.648-2.607-.648zm-37.004-4.323c-1.453 0-3.473 1.299-3.399 3.846l5.813-2.448c-.319-.825-1.279-1.398-2.414-1.398zm18.929-6.443h-4.058v6.643h4.058c2.133 0 3.344-1.82 3.344-3.322 0-1.53-1.211-3.32-3.344-3.32zM28.25 16.361l-4.603 4.727 4.577 4.701 8.078-4.701-8.052-4.727zM5.64 4.074l8.438 7.986 8.512 8.022 1.92-1.971 2.464-2.54-7.631-4.443L5.64 4.074z" fill="#fff"/><path d="M57.904 11.065a4.81 4.81 0 01-2.93.989c-2.525 0-4.273-1.766-4.273-4.344 0-2.683 1.73-4.343 4.026-4.343 1.236 0 2.048.336 2.79.83l.97-1.606c-.812-.742-2.154-1.254-3.76-1.254-4.079 0-6.32 2.825-6.32 6.373 0 3.85 2.595 6.374 6.373 6.374 1.606 0 3.178-.565 3.954-1.395l-.83-1.624zM60.893 13.89h2.172V7.516l5.049 6.374h2.754l-5.402-6.603L70.55 1.53h-2.613l-4.872 5.862V1.53h-2.172V13.89zM71.063 13.89h2.189l1.288-3.16h5.28l1.288 3.16h2.313L78.195 1.496h-1.907L71.063 13.89zm6.126-9.587l1.8 4.396H75.37l1.819-4.396zM92.416 1.531h-2.172v5.314c-.618.424-1.412.795-2.366.795-1.218 0-2.171-.565-2.171-2.542V1.53h-2.172v4.184c0 2.949 1.89 3.955 3.76 3.955 1.325 0 2.367-.424 2.95-.847v5.067h2.17V1.53zM94.252 13.89h2.189l1.289-3.16h5.278l1.289 3.16h2.313l-5.226-12.394h-1.907L94.252 13.89zm6.126-9.587l1.801 4.396h-3.62l1.819-4.396zM105.839 3.562h4.007V13.89h2.172V3.562h4.008v-2.03h-10.187v2.03zM121.316 7.71c1.519 0 2.543.618 2.543 2.013 0 1.518-.989 2.172-2.578 2.172-.424 0-.812-.036-1.2-.053V7.799c.494-.053.918-.089 1.235-.089zm-1.235-6.179h-2.172V13.89c.724 0 1.942.035 3.125.035 3.284 0 5.12-1.642 5.12-4.255 0-2.419-1.466-3.99-4.661-3.99-.335 0-.865.018-1.412.088V1.531zM132.409 13.872c.724.053 2.312.088 3.442.088 2.613 0 4.591-1.165 4.591-3.707 0-1.642-.954-2.578-2.172-2.878V7.34c1.059-.495 1.766-1.395 1.766-2.807 0-1.713-1.113-3.055-4.061-3.055-1.236 0-2.878.053-3.566.089v12.305zm3.707-5.296c1.36 0 2.154.53 2.154 1.57 0 1.166-.794 1.784-2.26 1.784-.618 0-1.13-.053-1.43-.088V8.575h1.536zm-.176-5.067c1.165 0 1.942.53 1.942 1.536 0 1.13-.83 1.641-1.836 1.641h-1.466V3.562c.389-.036.865-.053 1.36-.053z" fill="#fff"/></svg>