<svg width="203" height="49" fill="none" xmlns="http://www.w3.org/2000/svg"><path d="M123.966 16.664c-5.887-.052-10.275 4.227-10.286 10.035-.01 5.808 4.3 10.03 10.166 10.072 5.865.042 10.27-4.191 10.306-9.989.037-5.797-4.211-10.061-10.186-10.118zm-.104 15.817c-3.272 0-5.553-2.398-5.548-5.782.005-3.383 2.343-5.802 5.636-5.787 3.293.016 5.579 2.404 5.568 5.84-.01 3.434-2.311 5.755-5.656 5.73zM176.955 26.964c3.131-2.886 3.893-6.502 2.431-10.445-1.377-3.73-4.305-5.544-8.229-5.7-5.605-.233-9.806 3.524-9.884 8.808-.031 2.322.684 4.321 2.536 5.819a2.1 2.1 0 002.021.46 2.079 2.079 0 001.423-1.497c.22-.88-.188-1.585-.652-2.284a4.356 4.356 0 01-.099-5.078c1.2-1.855 3.105-2.191 5.151-1.87a4.122 4.122 0 013.59 3.27 5.394 5.394 0 01-1.613 5.646c-.563.518-1.174.995-1.79 1.461-2.995 2.29-5.994 4.579-8.996 6.865-.893.684-1.169 1.451-.893 2.347a2.378 2.378 0 002.187 1.679h13.192c.238.015.477.015.715 0a2.156 2.156 0 001.994-2.145 2.066 2.066 0 00-.552-1.49 2.093 2.093 0 00-1.452-.665c-.929-.073-1.863-.042-2.797-.047h-4.697l-.063-.166c.319-.233.637-.46.95-.7 1.827-1.414 3.815-2.693 5.527-4.268zM71.108 17.493a11.468 11.468 0 00-8.794.046c-6.408 2.498-7.619 11.399-3.366 16.03 3.356 3.663 9.952 4.503 12.921.7.058.09.106.186.147.285.453 1.43 1.34 2.072 2.609 1.89 1.268-.18 1.946-1.092 1.951-2.507 0-2.906.079-5.818-.03-8.724-.152-3.695-2.01-6.306-5.439-7.72zm.699 10.844c-.522 2.699-2.328 4.144-5.078 4.144-2.828 0-5.04-1.632-5.474-4.227a9.023 9.023 0 01.047-3.285c.616-2.829 3.199-4.41 6.325-4.02 3.006.367 4.336 2.046 4.378 5.476-.063.627-.078 1.264-.198 1.912zM200.354 26.124c-.991 0-1.983.16-3.021.249v-1.482c0-1.87-.606-2.642-2.088-2.642-1.482 0-2.113.777-2.113 2.59v1.638l-4.358-.462c.141-.233.267-.455.407-.673 2.297-3.495 4.593-6.993 6.889-10.491.215-.303.402-.623.558-.959a2.19 2.19 0 00-.007-1.846 2.22 2.22 0 00-1.417-1.195c-1.044-.342-2.13.088-2.839 1.233-3.027 4.88-6.054 9.766-9.039 14.672-1.184 1.938-.182 3.627 2.088 3.663h5.677c1.409 0 1.843.44 1.89 1.855.026.793 0 1.59.041 2.383.105 1.25.981 1.954 2.286 1.923a2.045 2.045 0 001.537-.566c.409-.394.634-.94.618-1.507.026-.74 0-1.482.026-2.222.079-1.472.496-1.855 1.968-1.876h.882c1.523-.031 2.395-.819 2.39-2.166-.005-1.347-.861-2.14-2.375-2.119zM147.866 16.674c-5.401-.254-9.795 3.445-9.998 8.75-.188 4.944-.073 9.897-.047 14.845-.011.579.213 1.138.623 1.55.409.413.969.644 1.553.641a2.197 2.197 0 002.348-1.927c.06-.445.087-.894.079-1.342v-4.819a19.835 19.835 0 002.781 1.778 8.668 8.668 0 006.476.062c6.622-2.342 7.776-10.984 4.352-15.58-2.03-2.714-4.863-3.797-8.167-3.958zm5.094 12.061c-.621 2.41-2.536 3.793-5.041 3.814-2.505.02-4.551-1.311-5.219-3.513a16.607 16.607 0 01-.36-2.17h.073c.026-.446 0-.902.089-1.343.449-2.994 2.338-4.663 5.218-4.595 2.881.067 5.182 1.953 5.448 4.818a8.745 8.745 0 01-.208 2.99zM110.272 16.659H98.719a2.313 2.313 0 00-2.213 2.303c0 1.23.974 2.244 2.213 2.303h3.621v13.18a2.315 2.315 0 002.32 2.196c1.24 0 2.261-.966 2.319-2.196v-13.18h3.293c.855.04 1.663-.39 2.103-1.12.44-.728.44-1.638 0-2.368a2.328 2.328 0 00-2.103-1.118zM94.538 27.668a7.212 7.212 0 00-3.986-1.642h-.037l.037-.036a6.281 6.281 0 003.36-1.555 3.847 3.847 0 001.237-2.886c0-3.264-3.013-4.896-9.038-4.896-1.263 0-2.63.063-4.102.187a2.26 2.26 0 00-1.566.751 2.348 2.348 0 00-.6 1.611v15.025c-.007.59.21 1.162.605 1.601.379.453.928.732 1.52.772 1.596.13 3.073.192 4.44.192 6.384 0 9.574-1.972 9.57-5.917a4.132 4.132 0 00-1.44-3.207zm-9.68-7.33a.358.358 0 01.303-.38c.61-.05 1.044-.077 1.367-.077 2.61 0 3.914.755 3.914 2.264a2.07 2.07 0 01-1.085 1.845 5.47 5.47 0 01-2.944.679h-1.21c-.23 0-.345-.099-.345-.301v-4.03zm1.77 13.18c-.482.009-.963-.016-1.441-.073-.23-.052-.344-.176-.344-.378v-5.005c0-.202.114-.3.344-.3h1.325c3.09 0 4.635.916 4.635 2.75.01 2.004-1.497 3.006-4.52 3.006z" fill="#fff"/><mask id="a" maskUnits="userSpaceOnUse" x="0" y="0" width="55" height="49"><path d="M15.102 1.608C24.222-1.921 34.589.476 41.2 7.643l-.02.006.046.051.162.17c.089.094.167.193.25.286a23.953 23.953 0 014.807 8.688 23.53 23.53 0 01.98 6.088v.052c.006.228.011.445-.077.658v1.477l-.003.002.091.018V41.34a7.01 7.01 0 002.076 4.98 7.113 7.113 0 005.016 2.061h-30.83c-7.711.005-14.942-3.713-19.387-9.968l.283.015-.073-.012-.085-.008H4.31a20.817 20.817 0 01-2.886-5.534.217.217 0 000-.051l-.21-.6A23.436 23.436 0 010 24.762v-1.176C-.017 13.867 5.982 5.137 15.102 1.608zm16.07 13.558a12.304 12.304 0 00-12.815-1.653c-4.368 1.975-7.169 6.302-7.163 11.067v.606a12.055 12.055 0 001.1 5.041 3.883 3.883 0 00-.018.007l.024-.007.166.34a12.268 12.268 0 007.573 6.24l-.099.02a2.953 2.953 0 00-.085.025l.184-.045c1.097.307 2.232.462 3.371.46h12.248v-7.9l-.073-.067V24.48c.001-.493-.028-.986-.089-1.476-.01-.094-.02-.145-.041-.285-.021-.14-.068-.275-.068-.415-.063-.342-.141-.684-.24-1.036l-.023-.096c-.013-.063-.026-.127-.05-.2-.037-.108-.079-.206-.115-.31v-.057a11.893 11.893 0 00-.444-1.104l-.052-.108a11.895 11.895 0 00-.49-.928c-.037-.057-.063-.114-.1-.166l-.23-.362-.265-.389-.152-.207c-.423-.569-.896-1.1-1.414-1.586l-.167-.155-.209-.192-.01-.03-.255-.213z" fill="#fff"/></mask><g mask="url(#a)"><path d="M15.102 1.608C24.222-1.921 34.589.476 41.2 7.643l-.02.006.046.051.162.17c.089.094.167.193.25.286a23.953 23.953 0 014.807 8.688 23.53 23.53 0 01.98 6.088v.052c.006.228.011.445-.077.658v1.477l-.003.002.091.018V41.34a7.01 7.01 0 002.076 4.98 7.113 7.113 0 005.016 2.061h-30.83c-7.711.005-14.942-3.713-19.387-9.968l.283.015-.073-.012-.085-.008H4.31a20.817 20.817 0 01-2.886-5.534.217.217 0 000-.051l-.21-.6A23.436 23.436 0 010 24.762v-1.176C-.017 13.867 5.982 5.137 15.102 1.608zm16.07 13.558a12.304 12.304 0 00-12.815-1.653c-4.368 1.975-7.169 6.302-7.163 11.067v.606a12.055 12.055 0 001.1 5.041 3.883 3.883 0 00-.018.007l.024-.007.166.34a12.268 12.268 0 007.573 6.24l-.099.02a2.953 2.953 0 00-.085.025l.184-.045c1.097.307 2.232.462 3.371.46h12.248v-7.9l-.073-.067V24.48c.001-.493-.028-.986-.089-1.476-.01-.094-.02-.145-.041-.285-.021-.14-.068-.275-.068-.415-.063-.342-.141-.684-.24-1.036l-.023-.096c-.013-.063-.026-.127-.05-.2-.037-.108-.079-.206-.115-.31v-.057a11.893 11.893 0 00-.444-1.104l-.052-.108a11.895 11.895 0 00-.49-.928c-.037-.057-.063-.114-.1-.166l-.23-.362-.265-.389-.152-.207c-.423-.569-.896-1.1-1.414-1.586l-.167-.155-.209-.192-.01-.03-.255-.213z" fill="url(#paint0_linear)"/><path d="M49.096 25.296c-3.908-.886-8.5 1.316-12.972 4.181-9.681 5.196-14.888 7.691-15.619 7.487A49.92 49.92 0 014.776 38.57c4.445 6.255 11.677 14.753 19.387 14.748l30.831-4.78c-1.881.001-2.492-.74-3.822-2.06a7.01 7.01 0 01-2.076-4.981V25.296z" fill="url(#paint1_linear)"/><path d="M12.295 30.227a12.055 12.055 0 01-1.101-5.041v-.606c-.006-4.765 2.795-9.092 7.163-11.067a12.302 12.302 0 0113.11 1.902A15.952 15.952 0 0141.2 7.643C34.59.476 24.222-1.921 15.102 1.608 5.982 5.137-.018 13.867 0 23.585v1.176c-.002 2.75.48 5.477 1.425 8.062a42.985 42.985 0 0010.87-2.596z" fill="url(#paint2_linear)"/></g><defs><linearGradient id="paint0_linear" x1="48.927" y1="69.215" x2="9.427" y2="-31.23" gradientUnits="userSpaceOnUse"><stop stop-color="#F85DB9"/><stop offset=".17" stop-color="#EF5CBB"/><stop offset=".45" stop-color="#D558C1"/><stop offset=".81" stop-color="#AC52CB"/><stop offset="1" stop-color="#934ED1"/></linearGradient><linearGradient id="paint1_linear" x1="27.206" y1="37.847" x2="34.391" y2="50.854" gradientUnits="userSpaceOnUse"><stop stop-color="#FECF00"/><stop offset=".34" stop-color="#FDC607"/><stop offset="1" stop-color="#FAA81C"/></linearGradient><linearGradient id="paint2_linear" x1="6.273" y1="10.816" x2="38.566" y2="37.676" gradientUnits="userSpaceOnUse"><stop stop-color="#6435A5"/><stop offset=".24" stop-color="#6D3AAE"/><stop offset=".63" stop-color="#8747C6"/><stop offset="1" stop-color="#934ED1"/></linearGradient></defs></svg>