<svg width="39" height="34" fill="none" xmlns="http://www.w3.org/2000/svg"><path fill-rule="evenodd" clip-rule="evenodd" d="M.959 22.899a16.173 16.173 0 01-.959-5.5v-.823l.002-.274C.152 7.29 7.672.032 16.93.032c4.93 0 9.366 2.06 12.46 5.347l.021.022.021.021.054.06.055.06.09.1.089.101.056.065a16.75 16.75 0 013.362 6.032l.045.148c.465 1.566.628 2.984.664 4.128v.017l.001.018.003.119c.003.118.004.233.005.344v1.05l-.09-.019-.025-.005.114.024v11.373l.001.082c.045 2.693 2.295 4.864 5.064 4.864H16.914l-.171-.001c-5.646-.055-10.628-2.81-13.665-7.002l.189.009a42.65 42.65 0 00-.189-.01l-.072-.097c-.36-.495-.74-1.085-1.101-1.77l-.067-.128c-.35-.682-.61-1.32-.807-1.886l-.006-.017-.007-.018v-.003l-.06-.161zM16.724 8.735l-.144.002c-4.758.075-8.592 3.868-8.592 8.536v.425l.001.13c.02 1.216.3 2.368.787 3.41l.003-.001.045.093c1.07 2.18 3.06 3.846 5.48 4.52l-.018.005a2.68 2.68 0 00-.072.018l-.213.056c-3.335.866-6.594 1.147-9.596 1.095 3.093.054 6.458-.244 9.899-1.173l.135.036a8.92 8.92 0 002.27.294h8.742v-9.056a8.528 8.528 0 00-.064-.943l-.014-.1-.015-.103-.015-.096a7.497 7.497 0 00-.035-.191l-.028-.141a8.295 8.295 0 00-.142-.583l-.001-.004-.001-.005-.019-.07c-.011-.045-.022-.09-.037-.138l-.026-.075c-.018-.048-.037-.095-.054-.144l-.008-.02-.007-.02-.049-.135a8.018 8.018 0 00-.268-.639l-.018-.037-.018-.037-.068-.137a8.23 8.23 0 00-.284-.515l-.034-.06-.035-.059-.055-.086a8.707 8.707 0 00-.111-.168l-.062-.091-.128-.181-.054-.074-.053-.073-.102-.132a8.716 8.716 0 00-.906-.98l-.042-.038-.079-.07-.074-.069-.076-.067-.005-.004-.004-.003-.082-.069a8.818 8.818 0 00-5.654-2.033z" fill="#fff"/></svg>