<svg width="150" height="131" viewBox="0 0 150 131" fill="none" xmlns="http://www.w3.org/2000/svg">
<path fill-rule="evenodd" clip-rule="evenodd" d="M3.68679 88.0843C1.2999 81.4647 0 74.3473 0 66.93V63.761L0.00872299 62.7085C0.583703 28.0462 29.5107 0.121094 65.114 0.121094C84.0753 0.121094 101.138 8.05002 113.04 20.6926L113.12 20.7741L113.201 20.8577L113.408 21.0848L113.619 21.3181L113.964 21.7035L114.307 22.0932L114.523 22.3425C118.668 27.1303 124.173 34.8589 127.455 45.5456L127.626 46.1122C129.414 52.1389 130.042 57.5939 130.181 61.9925L130.183 62.0601L130.185 62.1268L130.196 62.5849C130.207 63.0394 130.213 63.4825 130.214 63.9107V67.95L129.868 67.8756C129.837 67.869 129.805 67.8625 129.773 67.8561L130.214 67.95V111.698L130.216 112.013C130.388 122.373 139.041 130.721 149.691 130.721H65.0538L64.395 130.718C42.6805 130.508 23.5206 119.912 11.8401 103.783L12.5645 103.818C13.2204 103.848 13.8799 103.874 14.5429 103.895C13.6354 103.865 12.7343 103.828 11.8401 103.783H11.8386L11.5632 103.408C10.1804 101.504 8.71612 99.2353 7.32609 96.5988L7.06908 96.1053C5.72031 93.4839 4.72044 91.0272 3.96675 88.8517L3.94168 88.7839L3.91661 88.716L3.91374 88.7034L3.68679 88.0843ZM64.3246 33.6025L63.769 33.6069C45.4679 33.8969 30.724 48.4874 30.724 66.4431V68.0801L30.7279 68.582C30.8002 73.2577 31.881 77.6884 33.7525 81.6951C33.7582 81.6937 33.761 81.6923 33.7639 81.6909L33.9382 82.0515C38.0564 90.4375 45.7097 96.8443 55.0144 99.4404L54.9472 99.4559C54.8732 99.4732 54.7791 99.496 54.6706 99.5244L53.8513 99.7403C41.0237 103.073 28.4891 104.155 16.9414 103.955C28.838 104.163 41.7819 103.014 55.0144 99.4404L55.5349 99.5815C58.3193 100.313 61.2444 100.709 64.2659 100.709H97.8894V79.2396C97.8899 79.2393 97.8904 79.239 97.8909 79.2387L97.8908 66.2318L97.8894 65.8748C97.8783 64.7882 97.8042 63.563 97.643 62.2471L97.5906 61.8606L97.5327 61.4678L97.4726 61.0969C97.4308 60.8504 97.3856 60.6054 97.3379 60.3611L97.2321 59.8199C97.083 59.0933 96.9012 58.346 96.6846 57.5782L96.6793 57.5607L96.676 57.5432L96.6054 57.2763C96.5613 57.0997 96.5199 56.9243 96.4626 56.7415L96.3629 56.4553C96.2932 56.2692 96.2191 56.0895 96.1532 55.8992L96.1245 55.8222L96.0958 55.7453L95.9079 55.2267C95.5896 54.37 95.2454 53.5519 94.8753 52.7707L94.8073 52.6273L94.7392 52.4839L94.4782 51.9585C94.1272 51.266 93.7637 50.6054 93.3855 49.9752L93.2526 49.7468L93.1176 49.5205L92.9058 49.1877C92.7647 48.9685 92.6233 48.7543 92.4801 48.5425L92.241 48.1903C92.0799 47.9566 91.9157 47.725 91.7495 47.4946L91.5439 47.2111L91.3383 46.9307L90.9452 46.423C89.8838 45.0795 88.7185 43.8198 87.4604 42.6507L87.3013 42.5044C87.1989 42.4123 87.1018 42.328 86.9977 42.2338L86.7106 41.9723L86.4204 41.7119L86.4017 41.6992L86.3831 41.6853L86.0708 41.4225C80.2102 36.5506 72.6214 33.6025 64.3246 33.6025Z" fill="url(#paint0_linear)"/>
<defs>
<linearGradient id="paint0_linear" x1="0.0927981" y1="65.421" x2="149.783" y2="65.421" gradientUnits="userSpaceOnUse">
<stop stop-color="#6E00FF"/>
<stop offset="1" stop-color="#AD00FF"/>
</linearGradient>
</defs>
</svg>
