<svg id="SvgjsSvg1008" xmlns="http://www.w3.org/2000/svg" version="1.1" xmlns:xlink="http://www.w3.org/1999/xlink" xmlns:svgjs="http://svgjs.com/svgjs" width="14" height="14" viewBox="0 0 14 14"><title>Rectangle 3 Copy 3</title><desc>Created with Avocode.</desc><defs id="SvgjsDefs1009"><clipPath id="SvgjsClipPath1012"><path id="SvgjsPath1011" d="M155 6994C155 6992.89543 155.89543 6992 157 6992L167 6992C168.10457 6992 169 6992.89543 169 6994L169 7004C169 7005.10457 168.10457 7006 167 7006L157 7006C155.89543 7006 155 7005.10457 155 7004Z " fill="#ffffff"></path></clipPath></defs><path id="SvgjsPath1010" d="M155 6994C155 6992.89543 155.89543 6992 157 6992L167 6992C168.10457 6992 169 6992.89543 169 6994L169 7004C169 7005.10457 168.10457 7006 167 7006L157 7006C155.89543 7006 155 7005.10457 155 7004Z " fill-opacity="0" fill="#ffffff" stroke-dasharray="0" stroke-linejoin="miter" stroke-linecap="butt" stroke-opacity="1" stroke="#9b9b9b" stroke-miterlimit="50" stroke-width="2" clip-path="url(&quot;#SvgjsClipPath1012&quot;)" transform="matrix(1,0,0,1,-155,-6992)"></path></svg>