<?xml version="1.0" encoding="UTF-8"?>
<svg width="16px" height="16px" viewBox="0 0 16 16" version="1.1" xmlns="http://www.w3.org/2000/svg" xmlns:xlink="http://www.w3.org/1999/xlink">
    <!-- Generator: sketchtool 40.2 (33826) - http://www.bohemiancoding.com/sketch -->
    <title>4F2189BC-7DCE-4FAB-B43D-7F968EDF20F3</title>
    <desc>Created with sketchtool.</desc>
    <defs></defs>
    <g id="Style-Guide" stroke="none" stroke-width="1" fill="none" fill-rule="evenodd">
        <g transform="translate(-808.000000, -7866.000000)" id="Group-89">
            <g transform="translate(0.000000, 1431.000000)">
                <g id="Group-77" transform="translate(155.000000, 6431.000000)">
                    <g id="Group-5" transform="translate(653.000000, 4.000000)">
                        <g id="chat-bubble-square-1">
                            <g id="Group">
                                <g id="Frames-24px">
                                    <rect id="Rectangle-path" x="0" y="0" width="16" height="16"></rect>
                                </g>
                                <g id="Outline" transform="translate(0.333333, 1.333333)" fill="#D2145A">
                                    <path d="M2.66666667,10.6666667 L2.66666667,10.6666667 C1.56209717,10.6666667 0.666666667,9.77923338 0.666666667,8.66705168 L0.666666667,2.66628165 C0.666666667,1.56192479 1.56020931,0.666666667 2.66942679,0.666666667 L11.6639065,0.666666667 C12.7700004,0.666666667 13.6666667,1.55409996 13.6666667,2.66628165 L13.6666667,8.66705168 C13.6666667,9.77140854 12.7768662,10.6666667 11.6568043,10.6666667 L6.16666667,10.6666667 L3.66666667,12.6666667 L2.66666667,12.6666667 L2.66666667,10.6666667 Z M2.66666667,8.66666667 L3.66666667,8.66666667 L3.66666667,10.6666667 L5.66666667,8.66666667 L11.6666667,8.66666667 L11.6666667,2.66666667 L2.66666667,2.66666667 L2.66666667,8.66666667 Z" id="Shape"></path>
                                </g>
                            </g>
                        </g>
                    </g>
                </g>
            </g>
        </g>
    </g>
</svg>