<svg id="SvgjsSvg1000" xmlns="http://www.w3.org/2000/svg" version="1.1" xmlns:xlink="http://www.w3.org/1999/xlink" xmlns:svgjs="http://svgjs.com/svgjs" width="20" height="19" viewBox="0 0 20 19"><title>Shape</title><desc>Created with Avocode.</desc><defs id="SvgjsDefs1001"></defs><path id="SvgjsPath1007" d="M306 7947.09C304.91 7945.81 303.24 7945 301.5 7945C298.42 7945 296 7947.42 296 7950.5C296 7954.28 299.4 7957.36 304.55 7962.04L306 7963.35L307.45 7962.030000000001C312.59999999999997 7957.360000000001 316 7954.280000000001 316 7950.500000000001C316 7947.420000000001 313.58 7945.000000000001 310.5 7945.000000000001C308.76 7945.000000000001 307.09 7945.810000000001 306 7947.090000000001ZM306 7960.65L305.9 7960.549999999999C301.14 7956.239999999999 298 7953.389999999999 298 7950.499999999999C298 7948.499999999999 299.5 7946.999999999999 301.5 7946.999999999999C303.04 7946.999999999999 304.54 7947.989999999999 305.07 7949.359999999999L306.94 7949.359999999999C307.46 7947.989999999999 308.96 7946.999999999999 310.5 7946.999999999999C312.5 7946.999999999999 314 7948.499999999999 314 7950.499999999999C314 7953.389999999999 310.86 7956.239999999999 306.1 7960.549999999999Z " fill="#d2145a" fill-opacity="1" transform="matrix(1,0,0,1,-296,-7945)"></path></svg>