<svg id="SvgjsSvg1008" xmlns="http://www.w3.org/2000/svg" version="1.1" xmlns:xlink="http://www.w3.org/1999/xlink" xmlns:svgjs="http://svgjs.com/svgjs" width="15" height="15" viewBox="0 0 15 15"><title>Shape</title><desc>Created with Avocode.</desc><defs id="SvgjsDefs1009"></defs><path id="SvgjsPath1010" d="M240.5 9005C244.64 9005 248 9008.36 248 9012.5C248 9016.64 244.64 9020 240.5 9020C236.36 9020 233 9016.64 233 9012.5C233 9008.36 236.36 9005 240.5 9005ZM240.5 9018.5C243.81 9018.5 246.5 9015.81 246.5 9012.5C246.5 9009.19 243.81 9006.5 240.5 9006.5C237.19 9006.5 234.5 9009.19 234.5 9012.5C234.5 9015.81 237.19 9018.5 240.5 9018.5ZM239.75 9017L239.75 9015.5L241.25 9015.5L241.25 9017ZM237.5 9011L239 9011C239 9010.17 239.68 9009.5 240.5 9009.5C241.33 9009.5 242 9010.17 242 9011C242 9012.5 239.75 9012.31 239.75 9014.75L241.25 9014.75C241.25 9013.06 243.5 9012.88 243.5 9011C243.5 9009.34 242.16 9008 240.5 9008C238.84 9008 237.5 9009.34 237.5 9011Z " fill="#9b9b9b" fill-opacity="1" transform="matrix(1,0,0,1,-233,-9005)"></path></svg>