<?xml version="1.0" encoding="UTF-8"?>
<svg width="16px" height="16px" viewBox="0 0 16 16" version="1.1" xmlns="http://www.w3.org/2000/svg" xmlns:xlink="http://www.w3.org/1999/xlink">
    <!-- Generator: sketchtool 40.2 (33826) - http://www.bohemiancoding.com/sketch -->
    <title>37BB6035-2699-49A3-92A8-82DA9FAC653E</title>
    <desc>Created with sketchtool.</desc>
    <defs></defs>
    <g id="Style-Guide" stroke="none" stroke-width="1" fill="none" fill-rule="evenodd">
        <g transform="translate(-705.000000, -4873.000000)" id="Group-89">
            <g transform="translate(0.000000, 1431.000000)">
                <g id="Group-69" transform="translate(155.000000, 3440.000000)">
                    <g id="log-in-copy-2" transform="translate(550.000000, 2.000000)">
                        <polygon id="Shape" transform="translate(8.000000, 8.000000) rotate(-90.000000) translate(-8.000000, -8.000000) " points="0 0 16 0 16 16 0 16"></polygon>
                        <path d="M8.41363636,6.66666667 C7.89181818,5.11333333 6.47909091,4 4.81818182,4 C2.71181818,4 1,5.79333333 1,8 C1,10.2066667 2.71181818,12 4.81818182,12 C6.47909091,12 7.89181818,10.8866667 8.41363636,9.33333333 L11.1818182,9.33333333 L11.1818182,12 L13.7272727,12 L13.7272727,9.33333333 L15,9.33333333 L15,6.66666667 L8.41363636,6.66666667 L8.41363636,6.66666667 Z M4.81818182,9.33333333 C4.11818182,9.33333333 3.54545455,8.73333333 3.54545455,8 C3.54545455,7.26666667 4.11818182,6.66666667 4.81818182,6.66666667 C5.51818182,6.66666667 6.09090909,7.26666667 6.09090909,8 C6.09090909,8.73333333 5.51818182,9.33333333 4.81818182,9.33333333 L4.81818182,9.33333333 Z" id="Shape" fill="#333333"></path>
                    </g>
                </g>
            </g>
        </g>
    </g>
</svg>