<?xml version="1.0" encoding="UTF-8"?>
<svg width="16px" height="16px" viewBox="0 0 16 16" version="1.1" xmlns="http://www.w3.org/2000/svg" xmlns:xlink="http://www.w3.org/1999/xlink">
    <!-- Generator: sketchtool 40.2 (33826) - http://www.bohemiancoding.com/sketch -->
    <title>F22F6FD1-2802-46F9-9A9C-2ED41A466969</title>
    <desc>Created with sketchtool.</desc>
    <defs></defs>
    <g id="Symbols" stroke="none" stroke-width="1" fill="none" fill-rule="evenodd">
        <g id="help">
            <g id="ic-help-outline-24-px-copy-2">
                <g id="Group">
                    <polygon id="Shape" points="0 0 16 0 16 16 0 16"></polygon>
                    <path d="M7.25,12.5 L8.75,12.5 L8.75,11 L7.25,11 L7.25,12.5 L7.25,12.5 Z M8,0.5 C3.86,0.5 0.5,3.86 0.5,8 C0.5,12.14 3.86,15.5 8,15.5 C12.14,15.5 15.5,12.14 15.5,8 C15.5,3.86 12.14,0.5 8,0.5 L8,0.5 Z M8,14 C4.6925,14 2,11.3075 2,8 C2,4.6925 4.6925,2 8,2 C11.3075,2 14,4.6925 14,8 C14,11.3075 11.3075,14 8,14 L8,14 Z M8,3.5 C6.3425,3.5 5,4.8425 5,6.5 L6.5,6.5 C6.5,5.675 7.175,5 8,5 C8.825,5 9.5,5.675 9.5,6.5 C9.5,8 7.25,7.8125 7.25,10.25 L8.75,10.25 C8.75,8.5625 11,8.375 11,6.5 C11,4.8425 9.6575,3.5 8,3.5 L8,3.5 Z" id="Shape" fill="#D2145A"></path>
                </g>
            </g>
        </g>
    </g>
</svg>