<?xml version="1.0" encoding="UTF-8" standalone="no"?>
<svg width="40px" height="24px" viewBox="0 0 40 24" version="1.1" xmlns="http://www.w3.org/2000/svg" xmlns:xlink="http://www.w3.org/1999/xlink">
    <!-- Generator: sketchtool 39.1 (31720) - http://www.bohemiancoding.com/sketch -->
    <title>9D1BAEBE-FE23-4BFE-AAE0-FA4923B0D676</title>
    <desc>Created with sketchtool.</desc>
    <defs></defs>
    <g id="Checkout2" stroke="none" stroke-width="1" fill="none" fill-rule="evenodd">
        <g id="checkout-C-default" transform="translate(-317.000000, -1173.000000)">
            <g id="Group-19" transform="translate(317.000000, 1173.000000)">
                <rect id="card" fill="#F1EFEB" x="0" y="0" width="40" height="24" rx="3"></rect>
                <g id="ic-call-24-px" transform="translate(8.000000, 0.000000)">
                    <g id="Group">
                        <polygon id="Shape" points="0 0 24 0 24 24 0 24"></polygon>
                        <path d="M6.62,10.79 C8.06,13.62 10.38,15.93 13.21,17.38 L15.41,15.18 C15.68,14.91 16.08,14.82 16.43,14.94 C17.55,15.31 18.76,15.51 20,15.51 C20.55,15.51 21,15.96 21,16.51 L21,20 C21,20.55 20.55,21 20,21 C10.61,21 3,13.39 3,4 C3,3.45 3.45,3 4,3 L7.5,3 C8.05,3 8.5,3.45 8.5,4 C8.5,5.25 8.7,6.45 9.07,7.57 C9.18,7.92 9.1,8.31 8.82,8.59 L6.62,10.79 L6.62,10.79 Z" id="Shape" fill="#37AA0C"></path>
                    </g>
                </g>
            </g>
        </g>
    </g>
</svg>