<?xml version="1.0" encoding="UTF-8"?>
<svg width="24px" height="24px" viewBox="0 0 24 24" version="1.1" xmlns="http://www.w3.org/2000/svg" xmlns:xlink="http://www.w3.org/1999/xlink">
    <!-- Generator: sketchtool 40.2 (33826) - http://www.bohemiancoding.com/sketch -->
    <title>1F88A0A7-4462-4FDA-86CC-36558B3BF80C</title>
    <desc>Created with sketchtool.</desc>
    <defs></defs>
    <g id="Style-Guide" stroke="none" stroke-width="1" fill="none" fill-rule="evenodd">
        <g transform="translate(-186.000000, -7942.000000)" id="Group-89">
            <g transform="translate(0.000000, 1431.000000)">
                <g id="Group-76" transform="translate(155.000000, 6503.000000)">
                    <g id="Group-60" transform="translate(0.000000, 8.000000)">
                        <g id="Group-3-Copy-2" transform="translate(31.000000, 0.000000)">
                            <g id="Group-18">
                                <g id="Group-3-Copy-2">
                                    <rect id="Rectangle" x="0" y="0" width="24" height="24"></rect>
                                    <path d="M6.73109814,0.000520898502 C6.65891911,0.0176379214 6.5948231,0.0521764322 6.53880967,0.104135986 L2.04750042,3.81947696 C2.04282096,3.8243018 2.03824252,3.82923601 2.03376531,3.83427912 C2.02918709,3.83420186 2.02460886,3.83420186 2.02003064,3.83427912 C1.98487794,3.85426525 1.95282972,3.87893535 1.9238864,3.9082899 C1.91920715,3.91311474 1.91462872,3.91804895 1.91015151,3.92309205 C1.90083494,3.9276811 1.89167827,3.93261488 1.88268173,3.93789421 C1.88261026,3.94282837 1.88261026,3.94776215 1.88268173,3.95269636 C1.86751186,3.97127266 1.85377697,3.99100856 1.84147706,4.01190498 C1.8365788,4.02160037 1.83200058,4.03146874 1.82774237,4.04150929 C1.82306271,4.04633413 1.81848427,4.05126792 1.81400706,4.05631145 C1.80291767,4.08014856 1.79376122,4.10481866 1.78653728,4.13032175 L0.0559412674,7.84566321 C-0.039801259,8.04975565 -0.012647508,8.23265587 0.137402521,8.39436565 C0.28745251,8.55607538 0.457165597,8.58533818 0.646541773,8.48215588 L1.7728026,7.87526752 L1.7728026,17.5262728 C1.77286212,17.8420527 1.91938236,17.9999417 2.21236311,17.9999417 L10.5356629,17.9999417 L15.3291397,17.9999417 L15.3978142,17.9999417 C15.402393,18.0000194 15.4069702,18.0000194 15.4115491,17.9999417 C15.4394564,17.9978331 15.4669262,17.9928984 15.4939584,17.9851396 C15.5079196,17.9809385 15.5216545,17.9760038 15.5351631,17.9703392 C15.591008,17.9515691 15.6413687,17.9219648 15.6862469,17.8815263 C15.6958086,17.8720942 15.7049646,17.8622249 15.7137149,17.8519202 C15.7232767,17.8424899 15.7324328,17.8326206 15.7411864,17.8223159 L15.7686562,17.7779094 C15.778218,17.7684773 15.7873757,17.7586099 15.796126,17.7483051 L19.2573184,13.0856262 C19.3214911,12.9990628 19.3535381,12.9003806 19.3534627,12.7895831 L19.3534627,8.26012355 L21.8669477,5.55132913 C22.0236146,5.3741947 22.0419267,5.18176668 21.9218855,4.97404598 L19.3534627,0.370574781 C19.33758,0.292787347 19.3055314,0.223710548 19.2573184,0.163344379 C19.2530598,0.153304094 19.248481,0.143436366 19.2435836,0.133740746 C19.2390063,0.1336635 19.2344275,0.133663273 19.2298487,0.133740296 C19.22559,0.123700233 19.2210112,0.113832278 19.2161121,0.104136663 C19.2115349,0.104059417 19.2069561,0.10405919 19.2023772,0.104135986 C19.1936269,0.0938314356 19.1844709,0.0839632578 19.1749091,0.074531675 C19.1445069,0.0555905765 19.1124582,0.0407884213 19.0787649,0.0301249817 C19.0697681,0.0248458842 19.0606104,0.019911684 19.0512934,0.0153228264 C19.0467145,0.0152458079 19.0421374,0.0152458079 19.0375602,0.0153228264 C19.0285634,0.0100439563 19.0194074,0.00510997874 19.0100904,0.000521121127 C19.0055132,0.000443875191 19.0009344,0.000443875191 18.9963555,0.000520898502 C18.9871978,0.000212369482 18.9780417,0.000212369482 18.9688857,0.000520898502 C18.9643069,0.000443875191 18.9597297,0.000443875191 18.9551508,0.000520898502 C18.9459948,0.000212592107 18.9368371,0.000212592107 18.9276811,0.000520898502 C18.9231039,0.000443875191 18.918525,0.000443875191 18.9139462,0.000520898502 L6.81350748,0.000520898502 C6.79977259,-0.000173632834 6.7860377,-0.000173632834 6.77230281,0.000520898502 C6.75856748,-0.000173632834 6.74483259,-0.000173632834 6.7310977,0.000520898502 L6.73109814,0.000520898502 L6.73109814,0.000520898502 Z M6.95085639,0.947858837 L17.8426247,0.947858837 L15.2055257,3.78987265 L3.50339883,3.78987265 L6.95085639,0.947858837 L6.95085639,0.947858837 Z M18.8315368,1.24390194 L21.0016496,5.12206663 L18.1173225,8.23051924 L15.9472098,4.35235456 L18.8315368,1.24390194 L18.8315368,1.24390194 Z M2.65183561,4.73721059 L14.9582977,4.73721059 L14.9582977,17.0526038 L10.5356629,17.0526038 L2.65183561,17.0526038 L2.65183561,7.16476406 C2.6529822,7.14502722 2.6529822,7.12529133 2.65183561,7.10555544 L2.65183561,4.73721059 L2.65183561,4.73721059 Z M15.8373307,5.95098733 L17.6640711,9.2370658 C17.7355573,9.37073239 17.8421854,9.4482603 17.9839589,9.46965044 C18.1257324,9.49104057 18.2480169,9.4480498 18.3508157,9.34067904 L18.4744297,9.20746149 L18.4744297,12.6267594 L15.8373307,16.1792766 L15.8373307,5.95098733 L15.8373307,5.95098733 Z M1.7728026,6.27663474 L1.7728026,6.80951233 L1.44316523,6.9871382 L1.7728026,6.27663474 L1.7728026,6.27663474 Z M6.48387011,6.63188647 C6.19085936,6.67629384 6.06495634,6.85638609 6.10616061,7.17216514 C6.14736529,7.48794414 6.31447298,7.62362993 6.60748412,7.57922441 L11.0026491,7.57922441 C11.1736671,7.58183267 11.3022833,7.5035395 11.3884986,7.34434589 C11.4747131,7.18515134 11.4747131,7.02595769 11.3884986,6.86676404 C11.3022833,6.70756954 11.1736671,6.62927727 11.0026491,6.63188552 L6.60748412,6.63188647 C6.59374923,6.63119169 6.58001434,6.63119169 6.56627945,6.63188647 C6.55254456,6.63119259 6.53880967,6.63119259 6.52507478,6.63188647 C6.51133945,6.63119529 6.49760456,6.63119529 6.48387011,6.63188647 L6.48387011,6.63188647 Z" id="Fill-73-Copy" fill="#D2145A"></path>
                                </g>
                                <g id="Group-74" transform="translate(9.000000, 9.000000)">
                                    <circle id="Oval" fill="#D2145A" cx="7.5" cy="7.5" r="7.5"></circle>
                                    <g id="Group-57" transform="translate(2.000000, 2.000000)" fill="#FFFFFF">
                                        <path d="M9,4 L6,4 L6,5 L10.0015514,5 L10.0015514,4 L10,4 L10,0.467645893 L9,0.467645893 L9,4 Z" id="Combined-Shape"></path>
                                        <path d="M9.88050382,3.81178908 C9.20286441,2.05714126 7.49988874,0.8125 5.50621152,0.8125 C2.91737676,0.8125 0.818711522,2.91116524 0.818711522,5.5 C0.818711522,8.08883476 2.91737676,10.1875 5.50621152,10.1875 C7.57045843,10.1875 9.32305979,8.85318677 9.94857592,7 L8.50044442,7 C7.95030833,8.09601488 6.81610272,8.84821429 5.50621152,8.84821429 C3.65704383,8.84821429 2.15799724,7.34916769 2.15799724,5.5 C2.15799724,3.65083231 3.65704383,2.15178571 5.50621152,2.15178571 C6.993803,2.15178571 8.25480849,3.12191565 8.6910726,4.46402011 L9.88050382,3.81178908 Z" id="Combined-Shape"></path>
                                    </g>
                                </g>
                            </g>
                        </g>
                    </g>
                </g>
            </g>
        </g>
    </g>
</svg>