<svg id="SvgjsSvg1011" xmlns="http://www.w3.org/2000/svg" version="1.1" xmlns:xlink="http://www.w3.org/1999/xlink" xmlns:svgjs="http://svgjs.com/svgjs" width="16" height="16" viewBox="0 0 16 16"><title>Fill 155</title><desc>Created with Avocode.</desc><defs id="SvgjsDefs1012"></defs><path id="SvgjsPath1013" d="M474 9229C474 9233.42 477.58 9237 482 9237C486.42 9237 490 9233.42 490 9229C490 9224.58 486.42 9221 482 9221C477.58 9221 474 9224.58 474 9229ZM488.67 9229C488.67 9232.71 485.71000000000004 9235.67 482 9235.67C478.29 9235.67 475.33 9232.710000000001 475.33 9229C475.33 9225.29 478.28999999999996 9222.33 482 9222.33C485.71 9222.33 488.67 9225.289999999999 488.67 9229ZM480 9227C480 9226.45 479.55 9226 479 9226C478.45 9226 478 9226.45 478 9227C478 9227.55 478.45 9228 479 9228C479.55 9228 480 9227.55 480 9227ZM486 9227C486 9226.45 485.55 9226 485 9226C484.45 9226 484 9226.45 484 9227C484 9227.55 484.45 9228 485 9228C485.55 9228 486 9227.55 486 9227ZM479.21 9230.4C479.82 9231.289999999999 480.81 9231.84 482 9231.84C483.19 9231.84 484.18 9231.29 484.79 9230.4L485.88 9231.15C485.02 9232.39 483.61 9233.17 482 9233.17C480.39 9233.17 478.98 9232.39 478.13 9231.15Z " fill="#333333" fill-opacity="1" transform="matrix(1,0,0,1,-474,-9221)"></path></svg>