<?xml version="1.0" encoding="UTF-8" standalone="no"?>
<svg width="109px" height="109px" viewBox="0 0 109 109" version="1.1" xmlns="http://www.w3.org/2000/svg" xmlns:xlink="http://www.w3.org/1999/xlink">
    <!-- Generator: sketchtool 39.1 (31720) - http://www.bohemiancoding.com/sketch -->
    <title>F9E480B5-3998-4BCA-9D8A-215E275FE0F1</title>
    <desc>Created with sketchtool.</desc>
    <defs></defs>
    <g id="Выставка" stroke="none" stroke-width="1" fill="none" fill-rule="evenodd">
        <g id="test-drive-form-success-320" transform="translate(-106.000000, -104.000000)" fill="#D2145A">
            <g id="Group-70" transform="translate(106.000000, 104.000000)">
                <path d="M54.0501365,0 C24.224828,0 0,24.224828 0,54.0501365 C0,83.8754448 24.224828,108.100273 54.0501365,108.100273 C83.8754448,108.100273 108.100273,83.8754448 108.100273,54.0501365 C108.100273,24.224828 83.8754448,0 54.0501365,0 L54.0501365,0 Z M54.0501365,4.50417804 C81.4413975,4.50417804 103.596095,26.6588709 103.596095,54.0501365 C103.596095,81.4413975 81.4413975,103.596095 54.0501365,103.596095 C26.6588709,103.596095 4.50417804,81.4413975 4.50417804,54.0501365 C4.50417804,26.6588709 26.6588709,4.50417804 54.0501365,4.50417804 L54.0501365,4.50417804 Z M36.0334243,40.5376024 C32.3020423,40.5376024 29.2771573,43.5624851 29.2771573,47.2938694 C29.2771573,51.0252535 32.3020423,54.0501365 36.0334243,54.0501365 C39.7648084,54.0501365 42.7896914,51.0252535 42.7896914,47.2938694 C42.7896914,43.5624851 39.7648084,40.5376024 36.0334243,40.5376024 L36.0334243,40.5376024 Z M72.0668486,40.5376024 C68.3354644,40.5376024 65.3105816,43.5624851 65.3105816,47.2938694 C65.3105816,51.0252535 68.3354644,54.0501365 72.0668486,54.0501365 C75.7982284,54.0501365 78.8231157,51.0252535 78.8231157,47.2938694 C78.8231157,43.5624851 75.7982284,40.5376024 72.0668486,40.5376024 L72.0668486,40.5376024 Z M24.4210903,65.3105816 C23.5713377,65.431698 22.9830558,65.889102 22.6562419,66.6827893 C22.3294282,67.4764809 22.4250656,68.2154992 22.9431569,68.8998485 C22.9431569,68.8998485 34.7197085,85.5793828 54.0501365,85.5793828 C73.3805642,85.5793828 85.1571161,68.8998485 85.1571161,68.8998485 C85.6717963,68.1955509 85.7528357,67.4444621 85.4002338,66.6465865 C85.0476317,65.848707 84.4376939,65.4029823 83.5704115,65.3094044 C82.7031288,65.215831 82.0121517,65.5211951 81.4974714,66.2254927 C81.4974714,66.2254927 70.7531328,81.0752047 54.0501365,81.0752047 C37.3471399,81.0752047 26.6028015,66.2254927 26.6028015,66.2254927 C26.0637782,65.4717064 25.3365404,65.1667375 24.4210903,65.3105816 L24.4210903,65.3105816 Z" id="Fill-74"></path>
            </g>
        </g>
    </g>
</svg>