<?xml version="1.0" encoding="UTF-8" standalone="no"?>
<svg width="48px" height="48px" viewBox="0 0 48 48" version="1.1" xmlns="http://www.w3.org/2000/svg" xmlns:xlink="http://www.w3.org/1999/xlink">
    <!-- Generator: sketchtool 39.1 (31720) - http://www.bohemiancoding.com/sketch -->
    <title>CC5F367A-2646-4820-BCD2-0973678E8746</title>
    <desc>Created with sketchtool.</desc>
    <defs></defs>
    <g id="Frontend" stroke="none" stroke-width="1" fill="none" fill-rule="evenodd">
        <g id="test-drive_content" transform="translate(-56.000000, -2698.000000)" fill="#D2145A">
            <g id="Group-12" transform="translate(56.000000, 2698.000000)">
                <g id="Group-57">
                    <path d="M18.2270221,0 C12.0359542,0 7,5.13667462 7,11.4447076 C7,13.2232981 7.76170066,15.2691328 8.93014706,17.4768185 C10.0985934,19.6845041 11.7015625,22.0237262 13.4659926,24.1936555 C15.2304227,26.3635847 17.1529399,28.3561351 19.03125,29.8344943 C20.2937936,30.8282032 21.5181128,31.6064945 22.7306985,32.0190966 L21.9264706,34.4319409 L23.40625,34.4319409 C23.3248788,34.9298551 23.1755331,35.3126214 23.0202206,35.7035751 C22.7774089,36.3147864 22.4411765,37.0449666 22.4411765,38.0838134 C22.4411765,39.4134355 23.1141518,40.4293999 23.6314338,41.2792019 C24.1487157,42.1290038 24.5,42.8228605 24.5,43.3007742 C24.5,45.3581287 23.6957721,46.3005266 23.6957721,46.3005266 C23.447712,46.6142679 23.3958045,46.958406 23.540051,47.3329412 C23.6842976,47.7074765 23.9525045,47.924956 24.3446716,47.9853798 C24.7368388,48.0458036 25.0566902,47.9189339 25.3042279,47.6047668 C25.3042279,47.6047668 26.5588235,45.9720704 26.5588235,43.3007742 C26.5588235,42.0049203 25.8801816,41.0436959 25.3685662,40.2032038 C24.8569507,39.3627115 24.5,38.6469038 24.5,38.0838134 C24.5,37.48871 24.6789898,37.1366312 24.9503676,36.4535132 C25.1512557,35.9478335 25.3639363,35.2924974 25.4650735,34.4319409 L27.0735294,34.4319409 L26.2693015,32.0190966 C27.481889,31.6065144 28.7062083,30.8282589 29.96875,29.8344943 C31.847058,28.3560515 33.769583,26.3636443 35.5340074,24.1936555 C37.2984316,22.0236665 38.9014094,19.6844444 40.0698529,17.4768185 C41.2382963,15.2691925 42,13.2231001 42,11.4447076 C42,5.13761595 36.9641705,0 30.7729779,0 C28.4292464,0 26.2990025,0.831428735 24.5,2.0867843 C22.7009974,0.831428735 20.5707535,0 18.2270221,0 L18.2270221,0 Z M18.2270221,2.0867843 C20.3579924,2.0867843 22.2966667,2.82926595 23.8566176,4.07575058 C24.2855385,4.42376903 24.7144614,4.42376903 25.1433824,4.07575058 C26.7033332,2.82926595 28.6420075,2.0867843 30.7729779,2.0867843 C35.8435487,2.0867843 39.9411765,6.25779162 39.9411765,11.4447076 C39.9411765,12.5398178 39.3229851,14.4453127 38.2362132,16.4986384 C37.1494413,18.5519648 35.6123567,20.78228 33.9255515,22.8568093 C32.2387461,24.9313384 30.3917236,26.82583 28.6819853,28.171588 C26.9722469,29.5173459 25.38501,30.2583723 24.5,30.2583723 C23.6149565,30.2583723 22.027751,29.5172663 20.3180147,28.171588 C18.6082783,26.8259096 16.7612499,24.9312687 15.0744485,22.8568093 C13.3876471,20.7823497 11.8505566,18.5520047 10.7637868,16.4986384 C9.67701679,14.445273 9.05882353,12.5401412 9.05882353,11.4447076 C9.05882353,6.25664631 13.1563246,2.0867843 18.2270221,2.0867843 L18.2270221,2.0867843 Z" id="Fill-74"></path>
                </g>
            </g>
        </g>
    </g>
</svg>