<?xml version="1.0" encoding="UTF-8" standalone="no"?>
<svg width="48px" height="48px" viewBox="0 0 48 48" version="1.1" xmlns="http://www.w3.org/2000/svg" xmlns:xlink="http://www.w3.org/1999/xlink">
    <!-- Generator: sketchtool 39.1 (31720) - http://www.bohemiancoding.com/sketch -->
    <title>5EEE693F-E026-49C7-AC35-1F6E1FD487CE</title>
    <desc>Created with sketchtool.</desc>
    <defs></defs>
    <g id="Frontend" stroke="none" stroke-width="1" fill="none" fill-rule="evenodd">
        <g id="test-drive_content" transform="translate(-455.000000, -2698.000000)" fill="#D2145A">
            <g id="Group-12" transform="translate(56.000000, 2698.000000)">
                <g id="Group-55" transform="translate(399.000000, 0.000000)">
                    <path d="M33.6,6 C32.763164,6 31.4309912,6.26421619 30.12,6.50328769 C28.8090106,6.74235919 27.66,6.97697023 27.66,6.97697023 C27.2863513,7.05442401 27.0452947,7.27377802 26.9368285,7.63503179 C26.8283624,7.99628556 26.9094177,8.30982486 27.1799981,8.57564879 C27.18,8.57564879 27.6107281,9.01422398 28.05,9.55261902 C28.2696368,9.8218165 28.479917,10.1089336 28.62,10.3519583 C28.7600829,10.5949829 28.8,10.798401 28.8,10.7368254 C28.8,12.5398724 28.8938488,16.9282679 27.84,20.8025792 C27.3130737,22.7397349 26.491203,24.5291448 25.32,25.7762459 C24.1548651,27.0168833 22.6921068,27.7815057 20.52,27.7893967 C20.5101031,27.7889323 20.4998876,27.7898935 20.49,27.7893967 C15.9233642,27.5603433 11.9650662,24.038813 9.15,20.4177122 C6.32883636,16.7887692 4.71,13.1940535 4.71,13.1940535 C4.54243148,12.8221432 4.25243179,12.6346445 3.84,12.6315555 L3.3,12.6315555 C2.92667427,12.6282786 2.64667419,12.7861731 2.46,13.105238 C2.46,13.105238 0,17.5075399 0,24.680855 C0,31.5798037 5.5680867,36.3156823 11.52,36.3156823 C11.8935214,36.3208719 12.1744299,36.1642738 12.3627254,35.8458919 C12.5510211,35.52751 12.5510211,35.2091244 12.3627254,34.8907424 C12.1744299,34.5723569 11.8935214,34.4157589 11.52,34.4209522 C6.59127319,34.4209522 1.92,30.582704 1.92,24.680855 C1.92,19.4422724 3.02930603,16.6070364 3.63,15.2960198 C4.28524703,16.605074 5.47535293,18.7839877 7.62,21.5427082 C10.5986764,25.3742651 14.9291043,29.4256273 20.43,29.6841268 C20.4500005,29.684743 20.4699994,29.6847411 20.49,29.6841249 C23.1631439,29.6841268 25.2491748,28.6556601 26.73,27.0788729 C28.2108252,25.5020855 29.1228076,23.4278145 29.7,21.3058669 C30.8543847,17.0619699 30.72,12.4608181 30.72,10.7368254 C30.72,10.1864086 30.519917,9.78611832 30.3,9.40459323 C30.1056408,9.0674072 29.870722,8.77634371 29.64,8.48683331 C30.0062146,8.41614792 30.042063,8.41866953 30.48,8.33880752 C31.7665319,8.10419603 33.3069177,7.89473014 33.6,7.89473014 C35.2017444,7.89473014 36.48,9.15616214 36.48,10.7368254 C36.48,12.3174885 35.2017444,13.5789206 33.6,13.5789206 L32.64,13.5789206 C31.9999987,13.5790461 31.68,13.8948667 31.68,14.5263805 C31.7004492,17.3541023 30.9872241,23.8511949 27.18,29.5064958 C23.3727777,35.1617967 16.5575592,40.1051426 3.84,40.1051426 C3.46644081,40.0999023 3.18549636,40.2564859 2.99716667,40.5748932 C2.80883697,40.8933004 2.80883697,41.2117076 2.9971669,41.5301184 C3.1854966,41.8485294 3.46644081,42.0051129 3.84,41.9998727 C17.0712396,41.9998727 24.6836224,36.6572005 28.8,30.5426764 C32.5868628,24.9176185 33.4359265,18.876381 33.54,15.4736507 L33.6,15.4736507 C35.3370996,15.4736507 36.8671252,14.5382982 37.71,13.1644484 C38.1913806,13.0605709 39.6416748,12.7416397 41.55,12.1874781 C42.7100316,11.8506146 43.9319128,11.4745429 45.03,11.0328769 C44.7157727,16.6658166 43.2543054,20.5507618 41.79,23.0821765 C40.9841382,24.4753119 40.216333,25.4448267 39.63,26.0722975 C38.9805541,24.8710587 37.7565454,23.9999364 36.3,23.9999364 C34.203999,23.9999364 32.46,25.7209837 32.46,27.7893967 C32.46,29.4123064 33.5350854,30.7807174 35.01,31.3124105 L34.83,31.4900415 C34.5709277,31.750355 34.4909289,32.0562762 34.59,32.4078014 C34.59,32.4078014 34.9056921,33.4269567 35.82,34.391347 C36.7343078,35.3557372 38.3207263,36.3156823 40.68,36.3156823 C42.1313672,36.3156823 43.4704577,35.6489085 44.43,34.4505573 C45.3895422,33.2522061 46.0741809,31.574831 46.59,29.3584701 C47.6216344,24.9257516 48,18.2621588 48,8.90130553 C47.9977807,8.8311306 47.9877795,8.7620516 47.97,8.69406942 C47.8862475,8.17127654 47.5762463,7.90483012 47.04,7.89473014 L46.26,7.89473014 C46.1399963,7.87212739 46.0199963,7.87212783 45.8999963,7.89473104 L37.41,7.89473014 C36.5310754,6.75740345 35.1523498,6 33.6,6 L33.6,6 Z M38.31,9.78946029 L42.42,9.78946029 C41.845144,9.98949206 41.579414,10.2162116 41.01,10.3815635 C40.0112073,10.6716042 39.1026965,10.915142 38.37,11.0920873 C38.3793457,10.9720837 38.4,10.859084 38.4,10.7368254 C38.4,10.4112255 38.3742297,10.0970447 38.31,9.78946029 L38.31,9.78946029 Z M45.81,18.2861408 C45.6000073,22.6672452 45.2835754,26.4364929 44.7,28.9439978 C44.2198168,31.007241 43.6062964,32.4217366 42.93,33.266351 C42.2537035,34.1109653 41.5988745,34.4209522 40.68,34.4209522 C38.8152722,34.4209522 37.842572,33.7644563 37.23,33.1183252 C36.8343383,32.7009907 36.8183459,32.5426111 36.72,32.3189859 L37.74,31.3124105 C38.0541797,31.0125788 38.1269604,30.6637063 37.9583422,30.2657893 C37.7897204,29.8678724 37.4869408,29.6739843 37.05,29.6841249 L36.3,29.6841268 C35.3240002,29.6841268 34.38,28.7525509 34.38,27.7893967 C34.38,26.8262423 35.3240002,25.8946665 36.3,25.8946665 C37.2759997,25.8946665 38.22,26.8262423 38.22,27.7893967 C38.2255115,28.1666347 38.3978613,28.4422821 38.7370532,28.6163407 C39.076245,28.7903994 39.403894,28.7713305 39.72,28.5591308 C39.72,28.5591308 41.6619946,27.1551264 43.47,24.0295415 C44.3299914,22.5428327 45.1525854,20.6305679 45.81,18.2861408 L45.81,18.2861408 Z" id="Fill-72"></path>
                </g>
            </g>
        </g>
    </g>
</svg>