<?xml version="1.0" encoding="UTF-8" standalone="no"?>
<svg width="165px" height="32px" viewBox="0 0 165 32" version="1.1" xmlns="http://www.w3.org/2000/svg" xmlns:xlink="http://www.w3.org/1999/xlink">
    <!-- Generator: sketchtool 39.1 (31720) - http://www.bohemiancoding.com/sketch -->
    <title>04A49988-02CD-42ED-89A9-EC7604445F49</title>
    <desc>Created with sketchtool.</desc>
    <defs></defs>
    <g id="Frontend" stroke="none" stroke-width="1" fill="none" fill-rule="evenodd">
        <g id="test-drive_main-screen" transform="translate(-558.000000, -36.000000)" fill="#D2145A">
            <g id="babadu_logo-полный" transform="translate(558.000000, 36.000000)">
                <path d="M61.9819355,28.2448485 L57.2366129,28.2448485 L57.2366129,21.145697 L61.9819355,21.145697 C65.3259677,21.145697 66.9595161,22.742303 66.9595161,24.8252121 C66.9595161,25.9287273 66.0653226,28.2448485 61.9819355,28.2448485 L61.9819355,28.2448485 Z M60.1446774,12.5527273 C63.6416129,12.5527273 64.6064516,14.2099394 64.6064516,15.1418182 C64.6064516,16.1372121 64.4177419,17.8404848 60.8424194,17.8404848 L57.2366129,17.8404848 L57.2366129,12.5566061 L60.1446774,12.5527273 L60.1446774,12.5527273 Z M66.3991935,18.9619394 C67.7864516,17.5878788 67.9577419,16.2923636 67.9577419,15.1418182 C67.9577419,13.657697 67.376129,12.3927273 66.371129,11.3852121 C64.2029032,9.21260606 59.9583871,9.34157576 59.2001613,9.34157576 L53.6845161,9.34157576 C52.965,9.34157576 52.3819355,9.92581818 52.3819355,10.646303 C52.3819355,11.3682424 52.965,11.9524848 53.6845161,11.9524848 L53.8858065,11.9524848 L53.8858065,28.944 L53.6845161,28.944 C52.965,28.944 52.3819355,29.5292121 52.3819355,30.249697 C52.3819355,30.9711515 52.965,31.5553939 53.6845161,31.5553939 L61.7080645,31.5553939 C64.5193548,31.5553939 66.4698387,31.3692121 68.658871,29.193697 C69.7896774,28.0707879 70.3630645,26.6012121 70.3630645,24.8252121 C70.3630645,22.2012121 68.8408065,20.0130909 66.3991935,18.9619394 Z M120.329032,11.6547879 C117.742258,9.744 114.129677,9.34351515 111.90871,9.34351515 L106.124516,9.34351515 C105.404516,9.34351515 104.821452,9.92775758 104.821452,10.6492121 C104.821452,11.3701818 105.404516,11.9544242 106.124516,11.9544242 L106.406129,11.9544242 L106.406129,28.944 L106.124516,28.944 C105.404516,28.944 104.821452,29.5292121 104.821452,30.249697 C104.821452,30.9711515 105.404516,31.5553939 106.124516,31.5553939 L112.980968,31.5553939 C114.972581,31.5553939 118.555645,31.4749091 121.783065,28.3015758 C123.502258,26.6104242 124.529032,23.9762424 124.529032,21.2533333 C124.529032,16.9430303 123.115645,13.7139394 120.329032,11.6547879 Z M119.435806,25.9049697 C117.128226,28.1740606 114.327581,28.1978182 112.861935,28.1978182 C112.861452,28.1978182 111.32129,28.1949091 109.756935,28.1910303 L109.756935,12.5546667 L112.225161,12.5546667 C115.17871,12.6700606 116.708226,13.1369697 118.340806,14.3578182 C120.215323,15.76 121.230968,18.0688485 121.230968,21.2533333 C121.230968,23.2819394 120.278226,25.0773333 119.435806,25.9049697 Z M97.2203226,28.9381818 L96.8714516,28.9381818 L88.451129,9.76775758 C88.451129,9.76775758 88.3587097,9.57527273 88.2435484,9.44290909 C88.2358065,9.43321212 88.2290323,9.4230303 88.2208065,9.41333333 C88.1787097,9.36339394 88.1337097,9.31587879 88.0848387,9.27224242 C88.0829032,9.27030303 88.0809677,9.26933333 88.0795161,9.26787879 C88.0335484,9.22812121 87.9856452,9.19078788 87.9348387,9.15587879 C87.9193548,9.14569697 87.9024194,9.136 87.8864516,9.12581818 C87.8487097,9.10206061 87.81,9.07927273 87.7703226,9.05939394 C87.7495161,9.04872727 87.7287097,9.03951515 87.7074194,9.02981818 C87.6691935,9.01284848 87.63,8.99781818 87.5898387,8.98375758 C87.5670968,8.976 87.5448387,8.96824242 87.5220968,8.96193939 C87.4790323,8.94933333 87.4345161,8.94012121 87.3904839,8.93236364 C87.3696774,8.92751515 87.3493548,8.92315152 87.3285484,8.92024242 C87.2627419,8.91054545 87.1954839,8.90521212 87.1272581,8.90521212 C87.0590323,8.90521212 86.9917742,8.91054545 86.9254839,8.92024242 C86.9051613,8.92315152 86.8843548,8.92751515 86.8640323,8.93236364 C86.8195161,8.94012121 86.7754839,8.94933333 86.7324194,8.96193939 C86.7091935,8.96824242 86.6869355,8.976 86.6641935,8.98472727 C86.6245161,8.99781818 86.5853226,9.01284848 86.5470968,9.02981818 C86.5258065,9.03951515 86.5045161,9.04872727 86.4837097,9.05939394 C86.4440323,9.07927273 86.4062903,9.10109091 86.3690323,9.12484848 C86.3520968,9.1350303 86.3351613,9.14472727 86.3191935,9.15587879 C86.2693548,9.18981818 86.2214516,9.22715152 86.1774194,9.26593939 C86.1745161,9.26884848 86.1716129,9.27030303 86.1691935,9.27224242 C86.1203226,9.31587879 86.0758065,9.36339394 86.0337097,9.41333333 C86.025,9.4230303 86.0177419,9.43418182 86.0095161,9.44387879 C85.8890323,9.58981818 85.8029032,9.76775758 85.8029032,9.76775758 L77.3317742,28.9381818 L77.051129,28.9381818 C76.3316129,28.9381818 75.7480645,29.5224242 75.7480645,30.2438788 C75.7480645,30.9658182 76.3316129,31.5500606 77.051129,31.5500606 L81.2729032,31.5500606 C81.9924194,31.5500606 82.5759677,30.9658182 82.5759677,30.2438788 C82.5759677,29.5224242 81.9924194,28.9381818 81.2729032,28.9381818 L80.9719355,28.9381818 L82.1206452,26.2666667 L92.0932258,26.2666667 L93.2351613,28.9381818 L92.9985484,28.9381818 C92.2790323,28.9381818 91.6954839,29.5224242 91.6954839,30.2438788 C91.6954839,30.9658182 92.2790323,31.5500606 92.9985484,31.5500606 L97.2203226,31.5500606 C97.9398387,31.5500606 98.5233871,30.9658182 98.5233871,30.2438788 C98.5233871,29.5224242 97.9398387,28.9381818 97.2203226,28.9381818 Z M83.4033871,23.2819394 L87.1219355,14.5270303 L90.8177419,23.2819394 L83.4033871,23.2819394 Z M14.0177419,18.9619394 C15.405,17.5878788 15.5758065,16.2923636 15.5758065,15.1418182 C15.5758065,13.657697 14.9946774,12.3927273 13.9896774,11.3852121 C11.8214516,9.21260606 7.57693548,9.34157576 6.81870968,9.34157576 L1.30306452,9.34157576 C0.583548387,9.34157576 0,9.92581818 0,10.646303 C0,11.3682424 0.583548387,11.9524848 1.30306452,11.9524848 L1.50435484,11.9524848 L1.50435484,28.944 L1.30306452,28.944 C0.583548387,28.944 0,29.5292121 0,30.249697 C0,30.9711515 0.583548387,31.5553939 1.30306452,31.5553939 L9.3266129,31.5553939 C12.1379032,31.5553939 14.0883871,31.3692121 16.2779032,29.193697 C17.4082258,28.0707879 17.9816129,26.6012121 17.9816129,24.8252121 C17.9816129,22.2012121 16.4598387,20.0130909 14.0177419,18.9619394 Z M7.76274194,12.5527273 C11.2601613,12.5527273 12.2254839,14.2099394 12.2254839,15.1418182 C12.2254839,16.1372121 12.0362903,17.8404848 8.46096774,17.8404848 L4.85516129,17.8404848 L4.85516129,12.5566061 L7.76274194,12.5527273 Z M9.60048387,28.2448485 L4.85516129,28.2448485 L4.85516129,21.145697 L9.60048387,21.145697 C12.9445161,21.145697 14.5780645,22.742303 14.5780645,24.8252121 C14.5780645,25.9287273 13.6833871,28.2448485 9.60048387,28.2448485 Z M163.353387,9.35854545 L159.131613,9.35854545 C158.412097,9.35854545 157.828548,9.94278788 157.828548,10.6642424 C157.828548,11.3852121 158.412097,11.9704242 159.131613,11.9704242 L159.588387,11.9704242 C159.583065,12.0261818 159.579677,12.0838788 159.579677,12.1415758 C159.579677,20.0829091 156.381774,28.569697 147.407419,28.569697 C138.432581,28.569697 135.234194,20.0829091 135.234194,12.1415758 C135.234194,12.1018182 135.23129,12.0620606 135.228871,12.0232727 L135.671129,12.0232727 C136.390645,12.0232727 136.974194,11.4380606 136.974194,10.7175758 C136.974194,9.99612121 136.390645,9.41139394 135.671129,9.41139394 L131.449355,9.41139394 C130.729355,9.41139394 130.14629,9.99612121 130.14629,10.7175758 C130.14629,11.4380606 130.729355,12.0232727 131.449355,12.0232727 L131.889677,12.0232727 C131.886774,12.0620606 131.883871,12.1018182 131.883871,12.1415758 C131.883871,24.1604848 137.976774,31.9267879 147.407419,31.9267879 C156.837097,31.9267879 162.930968,24.1604848 162.930968,12.1415758 C162.930968,12.0838788 162.927581,12.0261818 162.921774,11.9704242 L163.353387,11.9704242 C164.072903,11.9704242 164.656452,11.3852121 164.656452,10.6642424 C164.656452,9.94278788 164.072903,9.35854545 163.353387,9.35854545 Z M140.952581,6.4009697 C143.57129,6.4009697 145.701774,4.26569697 145.701774,1.64169697 C145.701774,0.816969697 145.034032,0.148363636 144.210484,0.148363636 C143.387419,0.148363636 142.935484,0.699636364 142.719677,1.64169697 C142.496129,2.62012121 141.926613,3.46666667 140.952581,3.46666667 C139.977581,3.46666667 139.408065,2.62012121 139.184516,1.64169697 C138.969194,0.699636364 138.517258,0.148363636 137.69371,0.148363636 C136.870645,0.148363636 136.202903,0.816969697 136.202903,1.64169697 C136.202903,4.26569697 138.333871,6.4009697 140.952581,6.4009697 Z M153.850161,6.4009697 C156.468871,6.4009697 158.599355,4.26569697 158.599355,1.64169697 C158.599355,0.816969697 157.932097,0.148363636 157.108065,0.148363636 C156.285,0.148363636 155.833548,0.699636364 155.617258,1.64169697 C155.39371,2.62012121 154.824677,3.46666667 153.850161,3.46666667 C152.875161,3.46666667 152.306129,2.62012121 152.082581,1.64169697 C151.867258,0.699636364 151.414839,0.148363636 150.591774,0.148363636 C149.768226,0.148363636 149.101452,0.816969697 149.101452,1.64169697 C149.101452,4.26569697 151.231452,6.4009697 153.850161,6.4009697 Z M44.8383871,28.9381818 L44.49,28.9381818 L36.0696774,9.76775758 C36.0696774,9.76775758 35.9767742,9.57527273 35.8620968,9.44290909 C35.8543548,9.43321212 35.8475806,9.4230303 35.8393548,9.41333333 C35.7967742,9.36339394 35.7517742,9.31587879 35.7033871,9.27224242 C35.7014516,9.27030303 35.6995161,9.26933333 35.6975806,9.26787879 C35.6525806,9.22812121 35.6037097,9.19078788 35.553871,9.15587879 C35.5374194,9.14569697 35.5209677,9.136 35.5045161,9.12581818 C35.4672581,9.10206061 35.4285484,9.07927273 35.3883871,9.05939394 C35.3680645,9.04872727 35.3472581,9.03951515 35.3259677,9.02981818 C35.2877419,9.01284848 35.2480645,8.99781818 35.2079032,8.98375758 C35.1856452,8.976 35.1633871,8.96824242 35.1406452,8.96193939 C35.0975806,8.94933333 35.0530645,8.94012121 35.0090323,8.93236364 C34.9882258,8.92751515 34.9679032,8.92315152 34.9470968,8.92024242 C34.8812903,8.91054545 34.8140323,8.90521212 34.7458065,8.90521212 C34.6770968,8.90521212 34.6098387,8.91054545 34.5445161,8.92024242 C34.5232258,8.92315152 34.5029032,8.92751515 34.4820968,8.93236364 C34.4375806,8.94012121 34.3935484,8.94933333 34.3504839,8.96193939 C34.3277419,8.96824242 34.3054839,8.976 34.2827419,8.98472727 C34.2430645,8.99781818 34.203871,9.01284848 34.1656452,9.02981818 C34.143871,9.03951515 34.1230645,9.04872727 34.1017742,9.05939394 C34.0625806,9.07927273 34.0243548,9.10109091 33.9870968,9.12484848 C33.9706452,9.1350303 33.9532258,9.14472727 33.9372581,9.15587879 C33.8874194,9.18981818 33.8404839,9.22715152 33.7954839,9.26593939 C33.7930645,9.26884848 33.7901613,9.27030303 33.7872581,9.27224242 C33.738871,9.31587879 33.693871,9.36339394 33.6517742,9.41333333 C33.6430645,9.4230303 33.6362903,9.43418182 33.6280645,9.44387879 C33.5075806,9.58981818 33.4209677,9.76775758 33.4209677,9.76775758 L24.9503226,28.9381818 L24.6696774,28.9381818 C23.9501613,28.9381818 23.3666129,29.5224242 23.3666129,30.2438788 C23.3666129,30.9658182 23.9501613,31.5500606 24.6696774,31.5500606 L28.8914516,31.5500606 C29.6109677,31.5500606 30.1945161,30.9658182 30.1945161,30.2438788 C30.1945161,29.5224242 29.6109677,28.9381818 28.8914516,28.9381818 L28.5904839,28.9381818 L29.7391935,26.2666667 L39.7117742,26.2666667 L40.8537097,28.9381818 L40.6170968,28.9381818 C39.8975806,28.9381818 39.3140323,29.5224242 39.3140323,30.2438788 C39.3140323,30.9658182 39.8975806,31.5500606 40.6170968,31.5500606 L44.8383871,31.5500606 C45.5583871,31.5500606 46.1414516,30.9658182 46.1414516,30.2438788 C46.1414516,29.5224242 45.5583871,28.9381818 44.8383871,28.9381818 Z M31.0219355,23.2819394 L34.74,14.5270303 L38.4367742,23.2819394 L31.0219355,23.2819394 Z" id="Combined-Shape"></path>
            </g>
        </g>
    </g>
</svg>