<?xml version="1.0" encoding="UTF-8" standalone="no"?>
<svg width="44px" height="24px" viewBox="0 0 44 24" version="1.1" xmlns="http://www.w3.org/2000/svg" xmlns:xlink="http://www.w3.org/1999/xlink">
    <!-- Generator: sketchtool 39.1 (31720) - http://www.bohemiancoding.com/sketch -->
    <title>5AFFF02D-0EEF-433E-BDEE-C39677315DBC</title>
    <desc>Created with sketchtool.</desc>
    <defs></defs>
    <g id="Checkout2" stroke="none" stroke-width="1" fill="none" fill-rule="evenodd">
        <g id="checkout-C-default" transform="translate(-287.000000, -214.000000)" fill="#333333">
            <g id="Group-19" transform="translate(287.000000, 210.000000)">
                <g id="Group-8" transform="translate(0.000000, 4.000000)">
                    <g id="Group-6" transform="translate(22.000000, 0.000000)">
                        <path d="M10.2751543,0 C7.55314201,0 5.25355897,0.84333241 3.63974368,2.44565217 C2.02592811,4.04797181 1.12730667,6.39059577 1.12730667,9.27717391 C1.12730667,10.865376 1.52379365,12.4406632 1.5782569,14.0543478 C1.63272014,15.6680324 1.38729272,17.3017352 0.0965632764,19.076087 C0.0127777023,19.1950577 -0.0164839275,19.3264717 0.00877863437,19.4703269 C0.0340414488,19.6141841 0.106250919,19.7273354 0.225407179,19.8097826 C0.2254062,19.8097826 0.802448937,20.2028602 1.94868031,20.625 C3.05978538,21.0342029 4.76023189,21.4907485 7.07018653,21.75 C7.07581021,21.7506309 7.0806613,21.749371 7.08629189,21.75 C8.24908665,23.1572511 9.5747802,24 10.9193689,24 C12.2673272,24 13.602658,23.1474191 14.7685512,21.7336957 C17.0903936,21.4718648 18.8260574,21.0311379 19.9705843,20.625 C21.1482773,20.2070916 21.7582798,19.826087 21.7582798,19.826087 C21.8881942,19.7432854 21.9660335,19.6252819 21.9917938,19.4720724 C22.0175542,19.3188629 21.9826658,19.1814323 21.8871247,19.0597826 C20.5725262,17.3494461 20.3018059,15.8804805 20.3249023,14.3804348 C20.3479987,12.880389 20.7114311,11.3508234 20.7114311,9.68478261 C20.7114311,8.00469835 20.3779033,6.17904277 19.4552126,4.71195652 C18.5638694,3.29471372 17.0505608,2.27037471 14.9618156,2.20108696 C14.3391512,1.56100746 12.7226488,0 10.2751543,0 L10.2751543,0 Z M10.2751543,1.04347826 C12.3736802,1.04347826 13.8752814,2.5192327 14.3820225,3.04891304 C14.4826328,3.15649746 14.6061076,3.21084495 14.7524459,3.21195602 C16.6452588,3.21195652 17.8138002,4.03925986 18.5855228,5.26630435 C19.3572455,6.4933488 19.6806877,8.1514753 19.6806877,9.68478261 C19.6806877,11.1862206 19.3196361,12.7093496 19.2941589,14.3641304 C19.2711627,15.8577217 19.602235,17.4693703 20.7275364,19.1576087 C20.5140283,19.2732756 20.3974629,19.3589391 19.6323716,19.6304348 C18.7093072,19.9579866 17.3617313,20.3308351 15.5738195,20.5923913 C16.3693247,19.2755306 17.6192009,16.7560491 17.6192009,13.7119565 C17.6192009,9.71814063 15.3571245,7.40878957 14.7363405,6.84782609 C14.7277983,6.84010628 14.7120389,6.8222699 14.7041298,6.81521739 C14.6236402,6.69015882 14.5109027,6.61407151 14.3659161,6.58695652 C14.3605479,6.58687143 14.3551798,6.58687143 14.3498117,6.58695652 C14.2961275,6.57835998 14.2424423,6.5783605 14.188757,6.58695699 C14.1780198,6.58661713 14.1672836,6.58661666 14.1565473,6.58695652 C14.1170379,6.59870212 14.079459,6.61500647 14.0438098,6.63586957 C14.0154937,6.64968803 13.988651,6.66599238 13.9632819,6.68478261 C13.9405463,6.69938374 13.9190728,6.71568809 13.8988615,6.73369565 C13.8931178,6.74437497 13.8877497,6.75524483 13.8827571,6.76630435 C13.8718331,6.77135911 13.8610958,6.7767936 13.8505454,6.7826087 C13.8504618,6.7880436 13.8504618,6.79347809 13.8505454,6.79891304 C13.8450573,6.80422805 13.8396892,6.80966301 13.834439,6.81521786 C13.8286944,6.82589718 13.8233263,6.8367661 13.8183336,6.84782557 C13.8128475,6.8531401 13.8074794,6.85857506 13.8022293,6.86412991 C13.801894,6.8749993 13.801894,6.88586922 13.8022293,6.89673913 C13.7967412,6.90205362 13.7913731,6.9074881 13.7861229,6.91304296 C13.7857867,6.92391235 13.7857867,6.93478226 13.7861229,6.94565217 C13.7806358,6.95096666 13.7752677,6.95640162 13.7700186,6.96195652 C13.7700186,6.96195652 13.1593613,9.29638899 10.2590489,10.2065217 C9.33036183,10.4978704 7.85919802,10.7037128 6.58702556,11.3315217 C5.31485305,11.9593306 4.21953684,13.1432727 4.21953684,15.1304348 C4.21953684,17.542915 5.25204615,19.4388427 6.0555485,20.5597826 C4.40564699,20.3055008 3.15268957,19.9596664 2.30299835,19.6467391 C1.55516982,19.3713246 1.43611063,19.2712893 1.24004423,19.1576087 C2.36557473,17.3708794 2.66292485,15.6194617 2.60900029,14.0217391 C2.5496953,12.2645983 2.15805006,10.6780153 2.15805006,9.27717391 C2.15805006,6.6056651 2.9555168,4.56228866 4.34837976,3.17934783 C5.74124268,1.7964067 7.7599599,1.04347826 10.2751543,1.04347826 L10.2751543,1.04347826 Z M14.4464439,7.98913043 C15.2048096,8.80099617 16.5884575,10.6826935 16.5884575,13.7119565 C16.5884575,17.6547506 14.2586794,20.7516891 14.1565473,20.8858696 C14.1449018,20.9015609 14.1341645,20.9178652 14.1243366,20.9347826 C14.1126911,20.9504739 14.1019548,20.9667783 14.0921259,20.9836957 C13.0228648,22.3346498 11.8880273,22.9565217 10.9193689,22.9565217 C9.97462855,22.9565217 8.85876477,22.3537843 7.81103334,21.0652174 C7.79660005,21.0422078 7.78049468,21.02047 7.76271724,21 C7.75519142,20.9905621 7.75413079,20.9768989 7.74661188,20.9673913 C7.73634645,20.9560427 7.72560919,20.9451718 7.71440012,20.9347806 C7.70915095,20.9292257 7.70378284,20.9237923 7.69829578,20.9184783 C7.69829578,20.9184783 7.65581472,20.858947 7.64997968,20.8532609 C7.63448081,20.8414705 7.61837544,20.8306015 7.60166359,20.8206522 C7.34245703,20.5629869 5.25028023,18.3878432 5.25028023,15.1304348 C5.25028023,13.5003801 5.97577216,12.7850607 7.0379758,12.2608696 C8.10017985,11.7366784 9.47695956,11.537391 10.5489455,11.201087 C12.8475224,10.4797817 13.9630145,8.91560129 14.4464439,7.98913043 L14.4464439,7.98913043 Z M8.08482455,13.5652174 C7.65787703,13.5652174 7.31176701,13.9156036 7.31176701,14.3478261 C7.31176701,14.7800485 7.65787703,15.1304348 8.08482455,15.1304348 C8.51177202,15.1304348 8.85788209,14.7800485 8.85788209,14.3478261 C8.85788209,13.9156036 8.51177202,13.5652174 8.08482455,13.5652174 L8.08482455,13.5652174 Z M13.7539132,13.5652174 C13.3269657,13.5652174 12.9808557,13.9156036 12.9808557,14.3478261 C12.9808557,14.7800485 13.3269657,15.1304348 13.7539132,15.1304348 C14.1808607,15.1304348 14.5269707,14.7800485 14.5269707,14.3478261 C14.5269707,13.9156036 14.1808607,13.5652174 13.7539132,13.5652174 L13.7539132,13.5652174 Z" id="Fill-76"></path>
                    </g>
                    <g id="Group-7">
                        <path d="M8.35943291,0 C5.68200157,0 3.56543547,0.781592906 2.1403624,2.2173913 C0.715289273,3.65318945 0.0175863263,5.70129026 0.0175863263,8.13586957 C0.0175863263,9.14554096 0.474405094,11.0946658 0.846795728,12.2445652 C0.691606416,12.3746019 0.533497904,12.4587628 0.382438463,12.6847826 C0.127030929,13.0669306 -0.0595487755,13.6047662 0.0175863263,14.25 C0.241075062,16.1143321 1.43094804,16.7809315 1.82526282,16.9728261 C1.97725094,17.8446688 2.43451967,18.9208155 3.18516624,20.0217391 C3.98931813,21.2011353 5.10054682,22.3346438 6.45225129,22.9728261 C6.47719942,22.9846065 6.49346477,23.0103129 6.51858804,23.0217391 C7.00552586,23.59346 7.69414921,24 8.5086906,24 C9.32381496,24 10.0117531,23.5940233 10.4987932,23.0217391 C10.5238314,23.010293 10.5402667,22.9846284 10.5651299,22.9728261 C11.9123705,22.3334357 13.001807,21.2009105 13.7990466,20.0217391 C14.5421182,18.9226864 14.9904703,17.8417909 15.1423658,16.9728261 C15.5317359,16.7905923 16.7576864,16.1433165 16.9832107,14.2663043 C17.0606413,13.618923 16.8594265,13.0704116 16.6017744,12.6847826 C16.4493869,12.4567048 16.2937927,12.3765544 16.1374171,12.2445652 C16.5098123,11.0808891 16.9997949,9.27929452 16.9997949,7.30434783 C16.9997949,6.39646857 16.8115526,5.15642661 16.1871697,4.07608696 C15.6010951,3.06203245 14.5387941,2.2216286 13.0361739,2.11956522 C12.3542767,1.10228298 10.8810645,0 8.35943291,0 L8.35943291,0 Z M8.35943291,1.04347826 C10.7452268,1.04347826 11.8883444,2.12924368 12.2898855,2.85326087 C12.3886901,3.0363014 12.5434766,3.12869279 12.7542427,3.13043478 C14.0507651,3.13043478 14.765861,3.74551341 15.2584551,4.59782609 C15.7510492,5.45013871 15.9384068,6.55153158 15.9384068,7.30434783 C15.9384068,9.23855056 15.4033036,11.142742 15.0428607,12.2282609 C14.9594437,12.4891672 15.0368359,12.6902539 15.2750393,12.8315207 C15.3664973,12.8873042 15.5746155,13.0499327 15.7228124,13.2717391 C15.8710092,13.4935455 15.968575,13.7612945 15.9218227,14.1521739 C15.7196907,15.8344952 14.5287509,16.1576087 14.5287509,16.1576087 C14.3103323,16.2268046 14.1887142,16.3735418 14.1638987,16.5978241 C14.1023639,17.1742779 13.6572266,18.344501 12.9200846,19.4347826 C12.1829436,20.5250642 11.1682977,21.5652465 10.0510201,22.076087 C9.962371,22.1163681 9.89050649,22.1761521 9.83542565,22.2554348 C9.54911251,22.6756976 9.06467691,22.9565217 8.5086906,22.9565217 C7.95311017,22.9565217 7.46827167,22.6753095 7.18195556,22.2554348 C7.12687366,22.1761521 7.05500915,22.1163681 6.96636005,22.076087 C5.8439464,21.5655511 4.82447937,20.5256175 4.0807124,19.4347826 C3.33694537,18.3439477 2.88136249,17.1718538 2.82031411,16.5978261 C2.79222299,16.3866458 2.67613367,16.2453421 2.47204616,16.173913 C2.47204616,16.173913 1.28093825,15.8206448 1.07897436,14.1358696 C1.03192844,13.7423212 1.13377887,13.4711997 1.27798462,13.2554348 C1.42219032,13.0396698 1.61338117,12.8900498 1.70917351,12.8315217 C1.95819541,12.6871649 2.03558864,12.4806429 1.94135262,12.2119565 C1.62022579,11.3014994 1.07897436,8.80392783 1.07897436,8.13586957 C1.07897436,5.8961881 1.70893512,4.13807114 2.90323505,2.93478261 C4.09753444,1.73149407 5.88754063,1.04347826 8.35943291,1.04347826 L8.35943291,1.04347826 Z M12.3893906,5.02173913 C12.3725331,5.02636701 12.3559489,5.03180197 12.339638,5.03804348 C12.3283882,5.04309824 12.3173328,5.0485332 12.3064697,5.05434783 C12.2657866,5.06609343 12.2270915,5.08239777 12.1903814,5.10326134 C12.1791315,5.10831616 12.1680751,5.11375059 12.157212,5.11956522 C12.1571249,5.12499965 12.1571249,5.13043461 12.1572109,5.13586957 C12.1400032,5.14581892 12.123419,5.15668831 12.1074583,5.16847774 C12.095914,5.1788665 12.0848576,5.18973637 12.074291,5.20108696 C12.0683766,5.21176628 12.0628479,5.22263614 12.0577058,5.23369565 C12.0318335,5.26383986 12.0097216,5.29644908 11.9913711,5.33152221 C11.9910775,5.33211381 11.9918488,5.3468747 11.9913701,5.34782609 C11.9854557,5.35850541 11.979927,5.36937527 11.9747859,5.38043478 C11.9314872,5.46251478 11.7225259,5.82454863 11.1621607,6.27717391 C10.5356217,6.78325002 9.54107149,7.30434783 7.97799659,7.30434783 C6.98301207,7.30434783 5.73576151,7.31345729 4.66115898,7.69565217 C4.12385819,7.88674857 3.62249473,8.18279332 3.25150299,8.64130435 C2.88051121,9.09981532 2.67105641,9.70928092 2.67105641,10.4347826 C2.66813409,10.6377938 2.75585245,10.7904709 2.93421192,10.8928149 C3.11257091,10.995159 3.2909299,10.995159 3.46928936,10.8928149 C3.64764782,10.7904709 3.73536671,10.6377938 3.73244445,10.4347826 C3.73244445,9.89923988 3.86462398,9.56054353 4.0807124,9.29347826 C4.29680076,9.02641294 4.61602313,8.81972963 5.02601112,8.67391304 C5.84598602,8.38228075 6.99879968,8.34782609 7.97799659,8.34782609 C9.78482886,8.34782609 11.0556783,7.72761997 11.8421124,7.0923913 C12.1057822,6.87941624 12.3048036,6.66936193 12.4723115,6.47282609 C12.9862898,7.2850033 13.8156308,8.82082628 13.8156308,10.4347826 C13.8127216,10.6377829 13.9004445,10.79045 14.0787974,10.8927851 C14.2571483,10.9951192 14.4355012,10.9951192 14.6138521,10.8927851 C14.792203,10.79045 14.8799259,10.6377829 14.8770188,10.4347826 C14.8770188,7.84224198 13.2809142,5.71857235 13.0030056,5.36413043 C13.0030906,5.35869548 13.0030906,5.35326099 13.0030035,5.34782609 C12.9902637,5.33164414 12.9588546,5.27321755 12.953253,5.26630435 C12.9426854,5.25495428 12.93163,5.24408489 12.9200846,5.23369612 C12.919625,5.23313635 12.9035004,5.2173913 12.9035004,5.2173913 C12.8983583,5.20633132 12.8928296,5.19546141 12.8869162,5.18478209 C12.8813875,5.18469751 12.8758608,5.18469751 12.8703321,5.18478261 C12.827584,5.13788468 12.7778315,5.09984155 12.7210723,5.07065264 C12.7156671,5.06509779 12.7101404,5.05966283 12.7044902,5.0543483 C12.693627,5.0485332 12.6825716,5.04309824 12.6713218,5.03804348 C12.665795,5.03795838 12.6602663,5.03795838 12.6547376,5.03804348 C12.6438745,5.03222937 12.632819,5.02679442 12.6215692,5.0217396 C12.6105138,5.02139974 12.5994563,5.02139974 12.5884009,5.0217396 C12.5828741,5.0216545 12.5773454,5.0216545 12.5718167,5.0217396 C12.5607592,5.02139974 12.5497017,5.02139974 12.5386462,5.0217396 C12.5331175,5.0216545 12.5275908,5.0216545 12.5220641,5.02173913 C12.5110086,5.02139927 12.4999512,5.02139927 12.4888957,5.02173913 C12.483369,5.02165403 12.4778403,5.02165403 12.4723115,5.02173913 C12.4612541,5.02139927 12.4501986,5.02139927 12.4391432,5.02173913 C12.4225569,5.02097437 12.4059727,5.02097437 12.3893906,5.02173913 L12.3893906,5.02173913 Z M5.58987351,13.0434783 C5.15023257,13.0434783 4.79383248,13.3938645 4.79383248,13.826087 C4.79383248,14.2583094 5.15023257,14.6086957 5.58987351,14.6086957 C6.02951439,14.6086957 6.38591453,14.2583094 6.38591453,13.826087 C6.38591453,13.3938645 6.02951439,13.0434783 5.58987351,13.0434783 L5.58987351,13.0434783 Z M11.4275077,13.0434783 C10.9878668,13.0434783 10.6314667,13.3938645 10.6314667,13.826087 C10.6314667,14.2583094 10.9878668,14.6086957 11.4275077,14.6086957 C11.8671486,14.6086957 12.2235487,14.2583094 12.2235487,13.826087 C12.2235487,13.3938645 11.8671486,13.0434783 11.4275077,13.0434783 L11.4275077,13.0434783 Z" id="Fill-79"></path>
                    </g>
                </g>
            </g>
        </g>
    </g>
</svg>