<?xml version="1.0" encoding="UTF-8" standalone="no"?>
<svg width="16px" height="16px" viewBox="0 0 16 16" version="1.1" xmlns="http://www.w3.org/2000/svg" xmlns:xlink="http://www.w3.org/1999/xlink">
    <!-- Generator: sketchtool 39.1 (31720) - http://www.bohemiancoding.com/sketch -->
    <title>449386EC-52A6-4516-AAEE-E9307884C204</title>
    <desc>Created with sketchtool.</desc>
    <defs></defs>
    <g id="Checkout2" stroke="none" stroke-width="1" fill="none" fill-rule="evenodd">
        <g id="checkout-C-pickpoints" transform="translate(-771.000000, -1142.000000)">
            <g id="Group-21" transform="translate(255.000000, 985.000000)">
                <g id="Group-38" transform="translate(500.000000, 144.000000)">
                    <g id="Group-33-Copy" transform="translate(16.000000, 13.000000)">
                        <g id="metro-sankt-petersburg">
                            <rect id="Rectangle-2" x="0" y="0" width="16" height="16"></rect>
                            <path d="M12.2496788,3.402245 C13.3279639,4.48279957 13.9939786,5.98729865 13.9939786,7.63300535 C13.9939786,10.3842487 12.1387104,12.7116547 9.61732538,13.4181217 L9.61732538,13.4181217 L10.077256,14 L13.8671576,14 C15.1912095,12.5703399 16,10.6503666 16,8.55562612 C16,5.08118964 13.7800193,2.11379251 10.6878376,1 L8.00005114,9.97692314 L5.31216241,1 C2.2199807,2.11379251 0,5.08118964 0,8.55562612 C0,10.6503666 0.808790534,12.5703399 2.13284241,14 L5.91486886,14 L6.38267462,13.4181217 L6.37479945,13.4181217 C3.85341439,12.7116547 1.99814627,10.3842487 1.99814627,7.63300535 C1.99814627,5.98719144 2.66416093,4.49105545 3.74244603,3.402245 C3.84553921,3.27754914 4.0516233,3.21107326 4.24993448,3.2443112 C4.44814339,3.28591223 4.63847713,3.42722707 4.73359286,3.73473158 L7.6989536,13.6342755 C7.79406933,13.6426386 7.89716251,13.6426386 8.00025569,13.6426386 C8.10334887,13.6426386 8.1984646,13.6426386 8.30155778,13.6342755 L11.2668162,3.72636849 C11.3460794,3.47697675 11.512583,3.31078707 11.7108942,3.25267429 C11.8848639,3.21107326 12.0751977,3.25267429 12.2496788,3.402245 L12.2496788,3.402245 L12.2496788,3.402245 Z" id="Shape" fill="#71067A"></path>
                        </g>
                    </g>
                </g>
            </g>
        </g>
    </g>
</svg>