<?xml version="1.0" encoding="UTF-8"?>
<svg width="50px" height="36px" viewBox="0 0 50 36" version="1.1" xmlns="http://www.w3.org/2000/svg" xmlns:xlink="http://www.w3.org/1999/xlink">
    <!-- Generator: sketchtool 40.1 (33804) - http://www.bohemiancoding.com/sketch -->
    <title>0D439230-F95E-47A0-9527-00616B0E92C3</title>
    <desc>Created with sketchtool.</desc>
    <defs></defs>
    <g id="Checkout2" stroke="none" stroke-width="1" fill="none" fill-rule="evenodd">
        <g id="checkout-C-payment" transform="translate(-62.000000, -40.000000)">
            <g id="Group-26" transform="translate(32.000000, 40.000000)">
                <g id="Group-14" transform="translate(30.000000, 0.000000)">
                    <g id="mastercard">
                        <rect id="card" fill="#F1EFEB" x="0" y="0" width="40" height="24" rx="3"></rect>
                        <g id="Group-11" transform="translate(7.000000, 4.000000)">
                            <path d="M25.8858836,7.85473964 C25.8858836,12.1681304 22.3081919,15.6648251 17.8948846,15.6648251 C13.4815774,15.6648251 9.90388461,12.1681304 9.90388461,7.85473964 C9.90388461,3.54134819 13.4815774,0.0446537608 17.8948846,0.0446537608 C22.3081919,0.0446537608 25.8858836,3.54134819 25.8858836,7.85473964 L25.8858836,7.85473964 Z" id="path2997" fill="#F79F1A"></path>
                            <path d="M16.0277734,7.85473964 C16.0277734,12.1681304 12.4500817,15.6648251 8.03677447,15.6648251 C3.62346724,15.6648251 0.0457744374,12.1681304 0.0457744374,7.85473964 C0.0457744374,3.54134819 3.62346724,0.0446537608 8.03677447,0.0446537608 C12.4500817,0.0446537608 16.0277734,3.54134819 16.0277734,7.85473964 L16.0277734,7.85473964 Z" id="path2995" fill="#EA001B"></path>
                            <path d="M12.9658457,1.706583 C11.1013434,3.13635568 9.90450575,5.35813586 9.90450575,7.85400786 C9.90450575,10.3498798 11.1013434,12.5733558 12.9658457,14.0031286 C14.830348,12.5733558 16.0271857,10.3498798 16.0271857,7.85400786 C16.0271857,5.35813586 14.830348,3.13635568 12.9658457,1.706583 L12.9658457,1.706583 Z" id="path2999" fill="#FF5F01"></path>
                        </g>
                    </g>
                    <g id="visa" transform="translate(8.000000, 12.000000)">
                        <rect id="card" fill="#F1EFEB" x="0" y="0" width="40" height="24" rx="3"></rect>
                        <g id="logo" transform="translate(4.000000, 7.000000)">
                            <g id="registered" transform="translate(29.852234, 8.580106)" fill="#0161AB">
                                <path d="M0.0784687287,0.570556101 C0.0784687287,0.287035926 0.301446638,0.0572565102 0.57633088,0.0572565102 C0.851702506,0.0572565102 1.07419303,0.287035926 1.07419303,0.570556101 C1.07419303,0.853825152 0.851702506,1.08385569 0.57633088,1.08385569 C0.301446638,1.08385569 0.0784687287,0.853825152 0.0784687287,0.570556101 L0.0784687287,0.570556101 Z M0.57633088,0.96030217 C0.785905746,0.96030217 0.955027788,0.785770264 0.955027788,0.570556101 C0.955027788,0.354588563 0.785905746,0.180558907 0.57633088,0.180558907 C0.367730782,0.180558907 0.198365047,0.354588563 0.198365047,0.570556101 C0.198365047,0.785770264 0.367730782,0.96030217 0.57633088,0.96030217 L0.57633088,0.96030217 Z M0.509315662,0.795564141 L0.407452529,0.795564141 L0.407452529,0.344794686 L0.592170841,0.344794686 C0.63067413,0.344794686 0.669664803,0.345296936 0.703781641,0.36739594 C0.739116939,0.393010695 0.759099658,0.435450827 0.759099658,0.480151085 C0.759099658,0.531631719 0.730587729,0.579345478 0.683798922,0.596924231 L0.763729801,0.795564141 L0.650413158,0.795564141 L0.584129015,0.617014234 L0.509315662,0.617014234 L0.509315662,0.795564141 L0.509315662,0.795564141 Z M0.509315662,0.539918846 L0.565364754,0.539918846 C0.586565932,0.539918846 0.60922926,0.541927846 0.62774983,0.531631719 C0.644564557,0.520331092 0.653337459,0.499236589 0.653337459,0.479146585 C0.653337459,0.462572332 0.643102407,0.442482329 0.628724597,0.433692952 C0.610691411,0.422894575 0.582423173,0.4251547 0.56341522,0.4251547 L0.509315662,0.4251547 L0.509315662,0.539918846 L0.509315662,0.539918846 Z"></path>
                            </g>
                            <path d="M27.4730893,9.69608285 L29.6829402,9.69608285 L27.7562927,0.224966186 L25.8217894,0.224966186 C24.9281864,0.224966186 24.7101865,0.930450486 24.7101865,0.930450486 L21.121241,9.69608285 L23.6296142,9.69608285 L24.1312103,8.28954113 L27.1910642,8.28954113 L27.4730893,9.69608285 Z M24.8248819,6.34613915 L26.0892811,2.80101011 L26.8010212,6.34613915 L24.8248819,6.34613915 Z" id="a" fill="#0066B2"></path>
                            <path d="M21.3089958,2.50239668 L21.6526893,0.468444795 C21.6526893,0.468444795 20.5925422,0.0555372695 19.4880095,0.0555372695 C18.2935274,0.0555372695 15.4571724,0.590385321 15.4571724,3.19097833 C15.4571724,5.63824018 18.7864821,5.66882593 18.7864821,6.95302467 C18.7864821,8.2380283 15.8004731,8.00863524 14.8145638,7.19811306 L14.4571226,9.32422461 C14.4571226,9.32422461 15.5314102,9.85947511 17.1740686,9.85947511 C18.8159415,9.85947511 21.2944625,8.98778144 21.2944625,6.61698395 C21.2944625,4.15442922 17.9353006,3.92463371 17.9353006,2.85413272 C17.9353006,1.78322928 20.2794865,1.92086512 21.3089958,2.50239668" id="s" fill="#0066B2"></path>
                            <polyline id="i" fill="#0066B2" points="12.9739379 9.69608285 10.567298 9.69608285 12.0713006 0.224966186 14.4787262 0.224966186 12.9739379 9.69608285"></polyline>
                            <path d="M2.12834643,0.224966186 L4.02494525,0.224966186 C5.06898785,0.224966186 5.1664004,1.07774498 5.1664004,1.07774498 L5.97633864,5.33680964 L5.97633864,5.3364072 L6.24815108,6.73932692 L8.54245236,0.224966186 L11.1329192,0.224966186 L7.30358466,9.69608285 L4.79599703,9.69608285 L2.70555508,1.4677132 C1.34767124,0.632239495 0.187754839,0.38513889 0.187362046,0.38513889 L0.231747604,0.224966186 L2.12834643,0.224966186 L4.02494525,0.224966186 C5.06898785,0.224966186 5.1664004,1.07774498 5.1664004,1.07774498 L5.97633864,5.33680964 C5.97633864,5.33680964 5.43192817,3.60911763 3.75981028,2.22229567 C2.01109785,0.772290001 0.187754839,0.38513889 0.187362046,0.38513889 L0.231747604,0.224966186 L2.12834643,0.224966186 Z" id="v" fill="#0066B2"></path>
                            <path d="M5.97633864,5.33680964 L5.1664004,1.07774498 C5.1664004,1.07774498 5.06898785,0.224966186 4.02494525,0.224966186 L0.231747604,0.224966186 L0.187362046,0.38513889 C0.187754839,0.38513889 2.01109785,0.772290001 3.75981028,2.22229567 C5.43192817,3.60911763 5.97633864,5.33680964 5.97633864,5.33680964" id="shape" fill="#F9A533"></path>
                        </g>
                    </g>
                </g>
            </g>
        </g>
    </g>
</svg>