<?xml version="1.0" encoding="UTF-8"?>
<svg width="50px" height="24px" viewBox="0 0 50 24" version="1.1" xmlns="http://www.w3.org/2000/svg" xmlns:xlink="http://www.w3.org/1999/xlink">
    <!-- Generator: sketchtool 40.1 (33804) - http://www.bohemiancoding.com/sketch -->
    <title>08BD79D1-A9D4-41CE-AD16-C7A12414BF38</title>
    <desc>Created with sketchtool.</desc>
    <defs></defs>
    <g id="Checkout2" stroke="none" stroke-width="1" fill="none" fill-rule="evenodd">
        <g id="checkout-C-payment" transform="translate(-62.000000, -112.000000)">
            <g id="Group-21" transform="translate(32.000000, 112.000000)">
                <g id="Group-19" transform="translate(30.000000, 0.000000)">
                    <rect id="card" fill="#F1EFEB" x="0" y="0" width="40" height="24" rx="3"></rect>
                    <g id="Group-Copy" transform="translate(8.000000, 3.000000)">
                        <path d="M0,1 L0,16 C0,16.9126069 1.03689467,18 2,18 L21,18 C22,18 22,17.3952867 22,17 L22,1 L0,1 L0,1 Z" id="Fill-68" fill="#F57C00"></path>
                        <path d="M2,0 C0.977233887,0 -3.9627409e-11,1 7.10542736e-15,2 C3.96421592e-11,3 0.932008803,4 2,4 L21,4 L22,5 L22,1 C22,0.298666633 21.7412113,0 21,0 L2,0 Z" id="Fill-70" fill="#942A09"></path>
                        <path d="M2,4 L21,4 L22,5 L22,18 L23,18 L23,2 L2,2 L2,4 Z" id="Fill-71" fill="#4CAF50"></path>
                        <path d="M2,4 L19,4 C18.9957236,3.99241907 18.9877886,3.97659887 18.9877886,3.97659887 L19,3 L2,3 L2,4 Z" id="Fill-72" fill="#C8E6C9"></path>
                        <path d="M24,8 L18,8 C17.102154,8 16,9.34325023 16,11 C16,12.6567497 17.102154,14 18,14 L24,14 L24,8 L24,8 Z" id="Fill-73" fill="#BF360C"></path>
                        <path d="M20,11 C20,11.666667 19.666666,12 19,12 C18.333334,12 18,11.666667 18,11 C18,10.333333 18.333334,10 19,10 C19.666666,10 20,10.333333 20,11 L20,11 Z" id="Fill-74" fill="#FFECB3"></path>
                    </g>
                </g>
            </g>
        </g>
    </g>
</svg>