<?xml version="1.0" encoding="UTF-8"?>
<svg width="50px" height="24px" viewBox="0 0 50 24" version="1.1" xmlns="http://www.w3.org/2000/svg" xmlns:xlink="http://www.w3.org/1999/xlink">
    <!-- Generator: sketchtool 40.1 (33804) - http://www.bohemiancoding.com/sketch -->
    <title>37BD0C2E-5659-4782-93B6-3E570DAD3D1F</title>
    <desc>Created with sketchtool.</desc>
    <defs></defs>
    <g id="Checkout2" stroke="none" stroke-width="1" fill="none" fill-rule="evenodd">
        <g id="checkout-C-payment" transform="translate(-62.000000, -488.000000)">
            <g id="Group-21" transform="translate(32.000000, 488.000000)">
                <g id="Group-14" transform="translate(30.000000, 0.000000)">
                    <g id="mastercard-copy-2">
                        <rect id="card" fill="#F1EFEB" x="0" y="0" width="40" height="24" rx="3"></rect>
                        <g id="Group-Copy-2" transform="translate(11.000000, 3.000000)">
                            <polygon id="Fill-124" fill="#9575CD" points="0.0276014987 11.5258992 17.9963967 11.5258992 17.9963967 17.882602 0.0276014987 17.882602"></polygon>
                            <polygon id="Fill-126" fill="#90CAF9" points="1.82448102 0.174644168 3.62136054 1.08274457 5.41824006 0.174644168 7.21511958 1.08274457 9.0119991 0.174644168 10.8088786 1.08274457 12.6057581 0.174644168 14.4026377 1.08274457 16.1995172 0.174644168 16.1995172 16.0664012 1.82448102 16.0664012"></polygon>
                            <polygon id="Fill-127" fill="#1976D2" points="4.96902018 3.80704578 13.054978 3.80704578 13.054978 5.62324658 4.96902018 5.62324658"></polygon>
                            <polygon id="Fill-128" fill="#1976D2" points="4.96902018 7.43944739 10.3596587 7.43944739 10.3596587 8.34754779 4.96902018 8.34754779"></polygon>
                            <polygon id="Fill-129" fill="#1976D2" points="4.96902018 9.25564819 10.3596587 9.25564819 10.3596587 10.1637486 4.96902018 10.1637486"></polygon>
                            <polygon id="Fill-130" fill="#1976D2" points="4.96902018 11.071849 10.3596587 11.071849 10.3596587 11.9799494 4.96902018 11.9799494"></polygon>
                            <polygon id="Fill-131" fill="#1976D2" points="11.2580985 7.43944739 13.054978 7.43944739 13.054978 8.34754779 11.2580985 8.34754779"></polygon>
                            <polygon id="Fill-132" fill="#1976D2" points="11.2580985 9.25564819 13.054978 9.25564819 13.054978 10.1637486 11.2580985 10.1637486"></polygon>
                            <polygon id="Fill-133" fill="#1976D2" points="11.2580985 11.071849 13.054978 11.071849 13.054978 11.9799494 11.2580985 11.9799494"></polygon>
                            <polygon id="Fill-134" fill="#1976D2" points="11.2580985 12.8880498 13.054978 12.8880498 13.054978 13.7961502 11.2580985 13.7961502"></polygon>
                        </g>
                    </g>
                </g>
            </g>
        </g>
    </g>
</svg>