<svg xmlns="http://www.w3.org/2000/svg" xmlns:xlink="http://www.w3.org/1999/xlink" width="43" height="43" viewBox="0 0 43 43">
    <defs>
        <circle id="prefix__a" cx="21.734" cy="21.5" r="21"/>
    </defs>
    <g fill="none" fill-rule="evenodd">
        <mask id="prefix__b" fill="#fff">
            <use xlink:href="#prefix__a"/>
        </mask>
        <use fill="#FFF" xlink:href="#prefix__a"/>
        <g fill="#00C471" fill-rule="nonzero" mask="url(#prefix__b)">
            <path d="M21.432 5c2.62 0 5.083 1.02 6.937 2.872 1.032 1.032 1.806 2.254 2.29 3.586 3.144.178 5.463 3.48 5.463 6.442v11.467c0 .396-.32.716-.716.716-2.94 0-5.426-1.976-6.2-4.67-.683 1.434-1.768 2.633-3.11 3.458v2.803c-.003.37.267.678.627.723l5.188.645c3.219.405 5.645 3.157 5.645 6.401V48h-1.434v-8.557c.001-2.523-1.886-4.664-4.39-4.979l-.961-.119c-.61.769-1.315 1.455-2.101 2.044-2.058 1.545-4.473 2.29-6.867 2.29-3.489 0-6.937-1.582-9.187-4.583l.191.247-.962.12c-2.427.306-4.275 2.329-4.384 4.752l-.005.228V48H6.022v-8.557c0-3.244 2.426-5.996 5.644-6.401l5.19-.645c.36-.045.629-.354.627-.717v-2.81c-2.245-1.38-3.774-3.813-3.899-6.639l-.052-.748h-.343c-1.524 0-2.774-1.195-2.862-2.698l-.005-.168c0-1.04.557-1.953 1.389-2.456l-.007-.056c-.346-2.593.34-5.17 1.93-7.253 1.593-2.083 3.9-3.42 6.497-3.767.428-.056.865-.085 1.3-.085zm-2.517 24.57l.001 2.104c.009 1.085-.8 2.01-1.881 2.145l-2.517.314c1.55 1.634 3.59 2.693 5.853 3.016 2.65.378 5.295-.298 7.439-1.906.447-.336.865-.707 1.25-1.111l-2.514-.313c-1.083-.134-1.892-1.06-1.883-2.15v-2.1c-.895.333-1.863.514-2.874.514-1.01 0-1.979-.181-2.874-.514zm2.873-12.387h-.176l-1.095 3.837 1.5.5-.455 1.36-2.15-.717c-.33-.11-.528-.438-.483-.774-.23.062-.473.094-.723.094h-2.15c-.39 0-.763-.078-1.102-.22l.061.888c.16 3.652 3.136 6.499 6.774 6.499s6.613-2.847 6.773-6.482l.083-1.354c-.498.417-1.14.67-1.84.67h-2.15c-1.58 0-2.866-1.286-2.866-2.867v-1.434zm9.282-4.228l.042.241c.087.529.131 1.068.131 1.614 0 .433-.028.87-.086 1.299l.027-.247c1.196.346 2.072 1.45 2.072 2.755 0 1.58-1.286 2.866-2.867 2.866v2.15c0 2.524 1.872 4.617 4.3 4.966V17.9c0-2.097-1.535-4.503-3.62-4.945zm-7.451 10.037l.641 1.282c-1.037.519-2.198.793-3.357.793h-.547v-1.434h.547c.938 0 1.877-.221 2.716-.641zm6.77-5.809h-.087l-.175 2.867h.262c.744 0 1.357-.57 1.427-1.295l.006-.138c0-.79-.642-1.434-1.433-1.434zm-14.141 0h-1.576l.148 2.16c.228.386.63.656 1.098.7l.138.007h2.15c.79 0 1.433-.643 1.433-1.433v-1.434h-.909c.123.21.192.456.192.717 0 .792-.641 1.433-1.433 1.433s-1.433-.641-1.433-1.433c0-.261.07-.506.192-.717zm11.991 0h-.909c.123.21.192.456.192.717 0 .792-.641 1.433-1.433 1.433s-1.433-.641-1.433-1.433c0-.261.07-.506.192-.717h-1.626v1.434c0 .79.643 1.433 1.434 1.433h2.15c.79 0 1.433-.643 1.433-1.433v-1.434zm-15.05 0c-.79 0-1.433.643-1.433 1.434 0 .79.643 1.433 1.433 1.433l.244-.001-.022-.326c-.122-.292-.198-.608-.217-.938l-.005-.168zm8.243-10.75c-.372 0-.746.025-1.111.074-2.218.296-4.189 1.439-5.547 3.217-1.36 1.777-1.945 3.978-1.649 6.196l-.02-.168.084-.002.419.001c1.418-1.422 4.004-4.068 4.634-5.96.1-.299.377-.515.697-.491.256.006.486.148.608.365.529.652 6.081 5.646 9.672 6.058l.461.027h.077c.021-.19.036-.38.045-.569l.008-.371c-.001-4.62-3.76-8.377-8.378-8.377zm-2.29 4.85c-.824 1.533-2.285 3.18-3.525 4.469h9.569c-2.437-1.319-4.796-3.249-6.044-4.468z"/>
        </g>
    </g>
</svg>
