<svg xmlns="http://www.w3.org/2000/svg" width="14" height="19" viewBox="0 0 14 19">
    <path d="M13.611 7h-1.167V5.444C12.444 2.442 10.002 0 7 0S1.556 2.442 1.556 5.444V7H.389C.174 7 0 7.174 0 7.389v9.722c0 .858.698 1.556 1.556 1.556h10.888c.858 0 1.556-.698 1.556-1.556V7.39c0-.215-.174-.389-.389-.389zm-5.447 8.124c.013.11-.023.22-.096.302-.074.082-.18.13-.29.13H6.222c-.11 0-.216-.048-.29-.13-.073-.082-.109-.192-.096-.302l.245-2.206c-.398-.29-.637-.748-.637-1.251 0-.858.698-1.556 1.556-1.556.858 0 1.556.698 1.556 1.556 0 .502-.239.96-.637 1.25l.245 2.207zM10.111 7H3.89V5.444c0-1.715 1.396-3.11 3.111-3.11 1.715 0 3.111 1.395 3.111 3.11V7z"/>
</svg>
