<svg xmlns="http://www.w3.org/2000/svg" width="152" height="45"><path fill="#FFF" d="M16 9h4.884C23.625 9 25 8.285 25 6.844c0-.547-.281-.995-.837-1.344-.568-.33-1.316-.5-2.268-.5a6.946 6.946 0 00-3.976 1.219C16.72 7.03 16.08 7.958 16 9zm2.533 5.661l2.01 2.456 1.153 1.336c2.224 2.662 3.338 5.483 3.35 8.45-.012 2.902-.995 5.435-2.978 7.62C19.394 37.504 15.872 39 11.537 39c-3.388 0-6.15-1.008-8.3-3.033C1.078 33.963 0 31.384 0 28.239c0-3.846 1.677-7.054 5.024-9.606 1.788-1.379 3.429-2.06 4.95-2.058.764-.002 1.4.216 1.898.65.486.436.732.998.744 1.697-.012.915-.576 1.715-1.712 2.384l-1.712 1.047c-1.014.593-1.845 1.436-2.493 2.528-.683 1.07-1.015 2.137-1.005 3.177-.01 1.683.572 3.063 1.749 4.153 1.151 1.086 2.63 1.63 4.429 1.625 1.976.005 3.696-.715 5.172-2.167 1.446-1.426 2.177-3.121 2.159-5.055a6.57 6.57 0 00-.856-3.395c-.61-1.003-1.889-2.568-3.87-4.694-1.36-1.468-2.343-2.76-2.94-3.864H5.694c-2.006-.005-3.004-.67-3.015-2.022.01-.952.361-1.7 1.08-2.239.684-.513 1.671-.776 2.94-.758h3.721c.282-2.798 1.59-5.097 3.908-6.898C16.668.91 19.459 0 22.7 0c2.456 0 4.449.653 5.992 1.95C30.23 3.264 31 4.956 31 7.042c0 2.757-1.222 4.877-3.684 6.355-1.37.838-3.576 1.26-6.587 1.264h-2.196zm18.069-.933h.664c1.822-.005 2.734.627 2.734 1.897 0 .858-.323 1.531-.96 2.007-.655.489-1.546.73-2.697.73h-1.551l-2.882 7.005h2.401c1.826-.005 2.738.626 2.734 1.897.004.857-.316 1.53-.96 2.006-.634.489-1.527.73-2.66.73h-3.879c-1.083 0-1.949-.248-2.586-.73-.64-.511-.96-1.185-.96-2.043 0-.517.13-1.1.406-1.751l.407-.912 2.512-6.202h-.296c-1.622 0-2.426-.617-2.438-1.861.012-.87.332-1.554.96-2.043.65-.49 1.543-.735 2.697-.73h.997l1.146-2.81.221-.547C33.287 8.787 34.35 8 35.79 8c.6 0 1.106.195 1.514.584.439.391.65.863.665 1.423-.014.532-.201 1.213-.59 2.043l-.776 1.678zm17.262 11.516h2.46c.967-.001 1.656.148 2.061.45.411.294.615.785.615 1.46 0 .896-.313 1.591-.94 2.097-.625.498-1.5.749-2.64.749h-3.762c-1.181 0-1.97-.473-2.35-1.423-.787.95-1.757 1.423-2.93 1.423h-3.074c-1.238 0-2.265-.4-3.074-1.198C39.407 28 39 26.988 39 25.769c0-.701.182-1.516.542-2.434l2.858-7.302C43.219 14.011 44.316 13 45.69 13c.623 0 1.137.2 1.556.6.424.4.636.891.65 1.46-.014.45-.127.951-.36 1.535l-.218.561-2.206 5.617-.253.674a5.36 5.36 0 00-.217.824c-.017.666.392.993 1.23 1.01 1.75-.017 2.91-.744 3.472-2.208l2.64-6.703c.8-2.046 1.91-3.065 3.363-3.07.573.005 1.08.21 1.52.599.403.425.614.912.614 1.497 0 .434-.183 1.132-.542 2.06l-3.075 7.788zM66.67 26h.75c.918 0 1.52-.403 1.807-1.208l1.5-4.075c.18-.49.273-.871.273-1.132 0-.442-.169-.816-.511-1.132-.333-.3-.753-.453-1.262-.453-1.028 0-1.992.637-2.897 1.925-.883 1.262-1.33 2.64-1.33 4.113 0 1.31.556 1.962 1.67 1.962zm6.2-.739h2.496c1.827-.003 2.746.642 2.758 1.94-.012.877-.338 1.567-1.006 2.053-.635.5-1.532.746-2.683.746h-2.907c-1.148 0-1.973-.464-2.497-1.38-.924.916-1.916 1.38-2.981 1.38h-2.758c-1.6 0-2.885-.551-3.839-1.642C58.482 27.245 58 25.78 58 23.955c0-2.802.952-5.318 2.87-7.537 1.89-2.248 4.029-3.365 6.41-3.358 1.746-.007 3.144.624 4.173 1.903L76.298 3.06C77.135 1.016 78.286 0 79.764 0c.621 0 1.15.2 1.602.597.417.4.634.89.634 1.455 0 .465-.108.972-.335 1.53l-.261.597-8.534 21.082zM84 35h-3.037C77.657 35 76 35.934 76 37.8c0 .663.227 1.195.667 1.6.468.398 1.077.6 1.852.6 1.041 0 1.974-.37 2.777-1.1.826-.748 1.723-2.046 2.704-3.9zm7.088-4.368h2.497c1.801.003 2.708.615 2.717 1.84-.009.84-.326 1.493-.955 1.947-.642.482-1.531.716-2.68.708h-3.452c-.425 1.19-1.175 2.76-2.277 4.706C85.07 43.28 82.33 45 78.748 45c-2.201 0-4.035-.66-5.508-1.982C71.743 41.698 71 40.06 71 38.1c0-1.354.404-2.624 1.212-3.786a7.29 7.29 0 013.195-2.654c1.497-.687 3.732-1.024 6.683-1.027h3.49l.623-1.486c-1.054.43-2.024.643-2.9.637-1.537.006-2.776-.368-3.71-1.132-.965-.737-1.44-1.71-1.432-2.902-.007-.734.3-1.828.918-3.291l2.314-5.556.257-.566C82.33 14.778 83.393 14 84.845 14c.618 0 1.143.193 1.579.566.407.397.617.886.624 1.487-.007.39-.192 1.036-.55 1.946l-2.094 4.919c-.347.796-.518 1.312-.514 1.557-.061.664.381 1 1.322.99.644.01 1.315-.175 1.983-.53.703-.388 1.138-.808 1.322-1.274l2.864-6.76.22-.565C92.275 14.778 93.339 14 94.798 14c.625 0 1.15.196 1.579.602.413.378.624.863.624 1.45 0 .39-.107.851-.33 1.38l-.258.567-5.324 12.633zM101 23.63c.639.909 1.386 1.37 2.23 1.37.626 0 1.144-.195 1.573-.593.58-.524 1.095-1.317 1.541-2.37.436-1.051.656-1.995.656-2.815 0-.665-.166-1.195-.492-1.592a1.59 1.59 0 00-1.311-.63c-1.213 0-2.184 1.016-2.918 3.037L101 23.63zm3.858-10.439c.616-.21 1.177-.312 1.659-.302 1.637-.01 2.957.624 3.968 1.885 1.01 1.274 1.515 2.918 1.515 4.937 0 3.915-1.446 6.963-4.329 9.158-1.018.75-2.071 1.131-3.174 1.131h-1.984c-1.397 0-2.584-.52-3.571-1.545C98.358 29.48 97.432 30 96.164 30c-.599 0-1.111-.205-1.515-.603A2.008 2.008 0 0194 27.889c0-.439.112-.944.325-1.507l.252-.603L103.38 3.09l.252-.64c.65-1.63 1.667-2.45 3.03-2.45.644 0 1.174.202 1.587.603.443.405.657.899.65 1.47.007.469-.105.975-.325 1.545l-.252.603-3.463 8.97zM120.67 26h.478c1.094 0 1.819-.49 2.182-1.472l1.397-3.811c.18-.49.273-.907.273-1.245 0-.395-.176-.74-.511-1.02a1.953 1.953 0 00-1.296-.452c-.957 0-1.9.623-2.83 1.85-.904 1.264-1.363 2.553-1.363 3.886 0 1.51.551 2.264 1.67 2.264zm8.171-.756h2.43c1.814-.001 2.729.64 2.729 1.91 0 .896-.327 1.591-.972 2.097-.662.498-1.563.749-2.692.749h-2.803c-1.253 0-2.103-.487-2.542-1.46-1.1.973-2.153 1.46-3.178 1.46h-2.467c-1.606 0-2.895-.57-3.888-1.722-.968-1.133-1.458-2.628-1.458-4.494 0-2.775.962-5.274 2.879-7.489C118.81 14.102 120.986 13 123.42 13c1.85 0 3.208.647 4.074 1.947.717-1.096 1.668-1.642 2.841-1.647.642.005 1.177.21 1.608.599.426.425.64.927.635 1.535.005.396-.112.883-.336 1.46l-.262.562-3.14 7.788zM139 35h-3.037c-3.306 0-4.963.934-4.963 2.8 0 .663.227 1.195.667 1.6.468.398 1.077.6 1.852.6 1.041 0 1.975-.37 2.777-1.1.826-.748 1.724-2.046 2.704-3.9zm7.088-4.368h2.497c1.801.003 2.708.615 2.717 1.84-.009.84-.327 1.493-.955 1.947-.642.482-1.531.716-2.68.708h-3.452c-.425 1.19-1.174 2.76-2.277 4.706C140.07 43.28 137.33 45 133.748 45c-2.201 0-4.035-.66-5.508-1.982-1.497-1.32-2.24-2.958-2.24-4.919 0-1.354.404-2.624 1.212-3.786a7.29 7.29 0 013.195-2.654c1.497-.687 3.731-1.024 6.683-1.027h3.49l.623-1.486c-1.054.43-2.025.643-2.9.637-1.537.006-2.776-.368-3.71-1.132-.965-.737-1.44-1.71-1.432-2.902-.008-.734.3-1.828.918-3.291l2.314-5.556.257-.566c.68-1.558 1.743-2.336 3.195-2.336.618 0 1.143.193 1.579.566.407.397.617.886.624 1.487-.007.39-.192 1.036-.55 1.946l-2.13 4.919c-.311.796-.483 1.312-.478 1.557-.061.664.381 1 1.322.99.644.01 1.315-.175 1.983-.53.703-.388 1.138-.808 1.322-1.274l2.864-6.76.22-.565c.673-1.558 1.737-2.336 3.196-2.336.625 0 1.15.196 1.579.602.413.378.624.863.624 1.45 0 .39-.107.851-.33 1.38l-.258.567-5.324 12.633z"/></svg>