<svg xmlns="http://www.w3.org/2000/svg" width="126" height="97" viewBox="0 0 126 97">
    <path fill="#FFF" d="M57.783 71.8c0 13.463-10.856 25.2-27.315 25.2C11.907 97 0 82.157 0 63.861 0 17.605 32.219 2.071 54.281 0v21.057c-13.307 2.071-28.016 12.772-28.716 28.651 1.75-1.035 4.202-1.726 7.354-1.726 15.76 0 24.864 9.32 24.864 23.819zm68.217 0C126 85.264 115.144 97 98.684 97c-18.56 0-30.467-14.843-30.467-33.139 0-46.256 32.218-61.79 54.281-63.861v21.057c-13.308 2.071-28.016 12.772-28.717 28.651 1.751-1.035 4.203-1.726 7.355-1.726 15.759 0 24.864 9.32 24.864 23.819z"/>
</svg>
