<svg xmlns="http://www.w3.org/2000/svg" width="22" height="10" viewBox="0 0 22 10">
    <path fill="#00C471" fill-rule="evenodd" d="M.707 4.056l-.02.004h17.84l-2.644-2.538c-.13-.124-.2-.292-.2-.468 0-.176.07-.343.2-.467l.412-.395c.13-.123.302-.192.486-.192.183 0 .356.068.485.192L21.8 4.533c.13.124.2.29.2.466 0 .178-.07.343-.2.468l-4.534 4.341c-.129.124-.301.192-.485.192s-.357-.068-.486-.192l-.412-.394c-.13-.124-.2-.29-.2-.465 0-.176.07-.333.2-.457l2.675-2.552H.698C.317 5.94 0 5.627 0 5.264v-.557c0-.363.328-.651.707-.651z"/>
</svg>
