<?xml version="1.0" encoding="utf-8"?><svg viewBox="0 0 152 116" xmlns="http://www.w3.org/2000/svg" xmlns:xlink="http://www.w3.org/1999/xlink"><style>:root>svg{display:none}:root>svg:target{display:block}</style><svg viewBox="0 0 13 8" id="arrow" xmlns="http://www.w3.org/2000/svg"><path fill-rule="evenodd" d="M6.98 7.3l5.329-5.286a.645.645 0 000-.919l-.393-.389a.66.66 0 00-.926 0L6.515 5.144 2.035.701a.665.665 0 00-.928 0l-.392.39a.643.643 0 000 .919L6.05 7.3a.656.656 0 00.464.189.651.651 0 00.465-.19z"/></svg><svg viewBox="0 0 33 15" id="arrow-big" xmlns="http://www.w3.org/2000/svg"><path fill-rule="evenodd" d="M31.94 6.084l.03.006H5.207l3.967-3.807a.968.968 0 000-1.402L8.558.288A1.05 1.05 0 007.829 0c-.276 0-.535.102-.729.288L.3 6.799A.966.966 0 00.3 8.2l6.8 6.512c.194.186.453.288.73.288.275 0 .534-.102.728-.288l.617-.591a.96.96 0 00.3-.698.931.931 0 00-.3-.685L5.163 8.91h26.791c.568 0 1.046-.47 1.046-1.013V7.06c0-.544-.492-.976-1.06-.976z"/></svg><svg viewBox="0 0 24 19" id="check" xmlns="http://www.w3.org/2000/svg"><path fill="#00C471" fill-rule="evenodd" d="M20.6 0l3.092 3.346L9.226 19 .308 9.35 3.4 6.003l5.826 6.304z"/></svg><svg viewBox="0 0 28 28" id="cross" xmlns="http://www.w3.org/2000/svg"><path fill="#E03926" fill-rule="evenodd" d="M21.341 8.532l-5.455 5.454 5.374 5.375-1.818 1.818-5.374-5.375-5.455 5.456-1.791-1.792 5.455-5.455-5.374-5.374L8.72 6.821l5.374 5.374L19.55 6.74l1.791 1.792z"/></svg><svg viewBox="0 0 145 54" id="glasses" xmlns="http://www.w3.org/2000/svg"><path d="M18.817 8A26.917 26.917 0 0139 .018V0h68c7.502 0 14.29 3.06 19.183 8h15.079l.089.001c2.023.047 3.649 1.722 3.649 3.78v8.437l-.001.09c-.047 2.047-1.702 3.692-3.737 3.692l-.088-.001c-2.023-.047-3.649-1.722-3.649-3.78v-4.655h-6.06A26.884 26.884 0 01134 27c0 14.912-12.088 27-27 27S80 41.912 80 27h-.32a7.546 7.546 0 00-1.423-4.438c-1.35-1.87-3.46-2.99-5.757-2.99-2.283 0-4.382 1.106-5.734 2.957a7.537 7.537 0 00-1.444 4.317L65.32 27H65c0 14.912-12.088 27-27 27S11 41.912 11 27c0-4.088.909-7.964 2.535-11.436h-6.06v4.654c0 2.059-1.626 3.733-3.65 3.781L3.738 24c-2.034 0-3.69-1.645-3.736-3.693L0 20.218v-8.436C0 9.723 1.626 8.048 3.65 8L3.736 8h15.08zm43.84 7.984C65.296 13.46 68.784 12 72.5 12c3.718 0 7.205 1.46 9.842 3.984A27.074 27.074 0 0188.862 7H56.138a27.075 27.075 0 016.519 8.984zM57.612 27C57.61 16.17 48.83 7.39 38 7.39c-10.83 0-19.61 8.78-19.61 19.61S27.17 46.61 38 46.61 57.61 37.83 57.61 27zM107 7.39c10.831 0 19.611 8.78 19.611 19.61S117.831 46.61 107 46.61c-10.83 0-19.61-8.78-19.61-19.61S96.17 7.39 107 7.39z" fill="#00C471" fill-rule="evenodd"/></svg><svg viewBox="0 0 22 18" id="i-check" xmlns="http://www.w3.org/2000/svg"><path fill="#00C471" fill-rule="evenodd" d="M18.883 0l2.835 3.17L8.457 18 .282 8.858l2.835-3.171 5.34 5.973z"/></svg><svg viewBox="0 0 36 36" id="i-close" xmlns="http://www.w3.org/2000/svg"><path d="M27.389 10.418l-2.452-2.451-7.273 7.273-7.354-7.354-2.424 2.424 7.354 7.354-7.273 7.273 2.451 2.452 7.273-7.273 7.354 7.353 2.424-2.424-7.354-7.354 7.274-7.273z" fill="#E0E4EF" fill-rule="evenodd"/></svg><svg viewBox="0 0 25 24" id="i-star" xmlns="http://www.w3.org/2000/svg"><path fill="#00C471" fill-rule="evenodd" d="M13.091.395l3.18 7.577 8.141.704c.565.05.795.759.366 1.132l-6.175 5.386 1.85 8.012c.129.557-.47.995-.956.699l-6.996-4.248-6.997 4.248c-.486.294-1.084-.144-.956-.7l1.85-8.011L.223 9.807c-.428-.374-.2-1.083.366-1.132L8.73 7.97 11.91.395a.64.64 0 011.182 0z"/></svg><svg viewBox="0 0 61 76" id="icon-card-i-1" xmlns="http://www.w3.org/2000/svg"><path d="M46.914 44.294L28.05 71.106 24.929 75.5h-2.473L.5 44.294l9.89-13.956a6.322 6.322 0 01-3.211-5.522c0-2.879 1.906-5.311 4.498-6.06L7.31.5h32.797l-4.37 18.256c2.593.749 4.5 3.181 4.5 6.06a6.322 6.322 0 01-3.211 5.522l9.89 13.956zm-12.298-39.4l-3.26 13.624H16.058l-3.26-13.623h21.818zm-.561 18.018H13.359c-1.03 0-1.868.854-1.868 1.904 0 1.05.838 1.905 1.868 1.905h20.696c1.03 0 1.868-.855 1.868-1.905s-.838-1.904-1.868-1.904zm-18.898 8.203L5.812 44.303l17.895 25.434 17.895-25.434-9.345-13.188h-6.394v11.236c2.347.894 4.024 3.202 4.024 5.903 0 3.473-2.772 6.299-6.18 6.299s-6.18-2.826-6.18-6.3c0-2.7 1.676-5.008 4.024-5.902V31.115h-6.394zm10.418 17.139c0 1.05-.838 1.904-1.868 1.904-1.03 0-1.869-.854-1.869-1.904 0-1.05.839-1.904 1.869-1.904s1.868.854 1.868 1.904z" fill-rule="evenodd"/><path d="M27.929 71.19H60.5v4.31H24.929l3-4.31z" fill="#00C471"/></svg><svg viewBox="0 0 79 74" id="icon-card-i-2" xmlns="http://www.w3.org/2000/svg"><g fill-rule="nonzero" fill="none"><path d="M0 0v61.397h30.52V74l8.98-3.309L48.48 74V61.397H79V0H0zm43.852 67.343L39.5 65.74l-4.352 1.603v-7.886c1.352.525 2.818.817 4.352.817 1.534 0 3-.292 4.352-.817v7.886zM39.5 55.626c-4.115 0-7.463-3.362-7.463-7.494s3.348-7.494 7.463-7.494 7.463 3.362 7.463 7.494-3.348 7.494-7.463 7.494zm0-19.635c-6.44 0-11.72 5.082-12.072 11.462H13.887v-33.51h51.226v33.51H51.572C51.22 41.073 45.94 35.99 39.5 35.99zm34.871 20.758h-25.89v-.496a12.16 12.16 0 002.444-4.152h18.817V9.296H9.258V52.1h18.817a12.16 12.16 0 002.444 4.152v.496H4.63V4.648H74.37v52.1z" fill="#000"/><path fill="#00C471" d="M20 18h42v4H20zM28 28h23v4H28z"/></g></svg><svg viewBox="0 0 66 74" id="icon-card-i-3" xmlns="http://www.w3.org/2000/svg"><g fill-rule="evenodd"><path d="M54.474 2.172c0 5.294 4.216 9.6 9.4 9.6H66v14.445c0 10.38-3.061 20.374-8.853 28.902-5.791 8.53-13.884 14.96-23.402 18.596L33 74l-.745-.285C22.737 70.08 14.645 63.648 8.853 55.12 3.061 46.591 0 36.596 0 26.217V11.773h2.127c5.182 0 9.399-4.307 9.399-9.601V0h42.948v2.172zm7.273 24.045v-10.27c-5.829-.934-10.445-5.65-11.36-11.603H15.613c-.916 5.953-5.532 10.669-11.36 11.604v10.269c0 9.49 2.798 18.628 8.094 26.427C17.49 60.218 24.62 65.983 33 69.353c8.38-3.371 15.508-9.136 20.652-16.71 5.296-7.799 8.095-16.937 8.095-26.427z"/><path d="M28.916 34.462L42.983 20 52 29.27 28.916 53 15 38.695l9.017-9.27 4.899 5.037zm-4.9 1.144l-3.005 3.09 7.905 8.125 17.073-17.552-3.005-3.09-14.068 14.463-4.9-5.036z" fill="#00C471"/></g></svg><svg viewBox="0 0 152 45" id="logo" xmlns="http://www.w3.org/2000/svg"><path fill="#FFF" d="M16 9h4.884C23.625 9 25 8.285 25 6.844c0-.547-.281-.995-.837-1.344-.568-.33-1.316-.5-2.268-.5a6.946 6.946 0 00-3.976 1.219C16.72 7.03 16.08 7.958 16 9zm2.533 5.661l2.01 2.456 1.153 1.336c2.224 2.662 3.338 5.483 3.35 8.45-.012 2.902-.995 5.435-2.978 7.62C19.394 37.504 15.872 39 11.537 39c-3.388 0-6.15-1.008-8.3-3.033C1.078 33.963 0 31.384 0 28.239c0-3.846 1.677-7.054 5.024-9.606 1.788-1.379 3.429-2.06 4.95-2.058.764-.002 1.4.216 1.898.65.486.436.732.998.744 1.697-.012.915-.576 1.715-1.712 2.384l-1.712 1.047c-1.014.593-1.845 1.436-2.493 2.528-.683 1.07-1.015 2.137-1.005 3.177-.01 1.683.572 3.063 1.749 4.153 1.151 1.086 2.63 1.63 4.429 1.625 1.976.005 3.696-.715 5.172-2.167 1.446-1.426 2.177-3.121 2.159-5.055a6.57 6.57 0 00-.856-3.395c-.61-1.003-1.889-2.568-3.87-4.694-1.36-1.468-2.343-2.76-2.94-3.864H5.694c-2.006-.005-3.004-.67-3.015-2.022.01-.952.361-1.7 1.08-2.239.684-.513 1.671-.776 2.94-.758h3.721c.282-2.798 1.59-5.097 3.908-6.898C16.668.91 19.459 0 22.7 0c2.456 0 4.449.653 5.992 1.95C30.23 3.264 31 4.956 31 7.042c0 2.757-1.222 4.877-3.684 6.355-1.37.838-3.576 1.26-6.587 1.264h-2.196zm18.069-.933h.664c1.822-.005 2.734.627 2.734 1.897 0 .858-.323 1.531-.96 2.007-.655.489-1.546.73-2.697.73h-1.551l-2.882 7.005h2.401c1.826-.005 2.738.626 2.734 1.897.004.857-.316 1.53-.96 2.006-.634.489-1.527.73-2.66.73h-3.879c-1.083 0-1.949-.248-2.586-.73-.64-.511-.96-1.185-.96-2.043 0-.517.13-1.1.406-1.751l.407-.912 2.512-6.202h-.296c-1.622 0-2.426-.617-2.438-1.861.012-.87.332-1.554.96-2.043.65-.49 1.543-.735 2.697-.73h.997l1.146-2.81.221-.547C33.287 8.787 34.35 8 35.79 8c.6 0 1.106.195 1.514.584.439.391.65.863.665 1.423-.014.532-.201 1.213-.59 2.043l-.776 1.678zm17.262 11.516h2.46c.967-.001 1.656.148 2.061.45.411.294.615.785.615 1.46 0 .896-.313 1.591-.94 2.097-.625.498-1.5.749-2.64.749h-3.762c-1.181 0-1.97-.473-2.35-1.423-.787.95-1.757 1.423-2.93 1.423h-3.074c-1.238 0-2.265-.4-3.074-1.198C39.407 28 39 26.988 39 25.769c0-.701.182-1.516.542-2.434l2.858-7.302C43.219 14.011 44.316 13 45.69 13c.623 0 1.137.2 1.556.6.424.4.636.891.65 1.46-.014.45-.127.951-.36 1.535l-.218.561-2.206 5.617-.253.674a5.36 5.36 0 00-.217.824c-.017.666.392.993 1.23 1.01 1.75-.017 2.91-.744 3.472-2.208l2.64-6.703c.8-2.046 1.91-3.065 3.363-3.07.573.005 1.08.21 1.52.599.403.425.614.912.614 1.497 0 .434-.183 1.132-.542 2.06l-3.075 7.788zM66.67 26h.75c.918 0 1.52-.403 1.807-1.208l1.5-4.075c.18-.49.273-.871.273-1.132 0-.442-.169-.816-.511-1.132-.333-.3-.753-.453-1.262-.453-1.028 0-1.992.637-2.897 1.925-.883 1.262-1.33 2.64-1.33 4.113 0 1.31.556 1.962 1.67 1.962zm6.2-.739h2.496c1.827-.003 2.746.642 2.758 1.94-.012.877-.338 1.567-1.006 2.053-.635.5-1.532.746-2.683.746h-2.907c-1.148 0-1.973-.464-2.497-1.38-.924.916-1.916 1.38-2.981 1.38h-2.758c-1.6 0-2.885-.551-3.839-1.642C58.482 27.245 58 25.78 58 23.955c0-2.802.952-5.318 2.87-7.537 1.89-2.248 4.029-3.365 6.41-3.358 1.746-.007 3.144.624 4.173 1.903L76.298 3.06C77.135 1.016 78.286 0 79.764 0c.621 0 1.15.2 1.602.597.417.4.634.89.634 1.455 0 .465-.108.972-.335 1.53l-.261.597-8.534 21.082zM84 35h-3.037C77.657 35 76 35.934 76 37.8c0 .663.227 1.195.667 1.6.468.398 1.077.6 1.852.6 1.041 0 1.974-.37 2.777-1.1.826-.748 1.723-2.046 2.704-3.9zm7.088-4.368h2.497c1.801.003 2.708.615 2.717 1.84-.009.84-.326 1.493-.955 1.947-.642.482-1.531.716-2.68.708h-3.452c-.425 1.19-1.175 2.76-2.277 4.706C85.07 43.28 82.33 45 78.748 45c-2.201 0-4.035-.66-5.508-1.982C71.743 41.698 71 40.06 71 38.1c0-1.354.404-2.624 1.212-3.786a7.29 7.29 0 013.195-2.654c1.497-.687 3.732-1.024 6.683-1.027h3.49l.623-1.486c-1.054.43-2.024.643-2.9.637-1.537.006-2.776-.368-3.71-1.132-.965-.737-1.44-1.71-1.432-2.902-.007-.734.3-1.828.918-3.291l2.314-5.556.257-.566C82.33 14.778 83.393 14 84.845 14c.618 0 1.143.193 1.579.566.407.397.617.886.624 1.487-.007.39-.192 1.036-.55 1.946l-2.094 4.919c-.347.796-.518 1.312-.514 1.557-.061.664.381 1 1.322.99.644.01 1.315-.175 1.983-.53.703-.388 1.138-.808 1.322-1.274l2.864-6.76.22-.565C92.275 14.778 93.339 14 94.798 14c.625 0 1.15.196 1.579.602.413.378.624.863.624 1.45 0 .39-.107.851-.33 1.38l-.258.567-5.324 12.633zM101 23.63c.639.909 1.386 1.37 2.23 1.37.626 0 1.144-.195 1.573-.593.58-.524 1.095-1.317 1.541-2.37.436-1.051.656-1.995.656-2.815 0-.665-.166-1.195-.492-1.592a1.59 1.59 0 00-1.311-.63c-1.213 0-2.184 1.016-2.918 3.037L101 23.63zm3.858-10.439c.616-.21 1.177-.312 1.659-.302 1.637-.01 2.957.624 3.968 1.885 1.01 1.274 1.515 2.918 1.515 4.937 0 3.915-1.446 6.963-4.329 9.158-1.018.75-2.071 1.131-3.174 1.131h-1.984c-1.397 0-2.584-.52-3.571-1.545C98.358 29.48 97.432 30 96.164 30c-.599 0-1.111-.205-1.515-.603A2.008 2.008 0 0194 27.889c0-.439.112-.944.325-1.507l.252-.603L103.38 3.09l.252-.64c.65-1.63 1.667-2.45 3.03-2.45.644 0 1.174.202 1.587.603.443.405.657.899.65 1.47.007.469-.105.975-.325 1.545l-.252.603-3.463 8.97zM120.67 26h.478c1.094 0 1.819-.49 2.182-1.472l1.397-3.811c.18-.49.273-.907.273-1.245 0-.395-.176-.74-.511-1.02a1.953 1.953 0 00-1.296-.452c-.957 0-1.9.623-2.83 1.85-.904 1.264-1.363 2.553-1.363 3.886 0 1.51.551 2.264 1.67 2.264zm8.171-.756h2.43c1.814-.001 2.729.64 2.729 1.91 0 .896-.327 1.591-.972 2.097-.662.498-1.563.749-2.692.749h-2.803c-1.253 0-2.103-.487-2.542-1.46-1.1.973-2.153 1.46-3.178 1.46h-2.467c-1.606 0-2.895-.57-3.888-1.722-.968-1.133-1.458-2.628-1.458-4.494 0-2.775.962-5.274 2.879-7.489C118.81 14.102 120.986 13 123.42 13c1.85 0 3.208.647 4.074 1.947.717-1.096 1.668-1.642 2.841-1.647.642.005 1.177.21 1.608.599.426.425.64.927.635 1.535.005.396-.112.883-.336 1.46l-.262.562-3.14 7.788zM139 35h-3.037c-3.306 0-4.963.934-4.963 2.8 0 .663.227 1.195.667 1.6.468.398 1.077.6 1.852.6 1.041 0 1.975-.37 2.777-1.1.826-.748 1.724-2.046 2.704-3.9zm7.088-4.368h2.497c1.801.003 2.708.615 2.717 1.84-.009.84-.327 1.493-.955 1.947-.642.482-1.531.716-2.68.708h-3.452c-.425 1.19-1.174 2.76-2.277 4.706C140.07 43.28 137.33 45 133.748 45c-2.201 0-4.035-.66-5.508-1.982-1.497-1.32-2.24-2.958-2.24-4.919 0-1.354.404-2.624 1.212-3.786a7.29 7.29 0 013.195-2.654c1.497-.687 3.731-1.024 6.683-1.027h3.49l.623-1.486c-1.054.43-2.025.643-2.9.637-1.537.006-2.776-.368-3.71-1.132-.965-.737-1.44-1.71-1.432-2.902-.008-.734.3-1.828.918-3.291l2.314-5.556.257-.566c.68-1.558 1.743-2.336 3.195-2.336.618 0 1.143.193 1.579.566.407.397.617.886.624 1.487-.007.39-.192 1.036-.55 1.946l-2.13 4.919c-.311.796-.483 1.312-.478 1.557-.061.664.381 1 1.322.99.644.01 1.315-.175 1.983-.53.703-.388 1.138-.808 1.322-1.274l2.864-6.76.22-.565c.673-1.558 1.737-2.336 3.196-2.336.625 0 1.15.196 1.579.602.413.378.624.863.624 1.45 0 .39-.107.851-.33 1.38l-.258.567-5.324 12.633z"/></svg><svg viewBox="0 0 149 116" id="quote" xmlns="http://www.w3.org/2000/svg"><path fill="#F4F6FB" fill-rule="evenodd" d="M68.331 85.865c0 16.1-12.838 30.135-32.302 30.135C14.08 116 0 98.25 0 76.37 0 21.053 38.1 2.477 64.19 0v25.181c-15.737 2.477-33.13 15.275-33.96 34.264 2.071-1.239 4.97-2.064 8.697-2.064 18.636 0 29.403 11.146 29.403 28.484zm80.669 0c0 16.1-12.838 30.135-32.302 30.135-21.949 0-36.03-17.75-36.03-39.63 0-55.317 38.1-73.893 64.19-76.37v25.181c-15.736 2.477-33.13 15.275-33.958 34.264 2.07-1.239 4.97-2.064 8.697-2.064C138.233 57.38 149 68.527 149 85.865z"/></svg></svg>