<svg xmlns="http://www.w3.org/2000/svg" xmlns:xlink="http://www.w3.org/1999/xlink" width="43" height="43" viewBox="0 0 43 43">
    <defs>
        <circle id="prefix__a" cx="21.734" cy="21.5" r="21"/>
    </defs>
    <g fill="none" fill-rule="evenodd">
        <mask id="prefix__b" fill="#fff">
            <use xlink:href="#prefix__a"/>
        </mask>
        <use stroke="#000" stroke-width="1.5" xlink:href="#prefix__a"/>
        <path fill="#000" fill-rule="nonzero" d="M23.571 6C28.77 6 33 10.113 33 15.167L32.997 15H33v4.007c1.672.113 3 1.637 3 3.493 0 1.93-1.435 3.5-3.2 3.5l.027-.001-.013.187c-.22 3.614-2.28 6.773-5.313 8.486L27.5 36h3.198c2.3 0 4.185 1.706 4.297 3.843l.005.202v.012l.053.002C39.039 40.57 42 43.832 42 47.65V57h-1.765v-9.351c0-2.97-2.303-5.506-5.359-5.899l-.254-.015c-.096.2-.21.393-.34.577L29.516 49 29 48.675V57h-1.5V45.411C26.066 46.436 24.323 47 22.5 47s-3.566-.564-5-1.589l-.001 2.01.462.648-.462.291L17.5 57H16v-8.678l-4.28-6.007c-.13-.185-.244-.378-.34-.578l-.315.02c-2.997.387-5.3 2.923-5.3 5.892V57H4v-9.35c0-3.818 2.961-7.078 6.89-7.585l.11-.007v-.022c0-2.154 1.814-3.926 4.087-4.031l.215-.005h2.197v-1.301c-2.549-1.416-4.482-3.89-5.11-6.942l-.054-.282c-.054-.306-.095-.615-.121-.924L12.17 26C10.419 25.982 9 24.42 9 22.5c0-1.857 1.329-3.38 3.002-3.493L12 15.217c-1.792-1.01-3-2.895-3-5.05 0-.46.384-.834.857-.834h.46c-.293-.49-.46-1.06-.46-1.666v-.834c0-.46.384-.833.857-.833zM14 49c.552 0 1 .391 1 .875v5.25c0 .484-.448.875-1 .875s-1-.391-1-.875v-5.25c0-.484.448-.875 1-.875zm17 0c.553 0 1 .391 1 .875v5.25c0 .484-.447.875-1 .875-.553 0-1-.391-1-.875v-5.25c0-.484.447-.875 1-.875zm-.302-11.329H27.5v.776c-.003.386.216.716.527.825l.096.026h.127c.415 0 .75.381.75.852v6.57l3.803-5.335c.244-.345.386-.74.414-1.154l.005-.178c0-1.316-1.132-2.382-2.524-2.382zM26 35.37c-.537.2-1.095.358-1.672.47-.61.108-1.22.161-1.82.161-1.218 0-2.403-.216-3.51-.618V36H19v1.671h-.001v.776c.007 1.04-.54 1.953-1.345 2.353l-.154.07v2.367c1.281 1.364 3.086 2.14 5 2.14 1.914 0 3.719-.776 5-2.14v-2.369c-.889-.355-1.507-1.318-1.5-2.429zm-8.502 2.302h-2.196c-1.392 0-2.524 1.065-2.524 2.373-.006.485.14.947.42 1.343L16 45.318V40.15c0-.434.286-.792.656-.845l.094-.006h.127c.36-.07.625-.427.623-.846l-.001-.782zm10.589-21.67H17.912c-.587 3.3-3.933 4.924-4.09 4.999l-.072-.137v2.885l.207 2.662c.021.25.056.505.1.76.828 4.658 5.294 7.775 9.952 6.948 3.907-.755 6.816-4.068 7.059-8.054l.185-2.384-.001-3.225c-1.08-.732-2.764-2.204-3.164-4.453zM24.76 27L26 28.145c-1.296 1.196-3.02 1.854-4.851 1.855H21v-1.618h.149c1.364-.001 2.647-.491 3.612-1.382zm-3.208-6l1.393.7-1.088 3.416H23V27h-2.25c-.249 0-.481-.155-.62-.413-.14-.258-.169-.588-.077-.878l1.5-4.709zm-9.552-.236c-.789.107-1.401.845-1.401 1.736 0 .904.63 1.65 1.435 1.74l-.032-.425zm21 0L33 23.748l-.037.493c.806-.09 1.437-.836 1.437-1.74 0-.892-.611-1.629-1.399-1.737zM17.5 20c.828 0 1.5.672 1.5 1.5s-.672 1.5-1.5 1.5-1.5-.672-1.5-1.5.672-1.5 1.5-1.5zm10 0c.828 0 1.5.672 1.5 1.5s-.672 1.5-1.5 1.5-1.5-.672-1.5-1.5.672-1.5 1.5-1.5zm-13.75-4.127v3.113c.77-.539 1.904-1.545 2.285-2.985L15 16c-.429 0-.847-.044-1.25-.127zM31.249 16l-1.284.001c.232.88.746 1.597 1.285 2.145L31.25 16zm-7.678-8.333h-12c0 .919.77 1.666 1.715 1.666.473 0 .857.374.857.834 0 .46-.384.833-.857.833H10.8c.398 1.9 2.13 3.333 4.199 3.333h16.238c-.428-3.745-3.702-6.666-7.667-6.666z" mask="url(#prefix__b)"/>
    </g>
</svg>
