<?xml version="1.0" encoding="utf-8"?>
<!-- Generator: Adobe Illustrator 25.0.0, SVG Export Plug-In . SVG Version: 6.00 Build 0)  -->
<svg version="1.1" id="Layer_1" xmlns="http://www.w3.org/2000/svg" xmlns:xlink="http://www.w3.org/1999/xlink" x="0px" y="0px"
	 viewBox="0 0 442 121" style="enable-background:new 0 0 442 121;" xml:space="preserve">
<style type="text/css">
	.st0{fill-rule:evenodd;clip-rule:evenodd;fill:#FFFFFF;}
</style>
<path class="st0" d="M162.8,2.4c1.7,0,3.3,0,5-0.1l0-2c-1.7,0-3.4,0-5,0.1L162.8,2.4z"/>
<path class="st0" d="M172.8,2.3c1.7,0,3.3,0,5,0.1l0-2c-1.7,0-3.3-0.1-5-0.1L172.8,2.3z"/>
<path class="st0" d="M152.8,2.7c1.7-0.1,3.3-0.1,5-0.2l-0.1-2c-1.7,0.1-3.3,0.1-5,0.2L152.8,2.7z"/>
<path class="st0" d="M182.8,2.5c1.7,0.1,3.3,0.1,5,0.2l0.1-2c-1.7-0.1-3.4-0.1-5-0.2L182.8,2.5z"/>
<path class="st0" d="M142.8,3.2c1.7-0.1,3.3-0.2,5-0.3l-0.1-2c-1.7,0.1-3.3,0.2-5,0.3L142.8,3.2z"/>
<path class="st0" d="M192.8,2.9c1.7,0.1,3.3,0.2,5,0.3l0.1-2c-1.7-0.1-3.3-0.2-5-0.3L192.8,2.9z"/>
<path class="st0" d="M132.9,4c1.7-0.2,3.3-0.3,5-0.4l-0.2-2c-1.7,0.1-3.4,0.3-5,0.4L132.9,4z"/>
<path class="st0" d="M202.8,3.6c1.6,0.1,3.3,0.3,5,0.4l0.2-2c-1.7-0.2-3.3-0.3-5-0.4L202.8,3.6z"/>
<path class="st0" d="M212.7,4.5c1.7,0.2,3.3,0.4,5,0.6l0.2-2c-1.7-0.2-3.3-0.4-5-0.6L212.7,4.5z"/>
<path class="st0" d="M123,5.1c1.6-0.2,3.3-0.4,4.9-0.6l-0.2-2c-1.7,0.2-3.3,0.4-5,0.6L123,5.1z"/>
<path class="st0" d="M222.6,5.7c1.6,0.2,3.3,0.4,4.9,0.7l0.3-2c-1.7-0.2-3.3-0.5-5-0.7L222.6,5.7z"/>
<path class="st0" d="M113,6.5c1.6-0.2,3.3-0.5,4.9-0.7l-0.3-2c-1.7,0.2-3.3,0.5-5,0.7L113,6.5z"/>
<path class="st0" d="M232.5,7.1c1.6,0.3,3.3,0.5,4.9,0.8l0.3-2c-1.7-0.3-3.3-0.5-5-0.8L232.5,7.1z"/>
<path class="st0" d="M103.2,8.1c1.6-0.3,3.3-0.6,5-0.9l-0.3-2c-1.7,0.3-3.3,0.6-5,0.9L103.2,8.1z"/>
<path class="st0" d="M242.4,8.8c1.6,0.3,3.3,0.6,4.9,0.9l0.4-2c-1.6-0.3-3.3-0.6-4.9-0.9L242.4,8.8z"/>
<path class="st0" d="M93.4,10c1.6-0.3,3.2-0.7,4.9-1l-0.4-2c-1.6,0.3-3.3,0.7-4.9,1L93.4,10z"/>
<path class="st0" d="M252.2,10.7c1.6,0.3,3.3,0.7,4.9,1l0.4-2c-1.6-0.4-3.3-0.7-4.9-1.1L252.2,10.7z"/>
<path class="st0" d="M83.7,12.3c1.6-0.4,3.2-0.8,4.8-1.2L88,9.2c-1.6,0.4-3.3,0.8-4.9,1.2L83.7,12.3z"/>
<path class="st0" d="M261.9,12.9c1.6,0.4,3.2,0.8,4.9,1.2l0.5-1.9c-1.6-0.4-3.3-0.8-4.9-1.2L261.9,12.9z"/>
<path class="st0" d="M74,14.9c1.6-0.5,3.2-0.9,4.8-1.3l-0.5-1.9C76.7,12,75,12.5,73.4,13L74,14.9z"/>
<path class="st0" d="M271.6,15.3c1.6,0.4,3.2,0.9,4.8,1.3l0.5-1.9c-1.6-0.4-3.2-0.9-4.8-1.3L271.6,15.3z"/>
<path class="st0" d="M64.4,17.8c1.6-0.5,3.2-1,4.8-1.5l-0.6-1.9c-1.6,0.5-3.3,1-4.8,1.5L64.4,17.8z"/>
<path class="st0" d="M281.2,17.9c1.6,0.5,3.2,0.9,4.8,1.4l0.6-1.9c-1.6-0.5-3.2-1-4.8-1.4L281.2,17.9z"/>
<path class="st0" d="M55.1,21.1c1.5-0.6,3.1-1.1,4.7-1.7l-0.7-1.9c-1.6,0.6-3.2,1.1-4.7,1.7L55.1,21.1z"/>
<path class="st0" d="M290.8,20.9c1.6,0.5,3.2,1,4.7,1.6l0.6-1.9c-1.6-0.5-3.2-1.1-4.8-1.6L290.8,20.9z"/>
<path class="st0" d="M45.9,24.9c1.5-0.6,3-1.3,4.5-1.9l-0.8-1.9c-1.5,0.6-3.1,1.3-4.6,1.9L45.9,24.9z"/>
<path class="st0" d="M300.3,24.1c1.6,0.6,3.1,1.1,4.7,1.7l0.7-1.9c-1.6-0.6-3.2-1.1-4.7-1.7L300.3,24.1z"/>
<path class="st0" d="M36.8,29.1c1.4-0.7,2.9-1.5,4.4-2.2l-0.9-1.8c-1.5,0.7-3,1.4-4.5,2.2L36.8,29.1z"/>
<path class="st0" d="M309.6,27.5c1.6,0.6,3.1,1.2,4.6,1.8l0.7-1.9c-1.6-0.6-3.1-1.2-4.7-1.8L309.6,27.5z"/>
<path class="st0" d="M318.9,31.2c1.5,0.6,3.1,1.3,4.6,2l0.8-1.8c-1.5-0.7-3.1-1.3-4.6-2L318.9,31.2z"/>
<path class="st0" d="M28.1,33.9c1.4-0.8,2.8-1.7,4.3-2.5l-1-1.8c-1.5,0.8-2.9,1.7-4.4,2.5L28.1,33.9z"/>
<path class="st0" d="M328.1,35.2c1.5,0.7,3,1.4,4.5,2.1l0.9-1.8c-1.5-0.7-3-1.4-4.6-2.1L328.1,35.2z"/>
<path class="st0" d="M19.8,39.4c1.3-0.9,2.7-1.9,4.1-2.8l-1.1-1.7c-1.4,0.9-2.8,1.9-4.2,2.8L19.8,39.4z"/>
<path class="st0" d="M337.1,39.4c1.5,0.7,3,1.5,4.5,2.2l0.9-1.8c-1.5-0.8-3-1.5-4.5-2.2L337.1,39.4z"/>
<path class="st0" d="M12.1,45.5c1.2-1.1,2.4-2.1,3.8-3.2l-1.2-1.6c-1.3,1.1-2.6,2.1-3.8,3.2L12.1,45.5z"/>
<path class="st0" d="M346,44c1.5,0.8,2.9,1.6,4.4,2.4l1-1.8c-1.5-0.8-2.9-1.6-4.4-2.4L346,44z"/>
<path class="st0" d="M0.7,46.5L0,58l10.3-5.2l-3.4-2.2c0.5-0.5,1-1.1,1.5-1.6L7,47.6c-0.6,0.6-1.2,1.3-1.8,1.9L0.7,46.5z"/>
<path class="st0" d="M354.8,48.8c1.4,0.8,2.9,1.6,4.3,2.5l1-1.7c-1.4-0.8-2.9-1.7-4.3-2.5L354.8,48.8z"/>
<path class="st0" d="M363.4,53.8c1.4,0.9,2.8,1.7,4.3,2.6l1.1-1.7c-1.4-0.9-2.8-1.8-4.3-2.7L363.4,53.8z"/>
<path class="st0" d="M371.8,59.1c1.4,0.9,2.8,1.8,4.1,2.8l1.1-1.7c-1.4-0.9-2.8-1.9-4.2-2.8L371.8,59.1z"/>
<path class="st0" d="M380.1,64.7c1.4,1,2.7,1.9,4.1,2.9l1.2-1.6c-1.4-1-2.7-2-4.1-2.9L380.1,64.7z"/>
<path class="st0" d="M388.2,70.6c1.3,1,2.6,2,4,3l1.2-1.6c-1.3-1-2.7-2-4-3L388.2,70.6z"/>
<path class="st0" d="M396.1,76.7c1.3,1,2.6,2.1,3.9,3.2l1.3-1.5c-1.3-1.1-2.6-2.1-3.9-3.2L396.1,76.7z"/>
<path class="st0" d="M403.7,83.1c1.3,1.1,2.5,2.2,3.8,3.3l1.3-1.5c-1.3-1.1-2.5-2.2-3.8-3.3L403.7,83.1z"/>
<path class="st0" d="M411.2,89.8c1.2,1.1,2.4,2.3,3.6,3.4l1.4-1.4c-1.2-1.2-2.4-2.3-3.7-3.4L411.2,89.8z"/>
<path class="st0" d="M418.4,96.6c1.2,1.2,2.4,2.3,3.5,3.5l1.4-1.4c-1.2-1.2-2.4-2.4-3.5-3.6L418.4,96.6z"/>
<path class="st0" d="M425.4,103.8c1.1,1.2,2.3,2.4,3.4,3.7l1.5-1.3c-1.1-1.2-2.3-2.5-3.4-3.7L425.4,103.8z"/>
<path class="st0" d="M432.1,111.1c1.1,1.2,2.2,2.5,3.3,3.8l1.5-1.3c-1.1-1.3-2.2-2.5-3.3-3.8L432.1,111.1z"/>
<path class="st0" d="M438.6,118.7c0.5,0.6,1.1,1.3,1.6,1.9l1.6-1.3c-0.5-0.7-1.1-1.3-1.6-2L438.6,118.7z"/>
</svg>
