<?xml version="1.0" encoding="utf-8"?>
<!-- Generator: Adobe Illustrator 25.0.0, SVG Export Plug-In . SVG Version: 6.00 Build 0)  -->
<svg version="1.1" id="Layer_1" xmlns="http://www.w3.org/2000/svg" xmlns:xlink="http://www.w3.org/1999/xlink" x="0px" y="0px"
	 viewBox="0 0 102 278" style="enable-background:new 0 0 102 278;" xml:space="preserve">
<style type="text/css">
	.st0{fill-rule:evenodd;clip-rule:evenodd;fill:#FFFFFF;}
</style>
<path class="st0" d="M61.1,2c1.6,0.1,3.3,0.2,4.9,0.4l0.2-2c-1.7-0.2-3.4-0.3-5.1-0.4L61.1,2z"/>
<path class="st0" d="M51.3,2.4c1.6-0.2,3.2-0.3,4.9-0.4l-0.1-2c-1.7,0.1-3.4,0.2-5.1,0.4L51.3,2.4z"/>
<path class="st0" d="M70.9,3c1.6,0.3,3.2,0.6,4.9,1l0.4-2c-1.7-0.4-3.3-0.7-5-1L70.9,3z"/>
<path class="st0" d="M41.8,4.6c1.5-0.5,3.1-0.9,4.7-1.3l-0.4-2c-1.7,0.4-3.3,0.8-4.9,1.4L41.8,4.6z"/>
<path class="st0" d="M90.5,13.2L102,12l-6.8-9.3l-2,4.6c-0.8-0.3-1.6-0.6-2.4-0.9l-0.7,1.9c0.8,0.3,1.5,0.6,2.3,0.9L90.5,13.2z"/>
<path class="st0" d="M80.5,5.2c1.5,0.4,3.1,0.9,4.7,1.4l0.6-1.9c-1.6-0.5-3.2-1-4.8-1.4L80.5,5.2z"/>
<path class="st0" d="M32.9,8.7c1.4-0.8,2.8-1.6,4.3-2.3l-0.8-1.8c-1.6,0.7-3,1.5-4.5,2.4L32.9,8.7z"/>
<path class="st0" d="M25.2,14.7c1.2-1.1,2.4-2.2,3.7-3.2l-1.2-1.6c-1.3,1-2.6,2.2-3.8,3.3L25.2,14.7z"/>
<path class="st0" d="M18.8,22.1c1-1.4,2-2.7,3-3.9l-1.5-1.3c-1.1,1.3-2.1,2.6-3.1,4L18.8,22.1z"/>
<path class="st0" d="M13.8,30.6c0.7-1.5,1.5-3,2.4-4.4l-1.7-1c-0.9,1.4-1.7,2.9-2.4,4.5L13.8,30.6z"/>
<path class="st0" d="M10,39.7c0.6-1.6,1.2-3.1,1.8-4.6l-1.8-0.8c-0.6,1.5-1.3,3.1-1.8,4.7L10,39.7z"/>
<path class="st0" d="M7.2,49.2c0.4-1.6,0.8-3.2,1.3-4.8l-1.9-0.6c-0.5,1.6-0.9,3.2-1.3,4.9L7.2,49.2z"/>
<path class="st0" d="M5.1,58.9c0.3-1.6,0.6-3.3,0.9-4.9l-2-0.4c-0.3,1.6-0.6,3.3-0.9,4.9L5.1,58.9z"/>
<path class="st0" d="M3.8,68.7c0.2-1.7,0.4-3.3,0.6-4.9l-2-0.3c-0.2,1.6-0.4,3.3-0.6,5L3.8,68.7z"/>
<path class="st0" d="M3,78.7c0.1-1.7,0.2-3.3,0.3-5l-2-0.2c-0.1,1.7-0.2,3.3-0.3,5L3,78.7z"/>
<path class="st0" d="M2.7,88.6c0-1.7,0-3.4,0.1-5l-2-0.1c0,1.7-0.1,3.4-0.1,5.1L2.7,88.6z"/>
<path class="st0" d="M2.9,98.6c-0.1-1.7-0.1-3.4-0.1-5l-2,0c0,1.7,0.1,3.4,0.1,5.1L2.9,98.6z"/>
<path class="st0" d="M3.4,108.5c-0.1-1.7-0.2-3.3-0.3-5l-2,0.1c0.1,1.7,0.2,3.3,0.3,5L3.4,108.5z"/>
<path class="st0" d="M4.2,118.4c-0.2-1.7-0.3-3.3-0.5-4.9l-2,0.2c0.1,1.6,0.3,3.3,0.5,5L4.2,118.4z"/>
<path class="st0" d="M5.4,128.4c-0.2-1.6-0.4-3.3-0.6-4.9l-2,0.2c0.2,1.6,0.4,3.3,0.6,5L5.4,128.4z"/>
<path class="st0" d="M6.8,138.3c-0.3-1.7-0.5-3.3-0.8-5l-2,0.3c0.2,1.7,0.5,3.3,0.8,5L6.8,138.3z"/>
<path class="st0" d="M8.5,148.1c-0.3-1.6-0.6-3.3-0.9-4.9l-2,0.3c0.3,1.6,0.6,3.3,0.9,5L8.5,148.1z"/>
<path class="st0" d="M10.5,157.9c-0.3-1.6-0.7-3.3-1-4.9l-2,0.4c0.3,1.6,0.7,3.3,1,4.9L10.5,157.9z"/>
<path class="st0" d="M12.6,167.6c-0.4-1.6-0.8-3.2-1.1-4.9l-2,0.4c0.4,1.6,0.7,3.2,1.1,4.9L12.6,167.6z"/>
<path class="st0" d="M15,177.3c-0.4-1.6-0.8-3.2-1.2-4.8l-1.9,0.5c0.4,1.6,0.8,3.2,1.2,4.9L15,177.3z"/>
<path class="st0" d="M17.6,186.9c-0.5-1.6-0.9-3.2-1.3-4.8l-1.9,0.5c0.4,1.6,0.9,3.2,1.3,4.8L17.6,186.9z"/>
<path class="st0" d="M20.5,196.5c-0.5-1.6-1-3.2-1.4-4.8l-1.9,0.6c0.5,1.6,0.9,3.2,1.4,4.8L20.5,196.5z"/>
<path class="st0" d="M23.5,206c-0.5-1.6-1-3.2-1.5-4.8l-1.9,0.6c0.5,1.6,1,3.2,1.5,4.8L23.5,206z"/>
<path class="st0" d="M26.7,215.5c-0.6-1.6-1.1-3.1-1.6-4.7l-1.9,0.6c0.5,1.6,1.1,3.2,1.6,4.7L26.7,215.5z"/>
<path class="st0" d="M30.1,224.9c-0.6-1.6-1.2-3.1-1.7-4.7l-1.9,0.7c0.6,1.6,1.2,3.1,1.7,4.7L30.1,224.9z"/>
<path class="st0" d="M33.7,234.2c-0.6-1.5-1.2-3.1-1.8-4.6l-1.9,0.7c0.6,1.6,1.2,3.1,1.8,4.7L33.7,234.2z"/>
<path class="st0" d="M37.6,243.4c-0.7-1.5-1.3-3.1-1.9-4.6l-1.8,0.8c0.6,1.5,1.3,3.1,2,4.6L37.6,243.4z"/>
<path class="st0" d="M41.6,252.5c-0.7-1.5-1.4-3-2-4.5l-1.8,0.8c0.7,1.5,1.4,3,2.1,4.6L41.6,252.5z"/>
<path class="st0" d="M45.9,261.5c-0.7-1.5-1.4-3-2.2-4.5l-1.8,0.9c0.7,1.5,1.4,3,2.2,4.5L45.9,261.5z"/>
<path class="st0" d="M50.4,270.5c-0.8-1.5-1.5-3-2.3-4.5l-1.8,0.9c0.8,1.5,1.5,3,2.3,4.5L50.4,270.5z"/>
<path class="st0" d="M53.9,277c-0.4-0.7-0.8-1.4-1.2-2.2l-1.8,0.9c0.4,0.7,0.8,1.5,1.2,2.2L53.9,277z"/>
</svg>
