<?xml version="1.0" encoding="utf-8"?>
<!-- Generator: Adobe Illustrator 25.0.0, SVG Export Plug-In . SVG Version: 6.00 Build 0)  -->
<svg version="1.1" id="Layer_1" xmlns="http://www.w3.org/2000/svg" xmlns:xlink="http://www.w3.org/1999/xlink" x="0px" y="0px"
	 viewBox="0 0 275 226" style="enable-background:new 0 0 275 226;" xml:space="preserve">
<style type="text/css">
	.st0{fill-rule:evenodd;clip-rule:evenodd;fill:#FFFFFF;}
</style>
<path class="st0" d="M219.8,3c-1.6,0-3.3,0-5,0l0-2c1.7,0,3.4,0,5,0L219.8,3z"/>
<path class="st0" d="M229.8,3.4c-1.6-0.1-3.3-0.3-5-0.3l0.1-2c1.7,0.1,3.4,0.2,5,0.3L229.8,3.4z"/>
<path class="st0" d="M209.8,3.2c-1.6,0.1-3.3,0.2-5,0.4l-0.2-2c1.7-0.1,3.4-0.3,5-0.4L209.8,3.2z"/>
<path class="st0" d="M239.7,4.7c-1.6-0.3-3.3-0.5-4.9-0.7l0.3-2c1.7,0.2,3.3,0.5,5,0.7L239.7,4.7z"/>
<path class="st0" d="M199.8,4c-1.6,0.2-3.3,0.4-5,0.7l-0.3-2c1.7-0.2,3.4-0.5,5-0.7L199.8,4z"/>
<path class="st0" d="M189.9,5.5c-1.6,0.3-3.3,0.6-4.9,0.9l-0.4-2c1.7-0.3,3.3-0.7,5-0.9L189.9,5.5z"/>
<path class="st0" d="M249.5,6.9c-1.6-0.4-3.2-0.8-4.8-1.2l0.4-2c1.7,0.4,3.3,0.8,4.9,1.2L249.5,6.9z"/>
<path class="st0" d="M180.1,7.5c-1.6,0.4-3.3,0.8-4.9,1.2l-0.5-1.9c1.7-0.4,3.3-0.8,4.9-1.2L180.1,7.5z"/>
<path class="st0" d="M258.9,9.9c-1.5-0.6-3.1-1.1-4.7-1.7l0.6-1.9c1.6,0.5,3.2,1.1,4.8,1.7L258.9,9.9z"/>
<path class="st0" d="M269.6,6.8L275,17l-11.5-0.5l2.3-3.6c-0.7-0.4-1.5-0.7-2.2-1l0.8-1.8c0.8,0.4,1.6,0.8,2.4,1.2L269.6,6.8z"/>
<path class="st0" d="M170.4,10c-1.6,0.5-3.2,0.9-4.8,1.4l-0.6-1.9c1.6-0.5,3.3-1,4.9-1.4L170.4,10z"/>
<path class="st0" d="M160.8,12.9c-1.6,0.5-3.2,1.1-4.7,1.6l-0.7-1.9c1.6-0.6,3.2-1.1,4.8-1.7L160.8,12.9z"/>
<path class="st0" d="M151.3,16.4c-1.6,0.6-3.1,1.2-4.7,1.9l-0.8-1.8c1.6-0.6,3.1-1.3,4.7-1.9L151.3,16.4z"/>
<path class="st0" d="M142,20.2c-1.5,0.7-3,1.3-4.6,2.1l-0.8-1.8c1.5-0.7,3.1-1.4,4.6-2.1L142,20.2z"/>
<path class="st0" d="M132.9,24.4c-1.5,0.7-3,1.5-4.5,2.3l-0.9-1.8c1.5-0.8,3-1.5,4.5-2.3L132.9,24.4z"/>
<path class="st0" d="M124,29c-1.5,0.8-2.9,1.6-4.4,2.4l-1-1.7c1.5-0.8,3-1.7,4.4-2.5L124,29z"/>
<path class="st0" d="M115.3,33.9c-1.4,0.9-2.9,1.7-4.3,2.6l-1.1-1.7c1.4-0.9,2.9-1.8,4.3-2.6L115.3,33.9z"/>
<path class="st0" d="M106.7,39.3c-1.4,0.9-2.8,1.8-4.2,2.8l-1.1-1.7c1.4-1,2.8-1.9,4.2-2.8L106.7,39.3z"/>
<path class="st0" d="M98.4,44.9c-1.4,1-2.7,1.9-4.1,2.9l-1.2-1.6c1.4-1,2.7-2,4.1-3L98.4,44.9z"/>
<path class="st0" d="M90.4,50.9c-1.3,1-2.6,2.1-3.9,3.1l-1.3-1.6c1.3-1.1,2.6-2.1,4-3.1L90.4,50.9z"/>
<path class="st0" d="M82.6,57.2c-1.3,1.1-2.6,2.2-3.8,3.3L77.4,59c1.3-1.1,2.6-2.2,3.8-3.3L82.6,57.2z"/>
<path class="st0" d="M75,63.8c-1.2,1.1-2.5,2.3-3.7,3.4L70,65.8c1.2-1.2,2.5-2.3,3.7-3.4L75,63.8z"/>
<path class="st0" d="M67.7,70.8c-1.2,1.2-2.4,2.4-3.5,3.6l-1.4-1.4c1.2-1.2,2.4-2.4,3.5-3.6L67.7,70.8z"/>
<path class="st0" d="M60.8,78c-1.1,1.2-2.3,2.5-3.4,3.7l-1.5-1.3c1.1-1.3,2.3-2.5,3.4-3.8L60.8,78z"/>
<path class="st0" d="M54.1,85.5c-1.1,1.3-2.2,2.6-3.2,3.9l-1.6-1.3c1.1-1.3,2.1-2.6,3.2-3.9L54.1,85.5z"/>
<path class="st0" d="M47.8,93.3c-1,1.3-2,2.6-3,4l-1.6-1.2c1-1.4,2-2.7,3.1-4L47.8,93.3z"/>
<path class="st0" d="M41.8,101.3c-1,1.4-1.9,2.7-2.9,4.1l-1.7-1.1c0.9-1.4,1.9-2.8,2.9-4.2L41.8,101.3z"/>
<path class="st0" d="M36.2,109.7c-0.9,1.4-1.8,2.8-2.7,4.3l-1.7-1c0.9-1.4,1.8-2.9,2.7-4.3L36.2,109.7z"/>
<path class="st0" d="M30.9,118.2c-0.8,1.4-1.7,2.9-2.5,4.4l-1.8-1c0.8-1.5,1.6-2.9,2.5-4.4L30.9,118.2z"/>
<path class="st0" d="M26.1,127c-0.8,1.5-1.5,3-2.3,4.5l-1.8-0.9c0.7-1.5,1.5-3,2.3-4.5L26.1,127z"/>
<path class="st0" d="M21.7,136c-0.7,1.5-1.4,3-2.1,4.6l-1.8-0.8c0.7-1.6,1.4-3.1,2.1-4.6L21.7,136z"/>
<path class="st0" d="M17.7,145.2c-0.6,1.5-1.2,3.1-1.8,4.7l-1.9-0.7c0.6-1.6,1.2-3.2,1.9-4.7L17.7,145.2z"/>
<path class="st0" d="M14.1,154.6c-0.6,1.6-1.1,3.1-1.6,4.7l-1.9-0.6c0.5-1.6,1.1-3.2,1.6-4.8L14.1,154.6z"/>
<path class="st0" d="M11,164.1c-0.5,1.6-0.9,3.2-1.4,4.8l-1.9-0.5c0.4-1.6,0.9-3.3,1.4-4.9L11,164.1z"/>
<path class="st0" d="M8.3,173.8c-0.4,1.6-0.8,3.3-1.2,4.9l-2-0.4c0.4-1.7,0.8-3.3,1.2-4.9L8.3,173.8z"/>
<path class="st0" d="M6.1,183.6c-0.3,1.6-0.6,3.3-0.9,4.9l-2-0.3c0.3-1.7,0.6-3.3,0.9-5L6.1,183.6z"/>
<path class="st0" d="M4.4,193.5c-0.2,1.6-0.5,3.3-0.7,5l-2-0.3c0.2-1.7,0.4-3.3,0.7-5L4.4,193.5z"/>
<path class="st0" d="M3.1,203.4c-0.2,1.7-0.3,3.3-0.5,5l-2-0.2c0.1-1.7,0.3-3.4,0.5-5.1L3.1,203.4z"/>
<path class="st0" d="M2.4,213.4c-0.1,1.7-0.2,3.3-0.2,5l-2-0.1c0.1-1.7,0.1-3.4,0.2-5L2.4,213.4z"/>
<path class="st0" d="M2,223.5c0,0.8,0,1.7,0,2.5H0c0-0.9,0-1.7,0-2.6L2,223.5z"/>
</svg>
