<?xml version="1.0" encoding="utf-8"?>
<!-- Generator: Adobe Illustrator 25.0.0, SVG Export Plug-In . SVG Version: 6.00 Build 0)  -->
<svg version="1.1" id="Layer_1" xmlns="http://www.w3.org/2000/svg" xmlns:xlink="http://www.w3.org/1999/xlink" x="0px" y="0px"
	 viewBox="0 0 490 221" style="enable-background:new 0 0 490 221;" xml:space="preserve">
<style type="text/css">
	.st0{fill-rule:evenodd;clip-rule:evenodd;fill:#FFFFFF;}
</style>
<path class="st0" d="M65.2,2.8c1.7,0,3.3,0,5,0l0-2c-1.7,0-3.4,0-5,0L65.2,2.8z"/>
<path class="st0" d="M55.3,3c1.6-0.1,3.3-0.1,4.9-0.2l0-2c-1.7,0-3.3,0.1-5,0.2L55.3,3z"/>
<path class="st0" d="M75.2,2.9c1.7,0.1,3.3,0.1,5,0.2l0.1-2c-1.7-0.1-3.4-0.2-5.1-0.2L75.2,2.9z"/>
<path class="st0" d="M45.3,3.7c1.6-0.2,3.3-0.3,5-0.4l-0.1-2c-1.7,0.1-3.4,0.3-5,0.4L45.3,3.7z"/>
<path class="st0" d="M85.2,3.4c1.6,0.1,3.3,0.2,4.9,0.4l0.2-2c-1.7-0.1-3.3-0.3-5-0.4L85.2,3.4z"/>
<path class="st0" d="M35.4,4.9c1.6-0.3,3.3-0.5,5-0.7l-0.2-2c-1.7,0.2-3.4,0.4-5.1,0.7L35.4,4.9z"/>
<path class="st0" d="M95.1,4.2c1.7,0.2,3.3,0.3,5,0.5l0.2-2c-1.7-0.2-3.4-0.4-5-0.5L95.1,4.2z"/>
<path class="st0" d="M105.1,5.3c1.6,0.2,3.3,0.4,5,0.6l0.3-2c-1.7-0.2-3.3-0.4-5-0.6L105.1,5.3z"/>
<path class="st0" d="M25.6,6.8c1.6-0.4,3.2-0.7,4.9-1l-0.4-2c-1.7,0.3-3.4,0.7-5,1.1L25.6,6.8z"/>
<path class="st0" d="M115.1,6.6c1.6,0.2,3.2,0.5,4.9,0.7l0.3-2c-1.6-0.3-3.3-0.5-4.9-0.7L115.1,6.6z"/>
<path class="st0" d="M5.4,5.8L0,16l11.5-0.4l-2.2-3.5c0.7-0.3,1.4-0.6,2.1-0.9l-0.8-1.9c-0.8,0.3-1.6,0.7-2.4,1L5.4,5.8z"/>
<path class="st0" d="M16.1,9.5c1.5-0.5,3.1-1,4.7-1.5l-0.5-1.9c-1.7,0.5-3.3,1-4.8,1.5L16.1,9.5z"/>
<path class="st0" d="M124.9,8.1c1.6,0.3,3.3,0.6,5,0.8l0.3-2c-1.7-0.3-3.3-0.6-5-0.9L124.9,8.1z"/>
<path class="st0" d="M134.8,9.9c1.6,0.3,3.2,0.6,4.9,0.9l0.4-2c-1.6-0.3-3.3-0.6-4.9-0.9L134.8,9.9z"/>
<path class="st0" d="M144.6,11.8c1.6,0.3,3.3,0.7,5,1l0.4-2c-1.7-0.4-3.3-0.7-5-1L144.6,11.8z"/>
<path class="st0" d="M154.3,13.9c1.6,0.4,3.2,0.7,4.9,1.1l0.5-1.9c-1.6-0.4-3.3-0.8-4.9-1.1L154.3,13.9z"/>
<path class="st0" d="M164.1,16.2c1.6,0.4,3.3,0.8,4.9,1.2l0.5-1.9c-1.6-0.4-3.3-0.8-4.9-1.2L164.1,16.2z"/>
<path class="st0" d="M173.8,18.6c1.6,0.4,3.2,0.8,4.8,1.3l0.5-1.9c-1.6-0.4-3.2-0.9-4.8-1.3L173.8,18.6z"/>
<path class="st0" d="M183.5,21.2c1.6,0.4,3.2,0.9,4.8,1.4l0.5-1.9c-1.6-0.5-3.2-0.9-4.8-1.4L183.5,21.2z"/>
<path class="st0" d="M193.1,23.9c1.6,0.5,3.2,0.9,4.8,1.4l0.6-1.9c-1.6-0.5-3.2-1-4.8-1.4L193.1,23.9z"/>
<path class="st0" d="M202.7,26.8c1.6,0.5,3.2,1,4.8,1.5l0.6-1.9c-1.6-0.5-3.2-1-4.8-1.5L202.7,26.8z"/>
<path class="st0" d="M212.2,29.8c1.6,0.5,3.2,1,4.8,1.6l0.6-1.9c-1.6-0.5-3.2-1-4.8-1.6L212.2,29.8z"/>
<path class="st0" d="M221.8,33c1.6,0.5,3.2,1.1,4.7,1.6l0.7-1.9c-1.6-0.6-3.2-1.1-4.7-1.6L221.8,33z"/>
<path class="st0" d="M231.2,36.2c1.6,0.6,3.1,1.1,4.7,1.7l0.7-1.9c-1.6-0.6-3.1-1.1-4.7-1.7L231.2,36.2z"/>
<path class="st0" d="M240.6,39.7c1.6,0.6,3.1,1.2,4.7,1.8l0.7-1.9c-1.6-0.6-3.1-1.2-4.7-1.8L240.6,39.7z"/>
<path class="st0" d="M250,43.2c1.6,0.6,3.1,1.2,4.7,1.8l0.7-1.9c-1.6-0.6-3.1-1.2-4.7-1.8L250,43.2z"/>
<path class="st0" d="M259.3,46.9c1.5,0.6,3.1,1.3,4.6,1.9l0.8-1.8c-1.5-0.6-3.1-1.3-4.7-1.9L259.3,46.9z"/>
<path class="st0" d="M268.5,50.7c1.5,0.6,3.1,1.3,4.6,1.9l0.8-1.8c-1.5-0.7-3.1-1.3-4.6-2L268.5,50.7z"/>
<path class="st0" d="M277.7,54.6c1.5,0.7,3.1,1.3,4.6,2l0.8-1.8c-1.5-0.7-3.1-1.4-4.6-2L277.7,54.6z"/>
<path class="st0" d="M286.9,58.7c1.5,0.7,3,1.4,4.6,2.1l0.8-1.8c-1.5-0.7-3-1.4-4.6-2.1L286.9,58.7z"/>
<path class="st0" d="M296,62.9c1.5,0.7,3,1.4,4.5,2.1l0.9-1.8c-1.5-0.7-3-1.4-4.5-2.1L296,62.9z"/>
<path class="st0" d="M305,67.2c1.5,0.7,3,1.5,4.5,2.2l0.9-1.8c-1.5-0.7-3-1.5-4.5-2.2L305,67.2z"/>
<path class="st0" d="M314,71.6c1.5,0.8,3,1.5,4.5,2.3l0.9-1.8c-1.5-0.8-3-1.5-4.5-2.3L314,71.6z"/>
<path class="st0" d="M322.9,76.2c1.5,0.8,3,1.6,4.4,2.3l0.9-1.8c-1.5-0.8-3-1.6-4.4-2.3L322.9,76.2z"/>
<path class="st0" d="M331.7,80.9c1.5,0.8,2.9,1.6,4.4,2.4l1-1.7c-1.5-0.8-2.9-1.6-4.4-2.4L331.7,80.9z"/>
<path class="st0" d="M340.5,85.8c1.5,0.8,2.9,1.6,4.4,2.5l1-1.7c-1.5-0.8-2.9-1.7-4.4-2.5L340.5,85.8z"/>
<path class="st0" d="M349.2,90.8c1.4,0.8,2.9,1.7,4.3,2.5l1-1.7c-1.4-0.9-2.9-1.7-4.3-2.5L349.2,90.8z"/>
<path class="st0" d="M357.7,95.9c1.4,0.9,2.9,1.7,4.3,2.6l1.1-1.7c-1.4-0.9-2.9-1.8-4.3-2.6L357.7,95.9z"/>
<path class="st0" d="M366.2,101.2c1.4,0.9,2.8,1.8,4.2,2.7l1.1-1.7c-1.4-0.9-2.8-1.8-4.2-2.7L366.2,101.2z"/>
<path class="st0" d="M374.6,106.6c1.4,0.9,2.8,1.8,4.2,2.8l1.1-1.7c-1.4-0.9-2.8-1.9-4.2-2.8L374.6,106.6z"/>
<path class="st0" d="M383,112.2c1.4,0.9,2.7,1.9,4.1,2.8l1.1-1.6c-1.4-1-2.7-1.9-4.1-2.8L383,112.2z"/>
<path class="st0" d="M391.1,118c1.4,1,2.7,2,4.1,2.9l1.2-1.6c-1.4-1-2.7-2-4.1-3L391.1,118z"/>
<path class="st0" d="M399.2,123.9c1.3,1,2.7,2,4,3l1.2-1.6c-1.3-1-2.6-2-4-3L399.2,123.9z"/>
<path class="st0" d="M407.2,129.9c1.3,1,2.6,2.1,3.9,3.1l1.2-1.6c-1.3-1-2.6-2.1-4-3.1L407.2,129.9z"/>
<path class="st0" d="M415,136.2c1.3,1.1,2.6,2.1,3.8,3.2l1.3-1.5c-1.3-1.1-2.5-2.1-3.8-3.2L415,136.2z"/>
<path class="st0" d="M422.6,142.6c1.3,1.1,2.5,2.2,3.8,3.3l1.3-1.5c-1.3-1.1-2.5-2.2-3.8-3.3L422.6,142.6z"/>
<path class="st0" d="M430.1,149.2c1.2,1.1,2.5,2.2,3.7,3.4l1.4-1.5c-1.2-1.1-2.4-2.3-3.7-3.4L430.1,149.2z"/>
<path class="st0" d="M437.5,156c1.2,1.2,2.4,2.3,3.6,3.5l1.4-1.4c-1.2-1.2-2.4-2.3-3.6-3.5L437.5,156z"/>
<path class="st0" d="M444.6,163c1.2,1.2,2.3,2.4,3.5,3.6l1.4-1.4c-1.2-1.2-2.3-2.4-3.5-3.6L444.6,163z"/>
<path class="st0" d="M451.5,170.3c1.1,1.2,2.3,2.5,3.4,3.7l1.5-1.3c-1.1-1.2-2.2-2.5-3.4-3.7L451.5,170.3z"/>
<path class="st0" d="M458.1,177.7c1.1,1.3,2.2,2.5,3.3,3.8l1.5-1.3c-1.1-1.3-2.2-2.6-3.3-3.9L458.1,177.7z"/>
<path class="st0" d="M464.6,185.4c1,1.3,2.1,2.6,3.1,3.9l1.6-1.2c-1-1.3-2.1-2.6-3.1-3.9L464.6,185.4z"/>
<path class="st0" d="M470.6,193.3c1,1.3,2,2.7,3,4.1l1.6-1.2c-1-1.4-2-2.7-3-4.1L470.6,193.3z"/>
<path class="st0" d="M476.5,201.4c0.9,1.4,1.8,2.7,2.7,4.1l1.7-1.1c-0.9-1.4-1.8-2.8-2.8-4.2L476.5,201.4z"/>
<path class="st0" d="M481.9,209.8c0.9,1.4,1.7,2.9,2.6,4.3l1.7-1c-0.8-1.4-1.7-2.9-2.6-4.3L481.9,209.8z"/>
<path class="st0" d="M486.9,218.4c0.4,0.7,0.8,1.4,1.2,2.2l1.8-0.9c-0.4-0.7-0.8-1.5-1.2-2.2L486.9,218.4z"/>
</svg>
