<?xml version="1.0" encoding="utf-8"?>
<!-- Generator: Adobe Illustrator 25.0.0, SVG Export Plug-In . SVG Version: 6.00 Build 0)  -->
<svg version="1.1" id="Layer_1" xmlns="http://www.w3.org/2000/svg" xmlns:xlink="http://www.w3.org/1999/xlink" x="0px" y="0px"
	 viewBox="0 0 288 218" style="enable-background:new 0 0 288 218;" xml:space="preserve">
<style type="text/css">
	.st0{fill-rule:evenodd;clip-rule:evenodd;fill:#FFFFFF;}
</style>
<path class="st0" d="M175.4,2.3c1.6,0,3.3,0,5,0.1l0.1-2c-1.7-0.1-3.4-0.1-5-0.1L175.4,2.3z"/>
<path class="st0" d="M165.5,2.6c1.6-0.1,3.3-0.2,4.9-0.3l-0.1-2c-1.7,0.1-3.3,0.1-5,0.3L165.5,2.6z"/>
<path class="st0" d="M185.3,2.6c1.6,0.1,3.3,0.3,5,0.4l0.2-2c-1.7-0.2-3.4-0.3-5-0.4L185.3,2.6z"/>
<path class="st0" d="M155.7,3.7c1.6-0.2,3.3-0.4,4.9-0.6l-0.2-2c-1.7,0.2-3.3,0.4-5,0.6L155.7,3.7z"/>
<path class="st0" d="M195.1,3.7c1.6,0.2,3.3,0.5,4.9,0.8l0.3-2c-1.7-0.3-3.3-0.5-5-0.8L195.1,3.7z"/>
<path class="st0" d="M145.9,5.4c1.6-0.3,3.2-0.7,4.9-1l-0.4-2c-1.7,0.3-3.3,0.6-4.9,1L145.9,5.4z"/>
<path class="st0" d="M204.9,5.4c1.6,0.3,3.2,0.7,4.8,1.1l0.5-1.9c-1.6-0.4-3.2-0.8-4.8-1.1L204.9,5.4z"/>
<path class="st0" d="M136.4,7.8c1.6-0.5,3.2-0.9,4.8-1.3l-0.5-1.9c-1.6,0.4-3.2,0.9-4.9,1.3L136.4,7.8z"/>
<path class="st0" d="M214.5,7.7c1.6,0.4,3.2,0.9,4.8,1.4l0.6-1.9c-1.6-0.5-3.2-1-4.8-1.4L214.5,7.7z"/>
<path class="st0" d="M126.9,10.9c1.5-0.6,3.1-1.1,4.7-1.6L131,7.4c-1.6,0.5-3.2,1.1-4.7,1.6L126.9,10.9z"/>
<path class="st0" d="M224,10.6c1.6,0.5,3.1,1.1,4.7,1.7l0.7-1.9c-1.6-0.6-3.2-1.2-4.7-1.7L224,10.6z"/>
<path class="st0" d="M117.8,14.6c1.5-0.7,3-1.3,4.6-1.9l-0.8-1.9c-1.6,0.6-3.1,1.3-4.6,2L117.8,14.6z"/>
<path class="st0" d="M233.3,14c1.5,0.6,3,1.2,4.5,1.9l0.8-1.8c-1.5-0.7-3.1-1.3-4.6-1.9L233.3,14z"/>
<path class="st0" d="M108.9,19c1.5-0.8,2.9-1.5,4.4-2.2l-0.9-1.8c-1.5,0.7-3,1.5-4.5,2.3L108.9,19z"/>
<path class="st0" d="M242.4,18c1.5,0.7,3,1.4,4.5,2.2l0.9-1.8c-1.5-0.8-3-1.5-4.5-2.2L242.4,18z"/>
<path class="st0" d="M100.2,23.8c1.4-0.9,2.8-1.7,4.3-2.5l-1-1.7c-1.5,0.8-2.9,1.7-4.3,2.5L100.2,23.8z"/>
<path class="st0" d="M251.2,22.5c1.5,0.8,2.9,1.6,4.4,2.4l1-1.7c-1.5-0.8-2.9-1.6-4.4-2.4L251.2,22.5z"/>
<path class="st0" d="M91.9,29.3c1.4-0.9,2.7-1.9,4.1-2.8L95,24.8c-1.4,0.9-2.8,1.8-4.2,2.8L91.9,29.3z"/>
<path class="st0" d="M259.9,27.4c1.4,0.8,2.8,1.7,4.2,2.6l1.1-1.7c-1.4-0.9-2.8-1.7-4.2-2.6L259.9,27.4z"/>
<path class="st0" d="M84,35.1c1.3-1,2.6-2,3.9-3l-1.2-1.6c-1.3,1-2.7,2-4,3L84,35.1z"/>
<path class="st0" d="M268.2,32.6c1.4,0.9,2.8,1.9,4.2,2.8l1.1-1.6c-1.4-1-2.8-1.9-4.2-2.9L268.2,32.6z"/>
<path class="st0" d="M276.4,38.3c1.3,1,2.7,1.9,4,2.9l1.2-1.6c-1.3-1-2.7-2-4-3L276.4,38.3z"/>
<path class="st0" d="M76.3,41.5c1.2-1.1,2.5-2.2,3.8-3.2l-1.3-1.5c-1.3,1.1-2.6,2.2-3.8,3.3L76.3,41.5z"/>
<path class="st0" d="M284.4,44.3c0.7,0.5,1.3,1,2,1.6l1.2-1.6c-0.7-0.5-1.3-1.1-2-1.6L284.4,44.3z"/>
<path class="st0" d="M69.1,48.3c1.2-1.2,2.4-2.3,3.6-3.4l-1.4-1.5c-1.2,1.1-2.4,2.3-3.6,3.5L69.1,48.3z"/>
<path class="st0" d="M62.2,55.4c1.1-1.2,2.2-2.4,3.4-3.6l-1.4-1.4c-1.2,1.2-2.3,2.4-3.4,3.7L62.2,55.4z"/>
<path class="st0" d="M55.7,62.9c1.1-1.3,2.1-2.5,3.2-3.8l-1.5-1.3c-1.1,1.3-2.2,2.5-3.2,3.8L55.7,62.9z"/>
<path class="st0" d="M49.6,70.7c1-1.3,2-2.6,3-3.9L51,65.5c-1,1.3-2,2.6-3,4L49.6,70.7z"/>
<path class="st0" d="M43.9,78.8c0.9-1.4,1.9-2.7,2.8-4.1l-1.6-1.2c-1,1.4-1.9,2.7-2.8,4.1L43.9,78.8z"/>
<path class="st0" d="M38.5,87.2c0.9-1.4,1.7-2.8,2.6-4.2l-1.7-1.1c-0.9,1.4-1.8,2.8-2.6,4.3L38.5,87.2z"/>
<path class="st0" d="M33.6,95.8c0.8-1.5,1.6-2.9,2.4-4.3l-1.7-1c-0.8,1.4-1.6,2.9-2.4,4.4L33.6,95.8z"/>
<path class="st0" d="M29.1,104.6c0.7-1.5,1.5-3,2.2-4.4l-1.8-0.9c-0.8,1.5-1.5,3-2.2,4.5L29.1,104.6z"/>
<path class="st0" d="M25,113.7c0.7-1.5,1.3-3,2-4.5l-1.8-0.8c-0.7,1.5-1.4,3-2,4.6L25,113.7z"/>
<path class="st0" d="M21.3,122.9c0.6-1.6,1.2-3.1,1.8-4.6l-1.9-0.7c-0.6,1.5-1.2,3.1-1.8,4.7L21.3,122.9z"/>
<path class="st0" d="M18,132.2c0.5-1.6,1-3.1,1.6-4.7l-1.9-0.7c-0.6,1.6-1.1,3.2-1.6,4.7L18,132.2z"/>
<path class="st0" d="M15.1,141.7c0.4-1.6,0.9-3.2,1.4-4.8l-1.9-0.6c-0.5,1.6-0.9,3.2-1.4,4.8L15.1,141.7z"/>
<path class="st0" d="M12.7,151.4c0.4-1.6,0.8-3.2,1.2-4.8l-1.9-0.5c-0.4,1.6-0.8,3.2-1.2,4.9L12.7,151.4z"/>
<path class="st0" d="M10.7,161.1c0.3-1.6,0.6-3.3,0.9-4.9l-2-0.4c-0.3,1.6-0.7,3.3-1,4.9L10.7,161.1z"/>
<path class="st0" d="M9.1,170.9c0.2-1.6,0.5-3.3,0.7-4.9l-2-0.3c-0.3,1.6-0.5,3.3-0.7,5L9.1,170.9z"/>
<path class="st0" d="M8,180.7c0.1-1.6,0.3-3.3,0.5-4.9l-2-0.2c-0.2,1.7-0.4,3.3-0.5,5L8,180.7z"/>
<path class="st0" d="M7.4,190.6c0.1-1.7,0.2-3.3,0.3-5l-2-0.1c-0.1,1.7-0.2,3.3-0.3,5L7.4,190.6z"/>
<path class="st0" d="M7.2,200.6c0-1.7,0-3.3,0-5l-2,0c0,1.7,0,3.3,0,5L7.2,200.6z"/>
<path class="st0" d="M7.4,207.9c0-0.8-0.1-1.6-0.1-2.4l-2,0.1c0,0.8,0.1,1.7,0.1,2.5l-4.9,0.4L7,218l4.9-10.4L7.4,207.9z"/>
</svg>
