<svg width="120" height="52" viewBox="0 0 120 52" fill="none" xmlns="http://www.w3.org/2000/svg">
<path d="M19.0001 52L19.0001 36.5L42.3828 36.5L19.0001 52Z" fill="#8609FF"/>
<rect width="120" height="39" fill="black"/>
<g clip-path="url(#clip0)">
<path d="M36.4549 27C32.8645 26.9927 29.8988 24.8016 28.8943 21.3512C28.1023 18.6262 28.3247 15.974 29.8813 13.5354C31.4129 11.1356 33.704 9.98304 36.6048 10.0097C40.4901 10.0461 43.4534 12.6206 44.3179 16.224C44.9575 18.8858 44.5877 21.4191 42.9811 23.7073C41.4845 25.8377 39.1184 27.0049 36.4549 27ZM42.399 18.5073C42.399 17.0805 42.0417 15.7023 41.3496 14.6055C40.1753 12.742 38.4538 11.8102 36.2026 11.8951C34.0463 11.9776 32.4548 13.0137 31.5253 14.8797C30.356 17.2261 30.3385 19.6405 31.4653 22.0087C33.3318 25.9372 38.5337 25.9688 40.8474 23.1007C41.9367 21.7515 42.379 20.1961 42.399 18.5073Z" fill="white"/>
<path d="M74.7202 18.5028C74.7476 16.3311 75.3273 14.3317 76.789 12.6429C78.368 10.8157 80.4293 9.97615 82.8729 10.0077C86.8931 10.0611 89.8638 12.8151 90.6334 16.4961C91.1531 18.9809 90.8208 21.3588 89.3716 23.499C87.7026 25.9667 85.284 27.1096 82.2533 26.9762C78.5254 26.8111 75.8595 24.2803 75.03 20.9269C74.8351 20.1383 74.7726 19.3181 74.6477 18.5125C74.6752 18.5101 74.6977 18.5077 74.7202 18.5028ZM88.6445 18.925C88.647 17.2459 88.3947 16.04 87.7801 14.9262C86.7032 12.9704 85.0242 11.8979 82.718 11.8931C80.4593 11.8882 78.7728 12.9074 77.7859 14.8631C76.6041 17.2047 76.5866 19.619 77.7034 21.9921C79.5673 25.9546 84.8218 25.9861 87.1304 23.0598C88.1973 21.7131 88.6321 20.1747 88.6445 18.925Z" fill="white"/>
<path d="M58.3972 15.1565C57.7026 15.1565 57.018 15.1565 56.3159 15.1565C56.2859 14.9502 56.2709 14.7488 56.2234 14.5547C55.8886 13.191 55.0266 12.2981 53.6175 11.9802C52.2483 11.6721 50.9165 11.8007 49.7597 12.6499C48.9377 13.2541 48.5754 14.0816 48.7928 15.0886C48.9027 15.603 49.2525 15.9767 49.6748 16.2848C50.187 16.6561 50.7716 16.8623 51.3863 17.0031C52.4007 17.236 53.4176 17.4592 54.432 17.6922C55.5588 17.9518 56.6107 18.3716 57.4827 19.1311C59.4416 20.8393 59.3841 23.6589 57.3803 25.3453C56.2434 26.3014 54.9192 26.8134 53.4351 26.9371C51.7211 27.0803 50.0795 26.8328 48.6229 25.8913C47.0463 24.8697 46.1893 23.426 46.0694 21.5818C46.0644 21.5139 46.0694 21.446 46.0694 21.3635C46.769 21.3635 47.4436 21.3635 48.1182 21.3635C48.1881 21.6983 48.2206 22.0332 48.3305 22.3438C48.8952 23.9598 50.112 24.8164 51.811 25.0566C53.0678 25.2337 54.2696 25.0639 55.3639 24.3893C55.8062 24.1151 56.171 23.7657 56.4233 23.3144C56.9655 22.3365 56.7631 21.2713 55.8986 20.5482C55.3065 20.0532 54.5969 19.7887 53.8498 19.614C52.7205 19.3495 51.5861 19.1117 50.4618 18.8399C49.3674 18.5779 48.373 18.1217 47.6085 17.2894C46.2318 15.7874 46.2667 13.4895 47.6784 11.9681C48.7003 10.8665 49.9971 10.2793 51.4912 10.0803C52.9054 9.89344 54.2846 10.0148 55.5688 10.6578C57.3553 11.5532 58.2697 13.0139 58.4172 14.9405C58.4197 14.9842 58.4197 15.0279 58.4197 15.0716C58.4172 15.091 58.4097 15.1055 58.3972 15.1565Z" fill="white"/>
<path d="M62.4622 21.3683C62.5072 22.1982 62.7795 22.9334 63.3067 23.5692C64.1237 24.5592 65.2281 25.0056 66.5024 25.093C67.8716 25.1852 69.1458 24.9256 70.1852 23.9914C71.437 22.8655 71.2996 21.1766 69.8504 20.3007C69.3382 19.9901 68.7411 19.7766 68.1539 19.6188C67.0371 19.3204 65.8952 19.1044 64.7684 18.8351C63.674 18.573 62.6796 18.1168 61.9175 17.2846C60.5408 15.7826 60.5783 13.4847 61.99 11.9633C63.0119 10.8616 64.3086 10.2744 65.8028 10.0779C67.2169 9.89103 68.5961 10.0148 69.8804 10.6578C71.6668 11.5532 72.5788 13.0139 72.7287 14.943C72.7312 14.9867 72.7312 15.0303 72.7312 15.074C72.7312 15.091 72.7237 15.108 72.7137 15.1468C72.0291 15.1468 71.337 15.1468 70.6624 15.1468C70.5675 14.7683 70.515 14.38 70.3751 14.0258C69.9479 12.9533 69.1383 12.252 67.984 11.9899C66.5948 11.6745 65.2481 11.791 64.0738 12.6524C63.2518 13.2566 62.892 14.084 63.1093 15.091C63.2218 15.6054 63.5691 15.9791 63.9938 16.2848C64.506 16.6537 65.0907 16.8599 65.7053 17.0007C66.7122 17.2312 67.7192 17.4544 68.7236 17.6849C69.8604 17.9446 70.9223 18.3643 71.7993 19.1311C73.7581 20.8418 73.7007 23.6589 71.6943 25.3454C70.5575 26.3014 69.2308 26.811 67.7491 26.9371C66.0351 27.0803 64.3936 26.8328 62.9369 25.8889C61.3429 24.8552 60.4834 23.392 60.3834 21.5261C60.3809 21.4824 60.3834 21.4387 60.3834 21.3708C61.068 21.3683 61.7501 21.3683 62.4622 21.3683Z" fill="white"/>
<path d="M104.835 26.537C104.373 26.537 103.981 26.5394 103.586 26.537C103.106 26.5346 102.626 26.5273 102.147 26.5224C101.887 26.1415 101.627 25.7605 101.37 25.3771C100.193 23.6228 99.0185 21.8708 97.8417 20.1165C97.7943 20.0437 97.7418 19.9733 97.6743 19.8811C97.5994 19.9855 97.5369 20.068 97.4794 20.1553C96.0653 22.2106 94.6511 24.2634 93.2444 26.321C93.1295 26.4909 93.007 26.5467 92.8047 26.5443C92.0626 26.5321 91.318 26.5394 90.521 26.5394C90.6084 26.4108 90.6634 26.3235 90.7234 26.2385C92.5423 23.6664 94.3613 21.0919 96.1877 18.5223C96.3151 18.3427 96.3201 18.2238 96.1902 18.0418C94.4762 15.6129 92.7697 13.1767 91.0607 10.7429C91.0057 10.6653 90.9532 10.5877 90.8758 10.4736C90.9907 10.4663 91.0582 10.459 91.1256 10.459C91.8502 10.459 92.5773 10.4639 93.3019 10.4542C93.4643 10.4518 93.5642 10.4954 93.6567 10.6313C94.7385 12.2352 95.8279 13.8319 96.9148 15.4334L104.835 26.537Z" fill="white"/>
<path d="M97.7268 15.7605C98.0966 16.0056 98.5763 15.9741 98.9361 15.6295C99.101 15.4718 99.2384 15.2801 99.3684 15.0908C100.355 13.6277 101.34 12.1621 102.317 10.6916C102.422 10.5339 102.534 10.4708 102.729 10.4732C103.471 10.4853 104.213 10.4781 105 10.4781C104.935 10.5824 104.895 10.6552 104.848 10.7256C103.531 12.611 102.214 14.4939 100.897 16.3793C100.847 16.4521 100.795 16.5249 100.74 16.5953C100.323 17.1267 99.7456 18.0511 99.1885 17.5998C98.4339 16.7651 97.7268 15.7605 97.7268 15.7605Z" fill="#8609FF"/>
<path d="M28.4896 10.4492H22.7905V10.4443H20.6992V10.4492H15V12.4826H20.6992V26.4471H22.7905V12.4826H28.4896V10.4492Z" fill="white"/>
</g>
<defs>
<clipPath id="clip0">
<rect width="90" height="17" fill="white" transform="translate(15 10)"/>
</clipPath>
</defs>
</svg>
