<?xml version="1.0" encoding="utf-8"?><svg viewBox="0 0 572 588" xmlns="http://www.w3.org/2000/svg" xmlns:xlink="http://www.w3.org/1999/xlink"><style>:root>svg{display:none}:root>svg:target{display:block}</style><svg version="1.1" id="arrow-1" x="0" y="0" viewBox="0 0 275 226" xml:space="preserve" xmlns="http://www.w3.org/2000/svg"><style>.ast0{fill-rule:evenodd;clip-rule:evenodd;fill:#fff}</style><path class="ast0" d="M219.8 3h-5V1h5v2zM229.8 3.4c-1.6-.1-3.3-.3-5-.3l.1-2c1.7.1 3.4.2 5 .3l-.1 2zM209.8 3.2c-1.6.1-3.3.2-5 .4l-.2-2c1.7-.1 3.4-.3 5-.4l.2 2zM239.7 4.7c-1.6-.3-3.3-.5-4.9-.7l.3-2c1.7.2 3.3.5 5 .7l-.4 2zM199.8 4c-1.6.2-3.3.4-5 .7l-.3-2c1.7-.2 3.4-.5 5-.7l.3 2zM189.9 5.5c-1.6.3-3.3.6-4.9.9l-.4-2c1.7-.3 3.3-.7 5-.9l.3 2zM249.5 6.9l-4.8-1.2.4-2c1.7.4 3.3.8 4.9 1.2l-.5 2zM180.1 7.5c-1.6.4-3.3.8-4.9 1.2l-.5-1.9c1.7-.4 3.3-.8 4.9-1.2l.5 1.9zM258.9 9.9c-1.5-.6-3.1-1.1-4.7-1.7l.6-1.9c1.6.5 3.2 1.1 4.8 1.7l-.7 1.9zM269.6 6.8L275 17l-11.5-.5 2.3-3.6c-.7-.4-1.5-.7-2.2-1l.8-1.8 2.4 1.2 2.8-4.5zM170.4 10c-1.6.5-3.2.9-4.8 1.4l-.6-1.9c1.6-.5 3.3-1 4.9-1.4l.5 1.9zM160.8 12.9c-1.6.5-3.2 1.1-4.7 1.6l-.7-1.9c1.6-.6 3.2-1.1 4.8-1.7l.6 2zM151.3 16.4c-1.6.6-3.1 1.2-4.7 1.9l-.8-1.8c1.6-.6 3.1-1.3 4.7-1.9l.8 1.8zM142 20.2c-1.5.7-3 1.3-4.6 2.1l-.8-1.8c1.5-.7 3.1-1.4 4.6-2.1l.8 1.8zM132.9 24.4c-1.5.7-3 1.5-4.5 2.3l-.9-1.8c1.5-.8 3-1.5 4.5-2.3l.9 1.8zM124 29c-1.5.8-2.9 1.6-4.4 2.4l-1-1.7c1.5-.8 3-1.7 4.4-2.5l1 1.8zM115.3 33.9c-1.4.9-2.9 1.7-4.3 2.6l-1.1-1.7c1.4-.9 2.9-1.8 4.3-2.6l1.1 1.7zM106.7 39.3c-1.4.9-2.8 1.8-4.2 2.8l-1.1-1.7c1.4-1 2.8-1.9 4.2-2.8l1.1 1.7zM98.4 44.9c-1.4 1-2.7 1.9-4.1 2.9l-1.2-1.6c1.4-1 2.7-2 4.1-3l1.2 1.7zM90.4 50.9c-1.3 1-2.6 2.1-3.9 3.1l-1.3-1.6c1.3-1.1 2.6-2.1 4-3.1l1.2 1.6zM82.6 57.2c-1.3 1.1-2.6 2.2-3.8 3.3L77.4 59c1.3-1.1 2.6-2.2 3.8-3.3l1.4 1.5zM75 63.8c-1.2 1.1-2.5 2.3-3.7 3.4L70 65.8c1.2-1.2 2.5-2.3 3.7-3.4l1.3 1.4zM67.7 70.8c-1.2 1.2-2.4 2.4-3.5 3.6L62.8 73c1.2-1.2 2.4-2.4 3.5-3.6l1.4 1.4zM60.8 78c-1.1 1.2-2.3 2.5-3.4 3.7l-1.5-1.3c1.1-1.3 2.3-2.5 3.4-3.8l1.5 1.4zM54.1 85.5c-1.1 1.3-2.2 2.6-3.2 3.9l-1.6-1.3c1.1-1.3 2.1-2.6 3.2-3.9l1.6 1.3zM47.8 93.3c-1 1.3-2 2.6-3 4l-1.6-1.2c1-1.4 2-2.7 3.1-4l1.5 1.2zM41.8 101.3c-1 1.4-1.9 2.7-2.9 4.1l-1.7-1.1c.9-1.4 1.9-2.8 2.9-4.2l1.7 1.2zM36.2 109.7c-.9 1.4-1.8 2.8-2.7 4.3l-1.7-1c.9-1.4 1.8-2.9 2.7-4.3l1.7 1zM30.9 118.2c-.8 1.4-1.7 2.9-2.5 4.4l-1.8-1c.8-1.5 1.6-2.9 2.5-4.4l1.8 1zM26.1 127c-.8 1.5-1.5 3-2.3 4.5l-1.8-.9c.7-1.5 1.5-3 2.3-4.5l1.8.9zM21.7 136c-.7 1.5-1.4 3-2.1 4.6l-1.8-.8c.7-1.6 1.4-3.1 2.1-4.6l1.8.8zM17.7 145.2c-.6 1.5-1.2 3.1-1.8 4.7l-1.9-.7c.6-1.6 1.2-3.2 1.9-4.7l1.8.7zM14.1 154.6c-.6 1.6-1.1 3.1-1.6 4.7l-1.9-.6c.5-1.6 1.1-3.2 1.6-4.8l1.9.7zM11 164.1c-.5 1.6-.9 3.2-1.4 4.8l-1.9-.5c.4-1.6.9-3.3 1.4-4.9l1.9.6zM8.3 173.8c-.4 1.6-.8 3.3-1.2 4.9l-2-.4c.4-1.7.8-3.3 1.2-4.9l2 .4zM6.1 183.6c-.3 1.6-.6 3.3-.9 4.9l-2-.3c.3-1.7.6-3.3.9-5l2 .4zM4.4 193.5c-.2 1.6-.5 3.3-.7 5l-2-.3c.2-1.7.4-3.3.7-5l2 .3zM3.1 203.4c-.2 1.7-.3 3.3-.5 5l-2-.2c.1-1.7.3-3.4.5-5.1l2 .3zM2.4 213.4c-.1 1.7-.2 3.3-.2 5l-2-.1c.1-1.7.1-3.4.2-5l2 .1zM2 223.5v2.5H0v-2.6l2 .1z"/></svg><svg version="1.1" id="arrow-2" x="0" y="0" viewBox="0 0 102 278" xml:space="preserve" xmlns="http://www.w3.org/2000/svg"><style>.bst0{fill-rule:evenodd;clip-rule:evenodd;fill:#fff}</style><path class="bst0" d="M61.1 2c1.6.1 3.3.2 4.9.4l.2-2C64.5.2 62.8.1 61.1 0v2zM51.3 2.4c1.6-.2 3.2-.3 4.9-.4l-.1-2c-1.7.1-3.4.2-5.1.4l.3 2zM70.9 3c1.6.3 3.2.6 4.9 1l.4-2c-1.7-.4-3.3-.7-5-1l-.3 2zM41.8 4.6c1.5-.5 3.1-.9 4.7-1.3l-.4-2c-1.7.4-3.3.8-4.9 1.4l.6 1.9zM90.5 13.2L102 12l-6.8-9.3-2 4.6-2.4-.9-.7 1.9c.8.3 1.5.6 2.3.9l-1.9 4zM80.5 5.2c1.5.4 3.1.9 4.7 1.4l.6-1.9c-1.6-.5-3.2-1-4.8-1.4l-.5 1.9zM32.9 8.7c1.4-.8 2.8-1.6 4.3-2.3l-.8-1.8c-1.6.7-3 1.5-4.5 2.4l1 1.7zM25.2 14.7c1.2-1.1 2.4-2.2 3.7-3.2l-1.2-1.6c-1.3 1-2.6 2.2-3.8 3.3l1.3 1.5zM18.8 22.1c1-1.4 2-2.7 3-3.9l-1.5-1.3c-1.1 1.3-2.1 2.6-3.1 4l1.6 1.2zM13.8 30.6c.7-1.5 1.5-3 2.4-4.4l-1.7-1c-.9 1.4-1.7 2.9-2.4 4.5l1.7.9zM10 39.7c.6-1.6 1.2-3.1 1.8-4.6l-1.8-.8c-.6 1.5-1.3 3.1-1.8 4.7l1.8.7zM7.2 49.2c.4-1.6.8-3.2 1.3-4.8l-1.9-.6c-.5 1.6-.9 3.2-1.3 4.9l1.9.5zM5.1 58.9c.3-1.6.6-3.3.9-4.9l-2-.4c-.3 1.6-.6 3.3-.9 4.9l2 .4zM3.8 68.7c.2-1.7.4-3.3.6-4.9l-2-.3c-.2 1.6-.4 3.3-.6 5l2 .2zM3 78.7c.1-1.7.2-3.3.3-5l-2-.2c-.1 1.7-.2 3.3-.3 5l2 .2zM2.7 88.6c0-1.7 0-3.4.1-5l-2-.1c0 1.7-.1 3.4-.1 5.1h2zM2.9 98.6c-.1-1.7-.1-3.4-.1-5h-2c0 1.7.1 3.4.1 5.1l2-.1zM3.4 108.5c-.1-1.7-.2-3.3-.3-5l-2 .1c.1 1.7.2 3.3.3 5l2-.1zM4.2 118.4c-.2-1.7-.3-3.3-.5-4.9l-2 .2c.1 1.6.3 3.3.5 5l2-.3zM5.4 128.4c-.2-1.6-.4-3.3-.6-4.9l-2 .2c.2 1.6.4 3.3.6 5l2-.3zM6.8 138.3c-.3-1.7-.5-3.3-.8-5l-2 .3c.2 1.7.5 3.3.8 5l2-.3zM8.5 148.1c-.3-1.6-.6-3.3-.9-4.9l-2 .3c.3 1.6.6 3.3.9 5l2-.4zM10.5 157.9c-.3-1.6-.7-3.3-1-4.9l-2 .4c.3 1.6.7 3.3 1 4.9l2-.4zM12.6 167.6c-.4-1.6-.8-3.2-1.1-4.9l-2 .4c.4 1.6.7 3.2 1.1 4.9l2-.4zM15 177.3l-1.2-4.8-1.9.5c.4 1.6.8 3.2 1.2 4.9l1.9-.6zM17.6 186.9c-.5-1.6-.9-3.2-1.3-4.8l-1.9.5c.4 1.6.9 3.2 1.3 4.8l1.9-.5zM20.5 196.5c-.5-1.6-1-3.2-1.4-4.8l-1.9.6c.5 1.6.9 3.2 1.4 4.8l1.9-.6zM23.5 206l-1.5-4.8-1.9.6 1.5 4.8 1.9-.6zM26.7 215.5c-.6-1.6-1.1-3.1-1.6-4.7l-1.9.6c.5 1.6 1.1 3.2 1.6 4.7l1.9-.6zM30.1 224.9c-.6-1.6-1.2-3.1-1.7-4.7l-1.9.7c.6 1.6 1.2 3.1 1.7 4.7l1.9-.7zM33.7 234.2c-.6-1.5-1.2-3.1-1.8-4.6l-1.9.7c.6 1.6 1.2 3.1 1.8 4.7l1.9-.8zM37.6 243.4c-.7-1.5-1.3-3.1-1.9-4.6l-1.8.8c.6 1.5 1.3 3.1 2 4.6l1.7-.8zM41.6 252.5c-.7-1.5-1.4-3-2-4.5l-1.8.8c.7 1.5 1.4 3 2.1 4.6l1.7-.9zM45.9 261.5c-.7-1.5-1.4-3-2.2-4.5l-1.8.9c.7 1.5 1.4 3 2.2 4.5l1.8-.9zM50.4 270.5c-.8-1.5-1.5-3-2.3-4.5l-1.8.9c.8 1.5 1.5 3 2.3 4.5l1.8-.9zM53.9 277c-.4-.7-.8-1.4-1.2-2.2l-1.8.9c.4.7.8 1.5 1.2 2.2l1.8-.9z"/></svg><svg version="1.1" id="arrow-3" x="0" y="0" viewBox="0 0 490 221" xml:space="preserve" xmlns="http://www.w3.org/2000/svg"><style>.cst0{fill-rule:evenodd;clip-rule:evenodd;fill:#fff}</style><path class="cst0" d="M65.2 2.8h5v-2h-5v2zM55.3 3c1.6-.1 3.3-.1 4.9-.2v-2c-1.7 0-3.3.1-5 .2l.1 2zM75.2 2.9c1.7.1 3.3.1 5 .2l.1-2C78.6 1 76.9.9 75.2.9v2zM45.3 3.7c1.6-.2 3.3-.3 5-.4l-.1-2c-1.7.1-3.4.3-5 .4l.1 2zM85.2 3.4c1.6.1 3.3.2 4.9.4l.2-2c-1.7-.1-3.3-.3-5-.4l-.1 2zM35.4 4.9c1.6-.3 3.3-.5 5-.7l-.2-2c-1.7.2-3.4.4-5.1.7l.3 2zM95.1 4.2c1.7.2 3.3.3 5 .5l.2-2c-1.7-.2-3.4-.4-5-.5l-.2 2zM105.1 5.3c1.6.2 3.3.4 5 .6l.3-2c-1.7-.2-3.3-.4-5-.6l-.3 2zM25.6 6.8c1.6-.4 3.2-.7 4.9-1l-.4-2c-1.7.3-3.4.7-5 1.1l.5 1.9zM115.1 6.6c1.6.2 3.2.5 4.9.7l.3-2c-1.6-.3-3.3-.5-4.9-.7l-.3 2zM5.4 5.8L0 16l11.5-.4-2.2-3.5 2.1-.9-.8-1.9c-.8.3-1.6.7-2.4 1L5.4 5.8zM16.1 9.5c1.5-.5 3.1-1 4.7-1.5l-.5-1.9c-1.7.5-3.3 1-4.8 1.5l.6 1.9zM124.9 8.1c1.6.3 3.3.6 5 .8l.3-2c-1.7-.3-3.3-.6-5-.9l-.3 2.1zM134.8 9.9c1.6.3 3.2.6 4.9.9l.4-2c-1.6-.3-3.3-.6-4.9-.9l-.4 2zM144.6 11.8c1.6.3 3.3.7 5 1l.4-2c-1.7-.4-3.3-.7-5-1l-.4 2zM154.3 13.9c1.6.4 3.2.7 4.9 1.1l.5-1.9c-1.6-.4-3.3-.8-4.9-1.1l-.5 1.9zM164.1 16.2c1.6.4 3.3.8 4.9 1.2l.5-1.9c-1.6-.4-3.3-.8-4.9-1.2l-.5 1.9zM173.8 18.6c1.6.4 3.2.8 4.8 1.3l.5-1.9c-1.6-.4-3.2-.9-4.8-1.3l-.5 1.9zM183.5 21.2c1.6.4 3.2.9 4.8 1.4l.5-1.9c-1.6-.5-3.2-.9-4.8-1.4l-.5 1.9zM193.1 23.9c1.6.5 3.2.9 4.8 1.4l.6-1.9c-1.6-.5-3.2-1-4.8-1.4l-.6 1.9zM202.7 26.8l4.8 1.5.6-1.9-4.8-1.5-.6 1.9zM212.2 29.8c1.6.5 3.2 1 4.8 1.6l.6-1.9c-1.6-.5-3.2-1-4.8-1.6l-.6 1.9zM221.8 33c1.6.5 3.2 1.1 4.7 1.6l.7-1.9c-1.6-.6-3.2-1.1-4.7-1.6l-.7 1.9zM231.2 36.2c1.6.6 3.1 1.1 4.7 1.7l.7-1.9c-1.6-.6-3.1-1.1-4.7-1.7l-.7 1.9zM240.6 39.7c1.6.6 3.1 1.2 4.7 1.8l.7-1.9c-1.6-.6-3.1-1.2-4.7-1.8l-.7 1.9zM250 43.2c1.6.6 3.1 1.2 4.7 1.8l.7-1.9c-1.6-.6-3.1-1.2-4.7-1.8l-.7 1.9zM259.3 46.9c1.5.6 3.1 1.3 4.6 1.9l.8-1.8c-1.5-.6-3.1-1.3-4.7-1.9l-.7 1.8zM268.5 50.7c1.5.6 3.1 1.3 4.6 1.9l.8-1.8c-1.5-.7-3.1-1.3-4.6-2l-.8 1.9zM277.7 54.6c1.5.7 3.1 1.3 4.6 2l.8-1.8c-1.5-.7-3.1-1.4-4.6-2l-.8 1.8zM286.9 58.7c1.5.7 3 1.4 4.6 2.1l.8-1.8c-1.5-.7-3-1.4-4.6-2.1l-.8 1.8zM296 62.9l4.5 2.1.9-1.8-4.5-2.1-.9 1.8zM305 67.2c1.5.7 3 1.5 4.5 2.2l.9-1.8c-1.5-.7-3-1.5-4.5-2.2l-.9 1.8zM314 71.6c1.5.8 3 1.5 4.5 2.3l.9-1.8c-1.5-.8-3-1.5-4.5-2.3l-.9 1.8zM322.9 76.2c1.5.8 3 1.6 4.4 2.3l.9-1.8c-1.5-.8-3-1.6-4.4-2.3l-.9 1.8zM331.7 80.9c1.5.8 2.9 1.6 4.4 2.4l1-1.7c-1.5-.8-2.9-1.6-4.4-2.4l-1 1.7zM340.5 85.8c1.5.8 2.9 1.6 4.4 2.5l1-1.7c-1.5-.8-2.9-1.7-4.4-2.5l-1 1.7zM349.2 90.8c1.4.8 2.9 1.7 4.3 2.5l1-1.7c-1.4-.9-2.9-1.7-4.3-2.5l-1 1.7zM357.7 95.9c1.4.9 2.9 1.7 4.3 2.6l1.1-1.7c-1.4-.9-2.9-1.8-4.3-2.6l-1.1 1.7zM366.2 101.2l4.2 2.7 1.1-1.7-4.2-2.7-1.1 1.7zM374.6 106.6c1.4.9 2.8 1.8 4.2 2.8l1.1-1.7c-1.4-.9-2.8-1.9-4.2-2.8l-1.1 1.7zM383 112.2c1.4.9 2.7 1.9 4.1 2.8l1.1-1.6c-1.4-1-2.7-1.9-4.1-2.8l-1.1 1.6zM391.1 118c1.4 1 2.7 2 4.1 2.9l1.2-1.6c-1.4-1-2.7-2-4.1-3l-1.2 1.7zM399.2 123.9c1.3 1 2.7 2 4 3l1.2-1.6c-1.3-1-2.6-2-4-3l-1.2 1.6zM407.2 129.9c1.3 1 2.6 2.1 3.9 3.1l1.2-1.6c-1.3-1-2.6-2.1-4-3.1l-1.1 1.6zM415 136.2c1.3 1.1 2.6 2.1 3.8 3.2l1.3-1.5c-1.3-1.1-2.5-2.1-3.8-3.2l-1.3 1.5zM422.6 142.6c1.3 1.1 2.5 2.2 3.8 3.3l1.3-1.5c-1.3-1.1-2.5-2.2-3.8-3.3l-1.3 1.5zM430.1 149.2c1.2 1.1 2.5 2.2 3.7 3.4l1.4-1.5c-1.2-1.1-2.4-2.3-3.7-3.4l-1.4 1.5zM437.5 156c1.2 1.2 2.4 2.3 3.6 3.5l1.4-1.4c-1.2-1.2-2.4-2.3-3.6-3.5l-1.4 1.4zM444.6 163c1.2 1.2 2.3 2.4 3.5 3.6l1.4-1.4c-1.2-1.2-2.3-2.4-3.5-3.6l-1.4 1.4zM451.5 170.3c1.1 1.2 2.3 2.5 3.4 3.7l1.5-1.3c-1.1-1.2-2.2-2.5-3.4-3.7l-1.5 1.3zM458.1 177.7c1.1 1.3 2.2 2.5 3.3 3.8l1.5-1.3-3.3-3.9-1.5 1.4zM464.6 185.4c1 1.3 2.1 2.6 3.1 3.9l1.6-1.2c-1-1.3-2.1-2.6-3.1-3.9l-1.6 1.2zM470.6 193.3c1 1.3 2 2.7 3 4.1l1.6-1.2c-1-1.4-2-2.7-3-4.1l-1.6 1.2zM476.5 201.4c.9 1.4 1.8 2.7 2.7 4.1l1.7-1.1c-.9-1.4-1.8-2.8-2.8-4.2l-1.6 1.2zM481.9 209.8c.9 1.4 1.7 2.9 2.6 4.3l1.7-1c-.8-1.4-1.7-2.9-2.6-4.3l-1.7 1zM486.9 218.4c.4.7.8 1.4 1.2 2.2l1.8-.9c-.4-.7-.8-1.5-1.2-2.2l-1.8.9z"/></svg><svg version="1.1" id="arrow-4" x="0" y="0" viewBox="0 0 442 121" xml:space="preserve" xmlns="http://www.w3.org/2000/svg"><style>.dst0{fill-rule:evenodd;clip-rule:evenodd;fill:#fff}</style><path class="dst0" d="M162.8 2.4c1.7 0 3.3 0 5-.1v-2c-1.7 0-3.4 0-5 .1v2zM172.8 2.3c1.7 0 3.3 0 5 .1v-2c-1.7 0-3.3-.1-5-.1v2zM152.8 2.7c1.7-.1 3.3-.1 5-.2l-.1-2c-1.7.1-3.3.1-5 .2l.1 2zM182.8 2.5c1.7.1 3.3.1 5 .2l.1-2c-1.7-.1-3.4-.1-5-.2l-.1 2zM142.8 3.2c1.7-.1 3.3-.2 5-.3l-.1-2c-1.7.1-3.3.2-5 .3l.1 2zM192.8 2.9c1.7.1 3.3.2 5 .3l.1-2c-1.7-.1-3.3-.2-5-.3l-.1 2zM132.9 4c1.7-.2 3.3-.3 5-.4l-.2-2c-1.7.1-3.4.3-5 .4l.2 2zM202.8 3.6c1.6.1 3.3.3 5 .4l.2-2c-1.7-.2-3.3-.3-5-.4l-.2 2zM212.7 4.5c1.7.2 3.3.4 5 .6l.2-2c-1.7-.2-3.3-.4-5-.6l-.2 2zM123 5.1c1.6-.2 3.3-.4 4.9-.6l-.2-2c-1.7.2-3.3.4-5 .6l.3 2zM222.6 5.7c1.6.2 3.3.4 4.9.7l.3-2c-1.7-.2-3.3-.5-5-.7l-.2 2zM113 6.5c1.6-.2 3.3-.5 4.9-.7l-.3-2c-1.7.2-3.3.5-5 .7l.4 2zM232.5 7.1c1.6.3 3.3.5 4.9.8l.3-2c-1.7-.3-3.3-.5-5-.8l-.2 2zM103.2 8.1c1.6-.3 3.3-.6 5-.9l-.3-2c-1.7.3-3.3.6-5 .9l.3 2zM242.4 8.8c1.6.3 3.3.6 4.9.9l.4-2c-1.6-.3-3.3-.6-4.9-.9l-.4 2zM93.4 10c1.6-.3 3.2-.7 4.9-1l-.4-2c-1.6.3-3.3.7-4.9 1l.4 2zM252.2 10.7c1.6.3 3.3.7 4.9 1l.4-2c-1.6-.4-3.3-.7-4.9-1.1l-.4 2.1zM83.7 12.3l4.8-1.2-.5-1.9c-1.6.4-3.3.8-4.9 1.2l.6 1.9zM261.9 12.9c1.6.4 3.2.8 4.9 1.2l.5-1.9c-1.6-.4-3.3-.8-4.9-1.2l-.5 1.9zM74 14.9c1.6-.5 3.2-.9 4.8-1.3l-.5-1.9c-1.6.3-3.3.8-4.9 1.3l.6 1.9zM271.6 15.3c1.6.4 3.2.9 4.8 1.3l.5-1.9c-1.6-.4-3.2-.9-4.8-1.3l-.5 1.9zM64.4 17.8l4.8-1.5-.6-1.9c-1.6.5-3.3 1-4.8 1.5l.6 1.9zM281.2 17.9c1.6.5 3.2.9 4.8 1.4l.6-1.9c-1.6-.5-3.2-1-4.8-1.4l-.6 1.9zM55.1 21.1c1.5-.6 3.1-1.1 4.7-1.7l-.7-1.9c-1.6.6-3.2 1.1-4.7 1.7l.7 1.9zM290.8 20.9c1.6.5 3.2 1 4.7 1.6l.6-1.9c-1.6-.5-3.2-1.1-4.8-1.6l-.5 1.9zM45.9 24.9c1.5-.6 3-1.3 4.5-1.9l-.8-1.9c-1.5.6-3.1 1.3-4.6 1.9l.9 1.9zM300.3 24.1c1.6.6 3.1 1.1 4.7 1.7l.7-1.9c-1.6-.6-3.2-1.1-4.7-1.7l-.7 1.9zM36.8 29.1c1.4-.7 2.9-1.5 4.4-2.2l-.9-1.8c-1.5.7-3 1.4-4.5 2.2l1 1.8zM309.6 27.5c1.6.6 3.1 1.2 4.6 1.8l.7-1.9c-1.6-.6-3.1-1.2-4.7-1.8l-.6 1.9zM318.9 31.2c1.5.6 3.1 1.3 4.6 2l.8-1.8c-1.5-.7-3.1-1.3-4.6-2l-.8 1.8zM28.1 33.9c1.4-.8 2.8-1.7 4.3-2.5l-1-1.8c-1.5.8-2.9 1.7-4.4 2.5l1.1 1.8zM328.1 35.2l4.5 2.1.9-1.8c-1.5-.7-3-1.4-4.6-2.1l-.8 1.8zM19.8 39.4c1.3-.9 2.7-1.9 4.1-2.8l-1.1-1.7c-1.4.9-2.8 1.9-4.2 2.8l1.2 1.7zM337.1 39.4c1.5.7 3 1.5 4.5 2.2l.9-1.8c-1.5-.8-3-1.5-4.5-2.2l-.9 1.8zM12.1 45.5c1.2-1.1 2.4-2.1 3.8-3.2l-1.2-1.6c-1.3 1.1-2.6 2.1-3.8 3.2l1.2 1.6zM346 44c1.5.8 2.9 1.6 4.4 2.4l1-1.8c-1.5-.8-2.9-1.6-4.4-2.4l-1 1.8zM.7 46.5L0 58l10.3-5.2-3.4-2.2c.5-.5 1-1.1 1.5-1.6L7 47.6c-.6.6-1.2 1.3-1.8 1.9l-4.5-3zM354.8 48.8c1.4.8 2.9 1.6 4.3 2.5l1-1.7c-1.4-.8-2.9-1.7-4.3-2.5l-1 1.7zM363.4 53.8c1.4.9 2.8 1.7 4.3 2.6l1.1-1.7c-1.4-.9-2.8-1.8-4.3-2.7l-1.1 1.8zM371.8 59.1c1.4.9 2.8 1.8 4.1 2.8l1.1-1.7c-1.4-.9-2.8-1.9-4.2-2.8l-1 1.7zM380.1 64.7c1.4 1 2.7 1.9 4.1 2.9l1.2-1.6c-1.4-1-2.7-2-4.1-2.9l-1.2 1.6zM388.2 70.6c1.3 1 2.6 2 4 3l1.2-1.6c-1.3-1-2.7-2-4-3l-1.2 1.6zM396.1 76.7c1.3 1 2.6 2.1 3.9 3.2l1.3-1.5c-1.3-1.1-2.6-2.1-3.9-3.2l-1.3 1.5zM403.7 83.1c1.3 1.1 2.5 2.2 3.8 3.3l1.3-1.5c-1.3-1.1-2.5-2.2-3.8-3.3l-1.3 1.5zM411.2 89.8c1.2 1.1 2.4 2.3 3.6 3.4l1.4-1.4c-1.2-1.2-2.4-2.3-3.7-3.4l-1.3 1.4zM418.4 96.6c1.2 1.2 2.4 2.3 3.5 3.5l1.4-1.4c-1.2-1.2-2.4-2.4-3.5-3.6l-1.4 1.5zM425.4 103.8c1.1 1.2 2.3 2.4 3.4 3.7l1.5-1.3c-1.1-1.2-2.3-2.5-3.4-3.7l-1.5 1.3zM432.1 111.1c1.1 1.2 2.2 2.5 3.3 3.8l1.5-1.3c-1.1-1.3-2.2-2.5-3.3-3.8l-1.5 1.3zM438.6 118.7c.5.6 1.1 1.3 1.6 1.9l1.6-1.3c-.5-.7-1.1-1.3-1.6-2l-1.6 1.4z"/></svg><svg version="1.1" id="arrow-5" x="0" y="0" viewBox="0 0 288 218" xml:space="preserve" xmlns="http://www.w3.org/2000/svg"><style>.est0{fill-rule:evenodd;clip-rule:evenodd;fill:#fff}</style><path class="est0" d="M175.4 2.3c1.6 0 3.3 0 5 .1l.1-2c-1.7-.1-3.4-.1-5-.1l-.1 2zM165.5 2.6c1.6-.1 3.3-.2 4.9-.3l-.1-2c-1.7.1-3.3.1-5 .3l.2 2zM185.3 2.6c1.6.1 3.3.3 5 .4l.2-2c-1.7-.2-3.4-.3-5-.4l-.2 2zM155.7 3.7c1.6-.2 3.3-.4 4.9-.6l-.2-2c-1.7.2-3.3.4-5 .6l.3 2zM195.1 3.7c1.6.2 3.3.5 4.9.8l.3-2c-1.7-.3-3.3-.5-5-.8l-.2 2zM145.9 5.4c1.6-.3 3.2-.7 4.9-1l-.4-2c-1.7.3-3.3.6-4.9 1l.4 2zM204.9 5.4c1.6.3 3.2.7 4.8 1.1l.5-1.9c-1.6-.4-3.2-.8-4.8-1.1l-.5 1.9zM136.4 7.8c1.6-.5 3.2-.9 4.8-1.3l-.5-1.9c-1.6.4-3.2.9-4.9 1.3l.6 1.9zM214.5 7.7c1.6.4 3.2.9 4.8 1.4l.6-1.9c-1.6-.5-3.2-1-4.8-1.4l-.6 1.9zM126.9 10.9c1.5-.6 3.1-1.1 4.7-1.6l-.6-1.9c-1.6.5-3.2 1.1-4.7 1.6l.6 1.9zM224 10.6c1.6.5 3.1 1.1 4.7 1.7l.7-1.9c-1.6-.6-3.2-1.2-4.7-1.7l-.7 1.9zM117.8 14.6c1.5-.7 3-1.3 4.6-1.9l-.8-1.9c-1.6.6-3.1 1.3-4.6 2l.8 1.8zM233.3 14c1.5.6 3 1.2 4.5 1.9l.8-1.8c-1.5-.7-3.1-1.3-4.6-1.9l-.7 1.8zM108.9 19c1.5-.8 2.9-1.5 4.4-2.2l-.9-1.8c-1.5.7-3 1.5-4.5 2.3l1 1.7zM242.4 18c1.5.7 3 1.4 4.5 2.2l.9-1.8c-1.5-.8-3-1.5-4.5-2.2l-.9 1.8zM100.2 23.8c1.4-.9 2.8-1.7 4.3-2.5l-1-1.7c-1.5.8-2.9 1.7-4.3 2.5l1 1.7zM251.2 22.5c1.5.8 2.9 1.6 4.4 2.4l1-1.7c-1.5-.8-2.9-1.6-4.4-2.4l-1 1.7zM91.9 29.3c1.4-.9 2.7-1.9 4.1-2.8l-1-1.7c-1.4.9-2.8 1.8-4.2 2.8l1.1 1.7zM259.9 27.4c1.4.8 2.8 1.7 4.2 2.6l1.1-1.7c-1.4-.9-2.8-1.7-4.2-2.6l-1.1 1.7zM84 35.1l3.9-3-1.2-1.6c-1.3 1-2.7 2-4 3l1.3 1.6zM268.2 32.6c1.4.9 2.8 1.9 4.2 2.8l1.1-1.6c-1.4-1-2.8-1.9-4.2-2.9l-1.1 1.7zM276.4 38.3c1.3 1 2.7 1.9 4 2.9l1.2-1.6c-1.3-1-2.7-2-4-3l-1.2 1.7zM76.3 41.5c1.2-1.1 2.5-2.2 3.8-3.2l-1.3-1.5c-1.3 1.1-2.6 2.2-3.8 3.3l1.3 1.4zM284.4 44.3c.7.5 1.3 1 2 1.6l1.2-1.6c-.7-.5-1.3-1.1-2-1.6l-1.2 1.6zM69.1 48.3c1.2-1.2 2.4-2.3 3.6-3.4l-1.4-1.5c-1.2 1.1-2.4 2.3-3.6 3.5l1.4 1.4zM62.2 55.4c1.1-1.2 2.2-2.4 3.4-3.6l-1.4-1.4c-1.2 1.2-2.3 2.4-3.4 3.7l1.4 1.3zM55.7 62.9c1.1-1.3 2.1-2.5 3.2-3.8l-1.5-1.3c-1.1 1.3-2.2 2.5-3.2 3.8l1.5 1.3zM49.6 70.7l3-3.9-1.6-1.3c-1 1.3-2 2.6-3 4l1.6 1.2zM43.9 78.8c.9-1.4 1.9-2.7 2.8-4.1l-1.6-1.2c-1 1.4-1.9 2.7-2.8 4.1l1.6 1.2zM38.5 87.2c.9-1.4 1.7-2.8 2.6-4.2l-1.7-1.1c-.9 1.4-1.8 2.8-2.6 4.3l1.7 1zM33.6 95.8c.8-1.5 1.6-2.9 2.4-4.3l-1.7-1c-.8 1.4-1.6 2.9-2.4 4.4l1.7.9zM29.1 104.6c.7-1.5 1.5-3 2.2-4.4l-1.8-.9c-.8 1.5-1.5 3-2.2 4.5l1.8.8zM25 113.7c.7-1.5 1.3-3 2-4.5l-1.8-.8c-.7 1.5-1.4 3-2 4.6l1.8.7zM21.3 122.9c.6-1.6 1.2-3.1 1.8-4.6l-1.9-.7c-.6 1.5-1.2 3.1-1.8 4.7l1.9.6zM18 132.2c.5-1.6 1-3.1 1.6-4.7l-1.9-.7c-.6 1.6-1.1 3.2-1.6 4.7l1.9.7zM15.1 141.7c.4-1.6.9-3.2 1.4-4.8l-1.9-.6c-.5 1.6-.9 3.2-1.4 4.8l1.9.6zM12.7 151.4l1.2-4.8-1.9-.5c-.4 1.6-.8 3.2-1.2 4.9l1.9.4zM10.7 161.1c.3-1.6.6-3.3.9-4.9l-2-.4c-.3 1.6-.7 3.3-1 4.9l2.1.4zM9.1 170.9c.2-1.6.5-3.3.7-4.9l-2-.3c-.3 1.6-.5 3.3-.7 5l2 .2zM8 180.7c.1-1.6.3-3.3.5-4.9l-2-.2c-.2 1.7-.4 3.3-.5 5l2 .1zM7.4 190.6c.1-1.7.2-3.3.3-5l-2-.1c-.1 1.7-.2 3.3-.3 5l2 .1zM7.2 200.6v-5h-2v5h2zM7.4 207.9c0-.8-.1-1.6-.1-2.4l-2 .1c0 .8.1 1.7.1 2.5l-4.9.4L7 218l4.9-10.4-4.5.3z"/></svg><svg fill="none" viewBox="0 0 24 24" id="i-airbus" xmlns="http://www.w3.org/2000/svg"><path d="M23.748 10.903a2.514 2.514 0 00-1.167-1.167L3.611.556A2.514 2.514 0 00.18 3.754l3.298 8.245L.18 20.245a2.52 2.52 0 002.33 3.45c.382 0 .758-.085 1.1-.25l18.971-9.183a2.514 2.514 0 001.167-3.359zM2.881 21.933a.838.838 0 01-1.144-1.066l3.212-8.03h16.73L2.88 21.933zm2.068-10.772L1.737 3.13a.817.817 0 01.207-.922c.25-.243.626-.3.937-.142l18.797 9.094H4.95z" fill="#fff"/></svg><svg fill="none" viewBox="0 0 262 51" id="logo" xmlns="http://www.w3.org/2000/svg"><path d="M62.458 51c-10.452-.022-19.086-6.595-22.01-16.947-2.306-8.174-1.658-16.13 2.873-23.447C47.78 3.406 54.45-.05 62.894.03c11.31.11 19.937 7.833 22.454 18.643 1.862 7.985.785 15.585-3.892 22.45C77.1 47.513 70.211 51.015 62.458 51zM79.76 25.522c0-4.28-1.04-8.415-3.054-11.705-3.419-5.591-8.43-8.386-14.984-8.132-6.277.248-10.91 3.356-13.616 8.954-3.404 7.04-3.455 14.282-.175 21.387 5.434 11.786 20.577 11.88 27.313 3.276 3.17-4.047 4.458-8.714 4.516-13.78zM173.852 25.507c.08-6.515 1.768-12.513 6.023-17.58 4.596-5.481 10.597-8 17.711-7.905 11.703.16 20.351 8.422 22.591 19.465 1.513 7.454.546 14.588-3.673 21.009-4.859 7.403-11.899 10.832-20.722 10.431-10.852-.495-18.613-8.087-21.028-18.148-.567-2.365-.749-4.826-1.113-7.243.08-.007.146-.014.211-.029zm40.535 1.267c.008-5.038-.727-8.655-2.516-11.997-3.135-5.867-8.023-9.084-14.736-9.099-6.576-.015-11.485 3.043-14.358 8.91-3.441 7.025-3.492 14.268-.24 21.387 5.426 11.888 20.722 11.982 27.443 3.203 3.106-4.04 4.371-8.655 4.407-12.404zM126.334 15.469h-6.059c-.087-.619-.131-1.223-.269-1.805-.975-4.091-3.484-6.77-7.586-7.724-3.986-.924-7.863-.539-11.231 2.01-2.393 1.812-3.447 4.294-2.814 7.315.32 1.543 1.338 2.664 2.567 3.589 1.491 1.114 3.193 1.732 4.982 2.155 2.954.698 5.914 1.368 8.867 2.067 3.28.779 6.342 2.038 8.881 4.317 5.702 5.124 5.535 13.583-.298 18.642-3.31 2.869-7.165 4.405-11.485 4.776-4.99.43-9.769-.313-14.009-3.138-4.59-3.064-7.084-7.396-7.434-12.928-.014-.204 0-.408 0-.655h5.965c.203 1.004.298 2.009.618 2.94 1.644 4.849 5.186 7.419 10.132 8.14 3.659.53 7.157.021 10.343-2.003 1.287-.822 2.349-1.87 3.084-3.224 1.578-2.934.989-6.13-1.528-8.3-1.723-1.484-3.789-2.278-5.964-2.802-3.287-.793-6.59-1.507-9.863-2.322-3.186-.786-6.08-2.155-8.306-4.651-4.008-4.506-3.906-11.4.204-15.964C98.105 2.599 101.88.837 106.23.24c4.117-.56 8.132-.196 11.87 1.733 5.201 2.686 7.863 7.068 8.292 12.848.007.131.007.262.007.393-.007.058-.029.102-.065.255zM138.168 34.104c.131 2.49.924 4.696 2.459 6.603 2.378 2.97 5.593 4.31 9.302 4.571 3.986.277 7.696-.502 10.722-3.304 3.644-3.378 3.244-8.445-.975-11.073-1.491-.931-3.23-1.572-4.939-2.045-3.251-.896-6.575-1.543-9.855-2.351-3.186-.787-6.081-2.155-8.3-4.652-4.007-4.506-3.898-11.4.211-15.964 2.975-3.305 6.75-5.066 11.1-5.656 4.117-.56 8.132-.19 11.87 1.74 5.201 2.686 7.856 7.068 8.292 12.855.007.131.007.262.007.393 0 .051-.021.102-.051.219h-5.971c-.277-1.136-.429-2.3-.837-3.363-1.243-3.218-3.6-5.322-6.96-6.108-4.044-.946-7.965-.597-11.383 1.987-2.393 1.813-3.441 4.295-2.808 7.316.327 1.544 1.338 2.665 2.575 3.582 1.491 1.106 3.193 1.725 4.982 2.147 2.931.692 5.863 1.362 8.787 2.053 3.309.779 6.4 2.038 8.953 4.339 5.703 5.132 5.535 13.583-.305 18.642-3.31 2.869-7.172 4.397-11.485 4.776-4.99.43-9.768-.313-14.009-3.145-4.64-3.101-7.143-7.49-7.433-13.088-.008-.132 0-.263 0-.466 1.992-.008 3.978-.008 6.051-.008z" fill="#fff"/><path d="M261.52 49.61c-1.346 0-2.488.007-3.637 0-1.396-.008-2.793-.03-4.189-.044a524.665 524.665 0 01-2.262-3.436l-10.271-15.782c-.138-.218-.291-.43-.487-.706-.218.313-.4.56-.567.823-4.117 6.165-8.234 12.324-12.329 18.497-.335.51-.691.677-1.28.67-2.16-.037-4.328-.015-6.648-.015.254-.386.414-.648.589-.903 5.295-7.716 10.59-15.44 15.907-23.148.371-.54.386-.896.008-1.442-4.99-7.287-9.958-14.595-14.933-21.896-.16-.233-.313-.466-.538-.809.334-.021.531-.043.727-.043 2.109 0 4.226.014 6.335-.015.473-.007.764.124 1.033.532 3.15 4.811 6.321 9.601 9.485 14.406l23.057 33.31z" fill="#fff"/><path d="M240.827 17.282c1.076.735 2.473.64 3.52-.394.48-.473.88-1.048 1.258-1.616 2.873-4.39 5.739-8.786 8.583-13.197.306-.474.633-.663 1.2-.655 2.161.036 4.321.014 6.612.014-.189.313-.306.531-.444.743-3.833 5.656-7.666 11.305-11.499 16.96-.146.22-.298.438-.458.649-1.215 1.594-2.895 4.367-4.517 3.013-2.197-2.504-4.255-5.517-4.255-5.517z" fill="#8609FF"/><path d="M39.27 1.347H22.679v-.015H16.59v.015H0v6.1h16.59V49.34h6.089V7.447h16.59v-6.1z" fill="#fff"/></svg><svg fill="none" viewBox="0 0 262 51" id="logo-2" xmlns="http://www.w3.org/2000/svg"><path d="M62.458 51c-10.452-.022-19.086-6.595-22.01-16.947-2.305-8.174-1.658-16.131 2.873-23.447C47.78 3.406 54.45-.05 62.894.03c11.31.11 19.937 7.833 22.454 18.643 1.862 7.985.785 15.585-3.891 22.45C77.1 47.513 70.212 51.014 62.458 51zm17.304-25.478c0-4.28-1.04-8.415-3.055-11.706-3.419-5.59-8.43-8.386-14.984-8.13-6.277.247-10.91 3.355-13.616 8.953-3.404 7.04-3.455 14.282-.174 21.387 5.433 11.785 20.577 11.88 27.312 3.276 3.171-4.048 4.459-8.714 4.517-13.78zM173.852 25.507c.08-6.515 1.768-12.513 6.023-17.58 4.596-5.481 10.597-8 17.711-7.905 11.703.16 20.351 8.422 22.591 19.465 1.513 7.454.546 14.588-3.673 21.009-4.859 7.403-11.899 10.831-20.722 10.431-10.852-.495-18.613-8.087-21.028-18.148-.567-2.366-.749-4.826-1.113-7.243.08-.007.146-.014.211-.029zm40.535 1.267c.008-5.038-.727-8.655-2.516-11.997-3.135-5.867-8.023-9.085-14.736-9.1-6.576-.014-11.485 3.044-14.358 8.911-3.441 7.025-3.492 14.268-.24 21.387 5.426 11.887 20.722 11.982 27.443 3.203 3.106-4.04 4.371-8.655 4.407-12.404zM126.334 15.469h-6.059c-.087-.619-.131-1.223-.269-1.805-.975-4.091-3.484-6.77-7.586-7.724-3.986-.924-7.863-.539-11.231 2.01-2.393 1.812-3.447 4.294-2.814 7.315.32 1.543 1.338 2.664 2.567 3.589 1.491 1.114 3.193 1.732 4.982 2.155 2.954.698 5.914 1.368 8.867 2.067 3.28.779 6.342 2.038 8.881 4.317 5.702 5.124 5.535 13.583-.298 18.642-3.31 2.869-7.165 4.405-11.485 4.776-4.99.43-9.769-.313-14.009-3.138-4.59-3.064-7.084-7.396-7.434-12.928-.014-.204 0-.408 0-.655h5.965c.203 1.004.298 2.009.618 2.94 1.644 4.849 5.186 7.419 10.132 8.14 3.659.53 7.157.021 10.343-2.003 1.287-.822 2.349-1.87 3.084-3.224 1.578-2.934.989-6.13-1.528-8.3-1.723-1.484-3.789-2.278-5.964-2.802-3.287-.793-6.59-1.507-9.863-2.322-3.186-.786-6.08-2.155-8.306-4.651-4.008-4.506-3.906-11.4.204-15.964C98.105 2.599 101.88.837 106.23.24c4.117-.56 8.132-.196 11.87 1.733 5.201 2.686 7.863 7.068 8.292 12.848.007.131.007.262.007.393-.007.058-.029.102-.065.255zM138.168 34.104c.131 2.49.924 4.696 2.459 6.603 2.378 2.97 5.593 4.31 9.302 4.571 3.986.277 7.696-.502 10.722-3.305 3.644-3.377 3.244-8.444-.975-11.072-1.491-.931-3.23-1.572-4.939-2.045-3.251-.896-6.575-1.544-9.855-2.352-3.186-.786-6.081-2.154-8.3-4.651-4.007-4.506-3.898-11.4.211-15.964 2.975-3.305 6.75-5.066 11.1-5.656 4.117-.56 8.132-.19 11.87 1.74 5.201 2.686 7.856 7.068 8.292 12.855.007.131.007.262.007.393 0 .051-.021.102-.051.219h-5.971c-.277-1.136-.429-2.3-.837-3.363-1.243-3.218-3.6-5.322-6.96-6.108-4.044-.946-7.965-.597-11.383 1.987-2.393 1.813-3.441 4.295-2.808 7.316.327 1.543 1.338 2.665 2.575 3.582 1.491 1.106 3.193 1.725 4.982 2.147 2.931.692 5.863 1.361 8.787 2.053 3.309.779 6.4 2.038 8.953 4.339 5.703 5.132 5.535 13.583-.305 18.642-3.31 2.869-7.172 4.397-11.485 4.776-4.99.43-9.768-.313-14.009-3.145-4.64-3.101-7.143-7.49-7.433-13.089-.008-.13 0-.262 0-.465 1.992-.008 3.978-.008 6.051-.008z" fill="#fff"/><path d="M261.52 49.61c-1.345 0-2.487.007-3.637 0-1.396-.008-2.793-.03-4.189-.044a524.665 524.665 0 01-2.262-3.436l-10.27-15.782c-.139-.218-.291-.43-.488-.706-.218.313-.4.56-.567.823-4.117 6.165-8.234 12.324-12.329 18.497-.334.51-.691.677-1.28.67-2.16-.037-4.328-.015-6.648-.015.255-.386.415-.648.589-.903 5.295-7.716 10.591-15.44 15.907-23.148.371-.54.386-.896.008-1.442-4.99-7.287-9.958-14.595-14.933-21.896-.16-.233-.313-.466-.538-.809.335-.021.531-.043.727-.043 2.11 0 4.226.014 6.336-.015.472-.007.763.124 1.032.532 3.15 4.811 6.321 9.601 9.485 14.406l23.057 33.31zM240.827 17.281c1.076.736 2.473.641 3.52-.393.48-.473.88-1.048 1.258-1.616 2.873-4.39 5.739-8.786 8.583-13.197.306-.474.633-.663 1.2-.656 2.161.037 4.321.015 6.612.015-.189.313-.306.531-.444.742-3.833 5.657-7.666 11.306-11.499 16.962-.146.218-.298.436-.458.647-1.215 1.595-2.895 4.368-4.517 3.014-2.197-2.504-4.255-5.518-4.255-5.518zM39.27 1.347H22.679v-.015H16.59v.015H0v6.1h16.59V49.34h6.089V7.447h16.59v-6.1z" fill="#fff"/></svg><svg fill="none" viewBox="0 0 572 588" id="logo-3" xmlns="http://www.w3.org/2000/svg"><path d="M2.916 432.347l-1.05-1.519c28.976 18.465 65.82 15.33 93.59-12.106 13.008-12.837 23.841-28.429 34.058-43.786l.003-.003c77.616-118.716 155.036-237.63 231.867-356.938 4.099-6.357 8.318-10.764 13.38-13.565 5.059-2.8 11.008-4.022 18.614-3.925 42.263.713 84.529.6 128.132.484C537.834.945 554.346.9 571.115.899c-1.882 3.135-3.492 5.909-4.969 8.452-2.333 4.02-4.333 7.464-6.547 10.851A951795.692 951795.692 0 01404.27 249.56l-.092.136A911202.731 911202.731 0 00248.94 478.92l-.003.003c-3.925 5.9-8.046 11.797-12.361 17.497-3.898 5.122-7.969 10.686-12.189 16.455-13.578 18.56-28.706 39.24-44.64 54.136-10.438 9.759-21.168 16.98-31.973 19.507-10.759 2.517-21.643.39-32.473-8.648-29.65-33.84-58.367-71.123-79.677-99.951a2016.52 2016.52 0 01-25.6-35.417c-3.069-4.348-5.472-7.795-7.108-10.155z" stroke="#fff"/></svg></svg>