<?xml version="1.0" encoding="utf-8"?><svg viewBox="0 0 106 89" xmlns="http://www.w3.org/2000/svg" xmlns:xlink="http://www.w3.org/1999/xlink"><style>:root>svg{display:none}:root>svg:target{display:block}</style><svg fill="none" viewBox="0 0 106 89" id="i-service-card-1" xmlns="http://www.w3.org/2000/svg"><g filter="url(#aa)" fill="#fff"><path d="M11.075 37.95h4.05a18.309 18.309 0 001.308 3.165l-2.864 2.864a1.08 1.08 0 000 1.522l6.082 6.08c.404.404 1.118.404 1.52 0l2.864-2.863c1.009.533 2.066.971 3.163 1.309v4.049c0 .593.481 1.074 1.075 1.074h8.6c.593 0 1.075-.481 1.075-1.074v-4.051a18.22 18.22 0 003.162-1.31l2.864 2.864a1.08 1.08 0 001.522 0l6.082-6.08a1.08 1.08 0 000-1.522l-2.864-2.864a18.1 18.1 0 001.307-3.165h4.054c.593 0 1.075-.481 1.075-1.074v-8.6c0-.594-.482-1.076-1.075-1.076h-4.05a18.305 18.305 0 00-1.308-3.164l2.864-2.864c.419-.419.419-1.1 0-1.52l-6.084-6.079a1.077 1.077 0 00-1.52 0l-2.864 2.864a18.1 18.1 0 00-3.165-1.307v-4.053A1.072 1.072 0 0036.875 10h-8.6c-.593 0-1.075.482-1.075 1.075v4.051a18.316 18.316 0 00-3.165 1.307l-2.862-2.862a1.077 1.077 0 00-1.52 0l-6.082 6.083a1.077 1.077 0 000 1.52l2.864 2.864a18.235 18.235 0 00-1.31 3.163h-4.05c-.593 0-1.075.481-1.075 1.074v8.6c0 .594.482 1.076 1.075 1.076zm1.075-8.6h3.788c.49 0 .918-.331 1.041-.806a16.054 16.054 0 011.716-4.145c.249-.424.18-.961-.166-1.308l-2.678-2.678 4.562-4.563 2.679 2.679c.348.348.886.415 1.307.165a15.99 15.99 0 014.145-1.715c.475-.122.806-.55.806-1.04V12.15h6.45v3.789c0 .49.332.918.807 1.04 1.462.38 2.857.955 4.145 1.716.423.25.96.18 1.307-.165l2.679-2.68 4.562 4.563-2.678 2.68a1.077 1.077 0 00-.166 1.306 15.99 15.99 0 011.715 4.145c.123.475.551.806 1.04.806h3.79v6.45h-3.79c-.49 0-.917.331-1.04.806a16.059 16.059 0 01-1.716 4.145c-.249.424-.18.961.166 1.308l2.678 2.678-4.562 4.563-2.679-2.679a1.077 1.077 0 00-1.307-.165 16.08 16.08 0 01-4.147 1.717 1.076 1.076 0 00-.804 1.04V53h-6.45v-3.789c0-.49-.33-.918-.806-1.04a16.037 16.037 0 01-4.147-1.718 1.078 1.078 0 00-1.307.165l-2.68 2.679-4.562-4.563 2.679-2.678a1.07 1.07 0 00.168-1.305 15.986 15.986 0 01-1.716-4.145 1.075 1.075 0 00-1.04-.807h-3.79v-6.45z"/><path d="M32.576 42.25c5.334 0 9.675-4.341 9.675-9.675 0-5.335-4.341-9.676-9.675-9.676-5.335 0-9.675 4.341-9.675 9.676 0 5.334 4.34 9.675 9.675 9.675zm0-17.2c4.15 0 7.525 3.375 7.525 7.525S36.725 40.1 32.576 40.1c-4.15 0-7.526-3.375-7.526-7.525s3.376-7.525 7.526-7.525zm59.853 18.254l-6.082-6.082a1.077 1.077 0 00-1.52 0l-2.864 2.864a18.092 18.092 0 00-3.165-1.308v-4.053c0-.593-.482-1.074-1.075-1.074h-8.6c-.593 0-1.075.481-1.075 1.074v4.051a18.3 18.3 0 00-3.165 1.307L62.02 37.22a1.077 1.077 0 00-1.52 0l-6.083 6.082a1.077 1.077 0 000 1.52l2.864 2.864a18.268 18.268 0 00-1.31 3.165h-4.046c-.593 0-1.075.481-1.075 1.074v8.6c0 .594.482 1.075 1.075 1.075h4.05a18.238 18.238 0 001.31 3.165l-2.864 2.864a1.077 1.077 0 000 1.52l6.083 6.08c.403.404 1.117.404 1.52 0l2.864-2.864c1.008.534 2.066.972 3.162 1.31v4.05c0 .594.482 1.075 1.075 1.075h8.6c.593 0 1.075-.481 1.075-1.074v-4.051a18.232 18.232 0 003.162-1.31l2.864 2.864a1.08 1.08 0 001.522 0l6.082-6.08c.419-.419.419-1.1 0-1.52l-2.864-2.864a18.271 18.271 0 001.31-3.165h4.05c.592 0 1.074-.481 1.074-1.074v-8.6c0-.594-.482-1.075-1.075-1.075h-4.05a18.245 18.245 0 00-1.31-3.165l2.864-2.864c.42-.42.42-1.099 0-1.518zm-4.958 3.438a1.074 1.074 0 00-.166 1.305 15.979 15.979 0 011.716 4.147c.123.476.55.807 1.04.807h3.79v6.45h-3.79c-.49 0-.917.331-1.04.806a15.997 15.997 0 01-1.716 4.147c-.249.422-.18.96.166 1.306l2.679 2.678-4.563 4.56-2.679-2.678a1.08 1.08 0 00-1.307-.166 16.083 16.083 0 01-4.147 1.718 1.078 1.078 0 00-.804 1.04v3.789H70.2v-3.789c0-.49-.331-.918-.807-1.04a16.037 16.037 0 01-4.147-1.718 1.08 1.08 0 00-1.307.165l-2.679 2.679-4.562-4.56 2.678-2.68a1.07 1.07 0 00.166-1.304 15.974 15.974 0 01-1.716-4.147 1.07 1.07 0 00-1.038-.806H53V53h3.788c.49 0 .918-.331 1.041-.806a15.993 15.993 0 011.716-4.148c.249-.42.18-.958-.166-1.305l-2.678-2.678 4.562-4.563 2.679 2.679c.346.348.887.412 1.307.165a15.99 15.99 0 014.145-1.715c.474-.123.806-.551.806-1.041V35.8h6.45v3.789c0 .49.33.918.806 1.04 1.462.38 2.857.955 4.145 1.716.423.247.961.18 1.307-.165l2.679-2.679 4.563 4.563-2.679 2.678z"/><path d="M73.425 46.551c-5.334 0-9.675 4.341-9.675 9.675 0 5.335 4.34 9.675 9.675 9.675 5.334 0 9.675-4.34 9.675-9.675 0-5.334-4.34-9.675-9.675-9.675zm0 17.2c-4.15 0-7.525-3.375-7.525-7.525s3.376-7.524 7.525-7.524c4.15 0 7.525 3.375 7.525 7.524 0 4.15-3.375 7.525-7.525 7.525z"/></g><defs><filter id="aa" x="0" y="0" width="106" height="88.8" filterUnits="userSpaceOnUse" color-interpolation-filters="sRGB"><feFlood flood-opacity="0" result="BackgroundImageFix"/><feColorMatrix in="SourceAlpha" values="0 0 0 0 0 0 0 0 0 0 0 0 0 0 0 0 0 0 127 0" result="hardAlpha"/><feOffset/><feGaussianBlur stdDeviation="5"/><feComposite in2="hardAlpha" operator="out"/><feColorMatrix values="0 0 0 0 1 0 0 0 0 1 0 0 0 0 1 0 0 0 0.4 0"/><feBlend in2="BackgroundImageFix" result="effect1_dropShadow_2_31"/><feBlend in="SourceGraphic" in2="effect1_dropShadow_2_31" result="shape"/></filter></defs></svg><svg fill="none" viewBox="0 0 93 79" id="i-service-card-2" xmlns="http://www.w3.org/2000/svg"><g filter="url(#ba)"><path d="M11.256 10A1.258 1.258 0 0010 11.268v56.465-.001A1.258 1.258 0 0011.256 69h70.48A1.258 1.258 0 0083 67.732V11.267v.001A1.258 1.258 0 0081.736 10h-70.48zm1.264 2.526h67.963v11.383H12.52V12.526zm8.253 1.921c-2.063 0-3.744 1.706-3.744 3.774 0 2.069 1.692 3.767 3.744 3.767 2.05 0 3.743-1.7 3.743-3.767 0-2.066-1.682-3.774-3.743-3.774zm9.336 0c-.258 0-.51.024-.753.076a3.773 3.773 0 00-2.697 2.235 3.76 3.76 0 000 2.925c.572 1.35 1.91 2.304 3.45 2.304 2.05 0 3.743-1.7 3.743-3.767 0-2.066-1.682-3.774-3.744-3.774v.001zm9.343 0a3.57 3.57 0 00-.752.076 3.787 3.787 0 00-2.705 2.235 3.743 3.743 0 000 2.925c.575 1.35 1.918 2.304 3.457 2.304 2.051 0 3.743-1.7 3.743-3.767 0-2.066-1.682-3.774-3.743-3.774v.001zm24.882 2.506c-.696 0-1.26.566-1.26 1.264 0 .699.564 1.265 1.26 1.265h8.614c.696 0 1.26-.566 1.26-1.265 0-.698-.564-1.264-1.26-1.264h-8.614zm-43.563.02c.643 0 1.227.582 1.227 1.248 0 .664-.574 1.24-1.227 1.24-.652 0-1.226-.577-1.226-1.24 0-.166.038-.326.103-.474.195-.444.642-.775 1.123-.775zm9.337 0c.642 0 1.226.582 1.226 1.248 0 .665-.573 1.24-1.226 1.24s-1.227-.577-1.227-1.24c0-.166.036-.326.1-.474.195-.444.645-.775 1.127-.775zm9.343 0c.643 0 1.227.582 1.227 1.248 0 .665-.574 1.24-1.227 1.24-.653 0-1.236-.577-1.236-1.24 0-.166.037-.326.103-.474.197-.444.651-.775 1.133-.775zm-26.933 9.46h67.963v40.04H12.518v-40.04zm37.248 5.911a1.26 1.26 0 00-1.143.962L41.942 58.96a1.264 1.264 0 00.896 1.547 1.257 1.257 0 001.54-.903l6.679-25.665a1.259 1.259 0 00-1.29-1.596v.001zM34.975 35.81a1.257 1.257 0 00-.986.421l-8.611 9.36a1.266 1.266 0 000 1.715l8.611 9.36a1.258 1.258 0 002.238-.781 1.264 1.264 0 00-.39-.925l-7.821-8.51 7.822-8.503c.344-.358.447-.888.26-1.35a1.26 1.26 0 00-1.123-.788zm23.015.002a1.266 1.266 0 00-.838 2.136l7.834 8.502-7.835 8.51a1.266 1.266 0 00.029 1.833 1.258 1.258 0 001.822-.126l8.612-9.36a1.267 1.267 0 000-1.715l-8.612-9.36a1.255 1.255 0 00-1.012-.42z" fill="#fff"/></g><defs><filter id="ba" x="0" y="0" width="93" height="79" filterUnits="userSpaceOnUse" color-interpolation-filters="sRGB"><feFlood flood-opacity="0" result="BackgroundImageFix"/><feColorMatrix in="SourceAlpha" values="0 0 0 0 0 0 0 0 0 0 0 0 0 0 0 0 0 0 127 0" result="hardAlpha"/><feOffset/><feGaussianBlur stdDeviation="5"/><feComposite in2="hardAlpha" operator="out"/><feColorMatrix values="0 0 0 0 1 0 0 0 0 1 0 0 0 0 1 0 0 0 0.4 0"/><feBlend in2="BackgroundImageFix" result="effect1_dropShadow_2_30"/><feBlend in="SourceGraphic" in2="effect1_dropShadow_2_30" result="shape"/></filter></defs></svg><svg fill="none" viewBox="0 0 105 88" id="i-service-card-3" xmlns="http://www.w3.org/2000/svg"><g filter="url(#ca)"><path d="M45.574 10.001c-2.681 0-4.88 2.193-4.88 4.856l-.001 14.803H14.88c-2.681 0-4.88 2.196-4.88 4.858v28.523c0 2.663 2.2 4.858 4.88 4.858h3.515v8.647c0 .52.28 1 .734 1.26a1.474 1.474 0 001.464-.001l17.255-9.907H59.43c2.681 0 4.88-2.195 4.88-4.858V48.237h2.845l17.255 9.906a1.474 1.474 0 001.46 0c.453-.26.733-.738.735-1.256v-8.65h3.518c2.68 0 4.877-2.192 4.877-4.856V14.855C95 12.193 92.804 10 90.123 10l-44.55.001zm0 2.911h44.55c1.107 0 1.946.842 1.946 1.945v28.526c0 1.102-.84 1.944-1.947 1.944h-4.978a1.47 1.47 0 00-1.042.426 1.45 1.45 0 00-.43 1.035v7.564L68.28 45.52a1.472 1.472 0 00-.735-.193H45.574c-1.108 0-1.95-.841-1.95-1.944V14.857c0-1.103.842-1.944 1.95-1.945zm8.882 11.12c-2.814 0-5.13 2.3-5.13 5.094 0 2.795 2.316 5.08 5.13 5.08 2.813 0 5.114-2.285 5.114-5.08 0-2.794-2.301-5.094-5.114-5.094zm13.393 0c-2.814 0-5.13 2.3-5.13 5.094 0 2.795 2.316 5.08 5.13 5.08 2.813 0 5.126-2.285 5.126-5.08 0-2.794-2.313-5.094-5.126-5.094zm13.393 0c-2.814 0-5.13 2.3-5.13 5.094 0 2.795 2.316 5.08 5.13 5.08 2.813 0 5.126-2.285 5.126-5.08 0-2.794-2.313-5.094-5.126-5.094zm-26.786 2.9c1.228 0 2.183.972 2.183 2.194 0 1.223-.955 2.18-2.183 2.18-1.228 0-2.199-.957-2.199-2.18 0-1.223.97-2.195 2.199-2.195zm13.393 0c1.228 0 2.195.972 2.195 2.194 0 1.223-.967 2.18-2.195 2.18-1.228 0-2.199-.957-2.199-2.18 0-1.223.97-2.195 2.199-2.195zm13.393 0c1.228 0 2.195.972 2.195 2.194 0 1.223-.967 2.18-2.195 2.18-1.228 0-2.199-.957-2.199-2.18a2.18 2.18 0 012.199-2.195zm-66.36 5.642h25.813v10.808c0 2.662 2.2 4.855 4.88 4.855h15.803v14.804c0 1.103-.84 1.948-1.947 1.948h-21.97a1.473 1.473 0 00-.736.192l-15.394 8.83v-7.562a1.448 1.448 0 00-.429-1.034 1.469 1.469 0 00-1.041-.427h-4.979c-1.107 0-1.946-.844-1.946-1.947V34.52c0-1.103.839-1.944 1.947-1.944l-.001-.001z" fill="#fff"/></g><defs><filter id="ca" x="0" y="0" width="105" height="88" filterUnits="userSpaceOnUse" color-interpolation-filters="sRGB"><feFlood flood-opacity="0" result="BackgroundImageFix"/><feColorMatrix in="SourceAlpha" values="0 0 0 0 0 0 0 0 0 0 0 0 0 0 0 0 0 0 127 0" result="hardAlpha"/><feOffset/><feGaussianBlur stdDeviation="5"/><feComposite in2="hardAlpha" operator="out"/><feColorMatrix values="0 0 0 0 1 0 0 0 0 1 0 0 0 0 1 0 0 0 0.4 0"/><feBlend in2="BackgroundImageFix" result="effect1_dropShadow_2_29"/><feBlend in="SourceGraphic" in2="effect1_dropShadow_2_29" result="shape"/></filter></defs></svg></svg>