<?xml version="1.0" encoding="UTF-8"?>
<svg width="50px" height="24px" viewBox="0 0 50 24" version="1.1" xmlns="http://www.w3.org/2000/svg" xmlns:xlink="http://www.w3.org/1999/xlink">
    <!-- Generator: sketchtool 40.1 (33804) - http://www.bohemiancoding.com/sketch -->
    <title>D6647FE7-D91C-41C3-95BC-D9A6690C26D6</title>
    <desc>Created with sketchtool.</desc>
    <defs></defs>
    <g id="Checkout2" stroke="none" stroke-width="1" fill="none" fill-rule="evenodd">
        <g id="checkout-C-payment" transform="translate(-62.000000, -372.000000)">
            <g id="Group-27" transform="translate(32.000000, 372.000000)">
                <g id="Group-11" transform="translate(30.000000, 0.000000)">
                    <g id="Group-6-Copy-2">
                        <rect id="card" fill="#F1EFEB" x="0" y="0" width="40" height="24" rx="3"></rect>
                        <path d="M19.9057143,19.9727085 C20.9455409,19.9727085 21.2722768,19.1930751 21.5464075,18.4146637 C21.6615542,18.0841138 24.3637005,10.3488794 24.4449461,10.1167002 C24.4665726,10.0519344 24.4519601,9.94562075 24.3566865,9.90712788 C24.2608284,9.869246 22.8568579,9.2985739 22.7791193,9.268024 C22.7013808,9.2368631 22.6142902,9.28207695 22.5862341,9.36333968 C22.5570091,9.44338042 21.974262,11.1297348 21.9087979,11.3179222 L17.9037997,11.3179222 C17.8406737,11.1297348 17.2509125,9.43971443 17.22461,9.36333968 C17.197723,9.28574294 17.1141394,9.23319711 17.0311403,9.268024 C16.9481412,9.30223988 15.5389102,9.87291199 15.4547422,9.90712788 C15.3740811,9.94012177 15.3372575,10.0360484 15.3653136,10.1167002 C15.4646787,10.4063132 18.12591,18.017515 18.2615141,18.4146637 C18.5257084,19.1814661 18.8635497,19.9727085 19.9057143,19.9727085 L19.9057143,19.9727085 Z M15.1513863,6.1317714 C15.0672183,6.1317714 15.0000007,6.05845164 15.0000007,5.96924594 L15.0000007,4.16130294 C15.0000007,4.07209723 15.0672183,3.99999947 15.1513863,3.99999947 L24.6559508,3.99999947 C24.7418724,3.99999947 24.80909,4.07209723 24.80909,4.16130294 L24.80909,5.96924594 C24.80909,6.05845164 24.7418724,6.1317714 24.6559508,6.1317714 L15.1513863,6.1317714 L15.1513863,6.1317714 Z M19.8963623,17.4468429 L18.5426589,13.197352 L21.2722768,13.197352 L19.9138973,17.4468429 L19.8963623,17.4468429 L19.8963623,17.4468429 Z" id="path134" fill="#EE2A23" transform="translate(19.904545, 11.986354) scale(1, -1) translate(-19.904545, -11.986354) "></path>
                    </g>
                </g>
            </g>
        </g>
    </g>
</svg>