<?xml version="1.0" encoding="UTF-8"?>
<svg width="50px" height="24px" viewBox="0 0 50 24" version="1.1" xmlns="http://www.w3.org/2000/svg" xmlns:xlink="http://www.w3.org/1999/xlink">
    <!-- Generator: sketchtool 40.1 (33804) - http://www.bohemiancoding.com/sketch -->
    <title>6CE7C901-F223-49DC-A4EE-2232FCE63978</title>
    <desc>Created with sketchtool.</desc>
    <defs></defs>
    <g id="Checkout2" stroke="none" stroke-width="1" fill="none" fill-rule="evenodd">
        <g id="checkout-C-payment" transform="translate(-62.000000, -272.000000)">
            <g id="Group-32" transform="translate(32.000000, 272.000000)">
                <g id="mastercard" transform="translate(30.000000, 0.000000)">
                    <rect id="card" fill="#F1EFEB" x="0" y="0" width="50" height="24" rx="3"></rect>
                    <g id="WebMoney-logo-blue_8" transform="translate(3.000000, 7.000000)" fill="#0068A3">
                        <path d="M38.4499043,0.02662 C39.3122821,0.02662 40.1289975,0.22594 40.8563829,0.57981 C40.9706499,0.6336 41.0845844,0.69278 41.1988514,0.75812 L40.6932393,1.20725 L39.933602,0.42768 L38.6515063,1.56266 L37.8899849,0.73777 L35.5016826,2.87441 L37.0328161,4.54916 L36.4311134,5.07441 L37.939194,6.75169 L37.3410378,7.27573 L39.4960403,9.65646 L40.7752544,8.4876 L41.8812393,9.74017 C41.6612393,9.9099 41.4216222,10.06962 41.1576222,10.21724 C40.357864,10.66989 39.4335315,10.92905 38.4499043,10.92905 C35.4248766,10.92905 32.9576625,8.48001 32.9576625,5.478 C32.9576625,2.47533 35.4248766,0.02662 38.4499043,0.02662" id="Fill-1"></path>
                        <polyline id="Fill-2" points="37.4489874 5.13337 38.7550227 3.96605 39.9310529 5.26262 38.6251285 6.4295 37.4489874 5.13337"></polyline>
                        <polyline id="Fill-3" points="38.3776423 7.37319 39.6837884 6.2062 40.8599295 7.50244 39.5538942 8.66976 38.3776423 7.37319"></polyline>
                        <polyline id="Fill-4" points="36.5144584 2.91973 37.8204937 1.75274 38.9961914 3.04898 37.6901562 4.21597 36.5144584 2.91973"></polyline>
                        <polyline id="Fill-5" points="38.911073 2.29152 39.8905995 1.41636 40.7724836 2.38854 39.7929572 3.26403 38.911073 2.29152"></polyline>
                        <polyline id="Fill-6" points="40.6514559 6.30091 41.6313149 5.42542 42.513199 6.39782 41.5336725 7.27309 40.6514559 6.30091"></polyline>
                        <polyline id="Fill-7" points="41.5131688 8.26463 42.4924736 7.38903 43.3745793 8.36121 42.3950529 9.23648 41.5131688 8.26463"></polyline>
                        <polyline id="Fill-8" points="41.907728 3.76398 42.5607456 3.18043 43.1485945 3.82855 42.4959093 4.41199 41.907728 3.76398"></polyline>
                        <polyline id="Fill-9" points="41.0733904 1.83821 41.7264081 1.25477 42.3143678 1.90289 41.6612393 2.48633 41.0733904 1.83821"></polyline>
                        <polyline id="Fill-10" points="42.7426196 5.68964 43.3956373 5.10609 43.983597 5.7541 43.3305793 6.33765 42.7426196 5.68964"></polyline>
                        <polyline id="Fill-11" points="39.8140151 4.24666 40.7934307 3.37106 41.6753149 4.34324 40.6961209 5.21851 39.8140151 4.24666"></polyline>
                        <polyline id="Fill-12" points="2.61617128 4.53816 2.57228212 4.53816 1.74492695 7.64192 1.06830227 7.64192 0.0530881612 3.23202 0.754871537 3.23202 1.45676574 6.52234 1.50065491 6.52234 2.31526448 3.23202 2.87296725 3.23202 3.74421159 6.52234 3.78787909 6.52234 4.42704282 3.23202 5.16030227 3.23202 4.14497733 7.64192 3.46824181 7.64192 2.61617128 4.53816"></polyline>
                        <path d="M7.93717884,6.95761 L7.93717884,7.43028 C7.65522418,7.5922 7.27928463,7.71661 6.82797985,7.71661 C5.77530479,7.71661 5.34295214,7.0697 5.34295214,6.08685 C5.34295214,5.14162 5.82551134,4.45742 6.76547103,4.45742 C7.54860453,4.45742 8.03116373,4.96133 8.03116373,5.97498 L8.03116373,6.20499 L5.98843325,6.20499 C5.98843325,6.95123 6.29543577,7.28101 6.94091688,7.28101 C7.27928463,7.28101 7.5924937,7.16287 7.93717884,6.95761 L7.93717884,6.95761 Z M6.00106801,5.78842 L7.43577834,5.78842 C7.40474559,5.13524 7.08499748,4.87421 6.74662972,4.87421 C6.36415113,4.87421 6.06978338,5.16659 6.00106801,5.78842 L6.00106801,5.78842 Z" id="Fill-13"></path>
                        <path d="M9.25296725,4.68765 C9.44093703,4.5881 9.76046348,4.45742 10.0989421,4.45742 C10.875869,4.45742 11.2958086,4.99235 11.2958086,5.98774 C11.2958086,7.15055 10.7320101,7.71661 9.82330479,7.71661 C9.49103275,7.71661 8.97721914,7.6109 8.60116877,7.41158 L8.60116877,3.07054 L9.25296725,2.915 L9.25296725,4.68765 L9.25296725,4.68765 Z M9.24676071,7.18157 C9.44714358,7.26869 9.66658942,7.28101 9.82330479,7.28101 C10.2870227,7.28101 10.6379144,6.99501 10.6379144,5.98774 C10.6379144,5.19761 10.3496423,4.94263 9.9298136,4.94263 C9.67900252,4.94263 9.49746096,5.01105 9.24676071,5.14789 L9.24676071,7.18157 L9.24676071,7.18157 Z" id="Fill-14"></path>
                        <polyline id="Fill-15" points="14.1470529 6.7089 14.178529 6.7089 15.5194761 3.23202 16.2966247 3.23202 16.2966247 7.64192 15.6198892 7.64192 15.6198892 4.44499 15.5633652 4.44499 14.284927 7.64192 13.8840504 7.64192 12.6055013 4.51968 12.549199 4.51968 12.549199 7.64192 11.9851788 7.64192 11.9851788 3.23202 12.7433753 3.23202 14.1470529 6.7089"></polyline>
                        <path d="M16.9858841,6.08685 C16.9858841,4.9984 17.5874761,4.45742 18.4146096,4.45742 C19.2418539,4.45742 19.8435567,4.9984 19.8435567,6.08685 C19.8435567,7.15055 19.2732191,7.71661 18.4146096,7.71661 C17.556,7.71661 16.9858841,7.15055 16.9858841,6.08685 L16.9858841,6.08685 Z M19.1854408,6.08685 C19.1854408,5.24733 18.8406448,4.89291 18.4146096,4.89291 C18.0009874,4.89291 17.6437783,5.24733 17.6437783,6.08685 C17.6437783,6.93924 17.9698438,7.28101 18.4146096,7.28101 C18.8594861,7.28101 19.1854408,6.93924 19.1854408,6.08685 L19.1854408,6.08685 Z" id="Fill-16"></path>
                        <path d="M20.4387204,4.91766 C20.7206751,4.74969 21.3161713,4.45742 22.0364635,4.45742 C22.7887859,4.45742 23.0705189,4.74969 23.0705189,5.39022 L23.0705189,7.64192 L22.4188312,7.64192 L22.4188312,5.53344 C22.4188312,5.04207 22.17467,4.95495 21.8551436,4.95495 C21.6043325,4.95495 21.2846952,5.06715 21.0905189,5.17891 L21.0905189,7.64192 L20.4387204,7.64192 L20.4387204,4.91766" id="Fill-17"></path>
                        <path d="M26.2474962,6.95761 L26.2474962,7.43028 C25.9656524,7.5922 25.5898237,7.71661 25.1384081,7.71661 C24.0858438,7.71661 23.6533804,7.0697 23.6533804,6.08685 C23.6533804,5.14162 24.1360504,4.45742 25.0758992,4.45742 C25.8593652,4.45742 26.3420353,4.96133 26.3420353,5.97498 L26.3420353,6.20499 L24.2990831,6.20499 C24.2990831,6.95123 24.6060856,7.28101 25.2514559,7.28101 C25.5898237,7.28101 25.9031436,7.16287 26.2474962,6.95761 L26.2474962,6.95761 Z M24.3114962,5.78842 L25.7464282,5.78842 C25.7152846,5.13524 25.3954257,4.87421 25.0570579,4.87421 C24.6746902,4.87421 24.3805441,5.16659 24.3114962,5.78842 L24.3114962,5.78842 Z" id="Fill-18"></path>
                        <path d="M28.7795466,4.56313 L29.4500756,4.56313 L28.3157179,7.67294 C28.0022872,8.53138 27.6199194,8.97897 26.8996272,8.97897 L26.8996272,8.46923 C27.3257733,8.46923 27.588665,8.13307 27.7392846,7.67294 L26.5361008,4.56313 L27.225471,4.56313 L28.0275567,6.85179 L28.0649068,6.85179 L28.7795466,4.56313" id="Fill-19"></path>
                    </g>
                </g>
            </g>
        </g>
    </g>
</svg>