<?xml version="1.0" encoding="UTF-8" standalone="no"?>
<svg width="40px" height="24px" viewBox="0 0 40 24" version="1.1" xmlns="http://www.w3.org/2000/svg" xmlns:xlink="http://www.w3.org/1999/xlink">
    <!-- Generator: sketchtool 39.1 (31720) - http://www.bohemiancoding.com/sketch -->
    <title>3C2AA0A8-8C48-48E3-9AAE-D868F8C72A18</title>
    <desc>Created with sketchtool.</desc>
    <defs></defs>
    <g id="Checkout2" stroke="none" stroke-width="1" fill="none" fill-rule="evenodd">
        <g id="checkout-C-default" transform="translate(-317.000000, -1085.000000)">
            <g id="Group-19" transform="translate(317.000000, 1085.000000)">
                <rect id="card" fill="#F1EFEB" x="0" y="0" width="40" height="24" rx="3"></rect>
                <g id="ic-local-post-office-24-px" transform="translate(8.000000, 0.000000)">
                    <g id="Group">
                        <polygon id="Shape" points="0 0 24 0 24 24 0 24"></polygon>
                        <path d="M20,4 L4,4 C2.9,4 2.01,4.9 2.01,6 L2,18 C2,19.1 2.9,20 4,20 L20,20 C21.1,20 22,19.1 22,18 L22,6 C22,4.9 21.1,4 20,4 L20,4 Z M20,8 L12,13 L4,8 L4,6 L12,11 L20,6 L20,8 L20,8 Z" id="Shape" fill="#4990E2"></path>
                    </g>
                </g>
            </g>
        </g>
    </g>
</svg>